<?xml version="1.0" encoding="utf-8" standalone="no"?>
<!DOCTYPE svg PUBLIC "-//W3C//DTD SVG 1.1//EN"
  "http://www.w3.org/Graphics/SVG/1.1/DTD/svg11.dtd">
<svg height="1008pt" version="1.1" viewBox="0 0 1008 1008" width="1008pt" xmlns="http://www.w3.org/2000/svg" xmlns:xlink="http://www.w3.org/1999/xlink">
 <metadata>
  <rdf:RDF xmlns:cc="http://creativecommons.org/ns#" xmlns:dc="http://purl.org/dc/elements/1.1/" xmlns:rdf="http://www.w3.org/1999/02/22-rdf-syntax-ns#">
   <cc:Work>
    <dc:type rdf:resource="http://purl.org/dc/dcmitype/StillImage"/>
    <dc:date>2021-09-27T15:02:13.360685</dc:date>
    <dc:format>image/svg+xml</dc:format>
    <dc:creator>
     <cc:Agent>
      <dc:title>Matplotlib v3.4.2, https://matplotlib.org/</dc:title>
     </cc:Agent>
    </dc:creator>
   </cc:Work>
  </rdf:RDF>
 </metadata>
 <defs>
  <style type="text/css">*{stroke-linecap:butt;stroke-linejoin:round;}</style>
 </defs>
 <g id="figure_1">
  <g id="patch_1">
   <path d="M 0 1008 
L 1008 1008 
L 1008 0 
L 0 0 
z
" style="fill:none;"/>
  </g>
  <g id="axes_1">
   <g id="patch_2">
    <path d="M 126 882 
L 907.2 882 
L 907.2 120.96 
L 126 120.96 
z
" style="fill:#ffffff;"/>
   </g>
   <g id="PolyCollection_1">
    <path clip-path="url(#pf67c05ac24)" d="M 161.509091 150728.483716 
L 161.509091 150728.483716 
L 161.509091 150728.483716 
L 161.509091 150728.483716 
L 169.253938 150728.483716 
L 169.253938 150728.483716 
L 184.049393 150728.483716 
L 184.049393 150728.483716 
L 198.844847 150728.483716 
L 198.844847 150728.483716 
L 213.640302 150728.483716 
L 213.640302 150728.483716 
L 228.435756 150728.483716 
L 228.435756 150728.483716 
L 243.231211 150728.483716 
L 243.231211 150728.483716 
L 258.026665 150728.483716 
L 258.026665 150728.483716 
L 272.82212 150728.483716 
L 272.82212 150728.483716 
L 287.617575 150728.483716 
L 287.617575 150728.483716 
L 302.413029 150728.483716 
L 302.413029 150728.483716 
L 317.208484 150728.483716 
L 317.208484 150728.483716 
L 332.003938 150728.483716 
L 332.003938 150728.483716 
L 346.799393 150728.483716 
L 346.799393 150728.483716 
L 361.594847 150728.483716 
L 361.594847 150728.483716 
L 376.390302 150728.483716 
L 376.390302 150728.483716 
L 391.185756 150728.483716 
L 391.185756 594.702966 
L 405.981211 594.702966 
L 405.981211 150728.483716 
L 420.776665 150728.483716 
L 420.776665 619.180864 
L 435.57212 619.180864 
L 435.57212 488.352973 
L 450.367575 488.352973 
L 450.367575 481.860216 
L 465.163029 481.860216 
L 465.163029 471.420037 
L 479.958484 471.420037 
L 479.958484 453.536401 
L 494.753938 453.536401 
L 494.753938 461.122477 
L 509.549393 461.122477 
L 509.549393 485.683451 
L 524.344847 485.683451 
L 524.344847 466.30976 
L 539.140302 466.30976 
L 539.140302 463.686212 
L 553.935756 463.686212 
L 553.935756 489.139153 
L 568.731211 489.139153 
L 568.731211 473.90098 
L 583.526665 473.90098 
L 583.526665 476.255457 
L 598.32212 476.255457 
L 598.32212 479.914576 
L 613.117575 479.914576 
L 613.117575 478.432947 
L 627.913029 478.432947 
L 627.913029 476.142456 
L 642.708484 476.142456 
L 642.708484 495.531729 
L 657.503938 495.531729 
L 657.503938 490.064387 
L 672.299393 490.064387 
L 672.299393 478.770006 
L 687.094847 478.770006 
L 687.094847 492.255167 
L 701.890302 492.255167 
L 701.890302 494.053801 
L 716.685756 494.053801 
L 716.685756 488.166747 
L 731.481211 488.166747 
L 731.481211 492.220222 
L 746.276665 492.220222 
L 746.276665 486.718817 
L 761.07212 486.718817 
L 761.07212 489.115515 
L 775.867575 489.115515 
L 775.867575 490.090939 
L 790.663029 490.090939 
L 790.663029 493.41406 
L 805.458484 493.41406 
L 805.458484 493.610018 
L 820.253938 493.610018 
L 820.253938 494.719513 
L 835.049393 494.719513 
L 835.049393 495.762524 
L 849.844847 495.762524 
L 849.844847 497.15145 
L 864.640302 497.15145 
L 864.640302 587.27141 
L 871.690909 587.27141 
L 871.690909 150728.483716 
L 871.690909 150728.483716 
L 871.690909 150728.483716 
L 871.690909 150728.483716 
L 871.690909 150728.483716 
L 871.690909 150728.483716 
L 864.640302 150728.483716 
L 864.640302 150728.483716 
L 849.844847 150728.483716 
L 849.844847 150728.483716 
L 835.049393 150728.483716 
L 835.049393 150728.483716 
L 820.253938 150728.483716 
L 820.253938 150728.483716 
L 805.458484 150728.483716 
L 805.458484 150728.483716 
L 790.663029 150728.483716 
L 790.663029 150728.483716 
L 775.867575 150728.483716 
L 775.867575 150728.483716 
L 761.07212 150728.483716 
L 761.07212 150728.483716 
L 746.276665 150728.483716 
L 746.276665 150728.483716 
L 731.481211 150728.483716 
L 731.481211 150728.483716 
L 716.685756 150728.483716 
L 716.685756 150728.483716 
L 701.890302 150728.483716 
L 701.890302 150728.483716 
L 687.094847 150728.483716 
L 687.094847 150728.483716 
L 672.299393 150728.483716 
L 672.299393 150728.483716 
L 657.503938 150728.483716 
L 657.503938 150728.483716 
L 642.708484 150728.483716 
L 642.708484 150728.483716 
L 627.913029 150728.483716 
L 627.913029 150728.483716 
L 613.117575 150728.483716 
L 613.117575 150728.483716 
L 598.32212 150728.483716 
L 598.32212 150728.483716 
L 583.526665 150728.483716 
L 583.526665 150728.483716 
L 568.731211 150728.483716 
L 568.731211 150728.483716 
L 553.935756 150728.483716 
L 553.935756 150728.483716 
L 539.140302 150728.483716 
L 539.140302 150728.483716 
L 524.344847 150728.483716 
L 524.344847 150728.483716 
L 509.549393 150728.483716 
L 509.549393 150728.483716 
L 494.753938 150728.483716 
L 494.753938 150728.483716 
L 479.958484 150728.483716 
L 479.958484 150728.483716 
L 465.163029 150728.483716 
L 465.163029 150728.483716 
L 450.367575 150728.483716 
L 450.367575 150728.483716 
L 435.57212 150728.483716 
L 435.57212 150728.483716 
L 420.776665 150728.483716 
L 420.776665 150728.483716 
L 405.981211 150728.483716 
L 405.981211 150728.483716 
L 391.185756 150728.483716 
L 391.185756 150728.483716 
L 376.390302 150728.483716 
L 376.390302 150728.483716 
L 361.594847 150728.483716 
L 361.594847 150728.483716 
L 346.799393 150728.483716 
L 346.799393 150728.483716 
L 332.003938 150728.483716 
L 332.003938 150728.483716 
L 317.208484 150728.483716 
L 317.208484 150728.483716 
L 302.413029 150728.483716 
L 302.413029 150728.483716 
L 287.617575 150728.483716 
L 287.617575 150728.483716 
L 272.82212 150728.483716 
L 272.82212 150728.483716 
L 258.026665 150728.483716 
L 258.026665 150728.483716 
L 243.231211 150728.483716 
L 243.231211 150728.483716 
L 228.435756 150728.483716 
L 228.435756 150728.483716 
L 213.640302 150728.483716 
L 213.640302 150728.483716 
L 198.844847 150728.483716 
L 198.844847 150728.483716 
L 184.049393 150728.483716 
L 184.049393 150728.483716 
L 169.253938 150728.483716 
L 169.253938 150728.483716 
L 161.509091 150728.483716 
L 161.509091 150728.483716 
L 161.509091 150728.483716 
z
" style="fill:#00bfbf;fill-opacity:0.4;stroke:#00bfbf;stroke-opacity:0.4;"/>
   </g>
   <g id="PolyCollection_2">
    <path clip-path="url(#pf67c05ac24)" d="M 161.509091 150728.483716 
L 161.509091 150728.483716 
L 161.509091 150728.483716 
L 161.509091 150728.483716 
L 169.253938 150728.483716 
L 169.253938 150728.483716 
L 184.049393 150728.483716 
L 184.049393 150728.483716 
L 198.844847 150728.483716 
L 198.844847 150728.483716 
L 213.640302 150728.483716 
L 213.640302 150728.483716 
L 228.435756 150728.483716 
L 228.435756 150728.483716 
L 243.231211 150728.483716 
L 243.231211 150728.483716 
L 258.026665 150728.483716 
L 258.026665 150728.483716 
L 272.82212 150728.483716 
L 272.82212 150728.483716 
L 287.617575 150728.483716 
L 287.617575 150728.483716 
L 302.413029 150728.483716 
L 302.413029 150728.483716 
L 317.208484 150728.483716 
L 317.208484 150728.483716 
L 332.003938 150728.483716 
L 332.003938 150728.483716 
L 346.799393 150728.483716 
L 346.799393 150728.483716 
L 361.594847 150728.483716 
L 361.594847 150728.483716 
L 376.390302 150728.483716 
L 376.390302 150728.483716 
L 391.185756 150728.483716 
L 391.185756 150728.483716 
L 405.981211 150728.483716 
L 405.981211 606.941915 
L 420.776665 606.941915 
L 420.776665 619.180864 
L 435.57212 619.180864 
L 435.57212 541.154687 
L 450.367575 541.154687 
L 450.367575 538.864197 
L 465.163029 538.864197 
L 465.163029 512.830872 
L 479.958484 512.830872 
L 479.958484 473.076969 
L 494.753938 473.076969 
L 494.753938 518.577065 
L 509.549393 518.577065 
L 509.549393 478.0143 
L 524.344847 478.0143 
L 524.344847 471.521543 
L 539.140302 471.521543 
L 539.140302 465.028786 
L 553.935756 465.028786 
L 553.935756 480.0389 
L 568.731211 480.0389 
L 568.731211 488.164111 
L 583.526665 488.164111 
L 583.526665 495.293575 
L 598.32212 495.293575 
L 598.32212 479.115639 
L 613.117575 479.115639 
L 613.117575 488.253406 
L 627.913029 488.253406 
L 627.913029 485.060649 
L 642.708484 485.060649 
L 642.708484 488.9044 
L 657.503938 488.9044 
L 657.503938 490.064387 
L 672.299393 490.064387 
L 672.299393 487.685368 
L 687.094847 487.685368 
L 687.094847 494.82151 
L 701.890302 494.82151 
L 701.890302 494.862663 
L 716.685756 494.862663 
L 716.685756 490.437144 
L 731.481211 490.437144 
L 731.481211 493.120824 
L 746.276665 493.120824 
L 746.276665 500.807044 
L 761.07212 500.807044 
L 761.07212 494.483631 
L 775.867575 494.483631 
L 775.867575 495.640157 
L 790.663029 495.640157 
L 790.663029 496.222583 
L 805.458484 496.222583 
L 805.458484 494.762482 
L 820.253938 494.762482 
L 820.253938 495.384858 
L 835.049393 495.384858 
L 835.049393 498.136144 
L 849.844847 498.136144 
L 849.844847 493.563306 
L 864.640302 493.563306 
L 864.640302 550.36897 
L 871.690909 550.36897 
L 871.690909 150728.483716 
L 871.690909 150728.483716 
L 871.690909 150728.483716 
L 871.690909 150728.483716 
L 871.690909 150728.483716 
L 871.690909 150728.483716 
L 864.640302 150728.483716 
L 864.640302 150728.483716 
L 849.844847 150728.483716 
L 849.844847 150728.483716 
L 835.049393 150728.483716 
L 835.049393 150728.483716 
L 820.253938 150728.483716 
L 820.253938 150728.483716 
L 805.458484 150728.483716 
L 805.458484 150728.483716 
L 790.663029 150728.483716 
L 790.663029 150728.483716 
L 775.867575 150728.483716 
L 775.867575 150728.483716 
L 761.07212 150728.483716 
L 761.07212 150728.483716 
L 746.276665 150728.483716 
L 746.276665 150728.483716 
L 731.481211 150728.483716 
L 731.481211 150728.483716 
L 716.685756 150728.483716 
L 716.685756 150728.483716 
L 701.890302 150728.483716 
L 701.890302 150728.483716 
L 687.094847 150728.483716 
L 687.094847 150728.483716 
L 672.299393 150728.483716 
L 672.299393 150728.483716 
L 657.503938 150728.483716 
L 657.503938 150728.483716 
L 642.708484 150728.483716 
L 642.708484 150728.483716 
L 627.913029 150728.483716 
L 627.913029 150728.483716 
L 613.117575 150728.483716 
L 613.117575 150728.483716 
L 598.32212 150728.483716 
L 598.32212 150728.483716 
L 583.526665 150728.483716 
L 583.526665 150728.483716 
L 568.731211 150728.483716 
L 568.731211 150728.483716 
L 553.935756 150728.483716 
L 553.935756 150728.483716 
L 539.140302 150728.483716 
L 539.140302 150728.483716 
L 524.344847 150728.483716 
L 524.344847 150728.483716 
L 509.549393 150728.483716 
L 509.549393 150728.483716 
L 494.753938 150728.483716 
L 494.753938 150728.483716 
L 479.958484 150728.483716 
L 479.958484 150728.483716 
L 465.163029 150728.483716 
L 465.163029 150728.483716 
L 450.367575 150728.483716 
L 450.367575 150728.483716 
L 435.57212 150728.483716 
L 435.57212 150728.483716 
L 420.776665 150728.483716 
L 420.776665 150728.483716 
L 405.981211 150728.483716 
L 405.981211 150728.483716 
L 391.185756 150728.483716 
L 391.185756 150728.483716 
L 376.390302 150728.483716 
L 376.390302 150728.483716 
L 361.594847 150728.483716 
L 361.594847 150728.483716 
L 346.799393 150728.483716 
L 346.799393 150728.483716 
L 332.003938 150728.483716 
L 332.003938 150728.483716 
L 317.208484 150728.483716 
L 317.208484 150728.483716 
L 302.413029 150728.483716 
L 302.413029 150728.483716 
L 287.617575 150728.483716 
L 287.617575 150728.483716 
L 272.82212 150728.483716 
L 272.82212 150728.483716 
L 258.026665 150728.483716 
L 258.026665 150728.483716 
L 243.231211 150728.483716 
L 243.231211 150728.483716 
L 228.435756 150728.483716 
L 228.435756 150728.483716 
L 213.640302 150728.483716 
L 213.640302 150728.483716 
L 198.844847 150728.483716 
L 198.844847 150728.483716 
L 184.049393 150728.483716 
L 184.049393 150728.483716 
L 169.253938 150728.483716 
L 169.253938 150728.483716 
L 161.509091 150728.483716 
L 161.509091 150728.483716 
L 161.509091 150728.483716 
z
" style="fill:#bf00bf;fill-opacity:0.4;stroke:#bf00bf;stroke-opacity:0.4;"/>
   </g>
   <g id="PolyCollection_3">
    <path clip-path="url(#pf67c05ac24)" d="M 161.509091 150728.483716 
L 161.509091 150728.483716 
L 161.509091 150728.483716 
L 161.509091 150728.483716 
L 169.253938 150728.483716 
L 169.253938 150728.483716 
L 184.049393 150728.483716 
L 184.049393 150728.483716 
L 198.844847 150728.483716 
L 198.844847 150728.483716 
L 213.640302 150728.483716 
L 213.640302 447.835573 
L 228.435756 447.835573 
L 228.435756 150728.483716 
L 243.231211 150728.483716 
L 243.231211 427.180909 
L 258.026665 427.180909 
L 258.026665 150728.483716 
L 272.82212 150728.483716 
L 272.82212 150728.483716 
L 287.617575 150728.483716 
L 287.617575 509.03032 
L 302.413029 509.03032 
L 302.413029 521.269269 
L 317.208484 521.269269 
L 317.208484 533.508219 
L 332.003938 533.508219 
L 332.003938 150728.483716 
L 346.799393 150728.483716 
L 346.799393 486.452697 
L 361.594847 486.452697 
L 361.594847 570.225067 
L 376.390302 570.225067 
L 376.390302 492.19889 
L 391.185756 492.19889 
L 391.185756 489.908399 
L 405.981211 489.908399 
L 405.981211 155.552727 
L 420.776665 155.552727 
L 420.776665 157.311377 
L 435.57212 157.311377 
L 435.57212 220.802305 
L 450.367575 220.802305 
L 450.367575 276.299947 
L 465.163029 276.299947 
L 465.163029 319.978595 
L 479.958484 319.978595 
L 479.958484 342.755552 
L 494.753938 342.755552 
L 494.753938 369.194813 
L 509.549393 369.194813 
L 509.549393 381.433762 
L 524.344847 381.433762 
L 524.344847 397.620134 
L 539.140302 397.620134 
L 539.140302 401.675206 
L 553.935756 401.675206 
L 553.935756 419.813148 
L 568.731211 419.813148 
L 568.731211 424.632899 
L 583.526665 424.632899 
L 583.526665 431.583055 
L 598.32212 431.583055 
L 598.32212 437.239381 
L 613.117575 437.239381 
L 613.117575 441.99495 
L 627.913029 441.99495 
L 627.913029 443.931534 
L 642.708484 443.931534 
L 642.708484 449.532911 
L 657.503938 449.532911 
L 657.503938 448.810073 
L 672.299393 448.810073 
L 672.299393 457.392622 
L 687.094847 457.392622 
L 687.094847 458.057133 
L 701.890302 458.057133 
L 701.890302 465.803783 
L 716.685756 465.803783 
L 716.685756 470.354291 
L 731.481211 470.354291 
L 731.481211 476.837767 
L 746.276665 476.837767 
L 746.276665 487.956473 
L 761.07212 487.956473 
L 761.07212 498.415158 
L 775.867575 498.415158 
L 775.867575 508.136728 
L 790.663029 508.136728 
L 790.663029 521.423789 
L 805.458484 521.423789 
L 805.458484 553.414969 
L 820.253938 553.414969 
L 820.253938 588.318141 
L 835.049393 588.318141 
L 835.049393 638.274353 
L 849.844847 638.274353 
L 849.844847 712.009583 
L 864.640302 712.009583 
L 864.640302 767.096211 
L 871.690909 767.096211 
L 871.690909 150728.483716 
L 871.690909 150728.483716 
L 871.690909 150728.483716 
L 871.690909 150728.483716 
L 871.690909 150728.483716 
L 871.690909 150728.483716 
L 864.640302 150728.483716 
L 864.640302 150728.483716 
L 849.844847 150728.483716 
L 849.844847 150728.483716 
L 835.049393 150728.483716 
L 835.049393 150728.483716 
L 820.253938 150728.483716 
L 820.253938 150728.483716 
L 805.458484 150728.483716 
L 805.458484 150728.483716 
L 790.663029 150728.483716 
L 790.663029 150728.483716 
L 775.867575 150728.483716 
L 775.867575 150728.483716 
L 761.07212 150728.483716 
L 761.07212 150728.483716 
L 746.276665 150728.483716 
L 746.276665 150728.483716 
L 731.481211 150728.483716 
L 731.481211 150728.483716 
L 716.685756 150728.483716 
L 716.685756 150728.483716 
L 701.890302 150728.483716 
L 701.890302 150728.483716 
L 687.094847 150728.483716 
L 687.094847 150728.483716 
L 672.299393 150728.483716 
L 672.299393 150728.483716 
L 657.503938 150728.483716 
L 657.503938 150728.483716 
L 642.708484 150728.483716 
L 642.708484 150728.483716 
L 627.913029 150728.483716 
L 627.913029 150728.483716 
L 613.117575 150728.483716 
L 613.117575 150728.483716 
L 598.32212 150728.483716 
L 598.32212 150728.483716 
L 583.526665 150728.483716 
L 583.526665 150728.483716 
L 568.731211 150728.483716 
L 568.731211 150728.483716 
L 553.935756 150728.483716 
L 553.935756 150728.483716 
L 539.140302 150728.483716 
L 539.140302 150728.483716 
L 524.344847 150728.483716 
L 524.344847 150728.483716 
L 509.549393 150728.483716 
L 509.549393 150728.483716 
L 494.753938 150728.483716 
L 494.753938 150728.483716 
L 479.958484 150728.483716 
L 479.958484 150728.483716 
L 465.163029 150728.483716 
L 465.163029 150728.483716 
L 450.367575 150728.483716 
L 450.367575 150728.483716 
L 435.57212 150728.483716 
L 435.57212 150728.483716 
L 420.776665 150728.483716 
L 420.776665 150728.483716 
L 405.981211 150728.483716 
L 405.981211 150728.483716 
L 391.185756 150728.483716 
L 391.185756 150728.483716 
L 376.390302 150728.483716 
L 376.390302 150728.483716 
L 361.594847 150728.483716 
L 361.594847 150728.483716 
L 346.799393 150728.483716 
L 346.799393 150728.483716 
L 332.003938 150728.483716 
L 332.003938 150728.483716 
L 317.208484 150728.483716 
L 317.208484 150728.483716 
L 302.413029 150728.483716 
L 302.413029 150728.483716 
L 287.617575 150728.483716 
L 287.617575 150728.483716 
L 272.82212 150728.483716 
L 272.82212 150728.483716 
L 258.026665 150728.483716 
L 258.026665 150728.483716 
L 243.231211 150728.483716 
L 243.231211 150728.483716 
L 228.435756 150728.483716 
L 228.435756 150728.483716 
L 213.640302 150728.483716 
L 213.640302 150728.483716 
L 198.844847 150728.483716 
L 198.844847 150728.483716 
L 184.049393 150728.483716 
L 184.049393 150728.483716 
L 169.253938 150728.483716 
L 169.253938 150728.483716 
L 161.509091 150728.483716 
L 161.509091 150728.483716 
L 161.509091 150728.483716 
z
" style="fill:#bfbf00;fill-opacity:0.4;stroke:#bfbf00;stroke-opacity:0.4;"/>
   </g>
   <g id="matplotlib.axis_1">
    <g id="xtick_1">
     <g id="line2d_1">
      <defs>
       <path d="M 0 0 
L 0 3.5 
" id="m394d84be56" style="stroke:#000000;stroke-width:0.8;"/>
      </defs>
      <g>
       <use style="stroke:#000000;stroke-width:0.8;" x="153.764244" xlink:href="#m394d84be56" y="882"/>
      </g>
     </g>
     <g id="text_1">
      <!-- $\mathdefault{10^{-2}}$ -->
      <g transform="translate(118.514244 911.795313)scale(0.3 -0.3)">
       <defs>
        <path d="M 794 531 
L 1825 531 
L 1825 4091 
L 703 3866 
L 703 4441 
L 1819 4666 
L 2450 4666 
L 2450 531 
L 3481 531 
L 3481 0 
L 794 0 
L 794 531 
z
" id="DejaVuSans-31" transform="scale(0.015625)"/>
        <path d="M 2034 4250 
Q 1547 4250 1301 3770 
Q 1056 3291 1056 2328 
Q 1056 1369 1301 889 
Q 1547 409 2034 409 
Q 2525 409 2770 889 
Q 3016 1369 3016 2328 
Q 3016 3291 2770 3770 
Q 2525 4250 2034 4250 
z
M 2034 4750 
Q 2819 4750 3233 4129 
Q 3647 3509 3647 2328 
Q 3647 1150 3233 529 
Q 2819 -91 2034 -91 
Q 1250 -91 836 529 
Q 422 1150 422 2328 
Q 422 3509 836 4129 
Q 1250 4750 2034 4750 
z
" id="DejaVuSans-30" transform="scale(0.015625)"/>
        <path d="M 678 2272 
L 4684 2272 
L 4684 1741 
L 678 1741 
L 678 2272 
z
" id="DejaVuSans-2212" transform="scale(0.015625)"/>
        <path d="M 1228 531 
L 3431 531 
L 3431 0 
L 469 0 
L 469 531 
Q 828 903 1448 1529 
Q 2069 2156 2228 2338 
Q 2531 2678 2651 2914 
Q 2772 3150 2772 3378 
Q 2772 3750 2511 3984 
Q 2250 4219 1831 4219 
Q 1534 4219 1204 4116 
Q 875 4013 500 3803 
L 500 4441 
Q 881 4594 1212 4672 
Q 1544 4750 1819 4750 
Q 2544 4750 2975 4387 
Q 3406 4025 3406 3419 
Q 3406 3131 3298 2873 
Q 3191 2616 2906 2266 
Q 2828 2175 2409 1742 
Q 1991 1309 1228 531 
z
" id="DejaVuSans-32" transform="scale(0.015625)"/>
       </defs>
       <use transform="translate(0 0.765625)" xlink:href="#DejaVuSans-31"/>
       <use transform="translate(63.623047 0.765625)" xlink:href="#DejaVuSans-30"/>
       <use transform="translate(128.203125 39.046875)scale(0.7)" xlink:href="#DejaVuSans-2212"/>
       <use transform="translate(186.855469 39.046875)scale(0.7)" xlink:href="#DejaVuSans-32"/>
      </g>
     </g>
    </g>
    <g id="xtick_2">
     <g id="line2d_2">
      <g>
       <use style="stroke:#000000;stroke-width:0.8;" x="335.008562" xlink:href="#m394d84be56" y="882"/>
      </g>
     </g>
     <g id="text_2">
      <!-- $\mathdefault{10^{-1}}$ -->
      <g transform="translate(299.758562 911.795313)scale(0.3 -0.3)">
       <use transform="translate(0 0.684375)" xlink:href="#DejaVuSans-31"/>
       <use transform="translate(63.623047 0.684375)" xlink:href="#DejaVuSans-30"/>
       <use transform="translate(128.203125 38.965625)scale(0.7)" xlink:href="#DejaVuSans-2212"/>
       <use transform="translate(186.855469 38.965625)scale(0.7)" xlink:href="#DejaVuSans-31"/>
      </g>
     </g>
    </g>
    <g id="xtick_3">
     <g id="line2d_3">
      <g>
       <use style="stroke:#000000;stroke-width:0.8;" x="516.25288" xlink:href="#m394d84be56" y="882"/>
      </g>
     </g>
     <g id="text_3">
      <!-- $\mathdefault{10^{0}}$ -->
      <g transform="translate(489.85288 911.795313)scale(0.3 -0.3)">
       <use transform="translate(0 0.765625)" xlink:href="#DejaVuSans-31"/>
       <use transform="translate(63.623047 0.765625)" xlink:href="#DejaVuSans-30"/>
       <use transform="translate(128.203125 39.046875)scale(0.7)" xlink:href="#DejaVuSans-30"/>
      </g>
     </g>
    </g>
    <g id="xtick_4">
     <g id="line2d_4">
      <g>
       <use style="stroke:#000000;stroke-width:0.8;" x="697.497198" xlink:href="#m394d84be56" y="882"/>
      </g>
     </g>
     <g id="text_4">
      <!-- $\mathdefault{10^{1}}$ -->
      <g transform="translate(671.097198 911.795313)scale(0.3 -0.3)">
       <use transform="translate(0 0.684375)" xlink:href="#DejaVuSans-31"/>
       <use transform="translate(63.623047 0.684375)" xlink:href="#DejaVuSans-30"/>
       <use transform="translate(128.203125 38.965625)scale(0.7)" xlink:href="#DejaVuSans-31"/>
      </g>
     </g>
    </g>
    <g id="xtick_5">
     <g id="line2d_5">
      <g>
       <use style="stroke:#000000;stroke-width:0.8;" x="878.741516" xlink:href="#m394d84be56" y="882"/>
      </g>
     </g>
     <g id="text_5">
      <!-- $\mathdefault{10^{2}}$ -->
      <g transform="translate(852.341516 911.795313)scale(0.3 -0.3)">
       <use transform="translate(0 0.765625)" xlink:href="#DejaVuSans-31"/>
       <use transform="translate(63.623047 0.765625)" xlink:href="#DejaVuSans-30"/>
       <use transform="translate(128.203125 39.046875)scale(0.7)" xlink:href="#DejaVuSans-32"/>
      </g>
     </g>
    </g>
    <g id="xtick_6">
     <g id="line2d_6">
      <defs>
       <path d="M 0 0 
L 0 2 
" id="m720d895bcf" style="stroke:#000000;stroke-width:0.6;"/>
      </defs>
      <g>
       <use style="stroke:#000000;stroke-width:0.6;" x="136.199854" xlink:href="#m720d895bcf" y="882"/>
      </g>
     </g>
    </g>
    <g id="xtick_7">
     <g id="line2d_7">
      <g>
       <use style="stroke:#000000;stroke-width:0.6;" x="145.470958" xlink:href="#m720d895bcf" y="882"/>
      </g>
     </g>
    </g>
    <g id="xtick_8">
     <g id="line2d_8">
      <g>
       <use style="stroke:#000000;stroke-width:0.6;" x="208.32422" xlink:href="#m720d895bcf" y="882"/>
      </g>
     </g>
    </g>
    <g id="xtick_9">
     <g id="line2d_9">
      <g>
       <use style="stroke:#000000;stroke-width:0.6;" x="240.23976" xlink:href="#m720d895bcf" y="882"/>
      </g>
     </g>
    </g>
    <g id="xtick_10">
     <g id="line2d_10">
      <g>
       <use style="stroke:#000000;stroke-width:0.6;" x="262.884196" xlink:href="#m720d895bcf" y="882"/>
      </g>
     </g>
    </g>
    <g id="xtick_11">
     <g id="line2d_11">
      <g>
       <use style="stroke:#000000;stroke-width:0.6;" x="280.448586" xlink:href="#m720d895bcf" y="882"/>
      </g>
     </g>
    </g>
    <g id="xtick_12">
     <g id="line2d_12">
      <g>
       <use style="stroke:#000000;stroke-width:0.6;" x="294.799736" xlink:href="#m720d895bcf" y="882"/>
      </g>
     </g>
    </g>
    <g id="xtick_13">
     <g id="line2d_13">
      <g>
       <use style="stroke:#000000;stroke-width:0.6;" x="306.933462" xlink:href="#m720d895bcf" y="882"/>
      </g>
     </g>
    </g>
    <g id="xtick_14">
     <g id="line2d_14">
      <g>
       <use style="stroke:#000000;stroke-width:0.6;" x="317.444173" xlink:href="#m720d895bcf" y="882"/>
      </g>
     </g>
    </g>
    <g id="xtick_15">
     <g id="line2d_15">
      <g>
       <use style="stroke:#000000;stroke-width:0.6;" x="326.715277" xlink:href="#m720d895bcf" y="882"/>
      </g>
     </g>
    </g>
    <g id="xtick_16">
     <g id="line2d_16">
      <g>
       <use style="stroke:#000000;stroke-width:0.6;" x="389.568538" xlink:href="#m720d895bcf" y="882"/>
      </g>
     </g>
    </g>
    <g id="xtick_17">
     <g id="line2d_17">
      <g>
       <use style="stroke:#000000;stroke-width:0.6;" x="421.484078" xlink:href="#m720d895bcf" y="882"/>
      </g>
     </g>
    </g>
    <g id="xtick_18">
     <g id="line2d_18">
      <g>
       <use style="stroke:#000000;stroke-width:0.6;" x="444.128514" xlink:href="#m720d895bcf" y="882"/>
      </g>
     </g>
    </g>
    <g id="xtick_19">
     <g id="line2d_19">
      <g>
       <use style="stroke:#000000;stroke-width:0.6;" x="461.692904" xlink:href="#m720d895bcf" y="882"/>
      </g>
     </g>
    </g>
    <g id="xtick_20">
     <g id="line2d_20">
      <g>
       <use style="stroke:#000000;stroke-width:0.6;" x="476.044055" xlink:href="#m720d895bcf" y="882"/>
      </g>
     </g>
    </g>
    <g id="xtick_21">
     <g id="line2d_21">
      <g>
       <use style="stroke:#000000;stroke-width:0.6;" x="488.17778" xlink:href="#m720d895bcf" y="882"/>
      </g>
     </g>
    </g>
    <g id="xtick_22">
     <g id="line2d_22">
      <g>
       <use style="stroke:#000000;stroke-width:0.6;" x="498.688491" xlink:href="#m720d895bcf" y="882"/>
      </g>
     </g>
    </g>
    <g id="xtick_23">
     <g id="line2d_23">
      <g>
       <use style="stroke:#000000;stroke-width:0.6;" x="507.959595" xlink:href="#m720d895bcf" y="882"/>
      </g>
     </g>
    </g>
    <g id="xtick_24">
     <g id="line2d_24">
      <g>
       <use style="stroke:#000000;stroke-width:0.6;" x="570.812856" xlink:href="#m720d895bcf" y="882"/>
      </g>
     </g>
    </g>
    <g id="xtick_25">
     <g id="line2d_25">
      <g>
       <use style="stroke:#000000;stroke-width:0.6;" x="602.728397" xlink:href="#m720d895bcf" y="882"/>
      </g>
     </g>
    </g>
    <g id="xtick_26">
     <g id="line2d_26">
      <g>
       <use style="stroke:#000000;stroke-width:0.6;" x="625.372833" xlink:href="#m720d895bcf" y="882"/>
      </g>
     </g>
    </g>
    <g id="xtick_27">
     <g id="line2d_27">
      <g>
       <use style="stroke:#000000;stroke-width:0.6;" x="642.937222" xlink:href="#m720d895bcf" y="882"/>
      </g>
     </g>
    </g>
    <g id="xtick_28">
     <g id="line2d_28">
      <g>
       <use style="stroke:#000000;stroke-width:0.6;" x="657.288373" xlink:href="#m720d895bcf" y="882"/>
      </g>
     </g>
    </g>
    <g id="xtick_29">
     <g id="line2d_29">
      <g>
       <use style="stroke:#000000;stroke-width:0.6;" x="669.422098" xlink:href="#m720d895bcf" y="882"/>
      </g>
     </g>
    </g>
    <g id="xtick_30">
     <g id="line2d_30">
      <g>
       <use style="stroke:#000000;stroke-width:0.6;" x="679.932809" xlink:href="#m720d895bcf" y="882"/>
      </g>
     </g>
    </g>
    <g id="xtick_31">
     <g id="line2d_31">
      <g>
       <use style="stroke:#000000;stroke-width:0.6;" x="689.203913" xlink:href="#m720d895bcf" y="882"/>
      </g>
     </g>
    </g>
    <g id="xtick_32">
     <g id="line2d_32">
      <g>
       <use style="stroke:#000000;stroke-width:0.6;" x="752.057175" xlink:href="#m720d895bcf" y="882"/>
      </g>
     </g>
    </g>
    <g id="xtick_33">
     <g id="line2d_33">
      <g>
       <use style="stroke:#000000;stroke-width:0.6;" x="783.972715" xlink:href="#m720d895bcf" y="882"/>
      </g>
     </g>
    </g>
    <g id="xtick_34">
     <g id="line2d_34">
      <g>
       <use style="stroke:#000000;stroke-width:0.6;" x="806.617151" xlink:href="#m720d895bcf" y="882"/>
      </g>
     </g>
    </g>
    <g id="xtick_35">
     <g id="line2d_35">
      <g>
       <use style="stroke:#000000;stroke-width:0.6;" x="824.18154" xlink:href="#m720d895bcf" y="882"/>
      </g>
     </g>
    </g>
    <g id="xtick_36">
     <g id="line2d_36">
      <g>
       <use style="stroke:#000000;stroke-width:0.6;" x="838.532691" xlink:href="#m720d895bcf" y="882"/>
      </g>
     </g>
    </g>
    <g id="xtick_37">
     <g id="line2d_37">
      <g>
       <use style="stroke:#000000;stroke-width:0.6;" x="850.666416" xlink:href="#m720d895bcf" y="882"/>
      </g>
     </g>
    </g>
    <g id="xtick_38">
     <g id="line2d_38">
      <g>
       <use style="stroke:#000000;stroke-width:0.6;" x="861.177127" xlink:href="#m720d895bcf" y="882"/>
      </g>
     </g>
    </g>
    <g id="xtick_39">
     <g id="line2d_39">
      <g>
       <use style="stroke:#000000;stroke-width:0.6;" x="870.448231" xlink:href="#m720d895bcf" y="882"/>
      </g>
     </g>
    </g>
    <g id="text_6">
     <!-- Depth-weighted total energy (GeV) -->
     <g transform="translate(252.485156 944.829687)scale(0.3 -0.3)">
      <defs>
       <path d="M 1259 4147 
L 1259 519 
L 2022 519 
Q 2988 519 3436 956 
Q 3884 1394 3884 2338 
Q 3884 3275 3436 3711 
Q 2988 4147 2022 4147 
L 1259 4147 
z
M 628 4666 
L 1925 4666 
Q 3281 4666 3915 4102 
Q 4550 3538 4550 2338 
Q 4550 1131 3912 565 
Q 3275 0 1925 0 
L 628 0 
L 628 4666 
z
" id="DejaVuSans-44" transform="scale(0.015625)"/>
       <path d="M 3597 1894 
L 3597 1613 
L 953 1613 
Q 991 1019 1311 708 
Q 1631 397 2203 397 
Q 2534 397 2845 478 
Q 3156 559 3463 722 
L 3463 178 
Q 3153 47 2828 -22 
Q 2503 -91 2169 -91 
Q 1331 -91 842 396 
Q 353 884 353 1716 
Q 353 2575 817 3079 
Q 1281 3584 2069 3584 
Q 2775 3584 3186 3129 
Q 3597 2675 3597 1894 
z
M 3022 2063 
Q 3016 2534 2758 2815 
Q 2500 3097 2075 3097 
Q 1594 3097 1305 2825 
Q 1016 2553 972 2059 
L 3022 2063 
z
" id="DejaVuSans-65" transform="scale(0.015625)"/>
       <path d="M 1159 525 
L 1159 -1331 
L 581 -1331 
L 581 3500 
L 1159 3500 
L 1159 2969 
Q 1341 3281 1617 3432 
Q 1894 3584 2278 3584 
Q 2916 3584 3314 3078 
Q 3713 2572 3713 1747 
Q 3713 922 3314 415 
Q 2916 -91 2278 -91 
Q 1894 -91 1617 61 
Q 1341 213 1159 525 
z
M 3116 1747 
Q 3116 2381 2855 2742 
Q 2594 3103 2138 3103 
Q 1681 3103 1420 2742 
Q 1159 2381 1159 1747 
Q 1159 1113 1420 752 
Q 1681 391 2138 391 
Q 2594 391 2855 752 
Q 3116 1113 3116 1747 
z
" id="DejaVuSans-70" transform="scale(0.015625)"/>
       <path d="M 1172 4494 
L 1172 3500 
L 2356 3500 
L 2356 3053 
L 1172 3053 
L 1172 1153 
Q 1172 725 1289 603 
Q 1406 481 1766 481 
L 2356 481 
L 2356 0 
L 1766 0 
Q 1100 0 847 248 
Q 594 497 594 1153 
L 594 3053 
L 172 3053 
L 172 3500 
L 594 3500 
L 594 4494 
L 1172 4494 
z
" id="DejaVuSans-74" transform="scale(0.015625)"/>
       <path d="M 3513 2113 
L 3513 0 
L 2938 0 
L 2938 2094 
Q 2938 2591 2744 2837 
Q 2550 3084 2163 3084 
Q 1697 3084 1428 2787 
Q 1159 2491 1159 1978 
L 1159 0 
L 581 0 
L 581 4863 
L 1159 4863 
L 1159 2956 
Q 1366 3272 1645 3428 
Q 1925 3584 2291 3584 
Q 2894 3584 3203 3211 
Q 3513 2838 3513 2113 
z
" id="DejaVuSans-68" transform="scale(0.015625)"/>
       <path d="M 313 2009 
L 1997 2009 
L 1997 1497 
L 313 1497 
L 313 2009 
z
" id="DejaVuSans-2d" transform="scale(0.015625)"/>
       <path d="M 269 3500 
L 844 3500 
L 1563 769 
L 2278 3500 
L 2956 3500 
L 3675 769 
L 4391 3500 
L 4966 3500 
L 4050 0 
L 3372 0 
L 2619 2869 
L 1863 0 
L 1184 0 
L 269 3500 
z
" id="DejaVuSans-77" transform="scale(0.015625)"/>
       <path d="M 603 3500 
L 1178 3500 
L 1178 0 
L 603 0 
L 603 3500 
z
M 603 4863 
L 1178 4863 
L 1178 4134 
L 603 4134 
L 603 4863 
z
" id="DejaVuSans-69" transform="scale(0.015625)"/>
       <path d="M 2906 1791 
Q 2906 2416 2648 2759 
Q 2391 3103 1925 3103 
Q 1463 3103 1205 2759 
Q 947 2416 947 1791 
Q 947 1169 1205 825 
Q 1463 481 1925 481 
Q 2391 481 2648 825 
Q 2906 1169 2906 1791 
z
M 3481 434 
Q 3481 -459 3084 -895 
Q 2688 -1331 1869 -1331 
Q 1566 -1331 1297 -1286 
Q 1028 -1241 775 -1147 
L 775 -588 
Q 1028 -725 1275 -790 
Q 1522 -856 1778 -856 
Q 2344 -856 2625 -561 
Q 2906 -266 2906 331 
L 2906 616 
Q 2728 306 2450 153 
Q 2172 0 1784 0 
Q 1141 0 747 490 
Q 353 981 353 1791 
Q 353 2603 747 3093 
Q 1141 3584 1784 3584 
Q 2172 3584 2450 3431 
Q 2728 3278 2906 2969 
L 2906 3500 
L 3481 3500 
L 3481 434 
z
" id="DejaVuSans-67" transform="scale(0.015625)"/>
       <path d="M 2906 2969 
L 2906 4863 
L 3481 4863 
L 3481 0 
L 2906 0 
L 2906 525 
Q 2725 213 2448 61 
Q 2172 -91 1784 -91 
Q 1150 -91 751 415 
Q 353 922 353 1747 
Q 353 2572 751 3078 
Q 1150 3584 1784 3584 
Q 2172 3584 2448 3432 
Q 2725 3281 2906 2969 
z
M 947 1747 
Q 947 1113 1208 752 
Q 1469 391 1925 391 
Q 2381 391 2643 752 
Q 2906 1113 2906 1747 
Q 2906 2381 2643 2742 
Q 2381 3103 1925 3103 
Q 1469 3103 1208 2742 
Q 947 2381 947 1747 
z
" id="DejaVuSans-64" transform="scale(0.015625)"/>
       <path id="DejaVuSans-20" transform="scale(0.015625)"/>
       <path d="M 1959 3097 
Q 1497 3097 1228 2736 
Q 959 2375 959 1747 
Q 959 1119 1226 758 
Q 1494 397 1959 397 
Q 2419 397 2687 759 
Q 2956 1122 2956 1747 
Q 2956 2369 2687 2733 
Q 2419 3097 1959 3097 
z
M 1959 3584 
Q 2709 3584 3137 3096 
Q 3566 2609 3566 1747 
Q 3566 888 3137 398 
Q 2709 -91 1959 -91 
Q 1206 -91 779 398 
Q 353 888 353 1747 
Q 353 2609 779 3096 
Q 1206 3584 1959 3584 
z
" id="DejaVuSans-6f" transform="scale(0.015625)"/>
       <path d="M 2194 1759 
Q 1497 1759 1228 1600 
Q 959 1441 959 1056 
Q 959 750 1161 570 
Q 1363 391 1709 391 
Q 2188 391 2477 730 
Q 2766 1069 2766 1631 
L 2766 1759 
L 2194 1759 
z
M 3341 1997 
L 3341 0 
L 2766 0 
L 2766 531 
Q 2569 213 2275 61 
Q 1981 -91 1556 -91 
Q 1019 -91 701 211 
Q 384 513 384 1019 
Q 384 1609 779 1909 
Q 1175 2209 1959 2209 
L 2766 2209 
L 2766 2266 
Q 2766 2663 2505 2880 
Q 2244 3097 1772 3097 
Q 1472 3097 1187 3025 
Q 903 2953 641 2809 
L 641 3341 
Q 956 3463 1253 3523 
Q 1550 3584 1831 3584 
Q 2591 3584 2966 3190 
Q 3341 2797 3341 1997 
z
" id="DejaVuSans-61" transform="scale(0.015625)"/>
       <path d="M 603 4863 
L 1178 4863 
L 1178 0 
L 603 0 
L 603 4863 
z
" id="DejaVuSans-6c" transform="scale(0.015625)"/>
       <path d="M 3513 2113 
L 3513 0 
L 2938 0 
L 2938 2094 
Q 2938 2591 2744 2837 
Q 2550 3084 2163 3084 
Q 1697 3084 1428 2787 
Q 1159 2491 1159 1978 
L 1159 0 
L 581 0 
L 581 3500 
L 1159 3500 
L 1159 2956 
Q 1366 3272 1645 3428 
Q 1925 3584 2291 3584 
Q 2894 3584 3203 3211 
Q 3513 2838 3513 2113 
z
" id="DejaVuSans-6e" transform="scale(0.015625)"/>
       <path d="M 2631 2963 
Q 2534 3019 2420 3045 
Q 2306 3072 2169 3072 
Q 1681 3072 1420 2755 
Q 1159 2438 1159 1844 
L 1159 0 
L 581 0 
L 581 3500 
L 1159 3500 
L 1159 2956 
Q 1341 3275 1631 3429 
Q 1922 3584 2338 3584 
Q 2397 3584 2469 3576 
Q 2541 3569 2628 3553 
L 2631 2963 
z
" id="DejaVuSans-72" transform="scale(0.015625)"/>
       <path d="M 2059 -325 
Q 1816 -950 1584 -1140 
Q 1353 -1331 966 -1331 
L 506 -1331 
L 506 -850 
L 844 -850 
Q 1081 -850 1212 -737 
Q 1344 -625 1503 -206 
L 1606 56 
L 191 3500 
L 800 3500 
L 1894 763 
L 2988 3500 
L 3597 3500 
L 2059 -325 
z
" id="DejaVuSans-79" transform="scale(0.015625)"/>
       <path d="M 1984 4856 
Q 1566 4138 1362 3434 
Q 1159 2731 1159 2009 
Q 1159 1288 1364 580 
Q 1569 -128 1984 -844 
L 1484 -844 
Q 1016 -109 783 600 
Q 550 1309 550 2009 
Q 550 2706 781 3412 
Q 1013 4119 1484 4856 
L 1984 4856 
z
" id="DejaVuSans-28" transform="scale(0.015625)"/>
       <path d="M 3809 666 
L 3809 1919 
L 2778 1919 
L 2778 2438 
L 4434 2438 
L 4434 434 
Q 4069 175 3628 42 
Q 3188 -91 2688 -91 
Q 1594 -91 976 548 
Q 359 1188 359 2328 
Q 359 3472 976 4111 
Q 1594 4750 2688 4750 
Q 3144 4750 3555 4637 
Q 3966 4525 4313 4306 
L 4313 3634 
Q 3963 3931 3569 4081 
Q 3175 4231 2741 4231 
Q 1884 4231 1454 3753 
Q 1025 3275 1025 2328 
Q 1025 1384 1454 906 
Q 1884 428 2741 428 
Q 3075 428 3337 486 
Q 3600 544 3809 666 
z
" id="DejaVuSans-47" transform="scale(0.015625)"/>
       <path d="M 1831 0 
L 50 4666 
L 709 4666 
L 2188 738 
L 3669 4666 
L 4325 4666 
L 2547 0 
L 1831 0 
z
" id="DejaVuSans-56" transform="scale(0.015625)"/>
       <path d="M 513 4856 
L 1013 4856 
Q 1481 4119 1714 3412 
Q 1947 2706 1947 2009 
Q 1947 1309 1714 600 
Q 1481 -109 1013 -844 
L 513 -844 
Q 928 -128 1133 580 
Q 1338 1288 1338 2009 
Q 1338 2731 1133 3434 
Q 928 4138 513 4856 
z
" id="DejaVuSans-29" transform="scale(0.015625)"/>
      </defs>
      <use xlink:href="#DejaVuSans-44"/>
      <use x="77.001953" xlink:href="#DejaVuSans-65"/>
      <use x="138.525391" xlink:href="#DejaVuSans-70"/>
      <use x="202.001953" xlink:href="#DejaVuSans-74"/>
      <use x="241.210938" xlink:href="#DejaVuSans-68"/>
      <use x="304.589844" xlink:href="#DejaVuSans-2d"/>
      <use x="340.673828" xlink:href="#DejaVuSans-77"/>
      <use x="422.460938" xlink:href="#DejaVuSans-65"/>
      <use x="483.984375" xlink:href="#DejaVuSans-69"/>
      <use x="511.767578" xlink:href="#DejaVuSans-67"/>
      <use x="575.244141" xlink:href="#DejaVuSans-68"/>
      <use x="638.623047" xlink:href="#DejaVuSans-74"/>
      <use x="677.832031" xlink:href="#DejaVuSans-65"/>
      <use x="739.355469" xlink:href="#DejaVuSans-64"/>
      <use x="802.832031" xlink:href="#DejaVuSans-20"/>
      <use x="834.619141" xlink:href="#DejaVuSans-74"/>
      <use x="873.828125" xlink:href="#DejaVuSans-6f"/>
      <use x="935.009766" xlink:href="#DejaVuSans-74"/>
      <use x="974.21875" xlink:href="#DejaVuSans-61"/>
      <use x="1035.498047" xlink:href="#DejaVuSans-6c"/>
      <use x="1063.28125" xlink:href="#DejaVuSans-20"/>
      <use x="1095.068359" xlink:href="#DejaVuSans-65"/>
      <use x="1156.591797" xlink:href="#DejaVuSans-6e"/>
      <use x="1219.970703" xlink:href="#DejaVuSans-65"/>
      <use x="1281.494141" xlink:href="#DejaVuSans-72"/>
      <use x="1320.857422" xlink:href="#DejaVuSans-67"/>
      <use x="1384.333984" xlink:href="#DejaVuSans-79"/>
      <use x="1443.513672" xlink:href="#DejaVuSans-20"/>
      <use x="1475.300781" xlink:href="#DejaVuSans-28"/>
      <use x="1514.314453" xlink:href="#DejaVuSans-47"/>
      <use x="1591.804688" xlink:href="#DejaVuSans-65"/>
      <use x="1653.328125" xlink:href="#DejaVuSans-56"/>
      <use x="1721.736328" xlink:href="#DejaVuSans-29"/>
     </g>
    </g>
   </g>
   <g id="matplotlib.axis_2">
    <g id="ytick_1">
     <g id="line2d_40">
      <defs>
       <path d="M 0 0 
L -3.5 0 
" id="m8df9bc6137" style="stroke:#000000;stroke-width:0.8;"/>
      </defs>
      <g>
       <use style="stroke:#000000;stroke-width:0.8;" x="126" xlink:href="#m8df9bc6137" y="801.353896"/>
      </g>
     </g>
     <g id="text_7">
      <!-- $\mathdefault{10^{0}}$ -->
      <g transform="translate(66.2 812.751553)scale(0.3 -0.3)">
       <use transform="translate(0 0.765625)" xlink:href="#DejaVuSans-31"/>
       <use transform="translate(63.623047 0.765625)" xlink:href="#DejaVuSans-30"/>
       <use transform="translate(128.203125 39.046875)scale(0.7)" xlink:href="#DejaVuSans-30"/>
      </g>
     </g>
    </g>
    <g id="ytick_2">
     <g id="line2d_41">
      <g>
       <use style="stroke:#000000;stroke-width:0.8;" x="126" xlink:href="#m8df9bc6137" y="651.426767"/>
      </g>
     </g>
     <g id="text_8">
      <!-- $\mathdefault{10^{1}}$ -->
      <g transform="translate(66.2 662.824423)scale(0.3 -0.3)">
       <use transform="translate(0 0.684375)" xlink:href="#DejaVuSans-31"/>
       <use transform="translate(63.623047 0.684375)" xlink:href="#DejaVuSans-30"/>
       <use transform="translate(128.203125 38.965625)scale(0.7)" xlink:href="#DejaVuSans-31"/>
      </g>
     </g>
    </g>
    <g id="ytick_3">
     <g id="line2d_42">
      <g>
       <use style="stroke:#000000;stroke-width:0.8;" x="126" xlink:href="#m8df9bc6137" y="501.499637"/>
      </g>
     </g>
     <g id="text_9">
      <!-- $\mathdefault{10^{2}}$ -->
      <g transform="translate(66.2 512.897293)scale(0.3 -0.3)">
       <use transform="translate(0 0.765625)" xlink:href="#DejaVuSans-31"/>
       <use transform="translate(63.623047 0.765625)" xlink:href="#DejaVuSans-30"/>
       <use transform="translate(128.203125 39.046875)scale(0.7)" xlink:href="#DejaVuSans-32"/>
      </g>
     </g>
    </g>
    <g id="ytick_4">
     <g id="line2d_43">
      <g>
       <use style="stroke:#000000;stroke-width:0.8;" x="126" xlink:href="#m8df9bc6137" y="351.572507"/>
      </g>
     </g>
     <g id="text_10">
      <!-- $\mathdefault{10^{3}}$ -->
      <g transform="translate(66.2 362.970163)scale(0.3 -0.3)">
       <defs>
        <path d="M 2597 2516 
Q 3050 2419 3304 2112 
Q 3559 1806 3559 1356 
Q 3559 666 3084 287 
Q 2609 -91 1734 -91 
Q 1441 -91 1130 -33 
Q 819 25 488 141 
L 488 750 
Q 750 597 1062 519 
Q 1375 441 1716 441 
Q 2309 441 2620 675 
Q 2931 909 2931 1356 
Q 2931 1769 2642 2001 
Q 2353 2234 1838 2234 
L 1294 2234 
L 1294 2753 
L 1863 2753 
Q 2328 2753 2575 2939 
Q 2822 3125 2822 3475 
Q 2822 3834 2567 4026 
Q 2313 4219 1838 4219 
Q 1578 4219 1281 4162 
Q 984 4106 628 3988 
L 628 4550 
Q 988 4650 1302 4700 
Q 1616 4750 1894 4750 
Q 2613 4750 3031 4423 
Q 3450 4097 3450 3541 
Q 3450 3153 3228 2886 
Q 3006 2619 2597 2516 
z
" id="DejaVuSans-33" transform="scale(0.015625)"/>
       </defs>
       <use transform="translate(0 0.765625)" xlink:href="#DejaVuSans-31"/>
       <use transform="translate(63.623047 0.765625)" xlink:href="#DejaVuSans-30"/>
       <use transform="translate(128.203125 39.046875)scale(0.7)" xlink:href="#DejaVuSans-33"/>
      </g>
     </g>
    </g>
    <g id="ytick_5">
     <g id="line2d_44">
      <g>
       <use style="stroke:#000000;stroke-width:0.8;" x="126" xlink:href="#m8df9bc6137" y="201.645377"/>
      </g>
     </g>
     <g id="text_11">
      <!-- $\mathdefault{10^{4}}$ -->
      <g transform="translate(66.2 213.043033)scale(0.3 -0.3)">
       <defs>
        <path d="M 2419 4116 
L 825 1625 
L 2419 1625 
L 2419 4116 
z
M 2253 4666 
L 3047 4666 
L 3047 1625 
L 3713 1625 
L 3713 1100 
L 3047 1100 
L 3047 0 
L 2419 0 
L 2419 1100 
L 313 1100 
L 313 1709 
L 2253 4666 
z
" id="DejaVuSans-34" transform="scale(0.015625)"/>
       </defs>
       <use transform="translate(0 0.684375)" xlink:href="#DejaVuSans-31"/>
       <use transform="translate(63.623047 0.684375)" xlink:href="#DejaVuSans-30"/>
       <use transform="translate(128.203125 38.965625)scale(0.7)" xlink:href="#DejaVuSans-34"/>
      </g>
     </g>
    </g>
    <g id="ytick_6">
     <g id="line2d_45">
      <defs>
       <path d="M 0 0 
L -2 0 
" id="mf0286fc21a" style="stroke:#000000;stroke-width:0.6;"/>
      </defs>
      <g>
       <use style="stroke:#000000;stroke-width:0.6;" x="126" xlink:href="#mf0286fc21a" y="879.747606"/>
      </g>
     </g>
    </g>
    <g id="ytick_7">
     <g id="line2d_46">
      <g>
       <use style="stroke:#000000;stroke-width:0.6;" x="126" xlink:href="#mf0286fc21a" y="861.0159"/>
      </g>
     </g>
    </g>
    <g id="ytick_8">
     <g id="line2d_47">
      <g>
       <use style="stroke:#000000;stroke-width:0.6;" x="126" xlink:href="#mf0286fc21a" y="846.48646"/>
      </g>
     </g>
    </g>
    <g id="ytick_9">
     <g id="line2d_48">
      <g>
       <use style="stroke:#000000;stroke-width:0.6;" x="126" xlink:href="#mf0286fc21a" y="834.615043"/>
      </g>
     </g>
    </g>
    <g id="ytick_10">
     <g id="line2d_49">
      <g>
       <use style="stroke:#000000;stroke-width:0.6;" x="126" xlink:href="#mf0286fc21a" y="824.577903"/>
      </g>
     </g>
    </g>
    <g id="ytick_11">
     <g id="line2d_50">
      <g>
       <use style="stroke:#000000;stroke-width:0.6;" x="126" xlink:href="#mf0286fc21a" y="815.883337"/>
      </g>
     </g>
    </g>
    <g id="ytick_12">
     <g id="line2d_51">
      <g>
       <use style="stroke:#000000;stroke-width:0.6;" x="126" xlink:href="#mf0286fc21a" y="808.214186"/>
      </g>
     </g>
    </g>
    <g id="ytick_13">
     <g id="line2d_52">
      <g>
       <use style="stroke:#000000;stroke-width:0.6;" x="126" xlink:href="#mf0286fc21a" y="756.221333"/>
      </g>
     </g>
    </g>
    <g id="ytick_14">
     <g id="line2d_53">
      <g>
       <use style="stroke:#000000;stroke-width:0.6;" x="126" xlink:href="#mf0286fc21a" y="729.820476"/>
      </g>
     </g>
    </g>
    <g id="ytick_15">
     <g id="line2d_54">
      <g>
       <use style="stroke:#000000;stroke-width:0.6;" x="126" xlink:href="#mf0286fc21a" y="711.08877"/>
      </g>
     </g>
    </g>
    <g id="ytick_16">
     <g id="line2d_55">
      <g>
       <use style="stroke:#000000;stroke-width:0.6;" x="126" xlink:href="#mf0286fc21a" y="696.55933"/>
      </g>
     </g>
    </g>
    <g id="ytick_17">
     <g id="line2d_56">
      <g>
       <use style="stroke:#000000;stroke-width:0.6;" x="126" xlink:href="#mf0286fc21a" y="684.687913"/>
      </g>
     </g>
    </g>
    <g id="ytick_18">
     <g id="line2d_57">
      <g>
       <use style="stroke:#000000;stroke-width:0.6;" x="126" xlink:href="#mf0286fc21a" y="674.650773"/>
      </g>
     </g>
    </g>
    <g id="ytick_19">
     <g id="line2d_58">
      <g>
       <use style="stroke:#000000;stroke-width:0.6;" x="126" xlink:href="#mf0286fc21a" y="665.956207"/>
      </g>
     </g>
    </g>
    <g id="ytick_20">
     <g id="line2d_59">
      <g>
       <use style="stroke:#000000;stroke-width:0.6;" x="126" xlink:href="#mf0286fc21a" y="658.287056"/>
      </g>
     </g>
    </g>
    <g id="ytick_21">
     <g id="line2d_60">
      <g>
       <use style="stroke:#000000;stroke-width:0.6;" x="126" xlink:href="#mf0286fc21a" y="606.294203"/>
      </g>
     </g>
    </g>
    <g id="ytick_22">
     <g id="line2d_61">
      <g>
       <use style="stroke:#000000;stroke-width:0.6;" x="126" xlink:href="#mf0286fc21a" y="579.893346"/>
      </g>
     </g>
    </g>
    <g id="ytick_23">
     <g id="line2d_62">
      <g>
       <use style="stroke:#000000;stroke-width:0.6;" x="126" xlink:href="#mf0286fc21a" y="561.16164"/>
      </g>
     </g>
    </g>
    <g id="ytick_24">
     <g id="line2d_63">
      <g>
       <use style="stroke:#000000;stroke-width:0.6;" x="126" xlink:href="#mf0286fc21a" y="546.6322"/>
      </g>
     </g>
    </g>
    <g id="ytick_25">
     <g id="line2d_64">
      <g>
       <use style="stroke:#000000;stroke-width:0.6;" x="126" xlink:href="#mf0286fc21a" y="534.760783"/>
      </g>
     </g>
    </g>
    <g id="ytick_26">
     <g id="line2d_65">
      <g>
       <use style="stroke:#000000;stroke-width:0.6;" x="126" xlink:href="#mf0286fc21a" y="524.723643"/>
      </g>
     </g>
    </g>
    <g id="ytick_27">
     <g id="line2d_66">
      <g>
       <use style="stroke:#000000;stroke-width:0.6;" x="126" xlink:href="#mf0286fc21a" y="516.029077"/>
      </g>
     </g>
    </g>
    <g id="ytick_28">
     <g id="line2d_67">
      <g>
       <use style="stroke:#000000;stroke-width:0.6;" x="126" xlink:href="#mf0286fc21a" y="508.359926"/>
      </g>
     </g>
    </g>
    <g id="ytick_29">
     <g id="line2d_68">
      <g>
       <use style="stroke:#000000;stroke-width:0.6;" x="126" xlink:href="#mf0286fc21a" y="456.367074"/>
      </g>
     </g>
    </g>
    <g id="ytick_30">
     <g id="line2d_69">
      <g>
       <use style="stroke:#000000;stroke-width:0.6;" x="126" xlink:href="#mf0286fc21a" y="429.966217"/>
      </g>
     </g>
    </g>
    <g id="ytick_31">
     <g id="line2d_70">
      <g>
       <use style="stroke:#000000;stroke-width:0.6;" x="126" xlink:href="#mf0286fc21a" y="411.23451"/>
      </g>
     </g>
    </g>
    <g id="ytick_32">
     <g id="line2d_71">
      <g>
       <use style="stroke:#000000;stroke-width:0.6;" x="126" xlink:href="#mf0286fc21a" y="396.70507"/>
      </g>
     </g>
    </g>
    <g id="ytick_33">
     <g id="line2d_72">
      <g>
       <use style="stroke:#000000;stroke-width:0.6;" x="126" xlink:href="#mf0286fc21a" y="384.833653"/>
      </g>
     </g>
    </g>
    <g id="ytick_34">
     <g id="line2d_73">
      <g>
       <use style="stroke:#000000;stroke-width:0.6;" x="126" xlink:href="#mf0286fc21a" y="374.796513"/>
      </g>
     </g>
    </g>
    <g id="ytick_35">
     <g id="line2d_74">
      <g>
       <use style="stroke:#000000;stroke-width:0.6;" x="126" xlink:href="#mf0286fc21a" y="366.101947"/>
      </g>
     </g>
    </g>
    <g id="ytick_36">
     <g id="line2d_75">
      <g>
       <use style="stroke:#000000;stroke-width:0.6;" x="126" xlink:href="#mf0286fc21a" y="358.432796"/>
      </g>
     </g>
    </g>
    <g id="ytick_37">
     <g id="line2d_76">
      <g>
       <use style="stroke:#000000;stroke-width:0.6;" x="126" xlink:href="#mf0286fc21a" y="306.439944"/>
      </g>
     </g>
    </g>
    <g id="ytick_38">
     <g id="line2d_77">
      <g>
       <use style="stroke:#000000;stroke-width:0.6;" x="126" xlink:href="#mf0286fc21a" y="280.039087"/>
      </g>
     </g>
    </g>
    <g id="ytick_39">
     <g id="line2d_78">
      <g>
       <use style="stroke:#000000;stroke-width:0.6;" x="126" xlink:href="#mf0286fc21a" y="261.307381"/>
      </g>
     </g>
    </g>
    <g id="ytick_40">
     <g id="line2d_79">
      <g>
       <use style="stroke:#000000;stroke-width:0.6;" x="126" xlink:href="#mf0286fc21a" y="246.77794"/>
      </g>
     </g>
    </g>
    <g id="ytick_41">
     <g id="line2d_80">
      <g>
       <use style="stroke:#000000;stroke-width:0.6;" x="126" xlink:href="#mf0286fc21a" y="234.906523"/>
      </g>
     </g>
    </g>
    <g id="ytick_42">
     <g id="line2d_81">
      <g>
       <use style="stroke:#000000;stroke-width:0.6;" x="126" xlink:href="#mf0286fc21a" y="224.869383"/>
      </g>
     </g>
    </g>
    <g id="ytick_43">
     <g id="line2d_82">
      <g>
       <use style="stroke:#000000;stroke-width:0.6;" x="126" xlink:href="#mf0286fc21a" y="216.174817"/>
      </g>
     </g>
    </g>
    <g id="ytick_44">
     <g id="line2d_83">
      <g>
       <use style="stroke:#000000;stroke-width:0.6;" x="126" xlink:href="#mf0286fc21a" y="208.505666"/>
      </g>
     </g>
    </g>
    <g id="ytick_45">
     <g id="line2d_84">
      <g>
       <use style="stroke:#000000;stroke-width:0.6;" x="126" xlink:href="#mf0286fc21a" y="156.512814"/>
      </g>
     </g>
    </g>
    <g id="ytick_46">
     <g id="line2d_85">
      <g>
       <use style="stroke:#000000;stroke-width:0.6;" x="126" xlink:href="#mf0286fc21a" y="130.111957"/>
      </g>
     </g>
    </g>
    <g id="text_12">
     <!-- Events / Bin Width -->
     <g transform="translate(55.960938 639.156563)rotate(-90)scale(0.3 -0.3)">
      <defs>
       <path d="M 628 4666 
L 3578 4666 
L 3578 4134 
L 1259 4134 
L 1259 2753 
L 3481 2753 
L 3481 2222 
L 1259 2222 
L 1259 531 
L 3634 531 
L 3634 0 
L 628 0 
L 628 4666 
z
" id="DejaVuSans-45" transform="scale(0.015625)"/>
       <path d="M 191 3500 
L 800 3500 
L 1894 563 
L 2988 3500 
L 3597 3500 
L 2284 0 
L 1503 0 
L 191 3500 
z
" id="DejaVuSans-76" transform="scale(0.015625)"/>
       <path d="M 2834 3397 
L 2834 2853 
Q 2591 2978 2328 3040 
Q 2066 3103 1784 3103 
Q 1356 3103 1142 2972 
Q 928 2841 928 2578 
Q 928 2378 1081 2264 
Q 1234 2150 1697 2047 
L 1894 2003 
Q 2506 1872 2764 1633 
Q 3022 1394 3022 966 
Q 3022 478 2636 193 
Q 2250 -91 1575 -91 
Q 1294 -91 989 -36 
Q 684 19 347 128 
L 347 722 
Q 666 556 975 473 
Q 1284 391 1588 391 
Q 1994 391 2212 530 
Q 2431 669 2431 922 
Q 2431 1156 2273 1281 
Q 2116 1406 1581 1522 
L 1381 1569 
Q 847 1681 609 1914 
Q 372 2147 372 2553 
Q 372 3047 722 3315 
Q 1072 3584 1716 3584 
Q 2034 3584 2315 3537 
Q 2597 3491 2834 3397 
z
" id="DejaVuSans-73" transform="scale(0.015625)"/>
       <path d="M 1625 4666 
L 2156 4666 
L 531 -594 
L 0 -594 
L 1625 4666 
z
" id="DejaVuSans-2f" transform="scale(0.015625)"/>
       <path d="M 1259 2228 
L 1259 519 
L 2272 519 
Q 2781 519 3026 730 
Q 3272 941 3272 1375 
Q 3272 1813 3026 2020 
Q 2781 2228 2272 2228 
L 1259 2228 
z
M 1259 4147 
L 1259 2741 
L 2194 2741 
Q 2656 2741 2882 2914 
Q 3109 3088 3109 3444 
Q 3109 3797 2882 3972 
Q 2656 4147 2194 4147 
L 1259 4147 
z
M 628 4666 
L 2241 4666 
Q 2963 4666 3353 4366 
Q 3744 4066 3744 3513 
Q 3744 3084 3544 2831 
Q 3344 2578 2956 2516 
Q 3422 2416 3680 2098 
Q 3938 1781 3938 1306 
Q 3938 681 3513 340 
Q 3088 0 2303 0 
L 628 0 
L 628 4666 
z
" id="DejaVuSans-42" transform="scale(0.015625)"/>
       <path d="M 213 4666 
L 850 4666 
L 1831 722 
L 2809 4666 
L 3519 4666 
L 4500 722 
L 5478 4666 
L 6119 4666 
L 4947 0 
L 4153 0 
L 3169 4050 
L 2175 0 
L 1381 0 
L 213 4666 
z
" id="DejaVuSans-57" transform="scale(0.015625)"/>
      </defs>
      <use xlink:href="#DejaVuSans-45"/>
      <use x="63.183594" xlink:href="#DejaVuSans-76"/>
      <use x="122.363281" xlink:href="#DejaVuSans-65"/>
      <use x="183.886719" xlink:href="#DejaVuSans-6e"/>
      <use x="247.265625" xlink:href="#DejaVuSans-74"/>
      <use x="286.474609" xlink:href="#DejaVuSans-73"/>
      <use x="338.574219" xlink:href="#DejaVuSans-20"/>
      <use x="370.361328" xlink:href="#DejaVuSans-2f"/>
      <use x="404.052734" xlink:href="#DejaVuSans-20"/>
      <use x="435.839844" xlink:href="#DejaVuSans-42"/>
      <use x="504.443359" xlink:href="#DejaVuSans-69"/>
      <use x="532.226562" xlink:href="#DejaVuSans-6e"/>
      <use x="595.605469" xlink:href="#DejaVuSans-20"/>
      <use x="627.392578" xlink:href="#DejaVuSans-57"/>
      <use x="724.019531" xlink:href="#DejaVuSans-69"/>
      <use x="751.802734" xlink:href="#DejaVuSans-64"/>
      <use x="815.279297" xlink:href="#DejaVuSans-74"/>
      <use x="854.488281" xlink:href="#DejaVuSans-68"/>
     </g>
    </g>
   </g>
   <g id="line2d_86">
    <path clip-path="url(#pf67c05ac24)" d="M 161.509091 729.820476 
L 161.509091 729.820476 
L 161.509091 398.879776 
L 169.253938 398.879776 
L 169.253938 411.118725 
L 184.049393 411.118725 
L 184.049393 1009 
M 198.844847 1009 
L 198.844847 435.596624 
L 213.640302 435.596624 
L 213.640302 402.70301 
L 228.435756 402.70301 
L 228.435756 460.074523 
L 243.231211 460.074523 
L 243.231211 427.180909 
L 258.026665 427.180909 
L 258.026665 413.019001 
L 272.82212 413.019001 
L 272.82212 1009 
M 302.413029 1009 
L 302.413029 521.269269 
L 317.208484 521.269269 
L 317.208484 488.375656 
L 332.003938 488.375656 
L 332.003938 440.952602 
L 346.799393 440.952602 
L 346.799393 557.986118 
L 361.594847 557.986118 
L 361.594847 525.092504 
L 376.390302 525.092504 
L 376.390302 465.798033 
L 391.185756 465.798033 
L 391.185756 549.570402 
L 405.981211 549.570402 
L 405.981211 561.809352 
L 420.776665 561.809352 
L 420.776665 528.915738 
L 435.57212 528.915738 
L 435.57212 450.889561 
L 450.367575 450.889561 
L 450.367575 476.648434 
L 465.163029 476.648434 
L 465.163029 448.966603 
L 479.958484 448.966603 
L 479.958484 440.470225 
L 494.753938 440.470225 
L 494.753938 440.183355 
L 509.549393 440.183355 
L 509.549393 443.322051 
L 524.344847 443.322051 
L 524.344847 448.842415 
L 539.140302 448.842415 
L 539.140302 478.54871 
L 553.935756 478.54871 
L 553.935756 472.055953 
L 568.731211 472.055953 
L 568.731211 457.894045 
L 583.526665 457.894045 
L 583.526665 489.42361 
L 598.32212 489.42361 
L 598.32212 473.781808 
L 613.117575 473.781808 
L 613.117575 476.508298 
L 627.913029 476.508298 
L 627.913029 488.747248 
L 642.708484 488.747248 
L 642.708484 487.347851 
L 657.503938 487.347851 
L 657.503938 482.938873 
L 672.299393 482.938873 
L 672.299393 484.914204 
L 687.094847 484.914204 
L 687.094847 490.089705 
L 701.890302 490.089705 
L 701.890302 487.193512 
L 716.685756 487.193512 
L 716.685756 489.188942 
L 731.481211 489.188942 
L 731.481211 497.820737 
L 746.276665 497.820737 
L 746.276665 492.557947 
L 761.07212 492.557947 
L 761.07212 493.976916 
L 775.867575 493.976916 
L 775.867575 489.894224 
L 790.663029 489.894224 
L 790.663029 490.557052 
L 805.458484 490.557052 
L 805.458484 497.736173 
L 820.253938 497.736173 
L 820.253938 497.359987 
L 835.049393 497.359987 
L 835.049393 495.006858 
L 849.844847 495.006858 
L 849.844847 492.59627 
L 864.640302 492.59627 
L 864.640302 568.966672 
L 871.690909 568.966672 
L 871.690909 1009 
" style="fill:none;stroke:#00bfbf;stroke-linecap:square;stroke-width:4;"/>
   </g>
   <g id="line2d_87">
    <path clip-path="url(#pf67c05ac24)" d="M 161.509091 696.55933 
L 161.509091 696.55933 
L 161.509091 1009 
M 213.640302 1009 
L 213.640302 447.835573 
L 228.435756 447.835573 
L 228.435756 1009 
M 243.231211 1009 
L 243.231211 427.180909 
L 258.026665 427.180909 
L 258.026665 439.419858 
L 272.82212 439.419858 
L 272.82212 380.125387 
L 287.617575 380.125387 
L 287.617575 509.03032 
L 302.413029 509.03032 
L 302.413029 431.004143 
L 317.208484 431.004143 
L 317.208484 461.974799 
L 332.003938 461.974799 
L 332.003938 545.747168 
L 346.799393 545.747168 
L 346.799393 467.720991 
L 361.594847 467.720991 
L 361.594847 479.95994 
L 376.390302 479.95994 
L 376.390302 582.464016 
L 391.185756 582.464016 
L 391.185756 489.908399 
L 405.981211 489.908399 
L 405.981211 516.676789 
L 420.776665 516.676789 
L 420.776665 528.915738 
L 435.57212 528.915738 
L 435.57212 504.71669 
L 450.367575 504.71669 
L 450.367575 508.261073 
L 465.163029 508.261073 
L 465.163029 451.737767 
L 479.958484 451.737767 
L 479.958484 476.416805 
L 494.753938 476.416805 
L 494.753938 447.043644 
L 509.549393 447.043644 
L 509.549393 480.471668 
L 524.344847 480.471668 
L 524.344847 475.243272 
L 539.140302 475.243272 
L 539.140302 481.976476 
L 553.935756 481.976476 
L 553.935756 472.055953 
L 568.731211 472.055953 
L 568.731211 483.054626 
L 583.526665 483.054626 
L 583.526665 472.686754 
L 598.32212 472.686754 
L 598.32212 488.494406 
L 613.117575 488.494406 
L 613.117575 487.500652 
L 627.913029 487.500652 
L 627.913029 484.46601 
L 642.708484 484.46601 
L 642.708484 473.956229 
L 657.503938 473.956229 
L 657.503938 493.707996 
L 672.299393 493.707996 
L 672.299393 494.38857 
L 687.094847 494.38857 
L 687.094847 489.786149 
L 701.890302 489.786149 
L 701.890302 491.944709 
L 716.685756 491.944709 
L 716.685756 496.140875 
L 731.481211 496.140875 
L 731.481211 492.041586 
L 746.276665 492.041586 
L 746.276665 488.374309 
L 761.07212 488.374309 
L 761.07212 487.72516 
L 775.867575 487.72516 
L 775.867575 495.425971 
L 790.663029 495.425971 
L 790.663029 494.80318 
L 805.458484 494.80318 
L 805.458484 488.004011 
L 820.253938 488.004011 
L 820.253938 499.203217 
L 835.049393 499.203217 
L 835.049393 495.107108 
L 849.844847 495.107108 
L 849.844847 494.99982 
L 864.640302 494.99982 
L 864.640302 557.867314 
L 871.690909 557.867314 
L 871.690909 756.221333 
L 871.690909 756.221333 
" style="fill:none;stroke:#bf00bf;stroke-linecap:square;stroke-width:4;"/>
   </g>
   <g id="line2d_88">
    <path clip-path="url(#pf67c05ac24)" d="M 161.509091 520.231343 
L 161.509091 520.231343 
L 161.509091 1009 
M 184.049393 1009 
L 184.049393 423.357674 
L 198.844847 423.357674 
L 198.844847 1009 
M 213.640302 1009 
L 213.640302 402.70301 
L 228.435756 402.70301 
L 228.435756 460.074523 
L 243.231211 460.074523 
L 243.231211 472.313472 
L 258.026665 472.313472 
L 258.026665 484.552421 
L 272.82212 484.552421 
L 272.82212 391.996804 
L 287.617575 391.996804 
L 287.617575 437.4969 
L 302.413029 437.4969 
L 302.413029 385.87158 
L 317.208484 385.87158 
L 317.208484 366.497889 
L 332.003938 366.497889 
L 332.003938 347.510624 
L 346.799393 347.510624 
L 346.799393 359.749574 
L 361.594847 359.749574 
L 361.594847 344.562251 
L 376.390302 344.562251 
L 376.390302 307.721215 
L 391.185756 307.721215 
L 391.185756 252.035918 
L 405.981211 252.035918 
L 405.981211 213.182242 
L 420.776665 213.182242 
L 420.776665 186.248691 
L 435.57212 186.248691 
L 435.57212 182.622511 
L 450.367575 182.622511 
L 450.367575 201.61167 
L 465.163029 201.61167 
L 465.163029 240.914767 
L 479.958484 240.914767 
L 479.958484 285.605087 
L 494.753938 285.605087 
L 494.753938 331.902614 
L 509.549393 331.902614 
L 509.549393 362.565408 
L 524.344847 362.565408 
L 524.344847 389.950983 
L 539.140302 389.950983 
L 539.140302 407.574198 
L 553.935756 407.574198 
L 553.935756 432.135172 
L 568.731211 432.135172 
L 568.731211 440.426699 
L 583.526665 440.426699 
L 583.526665 442.083631 
L 598.32212 442.083631 
L 598.32212 454.867458 
L 613.117575 454.867458 
L 613.117575 458.411841 
L 627.913029 458.411841 
L 627.913029 463.408609 
L 642.708484 463.408609 
L 642.708484 461.807146 
L 657.503938 461.807146 
L 657.503938 473.70067 
L 672.299393 473.70067 
L 672.299393 466.437342 
L 687.094847 466.437342 
L 687.094847 473.053332 
L 701.890302 473.053332 
L 701.890302 478.408574 
L 716.685756 478.408574 
L 716.685756 477.86933 
L 731.481211 477.86933 
L 731.481211 478.26573 
L 746.276665 478.26573 
L 746.276665 490.649214 
L 761.07212 490.649214 
L 761.07212 498.01115 
L 775.867575 498.01115 
L 775.867575 512.573353 
L 790.663029 512.573353 
L 790.663029 532.169162 
L 805.458484 532.169162 
L 805.458484 560.195804 
L 820.253938 560.195804 
L 820.253938 606.294181 
L 835.049393 606.294181 
L 835.049393 705.860351 
L 849.844847 705.860351 
L 849.844847 847.407273 
L 864.640302 847.407273 
L 864.640302 1009 
" style="fill:none;stroke:#bfbf00;stroke-linecap:square;stroke-width:4;"/>
   </g>
   <g id="patch_3">
    <path d="M 126 882 
L 126 120.96 
" style="fill:none;stroke:#000000;stroke-linecap:square;stroke-linejoin:miter;stroke-width:0.8;"/>
   </g>
   <g id="patch_4">
    <path d="M 907.2 882 
L 907.2 120.96 
" style="fill:none;stroke:#000000;stroke-linecap:square;stroke-linejoin:miter;stroke-width:0.8;"/>
   </g>
   <g id="patch_5">
    <path d="M 126 882 
L 907.2 882 
" style="fill:none;stroke:#000000;stroke-linecap:square;stroke-linejoin:miter;stroke-width:0.8;"/>
   </g>
   <g id="patch_6">
    <path d="M 126 120.96 
L 907.2 120.96 
" style="fill:none;stroke:#000000;stroke-linecap:square;stroke-linejoin:miter;stroke-width:0.8;"/>
   </g>
   <g id="legend_1">
    <g id="patch_7">
     <path d="M 544.8 225.069375 
L 893.2 225.069375 
Q 897.2 225.069375 897.2 221.069375 
L 897.2 134.96 
Q 897.2 130.96 893.2 130.96 
L 544.8 130.96 
Q 540.8 130.96 540.8 134.96 
L 540.8 221.069375 
Q 540.8 225.069375 544.8 225.069375 
z
" style="fill:#ffffff;opacity:0.8;stroke:#cccccc;stroke-linejoin:miter;"/>
    </g>
    <g id="line2d_89">
     <path d="M 548.8 147.156875 
L 588.8 147.156875 
" style="fill:none;stroke:#00bfbf;stroke-linecap:square;stroke-width:4;"/>
    </g>
    <g id="line2d_90"/>
    <g id="text_13">
     <!-- $e^{+}$ DVAE -->
     <g transform="translate(604.8 154.156875)scale(0.2 -0.2)">
      <defs>
       <path d="M 3078 2063 
Q 3088 2113 3092 2166 
Q 3097 2219 3097 2272 
Q 3097 2653 2873 2875 
Q 2650 3097 2266 3097 
Q 1838 3097 1509 2826 
Q 1181 2556 1013 2059 
L 3078 2063 
z
M 3578 1613 
L 903 1613 
Q 884 1494 878 1425 
Q 872 1356 872 1306 
Q 872 872 1139 634 
Q 1406 397 1894 397 
Q 2269 397 2603 481 
Q 2938 566 3225 728 
L 3116 159 
Q 2806 34 2476 -28 
Q 2147 -91 1806 -91 
Q 1078 -91 686 257 
Q 294 606 294 1247 
Q 294 1794 489 2264 
Q 684 2734 1063 3103 
Q 1306 3334 1642 3459 
Q 1978 3584 2356 3584 
Q 2950 3584 3301 3228 
Q 3653 2872 3653 2272 
Q 3653 2128 3634 1964 
Q 3616 1800 3578 1613 
z
" id="DejaVuSans-Oblique-65" transform="scale(0.015625)"/>
       <path d="M 2944 4013 
L 2944 2272 
L 4684 2272 
L 4684 1741 
L 2944 1741 
L 2944 0 
L 2419 0 
L 2419 1741 
L 678 1741 
L 678 2272 
L 2419 2272 
L 2419 4013 
L 2944 4013 
z
" id="DejaVuSans-2b" transform="scale(0.015625)"/>
       <path d="M 2188 4044 
L 1331 1722 
L 3047 1722 
L 2188 4044 
z
M 1831 4666 
L 2547 4666 
L 4325 0 
L 3669 0 
L 3244 1197 
L 1141 1197 
L 716 0 
L 50 0 
L 1831 4666 
z
" id="DejaVuSans-41" transform="scale(0.015625)"/>
      </defs>
      <use transform="translate(0 0.826562)" xlink:href="#DejaVuSans-Oblique-65"/>
      <use transform="translate(66.173333 39.107812)scale(0.7)" xlink:href="#DejaVuSans-2b"/>
      <use transform="translate(127.560052 0.826562)" xlink:href="#DejaVuSans-20"/>
      <use transform="translate(159.347161 0.826562)" xlink:href="#DejaVuSans-44"/>
      <use transform="translate(236.349115 0.826562)" xlink:href="#DejaVuSans-56"/>
      <use transform="translate(304.757318 0.826562)" xlink:href="#DejaVuSans-41"/>
      <use transform="translate(373.165521 0.826562)" xlink:href="#DejaVuSans-45"/>
     </g>
    </g>
    <g id="line2d_91">
     <path d="M 548.8 176.513125 
L 588.8 176.513125 
" style="fill:none;stroke:#bf00bf;stroke-linecap:square;stroke-width:4;"/>
    </g>
    <g id="line2d_92"/>
    <g id="text_14">
     <!-- $\gamma$   DVAE -->
     <g transform="translate(604.8 183.513125)scale(0.2 -0.2)">
      <defs>
       <path d="M 1491 2950 
L 1838 788 
L 3456 3500 
L 4066 3500 
L 1972 0 
L 1713 -1331 
L 1138 -1331 
L 1397 0 
L 988 2613 
Q 925 3006 628 3006 
L 475 3006 
L 569 3500 
L 788 3500 
Q 1403 3500 1491 2950 
z
" id="DejaVuSans-Oblique-3b3" transform="scale(0.015625)"/>
      </defs>
      <use transform="translate(0 0.09375)" xlink:href="#DejaVuSans-Oblique-3b3"/>
      <use transform="translate(59.179688 0.09375)" xlink:href="#DejaVuSans-20"/>
      <use transform="translate(90.966797 0.09375)" xlink:href="#DejaVuSans-20"/>
      <use transform="translate(122.753906 0.09375)" xlink:href="#DejaVuSans-20"/>
      <use transform="translate(154.541016 0.09375)" xlink:href="#DejaVuSans-44"/>
      <use transform="translate(231.542969 0.09375)" xlink:href="#DejaVuSans-56"/>
      <use transform="translate(299.951172 0.09375)" xlink:href="#DejaVuSans-41"/>
      <use transform="translate(368.359375 0.09375)" xlink:href="#DejaVuSans-45"/>
     </g>
    </g>
    <g id="line2d_93">
     <path d="M 548.8 205.91 
L 588.8 205.91 
" style="fill:none;stroke:#bfbf00;stroke-linecap:square;stroke-width:4;"/>
    </g>
    <g id="line2d_94"/>
    <g id="text_15">
     <!-- $\pi^{+}$ DVAE -->
     <g transform="translate(604.8 212.91)scale(0.2 -0.2)">
      <defs>
       <path d="M 584 3500 
L 3938 3500 
L 3825 2925 
L 3384 2925 
L 2966 775 
Q 2922 550 2981 450 
Q 3038 353 3209 353 
Q 3256 353 3325 363 
Q 3397 369 3419 372 
L 3338 -44 
Q 3222 -84 3103 -103 
Q 2981 -122 2866 -122 
Q 2491 -122 2388 81 
Q 2284 288 2391 838 
L 2797 2925 
L 1506 2925 
L 938 0 
L 350 0 
L 919 2925 
L 472 2925 
L 584 3500 
z
" id="DejaVuSans-Oblique-3c0" transform="scale(0.015625)"/>
      </defs>
      <use transform="translate(0 0.826562)" xlink:href="#DejaVuSans-Oblique-3c0"/>
      <use transform="translate(64.671224 39.107812)scale(0.7)" xlink:href="#DejaVuSans-2b"/>
      <use transform="translate(126.057943 0.826562)" xlink:href="#DejaVuSans-20"/>
      <use transform="translate(157.845052 0.826562)" xlink:href="#DejaVuSans-44"/>
      <use transform="translate(234.847005 0.826562)" xlink:href="#DejaVuSans-56"/>
      <use transform="translate(303.255208 0.826562)" xlink:href="#DejaVuSans-41"/>
      <use transform="translate(371.663411 0.826562)" xlink:href="#DejaVuSans-45"/>
     </g>
    </g>
    <g id="patch_8">
     <path d="M 732.2 154.156875 
L 772.2 154.156875 
L 772.2 140.156875 
L 732.2 140.156875 
z
" style="fill:#00bfbf;opacity:0.4;stroke:#00bfbf;stroke-linejoin:miter;"/>
    </g>
    <g id="text_16">
     <!-- $e^{+}$ GEANT -->
     <g transform="translate(788.2 154.156875)scale(0.2 -0.2)">
      <defs>
       <path d="M 628 4666 
L 1478 4666 
L 3547 763 
L 3547 4666 
L 4159 4666 
L 4159 0 
L 3309 0 
L 1241 3903 
L 1241 0 
L 628 0 
L 628 4666 
z
" id="DejaVuSans-4e" transform="scale(0.015625)"/>
       <path d="M -19 4666 
L 3928 4666 
L 3928 4134 
L 2272 4134 
L 2272 0 
L 1638 0 
L 1638 4134 
L -19 4134 
L -19 4666 
z
" id="DejaVuSans-54" transform="scale(0.015625)"/>
      </defs>
      <use transform="translate(0 0.826562)" xlink:href="#DejaVuSans-Oblique-65"/>
      <use transform="translate(66.173333 39.107812)scale(0.7)" xlink:href="#DejaVuSans-2b"/>
      <use transform="translate(127.560052 0.826562)" xlink:href="#DejaVuSans-20"/>
      <use transform="translate(159.347161 0.826562)" xlink:href="#DejaVuSans-47"/>
      <use transform="translate(236.837396 0.826562)" xlink:href="#DejaVuSans-45"/>
      <use transform="translate(300.02099 0.826562)" xlink:href="#DejaVuSans-41"/>
      <use transform="translate(368.429193 0.826562)" xlink:href="#DejaVuSans-4e"/>
      <use transform="translate(443.23388 0.826562)" xlink:href="#DejaVuSans-54"/>
     </g>
    </g>
    <g id="patch_9">
     <path d="M 732.2 183.513125 
L 772.2 183.513125 
L 772.2 169.513125 
L 732.2 169.513125 
z
" style="fill:#bf00bf;opacity:0.4;stroke:#bf00bf;stroke-linejoin:miter;"/>
    </g>
    <g id="text_17">
     <!-- $\gamma$   GEANT -->
     <g transform="translate(788.2 183.513125)scale(0.2 -0.2)">
      <use transform="translate(0 0.78125)" xlink:href="#DejaVuSans-Oblique-3b3"/>
      <use transform="translate(59.179688 0.78125)" xlink:href="#DejaVuSans-20"/>
      <use transform="translate(90.966797 0.78125)" xlink:href="#DejaVuSans-20"/>
      <use transform="translate(122.753906 0.78125)" xlink:href="#DejaVuSans-20"/>
      <use transform="translate(154.541016 0.78125)" xlink:href="#DejaVuSans-47"/>
      <use transform="translate(232.03125 0.78125)" xlink:href="#DejaVuSans-45"/>
      <use transform="translate(295.214844 0.78125)" xlink:href="#DejaVuSans-41"/>
      <use transform="translate(363.623047 0.78125)" xlink:href="#DejaVuSans-4e"/>
      <use transform="translate(438.427734 0.78125)" xlink:href="#DejaVuSans-54"/>
     </g>
    </g>
    <g id="patch_10">
     <path d="M 732.2 212.91 
L 772.2 212.91 
L 772.2 198.91 
L 732.2 198.91 
z
" style="fill:#bfbf00;opacity:0.4;stroke:#bfbf00;stroke-linejoin:miter;"/>
    </g>
    <g id="text_18">
     <!-- $\pi^{+}$ GEANT -->
     <g transform="translate(788.2 212.91)scale(0.2 -0.2)">
      <use transform="translate(0 0.826562)" xlink:href="#DejaVuSans-Oblique-3c0"/>
      <use transform="translate(64.671224 39.107812)scale(0.7)" xlink:href="#DejaVuSans-2b"/>
      <use transform="translate(126.057943 0.826562)" xlink:href="#DejaVuSans-20"/>
      <use transform="translate(157.845052 0.826562)" xlink:href="#DejaVuSans-47"/>
      <use transform="translate(235.335286 0.826562)" xlink:href="#DejaVuSans-45"/>
      <use transform="translate(298.51888 0.826562)" xlink:href="#DejaVuSans-41"/>
      <use transform="translate(366.927083 0.826562)" xlink:href="#DejaVuSans-4e"/>
      <use transform="translate(441.731771 0.826562)" xlink:href="#DejaVuSans-54"/>
     </g>
    </g>
   </g>
  </g>
 </g>
 <defs>
  <clipPath id="pf67c05ac24">
   <rect height="761.04" width="781.2" x="126" y="120.96"/>
  </clipPath>
 </defs>
</svg>
