<?xml version="1.0" encoding="utf-8" standalone="no"?>
<!DOCTYPE svg PUBLIC "-//W3C//DTD SVG 1.1//EN"
  "http://www.w3.org/Graphics/SVG/1.1/DTD/svg11.dtd">
<svg height="1008pt" version="1.1" viewBox="0 0 1008 1008" width="1008pt" xmlns="http://www.w3.org/2000/svg" xmlns:xlink="http://www.w3.org/1999/xlink">
 <metadata>
  <rdf:RDF xmlns:cc="http://creativecommons.org/ns#" xmlns:dc="http://purl.org/dc/elements/1.1/" xmlns:rdf="http://www.w3.org/1999/02/22-rdf-syntax-ns#">
   <cc:Work>
    <dc:type rdf:resource="http://purl.org/dc/dcmitype/StillImage"/>
    <dc:date>2021-09-27T15:02:16.969702</dc:date>
    <dc:format>image/svg+xml</dc:format>
    <dc:creator>
     <cc:Agent>
      <dc:title>Matplotlib v3.4.2, https://matplotlib.org/</dc:title>
     </cc:Agent>
    </dc:creator>
   </cc:Work>
  </rdf:RDF>
 </metadata>
 <defs>
  <style type="text/css">*{stroke-linecap:butt;stroke-linejoin:round;}</style>
 </defs>
 <g id="figure_1">
  <g id="patch_1">
   <path d="M 0 1008 
L 1008 1008 
L 1008 0 
L 0 0 
z
" style="fill:none;"/>
  </g>
  <g id="axes_1">
   <g id="patch_2">
    <path d="M 126 882 
L 907.2 882 
L 907.2 120.96 
L 126 120.96 
z
" style="fill:#ffffff;"/>
   </g>
   <g id="PolyCollection_1">
    <path clip-path="url(#p5439ce1509)" d="M 161.509091 155355.43522 
L 161.509091 155355.43522 
L 161.509091 155355.43522 
L 161.509091 155355.43522 
L 170.991495 155355.43522 
L 170.991495 155355.43522 
L 189.68049 155355.43522 
L 189.68049 155355.43522 
L 208.369485 155355.43522 
L 208.369485 155355.43522 
L 227.05848 155355.43522 
L 227.05848 155355.43522 
L 245.747476 155355.43522 
L 245.747476 155355.43522 
L 264.436471 155355.43522 
L 264.436471 155355.43522 
L 283.125466 155355.43522 
L 283.125466 155355.43522 
L 301.814461 155355.43522 
L 301.814461 155355.43522 
L 320.503456 155355.43522 
L 320.503456 155355.43522 
L 339.192452 155355.43522 
L 339.192452 155355.43522 
L 357.881447 155355.43522 
L 357.881447 155355.43522 
L 376.570442 155355.43522 
L 376.570442 155355.43522 
L 395.259437 155355.43522 
L 395.259437 603.110607 
L 413.948433 603.110607 
L 413.948433 155355.43522 
L 432.637428 155355.43522 
L 432.637428 155355.43522 
L 451.326423 155355.43522 
L 451.326423 155355.43522 
L 470.015418 155355.43522 
L 470.015418 618.952815 
L 488.704413 618.952815 
L 488.704413 529.91826 
L 507.393409 529.91826 
L 507.393409 553.17704 
L 526.082404 553.17704 
L 526.082404 500.299335 
L 544.771399 500.299335 
L 544.771399 504.259887 
L 563.460394 504.259887 
L 563.460394 477.900468 
L 582.14939 477.900468 
L 582.14939 448.824816 
L 600.838385 448.824816 
L 600.838385 442.444664 
L 619.52738 442.444664 
L 619.52738 393.805113 
L 638.216375 393.805113 
L 638.216375 399.240049 
L 656.90537 399.240049 
L 656.90537 401.726217 
L 675.594366 401.726217 
L 675.594366 372.005542 
L 694.283361 372.005542 
L 694.283361 346.453375 
L 712.972356 346.453375 
L 712.972356 335.67284 
L 731.661351 335.67284 
L 731.661351 295.457239 
L 750.350346 295.457239 
L 750.350346 271.125141 
L 769.039342 271.125141 
L 769.039342 237.435096 
L 787.728337 237.435096 
L 787.728337 199.516791 
L 806.417332 199.516791 
L 806.417332 166.501001 
L 825.106327 166.501001 
L 825.106327 162.038111 
L 843.795323 162.038111 
L 843.795323 222.660705 
L 862.484318 222.660705 
L 862.484318 386.200691 
L 871.690909 386.200691 
L 871.690909 155355.43522 
L 871.690909 155355.43522 
L 871.690909 155355.43522 
L 871.690909 155355.43522 
L 871.690909 155355.43522 
L 871.690909 155355.43522 
L 862.484318 155355.43522 
L 862.484318 155355.43522 
L 843.795323 155355.43522 
L 843.795323 155355.43522 
L 825.106327 155355.43522 
L 825.106327 155355.43522 
L 806.417332 155355.43522 
L 806.417332 155355.43522 
L 787.728337 155355.43522 
L 787.728337 155355.43522 
L 769.039342 155355.43522 
L 769.039342 155355.43522 
L 750.350346 155355.43522 
L 750.350346 155355.43522 
L 731.661351 155355.43522 
L 731.661351 155355.43522 
L 712.972356 155355.43522 
L 712.972356 155355.43522 
L 694.283361 155355.43522 
L 694.283361 155355.43522 
L 675.594366 155355.43522 
L 675.594366 155355.43522 
L 656.90537 155355.43522 
L 656.90537 155355.43522 
L 638.216375 155355.43522 
L 638.216375 155355.43522 
L 619.52738 155355.43522 
L 619.52738 155355.43522 
L 600.838385 155355.43522 
L 600.838385 155355.43522 
L 582.14939 155355.43522 
L 582.14939 155355.43522 
L 563.460394 155355.43522 
L 563.460394 155355.43522 
L 544.771399 155355.43522 
L 544.771399 155355.43522 
L 526.082404 155355.43522 
L 526.082404 155355.43522 
L 507.393409 155355.43522 
L 507.393409 155355.43522 
L 488.704413 155355.43522 
L 488.704413 155355.43522 
L 470.015418 155355.43522 
L 470.015418 155355.43522 
L 451.326423 155355.43522 
L 451.326423 155355.43522 
L 432.637428 155355.43522 
L 432.637428 155355.43522 
L 413.948433 155355.43522 
L 413.948433 155355.43522 
L 395.259437 155355.43522 
L 395.259437 155355.43522 
L 376.570442 155355.43522 
L 376.570442 155355.43522 
L 357.881447 155355.43522 
L 357.881447 155355.43522 
L 339.192452 155355.43522 
L 339.192452 155355.43522 
L 320.503456 155355.43522 
L 320.503456 155355.43522 
L 301.814461 155355.43522 
L 301.814461 155355.43522 
L 283.125466 155355.43522 
L 283.125466 155355.43522 
L 264.436471 155355.43522 
L 264.436471 155355.43522 
L 245.747476 155355.43522 
L 245.747476 155355.43522 
L 227.05848 155355.43522 
L 227.05848 155355.43522 
L 208.369485 155355.43522 
L 208.369485 155355.43522 
L 189.68049 155355.43522 
L 189.68049 155355.43522 
L 170.991495 155355.43522 
L 170.991495 155355.43522 
L 161.509091 155355.43522 
L 161.509091 155355.43522 
L 161.509091 155355.43522 
z
" style="fill:#00bfbf;fill-opacity:0.4;stroke:#00bfbf;stroke-opacity:0.4;"/>
   </g>
   <g id="PolyCollection_2">
    <path clip-path="url(#p5439ce1509)" d="M 161.509091 155355.43522 
L 161.509091 155355.43522 
L 161.509091 155355.43522 
L 161.509091 155355.43522 
L 170.991495 155355.43522 
L 170.991495 155355.43522 
L 189.68049 155355.43522 
L 189.68049 155355.43522 
L 208.369485 155355.43522 
L 208.369485 155355.43522 
L 227.05848 155355.43522 
L 227.05848 155355.43522 
L 245.747476 155355.43522 
L 245.747476 155355.43522 
L 264.436471 155355.43522 
L 264.436471 155355.43522 
L 283.125466 155355.43522 
L 283.125466 155355.43522 
L 301.814461 155355.43522 
L 301.814461 155355.43522 
L 320.503456 155355.43522 
L 320.503456 155355.43522 
L 339.192452 155355.43522 
L 339.192452 155355.43522 
L 357.881447 155355.43522 
L 357.881447 155355.43522 
L 376.570442 155355.43522 
L 376.570442 155355.43522 
L 395.259437 155355.43522 
L 395.259437 155355.43522 
L 413.948433 155355.43522 
L 413.948433 155355.43522 
L 432.637428 155355.43522 
L 432.637428 611.031711 
L 451.326423 611.031711 
L 451.326423 155355.43522 
L 470.015418 155355.43522 
L 470.015418 618.952815 
L 488.704413 618.952815 
L 488.704413 622.913368 
L 507.393409 622.913368 
L 507.393409 626.87392 
L 526.082404 626.87392 
L 526.082404 510.640039 
L 544.771399 510.640039 
L 544.771399 561.098145 
L 563.460394 561.098145 
L 563.460394 484.294045 
L 582.14939 484.294045 
L 582.14939 488.254597 
L 600.838385 488.254597 
L 600.838385 456.619656 
L 619.52738 456.619656 
L 619.52738 496.175702 
L 638.216375 496.175702 
L 638.216375 444.263218 
L 656.90537 444.263218 
L 656.90537 424.006349 
L 675.594366 424.006349 
L 675.594366 391.303771 
L 694.283361 391.303771 
L 694.283361 372.525248 
L 712.972356 372.525248 
L 712.972356 360.188536 
L 731.661351 360.188536 
L 731.661351 337.83243 
L 750.350346 337.83243 
L 750.350346 305.599122 
L 769.039342 305.599122 
L 769.039342 268.5936 
L 787.728337 268.5936 
L 787.728337 235.883621 
L 806.417332 235.883621 
L 806.417332 199.703572 
L 825.106327 199.703572 
L 825.106327 175.384601 
L 843.795323 175.384601 
L 843.795323 180.321013 
L 862.484318 180.321013 
L 862.484318 195.753759 
L 871.690909 195.753759 
L 871.690909 155355.43522 
L 871.690909 155355.43522 
L 871.690909 155355.43522 
L 871.690909 155355.43522 
L 871.690909 155355.43522 
L 871.690909 155355.43522 
L 862.484318 155355.43522 
L 862.484318 155355.43522 
L 843.795323 155355.43522 
L 843.795323 155355.43522 
L 825.106327 155355.43522 
L 825.106327 155355.43522 
L 806.417332 155355.43522 
L 806.417332 155355.43522 
L 787.728337 155355.43522 
L 787.728337 155355.43522 
L 769.039342 155355.43522 
L 769.039342 155355.43522 
L 750.350346 155355.43522 
L 750.350346 155355.43522 
L 731.661351 155355.43522 
L 731.661351 155355.43522 
L 712.972356 155355.43522 
L 712.972356 155355.43522 
L 694.283361 155355.43522 
L 694.283361 155355.43522 
L 675.594366 155355.43522 
L 675.594366 155355.43522 
L 656.90537 155355.43522 
L 656.90537 155355.43522 
L 638.216375 155355.43522 
L 638.216375 155355.43522 
L 619.52738 155355.43522 
L 619.52738 155355.43522 
L 600.838385 155355.43522 
L 600.838385 155355.43522 
L 582.14939 155355.43522 
L 582.14939 155355.43522 
L 563.460394 155355.43522 
L 563.460394 155355.43522 
L 544.771399 155355.43522 
L 544.771399 155355.43522 
L 526.082404 155355.43522 
L 526.082404 155355.43522 
L 507.393409 155355.43522 
L 507.393409 155355.43522 
L 488.704413 155355.43522 
L 488.704413 155355.43522 
L 470.015418 155355.43522 
L 470.015418 155355.43522 
L 451.326423 155355.43522 
L 451.326423 155355.43522 
L 432.637428 155355.43522 
L 432.637428 155355.43522 
L 413.948433 155355.43522 
L 413.948433 155355.43522 
L 395.259437 155355.43522 
L 395.259437 155355.43522 
L 376.570442 155355.43522 
L 376.570442 155355.43522 
L 357.881447 155355.43522 
L 357.881447 155355.43522 
L 339.192452 155355.43522 
L 339.192452 155355.43522 
L 320.503456 155355.43522 
L 320.503456 155355.43522 
L 301.814461 155355.43522 
L 301.814461 155355.43522 
L 283.125466 155355.43522 
L 283.125466 155355.43522 
L 264.436471 155355.43522 
L 264.436471 155355.43522 
L 245.747476 155355.43522 
L 245.747476 155355.43522 
L 227.05848 155355.43522 
L 227.05848 155355.43522 
L 208.369485 155355.43522 
L 208.369485 155355.43522 
L 189.68049 155355.43522 
L 189.68049 155355.43522 
L 170.991495 155355.43522 
L 170.991495 155355.43522 
L 161.509091 155355.43522 
L 161.509091 155355.43522 
L 161.509091 155355.43522 
z
" style="fill:#bf00bf;fill-opacity:0.4;stroke:#bf00bf;stroke-opacity:0.4;"/>
   </g>
   <g id="PolyCollection_3">
    <path clip-path="url(#p5439ce1509)" d="M 161.509091 155355.43522 
L 161.509091 773.710394 
L 161.509091 773.710394 
L 161.509091 551.62343 
L 170.991495 551.62343 
L 170.991495 155355.43522 
L 189.68049 155355.43522 
L 189.68049 155355.43522 
L 208.369485 155355.43522 
L 208.369485 563.505087 
L 227.05848 563.505087 
L 227.05848 567.465639 
L 245.747476 567.465639 
L 245.747476 497.729312 
L 264.436471 497.729312 
L 264.436471 455.19231 
L 283.125466 455.19231 
L 283.125466 448.812158 
L 301.814461 448.812158 
L 301.814461 435.914089 
L 320.503456 435.914089 
L 320.503456 420.576412 
L 339.192452 420.576412 
L 339.192452 430.373843 
L 357.881447 430.373843 
L 357.881447 401.298191 
L 376.570442 401.298191 
L 376.570442 478.955622 
L 395.259437 478.955622 
L 395.259437 387.182654 
L 413.948433 387.182654 
L 413.948433 406.112075 
L 432.637428 406.112075 
L 432.637428 361.918649 
L 451.326423 361.918649 
L 451.326423 391.462019 
L 470.015418 391.462019 
L 470.015418 365.1026 
L 488.704413 365.1026 
L 488.704413 364.638573 
L 507.393409 364.638573 
L 507.393409 379.417282 
L 526.082404 379.417282 
L 526.082404 369.764198 
L 544.771399 369.764198 
L 544.771399 363.579906 
L 563.460394 363.579906 
L 563.460394 364.099612 
L 582.14939 364.099612 
L 582.14939 362.690756 
L 600.838385 362.690756 
L 600.838385 360.728482 
L 619.52738 360.728482 
L 619.52738 366.605787 
L 638.216375 366.605787 
L 638.216375 358.174045 
L 656.90537 358.174045 
L 656.90537 337.966176 
L 675.594366 337.966176 
L 675.594366 342.492822 
L 694.283361 342.492822 
L 694.283361 324.37127 
L 712.972356 324.37127 
L 712.972356 302.788921 
L 731.661351 302.788921 
L 731.661351 286.61792 
L 750.350346 286.61792 
L 750.350346 243.053612 
L 769.039342 243.053612 
L 769.039342 187.702499 
L 787.728337 187.702499 
L 787.728337 203.565848 
L 806.417332 203.565848 
L 806.417332 233.480206 
L 825.106327 233.480206 
L 825.106327 226.657268 
L 843.795323 226.657268 
L 843.795323 205.858102 
L 862.484318 205.858102 
L 862.484318 228.725734 
L 871.690909 228.725734 
L 871.690909 155355.43522 
L 871.690909 155355.43522 
L 871.690909 155355.43522 
L 871.690909 155355.43522 
L 871.690909 155355.43522 
L 871.690909 155355.43522 
L 862.484318 155355.43522 
L 862.484318 155355.43522 
L 843.795323 155355.43522 
L 843.795323 155355.43522 
L 825.106327 155355.43522 
L 825.106327 155355.43522 
L 806.417332 155355.43522 
L 806.417332 155355.43522 
L 787.728337 155355.43522 
L 787.728337 155355.43522 
L 769.039342 155355.43522 
L 769.039342 155355.43522 
L 750.350346 155355.43522 
L 750.350346 155355.43522 
L 731.661351 155355.43522 
L 731.661351 155355.43522 
L 712.972356 155355.43522 
L 712.972356 155355.43522 
L 694.283361 155355.43522 
L 694.283361 155355.43522 
L 675.594366 155355.43522 
L 675.594366 155355.43522 
L 656.90537 155355.43522 
L 656.90537 155355.43522 
L 638.216375 155355.43522 
L 638.216375 155355.43522 
L 619.52738 155355.43522 
L 619.52738 155355.43522 
L 600.838385 155355.43522 
L 600.838385 155355.43522 
L 582.14939 155355.43522 
L 582.14939 155355.43522 
L 563.460394 155355.43522 
L 563.460394 155355.43522 
L 544.771399 155355.43522 
L 544.771399 155355.43522 
L 526.082404 155355.43522 
L 526.082404 155355.43522 
L 507.393409 155355.43522 
L 507.393409 155355.43522 
L 488.704413 155355.43522 
L 488.704413 155355.43522 
L 470.015418 155355.43522 
L 470.015418 155355.43522 
L 451.326423 155355.43522 
L 451.326423 155355.43522 
L 432.637428 155355.43522 
L 432.637428 155355.43522 
L 413.948433 155355.43522 
L 413.948433 155355.43522 
L 395.259437 155355.43522 
L 395.259437 155355.43522 
L 376.570442 155355.43522 
L 376.570442 155355.43522 
L 357.881447 155355.43522 
L 357.881447 155355.43522 
L 339.192452 155355.43522 
L 339.192452 155355.43522 
L 320.503456 155355.43522 
L 320.503456 155355.43522 
L 301.814461 155355.43522 
L 301.814461 155355.43522 
L 283.125466 155355.43522 
L 283.125466 155355.43522 
L 264.436471 155355.43522 
L 264.436471 155355.43522 
L 245.747476 155355.43522 
L 245.747476 155355.43522 
L 227.05848 155355.43522 
L 227.05848 155355.43522 
L 208.369485 155355.43522 
L 208.369485 155355.43522 
L 189.68049 155355.43522 
L 189.68049 155355.43522 
L 170.991495 155355.43522 
L 170.991495 155355.43522 
L 161.509091 155355.43522 
L 161.509091 155355.43522 
L 161.509091 155355.43522 
z
" style="fill:#bfbf00;fill-opacity:0.4;stroke:#bfbf00;stroke-opacity:0.4;"/>
   </g>
   <g id="matplotlib.axis_1">
    <g id="xtick_1">
     <g id="line2d_1">
      <defs>
       <path d="M 0 0 
L 0 3.5 
" id="m9862a47df2" style="stroke:#000000;stroke-width:0.8;"/>
      </defs>
      <g>
       <use style="stroke:#000000;stroke-width:0.8;" x="152.026687" xlink:href="#m9862a47df2" y="882"/>
      </g>
     </g>
     <g id="text_1">
      <!-- $\mathdefault{10^{-1}}$ -->
      <g transform="translate(116.776687 911.795313)scale(0.3 -0.3)">
       <defs>
        <path d="M 794 531 
L 1825 531 
L 1825 4091 
L 703 3866 
L 703 4441 
L 1819 4666 
L 2450 4666 
L 2450 531 
L 3481 531 
L 3481 0 
L 794 0 
L 794 531 
z
" id="DejaVuSans-31" transform="scale(0.015625)"/>
        <path d="M 2034 4250 
Q 1547 4250 1301 3770 
Q 1056 3291 1056 2328 
Q 1056 1369 1301 889 
Q 1547 409 2034 409 
Q 2525 409 2770 889 
Q 3016 1369 3016 2328 
Q 3016 3291 2770 3770 
Q 2525 4250 2034 4250 
z
M 2034 4750 
Q 2819 4750 3233 4129 
Q 3647 3509 3647 2328 
Q 3647 1150 3233 529 
Q 2819 -91 2034 -91 
Q 1250 -91 836 529 
Q 422 1150 422 2328 
Q 422 3509 836 4129 
Q 1250 4750 2034 4750 
z
" id="DejaVuSans-30" transform="scale(0.015625)"/>
        <path d="M 678 2272 
L 4684 2272 
L 4684 1741 
L 678 1741 
L 678 2272 
z
" id="DejaVuSans-2212" transform="scale(0.015625)"/>
       </defs>
       <use transform="translate(0 0.684375)" xlink:href="#DejaVuSans-31"/>
       <use transform="translate(63.623047 0.684375)" xlink:href="#DejaVuSans-30"/>
       <use transform="translate(128.203125 38.965625)scale(0.7)" xlink:href="#DejaVuSans-2212"/>
       <use transform="translate(186.855469 38.965625)scale(0.7)" xlink:href="#DejaVuSans-31"/>
      </g>
     </g>
    </g>
    <g id="xtick_2">
     <g id="line2d_2">
      <g>
       <use style="stroke:#000000;stroke-width:0.8;" x="880.8975" xlink:href="#m9862a47df2" y="882"/>
      </g>
     </g>
     <g id="text_2">
      <!-- $\mathdefault{10^{0}}$ -->
      <g transform="translate(854.4975 911.795313)scale(0.3 -0.3)">
       <use transform="translate(0 0.765625)" xlink:href="#DejaVuSans-31"/>
       <use transform="translate(63.623047 0.765625)" xlink:href="#DejaVuSans-30"/>
       <use transform="translate(128.203125 39.046875)scale(0.7)" xlink:href="#DejaVuSans-30"/>
      </g>
     </g>
    </g>
    <g id="xtick_3">
     <g id="line2d_3">
      <defs>
       <path d="M 0 0 
L 0 2 
" id="m8ab77918c0" style="stroke:#000000;stroke-width:0.6;"/>
      </defs>
      <g>
       <use style="stroke:#000000;stroke-width:0.6;" x="371.438665" xlink:href="#m8ab77918c0" y="882"/>
      </g>
     </g>
    </g>
    <g id="xtick_4">
     <g id="line2d_4">
      <g>
       <use style="stroke:#000000;stroke-width:0.6;" x="499.786444" xlink:href="#m8ab77918c0" y="882"/>
      </g>
     </g>
    </g>
    <g id="xtick_5">
     <g id="line2d_5">
      <g>
       <use style="stroke:#000000;stroke-width:0.6;" x="590.850643" xlink:href="#m8ab77918c0" y="882"/>
      </g>
     </g>
    </g>
    <g id="xtick_6">
     <g id="line2d_6">
      <g>
       <use style="stroke:#000000;stroke-width:0.6;" x="661.485523" xlink:href="#m8ab77918c0" y="882"/>
      </g>
     </g>
    </g>
    <g id="xtick_7">
     <g id="line2d_7">
      <g>
       <use style="stroke:#000000;stroke-width:0.6;" x="719.198422" xlink:href="#m8ab77918c0" y="882"/>
      </g>
     </g>
    </g>
    <g id="xtick_8">
     <g id="line2d_8">
      <g>
       <use style="stroke:#000000;stroke-width:0.6;" x="767.993983" xlink:href="#m8ab77918c0" y="882"/>
      </g>
     </g>
    </g>
    <g id="xtick_9">
     <g id="line2d_9">
      <g>
       <use style="stroke:#000000;stroke-width:0.6;" x="810.26262" xlink:href="#m8ab77918c0" y="882"/>
      </g>
     </g>
    </g>
    <g id="xtick_10">
     <g id="line2d_10">
      <g>
       <use style="stroke:#000000;stroke-width:0.6;" x="847.546201" xlink:href="#m8ab77918c0" y="882"/>
      </g>
     </g>
    </g>
    <g id="text_3">
     <!-- Layer 1 f -->
     <g transform="translate(450.417188 944.829687)scale(0.3 -0.3)">
      <defs>
       <path d="M 628 4666 
L 1259 4666 
L 1259 531 
L 3531 531 
L 3531 0 
L 628 0 
L 628 4666 
z
" id="DejaVuSans-4c" transform="scale(0.015625)"/>
       <path d="M 2194 1759 
Q 1497 1759 1228 1600 
Q 959 1441 959 1056 
Q 959 750 1161 570 
Q 1363 391 1709 391 
Q 2188 391 2477 730 
Q 2766 1069 2766 1631 
L 2766 1759 
L 2194 1759 
z
M 3341 1997 
L 3341 0 
L 2766 0 
L 2766 531 
Q 2569 213 2275 61 
Q 1981 -91 1556 -91 
Q 1019 -91 701 211 
Q 384 513 384 1019 
Q 384 1609 779 1909 
Q 1175 2209 1959 2209 
L 2766 2209 
L 2766 2266 
Q 2766 2663 2505 2880 
Q 2244 3097 1772 3097 
Q 1472 3097 1187 3025 
Q 903 2953 641 2809 
L 641 3341 
Q 956 3463 1253 3523 
Q 1550 3584 1831 3584 
Q 2591 3584 2966 3190 
Q 3341 2797 3341 1997 
z
" id="DejaVuSans-61" transform="scale(0.015625)"/>
       <path d="M 2059 -325 
Q 1816 -950 1584 -1140 
Q 1353 -1331 966 -1331 
L 506 -1331 
L 506 -850 
L 844 -850 
Q 1081 -850 1212 -737 
Q 1344 -625 1503 -206 
L 1606 56 
L 191 3500 
L 800 3500 
L 1894 763 
L 2988 3500 
L 3597 3500 
L 2059 -325 
z
" id="DejaVuSans-79" transform="scale(0.015625)"/>
       <path d="M 3597 1894 
L 3597 1613 
L 953 1613 
Q 991 1019 1311 708 
Q 1631 397 2203 397 
Q 2534 397 2845 478 
Q 3156 559 3463 722 
L 3463 178 
Q 3153 47 2828 -22 
Q 2503 -91 2169 -91 
Q 1331 -91 842 396 
Q 353 884 353 1716 
Q 353 2575 817 3079 
Q 1281 3584 2069 3584 
Q 2775 3584 3186 3129 
Q 3597 2675 3597 1894 
z
M 3022 2063 
Q 3016 2534 2758 2815 
Q 2500 3097 2075 3097 
Q 1594 3097 1305 2825 
Q 1016 2553 972 2059 
L 3022 2063 
z
" id="DejaVuSans-65" transform="scale(0.015625)"/>
       <path d="M 2631 2963 
Q 2534 3019 2420 3045 
Q 2306 3072 2169 3072 
Q 1681 3072 1420 2755 
Q 1159 2438 1159 1844 
L 1159 0 
L 581 0 
L 581 3500 
L 1159 3500 
L 1159 2956 
Q 1341 3275 1631 3429 
Q 1922 3584 2338 3584 
Q 2397 3584 2469 3576 
Q 2541 3569 2628 3553 
L 2631 2963 
z
" id="DejaVuSans-72" transform="scale(0.015625)"/>
       <path id="DejaVuSans-20" transform="scale(0.015625)"/>
       <path d="M 2375 4863 
L 2375 4384 
L 1825 4384 
Q 1516 4384 1395 4259 
Q 1275 4134 1275 3809 
L 1275 3500 
L 2222 3500 
L 2222 3053 
L 1275 3053 
L 1275 0 
L 697 0 
L 697 3053 
L 147 3053 
L 147 3500 
L 697 3500 
L 697 3744 
Q 697 4328 969 4595 
Q 1241 4863 1831 4863 
L 2375 4863 
z
" id="DejaVuSans-66" transform="scale(0.015625)"/>
      </defs>
      <use xlink:href="#DejaVuSans-4c"/>
      <use x="55.712891" xlink:href="#DejaVuSans-61"/>
      <use x="116.992188" xlink:href="#DejaVuSans-79"/>
      <use x="176.171875" xlink:href="#DejaVuSans-65"/>
      <use x="237.695312" xlink:href="#DejaVuSans-72"/>
      <use x="278.808594" xlink:href="#DejaVuSans-20"/>
      <use x="310.595703" xlink:href="#DejaVuSans-31"/>
      <use x="374.21875" xlink:href="#DejaVuSans-20"/>
      <use x="406.005859" xlink:href="#DejaVuSans-66"/>
     </g>
    </g>
   </g>
   <g id="matplotlib.axis_2">
    <g id="ytick_1">
     <g id="line2d_11">
      <defs>
       <path d="M 0 0 
L -3.5 0 
" id="mbfbe33fd25" style="stroke:#000000;stroke-width:0.8;"/>
      </defs>
      <g>
       <use style="stroke:#000000;stroke-width:0.8;" x="126" xlink:href="#mbfbe33fd25" y="739.443296"/>
      </g>
     </g>
     <g id="text_4">
      <!-- $\mathdefault{10^{1}}$ -->
      <g transform="translate(66.2 750.840952)scale(0.3 -0.3)">
       <use transform="translate(0 0.684375)" xlink:href="#DejaVuSans-31"/>
       <use transform="translate(63.623047 0.684375)" xlink:href="#DejaVuSans-30"/>
       <use transform="translate(128.203125 38.965625)scale(0.7)" xlink:href="#DejaVuSans-31"/>
      </g>
     </g>
    </g>
    <g id="ytick_2">
     <g id="line2d_12">
      <g>
       <use style="stroke:#000000;stroke-width:0.8;" x="126" xlink:href="#mbfbe33fd25" y="584.981766"/>
      </g>
     </g>
     <g id="text_5">
      <!-- $\mathdefault{10^{2}}$ -->
      <g transform="translate(66.2 596.379422)scale(0.3 -0.3)">
       <defs>
        <path d="M 1228 531 
L 3431 531 
L 3431 0 
L 469 0 
L 469 531 
Q 828 903 1448 1529 
Q 2069 2156 2228 2338 
Q 2531 2678 2651 2914 
Q 2772 3150 2772 3378 
Q 2772 3750 2511 3984 
Q 2250 4219 1831 4219 
Q 1534 4219 1204 4116 
Q 875 4013 500 3803 
L 500 4441 
Q 881 4594 1212 4672 
Q 1544 4750 1819 4750 
Q 2544 4750 2975 4387 
Q 3406 4025 3406 3419 
Q 3406 3131 3298 2873 
Q 3191 2616 2906 2266 
Q 2828 2175 2409 1742 
Q 1991 1309 1228 531 
z
" id="DejaVuSans-32" transform="scale(0.015625)"/>
       </defs>
       <use transform="translate(0 0.765625)" xlink:href="#DejaVuSans-31"/>
       <use transform="translate(63.623047 0.765625)" xlink:href="#DejaVuSans-30"/>
       <use transform="translate(128.203125 39.046875)scale(0.7)" xlink:href="#DejaVuSans-32"/>
      </g>
     </g>
    </g>
    <g id="ytick_3">
     <g id="line2d_13">
      <g>
       <use style="stroke:#000000;stroke-width:0.8;" x="126" xlink:href="#mbfbe33fd25" y="430.520235"/>
      </g>
     </g>
     <g id="text_6">
      <!-- $\mathdefault{10^{3}}$ -->
      <g transform="translate(66.2 441.917892)scale(0.3 -0.3)">
       <defs>
        <path d="M 2597 2516 
Q 3050 2419 3304 2112 
Q 3559 1806 3559 1356 
Q 3559 666 3084 287 
Q 2609 -91 1734 -91 
Q 1441 -91 1130 -33 
Q 819 25 488 141 
L 488 750 
Q 750 597 1062 519 
Q 1375 441 1716 441 
Q 2309 441 2620 675 
Q 2931 909 2931 1356 
Q 2931 1769 2642 2001 
Q 2353 2234 1838 2234 
L 1294 2234 
L 1294 2753 
L 1863 2753 
Q 2328 2753 2575 2939 
Q 2822 3125 2822 3475 
Q 2822 3834 2567 4026 
Q 2313 4219 1838 4219 
Q 1578 4219 1281 4162 
Q 984 4106 628 3988 
L 628 4550 
Q 988 4650 1302 4700 
Q 1616 4750 1894 4750 
Q 2613 4750 3031 4423 
Q 3450 4097 3450 3541 
Q 3450 3153 3228 2886 
Q 3006 2619 2597 2516 
z
" id="DejaVuSans-33" transform="scale(0.015625)"/>
       </defs>
       <use transform="translate(0 0.765625)" xlink:href="#DejaVuSans-31"/>
       <use transform="translate(63.623047 0.765625)" xlink:href="#DejaVuSans-30"/>
       <use transform="translate(128.203125 39.046875)scale(0.7)" xlink:href="#DejaVuSans-33"/>
      </g>
     </g>
    </g>
    <g id="ytick_4">
     <g id="line2d_14">
      <g>
       <use style="stroke:#000000;stroke-width:0.8;" x="126" xlink:href="#mbfbe33fd25" y="276.058705"/>
      </g>
     </g>
     <g id="text_7">
      <!-- $\mathdefault{10^{4}}$ -->
      <g transform="translate(66.2 287.456361)scale(0.3 -0.3)">
       <defs>
        <path d="M 2419 4116 
L 825 1625 
L 2419 1625 
L 2419 4116 
z
M 2253 4666 
L 3047 4666 
L 3047 1625 
L 3713 1625 
L 3713 1100 
L 3047 1100 
L 3047 0 
L 2419 0 
L 2419 1100 
L 313 1100 
L 313 1709 
L 2253 4666 
z
" id="DejaVuSans-34" transform="scale(0.015625)"/>
       </defs>
       <use transform="translate(0 0.684375)" xlink:href="#DejaVuSans-31"/>
       <use transform="translate(63.623047 0.684375)" xlink:href="#DejaVuSans-30"/>
       <use transform="translate(128.203125 38.965625)scale(0.7)" xlink:href="#DejaVuSans-34"/>
      </g>
     </g>
    </g>
    <g id="ytick_5">
     <g id="line2d_15">
      <g>
       <use style="stroke:#000000;stroke-width:0.8;" x="126" xlink:href="#mbfbe33fd25" y="121.597175"/>
      </g>
     </g>
     <g id="text_8">
      <!-- $\mathdefault{10^{5}}$ -->
      <g transform="translate(66.2 132.994831)scale(0.3 -0.3)">
       <defs>
        <path d="M 691 4666 
L 3169 4666 
L 3169 4134 
L 1269 4134 
L 1269 2991 
Q 1406 3038 1543 3061 
Q 1681 3084 1819 3084 
Q 2600 3084 3056 2656 
Q 3513 2228 3513 1497 
Q 3513 744 3044 326 
Q 2575 -91 1722 -91 
Q 1428 -91 1123 -41 
Q 819 9 494 109 
L 494 744 
Q 775 591 1075 516 
Q 1375 441 1709 441 
Q 2250 441 2565 725 
Q 2881 1009 2881 1497 
Q 2881 1984 2565 2268 
Q 2250 2553 1709 2553 
Q 1456 2553 1204 2497 
Q 953 2441 691 2322 
L 691 4666 
z
" id="DejaVuSans-35" transform="scale(0.015625)"/>
       </defs>
       <use transform="translate(0 0.684375)" xlink:href="#DejaVuSans-31"/>
       <use transform="translate(63.623047 0.684375)" xlink:href="#DejaVuSans-30"/>
       <use transform="translate(128.203125 38.965625)scale(0.7)" xlink:href="#DejaVuSans-35"/>
      </g>
     </g>
    </g>
    <g id="ytick_6">
     <g id="line2d_16">
      <defs>
       <path d="M 0 0 
L -2 0 
" id="m3b59b20be8" style="stroke:#000000;stroke-width:0.6;"/>
      </defs>
      <g>
       <use style="stroke:#000000;stroke-width:0.6;" x="126" xlink:href="#m3b59b20be8" y="847.407273"/>
      </g>
     </g>
    </g>
    <g id="ytick_7">
     <g id="line2d_17">
      <g>
       <use style="stroke:#000000;stroke-width:0.6;" x="126" xlink:href="#m3b59b20be8" y="820.207947"/>
      </g>
     </g>
    </g>
    <g id="ytick_8">
     <g id="line2d_18">
      <g>
       <use style="stroke:#000000;stroke-width:0.6;" x="126" xlink:href="#m3b59b20be8" y="800.909719"/>
      </g>
     </g>
    </g>
    <g id="ytick_9">
     <g id="line2d_19">
      <g>
       <use style="stroke:#000000;stroke-width:0.6;" x="126" xlink:href="#m3b59b20be8" y="785.94085"/>
      </g>
     </g>
    </g>
    <g id="ytick_10">
     <g id="line2d_20">
      <g>
       <use style="stroke:#000000;stroke-width:0.6;" x="126" xlink:href="#m3b59b20be8" y="773.710394"/>
      </g>
     </g>
    </g>
    <g id="ytick_11">
     <g id="line2d_21">
      <g>
       <use style="stroke:#000000;stroke-width:0.6;" x="126" xlink:href="#m3b59b20be8" y="763.36969"/>
      </g>
     </g>
    </g>
    <g id="ytick_12">
     <g id="line2d_22">
      <g>
       <use style="stroke:#000000;stroke-width:0.6;" x="126" xlink:href="#m3b59b20be8" y="754.412165"/>
      </g>
     </g>
    </g>
    <g id="ytick_13">
     <g id="line2d_23">
      <g>
       <use style="stroke:#000000;stroke-width:0.6;" x="126" xlink:href="#m3b59b20be8" y="746.511068"/>
      </g>
     </g>
    </g>
    <g id="ytick_14">
     <g id="line2d_24">
      <g>
       <use style="stroke:#000000;stroke-width:0.6;" x="126" xlink:href="#m3b59b20be8" y="692.945742"/>
      </g>
     </g>
    </g>
    <g id="ytick_15">
     <g id="line2d_25">
      <g>
       <use style="stroke:#000000;stroke-width:0.6;" x="126" xlink:href="#m3b59b20be8" y="665.746417"/>
      </g>
     </g>
    </g>
    <g id="ytick_16">
     <g id="line2d_26">
      <g>
       <use style="stroke:#000000;stroke-width:0.6;" x="126" xlink:href="#m3b59b20be8" y="646.448189"/>
      </g>
     </g>
    </g>
    <g id="ytick_17">
     <g id="line2d_27">
      <g>
       <use style="stroke:#000000;stroke-width:0.6;" x="126" xlink:href="#m3b59b20be8" y="631.47932"/>
      </g>
     </g>
    </g>
    <g id="ytick_18">
     <g id="line2d_28">
      <g>
       <use style="stroke:#000000;stroke-width:0.6;" x="126" xlink:href="#m3b59b20be8" y="619.248863"/>
      </g>
     </g>
    </g>
    <g id="ytick_19">
     <g id="line2d_29">
      <g>
       <use style="stroke:#000000;stroke-width:0.6;" x="126" xlink:href="#m3b59b20be8" y="608.90816"/>
      </g>
     </g>
    </g>
    <g id="ytick_20">
     <g id="line2d_30">
      <g>
       <use style="stroke:#000000;stroke-width:0.6;" x="126" xlink:href="#m3b59b20be8" y="599.950635"/>
      </g>
     </g>
    </g>
    <g id="ytick_21">
     <g id="line2d_31">
      <g>
       <use style="stroke:#000000;stroke-width:0.6;" x="126" xlink:href="#m3b59b20be8" y="592.049538"/>
      </g>
     </g>
    </g>
    <g id="ytick_22">
     <g id="line2d_32">
      <g>
       <use style="stroke:#000000;stroke-width:0.6;" x="126" xlink:href="#m3b59b20be8" y="538.484212"/>
      </g>
     </g>
    </g>
    <g id="ytick_23">
     <g id="line2d_33">
      <g>
       <use style="stroke:#000000;stroke-width:0.6;" x="126" xlink:href="#m3b59b20be8" y="511.284887"/>
      </g>
     </g>
    </g>
    <g id="ytick_24">
     <g id="line2d_34">
      <g>
       <use style="stroke:#000000;stroke-width:0.6;" x="126" xlink:href="#m3b59b20be8" y="491.986658"/>
      </g>
     </g>
    </g>
    <g id="ytick_25">
     <g id="line2d_35">
      <g>
       <use style="stroke:#000000;stroke-width:0.6;" x="126" xlink:href="#m3b59b20be8" y="477.017789"/>
      </g>
     </g>
    </g>
    <g id="ytick_26">
     <g id="line2d_36">
      <g>
       <use style="stroke:#000000;stroke-width:0.6;" x="126" xlink:href="#m3b59b20be8" y="464.787333"/>
      </g>
     </g>
    </g>
    <g id="ytick_27">
     <g id="line2d_37">
      <g>
       <use style="stroke:#000000;stroke-width:0.6;" x="126" xlink:href="#m3b59b20be8" y="454.446629"/>
      </g>
     </g>
    </g>
    <g id="ytick_28">
     <g id="line2d_38">
      <g>
       <use style="stroke:#000000;stroke-width:0.6;" x="126" xlink:href="#m3b59b20be8" y="445.489104"/>
      </g>
     </g>
    </g>
    <g id="ytick_29">
     <g id="line2d_39">
      <g>
       <use style="stroke:#000000;stroke-width:0.6;" x="126" xlink:href="#m3b59b20be8" y="437.588007"/>
      </g>
     </g>
    </g>
    <g id="ytick_30">
     <g id="line2d_40">
      <g>
       <use style="stroke:#000000;stroke-width:0.6;" x="126" xlink:href="#m3b59b20be8" y="384.022682"/>
      </g>
     </g>
    </g>
    <g id="ytick_31">
     <g id="line2d_41">
      <g>
       <use style="stroke:#000000;stroke-width:0.6;" x="126" xlink:href="#m3b59b20be8" y="356.823356"/>
      </g>
     </g>
    </g>
    <g id="ytick_32">
     <g id="line2d_42">
      <g>
       <use style="stroke:#000000;stroke-width:0.6;" x="126" xlink:href="#m3b59b20be8" y="337.525128"/>
      </g>
     </g>
    </g>
    <g id="ytick_33">
     <g id="line2d_43">
      <g>
       <use style="stroke:#000000;stroke-width:0.6;" x="126" xlink:href="#m3b59b20be8" y="322.556259"/>
      </g>
     </g>
    </g>
    <g id="ytick_34">
     <g id="line2d_44">
      <g>
       <use style="stroke:#000000;stroke-width:0.6;" x="126" xlink:href="#m3b59b20be8" y="310.325802"/>
      </g>
     </g>
    </g>
    <g id="ytick_35">
     <g id="line2d_45">
      <g>
       <use style="stroke:#000000;stroke-width:0.6;" x="126" xlink:href="#m3b59b20be8" y="299.985099"/>
      </g>
     </g>
    </g>
    <g id="ytick_36">
     <g id="line2d_46">
      <g>
       <use style="stroke:#000000;stroke-width:0.6;" x="126" xlink:href="#m3b59b20be8" y="291.027574"/>
      </g>
     </g>
    </g>
    <g id="ytick_37">
     <g id="line2d_47">
      <g>
       <use style="stroke:#000000;stroke-width:0.6;" x="126" xlink:href="#m3b59b20be8" y="283.126477"/>
      </g>
     </g>
    </g>
    <g id="ytick_38">
     <g id="line2d_48">
      <g>
       <use style="stroke:#000000;stroke-width:0.6;" x="126" xlink:href="#m3b59b20be8" y="229.561151"/>
      </g>
     </g>
    </g>
    <g id="ytick_39">
     <g id="line2d_49">
      <g>
       <use style="stroke:#000000;stroke-width:0.6;" x="126" xlink:href="#m3b59b20be8" y="202.361826"/>
      </g>
     </g>
    </g>
    <g id="ytick_40">
     <g id="line2d_50">
      <g>
       <use style="stroke:#000000;stroke-width:0.6;" x="126" xlink:href="#m3b59b20be8" y="183.063597"/>
      </g>
     </g>
    </g>
    <g id="ytick_41">
     <g id="line2d_51">
      <g>
       <use style="stroke:#000000;stroke-width:0.6;" x="126" xlink:href="#m3b59b20be8" y="168.094728"/>
      </g>
     </g>
    </g>
    <g id="ytick_42">
     <g id="line2d_52">
      <g>
       <use style="stroke:#000000;stroke-width:0.6;" x="126" xlink:href="#m3b59b20be8" y="155.864272"/>
      </g>
     </g>
    </g>
    <g id="ytick_43">
     <g id="line2d_53">
      <g>
       <use style="stroke:#000000;stroke-width:0.6;" x="126" xlink:href="#m3b59b20be8" y="145.523568"/>
      </g>
     </g>
    </g>
    <g id="ytick_44">
     <g id="line2d_54">
      <g>
       <use style="stroke:#000000;stroke-width:0.6;" x="126" xlink:href="#m3b59b20be8" y="136.566044"/>
      </g>
     </g>
    </g>
    <g id="ytick_45">
     <g id="line2d_55">
      <g>
       <use style="stroke:#000000;stroke-width:0.6;" x="126" xlink:href="#m3b59b20be8" y="128.664947"/>
      </g>
     </g>
    </g>
    <g id="text_9">
     <!-- Events / Bin Width -->
     <g transform="translate(55.960938 639.156563)rotate(-90)scale(0.3 -0.3)">
      <defs>
       <path d="M 628 4666 
L 3578 4666 
L 3578 4134 
L 1259 4134 
L 1259 2753 
L 3481 2753 
L 3481 2222 
L 1259 2222 
L 1259 531 
L 3634 531 
L 3634 0 
L 628 0 
L 628 4666 
z
" id="DejaVuSans-45" transform="scale(0.015625)"/>
       <path d="M 191 3500 
L 800 3500 
L 1894 563 
L 2988 3500 
L 3597 3500 
L 2284 0 
L 1503 0 
L 191 3500 
z
" id="DejaVuSans-76" transform="scale(0.015625)"/>
       <path d="M 3513 2113 
L 3513 0 
L 2938 0 
L 2938 2094 
Q 2938 2591 2744 2837 
Q 2550 3084 2163 3084 
Q 1697 3084 1428 2787 
Q 1159 2491 1159 1978 
L 1159 0 
L 581 0 
L 581 3500 
L 1159 3500 
L 1159 2956 
Q 1366 3272 1645 3428 
Q 1925 3584 2291 3584 
Q 2894 3584 3203 3211 
Q 3513 2838 3513 2113 
z
" id="DejaVuSans-6e" transform="scale(0.015625)"/>
       <path d="M 1172 4494 
L 1172 3500 
L 2356 3500 
L 2356 3053 
L 1172 3053 
L 1172 1153 
Q 1172 725 1289 603 
Q 1406 481 1766 481 
L 2356 481 
L 2356 0 
L 1766 0 
Q 1100 0 847 248 
Q 594 497 594 1153 
L 594 3053 
L 172 3053 
L 172 3500 
L 594 3500 
L 594 4494 
L 1172 4494 
z
" id="DejaVuSans-74" transform="scale(0.015625)"/>
       <path d="M 2834 3397 
L 2834 2853 
Q 2591 2978 2328 3040 
Q 2066 3103 1784 3103 
Q 1356 3103 1142 2972 
Q 928 2841 928 2578 
Q 928 2378 1081 2264 
Q 1234 2150 1697 2047 
L 1894 2003 
Q 2506 1872 2764 1633 
Q 3022 1394 3022 966 
Q 3022 478 2636 193 
Q 2250 -91 1575 -91 
Q 1294 -91 989 -36 
Q 684 19 347 128 
L 347 722 
Q 666 556 975 473 
Q 1284 391 1588 391 
Q 1994 391 2212 530 
Q 2431 669 2431 922 
Q 2431 1156 2273 1281 
Q 2116 1406 1581 1522 
L 1381 1569 
Q 847 1681 609 1914 
Q 372 2147 372 2553 
Q 372 3047 722 3315 
Q 1072 3584 1716 3584 
Q 2034 3584 2315 3537 
Q 2597 3491 2834 3397 
z
" id="DejaVuSans-73" transform="scale(0.015625)"/>
       <path d="M 1625 4666 
L 2156 4666 
L 531 -594 
L 0 -594 
L 1625 4666 
z
" id="DejaVuSans-2f" transform="scale(0.015625)"/>
       <path d="M 1259 2228 
L 1259 519 
L 2272 519 
Q 2781 519 3026 730 
Q 3272 941 3272 1375 
Q 3272 1813 3026 2020 
Q 2781 2228 2272 2228 
L 1259 2228 
z
M 1259 4147 
L 1259 2741 
L 2194 2741 
Q 2656 2741 2882 2914 
Q 3109 3088 3109 3444 
Q 3109 3797 2882 3972 
Q 2656 4147 2194 4147 
L 1259 4147 
z
M 628 4666 
L 2241 4666 
Q 2963 4666 3353 4366 
Q 3744 4066 3744 3513 
Q 3744 3084 3544 2831 
Q 3344 2578 2956 2516 
Q 3422 2416 3680 2098 
Q 3938 1781 3938 1306 
Q 3938 681 3513 340 
Q 3088 0 2303 0 
L 628 0 
L 628 4666 
z
" id="DejaVuSans-42" transform="scale(0.015625)"/>
       <path d="M 603 3500 
L 1178 3500 
L 1178 0 
L 603 0 
L 603 3500 
z
M 603 4863 
L 1178 4863 
L 1178 4134 
L 603 4134 
L 603 4863 
z
" id="DejaVuSans-69" transform="scale(0.015625)"/>
       <path d="M 213 4666 
L 850 4666 
L 1831 722 
L 2809 4666 
L 3519 4666 
L 4500 722 
L 5478 4666 
L 6119 4666 
L 4947 0 
L 4153 0 
L 3169 4050 
L 2175 0 
L 1381 0 
L 213 4666 
z
" id="DejaVuSans-57" transform="scale(0.015625)"/>
       <path d="M 2906 2969 
L 2906 4863 
L 3481 4863 
L 3481 0 
L 2906 0 
L 2906 525 
Q 2725 213 2448 61 
Q 2172 -91 1784 -91 
Q 1150 -91 751 415 
Q 353 922 353 1747 
Q 353 2572 751 3078 
Q 1150 3584 1784 3584 
Q 2172 3584 2448 3432 
Q 2725 3281 2906 2969 
z
M 947 1747 
Q 947 1113 1208 752 
Q 1469 391 1925 391 
Q 2381 391 2643 752 
Q 2906 1113 2906 1747 
Q 2906 2381 2643 2742 
Q 2381 3103 1925 3103 
Q 1469 3103 1208 2742 
Q 947 2381 947 1747 
z
" id="DejaVuSans-64" transform="scale(0.015625)"/>
       <path d="M 3513 2113 
L 3513 0 
L 2938 0 
L 2938 2094 
Q 2938 2591 2744 2837 
Q 2550 3084 2163 3084 
Q 1697 3084 1428 2787 
Q 1159 2491 1159 1978 
L 1159 0 
L 581 0 
L 581 4863 
L 1159 4863 
L 1159 2956 
Q 1366 3272 1645 3428 
Q 1925 3584 2291 3584 
Q 2894 3584 3203 3211 
Q 3513 2838 3513 2113 
z
" id="DejaVuSans-68" transform="scale(0.015625)"/>
      </defs>
      <use xlink:href="#DejaVuSans-45"/>
      <use x="63.183594" xlink:href="#DejaVuSans-76"/>
      <use x="122.363281" xlink:href="#DejaVuSans-65"/>
      <use x="183.886719" xlink:href="#DejaVuSans-6e"/>
      <use x="247.265625" xlink:href="#DejaVuSans-74"/>
      <use x="286.474609" xlink:href="#DejaVuSans-73"/>
      <use x="338.574219" xlink:href="#DejaVuSans-20"/>
      <use x="370.361328" xlink:href="#DejaVuSans-2f"/>
      <use x="404.052734" xlink:href="#DejaVuSans-20"/>
      <use x="435.839844" xlink:href="#DejaVuSans-42"/>
      <use x="504.443359" xlink:href="#DejaVuSans-69"/>
      <use x="532.226562" xlink:href="#DejaVuSans-6e"/>
      <use x="595.605469" xlink:href="#DejaVuSans-20"/>
      <use x="627.392578" xlink:href="#DejaVuSans-57"/>
      <use x="724.019531" xlink:href="#DejaVuSans-69"/>
      <use x="751.802734" xlink:href="#DejaVuSans-64"/>
      <use x="815.279297" xlink:href="#DejaVuSans-74"/>
      <use x="854.488281" xlink:href="#DejaVuSans-68"/>
     </g>
    </g>
   </g>
   <g id="line2d_56">
    <path clip-path="url(#p5439ce1509)" d="M 161.509091 721.843432 
L 161.509091 721.843432 
L 161.509091 1009 
M 189.68049 1009 
L 189.68049 559.544535 
L 208.369485 559.544535 
L 208.369485 1009 
M 227.05848 1009 
L 227.05848 567.465639 
L 245.747476 567.465639 
L 245.747476 1009 
M 264.436471 1009 
L 264.436471 575.386743 
L 283.125466 575.386743 
L 283.125466 505.650416 
L 301.814461 505.650416 
L 301.814461 583.307847 
L 320.503456 583.307847 
L 320.503456 1009 
M 339.192452 1009 
L 339.192452 591.228951 
L 357.881447 591.228951 
L 357.881447 548.691949 
L 376.570442 548.691949 
L 376.570442 599.150055 
L 395.259437 599.150055 
L 395.259437 603.110607 
L 413.948433 603.110607 
L 413.948433 533.37428 
L 432.637428 533.37428 
L 432.637428 564.534158 
L 451.326423 564.534158 
L 451.326423 614.992263 
L 470.015418 614.992263 
L 470.015418 1009 
M 488.704413 1009 
L 488.704413 576.415814 
L 507.393409 576.415814 
L 507.393409 533.878812 
L 526.082404 533.878812 
L 526.082404 557.137592 
L 544.771399 557.137592 
L 544.771399 504.259887 
L 563.460394 504.259887 
L 563.460394 466.694181 
L 582.14939 466.694181 
L 582.14939 456.725913 
L 600.838385 456.725913 
L 600.838385 433.487139 
L 619.52738 433.487139 
L 619.52738 403.180594 
L 638.216375 403.180594 
L 638.216375 390.843881 
L 656.90537 390.843881 
L 656.90537 376.500027 
L 675.594366 376.500027 
L 675.594366 377.522221 
L 694.283361 377.522221 
L 694.283361 347.6001 
L 712.972356 347.6001 
L 712.972356 329.154922 
L 731.661351 329.154922 
L 731.661351 295.457239 
L 750.350346 295.457239 
L 750.350346 280.593641 
L 769.039342 280.593641 
L 769.039342 239.135726 
L 787.728337 239.135726 
L 787.728337 203.465351 
L 806.417332 203.465351 
L 806.417332 163.643753 
L 825.106327 163.643753 
L 825.106327 155.552727 
L 843.795323 155.552727 
L 843.795323 221.881323 
L 862.484318 221.881323 
L 862.484318 441.054136 
L 871.690909 441.054136 
L 871.690909 1009 
" style="fill:none;stroke:#00bfbf;stroke-linecap:square;stroke-width:4;"/>
   </g>
   <g id="line2d_57">
    <path clip-path="url(#p5439ce1509)" d="M 161.509091 712.243971 
L 161.509091 712.243971 
L 161.509091 505.125877 
L 170.991495 505.125877 
L 170.991495 555.583982 
L 189.68049 555.583982 
L 189.68049 559.544535 
L 208.369485 559.544535 
L 208.369485 1009 
M 227.05848 1009 
L 227.05848 567.465639 
L 245.747476 567.465639 
L 245.747476 571.426191 
L 264.436471 571.426191 
L 264.436471 575.386743 
L 283.125466 575.386743 
L 283.125466 579.347295 
L 301.814461 579.347295 
L 301.814461 1009 
M 320.503456 1009 
L 320.503456 494.273291 
L 339.192452 494.273291 
L 339.192452 1009 
M 357.881447 1009 
L 357.881447 487.225527 
L 376.570442 487.225527 
L 376.570442 599.150055 
L 395.259437 599.150055 
L 395.259437 1009 
M 432.637428 1009 
L 432.637428 611.031711 
L 451.326423 611.031711 
L 451.326423 507.028287 
L 470.015418 507.028287 
L 470.015418 618.952815 
L 488.704413 618.952815 
L 488.704413 1009 
M 507.393409 1009 
L 507.393409 553.17704 
L 526.082404 553.17704 
L 526.082404 557.137592 
L 544.771399 557.137592 
L 544.771399 588.29747 
L 563.460394 588.29747 
L 563.460394 545.760468 
L 582.14939 545.760468 
L 582.14939 512.180991 
L 600.838385 512.180991 
L 600.838385 526.482247 
L 619.52738 526.482247 
L 619.52738 464.647017 
L 638.216375 464.647017 
L 638.216375 472.936928 
L 656.90537 472.936928 
L 656.90537 430.399926 
L 675.594366 430.399926 
L 675.594366 401.448615 
L 694.283361 401.448615 
L 694.283361 370.868824 
L 712.972356 370.868824 
L 712.972356 356.978268 
L 731.661351 356.978268 
L 731.661351 344.359415 
L 750.350346 344.359415 
L 750.350346 319.348871 
L 769.039342 319.348871 
L 769.039342 279.239702 
L 787.728337 279.239702 
L 787.728337 238.456027 
L 806.417332 238.456027 
L 806.417332 192.738807 
L 825.106327 192.738807 
L 825.106327 168.871032 
L 843.795323 168.871032 
L 843.795323 184.088751 
L 862.484318 184.088751 
L 862.484318 191.941073 
L 871.690909 191.941073 
L 871.690909 746.511068 
L 871.690909 746.511068 
" style="fill:none;stroke:#bf00bf;stroke-linecap:square;stroke-width:4;"/>
   </g>
   <g id="line2d_58">
    <path clip-path="url(#p5439ce1509)" d="M 161.509091 597.481087 
L 161.509091 597.481087 
L 161.509091 1009 
M 189.68049 1009 
L 189.68049 485.847655 
L 208.369485 485.847655 
L 208.369485 1009 
M 264.436471 1009 
L 264.436471 575.386743 
L 283.125466 575.386743 
L 283.125466 1009 
M 301.814461 1009 
L 301.814461 536.810293 
L 320.503456 536.810293 
L 320.503456 479.304422 
L 339.192452 479.304422 
L 339.192452 498.233843 
L 357.881447 498.233843 
L 357.881447 487.225527 
L 376.570442 487.225527 
L 376.570442 525.453176 
L 395.259437 525.453176 
L 395.259437 482.916174 
L 413.948433 482.916174 
L 413.948433 499.107183 
L 432.637428 499.107183 
L 432.637428 450.176603 
L 451.326423 450.176603 
L 451.326423 424.93524 
L 470.015418 424.93524 
L 470.015418 446.89142 
L 488.704413 446.89142 
L 488.704413 456.221381 
L 507.393409 456.221381 
L 507.393409 425.914835 
L 526.082404 425.914835 
L 526.082404 426.602456 
L 544.771399 426.602456 
L 544.771399 404.437014 
L 563.460394 404.437014 
L 563.460394 391.298938 
L 582.14939 391.298938 
L 582.14939 375.127936 
L 600.838385 375.127936 
L 600.838385 381.620177 
L 619.52738 381.620177 
L 619.52738 364.689034 
L 638.216375 364.689034 
L 638.216375 366.786083 
L 656.90537 366.786083 
L 656.90537 351.678533 
L 675.594366 351.678533 
L 675.594366 323.765506 
L 694.283361 323.765506 
L 694.283361 332.631231 
L 712.972356 332.631231 
L 712.972356 319.527861 
L 731.661351 319.527861 
L 731.661351 289.36496 
L 750.350346 289.36496 
L 750.350346 270.661974 
L 769.039342 270.661974 
L 769.039342 242.767688 
L 787.728337 242.767688 
L 787.728337 208.79293 
L 806.417332 208.79293 
L 806.417332 184.582722 
L 825.106327 184.582722 
L 825.106327 186.780645 
L 843.795323 186.780645 
L 843.795323 189.534348 
L 862.484318 189.534348 
L 862.484318 265.60457 
L 871.690909 265.60457 
L 871.690909 847.407273 
L 871.690909 847.407273 
" style="fill:none;stroke:#bfbf00;stroke-linecap:square;stroke-width:4;"/>
   </g>
   <g id="patch_3">
    <path d="M 126 882 
L 126 120.96 
" style="fill:none;stroke:#000000;stroke-linecap:square;stroke-linejoin:miter;stroke-width:0.8;"/>
   </g>
   <g id="patch_4">
    <path d="M 907.2 882 
L 907.2 120.96 
" style="fill:none;stroke:#000000;stroke-linecap:square;stroke-linejoin:miter;stroke-width:0.8;"/>
   </g>
   <g id="patch_5">
    <path d="M 126 882 
L 907.2 882 
" style="fill:none;stroke:#000000;stroke-linecap:square;stroke-linejoin:miter;stroke-width:0.8;"/>
   </g>
   <g id="patch_6">
    <path d="M 126 120.96 
L 907.2 120.96 
" style="fill:none;stroke:#000000;stroke-linecap:square;stroke-linejoin:miter;stroke-width:0.8;"/>
   </g>
   <g id="legend_1">
    <g id="patch_7">
     <path d="M 342.4 225.069375 
L 690.8 225.069375 
Q 694.8 225.069375 694.8 221.069375 
L 694.8 134.96 
Q 694.8 130.96 690.8 130.96 
L 342.4 130.96 
Q 338.4 130.96 338.4 134.96 
L 338.4 221.069375 
Q 338.4 225.069375 342.4 225.069375 
z
" style="fill:#ffffff;opacity:0.8;stroke:#cccccc;stroke-linejoin:miter;"/>
    </g>
    <g id="line2d_59">
     <path d="M 346.4 147.156875 
L 386.4 147.156875 
" style="fill:none;stroke:#00bfbf;stroke-linecap:square;stroke-width:4;"/>
    </g>
    <g id="line2d_60"/>
    <g id="text_10">
     <!-- $e^{+}$ DVAE -->
     <g transform="translate(402.4 154.156875)scale(0.2 -0.2)">
      <defs>
       <path d="M 3078 2063 
Q 3088 2113 3092 2166 
Q 3097 2219 3097 2272 
Q 3097 2653 2873 2875 
Q 2650 3097 2266 3097 
Q 1838 3097 1509 2826 
Q 1181 2556 1013 2059 
L 3078 2063 
z
M 3578 1613 
L 903 1613 
Q 884 1494 878 1425 
Q 872 1356 872 1306 
Q 872 872 1139 634 
Q 1406 397 1894 397 
Q 2269 397 2603 481 
Q 2938 566 3225 728 
L 3116 159 
Q 2806 34 2476 -28 
Q 2147 -91 1806 -91 
Q 1078 -91 686 257 
Q 294 606 294 1247 
Q 294 1794 489 2264 
Q 684 2734 1063 3103 
Q 1306 3334 1642 3459 
Q 1978 3584 2356 3584 
Q 2950 3584 3301 3228 
Q 3653 2872 3653 2272 
Q 3653 2128 3634 1964 
Q 3616 1800 3578 1613 
z
" id="DejaVuSans-Oblique-65" transform="scale(0.015625)"/>
       <path d="M 2944 4013 
L 2944 2272 
L 4684 2272 
L 4684 1741 
L 2944 1741 
L 2944 0 
L 2419 0 
L 2419 1741 
L 678 1741 
L 678 2272 
L 2419 2272 
L 2419 4013 
L 2944 4013 
z
" id="DejaVuSans-2b" transform="scale(0.015625)"/>
       <path d="M 1259 4147 
L 1259 519 
L 2022 519 
Q 2988 519 3436 956 
Q 3884 1394 3884 2338 
Q 3884 3275 3436 3711 
Q 2988 4147 2022 4147 
L 1259 4147 
z
M 628 4666 
L 1925 4666 
Q 3281 4666 3915 4102 
Q 4550 3538 4550 2338 
Q 4550 1131 3912 565 
Q 3275 0 1925 0 
L 628 0 
L 628 4666 
z
" id="DejaVuSans-44" transform="scale(0.015625)"/>
       <path d="M 1831 0 
L 50 4666 
L 709 4666 
L 2188 738 
L 3669 4666 
L 4325 4666 
L 2547 0 
L 1831 0 
z
" id="DejaVuSans-56" transform="scale(0.015625)"/>
       <path d="M 2188 4044 
L 1331 1722 
L 3047 1722 
L 2188 4044 
z
M 1831 4666 
L 2547 4666 
L 4325 0 
L 3669 0 
L 3244 1197 
L 1141 1197 
L 716 0 
L 50 0 
L 1831 4666 
z
" id="DejaVuSans-41" transform="scale(0.015625)"/>
      </defs>
      <use transform="translate(0 0.826562)" xlink:href="#DejaVuSans-Oblique-65"/>
      <use transform="translate(66.173333 39.107812)scale(0.7)" xlink:href="#DejaVuSans-2b"/>
      <use transform="translate(127.560052 0.826562)" xlink:href="#DejaVuSans-20"/>
      <use transform="translate(159.347161 0.826562)" xlink:href="#DejaVuSans-44"/>
      <use transform="translate(236.349115 0.826562)" xlink:href="#DejaVuSans-56"/>
      <use transform="translate(304.757318 0.826562)" xlink:href="#DejaVuSans-41"/>
      <use transform="translate(373.165521 0.826562)" xlink:href="#DejaVuSans-45"/>
     </g>
    </g>
    <g id="line2d_61">
     <path d="M 346.4 176.513125 
L 386.4 176.513125 
" style="fill:none;stroke:#bf00bf;stroke-linecap:square;stroke-width:4;"/>
    </g>
    <g id="line2d_62"/>
    <g id="text_11">
     <!-- $\gamma$   DVAE -->
     <g transform="translate(402.4 183.513125)scale(0.2 -0.2)">
      <defs>
       <path d="M 1491 2950 
L 1838 788 
L 3456 3500 
L 4066 3500 
L 1972 0 
L 1713 -1331 
L 1138 -1331 
L 1397 0 
L 988 2613 
Q 925 3006 628 3006 
L 475 3006 
L 569 3500 
L 788 3500 
Q 1403 3500 1491 2950 
z
" id="DejaVuSans-Oblique-3b3" transform="scale(0.015625)"/>
      </defs>
      <use transform="translate(0 0.09375)" xlink:href="#DejaVuSans-Oblique-3b3"/>
      <use transform="translate(59.179688 0.09375)" xlink:href="#DejaVuSans-20"/>
      <use transform="translate(90.966797 0.09375)" xlink:href="#DejaVuSans-20"/>
      <use transform="translate(122.753906 0.09375)" xlink:href="#DejaVuSans-20"/>
      <use transform="translate(154.541016 0.09375)" xlink:href="#DejaVuSans-44"/>
      <use transform="translate(231.542969 0.09375)" xlink:href="#DejaVuSans-56"/>
      <use transform="translate(299.951172 0.09375)" xlink:href="#DejaVuSans-41"/>
      <use transform="translate(368.359375 0.09375)" xlink:href="#DejaVuSans-45"/>
     </g>
    </g>
    <g id="line2d_63">
     <path d="M 346.4 205.91 
L 386.4 205.91 
" style="fill:none;stroke:#bfbf00;stroke-linecap:square;stroke-width:4;"/>
    </g>
    <g id="line2d_64"/>
    <g id="text_12">
     <!-- $\pi^{+}$ DVAE -->
     <g transform="translate(402.4 212.91)scale(0.2 -0.2)">
      <defs>
       <path d="M 584 3500 
L 3938 3500 
L 3825 2925 
L 3384 2925 
L 2966 775 
Q 2922 550 2981 450 
Q 3038 353 3209 353 
Q 3256 353 3325 363 
Q 3397 369 3419 372 
L 3338 -44 
Q 3222 -84 3103 -103 
Q 2981 -122 2866 -122 
Q 2491 -122 2388 81 
Q 2284 288 2391 838 
L 2797 2925 
L 1506 2925 
L 938 0 
L 350 0 
L 919 2925 
L 472 2925 
L 584 3500 
z
" id="DejaVuSans-Oblique-3c0" transform="scale(0.015625)"/>
      </defs>
      <use transform="translate(0 0.826562)" xlink:href="#DejaVuSans-Oblique-3c0"/>
      <use transform="translate(64.671224 39.107812)scale(0.7)" xlink:href="#DejaVuSans-2b"/>
      <use transform="translate(126.057943 0.826562)" xlink:href="#DejaVuSans-20"/>
      <use transform="translate(157.845052 0.826562)" xlink:href="#DejaVuSans-44"/>
      <use transform="translate(234.847005 0.826562)" xlink:href="#DejaVuSans-56"/>
      <use transform="translate(303.255208 0.826562)" xlink:href="#DejaVuSans-41"/>
      <use transform="translate(371.663411 0.826562)" xlink:href="#DejaVuSans-45"/>
     </g>
    </g>
    <g id="patch_8">
     <path d="M 529.8 154.156875 
L 569.8 154.156875 
L 569.8 140.156875 
L 529.8 140.156875 
z
" style="fill:#00bfbf;opacity:0.4;stroke:#00bfbf;stroke-linejoin:miter;"/>
    </g>
    <g id="text_13">
     <!-- $e^{+}$ GEANT -->
     <g transform="translate(585.8 154.156875)scale(0.2 -0.2)">
      <defs>
       <path d="M 3809 666 
L 3809 1919 
L 2778 1919 
L 2778 2438 
L 4434 2438 
L 4434 434 
Q 4069 175 3628 42 
Q 3188 -91 2688 -91 
Q 1594 -91 976 548 
Q 359 1188 359 2328 
Q 359 3472 976 4111 
Q 1594 4750 2688 4750 
Q 3144 4750 3555 4637 
Q 3966 4525 4313 4306 
L 4313 3634 
Q 3963 3931 3569 4081 
Q 3175 4231 2741 4231 
Q 1884 4231 1454 3753 
Q 1025 3275 1025 2328 
Q 1025 1384 1454 906 
Q 1884 428 2741 428 
Q 3075 428 3337 486 
Q 3600 544 3809 666 
z
" id="DejaVuSans-47" transform="scale(0.015625)"/>
       <path d="M 628 4666 
L 1478 4666 
L 3547 763 
L 3547 4666 
L 4159 4666 
L 4159 0 
L 3309 0 
L 1241 3903 
L 1241 0 
L 628 0 
L 628 4666 
z
" id="DejaVuSans-4e" transform="scale(0.015625)"/>
       <path d="M -19 4666 
L 3928 4666 
L 3928 4134 
L 2272 4134 
L 2272 0 
L 1638 0 
L 1638 4134 
L -19 4134 
L -19 4666 
z
" id="DejaVuSans-54" transform="scale(0.015625)"/>
      </defs>
      <use transform="translate(0 0.826562)" xlink:href="#DejaVuSans-Oblique-65"/>
      <use transform="translate(66.173333 39.107812)scale(0.7)" xlink:href="#DejaVuSans-2b"/>
      <use transform="translate(127.560052 0.826562)" xlink:href="#DejaVuSans-20"/>
      <use transform="translate(159.347161 0.826562)" xlink:href="#DejaVuSans-47"/>
      <use transform="translate(236.837396 0.826562)" xlink:href="#DejaVuSans-45"/>
      <use transform="translate(300.02099 0.826562)" xlink:href="#DejaVuSans-41"/>
      <use transform="translate(368.429193 0.826562)" xlink:href="#DejaVuSans-4e"/>
      <use transform="translate(443.23388 0.826562)" xlink:href="#DejaVuSans-54"/>
     </g>
    </g>
    <g id="patch_9">
     <path d="M 529.8 183.513125 
L 569.8 183.513125 
L 569.8 169.513125 
L 529.8 169.513125 
z
" style="fill:#bf00bf;opacity:0.4;stroke:#bf00bf;stroke-linejoin:miter;"/>
    </g>
    <g id="text_14">
     <!-- $\gamma$   GEANT -->
     <g transform="translate(585.8 183.513125)scale(0.2 -0.2)">
      <use transform="translate(0 0.78125)" xlink:href="#DejaVuSans-Oblique-3b3"/>
      <use transform="translate(59.179688 0.78125)" xlink:href="#DejaVuSans-20"/>
      <use transform="translate(90.966797 0.78125)" xlink:href="#DejaVuSans-20"/>
      <use transform="translate(122.753906 0.78125)" xlink:href="#DejaVuSans-20"/>
      <use transform="translate(154.541016 0.78125)" xlink:href="#DejaVuSans-47"/>
      <use transform="translate(232.03125 0.78125)" xlink:href="#DejaVuSans-45"/>
      <use transform="translate(295.214844 0.78125)" xlink:href="#DejaVuSans-41"/>
      <use transform="translate(363.623047 0.78125)" xlink:href="#DejaVuSans-4e"/>
      <use transform="translate(438.427734 0.78125)" xlink:href="#DejaVuSans-54"/>
     </g>
    </g>
    <g id="patch_10">
     <path d="M 529.8 212.91 
L 569.8 212.91 
L 569.8 198.91 
L 529.8 198.91 
z
" style="fill:#bfbf00;opacity:0.4;stroke:#bfbf00;stroke-linejoin:miter;"/>
    </g>
    <g id="text_15">
     <!-- $\pi^{+}$ GEANT -->
     <g transform="translate(585.8 212.91)scale(0.2 -0.2)">
      <use transform="translate(0 0.826562)" xlink:href="#DejaVuSans-Oblique-3c0"/>
      <use transform="translate(64.671224 39.107812)scale(0.7)" xlink:href="#DejaVuSans-2b"/>
      <use transform="translate(126.057943 0.826562)" xlink:href="#DejaVuSans-20"/>
      <use transform="translate(157.845052 0.826562)" xlink:href="#DejaVuSans-47"/>
      <use transform="translate(235.335286 0.826562)" xlink:href="#DejaVuSans-45"/>
      <use transform="translate(298.51888 0.826562)" xlink:href="#DejaVuSans-41"/>
      <use transform="translate(366.927083 0.826562)" xlink:href="#DejaVuSans-4e"/>
      <use transform="translate(441.731771 0.826562)" xlink:href="#DejaVuSans-54"/>
     </g>
    </g>
   </g>
  </g>
 </g>
 <defs>
  <clipPath id="p5439ce1509">
   <rect height="761.04" width="781.2" x="126" y="120.96"/>
  </clipPath>
 </defs>
</svg>
