<?xml version="1.0" encoding="utf-8" standalone="no"?>
<!DOCTYPE svg PUBLIC "-//W3C//DTD SVG 1.1//EN"
  "http://www.w3.org/Graphics/SVG/1.1/DTD/svg11.dtd">
<svg height="1008pt" version="1.1" viewBox="0 0 1008 1008" width="1008pt" xmlns="http://www.w3.org/2000/svg" xmlns:xlink="http://www.w3.org/1999/xlink">
 <metadata>
  <rdf:RDF xmlns:cc="http://creativecommons.org/ns#" xmlns:dc="http://purl.org/dc/elements/1.1/" xmlns:rdf="http://www.w3.org/1999/02/22-rdf-syntax-ns#">
   <cc:Work>
    <dc:type rdf:resource="http://purl.org/dc/dcmitype/StillImage"/>
    <dc:date>2021-09-27T15:02:18.667151</dc:date>
    <dc:format>image/svg+xml</dc:format>
    <dc:creator>
     <cc:Agent>
      <dc:title>Matplotlib v3.4.2, https://matplotlib.org/</dc:title>
     </cc:Agent>
    </dc:creator>
   </cc:Work>
  </rdf:RDF>
 </metadata>
 <defs>
  <style type="text/css">*{stroke-linecap:butt;stroke-linejoin:round;}</style>
 </defs>
 <g id="figure_1">
  <g id="patch_1">
   <path d="M 0 1008 
L 1008 1008 
L 1008 0 
L 0 0 
z
" style="fill:none;"/>
  </g>
  <g id="axes_1">
   <g id="patch_2">
    <path d="M 126 882 
L 907.2 882 
L 907.2 120.96 
L 126 120.96 
z
" style="fill:#ffffff;"/>
   </g>
   <g id="PolyCollection_1">
    <path clip-path="url(#p72dacf92e2)" d="M 161.509091 114498.508454 
L 161.509091 648.173132 
L 161.509091 648.173132 
L 161.509091 235.766521 
L 171.404016 235.766521 
L 171.404016 243.758988 
L 190.093012 243.758988 
L 190.093012 237.000149 
L 208.782007 237.000149 
L 208.782007 232.868135 
L 227.471002 232.868135 
L 227.471002 220.031511 
L 246.159997 220.031511 
L 246.159997 215.649112 
L 264.848992 215.649112 
L 264.848992 202.622 
L 283.537988 202.622 
L 283.537988 193.495365 
L 302.226983 193.495365 
L 302.226983 179.397346 
L 320.915978 179.397346 
L 320.915978 170.181252 
L 339.604973 170.181252 
L 339.604973 170.465234 
L 358.293968 170.465234 
L 358.293968 181.796525 
L 376.982964 181.796525 
L 376.982964 202.8601 
L 395.671959 202.8601 
L 395.671959 235.956452 
L 414.360954 235.956452 
L 414.360954 275.960984 
L 433.049949 275.960984 
L 433.049949 315.418322 
L 451.738945 315.418322 
L 451.738945 365.076643 
L 470.42794 365.076643 
L 470.42794 400.223697 
L 489.116935 400.223697 
L 489.116935 452.187191 
L 507.80593 452.187191 
L 507.80593 498.020372 
L 526.494925 498.020372 
L 526.494925 561.031898 
L 545.183921 561.031898 
L 545.183921 565.076691 
L 563.872916 565.076691 
L 563.872916 604.324158 
L 582.561911 604.324158 
L 582.561911 630.159964 
L 601.250906 630.159964 
L 601.250906 661.804781 
L 619.939901 661.804781 
L 619.939901 114498.508454 
L 638.628897 114498.508454 
L 638.628897 114498.508454 
L 657.317892 114498.508454 
L 657.317892 730.932847 
L 676.006887 730.932847 
L 676.006887 114498.508454 
L 694.695882 114498.508454 
L 694.695882 114498.508454 
L 713.384878 114498.508454 
L 713.384878 114498.508454 
L 732.073873 114498.508454 
L 732.073873 114498.508454 
L 750.762868 114498.508454 
L 750.762868 114498.508454 
L 769.451863 114498.508454 
L 769.451863 114498.508454 
L 788.140858 114498.508454 
L 788.140858 114498.508454 
L 806.829854 114498.508454 
L 806.829854 114498.508454 
L 825.518849 114498.508454 
L 825.518849 114498.508454 
L 844.207844 114498.508454 
L 844.207844 114498.508454 
L 862.896839 114498.508454 
L 862.896839 114498.508454 
L 871.690909 114498.508454 
L 871.690909 114498.508454 
L 871.690909 114498.508454 
L 871.690909 114498.508454 
L 871.690909 114498.508454 
L 871.690909 114498.508454 
L 871.690909 114498.508454 
L 862.896839 114498.508454 
L 862.896839 114498.508454 
L 844.207844 114498.508454 
L 844.207844 114498.508454 
L 825.518849 114498.508454 
L 825.518849 114498.508454 
L 806.829854 114498.508454 
L 806.829854 114498.508454 
L 788.140858 114498.508454 
L 788.140858 114498.508454 
L 769.451863 114498.508454 
L 769.451863 114498.508454 
L 750.762868 114498.508454 
L 750.762868 114498.508454 
L 732.073873 114498.508454 
L 732.073873 114498.508454 
L 713.384878 114498.508454 
L 713.384878 114498.508454 
L 694.695882 114498.508454 
L 694.695882 114498.508454 
L 676.006887 114498.508454 
L 676.006887 114498.508454 
L 657.317892 114498.508454 
L 657.317892 114498.508454 
L 638.628897 114498.508454 
L 638.628897 114498.508454 
L 619.939901 114498.508454 
L 619.939901 114498.508454 
L 601.250906 114498.508454 
L 601.250906 114498.508454 
L 582.561911 114498.508454 
L 582.561911 114498.508454 
L 563.872916 114498.508454 
L 563.872916 114498.508454 
L 545.183921 114498.508454 
L 545.183921 114498.508454 
L 526.494925 114498.508454 
L 526.494925 114498.508454 
L 507.80593 114498.508454 
L 507.80593 114498.508454 
L 489.116935 114498.508454 
L 489.116935 114498.508454 
L 470.42794 114498.508454 
L 470.42794 114498.508454 
L 451.738945 114498.508454 
L 451.738945 114498.508454 
L 433.049949 114498.508454 
L 433.049949 114498.508454 
L 414.360954 114498.508454 
L 414.360954 114498.508454 
L 395.671959 114498.508454 
L 395.671959 114498.508454 
L 376.982964 114498.508454 
L 376.982964 114498.508454 
L 358.293968 114498.508454 
L 358.293968 114498.508454 
L 339.604973 114498.508454 
L 339.604973 114498.508454 
L 320.915978 114498.508454 
L 320.915978 114498.508454 
L 302.226983 114498.508454 
L 302.226983 114498.508454 
L 283.537988 114498.508454 
L 283.537988 114498.508454 
L 264.848992 114498.508454 
L 264.848992 114498.508454 
L 246.159997 114498.508454 
L 246.159997 114498.508454 
L 227.471002 114498.508454 
L 227.471002 114498.508454 
L 208.782007 114498.508454 
L 208.782007 114498.508454 
L 190.093012 114498.508454 
L 190.093012 114498.508454 
L 171.404016 114498.508454 
L 171.404016 114498.508454 
L 161.509091 114498.508454 
L 161.509091 114498.508454 
L 161.509091 114498.508454 
z
" style="fill:#00bfbf;fill-opacity:0.4;stroke:#00bfbf;stroke-opacity:0.4;"/>
   </g>
   <g id="PolyCollection_2">
    <path clip-path="url(#p72dacf92e2)" d="M 161.509091 114498.508454 
L 161.509091 661.693068 
L 161.509091 661.693068 
L 161.509091 237.047621 
L 171.404016 237.047621 
L 171.404016 242.598474 
L 190.093012 242.598474 
L 190.093012 247.803782 
L 208.782007 247.803782 
L 208.782007 239.790503 
L 227.471002 239.790503 
L 227.471002 237.418775 
L 246.159997 237.418775 
L 246.159997 228.228625 
L 264.848992 228.228625 
L 264.848992 216.862581 
L 283.537988 216.862581 
L 283.537988 208.234791 
L 302.226983 208.234791 
L 302.226983 197.101759 
L 320.915978 197.101759 
L 320.915978 187.346288 
L 339.604973 187.346288 
L 339.604973 181.988694 
L 358.293968 181.988694 
L 358.293968 185.154225 
L 376.982964 185.154225 
L 376.982964 201.025611 
L 395.671959 201.025611 
L 395.671959 223.890175 
L 414.360954 223.890175 
L 414.360954 249.649147 
L 433.049949 249.649147 
L 433.049949 276.833984 
L 451.738945 276.833984 
L 451.738945 322.164754 
L 470.42794 322.164754 
L 470.42794 358.343892 
L 489.116935 358.343892 
L 489.116935 385.28805 
L 507.80593 385.28805 
L 507.80593 425.478559 
L 526.494925 425.478559 
L 526.494925 468.715372 
L 545.183921 468.715372 
L 545.183921 510.893578 
L 563.872916 510.893578 
L 563.872916 564.329408 
L 582.561911 564.329408 
L 582.561911 570.780512 
L 601.250906 570.780512 
L 601.250906 641.807406 
L 619.939901 641.807406 
L 619.939901 628.261136 
L 638.628897 628.261136 
L 638.628897 719.285405 
L 657.317892 719.285405 
L 657.317892 114498.508454 
L 676.006887 114498.508454 
L 676.006887 114498.508454 
L 694.695882 114498.508454 
L 694.695882 114498.508454 
L 713.384878 114498.508454 
L 713.384878 114498.508454 
L 732.073873 114498.508454 
L 732.073873 114498.508454 
L 750.762868 114498.508454 
L 750.762868 114498.508454 
L 769.451863 114498.508454 
L 769.451863 114498.508454 
L 788.140858 114498.508454 
L 788.140858 114498.508454 
L 806.829854 114498.508454 
L 806.829854 114498.508454 
L 825.518849 114498.508454 
L 825.518849 114498.508454 
L 844.207844 114498.508454 
L 844.207844 114498.508454 
L 862.896839 114498.508454 
L 862.896839 114498.508454 
L 871.690909 114498.508454 
L 871.690909 114498.508454 
L 871.690909 114498.508454 
L 871.690909 114498.508454 
L 871.690909 114498.508454 
L 871.690909 114498.508454 
L 871.690909 114498.508454 
L 862.896839 114498.508454 
L 862.896839 114498.508454 
L 844.207844 114498.508454 
L 844.207844 114498.508454 
L 825.518849 114498.508454 
L 825.518849 114498.508454 
L 806.829854 114498.508454 
L 806.829854 114498.508454 
L 788.140858 114498.508454 
L 788.140858 114498.508454 
L 769.451863 114498.508454 
L 769.451863 114498.508454 
L 750.762868 114498.508454 
L 750.762868 114498.508454 
L 732.073873 114498.508454 
L 732.073873 114498.508454 
L 713.384878 114498.508454 
L 713.384878 114498.508454 
L 694.695882 114498.508454 
L 694.695882 114498.508454 
L 676.006887 114498.508454 
L 676.006887 114498.508454 
L 657.317892 114498.508454 
L 657.317892 114498.508454 
L 638.628897 114498.508454 
L 638.628897 114498.508454 
L 619.939901 114498.508454 
L 619.939901 114498.508454 
L 601.250906 114498.508454 
L 601.250906 114498.508454 
L 582.561911 114498.508454 
L 582.561911 114498.508454 
L 563.872916 114498.508454 
L 563.872916 114498.508454 
L 545.183921 114498.508454 
L 545.183921 114498.508454 
L 526.494925 114498.508454 
L 526.494925 114498.508454 
L 507.80593 114498.508454 
L 507.80593 114498.508454 
L 489.116935 114498.508454 
L 489.116935 114498.508454 
L 470.42794 114498.508454 
L 470.42794 114498.508454 
L 451.738945 114498.508454 
L 451.738945 114498.508454 
L 433.049949 114498.508454 
L 433.049949 114498.508454 
L 414.360954 114498.508454 
L 414.360954 114498.508454 
L 395.671959 114498.508454 
L 395.671959 114498.508454 
L 376.982964 114498.508454 
L 376.982964 114498.508454 
L 358.293968 114498.508454 
L 358.293968 114498.508454 
L 339.604973 114498.508454 
L 339.604973 114498.508454 
L 320.915978 114498.508454 
L 320.915978 114498.508454 
L 302.226983 114498.508454 
L 302.226983 114498.508454 
L 283.537988 114498.508454 
L 283.537988 114498.508454 
L 264.848992 114498.508454 
L 264.848992 114498.508454 
L 246.159997 114498.508454 
L 246.159997 114498.508454 
L 227.471002 114498.508454 
L 227.471002 114498.508454 
L 208.782007 114498.508454 
L 208.782007 114498.508454 
L 190.093012 114498.508454 
L 190.093012 114498.508454 
L 171.404016 114498.508454 
L 171.404016 114498.508454 
L 161.509091 114498.508454 
L 161.509091 114498.508454 
L 161.509091 114498.508454 
z
" style="fill:#bf00bf;fill-opacity:0.4;stroke:#bf00bf;stroke-opacity:0.4;"/>
   </g>
   <g id="PolyCollection_3">
    <path clip-path="url(#p72dacf92e2)" d="M 161.509091 114498.508454 
L 161.509091 775.255633 
L 161.509091 775.255633 
L 161.509091 348.080422 
L 171.404016 348.080422 
L 171.404016 359.727864 
L 190.093012 359.727864 
L 190.093012 385.56367 
L 208.782007 385.56367 
L 208.782007 355.422725 
L 227.471002 355.422725 
L 227.471002 394.670192 
L 246.159997 394.670192 
L 246.159997 406.317634 
L 264.848992 406.317634 
L 264.848992 432.15344 
L 283.537988 432.15344 
L 283.537988 402.012495 
L 302.226983 402.012495 
L 302.226983 387.076849 
L 320.915978 387.076849 
L 320.915978 452.907405 
L 339.604973 452.907405 
L 339.604973 436.954823 
L 358.293968 436.954823 
L 358.293968 431.011202 
L 376.982964 431.011202 
L 376.982964 399.48088 
L 395.671959 399.48088 
L 395.671959 428.135716 
L 414.360954 428.135716 
L 414.360954 411.770416 
L 433.049949 411.770416 
L 433.049949 423.417858 
L 451.738945 423.417858 
L 451.738945 391.207256 
L 470.42794 391.207256 
L 470.42794 397.120812 
L 489.116935 397.120812 
L 489.116935 397.522907 
L 507.80593 397.522907 
L 507.80593 389.977553 
L 526.494925 389.977553 
L 526.494925 391.40459 
L 545.183921 391.40459 
L 545.183921 387.562285 
L 563.872916 387.562285 
L 563.872916 386.986548 
L 582.561911 386.986548 
L 582.561911 395.5733 
L 601.250906 395.5733 
L 601.250906 395.346919 
L 619.939901 395.346919 
L 619.939901 404.927748 
L 638.628897 404.927748 
L 638.628897 399.240444 
L 657.317892 399.240444 
L 657.317892 381.500344 
L 676.006887 381.500344 
L 676.006887 372.875803 
L 694.695882 372.875803 
L 694.695882 420.465109 
L 713.384878 420.465109 
L 713.384878 453.520387 
L 732.073873 453.520387 
L 732.073873 482.149464 
L 750.762868 482.149464 
L 750.762868 502.419495 
L 769.451863 502.419495 
L 769.451863 518.85601 
L 788.140858 518.85601 
L 788.140858 532.153091 
L 806.829854 532.153091 
L 806.829854 544.989015 
L 825.518849 544.989015 
L 825.518849 551.888954 
L 844.207844 551.888954 
L 844.207844 565.283811 
L 862.896839 565.283811 
L 862.896839 674.714363 
L 871.690909 674.714363 
L 871.690909 114498.508454 
L 871.690909 114498.508454 
L 871.690909 114498.508454 
L 871.690909 114498.508454 
L 871.690909 114498.508454 
L 871.690909 114498.508454 
L 862.896839 114498.508454 
L 862.896839 114498.508454 
L 844.207844 114498.508454 
L 844.207844 114498.508454 
L 825.518849 114498.508454 
L 825.518849 114498.508454 
L 806.829854 114498.508454 
L 806.829854 114498.508454 
L 788.140858 114498.508454 
L 788.140858 114498.508454 
L 769.451863 114498.508454 
L 769.451863 114498.508454 
L 750.762868 114498.508454 
L 750.762868 114498.508454 
L 732.073873 114498.508454 
L 732.073873 114498.508454 
L 713.384878 114498.508454 
L 713.384878 114498.508454 
L 694.695882 114498.508454 
L 694.695882 114498.508454 
L 676.006887 114498.508454 
L 676.006887 114498.508454 
L 657.317892 114498.508454 
L 657.317892 114498.508454 
L 638.628897 114498.508454 
L 638.628897 114498.508454 
L 619.939901 114498.508454 
L 619.939901 114498.508454 
L 601.250906 114498.508454 
L 601.250906 114498.508454 
L 582.561911 114498.508454 
L 582.561911 114498.508454 
L 563.872916 114498.508454 
L 563.872916 114498.508454 
L 545.183921 114498.508454 
L 545.183921 114498.508454 
L 526.494925 114498.508454 
L 526.494925 114498.508454 
L 507.80593 114498.508454 
L 507.80593 114498.508454 
L 489.116935 114498.508454 
L 489.116935 114498.508454 
L 470.42794 114498.508454 
L 470.42794 114498.508454 
L 451.738945 114498.508454 
L 451.738945 114498.508454 
L 433.049949 114498.508454 
L 433.049949 114498.508454 
L 414.360954 114498.508454 
L 414.360954 114498.508454 
L 395.671959 114498.508454 
L 395.671959 114498.508454 
L 376.982964 114498.508454 
L 376.982964 114498.508454 
L 358.293968 114498.508454 
L 358.293968 114498.508454 
L 339.604973 114498.508454 
L 339.604973 114498.508454 
L 320.915978 114498.508454 
L 320.915978 114498.508454 
L 302.226983 114498.508454 
L 302.226983 114498.508454 
L 283.537988 114498.508454 
L 283.537988 114498.508454 
L 264.848992 114498.508454 
L 264.848992 114498.508454 
L 246.159997 114498.508454 
L 246.159997 114498.508454 
L 227.471002 114498.508454 
L 227.471002 114498.508454 
L 208.782007 114498.508454 
L 208.782007 114498.508454 
L 190.093012 114498.508454 
L 190.093012 114498.508454 
L 171.404016 114498.508454 
L 171.404016 114498.508454 
L 161.509091 114498.508454 
L 161.509091 114498.508454 
L 161.509091 114498.508454 
z
" style="fill:#bfbf00;fill-opacity:0.4;stroke:#bfbf00;stroke-opacity:0.4;"/>
   </g>
   <g id="matplotlib.axis_1">
    <g id="xtick_1">
     <g id="line2d_1">
      <defs>
       <path d="M 0 0 
L 0 3.5 
" id="mcb38e65301" style="stroke:#000000;stroke-width:0.8;"/>
      </defs>
      <g>
       <use style="stroke:#000000;stroke-width:0.8;" x="151.614165" xlink:href="#mcb38e65301" y="882"/>
      </g>
     </g>
     <g id="text_1">
      <!-- $\mathdefault{10^{-4}}$ -->
      <g transform="translate(116.364165 911.795313)scale(0.3 -0.3)">
       <defs>
        <path d="M 794 531 
L 1825 531 
L 1825 4091 
L 703 3866 
L 703 4441 
L 1819 4666 
L 2450 4666 
L 2450 531 
L 3481 531 
L 3481 0 
L 794 0 
L 794 531 
z
" id="DejaVuSans-31" transform="scale(0.015625)"/>
        <path d="M 2034 4250 
Q 1547 4250 1301 3770 
Q 1056 3291 1056 2328 
Q 1056 1369 1301 889 
Q 1547 409 2034 409 
Q 2525 409 2770 889 
Q 3016 1369 3016 2328 
Q 3016 3291 2770 3770 
Q 2525 4250 2034 4250 
z
M 2034 4750 
Q 2819 4750 3233 4129 
Q 3647 3509 3647 2328 
Q 3647 1150 3233 529 
Q 2819 -91 2034 -91 
Q 1250 -91 836 529 
Q 422 1150 422 2328 
Q 422 3509 836 4129 
Q 1250 4750 2034 4750 
z
" id="DejaVuSans-30" transform="scale(0.015625)"/>
        <path d="M 678 2272 
L 4684 2272 
L 4684 1741 
L 678 1741 
L 678 2272 
z
" id="DejaVuSans-2212" transform="scale(0.015625)"/>
        <path d="M 2419 4116 
L 825 1625 
L 2419 1625 
L 2419 4116 
z
M 2253 4666 
L 3047 4666 
L 3047 1625 
L 3713 1625 
L 3713 1100 
L 3047 1100 
L 3047 0 
L 2419 0 
L 2419 1100 
L 313 1100 
L 313 1709 
L 2253 4666 
z
" id="DejaVuSans-34" transform="scale(0.015625)"/>
       </defs>
       <use transform="translate(0 0.684375)" xlink:href="#DejaVuSans-31"/>
       <use transform="translate(63.623047 0.684375)" xlink:href="#DejaVuSans-30"/>
       <use transform="translate(128.203125 38.965625)scale(0.7)" xlink:href="#DejaVuSans-2212"/>
       <use transform="translate(186.855469 38.965625)scale(0.7)" xlink:href="#DejaVuSans-34"/>
      </g>
     </g>
    </g>
    <g id="xtick_2">
     <g id="line2d_2">
      <g>
       <use style="stroke:#000000;stroke-width:0.8;" x="333.831869" xlink:href="#mcb38e65301" y="882"/>
      </g>
     </g>
     <g id="text_2">
      <!-- $\mathdefault{10^{-3}}$ -->
      <g transform="translate(298.581869 911.795313)scale(0.3 -0.3)">
       <defs>
        <path d="M 2597 2516 
Q 3050 2419 3304 2112 
Q 3559 1806 3559 1356 
Q 3559 666 3084 287 
Q 2609 -91 1734 -91 
Q 1441 -91 1130 -33 
Q 819 25 488 141 
L 488 750 
Q 750 597 1062 519 
Q 1375 441 1716 441 
Q 2309 441 2620 675 
Q 2931 909 2931 1356 
Q 2931 1769 2642 2001 
Q 2353 2234 1838 2234 
L 1294 2234 
L 1294 2753 
L 1863 2753 
Q 2328 2753 2575 2939 
Q 2822 3125 2822 3475 
Q 2822 3834 2567 4026 
Q 2313 4219 1838 4219 
Q 1578 4219 1281 4162 
Q 984 4106 628 3988 
L 628 4550 
Q 988 4650 1302 4700 
Q 1616 4750 1894 4750 
Q 2613 4750 3031 4423 
Q 3450 4097 3450 3541 
Q 3450 3153 3228 2886 
Q 3006 2619 2597 2516 
z
" id="DejaVuSans-33" transform="scale(0.015625)"/>
       </defs>
       <use transform="translate(0 0.765625)" xlink:href="#DejaVuSans-31"/>
       <use transform="translate(63.623047 0.765625)" xlink:href="#DejaVuSans-30"/>
       <use transform="translate(128.203125 39.046875)scale(0.7)" xlink:href="#DejaVuSans-2212"/>
       <use transform="translate(186.855469 39.046875)scale(0.7)" xlink:href="#DejaVuSans-33"/>
      </g>
     </g>
    </g>
    <g id="xtick_3">
     <g id="line2d_3">
      <g>
       <use style="stroke:#000000;stroke-width:0.8;" x="516.049572" xlink:href="#mcb38e65301" y="882"/>
      </g>
     </g>
     <g id="text_3">
      <!-- $\mathdefault{10^{-2}}$ -->
      <g transform="translate(480.799572 911.795313)scale(0.3 -0.3)">
       <defs>
        <path d="M 1228 531 
L 3431 531 
L 3431 0 
L 469 0 
L 469 531 
Q 828 903 1448 1529 
Q 2069 2156 2228 2338 
Q 2531 2678 2651 2914 
Q 2772 3150 2772 3378 
Q 2772 3750 2511 3984 
Q 2250 4219 1831 4219 
Q 1534 4219 1204 4116 
Q 875 4013 500 3803 
L 500 4441 
Q 881 4594 1212 4672 
Q 1544 4750 1819 4750 
Q 2544 4750 2975 4387 
Q 3406 4025 3406 3419 
Q 3406 3131 3298 2873 
Q 3191 2616 2906 2266 
Q 2828 2175 2409 1742 
Q 1991 1309 1228 531 
z
" id="DejaVuSans-32" transform="scale(0.015625)"/>
       </defs>
       <use transform="translate(0 0.765625)" xlink:href="#DejaVuSans-31"/>
       <use transform="translate(63.623047 0.765625)" xlink:href="#DejaVuSans-30"/>
       <use transform="translate(128.203125 39.046875)scale(0.7)" xlink:href="#DejaVuSans-2212"/>
       <use transform="translate(186.855469 39.046875)scale(0.7)" xlink:href="#DejaVuSans-32"/>
      </g>
     </g>
    </g>
    <g id="xtick_4">
     <g id="line2d_4">
      <g>
       <use style="stroke:#000000;stroke-width:0.8;" x="698.267276" xlink:href="#mcb38e65301" y="882"/>
      </g>
     </g>
     <g id="text_4">
      <!-- $\mathdefault{10^{-1}}$ -->
      <g transform="translate(663.017276 911.795313)scale(0.3 -0.3)">
       <use transform="translate(0 0.684375)" xlink:href="#DejaVuSans-31"/>
       <use transform="translate(63.623047 0.684375)" xlink:href="#DejaVuSans-30"/>
       <use transform="translate(128.203125 38.965625)scale(0.7)" xlink:href="#DejaVuSans-2212"/>
       <use transform="translate(186.855469 38.965625)scale(0.7)" xlink:href="#DejaVuSans-31"/>
      </g>
     </g>
    </g>
    <g id="xtick_5">
     <g id="line2d_5">
      <g>
       <use style="stroke:#000000;stroke-width:0.8;" x="880.484979" xlink:href="#mcb38e65301" y="882"/>
      </g>
     </g>
     <g id="text_5">
      <!-- $\mathdefault{10^{0}}$ -->
      <g transform="translate(854.084979 911.795313)scale(0.3 -0.3)">
       <use transform="translate(0 0.765625)" xlink:href="#DejaVuSans-31"/>
       <use transform="translate(63.623047 0.765625)" xlink:href="#DejaVuSans-30"/>
       <use transform="translate(128.203125 39.046875)scale(0.7)" xlink:href="#DejaVuSans-30"/>
      </g>
     </g>
    </g>
    <g id="xtick_6">
     <g id="line2d_6">
      <defs>
       <path d="M 0 0 
L 0 2 
" id="mb7ac547419" style="stroke:#000000;stroke-width:0.6;"/>
      </defs>
      <g>
       <use style="stroke:#000000;stroke-width:0.6;" x="133.955445" xlink:href="#mb7ac547419" y="882"/>
      </g>
     </g>
    </g>
    <g id="xtick_7">
     <g id="line2d_7">
      <g>
       <use style="stroke:#000000;stroke-width:0.6;" x="143.276341" xlink:href="#mb7ac547419" y="882"/>
      </g>
     </g>
    </g>
    <g id="xtick_8">
     <g id="line2d_8">
      <g>
       <use style="stroke:#000000;stroke-width:0.6;" x="206.46716" xlink:href="#mb7ac547419" y="882"/>
      </g>
     </g>
    </g>
    <g id="xtick_9">
     <g id="line2d_9">
      <g>
       <use style="stroke:#000000;stroke-width:0.6;" x="238.554105" xlink:href="#mb7ac547419" y="882"/>
      </g>
     </g>
    </g>
    <g id="xtick_10">
     <g id="line2d_10">
      <g>
       <use style="stroke:#000000;stroke-width:0.6;" x="261.320154" xlink:href="#mb7ac547419" y="882"/>
      </g>
     </g>
    </g>
    <g id="xtick_11">
     <g id="line2d_11">
      <g>
       <use style="stroke:#000000;stroke-width:0.6;" x="278.978874" xlink:href="#mb7ac547419" y="882"/>
      </g>
     </g>
    </g>
    <g id="xtick_12">
     <g id="line2d_12">
      <g>
       <use style="stroke:#000000;stroke-width:0.6;" x="293.407099" xlink:href="#mb7ac547419" y="882"/>
      </g>
     </g>
    </g>
    <g id="xtick_13">
     <g id="line2d_13">
      <g>
       <use style="stroke:#000000;stroke-width:0.6;" x="305.605989" xlink:href="#mb7ac547419" y="882"/>
      </g>
     </g>
    </g>
    <g id="xtick_14">
     <g id="line2d_14">
      <g>
       <use style="stroke:#000000;stroke-width:0.6;" x="316.173149" xlink:href="#mb7ac547419" y="882"/>
      </g>
     </g>
    </g>
    <g id="xtick_15">
     <g id="line2d_15">
      <g>
       <use style="stroke:#000000;stroke-width:0.6;" x="325.494044" xlink:href="#mb7ac547419" y="882"/>
      </g>
     </g>
    </g>
    <g id="xtick_16">
     <g id="line2d_16">
      <g>
       <use style="stroke:#000000;stroke-width:0.6;" x="388.684863" xlink:href="#mb7ac547419" y="882"/>
      </g>
     </g>
    </g>
    <g id="xtick_17">
     <g id="line2d_17">
      <g>
       <use style="stroke:#000000;stroke-width:0.6;" x="420.771808" xlink:href="#mb7ac547419" y="882"/>
      </g>
     </g>
    </g>
    <g id="xtick_18">
     <g id="line2d_18">
      <g>
       <use style="stroke:#000000;stroke-width:0.6;" x="443.537858" xlink:href="#mb7ac547419" y="882"/>
      </g>
     </g>
    </g>
    <g id="xtick_19">
     <g id="line2d_19">
      <g>
       <use style="stroke:#000000;stroke-width:0.6;" x="461.196578" xlink:href="#mb7ac547419" y="882"/>
      </g>
     </g>
    </g>
    <g id="xtick_20">
     <g id="line2d_20">
      <g>
       <use style="stroke:#000000;stroke-width:0.6;" x="475.624803" xlink:href="#mb7ac547419" y="882"/>
      </g>
     </g>
    </g>
    <g id="xtick_21">
     <g id="line2d_21">
      <g>
       <use style="stroke:#000000;stroke-width:0.6;" x="487.823693" xlink:href="#mb7ac547419" y="882"/>
      </g>
     </g>
    </g>
    <g id="xtick_22">
     <g id="line2d_22">
      <g>
       <use style="stroke:#000000;stroke-width:0.6;" x="498.390852" xlink:href="#mb7ac547419" y="882"/>
      </g>
     </g>
    </g>
    <g id="xtick_23">
     <g id="line2d_23">
      <g>
       <use style="stroke:#000000;stroke-width:0.6;" x="507.711747" xlink:href="#mb7ac547419" y="882"/>
      </g>
     </g>
    </g>
    <g id="xtick_24">
     <g id="line2d_24">
      <g>
       <use style="stroke:#000000;stroke-width:0.6;" x="570.902567" xlink:href="#mb7ac547419" y="882"/>
      </g>
     </g>
    </g>
    <g id="xtick_25">
     <g id="line2d_25">
      <g>
       <use style="stroke:#000000;stroke-width:0.6;" x="602.989511" xlink:href="#mb7ac547419" y="882"/>
      </g>
     </g>
    </g>
    <g id="xtick_26">
     <g id="line2d_26">
      <g>
       <use style="stroke:#000000;stroke-width:0.6;" x="625.755561" xlink:href="#mb7ac547419" y="882"/>
      </g>
     </g>
    </g>
    <g id="xtick_27">
     <g id="line2d_27">
      <g>
       <use style="stroke:#000000;stroke-width:0.6;" x="643.414281" xlink:href="#mb7ac547419" y="882"/>
      </g>
     </g>
    </g>
    <g id="xtick_28">
     <g id="line2d_28">
      <g>
       <use style="stroke:#000000;stroke-width:0.6;" x="657.842506" xlink:href="#mb7ac547419" y="882"/>
      </g>
     </g>
    </g>
    <g id="xtick_29">
     <g id="line2d_29">
      <g>
       <use style="stroke:#000000;stroke-width:0.6;" x="670.041396" xlink:href="#mb7ac547419" y="882"/>
      </g>
     </g>
    </g>
    <g id="xtick_30">
     <g id="line2d_30">
      <g>
       <use style="stroke:#000000;stroke-width:0.6;" x="680.608556" xlink:href="#mb7ac547419" y="882"/>
      </g>
     </g>
    </g>
    <g id="xtick_31">
     <g id="line2d_31">
      <g>
       <use style="stroke:#000000;stroke-width:0.6;" x="689.929451" xlink:href="#mb7ac547419" y="882"/>
      </g>
     </g>
    </g>
    <g id="xtick_32">
     <g id="line2d_32">
      <g>
       <use style="stroke:#000000;stroke-width:0.6;" x="753.12027" xlink:href="#mb7ac547419" y="882"/>
      </g>
     </g>
    </g>
    <g id="xtick_33">
     <g id="line2d_33">
      <g>
       <use style="stroke:#000000;stroke-width:0.6;" x="785.207215" xlink:href="#mb7ac547419" y="882"/>
      </g>
     </g>
    </g>
    <g id="xtick_34">
     <g id="line2d_34">
      <g>
       <use style="stroke:#000000;stroke-width:0.6;" x="807.973264" xlink:href="#mb7ac547419" y="882"/>
      </g>
     </g>
    </g>
    <g id="xtick_35">
     <g id="line2d_35">
      <g>
       <use style="stroke:#000000;stroke-width:0.6;" x="825.631984" xlink:href="#mb7ac547419" y="882"/>
      </g>
     </g>
    </g>
    <g id="xtick_36">
     <g id="line2d_36">
      <g>
       <use style="stroke:#000000;stroke-width:0.6;" x="840.060209" xlink:href="#mb7ac547419" y="882"/>
      </g>
     </g>
    </g>
    <g id="xtick_37">
     <g id="line2d_37">
      <g>
       <use style="stroke:#000000;stroke-width:0.6;" x="852.259099" xlink:href="#mb7ac547419" y="882"/>
      </g>
     </g>
    </g>
    <g id="xtick_38">
     <g id="line2d_38">
      <g>
       <use style="stroke:#000000;stroke-width:0.6;" x="862.826259" xlink:href="#mb7ac547419" y="882"/>
      </g>
     </g>
    </g>
    <g id="xtick_39">
     <g id="line2d_39">
      <g>
       <use style="stroke:#000000;stroke-width:0.6;" x="872.147154" xlink:href="#mb7ac547419" y="882"/>
      </g>
     </g>
    </g>
    <g id="text_6">
     <!-- Layer 2 f -->
     <g transform="translate(450.417188 944.829687)scale(0.3 -0.3)">
      <defs>
       <path d="M 628 4666 
L 1259 4666 
L 1259 531 
L 3531 531 
L 3531 0 
L 628 0 
L 628 4666 
z
" id="DejaVuSans-4c" transform="scale(0.015625)"/>
       <path d="M 2194 1759 
Q 1497 1759 1228 1600 
Q 959 1441 959 1056 
Q 959 750 1161 570 
Q 1363 391 1709 391 
Q 2188 391 2477 730 
Q 2766 1069 2766 1631 
L 2766 1759 
L 2194 1759 
z
M 3341 1997 
L 3341 0 
L 2766 0 
L 2766 531 
Q 2569 213 2275 61 
Q 1981 -91 1556 -91 
Q 1019 -91 701 211 
Q 384 513 384 1019 
Q 384 1609 779 1909 
Q 1175 2209 1959 2209 
L 2766 2209 
L 2766 2266 
Q 2766 2663 2505 2880 
Q 2244 3097 1772 3097 
Q 1472 3097 1187 3025 
Q 903 2953 641 2809 
L 641 3341 
Q 956 3463 1253 3523 
Q 1550 3584 1831 3584 
Q 2591 3584 2966 3190 
Q 3341 2797 3341 1997 
z
" id="DejaVuSans-61" transform="scale(0.015625)"/>
       <path d="M 2059 -325 
Q 1816 -950 1584 -1140 
Q 1353 -1331 966 -1331 
L 506 -1331 
L 506 -850 
L 844 -850 
Q 1081 -850 1212 -737 
Q 1344 -625 1503 -206 
L 1606 56 
L 191 3500 
L 800 3500 
L 1894 763 
L 2988 3500 
L 3597 3500 
L 2059 -325 
z
" id="DejaVuSans-79" transform="scale(0.015625)"/>
       <path d="M 3597 1894 
L 3597 1613 
L 953 1613 
Q 991 1019 1311 708 
Q 1631 397 2203 397 
Q 2534 397 2845 478 
Q 3156 559 3463 722 
L 3463 178 
Q 3153 47 2828 -22 
Q 2503 -91 2169 -91 
Q 1331 -91 842 396 
Q 353 884 353 1716 
Q 353 2575 817 3079 
Q 1281 3584 2069 3584 
Q 2775 3584 3186 3129 
Q 3597 2675 3597 1894 
z
M 3022 2063 
Q 3016 2534 2758 2815 
Q 2500 3097 2075 3097 
Q 1594 3097 1305 2825 
Q 1016 2553 972 2059 
L 3022 2063 
z
" id="DejaVuSans-65" transform="scale(0.015625)"/>
       <path d="M 2631 2963 
Q 2534 3019 2420 3045 
Q 2306 3072 2169 3072 
Q 1681 3072 1420 2755 
Q 1159 2438 1159 1844 
L 1159 0 
L 581 0 
L 581 3500 
L 1159 3500 
L 1159 2956 
Q 1341 3275 1631 3429 
Q 1922 3584 2338 3584 
Q 2397 3584 2469 3576 
Q 2541 3569 2628 3553 
L 2631 2963 
z
" id="DejaVuSans-72" transform="scale(0.015625)"/>
       <path id="DejaVuSans-20" transform="scale(0.015625)"/>
       <path d="M 2375 4863 
L 2375 4384 
L 1825 4384 
Q 1516 4384 1395 4259 
Q 1275 4134 1275 3809 
L 1275 3500 
L 2222 3500 
L 2222 3053 
L 1275 3053 
L 1275 0 
L 697 0 
L 697 3053 
L 147 3053 
L 147 3500 
L 697 3500 
L 697 3744 
Q 697 4328 969 4595 
Q 1241 4863 1831 4863 
L 2375 4863 
z
" id="DejaVuSans-66" transform="scale(0.015625)"/>
      </defs>
      <use xlink:href="#DejaVuSans-4c"/>
      <use x="55.712891" xlink:href="#DejaVuSans-61"/>
      <use x="116.992188" xlink:href="#DejaVuSans-79"/>
      <use x="176.171875" xlink:href="#DejaVuSans-65"/>
      <use x="237.695312" xlink:href="#DejaVuSans-72"/>
      <use x="278.808594" xlink:href="#DejaVuSans-20"/>
      <use x="310.595703" xlink:href="#DejaVuSans-32"/>
      <use x="374.21875" xlink:href="#DejaVuSans-20"/>
      <use x="406.005859" xlink:href="#DejaVuSans-66"/>
     </g>
    </g>
   </g>
   <g id="matplotlib.axis_2">
    <g id="ytick_1">
     <g id="line2d_40">
      <defs>
       <path d="M 0 0 
L -3.5 0 
" id="mc4c608cd1a" style="stroke:#000000;stroke-width:0.8;"/>
      </defs>
      <g>
       <use style="stroke:#000000;stroke-width:0.8;" x="126" xlink:href="#mc4c608cd1a" y="822.381071"/>
      </g>
     </g>
     <g id="text_7">
      <!-- $\mathdefault{10^{1}}$ -->
      <g transform="translate(66.2 833.778727)scale(0.3 -0.3)">
       <use transform="translate(0 0.684375)" xlink:href="#DejaVuSans-31"/>
       <use transform="translate(63.623047 0.684375)" xlink:href="#DejaVuSans-30"/>
       <use transform="translate(128.203125 38.965625)scale(0.7)" xlink:href="#DejaVuSans-31"/>
      </g>
     </g>
    </g>
    <g id="ytick_2">
     <g id="line2d_41">
      <g>
       <use style="stroke:#000000;stroke-width:0.8;" x="126" xlink:href="#mc4c608cd1a" y="708.818506"/>
      </g>
     </g>
     <g id="text_8">
      <!-- $\mathdefault{10^{2}}$ -->
      <g transform="translate(66.2 720.216162)scale(0.3 -0.3)">
       <use transform="translate(0 0.765625)" xlink:href="#DejaVuSans-31"/>
       <use transform="translate(63.623047 0.765625)" xlink:href="#DejaVuSans-30"/>
       <use transform="translate(128.203125 39.046875)scale(0.7)" xlink:href="#DejaVuSans-32"/>
      </g>
     </g>
    </g>
    <g id="ytick_3">
     <g id="line2d_42">
      <g>
       <use style="stroke:#000000;stroke-width:0.8;" x="126" xlink:href="#mc4c608cd1a" y="595.255941"/>
      </g>
     </g>
     <g id="text_9">
      <!-- $\mathdefault{10^{3}}$ -->
      <g transform="translate(66.2 606.653598)scale(0.3 -0.3)">
       <use transform="translate(0 0.765625)" xlink:href="#DejaVuSans-31"/>
       <use transform="translate(63.623047 0.765625)" xlink:href="#DejaVuSans-30"/>
       <use transform="translate(128.203125 39.046875)scale(0.7)" xlink:href="#DejaVuSans-33"/>
      </g>
     </g>
    </g>
    <g id="ytick_4">
     <g id="line2d_43">
      <g>
       <use style="stroke:#000000;stroke-width:0.8;" x="126" xlink:href="#mc4c608cd1a" y="481.693377"/>
      </g>
     </g>
     <g id="text_10">
      <!-- $\mathdefault{10^{4}}$ -->
      <g transform="translate(66.2 493.091033)scale(0.3 -0.3)">
       <use transform="translate(0 0.684375)" xlink:href="#DejaVuSans-31"/>
       <use transform="translate(63.623047 0.684375)" xlink:href="#DejaVuSans-30"/>
       <use transform="translate(128.203125 38.965625)scale(0.7)" xlink:href="#DejaVuSans-34"/>
      </g>
     </g>
    </g>
    <g id="ytick_5">
     <g id="line2d_44">
      <g>
       <use style="stroke:#000000;stroke-width:0.8;" x="126" xlink:href="#mc4c608cd1a" y="368.130812"/>
      </g>
     </g>
     <g id="text_11">
      <!-- $\mathdefault{10^{5}}$ -->
      <g transform="translate(66.2 379.528468)scale(0.3 -0.3)">
       <defs>
        <path d="M 691 4666 
L 3169 4666 
L 3169 4134 
L 1269 4134 
L 1269 2991 
Q 1406 3038 1543 3061 
Q 1681 3084 1819 3084 
Q 2600 3084 3056 2656 
Q 3513 2228 3513 1497 
Q 3513 744 3044 326 
Q 2575 -91 1722 -91 
Q 1428 -91 1123 -41 
Q 819 9 494 109 
L 494 744 
Q 775 591 1075 516 
Q 1375 441 1709 441 
Q 2250 441 2565 725 
Q 2881 1009 2881 1497 
Q 2881 1984 2565 2268 
Q 2250 2553 1709 2553 
Q 1456 2553 1204 2497 
Q 953 2441 691 2322 
L 691 4666 
z
" id="DejaVuSans-35" transform="scale(0.015625)"/>
       </defs>
       <use transform="translate(0 0.684375)" xlink:href="#DejaVuSans-31"/>
       <use transform="translate(63.623047 0.684375)" xlink:href="#DejaVuSans-30"/>
       <use transform="translate(128.203125 38.965625)scale(0.7)" xlink:href="#DejaVuSans-35"/>
      </g>
     </g>
    </g>
    <g id="ytick_6">
     <g id="line2d_45">
      <g>
       <use style="stroke:#000000;stroke-width:0.8;" x="126" xlink:href="#mc4c608cd1a" y="254.568247"/>
      </g>
     </g>
     <g id="text_12">
      <!-- $\mathdefault{10^{6}}$ -->
      <g transform="translate(66.2 265.965903)scale(0.3 -0.3)">
       <defs>
        <path d="M 2113 2584 
Q 1688 2584 1439 2293 
Q 1191 2003 1191 1497 
Q 1191 994 1439 701 
Q 1688 409 2113 409 
Q 2538 409 2786 701 
Q 3034 994 3034 1497 
Q 3034 2003 2786 2293 
Q 2538 2584 2113 2584 
z
M 3366 4563 
L 3366 3988 
Q 3128 4100 2886 4159 
Q 2644 4219 2406 4219 
Q 1781 4219 1451 3797 
Q 1122 3375 1075 2522 
Q 1259 2794 1537 2939 
Q 1816 3084 2150 3084 
Q 2853 3084 3261 2657 
Q 3669 2231 3669 1497 
Q 3669 778 3244 343 
Q 2819 -91 2113 -91 
Q 1303 -91 875 529 
Q 447 1150 447 2328 
Q 447 3434 972 4092 
Q 1497 4750 2381 4750 
Q 2619 4750 2861 4703 
Q 3103 4656 3366 4563 
z
" id="DejaVuSans-36" transform="scale(0.015625)"/>
       </defs>
       <use transform="translate(0 0.765625)" xlink:href="#DejaVuSans-31"/>
       <use transform="translate(63.623047 0.765625)" xlink:href="#DejaVuSans-30"/>
       <use transform="translate(128.203125 39.046875)scale(0.7)" xlink:href="#DejaVuSans-36"/>
      </g>
     </g>
    </g>
    <g id="ytick_7">
     <g id="line2d_46">
      <g>
       <use style="stroke:#000000;stroke-width:0.8;" x="126" xlink:href="#mc4c608cd1a" y="141.005682"/>
      </g>
     </g>
     <g id="text_13">
      <!-- $\mathdefault{10^{7}}$ -->
      <g transform="translate(66.2 152.403338)scale(0.3 -0.3)">
       <defs>
        <path d="M 525 4666 
L 3525 4666 
L 3525 4397 
L 1831 0 
L 1172 0 
L 2766 4134 
L 525 4134 
L 525 4666 
z
" id="DejaVuSans-37" transform="scale(0.015625)"/>
       </defs>
       <use transform="translate(0 0.684375)" xlink:href="#DejaVuSans-31"/>
       <use transform="translate(63.623047 0.684375)" xlink:href="#DejaVuSans-30"/>
       <use transform="translate(128.203125 38.965625)scale(0.7)" xlink:href="#DejaVuSans-37"/>
      </g>
     </g>
    </g>
    <g id="ytick_8">
     <g id="line2d_47">
      <defs>
       <path d="M 0 0 
L -2 0 
" id="m0db7d3b556" style="stroke:#000000;stroke-width:0.6;"/>
      </defs>
      <g>
       <use style="stroke:#000000;stroke-width:0.6;" x="126" xlink:href="#m0db7d3b556" y="881.760522"/>
      </g>
     </g>
    </g>
    <g id="ytick_9">
     <g id="line2d_48">
      <g>
       <use style="stroke:#000000;stroke-width:0.6;" x="126" xlink:href="#m0db7d3b556" y="867.572159"/>
      </g>
     </g>
    </g>
    <g id="ytick_10">
     <g id="line2d_49">
      <g>
       <use style="stroke:#000000;stroke-width:0.6;" x="126" xlink:href="#m0db7d3b556" y="856.566809"/>
      </g>
     </g>
    </g>
    <g id="ytick_11">
     <g id="line2d_50">
      <g>
       <use style="stroke:#000000;stroke-width:0.6;" x="126" xlink:href="#m0db7d3b556" y="847.574784"/>
      </g>
     </g>
    </g>
    <g id="ytick_12">
     <g id="line2d_51">
      <g>
       <use style="stroke:#000000;stroke-width:0.6;" x="126" xlink:href="#m0db7d3b556" y="839.972135"/>
      </g>
     </g>
    </g>
    <g id="ytick_13">
     <g id="line2d_52">
      <g>
       <use style="stroke:#000000;stroke-width:0.6;" x="126" xlink:href="#m0db7d3b556" y="833.386421"/>
      </g>
     </g>
    </g>
    <g id="ytick_14">
     <g id="line2d_53">
      <g>
       <use style="stroke:#000000;stroke-width:0.6;" x="126" xlink:href="#m0db7d3b556" y="827.577409"/>
      </g>
     </g>
    </g>
    <g id="ytick_15">
     <g id="line2d_54">
      <g>
       <use style="stroke:#000000;stroke-width:0.6;" x="126" xlink:href="#m0db7d3b556" y="788.195333"/>
      </g>
     </g>
    </g>
    <g id="ytick_16">
     <g id="line2d_55">
      <g>
       <use style="stroke:#000000;stroke-width:0.6;" x="126" xlink:href="#m0db7d3b556" y="768.197958"/>
      </g>
     </g>
    </g>
    <g id="ytick_17">
     <g id="line2d_56">
      <g>
       <use style="stroke:#000000;stroke-width:0.6;" x="126" xlink:href="#m0db7d3b556" y="754.009594"/>
      </g>
     </g>
    </g>
    <g id="ytick_18">
     <g id="line2d_57">
      <g>
       <use style="stroke:#000000;stroke-width:0.6;" x="126" xlink:href="#m0db7d3b556" y="743.004245"/>
      </g>
     </g>
    </g>
    <g id="ytick_19">
     <g id="line2d_58">
      <g>
       <use style="stroke:#000000;stroke-width:0.6;" x="126" xlink:href="#m0db7d3b556" y="734.012219"/>
      </g>
     </g>
    </g>
    <g id="ytick_20">
     <g id="line2d_59">
      <g>
       <use style="stroke:#000000;stroke-width:0.6;" x="126" xlink:href="#m0db7d3b556" y="726.40957"/>
      </g>
     </g>
    </g>
    <g id="ytick_21">
     <g id="line2d_60">
      <g>
       <use style="stroke:#000000;stroke-width:0.6;" x="126" xlink:href="#m0db7d3b556" y="719.823856"/>
      </g>
     </g>
    </g>
    <g id="ytick_22">
     <g id="line2d_61">
      <g>
       <use style="stroke:#000000;stroke-width:0.6;" x="126" xlink:href="#m0db7d3b556" y="714.014844"/>
      </g>
     </g>
    </g>
    <g id="ytick_23">
     <g id="line2d_62">
      <g>
       <use style="stroke:#000000;stroke-width:0.6;" x="126" xlink:href="#m0db7d3b556" y="674.632768"/>
      </g>
     </g>
    </g>
    <g id="ytick_24">
     <g id="line2d_63">
      <g>
       <use style="stroke:#000000;stroke-width:0.6;" x="126" xlink:href="#m0db7d3b556" y="654.635393"/>
      </g>
     </g>
    </g>
    <g id="ytick_25">
     <g id="line2d_64">
      <g>
       <use style="stroke:#000000;stroke-width:0.6;" x="126" xlink:href="#m0db7d3b556" y="640.447029"/>
      </g>
     </g>
    </g>
    <g id="ytick_26">
     <g id="line2d_65">
      <g>
       <use style="stroke:#000000;stroke-width:0.6;" x="126" xlink:href="#m0db7d3b556" y="629.44168"/>
      </g>
     </g>
    </g>
    <g id="ytick_27">
     <g id="line2d_66">
      <g>
       <use style="stroke:#000000;stroke-width:0.6;" x="126" xlink:href="#m0db7d3b556" y="620.449654"/>
      </g>
     </g>
    </g>
    <g id="ytick_28">
     <g id="line2d_67">
      <g>
       <use style="stroke:#000000;stroke-width:0.6;" x="126" xlink:href="#m0db7d3b556" y="612.847005"/>
      </g>
     </g>
    </g>
    <g id="ytick_29">
     <g id="line2d_68">
      <g>
       <use style="stroke:#000000;stroke-width:0.6;" x="126" xlink:href="#m0db7d3b556" y="606.261291"/>
      </g>
     </g>
    </g>
    <g id="ytick_30">
     <g id="line2d_69">
      <g>
       <use style="stroke:#000000;stroke-width:0.6;" x="126" xlink:href="#m0db7d3b556" y="600.452279"/>
      </g>
     </g>
    </g>
    <g id="ytick_31">
     <g id="line2d_70">
      <g>
       <use style="stroke:#000000;stroke-width:0.6;" x="126" xlink:href="#m0db7d3b556" y="561.070203"/>
      </g>
     </g>
    </g>
    <g id="ytick_32">
     <g id="line2d_71">
      <g>
       <use style="stroke:#000000;stroke-width:0.6;" x="126" xlink:href="#m0db7d3b556" y="541.072828"/>
      </g>
     </g>
    </g>
    <g id="ytick_33">
     <g id="line2d_72">
      <g>
       <use style="stroke:#000000;stroke-width:0.6;" x="126" xlink:href="#m0db7d3b556" y="526.884465"/>
      </g>
     </g>
    </g>
    <g id="ytick_34">
     <g id="line2d_73">
      <g>
       <use style="stroke:#000000;stroke-width:0.6;" x="126" xlink:href="#m0db7d3b556" y="515.879115"/>
      </g>
     </g>
    </g>
    <g id="ytick_35">
     <g id="line2d_74">
      <g>
       <use style="stroke:#000000;stroke-width:0.6;" x="126" xlink:href="#m0db7d3b556" y="506.88709"/>
      </g>
     </g>
    </g>
    <g id="ytick_36">
     <g id="line2d_75">
      <g>
       <use style="stroke:#000000;stroke-width:0.6;" x="126" xlink:href="#m0db7d3b556" y="499.28444"/>
      </g>
     </g>
    </g>
    <g id="ytick_37">
     <g id="line2d_76">
      <g>
       <use style="stroke:#000000;stroke-width:0.6;" x="126" xlink:href="#m0db7d3b556" y="492.698726"/>
      </g>
     </g>
    </g>
    <g id="ytick_38">
     <g id="line2d_77">
      <g>
       <use style="stroke:#000000;stroke-width:0.6;" x="126" xlink:href="#m0db7d3b556" y="486.889715"/>
      </g>
     </g>
    </g>
    <g id="ytick_39">
     <g id="line2d_78">
      <g>
       <use style="stroke:#000000;stroke-width:0.6;" x="126" xlink:href="#m0db7d3b556" y="447.507638"/>
      </g>
     </g>
    </g>
    <g id="ytick_40">
     <g id="line2d_79">
      <g>
       <use style="stroke:#000000;stroke-width:0.6;" x="126" xlink:href="#m0db7d3b556" y="427.510263"/>
      </g>
     </g>
    </g>
    <g id="ytick_41">
     <g id="line2d_80">
      <g>
       <use style="stroke:#000000;stroke-width:0.6;" x="126" xlink:href="#m0db7d3b556" y="413.3219"/>
      </g>
     </g>
    </g>
    <g id="ytick_42">
     <g id="line2d_81">
      <g>
       <use style="stroke:#000000;stroke-width:0.6;" x="126" xlink:href="#m0db7d3b556" y="402.31655"/>
      </g>
     </g>
    </g>
    <g id="ytick_43">
     <g id="line2d_82">
      <g>
       <use style="stroke:#000000;stroke-width:0.6;" x="126" xlink:href="#m0db7d3b556" y="393.324525"/>
      </g>
     </g>
    </g>
    <g id="ytick_44">
     <g id="line2d_83">
      <g>
       <use style="stroke:#000000;stroke-width:0.6;" x="126" xlink:href="#m0db7d3b556" y="385.721876"/>
      </g>
     </g>
    </g>
    <g id="ytick_45">
     <g id="line2d_84">
      <g>
       <use style="stroke:#000000;stroke-width:0.6;" x="126" xlink:href="#m0db7d3b556" y="379.136161"/>
      </g>
     </g>
    </g>
    <g id="ytick_46">
     <g id="line2d_85">
      <g>
       <use style="stroke:#000000;stroke-width:0.6;" x="126" xlink:href="#m0db7d3b556" y="373.32715"/>
      </g>
     </g>
    </g>
    <g id="ytick_47">
     <g id="line2d_86">
      <g>
       <use style="stroke:#000000;stroke-width:0.6;" x="126" xlink:href="#m0db7d3b556" y="333.945073"/>
      </g>
     </g>
    </g>
    <g id="ytick_48">
     <g id="line2d_87">
      <g>
       <use style="stroke:#000000;stroke-width:0.6;" x="126" xlink:href="#m0db7d3b556" y="313.947698"/>
      </g>
     </g>
    </g>
    <g id="ytick_49">
     <g id="line2d_88">
      <g>
       <use style="stroke:#000000;stroke-width:0.6;" x="126" xlink:href="#m0db7d3b556" y="299.759335"/>
      </g>
     </g>
    </g>
    <g id="ytick_50">
     <g id="line2d_89">
      <g>
       <use style="stroke:#000000;stroke-width:0.6;" x="126" xlink:href="#m0db7d3b556" y="288.753985"/>
      </g>
     </g>
    </g>
    <g id="ytick_51">
     <g id="line2d_90">
      <g>
       <use style="stroke:#000000;stroke-width:0.6;" x="126" xlink:href="#m0db7d3b556" y="279.76196"/>
      </g>
     </g>
    </g>
    <g id="ytick_52">
     <g id="line2d_91">
      <g>
       <use style="stroke:#000000;stroke-width:0.6;" x="126" xlink:href="#m0db7d3b556" y="272.159311"/>
      </g>
     </g>
    </g>
    <g id="ytick_53">
     <g id="line2d_92">
      <g>
       <use style="stroke:#000000;stroke-width:0.6;" x="126" xlink:href="#m0db7d3b556" y="265.573597"/>
      </g>
     </g>
    </g>
    <g id="ytick_54">
     <g id="line2d_93">
      <g>
       <use style="stroke:#000000;stroke-width:0.6;" x="126" xlink:href="#m0db7d3b556" y="259.764585"/>
      </g>
     </g>
    </g>
    <g id="ytick_55">
     <g id="line2d_94">
      <g>
       <use style="stroke:#000000;stroke-width:0.6;" x="126" xlink:href="#m0db7d3b556" y="220.382509"/>
      </g>
     </g>
    </g>
    <g id="ytick_56">
     <g id="line2d_95">
      <g>
       <use style="stroke:#000000;stroke-width:0.6;" x="126" xlink:href="#m0db7d3b556" y="200.385134"/>
      </g>
     </g>
    </g>
    <g id="ytick_57">
     <g id="line2d_96">
      <g>
       <use style="stroke:#000000;stroke-width:0.6;" x="126" xlink:href="#m0db7d3b556" y="186.19677"/>
      </g>
     </g>
    </g>
    <g id="ytick_58">
     <g id="line2d_97">
      <g>
       <use style="stroke:#000000;stroke-width:0.6;" x="126" xlink:href="#m0db7d3b556" y="175.191421"/>
      </g>
     </g>
    </g>
    <g id="ytick_59">
     <g id="line2d_98">
      <g>
       <use style="stroke:#000000;stroke-width:0.6;" x="126" xlink:href="#m0db7d3b556" y="166.199395"/>
      </g>
     </g>
    </g>
    <g id="ytick_60">
     <g id="line2d_99">
      <g>
       <use style="stroke:#000000;stroke-width:0.6;" x="126" xlink:href="#m0db7d3b556" y="158.596746"/>
      </g>
     </g>
    </g>
    <g id="ytick_61">
     <g id="line2d_100">
      <g>
       <use style="stroke:#000000;stroke-width:0.6;" x="126" xlink:href="#m0db7d3b556" y="152.011032"/>
      </g>
     </g>
    </g>
    <g id="ytick_62">
     <g id="line2d_101">
      <g>
       <use style="stroke:#000000;stroke-width:0.6;" x="126" xlink:href="#m0db7d3b556" y="146.20202"/>
      </g>
     </g>
    </g>
    <g id="text_14">
     <!-- Events / Bin Width -->
     <g transform="translate(55.960938 639.156563)rotate(-90)scale(0.3 -0.3)">
      <defs>
       <path d="M 628 4666 
L 3578 4666 
L 3578 4134 
L 1259 4134 
L 1259 2753 
L 3481 2753 
L 3481 2222 
L 1259 2222 
L 1259 531 
L 3634 531 
L 3634 0 
L 628 0 
L 628 4666 
z
" id="DejaVuSans-45" transform="scale(0.015625)"/>
       <path d="M 191 3500 
L 800 3500 
L 1894 563 
L 2988 3500 
L 3597 3500 
L 2284 0 
L 1503 0 
L 191 3500 
z
" id="DejaVuSans-76" transform="scale(0.015625)"/>
       <path d="M 3513 2113 
L 3513 0 
L 2938 0 
L 2938 2094 
Q 2938 2591 2744 2837 
Q 2550 3084 2163 3084 
Q 1697 3084 1428 2787 
Q 1159 2491 1159 1978 
L 1159 0 
L 581 0 
L 581 3500 
L 1159 3500 
L 1159 2956 
Q 1366 3272 1645 3428 
Q 1925 3584 2291 3584 
Q 2894 3584 3203 3211 
Q 3513 2838 3513 2113 
z
" id="DejaVuSans-6e" transform="scale(0.015625)"/>
       <path d="M 1172 4494 
L 1172 3500 
L 2356 3500 
L 2356 3053 
L 1172 3053 
L 1172 1153 
Q 1172 725 1289 603 
Q 1406 481 1766 481 
L 2356 481 
L 2356 0 
L 1766 0 
Q 1100 0 847 248 
Q 594 497 594 1153 
L 594 3053 
L 172 3053 
L 172 3500 
L 594 3500 
L 594 4494 
L 1172 4494 
z
" id="DejaVuSans-74" transform="scale(0.015625)"/>
       <path d="M 2834 3397 
L 2834 2853 
Q 2591 2978 2328 3040 
Q 2066 3103 1784 3103 
Q 1356 3103 1142 2972 
Q 928 2841 928 2578 
Q 928 2378 1081 2264 
Q 1234 2150 1697 2047 
L 1894 2003 
Q 2506 1872 2764 1633 
Q 3022 1394 3022 966 
Q 3022 478 2636 193 
Q 2250 -91 1575 -91 
Q 1294 -91 989 -36 
Q 684 19 347 128 
L 347 722 
Q 666 556 975 473 
Q 1284 391 1588 391 
Q 1994 391 2212 530 
Q 2431 669 2431 922 
Q 2431 1156 2273 1281 
Q 2116 1406 1581 1522 
L 1381 1569 
Q 847 1681 609 1914 
Q 372 2147 372 2553 
Q 372 3047 722 3315 
Q 1072 3584 1716 3584 
Q 2034 3584 2315 3537 
Q 2597 3491 2834 3397 
z
" id="DejaVuSans-73" transform="scale(0.015625)"/>
       <path d="M 1625 4666 
L 2156 4666 
L 531 -594 
L 0 -594 
L 1625 4666 
z
" id="DejaVuSans-2f" transform="scale(0.015625)"/>
       <path d="M 1259 2228 
L 1259 519 
L 2272 519 
Q 2781 519 3026 730 
Q 3272 941 3272 1375 
Q 3272 1813 3026 2020 
Q 2781 2228 2272 2228 
L 1259 2228 
z
M 1259 4147 
L 1259 2741 
L 2194 2741 
Q 2656 2741 2882 2914 
Q 3109 3088 3109 3444 
Q 3109 3797 2882 3972 
Q 2656 4147 2194 4147 
L 1259 4147 
z
M 628 4666 
L 2241 4666 
Q 2963 4666 3353 4366 
Q 3744 4066 3744 3513 
Q 3744 3084 3544 2831 
Q 3344 2578 2956 2516 
Q 3422 2416 3680 2098 
Q 3938 1781 3938 1306 
Q 3938 681 3513 340 
Q 3088 0 2303 0 
L 628 0 
L 628 4666 
z
" id="DejaVuSans-42" transform="scale(0.015625)"/>
       <path d="M 603 3500 
L 1178 3500 
L 1178 0 
L 603 0 
L 603 3500 
z
M 603 4863 
L 1178 4863 
L 1178 4134 
L 603 4134 
L 603 4863 
z
" id="DejaVuSans-69" transform="scale(0.015625)"/>
       <path d="M 213 4666 
L 850 4666 
L 1831 722 
L 2809 4666 
L 3519 4666 
L 4500 722 
L 5478 4666 
L 6119 4666 
L 4947 0 
L 4153 0 
L 3169 4050 
L 2175 0 
L 1381 0 
L 213 4666 
z
" id="DejaVuSans-57" transform="scale(0.015625)"/>
       <path d="M 2906 2969 
L 2906 4863 
L 3481 4863 
L 3481 0 
L 2906 0 
L 2906 525 
Q 2725 213 2448 61 
Q 2172 -91 1784 -91 
Q 1150 -91 751 415 
Q 353 922 353 1747 
Q 353 2572 751 3078 
Q 1150 3584 1784 3584 
Q 2172 3584 2448 3432 
Q 2725 3281 2906 2969 
z
M 947 1747 
Q 947 1113 1208 752 
Q 1469 391 1925 391 
Q 2381 391 2643 752 
Q 2906 1113 2906 1747 
Q 2906 2381 2643 2742 
Q 2381 3103 1925 3103 
Q 1469 3103 1208 2742 
Q 947 2381 947 1747 
z
" id="DejaVuSans-64" transform="scale(0.015625)"/>
       <path d="M 3513 2113 
L 3513 0 
L 2938 0 
L 2938 2094 
Q 2938 2591 2744 2837 
Q 2550 3084 2163 3084 
Q 1697 3084 1428 2787 
Q 1159 2491 1159 1978 
L 1159 0 
L 581 0 
L 581 4863 
L 1159 4863 
L 1159 2956 
Q 1366 3272 1645 3428 
Q 1925 3584 2291 3584 
Q 2894 3584 3203 3211 
Q 3513 2838 3513 2113 
z
" id="DejaVuSans-68" transform="scale(0.015625)"/>
      </defs>
      <use xlink:href="#DejaVuSans-45"/>
      <use x="63.183594" xlink:href="#DejaVuSans-76"/>
      <use x="122.363281" xlink:href="#DejaVuSans-65"/>
      <use x="183.886719" xlink:href="#DejaVuSans-6e"/>
      <use x="247.265625" xlink:href="#DejaVuSans-74"/>
      <use x="286.474609" xlink:href="#DejaVuSans-73"/>
      <use x="338.574219" xlink:href="#DejaVuSans-20"/>
      <use x="370.361328" xlink:href="#DejaVuSans-2f"/>
      <use x="404.052734" xlink:href="#DejaVuSans-20"/>
      <use x="435.839844" xlink:href="#DejaVuSans-42"/>
      <use x="504.443359" xlink:href="#DejaVuSans-69"/>
      <use x="532.226562" xlink:href="#DejaVuSans-6e"/>
      <use x="595.605469" xlink:href="#DejaVuSans-20"/>
      <use x="627.392578" xlink:href="#DejaVuSans-57"/>
      <use x="724.019531" xlink:href="#DejaVuSans-69"/>
      <use x="751.802734" xlink:href="#DejaVuSans-64"/>
      <use x="815.279297" xlink:href="#DejaVuSans-74"/>
      <use x="854.488281" xlink:href="#DejaVuSans-68"/>
     </g>
    </g>
   </g>
   <g id="line2d_102">
    <path clip-path="url(#p72dacf92e2)" d="M 161.509091 600.782178 
L 161.509091 600.782178 
L 161.509091 191.340093 
L 171.404016 191.340093 
L 171.404016 189.185995 
L 190.093012 189.185995 
L 190.093012 192.954177 
L 208.782007 192.954177 
L 208.782007 194.195705 
L 227.471002 194.195705 
L 227.471002 195.921789 
L 246.159997 195.921789 
L 246.159997 198.76021 
L 264.848992 198.76021 
L 264.848992 192.981876 
L 283.537988 192.981876 
L 283.537988 189.737747 
L 302.226983 189.737747 
L 302.226983 178.25243 
L 320.915978 178.25243 
L 320.915978 166.304283 
L 339.604973 166.304283 
L 339.604973 155.552727 
L 358.293968 155.552727 
L 358.293968 179.06862 
L 376.982964 179.06862 
L 376.982964 241.057126 
L 395.671959 241.057126 
L 395.671959 282.159565 
L 414.360954 282.159565 
L 414.360954 318.700905 
L 433.049949 318.700905 
L 433.049949 345.713043 
L 451.738945 345.713043 
L 451.738945 386.691199 
L 470.42794 386.691199 
L 470.42794 424.5707 
L 489.116935 424.5707 
L 489.116935 458.360186 
L 507.80593 458.360186 
L 507.80593 549.384455 
L 526.494925 549.384455 
L 526.494925 526.846159 
L 545.183921 526.846159 
L 545.183921 534.545928 
L 563.872916 534.545928 
L 563.872916 584.326783 
L 582.561911 584.326783 
L 582.561911 630.159964 
L 601.250906 630.159964 
L 601.250906 641.807406 
L 619.939901 641.807406 
L 619.939901 707.637962 
L 638.628897 707.637962 
L 638.628897 719.285405 
L 657.317892 719.285405 
L 657.317892 730.932847 
L 676.006887 730.932847 
L 676.006887 1009 
M 694.695882 1009 
L 694.695882 754.227732 
L 713.384878 754.227732 
L 713.384878 765.875175 
L 732.073873 765.875175 
L 732.073873 1009 
M 750.762868 1009 
L 750.762868 789.17006 
L 769.451863 789.17006 
L 769.451863 1009 
" style="fill:none;stroke:#00bfbf;stroke-linecap:square;stroke-width:4;"/>
   </g>
   <g id="line2d_103">
    <path clip-path="url(#p72dacf92e2)" d="M 161.509091 596.656592 
L 161.509091 596.656592 
L 161.509091 202.861883 
L 171.404016 202.861883 
L 171.404016 217.865695 
L 190.093012 217.865695 
L 190.093012 222.409174 
L 208.782007 222.409174 
L 208.782007 219.568437 
L 227.471002 219.568437 
L 227.471002 212.73615 
L 246.159997 212.73615 
L 246.159997 214.123642 
L 264.848992 214.123642 
L 264.848992 209.499348 
L 283.537988 209.499348 
L 283.537988 203.862677 
L 302.226983 203.862677 
L 302.226983 192.361437 
L 320.915978 192.361437 
L 320.915978 178.609437 
L 339.604973 178.609437 
L 339.604973 170.943296 
L 358.293968 170.943296 
L 358.293968 176.257873 
L 376.982964 176.257873 
L 376.982964 200.988874 
L 395.671959 200.988874 
L 395.671959 256.666036 
L 414.360954 256.666036 
L 414.360954 290.887837 
L 433.049949 290.887837 
L 433.049949 315.602694 
L 451.738945 315.602694 
L 451.738945 344.290138 
L 470.42794 344.290138 
L 470.42794 384.926981 
L 489.116935 384.926981 
L 489.116935 424.174448 
L 507.80593 424.174448 
L 507.80593 455.819265 
L 526.494925 455.819265 
L 526.494925 512.657796 
L 545.183921 512.657796 
L 545.183921 530.890953 
L 563.872916 530.890953 
L 563.872916 604.324158 
L 582.561911 604.324158 
L 582.561911 1009 
M 601.250906 1009 
L 601.250906 695.99052 
L 619.939901 695.99052 
L 619.939901 1009 
M 638.628897 1009 
L 638.628897 665.102291 
L 657.317892 665.102291 
L 657.317892 696.747109 
L 676.006887 696.747109 
L 676.006887 708.394551 
L 694.695882 708.394551 
L 694.695882 700.044619 
L 713.384878 700.044619 
L 713.384878 1009 
M 732.073873 1009 
L 732.073873 743.336879 
L 750.762868 743.336879 
L 750.762868 754.984322 
L 769.451863 754.984322 
L 769.451863 1009 
M 806.829854 1009 
L 806.829854 824.112388 
L 825.518849 824.112388 
L 825.518849 1009 
M 844.207844 1009 
L 844.207844 847.407273 
L 862.896839 847.407273 
L 862.896839 824.868977 
L 871.690909 824.868977 
L 871.690909 1009 
" style="fill:none;stroke:#bf00bf;stroke-linecap:square;stroke-width:4;"/>
   </g>
   <g id="line2d_104">
    <path clip-path="url(#p72dacf92e2)" d="M 161.509091 605.1639 
L 161.509091 605.1639 
L 161.509091 362.268785 
L 171.404016 362.268785 
L 171.404016 359.727864 
L 190.093012 359.727864 
L 190.093012 405.561045 
L 208.782007 405.561045 
L 208.782007 348.837011 
L 227.471002 348.837011 
L 227.471002 383.664842 
L 246.159997 383.664842 
L 246.159997 372.131896 
L 264.848992 372.131896 
L 264.848992 406.959727 
L 283.537988 406.959727 
L 283.537988 384.421432 
L 302.226983 384.421432 
L 302.226983 364.4129 
L 320.915978 364.4129 
L 320.915978 376.060343 
L 339.604973 376.060343 
L 339.604973 382.77171 
L 358.293968 382.77171 
L 358.293968 383.885764 
L 376.982964 383.885764 
L 376.982964 390.147542 
L 395.671959 390.147542 
L 395.671959 384.71678 
L 414.360954 384.71678 
L 414.360954 390.68905 
L 433.049949 390.68905 
L 433.049949 384.531461 
L 451.738945 384.531461 
L 451.738945 383.124374 
L 470.42794 383.124374 
L 470.42794 400.223697 
L 489.116935 400.223697 
L 489.116935 396.574424 
L 507.80593 396.574424 
L 507.80593 387.1405 
L 526.494925 387.1405 
L 526.494925 386.393217 
L 545.183921 386.393217 
L 545.183921 378.282121 
L 563.872916 378.282121 
L 563.872916 377.944427 
L 582.561911 377.944427 
L 582.561911 372.961443 
L 601.250906 372.961443 
L 601.250906 372.403143 
L 619.939901 372.403143 
L 619.939901 374.791873 
L 638.628897 374.791873 
L 638.628897 386.555089 
L 657.317892 386.555089 
L 657.317892 403.071547 
L 676.006887 403.071547 
L 676.006887 414.463778 
L 694.695882 414.463778 
L 694.695882 432.633338 
L 713.384878 432.633338 
L 713.384878 458.882473 
L 732.073873 458.882473 
L 732.073873 478.574016 
L 750.762868 478.574016 
L 750.762868 496.203218 
L 769.451863 496.203218 
L 769.451863 509.433243 
L 788.140858 509.433243 
L 788.140858 526.605723 
L 806.829854 526.605723 
L 806.829854 549.108835 
L 825.518849 549.108835 
L 825.518849 568.203491 
L 844.207844 568.203491 
L 844.207844 632.536157 
L 862.896839 632.536157 
L 862.896839 804.871602 
L 871.690909 804.871602 
L 871.690909 1009 
" style="fill:none;stroke:#bfbf00;stroke-linecap:square;stroke-width:4;"/>
   </g>
   <g id="patch_3">
    <path d="M 126 882 
L 126 120.96 
" style="fill:none;stroke:#000000;stroke-linecap:square;stroke-linejoin:miter;stroke-width:0.8;"/>
   </g>
   <g id="patch_4">
    <path d="M 907.2 882 
L 907.2 120.96 
" style="fill:none;stroke:#000000;stroke-linecap:square;stroke-linejoin:miter;stroke-width:0.8;"/>
   </g>
   <g id="patch_5">
    <path d="M 126 882 
L 907.2 882 
" style="fill:none;stroke:#000000;stroke-linecap:square;stroke-linejoin:miter;stroke-width:0.8;"/>
   </g>
   <g id="patch_6">
    <path d="M 126 120.96 
L 907.2 120.96 
" style="fill:none;stroke:#000000;stroke-linecap:square;stroke-linejoin:miter;stroke-width:0.8;"/>
   </g>
   <g id="legend_1">
    <g id="patch_7">
     <path d="M 544.8 225.069375 
L 893.2 225.069375 
Q 897.2 225.069375 897.2 221.069375 
L 897.2 134.96 
Q 897.2 130.96 893.2 130.96 
L 544.8 130.96 
Q 540.8 130.96 540.8 134.96 
L 540.8 221.069375 
Q 540.8 225.069375 544.8 225.069375 
z
" style="fill:#ffffff;opacity:0.8;stroke:#cccccc;stroke-linejoin:miter;"/>
    </g>
    <g id="line2d_105">
     <path d="M 548.8 147.156875 
L 588.8 147.156875 
" style="fill:none;stroke:#00bfbf;stroke-linecap:square;stroke-width:4;"/>
    </g>
    <g id="line2d_106"/>
    <g id="text_15">
     <!-- $e^{+}$ DVAE -->
     <g transform="translate(604.8 154.156875)scale(0.2 -0.2)">
      <defs>
       <path d="M 3078 2063 
Q 3088 2113 3092 2166 
Q 3097 2219 3097 2272 
Q 3097 2653 2873 2875 
Q 2650 3097 2266 3097 
Q 1838 3097 1509 2826 
Q 1181 2556 1013 2059 
L 3078 2063 
z
M 3578 1613 
L 903 1613 
Q 884 1494 878 1425 
Q 872 1356 872 1306 
Q 872 872 1139 634 
Q 1406 397 1894 397 
Q 2269 397 2603 481 
Q 2938 566 3225 728 
L 3116 159 
Q 2806 34 2476 -28 
Q 2147 -91 1806 -91 
Q 1078 -91 686 257 
Q 294 606 294 1247 
Q 294 1794 489 2264 
Q 684 2734 1063 3103 
Q 1306 3334 1642 3459 
Q 1978 3584 2356 3584 
Q 2950 3584 3301 3228 
Q 3653 2872 3653 2272 
Q 3653 2128 3634 1964 
Q 3616 1800 3578 1613 
z
" id="DejaVuSans-Oblique-65" transform="scale(0.015625)"/>
       <path d="M 2944 4013 
L 2944 2272 
L 4684 2272 
L 4684 1741 
L 2944 1741 
L 2944 0 
L 2419 0 
L 2419 1741 
L 678 1741 
L 678 2272 
L 2419 2272 
L 2419 4013 
L 2944 4013 
z
" id="DejaVuSans-2b" transform="scale(0.015625)"/>
       <path d="M 1259 4147 
L 1259 519 
L 2022 519 
Q 2988 519 3436 956 
Q 3884 1394 3884 2338 
Q 3884 3275 3436 3711 
Q 2988 4147 2022 4147 
L 1259 4147 
z
M 628 4666 
L 1925 4666 
Q 3281 4666 3915 4102 
Q 4550 3538 4550 2338 
Q 4550 1131 3912 565 
Q 3275 0 1925 0 
L 628 0 
L 628 4666 
z
" id="DejaVuSans-44" transform="scale(0.015625)"/>
       <path d="M 1831 0 
L 50 4666 
L 709 4666 
L 2188 738 
L 3669 4666 
L 4325 4666 
L 2547 0 
L 1831 0 
z
" id="DejaVuSans-56" transform="scale(0.015625)"/>
       <path d="M 2188 4044 
L 1331 1722 
L 3047 1722 
L 2188 4044 
z
M 1831 4666 
L 2547 4666 
L 4325 0 
L 3669 0 
L 3244 1197 
L 1141 1197 
L 716 0 
L 50 0 
L 1831 4666 
z
" id="DejaVuSans-41" transform="scale(0.015625)"/>
      </defs>
      <use transform="translate(0 0.826562)" xlink:href="#DejaVuSans-Oblique-65"/>
      <use transform="translate(66.173333 39.107812)scale(0.7)" xlink:href="#DejaVuSans-2b"/>
      <use transform="translate(127.560052 0.826562)" xlink:href="#DejaVuSans-20"/>
      <use transform="translate(159.347161 0.826562)" xlink:href="#DejaVuSans-44"/>
      <use transform="translate(236.349115 0.826562)" xlink:href="#DejaVuSans-56"/>
      <use transform="translate(304.757318 0.826562)" xlink:href="#DejaVuSans-41"/>
      <use transform="translate(373.165521 0.826562)" xlink:href="#DejaVuSans-45"/>
     </g>
    </g>
    <g id="line2d_107">
     <path d="M 548.8 176.513125 
L 588.8 176.513125 
" style="fill:none;stroke:#bf00bf;stroke-linecap:square;stroke-width:4;"/>
    </g>
    <g id="line2d_108"/>
    <g id="text_16">
     <!-- $\gamma$   DVAE -->
     <g transform="translate(604.8 183.513125)scale(0.2 -0.2)">
      <defs>
       <path d="M 1491 2950 
L 1838 788 
L 3456 3500 
L 4066 3500 
L 1972 0 
L 1713 -1331 
L 1138 -1331 
L 1397 0 
L 988 2613 
Q 925 3006 628 3006 
L 475 3006 
L 569 3500 
L 788 3500 
Q 1403 3500 1491 2950 
z
" id="DejaVuSans-Oblique-3b3" transform="scale(0.015625)"/>
      </defs>
      <use transform="translate(0 0.09375)" xlink:href="#DejaVuSans-Oblique-3b3"/>
      <use transform="translate(59.179688 0.09375)" xlink:href="#DejaVuSans-20"/>
      <use transform="translate(90.966797 0.09375)" xlink:href="#DejaVuSans-20"/>
      <use transform="translate(122.753906 0.09375)" xlink:href="#DejaVuSans-20"/>
      <use transform="translate(154.541016 0.09375)" xlink:href="#DejaVuSans-44"/>
      <use transform="translate(231.542969 0.09375)" xlink:href="#DejaVuSans-56"/>
      <use transform="translate(299.951172 0.09375)" xlink:href="#DejaVuSans-41"/>
      <use transform="translate(368.359375 0.09375)" xlink:href="#DejaVuSans-45"/>
     </g>
    </g>
    <g id="line2d_109">
     <path d="M 548.8 205.91 
L 588.8 205.91 
" style="fill:none;stroke:#bfbf00;stroke-linecap:square;stroke-width:4;"/>
    </g>
    <g id="line2d_110"/>
    <g id="text_17">
     <!-- $\pi^{+}$ DVAE -->
     <g transform="translate(604.8 212.91)scale(0.2 -0.2)">
      <defs>
       <path d="M 584 3500 
L 3938 3500 
L 3825 2925 
L 3384 2925 
L 2966 775 
Q 2922 550 2981 450 
Q 3038 353 3209 353 
Q 3256 353 3325 363 
Q 3397 369 3419 372 
L 3338 -44 
Q 3222 -84 3103 -103 
Q 2981 -122 2866 -122 
Q 2491 -122 2388 81 
Q 2284 288 2391 838 
L 2797 2925 
L 1506 2925 
L 938 0 
L 350 0 
L 919 2925 
L 472 2925 
L 584 3500 
z
" id="DejaVuSans-Oblique-3c0" transform="scale(0.015625)"/>
      </defs>
      <use transform="translate(0 0.826562)" xlink:href="#DejaVuSans-Oblique-3c0"/>
      <use transform="translate(64.671224 39.107812)scale(0.7)" xlink:href="#DejaVuSans-2b"/>
      <use transform="translate(126.057943 0.826562)" xlink:href="#DejaVuSans-20"/>
      <use transform="translate(157.845052 0.826562)" xlink:href="#DejaVuSans-44"/>
      <use transform="translate(234.847005 0.826562)" xlink:href="#DejaVuSans-56"/>
      <use transform="translate(303.255208 0.826562)" xlink:href="#DejaVuSans-41"/>
      <use transform="translate(371.663411 0.826562)" xlink:href="#DejaVuSans-45"/>
     </g>
    </g>
    <g id="patch_8">
     <path d="M 732.2 154.156875 
L 772.2 154.156875 
L 772.2 140.156875 
L 732.2 140.156875 
z
" style="fill:#00bfbf;opacity:0.4;stroke:#00bfbf;stroke-linejoin:miter;"/>
    </g>
    <g id="text_18">
     <!-- $e^{+}$ GEANT -->
     <g transform="translate(788.2 154.156875)scale(0.2 -0.2)">
      <defs>
       <path d="M 3809 666 
L 3809 1919 
L 2778 1919 
L 2778 2438 
L 4434 2438 
L 4434 434 
Q 4069 175 3628 42 
Q 3188 -91 2688 -91 
Q 1594 -91 976 548 
Q 359 1188 359 2328 
Q 359 3472 976 4111 
Q 1594 4750 2688 4750 
Q 3144 4750 3555 4637 
Q 3966 4525 4313 4306 
L 4313 3634 
Q 3963 3931 3569 4081 
Q 3175 4231 2741 4231 
Q 1884 4231 1454 3753 
Q 1025 3275 1025 2328 
Q 1025 1384 1454 906 
Q 1884 428 2741 428 
Q 3075 428 3337 486 
Q 3600 544 3809 666 
z
" id="DejaVuSans-47" transform="scale(0.015625)"/>
       <path d="M 628 4666 
L 1478 4666 
L 3547 763 
L 3547 4666 
L 4159 4666 
L 4159 0 
L 3309 0 
L 1241 3903 
L 1241 0 
L 628 0 
L 628 4666 
z
" id="DejaVuSans-4e" transform="scale(0.015625)"/>
       <path d="M -19 4666 
L 3928 4666 
L 3928 4134 
L 2272 4134 
L 2272 0 
L 1638 0 
L 1638 4134 
L -19 4134 
L -19 4666 
z
" id="DejaVuSans-54" transform="scale(0.015625)"/>
      </defs>
      <use transform="translate(0 0.826562)" xlink:href="#DejaVuSans-Oblique-65"/>
      <use transform="translate(66.173333 39.107812)scale(0.7)" xlink:href="#DejaVuSans-2b"/>
      <use transform="translate(127.560052 0.826562)" xlink:href="#DejaVuSans-20"/>
      <use transform="translate(159.347161 0.826562)" xlink:href="#DejaVuSans-47"/>
      <use transform="translate(236.837396 0.826562)" xlink:href="#DejaVuSans-45"/>
      <use transform="translate(300.02099 0.826562)" xlink:href="#DejaVuSans-41"/>
      <use transform="translate(368.429193 0.826562)" xlink:href="#DejaVuSans-4e"/>
      <use transform="translate(443.23388 0.826562)" xlink:href="#DejaVuSans-54"/>
     </g>
    </g>
    <g id="patch_9">
     <path d="M 732.2 183.513125 
L 772.2 183.513125 
L 772.2 169.513125 
L 732.2 169.513125 
z
" style="fill:#bf00bf;opacity:0.4;stroke:#bf00bf;stroke-linejoin:miter;"/>
    </g>
    <g id="text_19">
     <!-- $\gamma$   GEANT -->
     <g transform="translate(788.2 183.513125)scale(0.2 -0.2)">
      <use transform="translate(0 0.78125)" xlink:href="#DejaVuSans-Oblique-3b3"/>
      <use transform="translate(59.179688 0.78125)" xlink:href="#DejaVuSans-20"/>
      <use transform="translate(90.966797 0.78125)" xlink:href="#DejaVuSans-20"/>
      <use transform="translate(122.753906 0.78125)" xlink:href="#DejaVuSans-20"/>
      <use transform="translate(154.541016 0.78125)" xlink:href="#DejaVuSans-47"/>
      <use transform="translate(232.03125 0.78125)" xlink:href="#DejaVuSans-45"/>
      <use transform="translate(295.214844 0.78125)" xlink:href="#DejaVuSans-41"/>
      <use transform="translate(363.623047 0.78125)" xlink:href="#DejaVuSans-4e"/>
      <use transform="translate(438.427734 0.78125)" xlink:href="#DejaVuSans-54"/>
     </g>
    </g>
    <g id="patch_10">
     <path d="M 732.2 212.91 
L 772.2 212.91 
L 772.2 198.91 
L 732.2 198.91 
z
" style="fill:#bfbf00;opacity:0.4;stroke:#bfbf00;stroke-linejoin:miter;"/>
    </g>
    <g id="text_20">
     <!-- $\pi^{+}$ GEANT -->
     <g transform="translate(788.2 212.91)scale(0.2 -0.2)">
      <use transform="translate(0 0.826562)" xlink:href="#DejaVuSans-Oblique-3c0"/>
      <use transform="translate(64.671224 39.107812)scale(0.7)" xlink:href="#DejaVuSans-2b"/>
      <use transform="translate(126.057943 0.826562)" xlink:href="#DejaVuSans-20"/>
      <use transform="translate(157.845052 0.826562)" xlink:href="#DejaVuSans-47"/>
      <use transform="translate(235.335286 0.826562)" xlink:href="#DejaVuSans-45"/>
      <use transform="translate(298.51888 0.826562)" xlink:href="#DejaVuSans-41"/>
      <use transform="translate(366.927083 0.826562)" xlink:href="#DejaVuSans-4e"/>
      <use transform="translate(441.731771 0.826562)" xlink:href="#DejaVuSans-54"/>
     </g>
    </g>
   </g>
  </g>
 </g>
 <defs>
  <clipPath id="p72dacf92e2">
   <rect height="761.04" width="781.2" x="126" y="120.96"/>
  </clipPath>
 </defs>
</svg>
