<?xml version="1.0" encoding="utf-8" standalone="no"?>
<!DOCTYPE svg PUBLIC "-//W3C//DTD SVG 1.1//EN"
  "http://www.w3.org/Graphics/SVG/1.1/DTD/svg11.dtd">
<svg height="1008pt" version="1.1" viewBox="0 0 1008 1008" width="1008pt" xmlns="http://www.w3.org/2000/svg" xmlns:xlink="http://www.w3.org/1999/xlink">
 <metadata>
  <rdf:RDF xmlns:cc="http://creativecommons.org/ns#" xmlns:dc="http://purl.org/dc/elements/1.1/" xmlns:rdf="http://www.w3.org/1999/02/22-rdf-syntax-ns#">
   <cc:Work>
    <dc:type rdf:resource="http://purl.org/dc/dcmitype/StillImage"/>
    <dc:date>2021-09-27T15:02:10.991723</dc:date>
    <dc:format>image/svg+xml</dc:format>
    <dc:creator>
     <cc:Agent>
      <dc:title>Matplotlib v3.4.2, https://matplotlib.org/</dc:title>
     </cc:Agent>
    </dc:creator>
   </cc:Work>
  </rdf:RDF>
 </metadata>
 <defs>
  <style type="text/css">*{stroke-linecap:butt;stroke-linejoin:round;}</style>
 </defs>
 <g id="figure_1">
  <g id="patch_1">
   <path d="M 0 1008 
L 1008 1008 
L 1008 0 
L 0 0 
z
" style="fill:none;"/>
  </g>
  <g id="axes_1">
   <g id="patch_2">
    <path d="M 126 882 
L 907.2 882 
L 907.2 120.96 
L 126 120.96 
z
" style="fill:#ffffff;"/>
   </g>
   <g id="PolyCollection_1">
    <path clip-path="url(#pcea543f7fd)" d="M 161.509091 205016.565616 
L 161.509091 205016.565616 
L 161.509091 205016.565616 
L 161.509091 270.277715 
L 176.304545 270.277715 
L 176.304545 294.257905 
L 205.895455 294.257905 
L 205.895455 285.995924 
L 235.486364 285.995924 
L 235.486364 274.057202 
L 265.077273 274.057202 
L 265.077273 272.012464 
L 294.668182 272.012464 
L 294.668182 256.025953 
L 324.259091 256.025953 
L 324.259091 246.234724 
L 353.85 246.234724 
L 353.85 237.783614 
L 383.440909 237.783614 
L 383.440909 266.27302 
L 413.031818 266.27302 
L 413.031818 234.017506 
L 442.622727 234.017506 
L 442.622727 233.667034 
L 472.213636 233.667034 
L 472.213636 260.763824 
L 501.804545 260.763824 
L 501.804545 303.754247 
L 531.395455 303.754247 
L 531.395455 369.966579 
L 560.986364 369.966579 
L 560.986364 428.231975 
L 590.577273 428.231975 
L 590.577273 529.658301 
L 620.168182 529.658301 
L 620.168182 634.787005 
L 649.759091 634.787005 
L 649.759091 704.699155 
L 679.35 704.699155 
L 679.35 847.407273 
L 708.940909 847.407273 
L 708.940909 205016.565616 
L 738.531818 205016.565616 
L 738.531818 205016.565616 
L 768.122727 205016.565616 
L 768.122727 205016.565616 
L 797.713636 205016.565616 
L 797.713636 847.407273 
L 827.304545 847.407273 
L 827.304545 205016.565616 
L 856.895455 205016.565616 
L 856.895455 205016.565616 
L 871.690909 205016.565616 
L 871.690909 205016.565616 
L 871.690909 205016.565616 
L 871.690909 205016.565616 
L 871.690909 205016.565616 
L 871.690909 205016.565616 
L 871.690909 205016.565616 
L 856.895455 205016.565616 
L 856.895455 205016.565616 
L 827.304545 205016.565616 
L 827.304545 205016.565616 
L 797.713636 205016.565616 
L 797.713636 205016.565616 
L 768.122727 205016.565616 
L 768.122727 205016.565616 
L 738.531818 205016.565616 
L 738.531818 205016.565616 
L 708.940909 205016.565616 
L 708.940909 205016.565616 
L 679.35 205016.565616 
L 679.35 205016.565616 
L 649.759091 205016.565616 
L 649.759091 205016.565616 
L 620.168182 205016.565616 
L 620.168182 205016.565616 
L 590.577273 205016.565616 
L 590.577273 205016.565616 
L 560.986364 205016.565616 
L 560.986364 205016.565616 
L 531.395455 205016.565616 
L 531.395455 205016.565616 
L 501.804545 205016.565616 
L 501.804545 205016.565616 
L 472.213636 205016.565616 
L 472.213636 205016.565616 
L 442.622727 205016.565616 
L 442.622727 205016.565616 
L 413.031818 205016.565616 
L 413.031818 205016.565616 
L 383.440909 205016.565616 
L 383.440909 205016.565616 
L 353.85 205016.565616 
L 353.85 205016.565616 
L 324.259091 205016.565616 
L 324.259091 205016.565616 
L 294.668182 205016.565616 
L 294.668182 205016.565616 
L 265.077273 205016.565616 
L 265.077273 205016.565616 
L 235.486364 205016.565616 
L 235.486364 205016.565616 
L 205.895455 205016.565616 
L 205.895455 205016.565616 
L 176.304545 205016.565616 
L 176.304545 205016.565616 
L 161.509091 205016.565616 
L 161.509091 205016.565616 
L 161.509091 205016.565616 
z
" style="fill:#00bfbf;fill-opacity:0.4;stroke:#00bfbf;stroke-opacity:0.4;"/>
   </g>
   <g id="PolyCollection_2">
    <path clip-path="url(#pcea543f7fd)" d="M 161.509091 205016.565616 
L 161.509091 205016.565616 
L 161.509091 205016.565616 
L 161.509091 285.054291 
L 176.304545 285.054291 
L 176.304545 297.791023 
L 205.895455 297.791023 
L 205.895455 296.360839 
L 235.486364 296.360839 
L 235.486364 290.030721 
L 265.077273 290.030721 
L 265.077273 288.071093 
L 294.668182 288.071093 
L 294.668182 277.860927 
L 324.259091 277.860927 
L 324.259091 263.048318 
L 353.85 263.048318 
L 353.85 244.934414 
L 383.440909 244.934414 
L 383.440909 268.835902 
L 413.031818 268.835902 
L 413.031818 231.678262 
L 442.622727 231.678262 
L 442.622727 234.811172 
L 472.213636 234.811172 
L 472.213636 243.164897 
L 501.804545 243.164897 
L 501.804545 271.87781 
L 531.395455 271.87781 
L 531.395455 307.494472 
L 560.986364 307.494472 
L 560.986364 364.447582 
L 590.577273 364.447582 
L 590.577273 449.401956 
L 620.168182 449.401956 
L 620.168182 534.726511 
L 649.759091 534.726511 
L 649.759091 573.325964 
L 679.35 573.325964 
L 679.35 688.532787 
L 708.940909 688.532787 
L 708.940909 785.946232 
L 738.531818 785.946232 
L 738.531818 847.407273 
L 768.122727 847.407273 
L 768.122727 205016.565616 
L 797.713636 205016.565616 
L 797.713636 205016.565616 
L 827.304545 205016.565616 
L 827.304545 205016.565616 
L 856.895455 205016.565616 
L 856.895455 205016.565616 
L 871.690909 205016.565616 
L 871.690909 205016.565616 
L 871.690909 205016.565616 
L 871.690909 205016.565616 
L 871.690909 205016.565616 
L 871.690909 205016.565616 
L 871.690909 205016.565616 
L 856.895455 205016.565616 
L 856.895455 205016.565616 
L 827.304545 205016.565616 
L 827.304545 205016.565616 
L 797.713636 205016.565616 
L 797.713636 205016.565616 
L 768.122727 205016.565616 
L 768.122727 205016.565616 
L 738.531818 205016.565616 
L 738.531818 205016.565616 
L 708.940909 205016.565616 
L 708.940909 205016.565616 
L 679.35 205016.565616 
L 679.35 205016.565616 
L 649.759091 205016.565616 
L 649.759091 205016.565616 
L 620.168182 205016.565616 
L 620.168182 205016.565616 
L 590.577273 205016.565616 
L 590.577273 205016.565616 
L 560.986364 205016.565616 
L 560.986364 205016.565616 
L 531.395455 205016.565616 
L 531.395455 205016.565616 
L 501.804545 205016.565616 
L 501.804545 205016.565616 
L 472.213636 205016.565616 
L 472.213636 205016.565616 
L 442.622727 205016.565616 
L 442.622727 205016.565616 
L 413.031818 205016.565616 
L 413.031818 205016.565616 
L 383.440909 205016.565616 
L 383.440909 205016.565616 
L 353.85 205016.565616 
L 353.85 205016.565616 
L 324.259091 205016.565616 
L 324.259091 205016.565616 
L 294.668182 205016.565616 
L 294.668182 205016.565616 
L 265.077273 205016.565616 
L 265.077273 205016.565616 
L 235.486364 205016.565616 
L 235.486364 205016.565616 
L 205.895455 205016.565616 
L 205.895455 205016.565616 
L 176.304545 205016.565616 
L 176.304545 205016.565616 
L 161.509091 205016.565616 
L 161.509091 205016.565616 
L 161.509091 205016.565616 
z
" style="fill:#bf00bf;fill-opacity:0.4;stroke:#bf00bf;stroke-opacity:0.4;"/>
   </g>
   <g id="PolyCollection_3">
    <path clip-path="url(#pcea543f7fd)" d="M 161.509091 205016.565616 
L 161.509091 205016.565616 
L 161.509091 205016.565616 
L 161.509091 186.709109 
L 176.304545 186.709109 
L 176.304545 200.497808 
L 205.895455 200.497808 
L 205.895455 327.4818 
L 235.486364 327.4818 
L 235.486364 400.209093 
L 265.077273 400.209093 
L 265.077273 391.498336 
L 294.668182 391.498336 
L 294.668182 390.467284 
L 324.259091 390.467284 
L 324.259091 390.467284 
L 353.85 390.467284 
L 353.85 383.094379 
L 383.440909 383.094379 
L 383.440909 414.451478 
L 413.031818 414.451478 
L 413.031818 369.156806 
L 442.622727 369.156806 
L 442.622727 364.447582 
L 472.213636 364.447582 
L 472.213636 362.183556 
L 501.804545 362.183556 
L 501.804545 343.748987 
L 531.395455 343.748987 
L 531.395455 337.048265 
L 560.986364 337.048265 
L 560.986364 313.525909 
L 590.577273 313.525909 
L 590.577273 313.096516 
L 620.168182 313.096516 
L 620.168182 345.893087 
L 649.759091 345.893087 
L 649.759091 292.883156 
L 679.35 292.883156 
L 679.35 296.894458 
L 708.940909 296.894458 
L 708.940909 290.030721 
L 738.531818 290.030721 
L 738.531818 299.061642 
L 768.122727 299.061642 
L 768.122727 304.723323 
L 797.713636 304.723323 
L 797.713636 335.105506 
L 827.304545 335.105506 
L 827.304545 386.458938 
L 856.895455 386.458938 
L 856.895455 507.923406 
L 871.690909 507.923406 
L 871.690909 704.699155 
L 871.690909 704.699155 
L 871.690909 205016.565616 
L 871.690909 205016.565616 
L 871.690909 205016.565616 
L 871.690909 205016.565616 
L 856.895455 205016.565616 
L 856.895455 205016.565616 
L 827.304545 205016.565616 
L 827.304545 205016.565616 
L 797.713636 205016.565616 
L 797.713636 205016.565616 
L 768.122727 205016.565616 
L 768.122727 205016.565616 
L 738.531818 205016.565616 
L 738.531818 205016.565616 
L 708.940909 205016.565616 
L 708.940909 205016.565616 
L 679.35 205016.565616 
L 679.35 205016.565616 
L 649.759091 205016.565616 
L 649.759091 205016.565616 
L 620.168182 205016.565616 
L 620.168182 205016.565616 
L 590.577273 205016.565616 
L 590.577273 205016.565616 
L 560.986364 205016.565616 
L 560.986364 205016.565616 
L 531.395455 205016.565616 
L 531.395455 205016.565616 
L 501.804545 205016.565616 
L 501.804545 205016.565616 
L 472.213636 205016.565616 
L 472.213636 205016.565616 
L 442.622727 205016.565616 
L 442.622727 205016.565616 
L 413.031818 205016.565616 
L 413.031818 205016.565616 
L 383.440909 205016.565616 
L 383.440909 205016.565616 
L 353.85 205016.565616 
L 353.85 205016.565616 
L 324.259091 205016.565616 
L 324.259091 205016.565616 
L 294.668182 205016.565616 
L 294.668182 205016.565616 
L 265.077273 205016.565616 
L 265.077273 205016.565616 
L 235.486364 205016.565616 
L 235.486364 205016.565616 
L 205.895455 205016.565616 
L 205.895455 205016.565616 
L 176.304545 205016.565616 
L 176.304545 205016.565616 
L 161.509091 205016.565616 
L 161.509091 205016.565616 
L 161.509091 205016.565616 
z
" style="fill:#bfbf00;fill-opacity:0.4;stroke:#bfbf00;stroke-opacity:0.4;"/>
   </g>
   <g id="matplotlib.axis_1">
    <g id="xtick_1">
     <g id="line2d_1">
      <defs>
       <path d="M 0 0 
L 0 3.5 
" id="m4122bfb4fa" style="stroke:#000000;stroke-width:0.8;"/>
      </defs>
      <g>
       <use style="stroke:#000000;stroke-width:0.8;" x="146.713636" xlink:href="#m4122bfb4fa" y="882"/>
      </g>
     </g>
     <g id="text_1">
      <!-- 0.0 -->
      <g transform="translate(122.858949 911.795313)scale(0.3 -0.3)">
       <defs>
        <path d="M 2034 4250 
Q 1547 4250 1301 3770 
Q 1056 3291 1056 2328 
Q 1056 1369 1301 889 
Q 1547 409 2034 409 
Q 2525 409 2770 889 
Q 3016 1369 3016 2328 
Q 3016 3291 2770 3770 
Q 2525 4250 2034 4250 
z
M 2034 4750 
Q 2819 4750 3233 4129 
Q 3647 3509 3647 2328 
Q 3647 1150 3233 529 
Q 2819 -91 2034 -91 
Q 1250 -91 836 529 
Q 422 1150 422 2328 
Q 422 3509 836 4129 
Q 1250 4750 2034 4750 
z
" id="DejaVuSans-30" transform="scale(0.015625)"/>
        <path d="M 684 794 
L 1344 794 
L 1344 0 
L 684 0 
L 684 794 
z
" id="DejaVuSans-2e" transform="scale(0.015625)"/>
       </defs>
       <use xlink:href="#DejaVuSans-30"/>
       <use x="63.623047" xlink:href="#DejaVuSans-2e"/>
       <use x="95.410156" xlink:href="#DejaVuSans-30"/>
      </g>
     </g>
    </g>
    <g id="xtick_2">
     <g id="line2d_2">
      <g>
       <use style="stroke:#000000;stroke-width:0.8;" x="294.668182" xlink:href="#m4122bfb4fa" y="882"/>
      </g>
     </g>
     <g id="text_2">
      <!-- 0.2 -->
      <g transform="translate(270.813494 911.795313)scale(0.3 -0.3)">
       <defs>
        <path d="M 1228 531 
L 3431 531 
L 3431 0 
L 469 0 
L 469 531 
Q 828 903 1448 1529 
Q 2069 2156 2228 2338 
Q 2531 2678 2651 2914 
Q 2772 3150 2772 3378 
Q 2772 3750 2511 3984 
Q 2250 4219 1831 4219 
Q 1534 4219 1204 4116 
Q 875 4013 500 3803 
L 500 4441 
Q 881 4594 1212 4672 
Q 1544 4750 1819 4750 
Q 2544 4750 2975 4387 
Q 3406 4025 3406 3419 
Q 3406 3131 3298 2873 
Q 3191 2616 2906 2266 
Q 2828 2175 2409 1742 
Q 1991 1309 1228 531 
z
" id="DejaVuSans-32" transform="scale(0.015625)"/>
       </defs>
       <use xlink:href="#DejaVuSans-30"/>
       <use x="63.623047" xlink:href="#DejaVuSans-2e"/>
       <use x="95.410156" xlink:href="#DejaVuSans-32"/>
      </g>
     </g>
    </g>
    <g id="xtick_3">
     <g id="line2d_3">
      <g>
       <use style="stroke:#000000;stroke-width:0.8;" x="442.622727" xlink:href="#m4122bfb4fa" y="882"/>
      </g>
     </g>
     <g id="text_3">
      <!-- 0.4 -->
      <g transform="translate(418.76804 911.795313)scale(0.3 -0.3)">
       <defs>
        <path d="M 2419 4116 
L 825 1625 
L 2419 1625 
L 2419 4116 
z
M 2253 4666 
L 3047 4666 
L 3047 1625 
L 3713 1625 
L 3713 1100 
L 3047 1100 
L 3047 0 
L 2419 0 
L 2419 1100 
L 313 1100 
L 313 1709 
L 2253 4666 
z
" id="DejaVuSans-34" transform="scale(0.015625)"/>
       </defs>
       <use xlink:href="#DejaVuSans-30"/>
       <use x="63.623047" xlink:href="#DejaVuSans-2e"/>
       <use x="95.410156" xlink:href="#DejaVuSans-34"/>
      </g>
     </g>
    </g>
    <g id="xtick_4">
     <g id="line2d_4">
      <g>
       <use style="stroke:#000000;stroke-width:0.8;" x="590.577273" xlink:href="#m4122bfb4fa" y="882"/>
      </g>
     </g>
     <g id="text_4">
      <!-- 0.6 -->
      <g transform="translate(566.722585 911.795313)scale(0.3 -0.3)">
       <defs>
        <path d="M 2113 2584 
Q 1688 2584 1439 2293 
Q 1191 2003 1191 1497 
Q 1191 994 1439 701 
Q 1688 409 2113 409 
Q 2538 409 2786 701 
Q 3034 994 3034 1497 
Q 3034 2003 2786 2293 
Q 2538 2584 2113 2584 
z
M 3366 4563 
L 3366 3988 
Q 3128 4100 2886 4159 
Q 2644 4219 2406 4219 
Q 1781 4219 1451 3797 
Q 1122 3375 1075 2522 
Q 1259 2794 1537 2939 
Q 1816 3084 2150 3084 
Q 2853 3084 3261 2657 
Q 3669 2231 3669 1497 
Q 3669 778 3244 343 
Q 2819 -91 2113 -91 
Q 1303 -91 875 529 
Q 447 1150 447 2328 
Q 447 3434 972 4092 
Q 1497 4750 2381 4750 
Q 2619 4750 2861 4703 
Q 3103 4656 3366 4563 
z
" id="DejaVuSans-36" transform="scale(0.015625)"/>
       </defs>
       <use xlink:href="#DejaVuSans-30"/>
       <use x="63.623047" xlink:href="#DejaVuSans-2e"/>
       <use x="95.410156" xlink:href="#DejaVuSans-36"/>
      </g>
     </g>
    </g>
    <g id="xtick_5">
     <g id="line2d_5">
      <g>
       <use style="stroke:#000000;stroke-width:0.8;" x="738.531818" xlink:href="#m4122bfb4fa" y="882"/>
      </g>
     </g>
     <g id="text_5">
      <!-- 0.8 -->
      <g transform="translate(714.677131 911.795313)scale(0.3 -0.3)">
       <defs>
        <path d="M 2034 2216 
Q 1584 2216 1326 1975 
Q 1069 1734 1069 1313 
Q 1069 891 1326 650 
Q 1584 409 2034 409 
Q 2484 409 2743 651 
Q 3003 894 3003 1313 
Q 3003 1734 2745 1975 
Q 2488 2216 2034 2216 
z
M 1403 2484 
Q 997 2584 770 2862 
Q 544 3141 544 3541 
Q 544 4100 942 4425 
Q 1341 4750 2034 4750 
Q 2731 4750 3128 4425 
Q 3525 4100 3525 3541 
Q 3525 3141 3298 2862 
Q 3072 2584 2669 2484 
Q 3125 2378 3379 2068 
Q 3634 1759 3634 1313 
Q 3634 634 3220 271 
Q 2806 -91 2034 -91 
Q 1263 -91 848 271 
Q 434 634 434 1313 
Q 434 1759 690 2068 
Q 947 2378 1403 2484 
z
M 1172 3481 
Q 1172 3119 1398 2916 
Q 1625 2713 2034 2713 
Q 2441 2713 2670 2916 
Q 2900 3119 2900 3481 
Q 2900 3844 2670 4047 
Q 2441 4250 2034 4250 
Q 1625 4250 1398 4047 
Q 1172 3844 1172 3481 
z
" id="DejaVuSans-38" transform="scale(0.015625)"/>
       </defs>
       <use xlink:href="#DejaVuSans-30"/>
       <use x="63.623047" xlink:href="#DejaVuSans-2e"/>
       <use x="95.410156" xlink:href="#DejaVuSans-38"/>
      </g>
     </g>
    </g>
    <g id="xtick_6">
     <g id="line2d_6">
      <g>
       <use style="stroke:#000000;stroke-width:0.8;" x="886.486364" xlink:href="#m4122bfb4fa" y="882"/>
      </g>
     </g>
     <g id="text_6">
      <!-- 1.0 -->
      <g transform="translate(862.631676 911.795313)scale(0.3 -0.3)">
       <defs>
        <path d="M 794 531 
L 1825 531 
L 1825 4091 
L 703 3866 
L 703 4441 
L 1819 4666 
L 2450 4666 
L 2450 531 
L 3481 531 
L 3481 0 
L 794 0 
L 794 531 
z
" id="DejaVuSans-31" transform="scale(0.015625)"/>
       </defs>
       <use xlink:href="#DejaVuSans-31"/>
       <use x="63.623047" xlink:href="#DejaVuSans-2e"/>
       <use x="95.410156" xlink:href="#DejaVuSans-30"/>
      </g>
     </g>
    </g>
    <g id="text_7">
     <!-- Layer 2 Sparsity -->
     <g transform="translate(394.553906 944.829687)scale(0.3 -0.3)">
      <defs>
       <path d="M 628 4666 
L 1259 4666 
L 1259 531 
L 3531 531 
L 3531 0 
L 628 0 
L 628 4666 
z
" id="DejaVuSans-4c" transform="scale(0.015625)"/>
       <path d="M 2194 1759 
Q 1497 1759 1228 1600 
Q 959 1441 959 1056 
Q 959 750 1161 570 
Q 1363 391 1709 391 
Q 2188 391 2477 730 
Q 2766 1069 2766 1631 
L 2766 1759 
L 2194 1759 
z
M 3341 1997 
L 3341 0 
L 2766 0 
L 2766 531 
Q 2569 213 2275 61 
Q 1981 -91 1556 -91 
Q 1019 -91 701 211 
Q 384 513 384 1019 
Q 384 1609 779 1909 
Q 1175 2209 1959 2209 
L 2766 2209 
L 2766 2266 
Q 2766 2663 2505 2880 
Q 2244 3097 1772 3097 
Q 1472 3097 1187 3025 
Q 903 2953 641 2809 
L 641 3341 
Q 956 3463 1253 3523 
Q 1550 3584 1831 3584 
Q 2591 3584 2966 3190 
Q 3341 2797 3341 1997 
z
" id="DejaVuSans-61" transform="scale(0.015625)"/>
       <path d="M 2059 -325 
Q 1816 -950 1584 -1140 
Q 1353 -1331 966 -1331 
L 506 -1331 
L 506 -850 
L 844 -850 
Q 1081 -850 1212 -737 
Q 1344 -625 1503 -206 
L 1606 56 
L 191 3500 
L 800 3500 
L 1894 763 
L 2988 3500 
L 3597 3500 
L 2059 -325 
z
" id="DejaVuSans-79" transform="scale(0.015625)"/>
       <path d="M 3597 1894 
L 3597 1613 
L 953 1613 
Q 991 1019 1311 708 
Q 1631 397 2203 397 
Q 2534 397 2845 478 
Q 3156 559 3463 722 
L 3463 178 
Q 3153 47 2828 -22 
Q 2503 -91 2169 -91 
Q 1331 -91 842 396 
Q 353 884 353 1716 
Q 353 2575 817 3079 
Q 1281 3584 2069 3584 
Q 2775 3584 3186 3129 
Q 3597 2675 3597 1894 
z
M 3022 2063 
Q 3016 2534 2758 2815 
Q 2500 3097 2075 3097 
Q 1594 3097 1305 2825 
Q 1016 2553 972 2059 
L 3022 2063 
z
" id="DejaVuSans-65" transform="scale(0.015625)"/>
       <path d="M 2631 2963 
Q 2534 3019 2420 3045 
Q 2306 3072 2169 3072 
Q 1681 3072 1420 2755 
Q 1159 2438 1159 1844 
L 1159 0 
L 581 0 
L 581 3500 
L 1159 3500 
L 1159 2956 
Q 1341 3275 1631 3429 
Q 1922 3584 2338 3584 
Q 2397 3584 2469 3576 
Q 2541 3569 2628 3553 
L 2631 2963 
z
" id="DejaVuSans-72" transform="scale(0.015625)"/>
       <path id="DejaVuSans-20" transform="scale(0.015625)"/>
       <path d="M 3425 4513 
L 3425 3897 
Q 3066 4069 2747 4153 
Q 2428 4238 2131 4238 
Q 1616 4238 1336 4038 
Q 1056 3838 1056 3469 
Q 1056 3159 1242 3001 
Q 1428 2844 1947 2747 
L 2328 2669 
Q 3034 2534 3370 2195 
Q 3706 1856 3706 1288 
Q 3706 609 3251 259 
Q 2797 -91 1919 -91 
Q 1588 -91 1214 -16 
Q 841 59 441 206 
L 441 856 
Q 825 641 1194 531 
Q 1563 422 1919 422 
Q 2459 422 2753 634 
Q 3047 847 3047 1241 
Q 3047 1584 2836 1778 
Q 2625 1972 2144 2069 
L 1759 2144 
Q 1053 2284 737 2584 
Q 422 2884 422 3419 
Q 422 4038 858 4394 
Q 1294 4750 2059 4750 
Q 2388 4750 2728 4690 
Q 3069 4631 3425 4513 
z
" id="DejaVuSans-53" transform="scale(0.015625)"/>
       <path d="M 1159 525 
L 1159 -1331 
L 581 -1331 
L 581 3500 
L 1159 3500 
L 1159 2969 
Q 1341 3281 1617 3432 
Q 1894 3584 2278 3584 
Q 2916 3584 3314 3078 
Q 3713 2572 3713 1747 
Q 3713 922 3314 415 
Q 2916 -91 2278 -91 
Q 1894 -91 1617 61 
Q 1341 213 1159 525 
z
M 3116 1747 
Q 3116 2381 2855 2742 
Q 2594 3103 2138 3103 
Q 1681 3103 1420 2742 
Q 1159 2381 1159 1747 
Q 1159 1113 1420 752 
Q 1681 391 2138 391 
Q 2594 391 2855 752 
Q 3116 1113 3116 1747 
z
" id="DejaVuSans-70" transform="scale(0.015625)"/>
       <path d="M 2834 3397 
L 2834 2853 
Q 2591 2978 2328 3040 
Q 2066 3103 1784 3103 
Q 1356 3103 1142 2972 
Q 928 2841 928 2578 
Q 928 2378 1081 2264 
Q 1234 2150 1697 2047 
L 1894 2003 
Q 2506 1872 2764 1633 
Q 3022 1394 3022 966 
Q 3022 478 2636 193 
Q 2250 -91 1575 -91 
Q 1294 -91 989 -36 
Q 684 19 347 128 
L 347 722 
Q 666 556 975 473 
Q 1284 391 1588 391 
Q 1994 391 2212 530 
Q 2431 669 2431 922 
Q 2431 1156 2273 1281 
Q 2116 1406 1581 1522 
L 1381 1569 
Q 847 1681 609 1914 
Q 372 2147 372 2553 
Q 372 3047 722 3315 
Q 1072 3584 1716 3584 
Q 2034 3584 2315 3537 
Q 2597 3491 2834 3397 
z
" id="DejaVuSans-73" transform="scale(0.015625)"/>
       <path d="M 603 3500 
L 1178 3500 
L 1178 0 
L 603 0 
L 603 3500 
z
M 603 4863 
L 1178 4863 
L 1178 4134 
L 603 4134 
L 603 4863 
z
" id="DejaVuSans-69" transform="scale(0.015625)"/>
       <path d="M 1172 4494 
L 1172 3500 
L 2356 3500 
L 2356 3053 
L 1172 3053 
L 1172 1153 
Q 1172 725 1289 603 
Q 1406 481 1766 481 
L 2356 481 
L 2356 0 
L 1766 0 
Q 1100 0 847 248 
Q 594 497 594 1153 
L 594 3053 
L 172 3053 
L 172 3500 
L 594 3500 
L 594 4494 
L 1172 4494 
z
" id="DejaVuSans-74" transform="scale(0.015625)"/>
      </defs>
      <use xlink:href="#DejaVuSans-4c"/>
      <use x="55.712891" xlink:href="#DejaVuSans-61"/>
      <use x="116.992188" xlink:href="#DejaVuSans-79"/>
      <use x="176.171875" xlink:href="#DejaVuSans-65"/>
      <use x="237.695312" xlink:href="#DejaVuSans-72"/>
      <use x="278.808594" xlink:href="#DejaVuSans-20"/>
      <use x="310.595703" xlink:href="#DejaVuSans-32"/>
      <use x="374.21875" xlink:href="#DejaVuSans-20"/>
      <use x="406.005859" xlink:href="#DejaVuSans-53"/>
      <use x="469.482422" xlink:href="#DejaVuSans-70"/>
      <use x="532.958984" xlink:href="#DejaVuSans-61"/>
      <use x="594.238281" xlink:href="#DejaVuSans-72"/>
      <use x="635.351562" xlink:href="#DejaVuSans-73"/>
      <use x="687.451172" xlink:href="#DejaVuSans-69"/>
      <use x="715.234375" xlink:href="#DejaVuSans-74"/>
      <use x="754.443359" xlink:href="#DejaVuSans-79"/>
     </g>
    </g>
   </g>
   <g id="matplotlib.axis_2">
    <g id="ytick_1">
     <g id="line2d_7">
      <defs>
       <path d="M 0 0 
L -3.5 0 
" id="mf85d782394" style="stroke:#000000;stroke-width:0.8;"/>
      </defs>
      <g>
       <use style="stroke:#000000;stroke-width:0.8;" x="126" xlink:href="#mf85d782394" y="847.407273"/>
      </g>
     </g>
     <g id="text_8">
      <!-- $\mathdefault{10^{0}}$ -->
      <g transform="translate(66.2 858.804929)scale(0.3 -0.3)">
       <use transform="translate(0 0.765625)" xlink:href="#DejaVuSans-31"/>
       <use transform="translate(63.623047 0.765625)" xlink:href="#DejaVuSans-30"/>
       <use transform="translate(128.203125 39.046875)scale(0.7)" xlink:href="#DejaVuSans-30"/>
      </g>
     </g>
    </g>
    <g id="ytick_2">
     <g id="line2d_8">
      <g>
       <use style="stroke:#000000;stroke-width:0.8;" x="126" xlink:href="#mf85d782394" y="643.238114"/>
      </g>
     </g>
     <g id="text_9">
      <!-- $\mathdefault{10^{1}}$ -->
      <g transform="translate(66.2 654.635771)scale(0.3 -0.3)">
       <use transform="translate(0 0.684375)" xlink:href="#DejaVuSans-31"/>
       <use transform="translate(63.623047 0.684375)" xlink:href="#DejaVuSans-30"/>
       <use transform="translate(128.203125 38.965625)scale(0.7)" xlink:href="#DejaVuSans-31"/>
      </g>
     </g>
    </g>
    <g id="ytick_3">
     <g id="line2d_9">
      <g>
       <use style="stroke:#000000;stroke-width:0.8;" x="126" xlink:href="#mf85d782394" y="439.068956"/>
      </g>
     </g>
     <g id="text_10">
      <!-- $\mathdefault{10^{2}}$ -->
      <g transform="translate(66.2 450.466612)scale(0.3 -0.3)">
       <use transform="translate(0 0.765625)" xlink:href="#DejaVuSans-31"/>
       <use transform="translate(63.623047 0.765625)" xlink:href="#DejaVuSans-30"/>
       <use transform="translate(128.203125 39.046875)scale(0.7)" xlink:href="#DejaVuSans-32"/>
      </g>
     </g>
    </g>
    <g id="ytick_4">
     <g id="line2d_10">
      <g>
       <use style="stroke:#000000;stroke-width:0.8;" x="126" xlink:href="#mf85d782394" y="234.899798"/>
      </g>
     </g>
     <g id="text_11">
      <!-- $\mathdefault{10^{3}}$ -->
      <g transform="translate(66.2 246.297454)scale(0.3 -0.3)">
       <defs>
        <path d="M 2597 2516 
Q 3050 2419 3304 2112 
Q 3559 1806 3559 1356 
Q 3559 666 3084 287 
Q 2609 -91 1734 -91 
Q 1441 -91 1130 -33 
Q 819 25 488 141 
L 488 750 
Q 750 597 1062 519 
Q 1375 441 1716 441 
Q 2309 441 2620 675 
Q 2931 909 2931 1356 
Q 2931 1769 2642 2001 
Q 2353 2234 1838 2234 
L 1294 2234 
L 1294 2753 
L 1863 2753 
Q 2328 2753 2575 2939 
Q 2822 3125 2822 3475 
Q 2822 3834 2567 4026 
Q 2313 4219 1838 4219 
Q 1578 4219 1281 4162 
Q 984 4106 628 3988 
L 628 4550 
Q 988 4650 1302 4700 
Q 1616 4750 1894 4750 
Q 2613 4750 3031 4423 
Q 3450 4097 3450 3541 
Q 3450 3153 3228 2886 
Q 3006 2619 2597 2516 
z
" id="DejaVuSans-33" transform="scale(0.015625)"/>
       </defs>
       <use transform="translate(0 0.765625)" xlink:href="#DejaVuSans-31"/>
       <use transform="translate(63.623047 0.765625)" xlink:href="#DejaVuSans-30"/>
       <use transform="translate(128.203125 39.046875)scale(0.7)" xlink:href="#DejaVuSans-33"/>
      </g>
     </g>
    </g>
    <g id="ytick_5">
     <g id="line2d_11">
      <defs>
       <path d="M 0 0 
L -2 0 
" id="m32d5633397" style="stroke:#000000;stroke-width:0.6;"/>
      </defs>
      <g>
       <use style="stroke:#000000;stroke-width:0.6;" x="126" xlink:href="#m32d5633397" y="879.033476"/>
      </g>
     </g>
    </g>
    <g id="ytick_6">
     <g id="line2d_12">
      <g>
       <use style="stroke:#000000;stroke-width:0.6;" x="126" xlink:href="#m32d5633397" y="867.193309"/>
      </g>
     </g>
    </g>
    <g id="ytick_7">
     <g id="line2d_13">
      <g>
       <use style="stroke:#000000;stroke-width:0.6;" x="126" xlink:href="#m32d5633397" y="856.749541"/>
      </g>
     </g>
    </g>
    <g id="ytick_8">
     <g id="line2d_14">
      <g>
       <use style="stroke:#000000;stroke-width:0.6;" x="126" xlink:href="#m32d5633397" y="785.946232"/>
      </g>
     </g>
    </g>
    <g id="ytick_9">
     <g id="line2d_15">
      <g>
       <use style="stroke:#000000;stroke-width:0.6;" x="126" xlink:href="#m32d5633397" y="749.993828"/>
      </g>
     </g>
    </g>
    <g id="ytick_10">
     <g id="line2d_16">
      <g>
       <use style="stroke:#000000;stroke-width:0.6;" x="126" xlink:href="#m32d5633397" y="724.485191"/>
      </g>
     </g>
    </g>
    <g id="ytick_11">
     <g id="line2d_17">
      <g>
       <use style="stroke:#000000;stroke-width:0.6;" x="126" xlink:href="#m32d5633397" y="704.699155"/>
      </g>
     </g>
    </g>
    <g id="ytick_12">
     <g id="line2d_18">
      <g>
       <use style="stroke:#000000;stroke-width:0.6;" x="126" xlink:href="#m32d5633397" y="688.532787"/>
      </g>
     </g>
    </g>
    <g id="ytick_13">
     <g id="line2d_19">
      <g>
       <use style="stroke:#000000;stroke-width:0.6;" x="126" xlink:href="#m32d5633397" y="674.864317"/>
      </g>
     </g>
    </g>
    <g id="ytick_14">
     <g id="line2d_20">
      <g>
       <use style="stroke:#000000;stroke-width:0.6;" x="126" xlink:href="#m32d5633397" y="663.02415"/>
      </g>
     </g>
    </g>
    <g id="ytick_15">
     <g id="line2d_21">
      <g>
       <use style="stroke:#000000;stroke-width:0.6;" x="126" xlink:href="#m32d5633397" y="652.580383"/>
      </g>
     </g>
    </g>
    <g id="ytick_16">
     <g id="line2d_22">
      <g>
       <use style="stroke:#000000;stroke-width:0.6;" x="126" xlink:href="#m32d5633397" y="581.777074"/>
      </g>
     </g>
    </g>
    <g id="ytick_17">
     <g id="line2d_23">
      <g>
       <use style="stroke:#000000;stroke-width:0.6;" x="126" xlink:href="#m32d5633397" y="545.824669"/>
      </g>
     </g>
    </g>
    <g id="ytick_18">
     <g id="line2d_24">
      <g>
       <use style="stroke:#000000;stroke-width:0.6;" x="126" xlink:href="#m32d5633397" y="520.316033"/>
      </g>
     </g>
    </g>
    <g id="ytick_19">
     <g id="line2d_25">
      <g>
       <use style="stroke:#000000;stroke-width:0.6;" x="126" xlink:href="#m32d5633397" y="500.529997"/>
      </g>
     </g>
    </g>
    <g id="ytick_20">
     <g id="line2d_26">
      <g>
       <use style="stroke:#000000;stroke-width:0.6;" x="126" xlink:href="#m32d5633397" y="484.363629"/>
      </g>
     </g>
    </g>
    <g id="ytick_21">
     <g id="line2d_27">
      <g>
       <use style="stroke:#000000;stroke-width:0.6;" x="126" xlink:href="#m32d5633397" y="470.695159"/>
      </g>
     </g>
    </g>
    <g id="ytick_22">
     <g id="line2d_28">
      <g>
       <use style="stroke:#000000;stroke-width:0.6;" x="126" xlink:href="#m32d5633397" y="458.854992"/>
      </g>
     </g>
    </g>
    <g id="ytick_23">
     <g id="line2d_29">
      <g>
       <use style="stroke:#000000;stroke-width:0.6;" x="126" xlink:href="#m32d5633397" y="448.411224"/>
      </g>
     </g>
    </g>
    <g id="ytick_24">
     <g id="line2d_30">
      <g>
       <use style="stroke:#000000;stroke-width:0.6;" x="126" xlink:href="#m32d5633397" y="377.607915"/>
      </g>
     </g>
    </g>
    <g id="ytick_25">
     <g id="line2d_31">
      <g>
       <use style="stroke:#000000;stroke-width:0.6;" x="126" xlink:href="#m32d5633397" y="341.655511"/>
      </g>
     </g>
    </g>
    <g id="ytick_26">
     <g id="line2d_32">
      <g>
       <use style="stroke:#000000;stroke-width:0.6;" x="126" xlink:href="#m32d5633397" y="316.146874"/>
      </g>
     </g>
    </g>
    <g id="ytick_27">
     <g id="line2d_33">
      <g>
       <use style="stroke:#000000;stroke-width:0.6;" x="126" xlink:href="#m32d5633397" y="296.360839"/>
      </g>
     </g>
    </g>
    <g id="ytick_28">
     <g id="line2d_34">
      <g>
       <use style="stroke:#000000;stroke-width:0.6;" x="126" xlink:href="#m32d5633397" y="280.19447"/>
      </g>
     </g>
    </g>
    <g id="ytick_29">
     <g id="line2d_35">
      <g>
       <use style="stroke:#000000;stroke-width:0.6;" x="126" xlink:href="#m32d5633397" y="266.526"/>
      </g>
     </g>
    </g>
    <g id="ytick_30">
     <g id="line2d_36">
      <g>
       <use style="stroke:#000000;stroke-width:0.6;" x="126" xlink:href="#m32d5633397" y="254.685833"/>
      </g>
     </g>
    </g>
    <g id="ytick_31">
     <g id="line2d_37">
      <g>
       <use style="stroke:#000000;stroke-width:0.6;" x="126" xlink:href="#m32d5633397" y="244.242066"/>
      </g>
     </g>
    </g>
    <g id="ytick_32">
     <g id="line2d_38">
      <g>
       <use style="stroke:#000000;stroke-width:0.6;" x="126" xlink:href="#m32d5633397" y="173.438757"/>
      </g>
     </g>
    </g>
    <g id="ytick_33">
     <g id="line2d_39">
      <g>
       <use style="stroke:#000000;stroke-width:0.6;" x="126" xlink:href="#m32d5633397" y="137.486353"/>
      </g>
     </g>
    </g>
    <g id="text_12">
     <!-- Events -->
     <g transform="translate(55.960938 552.266719)rotate(-90)scale(0.3 -0.3)">
      <defs>
       <path d="M 628 4666 
L 3578 4666 
L 3578 4134 
L 1259 4134 
L 1259 2753 
L 3481 2753 
L 3481 2222 
L 1259 2222 
L 1259 531 
L 3634 531 
L 3634 0 
L 628 0 
L 628 4666 
z
" id="DejaVuSans-45" transform="scale(0.015625)"/>
       <path d="M 191 3500 
L 800 3500 
L 1894 563 
L 2988 3500 
L 3597 3500 
L 2284 0 
L 1503 0 
L 191 3500 
z
" id="DejaVuSans-76" transform="scale(0.015625)"/>
       <path d="M 3513 2113 
L 3513 0 
L 2938 0 
L 2938 2094 
Q 2938 2591 2744 2837 
Q 2550 3084 2163 3084 
Q 1697 3084 1428 2787 
Q 1159 2491 1159 1978 
L 1159 0 
L 581 0 
L 581 3500 
L 1159 3500 
L 1159 2956 
Q 1366 3272 1645 3428 
Q 1925 3584 2291 3584 
Q 2894 3584 3203 3211 
Q 3513 2838 3513 2113 
z
" id="DejaVuSans-6e" transform="scale(0.015625)"/>
      </defs>
      <use xlink:href="#DejaVuSans-45"/>
      <use x="63.183594" xlink:href="#DejaVuSans-76"/>
      <use x="122.363281" xlink:href="#DejaVuSans-65"/>
      <use x="183.886719" xlink:href="#DejaVuSans-6e"/>
      <use x="247.265625" xlink:href="#DejaVuSans-74"/>
      <use x="286.474609" xlink:href="#DejaVuSans-73"/>
     </g>
    </g>
   </g>
   <g id="line2d_40">
    <path clip-path="url(#pcea543f7fd)" d="M 161.509091 1009 
L 161.509091 245.332482 
L 176.304545 245.332482 
L 176.304545 283.506791 
L 205.895455 283.506791 
L 205.895455 279.020022 
L 235.486364 279.020022 
L 235.486364 270.940916 
L 265.077273 270.940916 
L 265.077273 255.241757 
L 294.668182 255.241757 
L 294.668182 239.075389 
L 324.259091 239.075389 
L 324.259091 229.90058 
L 353.85 229.90058 
L 353.85 212.803252 
L 383.440909 212.803252 
L 383.440909 237.235706 
L 413.031818 237.235706 
L 413.031818 213.218892 
L 442.622727 213.218892 
L 442.622727 254.133374 
L 472.213636 254.133374 
L 472.213636 350.017995 
L 501.804545 350.017995 
L 501.804545 469.437414 
L 531.395455 469.437414 
L 531.395455 652.580383 
L 560.986364 652.580383 
L 560.986364 1009 
" style="fill:none;stroke:#00bfbf;stroke-linecap:square;stroke-width:4;"/>
   </g>
   <g id="line2d_41">
    <path clip-path="url(#pcea543f7fd)" d="M 161.509091 1009 
L 161.509091 248.376358 
L 176.304545 248.376358 
L 176.304545 305.309893 
L 205.895455 305.309893 
L 205.895455 292.542773 
L 235.486364 292.542773 
L 235.486364 268.576255 
L 265.077273 268.576255 
L 265.077273 261.359323 
L 294.668182 261.359323 
L 294.668182 243.359775 
L 324.259091 243.359775 
L 324.259091 230.489189 
L 353.85 230.489189 
L 353.85 217.195134 
L 383.440909 217.195134 
L 383.440909 249.519156 
L 413.031818 249.519156 
L 413.031818 215.113762 
L 442.622727 215.113762 
L 442.622727 241.812612 
L 472.213636 241.812612 
L 472.213636 296.183677 
L 501.804545 296.183677 
L 501.804545 378.948034 
L 531.395455 378.948034 
L 531.395455 487.369663 
L 560.986364 487.369663 
L 560.986364 581.777074 
L 590.577273 581.777074 
L 590.577273 847.407273 
L 620.168182 847.407273 
L 620.168182 1009 
" style="fill:none;stroke:#bf00bf;stroke-linecap:square;stroke-width:4;"/>
   </g>
   <g id="line2d_42">
    <path clip-path="url(#pcea543f7fd)" d="M 161.509091 1009 
L 161.509091 155.552727 
L 176.304545 155.552727 
L 176.304545 166.49159 
L 205.895455 166.49159 
L 205.895455 349.693792 
L 235.486364 349.693792 
L 235.486364 383.567284 
L 265.077273 383.567284 
L 265.077273 403.709661 
L 294.668182 403.709661 
L 294.668182 414.451478 
L 324.259091 414.451478 
L 324.259091 412.45882 
L 353.85 412.45882 
L 353.85 397.393951 
L 383.440909 397.393951 
L 383.440909 417.875438 
L 413.031818 417.875438 
L 413.031818 394.129673 
L 442.622727 394.129673 
L 442.622727 364.830604 
L 472.213636 364.830604 
L 472.213636 355.028907 
L 501.804545 355.028907 
L 501.804545 333.204401 
L 531.395455 333.204401 
L 531.395455 331.343203 
L 560.986364 331.343203 
L 560.986364 324.753292 
L 590.577273 324.753292 
L 590.577273 303.369563 
L 620.168182 303.369563 
L 620.168182 339.034546 
L 649.759091 339.034546 
L 649.759091 298.696747 
L 679.35 298.696747 
L 679.35 300.350734 
L 708.940909 300.350734 
L 708.940909 303.177845 
L 738.531818 303.177845 
L 738.531818 334.831411 
L 768.122727 334.831411 
L 768.122727 376.725624 
L 797.713636 376.725624 
L 797.713636 490.481195 
L 827.304545 490.481195 
L 827.304545 1009 
" style="fill:none;stroke:#bfbf00;stroke-linecap:square;stroke-width:4;"/>
   </g>
   <g id="patch_3">
    <path d="M 126 882 
L 126 120.96 
" style="fill:none;stroke:#000000;stroke-linecap:square;stroke-linejoin:miter;stroke-width:0.8;"/>
   </g>
   <g id="patch_4">
    <path d="M 907.2 882 
L 907.2 120.96 
" style="fill:none;stroke:#000000;stroke-linecap:square;stroke-linejoin:miter;stroke-width:0.8;"/>
   </g>
   <g id="patch_5">
    <path d="M 126 882 
L 907.2 882 
" style="fill:none;stroke:#000000;stroke-linecap:square;stroke-linejoin:miter;stroke-width:0.8;"/>
   </g>
   <g id="patch_6">
    <path d="M 126 120.96 
L 907.2 120.96 
" style="fill:none;stroke:#000000;stroke-linecap:square;stroke-linejoin:miter;stroke-width:0.8;"/>
   </g>
   <g id="legend_1">
    <g id="patch_7">
     <path d="M 544.8 225.069375 
L 893.2 225.069375 
Q 897.2 225.069375 897.2 221.069375 
L 897.2 134.96 
Q 897.2 130.96 893.2 130.96 
L 544.8 130.96 
Q 540.8 130.96 540.8 134.96 
L 540.8 221.069375 
Q 540.8 225.069375 544.8 225.069375 
z
" style="fill:#ffffff;opacity:0.8;stroke:#cccccc;stroke-linejoin:miter;"/>
    </g>
    <g id="line2d_43">
     <path d="M 548.8 147.156875 
L 588.8 147.156875 
" style="fill:none;stroke:#00bfbf;stroke-linecap:square;stroke-width:4;"/>
    </g>
    <g id="line2d_44"/>
    <g id="text_13">
     <!-- $e^{+}$ DVAE -->
     <g transform="translate(604.8 154.156875)scale(0.2 -0.2)">
      <defs>
       <path d="M 3078 2063 
Q 3088 2113 3092 2166 
Q 3097 2219 3097 2272 
Q 3097 2653 2873 2875 
Q 2650 3097 2266 3097 
Q 1838 3097 1509 2826 
Q 1181 2556 1013 2059 
L 3078 2063 
z
M 3578 1613 
L 903 1613 
Q 884 1494 878 1425 
Q 872 1356 872 1306 
Q 872 872 1139 634 
Q 1406 397 1894 397 
Q 2269 397 2603 481 
Q 2938 566 3225 728 
L 3116 159 
Q 2806 34 2476 -28 
Q 2147 -91 1806 -91 
Q 1078 -91 686 257 
Q 294 606 294 1247 
Q 294 1794 489 2264 
Q 684 2734 1063 3103 
Q 1306 3334 1642 3459 
Q 1978 3584 2356 3584 
Q 2950 3584 3301 3228 
Q 3653 2872 3653 2272 
Q 3653 2128 3634 1964 
Q 3616 1800 3578 1613 
z
" id="DejaVuSans-Oblique-65" transform="scale(0.015625)"/>
       <path d="M 2944 4013 
L 2944 2272 
L 4684 2272 
L 4684 1741 
L 2944 1741 
L 2944 0 
L 2419 0 
L 2419 1741 
L 678 1741 
L 678 2272 
L 2419 2272 
L 2419 4013 
L 2944 4013 
z
" id="DejaVuSans-2b" transform="scale(0.015625)"/>
       <path d="M 1259 4147 
L 1259 519 
L 2022 519 
Q 2988 519 3436 956 
Q 3884 1394 3884 2338 
Q 3884 3275 3436 3711 
Q 2988 4147 2022 4147 
L 1259 4147 
z
M 628 4666 
L 1925 4666 
Q 3281 4666 3915 4102 
Q 4550 3538 4550 2338 
Q 4550 1131 3912 565 
Q 3275 0 1925 0 
L 628 0 
L 628 4666 
z
" id="DejaVuSans-44" transform="scale(0.015625)"/>
       <path d="M 1831 0 
L 50 4666 
L 709 4666 
L 2188 738 
L 3669 4666 
L 4325 4666 
L 2547 0 
L 1831 0 
z
" id="DejaVuSans-56" transform="scale(0.015625)"/>
       <path d="M 2188 4044 
L 1331 1722 
L 3047 1722 
L 2188 4044 
z
M 1831 4666 
L 2547 4666 
L 4325 0 
L 3669 0 
L 3244 1197 
L 1141 1197 
L 716 0 
L 50 0 
L 1831 4666 
z
" id="DejaVuSans-41" transform="scale(0.015625)"/>
      </defs>
      <use transform="translate(0 0.826562)" xlink:href="#DejaVuSans-Oblique-65"/>
      <use transform="translate(66.173333 39.107812)scale(0.7)" xlink:href="#DejaVuSans-2b"/>
      <use transform="translate(127.560052 0.826562)" xlink:href="#DejaVuSans-20"/>
      <use transform="translate(159.347161 0.826562)" xlink:href="#DejaVuSans-44"/>
      <use transform="translate(236.349115 0.826562)" xlink:href="#DejaVuSans-56"/>
      <use transform="translate(304.757318 0.826562)" xlink:href="#DejaVuSans-41"/>
      <use transform="translate(373.165521 0.826562)" xlink:href="#DejaVuSans-45"/>
     </g>
    </g>
    <g id="line2d_45">
     <path d="M 548.8 176.513125 
L 588.8 176.513125 
" style="fill:none;stroke:#bf00bf;stroke-linecap:square;stroke-width:4;"/>
    </g>
    <g id="line2d_46"/>
    <g id="text_14">
     <!-- $\gamma$   DVAE -->
     <g transform="translate(604.8 183.513125)scale(0.2 -0.2)">
      <defs>
       <path d="M 1491 2950 
L 1838 788 
L 3456 3500 
L 4066 3500 
L 1972 0 
L 1713 -1331 
L 1138 -1331 
L 1397 0 
L 988 2613 
Q 925 3006 628 3006 
L 475 3006 
L 569 3500 
L 788 3500 
Q 1403 3500 1491 2950 
z
" id="DejaVuSans-Oblique-3b3" transform="scale(0.015625)"/>
      </defs>
      <use transform="translate(0 0.09375)" xlink:href="#DejaVuSans-Oblique-3b3"/>
      <use transform="translate(59.179688 0.09375)" xlink:href="#DejaVuSans-20"/>
      <use transform="translate(90.966797 0.09375)" xlink:href="#DejaVuSans-20"/>
      <use transform="translate(122.753906 0.09375)" xlink:href="#DejaVuSans-20"/>
      <use transform="translate(154.541016 0.09375)" xlink:href="#DejaVuSans-44"/>
      <use transform="translate(231.542969 0.09375)" xlink:href="#DejaVuSans-56"/>
      <use transform="translate(299.951172 0.09375)" xlink:href="#DejaVuSans-41"/>
      <use transform="translate(368.359375 0.09375)" xlink:href="#DejaVuSans-45"/>
     </g>
    </g>
    <g id="line2d_47">
     <path d="M 548.8 205.91 
L 588.8 205.91 
" style="fill:none;stroke:#bfbf00;stroke-linecap:square;stroke-width:4;"/>
    </g>
    <g id="line2d_48"/>
    <g id="text_15">
     <!-- $\pi^{+}$ DVAE -->
     <g transform="translate(604.8 212.91)scale(0.2 -0.2)">
      <defs>
       <path d="M 584 3500 
L 3938 3500 
L 3825 2925 
L 3384 2925 
L 2966 775 
Q 2922 550 2981 450 
Q 3038 353 3209 353 
Q 3256 353 3325 363 
Q 3397 369 3419 372 
L 3338 -44 
Q 3222 -84 3103 -103 
Q 2981 -122 2866 -122 
Q 2491 -122 2388 81 
Q 2284 288 2391 838 
L 2797 2925 
L 1506 2925 
L 938 0 
L 350 0 
L 919 2925 
L 472 2925 
L 584 3500 
z
" id="DejaVuSans-Oblique-3c0" transform="scale(0.015625)"/>
      </defs>
      <use transform="translate(0 0.826562)" xlink:href="#DejaVuSans-Oblique-3c0"/>
      <use transform="translate(64.671224 39.107812)scale(0.7)" xlink:href="#DejaVuSans-2b"/>
      <use transform="translate(126.057943 0.826562)" xlink:href="#DejaVuSans-20"/>
      <use transform="translate(157.845052 0.826562)" xlink:href="#DejaVuSans-44"/>
      <use transform="translate(234.847005 0.826562)" xlink:href="#DejaVuSans-56"/>
      <use transform="translate(303.255208 0.826562)" xlink:href="#DejaVuSans-41"/>
      <use transform="translate(371.663411 0.826562)" xlink:href="#DejaVuSans-45"/>
     </g>
    </g>
    <g id="patch_8">
     <path d="M 732.2 154.156875 
L 772.2 154.156875 
L 772.2 140.156875 
L 732.2 140.156875 
z
" style="fill:#00bfbf;opacity:0.4;stroke:#00bfbf;stroke-linejoin:miter;"/>
    </g>
    <g id="text_16">
     <!-- $e^{+}$ GEANT -->
     <g transform="translate(788.2 154.156875)scale(0.2 -0.2)">
      <defs>
       <path d="M 3809 666 
L 3809 1919 
L 2778 1919 
L 2778 2438 
L 4434 2438 
L 4434 434 
Q 4069 175 3628 42 
Q 3188 -91 2688 -91 
Q 1594 -91 976 548 
Q 359 1188 359 2328 
Q 359 3472 976 4111 
Q 1594 4750 2688 4750 
Q 3144 4750 3555 4637 
Q 3966 4525 4313 4306 
L 4313 3634 
Q 3963 3931 3569 4081 
Q 3175 4231 2741 4231 
Q 1884 4231 1454 3753 
Q 1025 3275 1025 2328 
Q 1025 1384 1454 906 
Q 1884 428 2741 428 
Q 3075 428 3337 486 
Q 3600 544 3809 666 
z
" id="DejaVuSans-47" transform="scale(0.015625)"/>
       <path d="M 628 4666 
L 1478 4666 
L 3547 763 
L 3547 4666 
L 4159 4666 
L 4159 0 
L 3309 0 
L 1241 3903 
L 1241 0 
L 628 0 
L 628 4666 
z
" id="DejaVuSans-4e" transform="scale(0.015625)"/>
       <path d="M -19 4666 
L 3928 4666 
L 3928 4134 
L 2272 4134 
L 2272 0 
L 1638 0 
L 1638 4134 
L -19 4134 
L -19 4666 
z
" id="DejaVuSans-54" transform="scale(0.015625)"/>
      </defs>
      <use transform="translate(0 0.826562)" xlink:href="#DejaVuSans-Oblique-65"/>
      <use transform="translate(66.173333 39.107812)scale(0.7)" xlink:href="#DejaVuSans-2b"/>
      <use transform="translate(127.560052 0.826562)" xlink:href="#DejaVuSans-20"/>
      <use transform="translate(159.347161 0.826562)" xlink:href="#DejaVuSans-47"/>
      <use transform="translate(236.837396 0.826562)" xlink:href="#DejaVuSans-45"/>
      <use transform="translate(300.02099 0.826562)" xlink:href="#DejaVuSans-41"/>
      <use transform="translate(368.429193 0.826562)" xlink:href="#DejaVuSans-4e"/>
      <use transform="translate(443.23388 0.826562)" xlink:href="#DejaVuSans-54"/>
     </g>
    </g>
    <g id="patch_9">
     <path d="M 732.2 183.513125 
L 772.2 183.513125 
L 772.2 169.513125 
L 732.2 169.513125 
z
" style="fill:#bf00bf;opacity:0.4;stroke:#bf00bf;stroke-linejoin:miter;"/>
    </g>
    <g id="text_17">
     <!-- $\gamma$   GEANT -->
     <g transform="translate(788.2 183.513125)scale(0.2 -0.2)">
      <use transform="translate(0 0.78125)" xlink:href="#DejaVuSans-Oblique-3b3"/>
      <use transform="translate(59.179688 0.78125)" xlink:href="#DejaVuSans-20"/>
      <use transform="translate(90.966797 0.78125)" xlink:href="#DejaVuSans-20"/>
      <use transform="translate(122.753906 0.78125)" xlink:href="#DejaVuSans-20"/>
      <use transform="translate(154.541016 0.78125)" xlink:href="#DejaVuSans-47"/>
      <use transform="translate(232.03125 0.78125)" xlink:href="#DejaVuSans-45"/>
      <use transform="translate(295.214844 0.78125)" xlink:href="#DejaVuSans-41"/>
      <use transform="translate(363.623047 0.78125)" xlink:href="#DejaVuSans-4e"/>
      <use transform="translate(438.427734 0.78125)" xlink:href="#DejaVuSans-54"/>
     </g>
    </g>
    <g id="patch_10">
     <path d="M 732.2 212.91 
L 772.2 212.91 
L 772.2 198.91 
L 732.2 198.91 
z
" style="fill:#bfbf00;opacity:0.4;stroke:#bfbf00;stroke-linejoin:miter;"/>
    </g>
    <g id="text_18">
     <!-- $\pi^{+}$ GEANT -->
     <g transform="translate(788.2 212.91)scale(0.2 -0.2)">
      <use transform="translate(0 0.826562)" xlink:href="#DejaVuSans-Oblique-3c0"/>
      <use transform="translate(64.671224 39.107812)scale(0.7)" xlink:href="#DejaVuSans-2b"/>
      <use transform="translate(126.057943 0.826562)" xlink:href="#DejaVuSans-20"/>
      <use transform="translate(157.845052 0.826562)" xlink:href="#DejaVuSans-47"/>
      <use transform="translate(235.335286 0.826562)" xlink:href="#DejaVuSans-45"/>
      <use transform="translate(298.51888 0.826562)" xlink:href="#DejaVuSans-41"/>
      <use transform="translate(366.927083 0.826562)" xlink:href="#DejaVuSans-4e"/>
      <use transform="translate(441.731771 0.826562)" xlink:href="#DejaVuSans-54"/>
     </g>
    </g>
   </g>
  </g>
 </g>
 <defs>
  <clipPath id="pcea543f7fd">
   <rect height="761.04" width="781.2" x="126" y="120.96"/>
  </clipPath>
 </defs>
</svg>
