<?xml version="1.0" encoding="utf-8" standalone="no"?>
<!DOCTYPE svg PUBLIC "-//W3C//DTD SVG 1.1//EN"
  "http://www.w3.org/Graphics/SVG/1.1/DTD/svg11.dtd">
<svg height="1008pt" version="1.1" viewBox="0 0 1008 1008" width="1008pt" xmlns="http://www.w3.org/2000/svg" xmlns:xlink="http://www.w3.org/1999/xlink">
 <metadata>
  <rdf:RDF xmlns:cc="http://creativecommons.org/ns#" xmlns:dc="http://purl.org/dc/elements/1.1/" xmlns:rdf="http://www.w3.org/1999/02/22-rdf-syntax-ns#">
   <cc:Work>
    <dc:type rdf:resource="http://purl.org/dc/dcmitype/StillImage"/>
    <dc:date>2021-09-27T15:02:06.115639</dc:date>
    <dc:format>image/svg+xml</dc:format>
    <dc:creator>
     <cc:Agent>
      <dc:title>Matplotlib v3.4.2, https://matplotlib.org/</dc:title>
     </cc:Agent>
    </dc:creator>
   </cc:Work>
  </rdf:RDF>
 </metadata>
 <defs>
  <style type="text/css">*{stroke-linecap:butt;stroke-linejoin:round;}</style>
 </defs>
 <g id="figure_1">
  <g id="patch_1">
   <path d="M 0 1008 
L 1008 1008 
L 1008 0 
L 0 0 
z
" style="fill:none;"/>
  </g>
  <g id="axes_1">
   <g id="patch_2">
    <path d="M 126 882 
L 907.2 882 
L 907.2 120.96 
L 126 120.96 
z
" style="fill:#ffffff;"/>
   </g>
   <g id="PolyCollection_1">
    <path clip-path="url(#p48b3fef5c7)" d="M 161.509091 187427.630525 
L 161.509091 187427.630525 
L 161.509091 187427.630525 
L 161.509091 472.642204 
L 165.095868 472.642204 
L 165.095868 439.259168 
L 172.269421 439.259168 
L 172.269421 440.853267 
L 179.442975 440.853267 
L 179.442975 446.982225 
L 186.616529 446.982225 
L 186.616529 444.138748 
L 193.790083 444.138748 
L 193.790083 465.063717 
L 200.963636 465.063717 
L 200.963636 461.524693 
L 208.13719 461.524693 
L 208.13719 447.563093 
L 215.310744 447.563093 
L 215.310744 449.331107 
L 222.484298 449.331107 
L 222.484298 465.063717 
L 229.657851 465.063717 
L 229.657851 461.524693 
L 236.831405 461.524693 
L 236.831405 468.010614 
L 244.004959 468.010614 
L 244.004959 458.13379 
L 251.178512 458.13379 
L 251.178512 458.800713 
L 258.352066 458.800713 
L 258.352066 457.47231 
L 265.52562 457.47231 
L 265.52562 462.92181 
L 272.699174 462.92181 
L 272.699174 465.063717 
L 279.872727 465.063717 
L 279.872727 455.519668 
L 287.046281 455.519668 
L 287.046281 465.063717 
L 294.219835 465.063717 
L 294.219835 453.612973 
L 301.393388 453.612973 
L 301.393388 455.519668 
L 308.566942 455.519668 
L 308.566942 454.879105 
L 315.740496 454.879105 
L 315.740496 460.835065 
L 322.91405 460.835065 
L 322.91405 448.148155 
L 330.087603 448.148155 
L 330.087603 454.243566 
L 337.261157 454.243566 
L 337.261157 462.22024 
L 344.434711 462.22024 
L 344.434711 471.068742 
L 351.608264 471.068742 
L 351.608264 465.063717 
L 358.781818 465.063717 
L 358.781818 454.879105 
L 365.955372 454.879105 
L 365.955372 460.151257 
L 373.128926 460.151257 
L 373.128926 457.47231 
L 380.302479 457.47231 
L 380.302479 458.800713 
L 387.476033 458.800713 
L 387.476033 459.473172 
L 394.649587 459.473172 
L 394.649587 458.800713 
L 401.82314 458.800713 
L 401.82314 478.403161 
L 408.996694 478.403161 
L 408.996694 449.331107 
L 416.170248 449.331107 
L 416.170248 473.440543 
L 423.343802 473.440543 
L 423.343802 463.629506 
L 430.517355 463.629506 
L 430.517355 462.92181 
L 437.690909 462.92181 
L 437.690909 464.343438 
L 444.864463 464.343438 
L 444.864463 468.010614 
L 452.038017 468.010614 
L 452.038017 455.519668 
L 459.21157 455.519668 
L 459.21157 469.525252 
L 466.385124 469.525252 
L 466.385124 467.263782 
L 473.558678 467.263782 
L 473.558678 460.835065 
L 480.732231 460.835065 
L 480.732231 466.52377 
L 487.905785 466.52377 
L 487.905785 462.92181 
L 495.079339 462.92181 
L 495.079339 452.366322 
L 502.252893 452.366322 
L 502.252893 467.263782 
L 509.426446 467.263782 
L 509.426446 470.293322 
L 516.6 470.293322 
L 516.6 461.524693 
L 523.773554 461.524693 
L 523.773554 471.851654 
L 530.947107 471.851654 
L 530.947107 465.790455 
L 538.120661 465.790455 
L 538.120661 469.525252 
L 545.294215 469.525252 
L 545.294215 469.525252 
L 552.467769 469.525252 
L 552.467769 464.343438 
L 559.641322 464.343438 
L 559.641322 465.790455 
L 566.814876 465.790455 
L 566.814876 468.010614 
L 573.98843 468.010614 
L 573.98843 461.524693 
L 581.161983 461.524693 
L 581.161983 464.343438 
L 588.335537 464.343438 
L 588.335537 459.473172 
L 595.509091 459.473172 
L 595.509091 477.554664 
L 602.682645 477.554664 
L 602.682645 468.764394 
L 609.856198 468.764394 
L 609.856198 469.525252 
L 617.029752 469.525252 
L 617.029752 470.293322 
L 624.203306 470.293322 
L 624.203306 456.816187 
L 631.37686 456.816187 
L 631.37686 460.151257 
L 638.550413 460.151257 
L 638.550413 470.293322 
L 645.723967 470.293322 
L 645.723967 477.554664 
L 652.897521 477.554664 
L 652.897521 464.343438 
L 660.071074 464.343438 
L 660.071074 462.92181 
L 667.244628 462.92181 
L 667.244628 455.519668 
L 674.418182 455.519668 
L 674.418182 473.440543 
L 681.591736 473.440543 
L 681.591736 465.790455 
L 688.765289 465.790455 
L 688.765289 488.374814 
L 695.938843 488.374814 
L 695.938843 471.851654 
L 703.112397 471.851654 
L 703.112397 475.883867 
L 710.28595 475.883867 
L 710.28595 449.929123 
L 717.459504 449.929123 
L 717.459504 469.525252 
L 724.633058 469.525252 
L 724.633058 468.764394 
L 731.806612 468.764394 
L 731.806612 470.293322 
L 738.980165 470.293322 
L 738.980165 470.293322 
L 746.153719 470.293322 
L 746.153719 478.403161 
L 753.327273 478.403161 
L 753.327273 495.425412 
L 760.500826 495.425412 
L 760.500826 491.321712 
L 767.67438 491.321712 
L 767.67438 506.697828 
L 774.847934 506.697828 
L 774.847934 554.811845 
L 782.021488 554.811845 
L 782.021488 554.811845 
L 789.195041 554.811845 
L 789.195041 546.493701 
L 796.368595 546.493701 
L 796.368595 586.579314 
L 803.542149 586.579314 
L 803.542149 622.742298 
L 810.715702 622.742298 
L 810.715702 633.562448 
L 817.889256 633.562448 
L 817.889256 689.728692 
L 825.06281 689.728692 
L 825.06281 716.993293 
L 832.236364 716.993293 
L 832.236364 791.241029 
L 839.409917 791.241029 
L 839.409917 187427.630525 
L 846.583471 187427.630525 
L 846.583471 187427.630525 
L 853.757025 187427.630525 
L 853.757025 187427.630525 
L 860.930579 187427.630525 
L 860.930579 187427.630525 
L 868.104132 187427.630525 
L 868.104132 187427.630525 
L 871.690909 187427.630525 
L 871.690909 187427.630525 
L 871.690909 187427.630525 
L 871.690909 187427.630525 
L 871.690909 187427.630525 
L 871.690909 187427.630525 
L 871.690909 187427.630525 
L 868.104132 187427.630525 
L 868.104132 187427.630525 
L 860.930579 187427.630525 
L 860.930579 187427.630525 
L 853.757025 187427.630525 
L 853.757025 187427.630525 
L 846.583471 187427.630525 
L 846.583471 187427.630525 
L 839.409917 187427.630525 
L 839.409917 187427.630525 
L 832.236364 187427.630525 
L 832.236364 187427.630525 
L 825.06281 187427.630525 
L 825.06281 187427.630525 
L 817.889256 187427.630525 
L 817.889256 187427.630525 
L 810.715702 187427.630525 
L 810.715702 187427.630525 
L 803.542149 187427.630525 
L 803.542149 187427.630525 
L 796.368595 187427.630525 
L 796.368595 187427.630525 
L 789.195041 187427.630525 
L 789.195041 187427.630525 
L 782.021488 187427.630525 
L 782.021488 187427.630525 
L 774.847934 187427.630525 
L 774.847934 187427.630525 
L 767.67438 187427.630525 
L 767.67438 187427.630525 
L 760.500826 187427.630525 
L 760.500826 187427.630525 
L 753.327273 187427.630525 
L 753.327273 187427.630525 
L 746.153719 187427.630525 
L 746.153719 187427.630525 
L 738.980165 187427.630525 
L 738.980165 187427.630525 
L 731.806612 187427.630525 
L 731.806612 187427.630525 
L 724.633058 187427.630525 
L 724.633058 187427.630525 
L 717.459504 187427.630525 
L 717.459504 187427.630525 
L 710.28595 187427.630525 
L 710.28595 187427.630525 
L 703.112397 187427.630525 
L 703.112397 187427.630525 
L 695.938843 187427.630525 
L 695.938843 187427.630525 
L 688.765289 187427.630525 
L 688.765289 187427.630525 
L 681.591736 187427.630525 
L 681.591736 187427.630525 
L 674.418182 187427.630525 
L 674.418182 187427.630525 
L 667.244628 187427.630525 
L 667.244628 187427.630525 
L 660.071074 187427.630525 
L 660.071074 187427.630525 
L 652.897521 187427.630525 
L 652.897521 187427.630525 
L 645.723967 187427.630525 
L 645.723967 187427.630525 
L 638.550413 187427.630525 
L 638.550413 187427.630525 
L 631.37686 187427.630525 
L 631.37686 187427.630525 
L 624.203306 187427.630525 
L 624.203306 187427.630525 
L 617.029752 187427.630525 
L 617.029752 187427.630525 
L 609.856198 187427.630525 
L 609.856198 187427.630525 
L 602.682645 187427.630525 
L 602.682645 187427.630525 
L 595.509091 187427.630525 
L 595.509091 187427.630525 
L 588.335537 187427.630525 
L 588.335537 187427.630525 
L 581.161983 187427.630525 
L 581.161983 187427.630525 
L 573.98843 187427.630525 
L 573.98843 187427.630525 
L 566.814876 187427.630525 
L 566.814876 187427.630525 
L 559.641322 187427.630525 
L 559.641322 187427.630525 
L 552.467769 187427.630525 
L 552.467769 187427.630525 
L 545.294215 187427.630525 
L 545.294215 187427.630525 
L 538.120661 187427.630525 
L 538.120661 187427.630525 
L 530.947107 187427.630525 
L 530.947107 187427.630525 
L 523.773554 187427.630525 
L 523.773554 187427.630525 
L 516.6 187427.630525 
L 516.6 187427.630525 
L 509.426446 187427.630525 
L 509.426446 187427.630525 
L 502.252893 187427.630525 
L 502.252893 187427.630525 
L 495.079339 187427.630525 
L 495.079339 187427.630525 
L 487.905785 187427.630525 
L 487.905785 187427.630525 
L 480.732231 187427.630525 
L 480.732231 187427.630525 
L 473.558678 187427.630525 
L 473.558678 187427.630525 
L 466.385124 187427.630525 
L 466.385124 187427.630525 
L 459.21157 187427.630525 
L 459.21157 187427.630525 
L 452.038017 187427.630525 
L 452.038017 187427.630525 
L 444.864463 187427.630525 
L 444.864463 187427.630525 
L 437.690909 187427.630525 
L 437.690909 187427.630525 
L 430.517355 187427.630525 
L 430.517355 187427.630525 
L 423.343802 187427.630525 
L 423.343802 187427.630525 
L 416.170248 187427.630525 
L 416.170248 187427.630525 
L 408.996694 187427.630525 
L 408.996694 187427.630525 
L 401.82314 187427.630525 
L 401.82314 187427.630525 
L 394.649587 187427.630525 
L 394.649587 187427.630525 
L 387.476033 187427.630525 
L 387.476033 187427.630525 
L 380.302479 187427.630525 
L 380.302479 187427.630525 
L 373.128926 187427.630525 
L 373.128926 187427.630525 
L 365.955372 187427.630525 
L 365.955372 187427.630525 
L 358.781818 187427.630525 
L 358.781818 187427.630525 
L 351.608264 187427.630525 
L 351.608264 187427.630525 
L 344.434711 187427.630525 
L 344.434711 187427.630525 
L 337.261157 187427.630525 
L 337.261157 187427.630525 
L 330.087603 187427.630525 
L 330.087603 187427.630525 
L 322.91405 187427.630525 
L 322.91405 187427.630525 
L 315.740496 187427.630525 
L 315.740496 187427.630525 
L 308.566942 187427.630525 
L 308.566942 187427.630525 
L 301.393388 187427.630525 
L 301.393388 187427.630525 
L 294.219835 187427.630525 
L 294.219835 187427.630525 
L 287.046281 187427.630525 
L 287.046281 187427.630525 
L 279.872727 187427.630525 
L 279.872727 187427.630525 
L 272.699174 187427.630525 
L 272.699174 187427.630525 
L 265.52562 187427.630525 
L 265.52562 187427.630525 
L 258.352066 187427.630525 
L 258.352066 187427.630525 
L 251.178512 187427.630525 
L 251.178512 187427.630525 
L 244.004959 187427.630525 
L 244.004959 187427.630525 
L 236.831405 187427.630525 
L 236.831405 187427.630525 
L 229.657851 187427.630525 
L 229.657851 187427.630525 
L 222.484298 187427.630525 
L 222.484298 187427.630525 
L 215.310744 187427.630525 
L 215.310744 187427.630525 
L 208.13719 187427.630525 
L 208.13719 187427.630525 
L 200.963636 187427.630525 
L 200.963636 187427.630525 
L 193.790083 187427.630525 
L 193.790083 187427.630525 
L 186.616529 187427.630525 
L 186.616529 187427.630525 
L 179.442975 187427.630525 
L 179.442975 187427.630525 
L 172.269421 187427.630525 
L 172.269421 187427.630525 
L 165.095868 187427.630525 
L 165.095868 187427.630525 
L 161.509091 187427.630525 
L 161.509091 187427.630525 
L 161.509091 187427.630525 
z
" style="fill:#00bfbf;fill-opacity:0.4;stroke:#00bfbf;stroke-opacity:0.4;"/>
   </g>
   <g id="PolyCollection_2">
    <path clip-path="url(#p48b3fef5c7)" d="M 161.509091 187427.630525 
L 161.509091 187427.630525 
L 161.509091 187427.630525 
L 161.509091 511.685911 
L 165.095868 511.685911 
L 165.095868 437.695825 
L 172.269421 437.695825 
L 172.269421 461.524693 
L 179.442975 461.524693 
L 179.442975 451.750115 
L 186.616529 451.750115 
L 186.616529 451.750115 
L 193.790083 451.750115 
L 193.790083 461.524693 
L 200.963636 461.524693 
L 200.963636 461.524693 
L 208.13719 461.524693 
L 208.13719 449.929123 
L 215.310744 449.929123 
L 215.310744 465.063717 
L 222.484298 465.063717 
L 222.484298 474.246826 
L 229.657851 474.246826 
L 229.657851 458.800713 
L 236.831405 458.800713 
L 236.831405 457.47231 
L 244.004959 457.47231 
L 244.004959 480.127285 
L 251.178512 480.127285 
L 251.178512 460.151257 
L 258.352066 460.151257 
L 258.352066 454.243566 
L 265.52562 454.243566 
L 265.52562 461.524693 
L 272.699174 461.524693 
L 272.699174 459.473172 
L 279.872727 459.473172 
L 279.872727 469.525252 
L 287.046281 469.525252 
L 287.046281 468.010614 
L 294.219835 468.010614 
L 294.219835 472.642204 
L 301.393388 472.642204 
L 301.393388 476.714959 
L 308.566942 476.714959 
L 308.566942 470.293322 
L 315.740496 470.293322 
L 315.740496 462.22024 
L 322.91405 462.22024 
L 322.91405 474.246826 
L 330.087603 474.246826 
L 330.087603 453.612973 
L 337.261157 453.612973 
L 337.261157 478.403161 
L 344.434711 478.403161 
L 344.434711 463.629506 
L 351.608264 463.629506 
L 351.608264 465.063717 
L 358.781818 465.063717 
L 358.781818 468.010614 
L 365.955372 468.010614 
L 365.955372 465.063717 
L 373.128926 465.063717 
L 373.128926 458.13379 
L 380.302479 458.13379 
L 380.302479 473.440543 
L 387.476033 473.440543 
L 387.476033 464.343438 
L 394.649587 464.343438 
L 394.649587 460.151257 
L 401.82314 460.151257 
L 401.82314 464.343438 
L 408.996694 464.343438 
L 408.996694 465.790455 
L 416.170248 465.790455 
L 416.170248 471.068742 
L 423.343802 471.068742 
L 423.343802 472.642204 
L 430.517355 472.642204 
L 430.517355 473.440543 
L 437.690909 473.440543 
L 437.690909 470.293322 
L 444.864463 470.293322 
L 444.864463 475.061213 
L 452.038017 475.061213 
L 452.038017 464.343438 
L 459.21157 464.343438 
L 459.21157 462.22024 
L 466.385124 462.22024 
L 466.385124 473.440543 
L 473.558678 473.440543 
L 473.558678 458.13379 
L 480.732231 458.13379 
L 480.732231 459.473172 
L 487.905785 459.473172 
L 487.905785 459.473172 
L 495.079339 459.473172 
L 495.079339 468.010614 
L 502.252893 468.010614 
L 502.252893 476.714959 
L 509.426446 476.714959 
L 509.426446 475.883867 
L 516.6 475.883867 
L 516.6 454.243566 
L 523.773554 454.243566 
L 523.773554 467.263782 
L 530.947107 467.263782 
L 530.947107 462.92181 
L 538.120661 462.92181 
L 538.120661 463.629506 
L 545.294215 463.629506 
L 545.294215 467.263782 
L 552.467769 467.263782 
L 552.467769 460.835065 
L 559.641322 460.835065 
L 559.641322 462.22024 
L 566.814876 462.22024 
L 566.814876 465.790455 
L 573.98843 465.790455 
L 573.98843 478.403161 
L 581.161983 478.403161 
L 581.161983 462.92181 
L 588.335537 462.92181 
L 588.335537 471.851654 
L 595.509091 471.851654 
L 595.509091 462.92181 
L 602.682645 462.92181 
L 602.682645 477.554664 
L 609.856198 477.554664 
L 609.856198 465.790455 
L 617.029752 465.790455 
L 617.029752 489.345254 
L 624.203306 489.345254 
L 624.203306 465.063717 
L 631.37686 465.063717 
L 631.37686 477.554664 
L 638.550413 477.554664 
L 638.550413 463.629506 
L 645.723967 463.629506 
L 645.723967 461.524693 
L 652.897521 461.524693 
L 652.897521 465.063717 
L 660.071074 465.063717 
L 660.071074 466.52377 
L 667.244628 466.52377 
L 667.244628 449.929123 
L 674.418182 449.929123 
L 674.418182 463.629506 
L 681.591736 463.629506 
L 681.591736 451.138559 
L 688.765289 451.138559 
L 688.765289 464.343438 
L 695.938843 464.343438 
L 695.938843 465.790455 
L 703.112397 465.790455 
L 703.112397 465.790455 
L 710.28595 465.790455 
L 710.28595 471.851654 
L 717.459504 471.851654 
L 717.459504 462.22024 
L 724.633058 462.22024 
L 724.633058 468.010614 
L 731.806612 468.010614 
L 731.806612 464.343438 
L 738.980165 464.343438 
L 738.980165 471.851654 
L 746.153719 471.851654 
L 746.153719 489.345254 
L 753.327273 489.345254 
L 753.327273 473.440543 
L 760.500826 473.440543 
L 760.500826 482.784269 
L 767.67438 482.784269 
L 767.67438 484.605262 
L 774.847934 484.605262 
L 774.847934 515.639415 
L 782.021488 515.639415 
L 782.021488 481.888892 
L 789.195041 481.888892 
L 789.195041 506.697828 
L 796.368595 506.697828 
L 796.368595 518.386484 
L 803.542149 518.386484 
L 803.542149 538.950513 
L 810.715702 538.950513 
L 810.715702 532.050111 
L 817.889256 532.050111 
L 817.889256 561.663594 
L 825.06281 561.663594 
L 825.06281 564.082603 
L 832.236364 564.082603 
L 832.236364 583.40123 
L 839.409917 583.40123 
L 839.409917 653.103993 
L 846.583471 653.103993 
L 846.583471 689.728692 
L 853.757025 689.728692 
L 853.757025 702.219639 
L 860.930579 702.219639 
L 860.930579 187427.630525 
L 868.104132 187427.630525 
L 868.104132 187427.630525 
L 871.690909 187427.630525 
L 871.690909 187427.630525 
L 871.690909 187427.630525 
L 871.690909 187427.630525 
L 871.690909 187427.630525 
L 871.690909 187427.630525 
L 871.690909 187427.630525 
L 868.104132 187427.630525 
L 868.104132 187427.630525 
L 860.930579 187427.630525 
L 860.930579 187427.630525 
L 853.757025 187427.630525 
L 853.757025 187427.630525 
L 846.583471 187427.630525 
L 846.583471 187427.630525 
L 839.409917 187427.630525 
L 839.409917 187427.630525 
L 832.236364 187427.630525 
L 832.236364 187427.630525 
L 825.06281 187427.630525 
L 825.06281 187427.630525 
L 817.889256 187427.630525 
L 817.889256 187427.630525 
L 810.715702 187427.630525 
L 810.715702 187427.630525 
L 803.542149 187427.630525 
L 803.542149 187427.630525 
L 796.368595 187427.630525 
L 796.368595 187427.630525 
L 789.195041 187427.630525 
L 789.195041 187427.630525 
L 782.021488 187427.630525 
L 782.021488 187427.630525 
L 774.847934 187427.630525 
L 774.847934 187427.630525 
L 767.67438 187427.630525 
L 767.67438 187427.630525 
L 760.500826 187427.630525 
L 760.500826 187427.630525 
L 753.327273 187427.630525 
L 753.327273 187427.630525 
L 746.153719 187427.630525 
L 746.153719 187427.630525 
L 738.980165 187427.630525 
L 738.980165 187427.630525 
L 731.806612 187427.630525 
L 731.806612 187427.630525 
L 724.633058 187427.630525 
L 724.633058 187427.630525 
L 717.459504 187427.630525 
L 717.459504 187427.630525 
L 710.28595 187427.630525 
L 710.28595 187427.630525 
L 703.112397 187427.630525 
L 703.112397 187427.630525 
L 695.938843 187427.630525 
L 695.938843 187427.630525 
L 688.765289 187427.630525 
L 688.765289 187427.630525 
L 681.591736 187427.630525 
L 681.591736 187427.630525 
L 674.418182 187427.630525 
L 674.418182 187427.630525 
L 667.244628 187427.630525 
L 667.244628 187427.630525 
L 660.071074 187427.630525 
L 660.071074 187427.630525 
L 652.897521 187427.630525 
L 652.897521 187427.630525 
L 645.723967 187427.630525 
L 645.723967 187427.630525 
L 638.550413 187427.630525 
L 638.550413 187427.630525 
L 631.37686 187427.630525 
L 631.37686 187427.630525 
L 624.203306 187427.630525 
L 624.203306 187427.630525 
L 617.029752 187427.630525 
L 617.029752 187427.630525 
L 609.856198 187427.630525 
L 609.856198 187427.630525 
L 602.682645 187427.630525 
L 602.682645 187427.630525 
L 595.509091 187427.630525 
L 595.509091 187427.630525 
L 588.335537 187427.630525 
L 588.335537 187427.630525 
L 581.161983 187427.630525 
L 581.161983 187427.630525 
L 573.98843 187427.630525 
L 573.98843 187427.630525 
L 566.814876 187427.630525 
L 566.814876 187427.630525 
L 559.641322 187427.630525 
L 559.641322 187427.630525 
L 552.467769 187427.630525 
L 552.467769 187427.630525 
L 545.294215 187427.630525 
L 545.294215 187427.630525 
L 538.120661 187427.630525 
L 538.120661 187427.630525 
L 530.947107 187427.630525 
L 530.947107 187427.630525 
L 523.773554 187427.630525 
L 523.773554 187427.630525 
L 516.6 187427.630525 
L 516.6 187427.630525 
L 509.426446 187427.630525 
L 509.426446 187427.630525 
L 502.252893 187427.630525 
L 502.252893 187427.630525 
L 495.079339 187427.630525 
L 495.079339 187427.630525 
L 487.905785 187427.630525 
L 487.905785 187427.630525 
L 480.732231 187427.630525 
L 480.732231 187427.630525 
L 473.558678 187427.630525 
L 473.558678 187427.630525 
L 466.385124 187427.630525 
L 466.385124 187427.630525 
L 459.21157 187427.630525 
L 459.21157 187427.630525 
L 452.038017 187427.630525 
L 452.038017 187427.630525 
L 444.864463 187427.630525 
L 444.864463 187427.630525 
L 437.690909 187427.630525 
L 437.690909 187427.630525 
L 430.517355 187427.630525 
L 430.517355 187427.630525 
L 423.343802 187427.630525 
L 423.343802 187427.630525 
L 416.170248 187427.630525 
L 416.170248 187427.630525 
L 408.996694 187427.630525 
L 408.996694 187427.630525 
L 401.82314 187427.630525 
L 401.82314 187427.630525 
L 394.649587 187427.630525 
L 394.649587 187427.630525 
L 387.476033 187427.630525 
L 387.476033 187427.630525 
L 380.302479 187427.630525 
L 380.302479 187427.630525 
L 373.128926 187427.630525 
L 373.128926 187427.630525 
L 365.955372 187427.630525 
L 365.955372 187427.630525 
L 358.781818 187427.630525 
L 358.781818 187427.630525 
L 351.608264 187427.630525 
L 351.608264 187427.630525 
L 344.434711 187427.630525 
L 344.434711 187427.630525 
L 337.261157 187427.630525 
L 337.261157 187427.630525 
L 330.087603 187427.630525 
L 330.087603 187427.630525 
L 322.91405 187427.630525 
L 322.91405 187427.630525 
L 315.740496 187427.630525 
L 315.740496 187427.630525 
L 308.566942 187427.630525 
L 308.566942 187427.630525 
L 301.393388 187427.630525 
L 301.393388 187427.630525 
L 294.219835 187427.630525 
L 294.219835 187427.630525 
L 287.046281 187427.630525 
L 287.046281 187427.630525 
L 279.872727 187427.630525 
L 279.872727 187427.630525 
L 272.699174 187427.630525 
L 272.699174 187427.630525 
L 265.52562 187427.630525 
L 265.52562 187427.630525 
L 258.352066 187427.630525 
L 258.352066 187427.630525 
L 251.178512 187427.630525 
L 251.178512 187427.630525 
L 244.004959 187427.630525 
L 244.004959 187427.630525 
L 236.831405 187427.630525 
L 236.831405 187427.630525 
L 229.657851 187427.630525 
L 229.657851 187427.630525 
L 222.484298 187427.630525 
L 222.484298 187427.630525 
L 215.310744 187427.630525 
L 215.310744 187427.630525 
L 208.13719 187427.630525 
L 208.13719 187427.630525 
L 200.963636 187427.630525 
L 200.963636 187427.630525 
L 193.790083 187427.630525 
L 193.790083 187427.630525 
L 186.616529 187427.630525 
L 186.616529 187427.630525 
L 179.442975 187427.630525 
L 179.442975 187427.630525 
L 172.269421 187427.630525 
L 172.269421 187427.630525 
L 165.095868 187427.630525 
L 165.095868 187427.630525 
L 161.509091 187427.630525 
L 161.509091 187427.630525 
L 161.509091 187427.630525 
z
" style="fill:#bf00bf;fill-opacity:0.4;stroke:#bf00bf;stroke-opacity:0.4;"/>
   </g>
   <g id="PolyCollection_3">
    <path clip-path="url(#p48b3fef5c7)" d="M 161.509091 187427.630525 
L 161.509091 187427.630525 
L 161.509091 187427.630525 
L 161.509091 175.192435 
L 165.095868 175.192435 
L 165.095868 343.50937 
L 172.269421 343.50937 
L 172.269421 370.67718 
L 179.442975 370.67718 
L 179.442975 376.042326 
L 186.616529 376.042326 
L 186.616529 398.712861 
L 193.790083 398.712861 
L 193.790083 405.705476 
L 200.963636 405.705476 
L 200.963636 411.097538 
L 208.13719 411.097538 
L 208.13719 413.359008 
L 215.310744 413.359008 
L 215.310744 410.726687 
L 222.484298 410.726687 
L 222.484298 433.17901 
L 229.657851 433.17901 
L 229.657851 427.979919 
L 236.831405 427.979919 
L 236.831405 437.181343 
L 244.004959 437.181343 
L 244.004959 436.670106 
L 251.178512 436.670106 
L 251.178512 436.162074 
L 258.352066 436.162074 
L 258.352066 432.692337 
L 265.52562 432.692337 
L 265.52562 444.699517 
L 272.699174 444.699517 
L 272.699174 454.879105 
L 279.872727 454.879105 
L 279.872727 460.835065 
L 287.046281 460.835065 
L 287.046281 444.699517 
L 294.219835 444.699517 
L 294.219835 462.92181 
L 301.393388 462.92181 
L 301.393388 478.403161 
L 308.566942 478.403161 
L 308.566942 464.343438 
L 315.740496 464.343438 
L 315.740496 471.068742 
L 322.91405 471.068742 
L 322.91405 473.440543 
L 330.087603 473.440543 
L 330.087603 474.246826 
L 337.261157 474.246826 
L 337.261157 492.328318 
L 344.434711 492.328318 
L 344.434711 482.784269 
L 351.608264 482.784269 
L 351.608264 486.46812 
L 358.781818 486.46812 
L 358.781818 509.153494 
L 365.955372 509.153494 
L 365.955372 495.425412 
L 373.128926 495.425412 
L 373.128926 496.484653 
L 380.302479 496.484653 
L 380.302479 512.982431 
L 387.476033 512.982431 
L 387.476033 511.685911 
L 394.649587 511.685911 
L 394.649587 507.916359 
L 401.82314 507.916359 
L 401.82314 509.153494 
L 408.996694 509.153494 
L 408.996694 512.982431 
L 416.170248 512.982431 
L 416.170248 540.771505 
L 423.343802 540.771505 
L 423.343802 525.691496 
L 430.517355 525.691496 
L 430.517355 546.493701 
L 437.690909 546.493701 
L 437.690909 569.148675 
L 444.864463 569.148675 
L 444.864463 564.082603 
L 452.038017 564.082603 
L 452.038017 554.811845 
L 459.21157 554.811845 
L 459.21157 554.811845 
L 466.385124 554.811845 
L 466.385124 574.552728 
L 473.558678 574.552728 
L 473.558678 559.314712 
L 480.732231 559.314712 
L 480.732231 564.082603 
L 487.905785 564.082603 
L 487.905785 577.396204 
L 495.079339 577.396204 
L 495.079339 586.579314 
L 502.252893 586.579314 
L 502.252893 580.343102 
L 509.426446 580.343102 
L 509.426446 596.937749 
L 516.6 596.937749 
L 516.6 622.742298 
L 523.773554 622.742298 
L 523.773554 589.887151 
L 530.947107 589.887151 
L 530.947107 633.562448 
L 538.120661 633.562448 
L 538.120661 639.567473 
L 545.294215 639.567473 
L 545.294215 653.103993 
L 552.467769 653.103993 
L 552.467769 622.742298 
L 559.641322 622.742298 
L 559.641322 633.562448 
L 566.814876 633.562448 
L 566.814876 678.908541 
L 573.98843 678.908541 
L 573.98843 653.103993 
L 581.161983 653.103993 
L 581.161983 660.827049 
L 588.335537 660.827049 
L 588.335537 633.562448 
L 595.509091 633.562448 
L 595.509091 791.241029 
L 602.682645 791.241029 
L 602.682645 660.827049 
L 609.856198 660.827049 
L 609.856198 689.728692 
L 617.029752 689.728692 
L 617.029752 702.219639 
L 624.203306 702.219639 
L 624.203306 847.407273 
L 631.37686 847.407273 
L 631.37686 716.993293 
L 638.550413 716.993293 
L 638.550413 735.074785 
L 645.723967 735.074785 
L 645.723967 678.908541 
L 652.897521 678.908541 
L 652.897521 689.728692 
L 660.071074 689.728692 
L 660.071074 758.385883 
L 667.244628 758.385883 
L 667.244628 847.407273 
L 674.418182 847.407273 
L 674.418182 758.385883 
L 681.591736 758.385883 
L 681.591736 791.241029 
L 688.765289 791.241029 
L 688.765289 735.074785 
L 695.938843 735.074785 
L 695.938843 847.407273 
L 703.112397 847.407273 
L 703.112397 735.074785 
L 710.28595 735.074785 
L 710.28595 735.074785 
L 717.459504 735.074785 
L 717.459504 187427.630525 
L 724.633058 187427.630525 
L 724.633058 735.074785 
L 731.806612 735.074785 
L 731.806612 847.407273 
L 738.980165 847.407273 
L 738.980165 847.407273 
L 746.153719 847.407273 
L 746.153719 187427.630525 
L 753.327273 187427.630525 
L 753.327273 791.241029 
L 760.500826 791.241029 
L 760.500826 847.407273 
L 767.67438 847.407273 
L 767.67438 847.407273 
L 774.847934 847.407273 
L 774.847934 735.074785 
L 782.021488 735.074785 
L 782.021488 791.241029 
L 789.195041 791.241029 
L 789.195041 187427.630525 
L 796.368595 187427.630525 
L 796.368595 847.407273 
L 803.542149 847.407273 
L 803.542149 758.385883 
L 810.715702 758.385883 
L 810.715702 187427.630525 
L 817.889256 187427.630525 
L 817.889256 847.407273 
L 825.06281 847.407273 
L 825.06281 187427.630525 
L 832.236364 187427.630525 
L 832.236364 187427.630525 
L 839.409917 187427.630525 
L 839.409917 847.407273 
L 846.583471 847.407273 
L 846.583471 187427.630525 
L 853.757025 187427.630525 
L 853.757025 187427.630525 
L 860.930579 187427.630525 
L 860.930579 187427.630525 
L 868.104132 187427.630525 
L 868.104132 187427.630525 
L 871.690909 187427.630525 
L 871.690909 187427.630525 
L 871.690909 187427.630525 
L 871.690909 187427.630525 
L 871.690909 187427.630525 
L 871.690909 187427.630525 
L 871.690909 187427.630525 
L 868.104132 187427.630525 
L 868.104132 187427.630525 
L 860.930579 187427.630525 
L 860.930579 187427.630525 
L 853.757025 187427.630525 
L 853.757025 187427.630525 
L 846.583471 187427.630525 
L 846.583471 187427.630525 
L 839.409917 187427.630525 
L 839.409917 187427.630525 
L 832.236364 187427.630525 
L 832.236364 187427.630525 
L 825.06281 187427.630525 
L 825.06281 187427.630525 
L 817.889256 187427.630525 
L 817.889256 187427.630525 
L 810.715702 187427.630525 
L 810.715702 187427.630525 
L 803.542149 187427.630525 
L 803.542149 187427.630525 
L 796.368595 187427.630525 
L 796.368595 187427.630525 
L 789.195041 187427.630525 
L 789.195041 187427.630525 
L 782.021488 187427.630525 
L 782.021488 187427.630525 
L 774.847934 187427.630525 
L 774.847934 187427.630525 
L 767.67438 187427.630525 
L 767.67438 187427.630525 
L 760.500826 187427.630525 
L 760.500826 187427.630525 
L 753.327273 187427.630525 
L 753.327273 187427.630525 
L 746.153719 187427.630525 
L 746.153719 187427.630525 
L 738.980165 187427.630525 
L 738.980165 187427.630525 
L 731.806612 187427.630525 
L 731.806612 187427.630525 
L 724.633058 187427.630525 
L 724.633058 187427.630525 
L 717.459504 187427.630525 
L 717.459504 187427.630525 
L 710.28595 187427.630525 
L 710.28595 187427.630525 
L 703.112397 187427.630525 
L 703.112397 187427.630525 
L 695.938843 187427.630525 
L 695.938843 187427.630525 
L 688.765289 187427.630525 
L 688.765289 187427.630525 
L 681.591736 187427.630525 
L 681.591736 187427.630525 
L 674.418182 187427.630525 
L 674.418182 187427.630525 
L 667.244628 187427.630525 
L 667.244628 187427.630525 
L 660.071074 187427.630525 
L 660.071074 187427.630525 
L 652.897521 187427.630525 
L 652.897521 187427.630525 
L 645.723967 187427.630525 
L 645.723967 187427.630525 
L 638.550413 187427.630525 
L 638.550413 187427.630525 
L 631.37686 187427.630525 
L 631.37686 187427.630525 
L 624.203306 187427.630525 
L 624.203306 187427.630525 
L 617.029752 187427.630525 
L 617.029752 187427.630525 
L 609.856198 187427.630525 
L 609.856198 187427.630525 
L 602.682645 187427.630525 
L 602.682645 187427.630525 
L 595.509091 187427.630525 
L 595.509091 187427.630525 
L 588.335537 187427.630525 
L 588.335537 187427.630525 
L 581.161983 187427.630525 
L 581.161983 187427.630525 
L 573.98843 187427.630525 
L 573.98843 187427.630525 
L 566.814876 187427.630525 
L 566.814876 187427.630525 
L 559.641322 187427.630525 
L 559.641322 187427.630525 
L 552.467769 187427.630525 
L 552.467769 187427.630525 
L 545.294215 187427.630525 
L 545.294215 187427.630525 
L 538.120661 187427.630525 
L 538.120661 187427.630525 
L 530.947107 187427.630525 
L 530.947107 187427.630525 
L 523.773554 187427.630525 
L 523.773554 187427.630525 
L 516.6 187427.630525 
L 516.6 187427.630525 
L 509.426446 187427.630525 
L 509.426446 187427.630525 
L 502.252893 187427.630525 
L 502.252893 187427.630525 
L 495.079339 187427.630525 
L 495.079339 187427.630525 
L 487.905785 187427.630525 
L 487.905785 187427.630525 
L 480.732231 187427.630525 
L 480.732231 187427.630525 
L 473.558678 187427.630525 
L 473.558678 187427.630525 
L 466.385124 187427.630525 
L 466.385124 187427.630525 
L 459.21157 187427.630525 
L 459.21157 187427.630525 
L 452.038017 187427.630525 
L 452.038017 187427.630525 
L 444.864463 187427.630525 
L 444.864463 187427.630525 
L 437.690909 187427.630525 
L 437.690909 187427.630525 
L 430.517355 187427.630525 
L 430.517355 187427.630525 
L 423.343802 187427.630525 
L 423.343802 187427.630525 
L 416.170248 187427.630525 
L 416.170248 187427.630525 
L 408.996694 187427.630525 
L 408.996694 187427.630525 
L 401.82314 187427.630525 
L 401.82314 187427.630525 
L 394.649587 187427.630525 
L 394.649587 187427.630525 
L 387.476033 187427.630525 
L 387.476033 187427.630525 
L 380.302479 187427.630525 
L 380.302479 187427.630525 
L 373.128926 187427.630525 
L 373.128926 187427.630525 
L 365.955372 187427.630525 
L 365.955372 187427.630525 
L 358.781818 187427.630525 
L 358.781818 187427.630525 
L 351.608264 187427.630525 
L 351.608264 187427.630525 
L 344.434711 187427.630525 
L 344.434711 187427.630525 
L 337.261157 187427.630525 
L 337.261157 187427.630525 
L 330.087603 187427.630525 
L 330.087603 187427.630525 
L 322.91405 187427.630525 
L 322.91405 187427.630525 
L 315.740496 187427.630525 
L 315.740496 187427.630525 
L 308.566942 187427.630525 
L 308.566942 187427.630525 
L 301.393388 187427.630525 
L 301.393388 187427.630525 
L 294.219835 187427.630525 
L 294.219835 187427.630525 
L 287.046281 187427.630525 
L 287.046281 187427.630525 
L 279.872727 187427.630525 
L 279.872727 187427.630525 
L 272.699174 187427.630525 
L 272.699174 187427.630525 
L 265.52562 187427.630525 
L 265.52562 187427.630525 
L 258.352066 187427.630525 
L 258.352066 187427.630525 
L 251.178512 187427.630525 
L 251.178512 187427.630525 
L 244.004959 187427.630525 
L 244.004959 187427.630525 
L 236.831405 187427.630525 
L 236.831405 187427.630525 
L 229.657851 187427.630525 
L 229.657851 187427.630525 
L 222.484298 187427.630525 
L 222.484298 187427.630525 
L 215.310744 187427.630525 
L 215.310744 187427.630525 
L 208.13719 187427.630525 
L 208.13719 187427.630525 
L 200.963636 187427.630525 
L 200.963636 187427.630525 
L 193.790083 187427.630525 
L 193.790083 187427.630525 
L 186.616529 187427.630525 
L 186.616529 187427.630525 
L 179.442975 187427.630525 
L 179.442975 187427.630525 
L 172.269421 187427.630525 
L 172.269421 187427.630525 
L 165.095868 187427.630525 
L 165.095868 187427.630525 
L 161.509091 187427.630525 
L 161.509091 187427.630525 
L 161.509091 187427.630525 
z
" style="fill:#bfbf00;fill-opacity:0.4;stroke:#bfbf00;stroke-opacity:0.4;"/>
   </g>
   <g id="matplotlib.axis_1">
    <g id="xtick_1">
     <g id="line2d_1">
      <defs>
       <path d="M 0 0 
L 0 3.5 
" id="m9606514889" style="stroke:#000000;stroke-width:0.8;"/>
      </defs>
      <g>
       <use style="stroke:#000000;stroke-width:0.8;" x="157.922314" xlink:href="#m9606514889" y="882"/>
      </g>
     </g>
     <g id="text_1">
      <!-- 0 -->
      <g transform="translate(148.378564 911.795313)scale(0.3 -0.3)">
       <defs>
        <path d="M 2034 4250 
Q 1547 4250 1301 3770 
Q 1056 3291 1056 2328 
Q 1056 1369 1301 889 
Q 1547 409 2034 409 
Q 2525 409 2770 889 
Q 3016 1369 3016 2328 
Q 3016 3291 2770 3770 
Q 2525 4250 2034 4250 
z
M 2034 4750 
Q 2819 4750 3233 4129 
Q 3647 3509 3647 2328 
Q 3647 1150 3233 529 
Q 2819 -91 2034 -91 
Q 1250 -91 836 529 
Q 422 1150 422 2328 
Q 422 3509 836 4129 
Q 1250 4750 2034 4750 
z
" id="DejaVuSans-30" transform="scale(0.015625)"/>
       </defs>
       <use xlink:href="#DejaVuSans-30"/>
      </g>
     </g>
    </g>
    <g id="xtick_2">
     <g id="line2d_2">
      <g>
       <use style="stroke:#000000;stroke-width:0.8;" x="301.393388" xlink:href="#m9606514889" y="882"/>
      </g>
     </g>
     <g id="text_2">
      <!-- 20 -->
      <g transform="translate(282.305888 911.795313)scale(0.3 -0.3)">
       <defs>
        <path d="M 1228 531 
L 3431 531 
L 3431 0 
L 469 0 
L 469 531 
Q 828 903 1448 1529 
Q 2069 2156 2228 2338 
Q 2531 2678 2651 2914 
Q 2772 3150 2772 3378 
Q 2772 3750 2511 3984 
Q 2250 4219 1831 4219 
Q 1534 4219 1204 4116 
Q 875 4013 500 3803 
L 500 4441 
Q 881 4594 1212 4672 
Q 1544 4750 1819 4750 
Q 2544 4750 2975 4387 
Q 3406 4025 3406 3419 
Q 3406 3131 3298 2873 
Q 3191 2616 2906 2266 
Q 2828 2175 2409 1742 
Q 1991 1309 1228 531 
z
" id="DejaVuSans-32" transform="scale(0.015625)"/>
       </defs>
       <use xlink:href="#DejaVuSans-32"/>
       <use x="63.623047" xlink:href="#DejaVuSans-30"/>
      </g>
     </g>
    </g>
    <g id="xtick_3">
     <g id="line2d_3">
      <g>
       <use style="stroke:#000000;stroke-width:0.8;" x="444.864463" xlink:href="#m9606514889" y="882"/>
      </g>
     </g>
     <g id="text_3">
      <!-- 40 -->
      <g transform="translate(425.776963 911.795313)scale(0.3 -0.3)">
       <defs>
        <path d="M 2419 4116 
L 825 1625 
L 2419 1625 
L 2419 4116 
z
M 2253 4666 
L 3047 4666 
L 3047 1625 
L 3713 1625 
L 3713 1100 
L 3047 1100 
L 3047 0 
L 2419 0 
L 2419 1100 
L 313 1100 
L 313 1709 
L 2253 4666 
z
" id="DejaVuSans-34" transform="scale(0.015625)"/>
       </defs>
       <use xlink:href="#DejaVuSans-34"/>
       <use x="63.623047" xlink:href="#DejaVuSans-30"/>
      </g>
     </g>
    </g>
    <g id="xtick_4">
     <g id="line2d_4">
      <g>
       <use style="stroke:#000000;stroke-width:0.8;" x="588.335537" xlink:href="#m9606514889" y="882"/>
      </g>
     </g>
     <g id="text_4">
      <!-- 60 -->
      <g transform="translate(569.248037 911.795313)scale(0.3 -0.3)">
       <defs>
        <path d="M 2113 2584 
Q 1688 2584 1439 2293 
Q 1191 2003 1191 1497 
Q 1191 994 1439 701 
Q 1688 409 2113 409 
Q 2538 409 2786 701 
Q 3034 994 3034 1497 
Q 3034 2003 2786 2293 
Q 2538 2584 2113 2584 
z
M 3366 4563 
L 3366 3988 
Q 3128 4100 2886 4159 
Q 2644 4219 2406 4219 
Q 1781 4219 1451 3797 
Q 1122 3375 1075 2522 
Q 1259 2794 1537 2939 
Q 1816 3084 2150 3084 
Q 2853 3084 3261 2657 
Q 3669 2231 3669 1497 
Q 3669 778 3244 343 
Q 2819 -91 2113 -91 
Q 1303 -91 875 529 
Q 447 1150 447 2328 
Q 447 3434 972 4092 
Q 1497 4750 2381 4750 
Q 2619 4750 2861 4703 
Q 3103 4656 3366 4563 
z
" id="DejaVuSans-36" transform="scale(0.015625)"/>
       </defs>
       <use xlink:href="#DejaVuSans-36"/>
       <use x="63.623047" xlink:href="#DejaVuSans-30"/>
      </g>
     </g>
    </g>
    <g id="xtick_5">
     <g id="line2d_5">
      <g>
       <use style="stroke:#000000;stroke-width:0.8;" x="731.806612" xlink:href="#m9606514889" y="882"/>
      </g>
     </g>
     <g id="text_5">
      <!-- 80 -->
      <g transform="translate(712.719112 911.795313)scale(0.3 -0.3)">
       <defs>
        <path d="M 2034 2216 
Q 1584 2216 1326 1975 
Q 1069 1734 1069 1313 
Q 1069 891 1326 650 
Q 1584 409 2034 409 
Q 2484 409 2743 651 
Q 3003 894 3003 1313 
Q 3003 1734 2745 1975 
Q 2488 2216 2034 2216 
z
M 1403 2484 
Q 997 2584 770 2862 
Q 544 3141 544 3541 
Q 544 4100 942 4425 
Q 1341 4750 2034 4750 
Q 2731 4750 3128 4425 
Q 3525 4100 3525 3541 
Q 3525 3141 3298 2862 
Q 3072 2584 2669 2484 
Q 3125 2378 3379 2068 
Q 3634 1759 3634 1313 
Q 3634 634 3220 271 
Q 2806 -91 2034 -91 
Q 1263 -91 848 271 
Q 434 634 434 1313 
Q 434 1759 690 2068 
Q 947 2378 1403 2484 
z
M 1172 3481 
Q 1172 3119 1398 2916 
Q 1625 2713 2034 2713 
Q 2441 2713 2670 2916 
Q 2900 3119 2900 3481 
Q 2900 3844 2670 4047 
Q 2441 4250 2034 4250 
Q 1625 4250 1398 4047 
Q 1172 3844 1172 3481 
z
" id="DejaVuSans-38" transform="scale(0.015625)"/>
       </defs>
       <use xlink:href="#DejaVuSans-38"/>
       <use x="63.623047" xlink:href="#DejaVuSans-30"/>
      </g>
     </g>
    </g>
    <g id="xtick_6">
     <g id="line2d_6">
      <g>
       <use style="stroke:#000000;stroke-width:0.8;" x="875.277686" xlink:href="#m9606514889" y="882"/>
      </g>
     </g>
     <g id="text_6">
      <!-- 100 -->
      <g transform="translate(846.646436 911.795313)scale(0.3 -0.3)">
       <defs>
        <path d="M 794 531 
L 1825 531 
L 1825 4091 
L 703 3866 
L 703 4441 
L 1819 4666 
L 2450 4666 
L 2450 531 
L 3481 531 
L 3481 0 
L 794 0 
L 794 531 
z
" id="DejaVuSans-31" transform="scale(0.015625)"/>
       </defs>
       <use xlink:href="#DejaVuSans-31"/>
       <use x="63.623047" xlink:href="#DejaVuSans-30"/>
       <use x="127.246094" xlink:href="#DejaVuSans-30"/>
      </g>
     </g>
    </g>
    <g id="text_7">
     <!-- Layer 1 Observed Energy (GeV) -->
     <g transform="translate(278.655469 944.829687)scale(0.3 -0.3)">
      <defs>
       <path d="M 628 4666 
L 1259 4666 
L 1259 531 
L 3531 531 
L 3531 0 
L 628 0 
L 628 4666 
z
" id="DejaVuSans-4c" transform="scale(0.015625)"/>
       <path d="M 2194 1759 
Q 1497 1759 1228 1600 
Q 959 1441 959 1056 
Q 959 750 1161 570 
Q 1363 391 1709 391 
Q 2188 391 2477 730 
Q 2766 1069 2766 1631 
L 2766 1759 
L 2194 1759 
z
M 3341 1997 
L 3341 0 
L 2766 0 
L 2766 531 
Q 2569 213 2275 61 
Q 1981 -91 1556 -91 
Q 1019 -91 701 211 
Q 384 513 384 1019 
Q 384 1609 779 1909 
Q 1175 2209 1959 2209 
L 2766 2209 
L 2766 2266 
Q 2766 2663 2505 2880 
Q 2244 3097 1772 3097 
Q 1472 3097 1187 3025 
Q 903 2953 641 2809 
L 641 3341 
Q 956 3463 1253 3523 
Q 1550 3584 1831 3584 
Q 2591 3584 2966 3190 
Q 3341 2797 3341 1997 
z
" id="DejaVuSans-61" transform="scale(0.015625)"/>
       <path d="M 2059 -325 
Q 1816 -950 1584 -1140 
Q 1353 -1331 966 -1331 
L 506 -1331 
L 506 -850 
L 844 -850 
Q 1081 -850 1212 -737 
Q 1344 -625 1503 -206 
L 1606 56 
L 191 3500 
L 800 3500 
L 1894 763 
L 2988 3500 
L 3597 3500 
L 2059 -325 
z
" id="DejaVuSans-79" transform="scale(0.015625)"/>
       <path d="M 3597 1894 
L 3597 1613 
L 953 1613 
Q 991 1019 1311 708 
Q 1631 397 2203 397 
Q 2534 397 2845 478 
Q 3156 559 3463 722 
L 3463 178 
Q 3153 47 2828 -22 
Q 2503 -91 2169 -91 
Q 1331 -91 842 396 
Q 353 884 353 1716 
Q 353 2575 817 3079 
Q 1281 3584 2069 3584 
Q 2775 3584 3186 3129 
Q 3597 2675 3597 1894 
z
M 3022 2063 
Q 3016 2534 2758 2815 
Q 2500 3097 2075 3097 
Q 1594 3097 1305 2825 
Q 1016 2553 972 2059 
L 3022 2063 
z
" id="DejaVuSans-65" transform="scale(0.015625)"/>
       <path d="M 2631 2963 
Q 2534 3019 2420 3045 
Q 2306 3072 2169 3072 
Q 1681 3072 1420 2755 
Q 1159 2438 1159 1844 
L 1159 0 
L 581 0 
L 581 3500 
L 1159 3500 
L 1159 2956 
Q 1341 3275 1631 3429 
Q 1922 3584 2338 3584 
Q 2397 3584 2469 3576 
Q 2541 3569 2628 3553 
L 2631 2963 
z
" id="DejaVuSans-72" transform="scale(0.015625)"/>
       <path id="DejaVuSans-20" transform="scale(0.015625)"/>
       <path d="M 2522 4238 
Q 1834 4238 1429 3725 
Q 1025 3213 1025 2328 
Q 1025 1447 1429 934 
Q 1834 422 2522 422 
Q 3209 422 3611 934 
Q 4013 1447 4013 2328 
Q 4013 3213 3611 3725 
Q 3209 4238 2522 4238 
z
M 2522 4750 
Q 3503 4750 4090 4092 
Q 4678 3434 4678 2328 
Q 4678 1225 4090 567 
Q 3503 -91 2522 -91 
Q 1538 -91 948 565 
Q 359 1222 359 2328 
Q 359 3434 948 4092 
Q 1538 4750 2522 4750 
z
" id="DejaVuSans-4f" transform="scale(0.015625)"/>
       <path d="M 3116 1747 
Q 3116 2381 2855 2742 
Q 2594 3103 2138 3103 
Q 1681 3103 1420 2742 
Q 1159 2381 1159 1747 
Q 1159 1113 1420 752 
Q 1681 391 2138 391 
Q 2594 391 2855 752 
Q 3116 1113 3116 1747 
z
M 1159 2969 
Q 1341 3281 1617 3432 
Q 1894 3584 2278 3584 
Q 2916 3584 3314 3078 
Q 3713 2572 3713 1747 
Q 3713 922 3314 415 
Q 2916 -91 2278 -91 
Q 1894 -91 1617 61 
Q 1341 213 1159 525 
L 1159 0 
L 581 0 
L 581 4863 
L 1159 4863 
L 1159 2969 
z
" id="DejaVuSans-62" transform="scale(0.015625)"/>
       <path d="M 2834 3397 
L 2834 2853 
Q 2591 2978 2328 3040 
Q 2066 3103 1784 3103 
Q 1356 3103 1142 2972 
Q 928 2841 928 2578 
Q 928 2378 1081 2264 
Q 1234 2150 1697 2047 
L 1894 2003 
Q 2506 1872 2764 1633 
Q 3022 1394 3022 966 
Q 3022 478 2636 193 
Q 2250 -91 1575 -91 
Q 1294 -91 989 -36 
Q 684 19 347 128 
L 347 722 
Q 666 556 975 473 
Q 1284 391 1588 391 
Q 1994 391 2212 530 
Q 2431 669 2431 922 
Q 2431 1156 2273 1281 
Q 2116 1406 1581 1522 
L 1381 1569 
Q 847 1681 609 1914 
Q 372 2147 372 2553 
Q 372 3047 722 3315 
Q 1072 3584 1716 3584 
Q 2034 3584 2315 3537 
Q 2597 3491 2834 3397 
z
" id="DejaVuSans-73" transform="scale(0.015625)"/>
       <path d="M 191 3500 
L 800 3500 
L 1894 563 
L 2988 3500 
L 3597 3500 
L 2284 0 
L 1503 0 
L 191 3500 
z
" id="DejaVuSans-76" transform="scale(0.015625)"/>
       <path d="M 2906 2969 
L 2906 4863 
L 3481 4863 
L 3481 0 
L 2906 0 
L 2906 525 
Q 2725 213 2448 61 
Q 2172 -91 1784 -91 
Q 1150 -91 751 415 
Q 353 922 353 1747 
Q 353 2572 751 3078 
Q 1150 3584 1784 3584 
Q 2172 3584 2448 3432 
Q 2725 3281 2906 2969 
z
M 947 1747 
Q 947 1113 1208 752 
Q 1469 391 1925 391 
Q 2381 391 2643 752 
Q 2906 1113 2906 1747 
Q 2906 2381 2643 2742 
Q 2381 3103 1925 3103 
Q 1469 3103 1208 2742 
Q 947 2381 947 1747 
z
" id="DejaVuSans-64" transform="scale(0.015625)"/>
       <path d="M 628 4666 
L 3578 4666 
L 3578 4134 
L 1259 4134 
L 1259 2753 
L 3481 2753 
L 3481 2222 
L 1259 2222 
L 1259 531 
L 3634 531 
L 3634 0 
L 628 0 
L 628 4666 
z
" id="DejaVuSans-45" transform="scale(0.015625)"/>
       <path d="M 3513 2113 
L 3513 0 
L 2938 0 
L 2938 2094 
Q 2938 2591 2744 2837 
Q 2550 3084 2163 3084 
Q 1697 3084 1428 2787 
Q 1159 2491 1159 1978 
L 1159 0 
L 581 0 
L 581 3500 
L 1159 3500 
L 1159 2956 
Q 1366 3272 1645 3428 
Q 1925 3584 2291 3584 
Q 2894 3584 3203 3211 
Q 3513 2838 3513 2113 
z
" id="DejaVuSans-6e" transform="scale(0.015625)"/>
       <path d="M 2906 1791 
Q 2906 2416 2648 2759 
Q 2391 3103 1925 3103 
Q 1463 3103 1205 2759 
Q 947 2416 947 1791 
Q 947 1169 1205 825 
Q 1463 481 1925 481 
Q 2391 481 2648 825 
Q 2906 1169 2906 1791 
z
M 3481 434 
Q 3481 -459 3084 -895 
Q 2688 -1331 1869 -1331 
Q 1566 -1331 1297 -1286 
Q 1028 -1241 775 -1147 
L 775 -588 
Q 1028 -725 1275 -790 
Q 1522 -856 1778 -856 
Q 2344 -856 2625 -561 
Q 2906 -266 2906 331 
L 2906 616 
Q 2728 306 2450 153 
Q 2172 0 1784 0 
Q 1141 0 747 490 
Q 353 981 353 1791 
Q 353 2603 747 3093 
Q 1141 3584 1784 3584 
Q 2172 3584 2450 3431 
Q 2728 3278 2906 2969 
L 2906 3500 
L 3481 3500 
L 3481 434 
z
" id="DejaVuSans-67" transform="scale(0.015625)"/>
       <path d="M 1984 4856 
Q 1566 4138 1362 3434 
Q 1159 2731 1159 2009 
Q 1159 1288 1364 580 
Q 1569 -128 1984 -844 
L 1484 -844 
Q 1016 -109 783 600 
Q 550 1309 550 2009 
Q 550 2706 781 3412 
Q 1013 4119 1484 4856 
L 1984 4856 
z
" id="DejaVuSans-28" transform="scale(0.015625)"/>
       <path d="M 3809 666 
L 3809 1919 
L 2778 1919 
L 2778 2438 
L 4434 2438 
L 4434 434 
Q 4069 175 3628 42 
Q 3188 -91 2688 -91 
Q 1594 -91 976 548 
Q 359 1188 359 2328 
Q 359 3472 976 4111 
Q 1594 4750 2688 4750 
Q 3144 4750 3555 4637 
Q 3966 4525 4313 4306 
L 4313 3634 
Q 3963 3931 3569 4081 
Q 3175 4231 2741 4231 
Q 1884 4231 1454 3753 
Q 1025 3275 1025 2328 
Q 1025 1384 1454 906 
Q 1884 428 2741 428 
Q 3075 428 3337 486 
Q 3600 544 3809 666 
z
" id="DejaVuSans-47" transform="scale(0.015625)"/>
       <path d="M 1831 0 
L 50 4666 
L 709 4666 
L 2188 738 
L 3669 4666 
L 4325 4666 
L 2547 0 
L 1831 0 
z
" id="DejaVuSans-56" transform="scale(0.015625)"/>
       <path d="M 513 4856 
L 1013 4856 
Q 1481 4119 1714 3412 
Q 1947 2706 1947 2009 
Q 1947 1309 1714 600 
Q 1481 -109 1013 -844 
L 513 -844 
Q 928 -128 1133 580 
Q 1338 1288 1338 2009 
Q 1338 2731 1133 3434 
Q 928 4138 513 4856 
z
" id="DejaVuSans-29" transform="scale(0.015625)"/>
      </defs>
      <use xlink:href="#DejaVuSans-4c"/>
      <use x="55.712891" xlink:href="#DejaVuSans-61"/>
      <use x="116.992188" xlink:href="#DejaVuSans-79"/>
      <use x="176.171875" xlink:href="#DejaVuSans-65"/>
      <use x="237.695312" xlink:href="#DejaVuSans-72"/>
      <use x="278.808594" xlink:href="#DejaVuSans-20"/>
      <use x="310.595703" xlink:href="#DejaVuSans-31"/>
      <use x="374.21875" xlink:href="#DejaVuSans-20"/>
      <use x="406.005859" xlink:href="#DejaVuSans-4f"/>
      <use x="484.716797" xlink:href="#DejaVuSans-62"/>
      <use x="548.193359" xlink:href="#DejaVuSans-73"/>
      <use x="600.292969" xlink:href="#DejaVuSans-65"/>
      <use x="661.816406" xlink:href="#DejaVuSans-72"/>
      <use x="702.929688" xlink:href="#DejaVuSans-76"/>
      <use x="762.109375" xlink:href="#DejaVuSans-65"/>
      <use x="823.632812" xlink:href="#DejaVuSans-64"/>
      <use x="887.109375" xlink:href="#DejaVuSans-20"/>
      <use x="918.896484" xlink:href="#DejaVuSans-45"/>
      <use x="982.080078" xlink:href="#DejaVuSans-6e"/>
      <use x="1045.458984" xlink:href="#DejaVuSans-65"/>
      <use x="1106.982422" xlink:href="#DejaVuSans-72"/>
      <use x="1146.345703" xlink:href="#DejaVuSans-67"/>
      <use x="1209.822266" xlink:href="#DejaVuSans-79"/>
      <use x="1269.001953" xlink:href="#DejaVuSans-20"/>
      <use x="1300.789062" xlink:href="#DejaVuSans-28"/>
      <use x="1339.802734" xlink:href="#DejaVuSans-47"/>
      <use x="1417.292969" xlink:href="#DejaVuSans-65"/>
      <use x="1478.816406" xlink:href="#DejaVuSans-56"/>
      <use x="1547.224609" xlink:href="#DejaVuSans-29"/>
     </g>
    </g>
   </g>
   <g id="matplotlib.axis_2">
    <g id="ytick_1">
     <g id="line2d_7">
      <defs>
       <path d="M 0 0 
L -3.5 0 
" id="m9d1c4ba9b1" style="stroke:#000000;stroke-width:0.8;"/>
      </defs>
      <g>
       <use style="stroke:#000000;stroke-width:0.8;" x="126" xlink:href="#m9d1c4ba9b1" y="847.407273"/>
      </g>
     </g>
     <g id="text_8">
      <!-- $\mathdefault{10^{0}}$ -->
      <g transform="translate(66.2 858.804929)scale(0.3 -0.3)">
       <use transform="translate(0 0.765625)" xlink:href="#DejaVuSans-31"/>
       <use transform="translate(63.623047 0.765625)" xlink:href="#DejaVuSans-30"/>
       <use transform="translate(128.203125 39.046875)scale(0.7)" xlink:href="#DejaVuSans-30"/>
      </g>
     </g>
    </g>
    <g id="ytick_2">
     <g id="line2d_8">
      <g>
       <use style="stroke:#000000;stroke-width:0.8;" x="126" xlink:href="#m9d1c4ba9b1" y="660.827049"/>
      </g>
     </g>
     <g id="text_9">
      <!-- $\mathdefault{10^{1}}$ -->
      <g transform="translate(66.2 672.224706)scale(0.3 -0.3)">
       <use transform="translate(0 0.684375)" xlink:href="#DejaVuSans-31"/>
       <use transform="translate(63.623047 0.684375)" xlink:href="#DejaVuSans-30"/>
       <use transform="translate(128.203125 38.965625)scale(0.7)" xlink:href="#DejaVuSans-31"/>
      </g>
     </g>
    </g>
    <g id="ytick_3">
     <g id="line2d_9">
      <g>
       <use style="stroke:#000000;stroke-width:0.8;" x="126" xlink:href="#m9d1c4ba9b1" y="474.246826"/>
      </g>
     </g>
     <g id="text_10">
      <!-- $\mathdefault{10^{2}}$ -->
      <g transform="translate(66.2 485.644482)scale(0.3 -0.3)">
       <use transform="translate(0 0.765625)" xlink:href="#DejaVuSans-31"/>
       <use transform="translate(63.623047 0.765625)" xlink:href="#DejaVuSans-30"/>
       <use transform="translate(128.203125 39.046875)scale(0.7)" xlink:href="#DejaVuSans-32"/>
      </g>
     </g>
    </g>
    <g id="ytick_4">
     <g id="line2d_10">
      <g>
       <use style="stroke:#000000;stroke-width:0.8;" x="126" xlink:href="#m9d1c4ba9b1" y="287.666603"/>
      </g>
     </g>
     <g id="text_11">
      <!-- $\mathdefault{10^{3}}$ -->
      <g transform="translate(66.2 299.064259)scale(0.3 -0.3)">
       <defs>
        <path d="M 2597 2516 
Q 3050 2419 3304 2112 
Q 3559 1806 3559 1356 
Q 3559 666 3084 287 
Q 2609 -91 1734 -91 
Q 1441 -91 1130 -33 
Q 819 25 488 141 
L 488 750 
Q 750 597 1062 519 
Q 1375 441 1716 441 
Q 2309 441 2620 675 
Q 2931 909 2931 1356 
Q 2931 1769 2642 2001 
Q 2353 2234 1838 2234 
L 1294 2234 
L 1294 2753 
L 1863 2753 
Q 2328 2753 2575 2939 
Q 2822 3125 2822 3475 
Q 2822 3834 2567 4026 
Q 2313 4219 1838 4219 
Q 1578 4219 1281 4162 
Q 984 4106 628 3988 
L 628 4550 
Q 988 4650 1302 4700 
Q 1616 4750 1894 4750 
Q 2613 4750 3031 4423 
Q 3450 4097 3450 3541 
Q 3450 3153 3228 2886 
Q 3006 2619 2597 2516 
z
" id="DejaVuSans-33" transform="scale(0.015625)"/>
       </defs>
       <use transform="translate(0 0.765625)" xlink:href="#DejaVuSans-31"/>
       <use transform="translate(63.623047 0.765625)" xlink:href="#DejaVuSans-30"/>
       <use transform="translate(128.203125 39.046875)scale(0.7)" xlink:href="#DejaVuSans-33"/>
      </g>
     </g>
    </g>
    <g id="ytick_5">
     <g id="line2d_11">
      <defs>
       <path d="M 0 0 
L -2 0 
" id="m0c27092783" style="stroke:#000000;stroke-width:0.6;"/>
      </defs>
      <g>
       <use style="stroke:#000000;stroke-width:0.6;" x="126" xlink:href="#m0c27092783" y="876.308915"/>
      </g>
     </g>
    </g>
    <g id="ytick_6">
     <g id="line2d_12">
      <g>
       <use style="stroke:#000000;stroke-width:0.6;" x="126" xlink:href="#m0c27092783" y="865.488765"/>
      </g>
     </g>
    </g>
    <g id="ytick_7">
     <g id="line2d_13">
      <g>
       <use style="stroke:#000000;stroke-width:0.6;" x="126" xlink:href="#m0c27092783" y="855.944716"/>
      </g>
     </g>
    </g>
    <g id="ytick_8">
     <g id="line2d_14">
      <g>
       <use style="stroke:#000000;stroke-width:0.6;" x="126" xlink:href="#m0c27092783" y="791.241029"/>
      </g>
     </g>
    </g>
    <g id="ytick_9">
     <g id="line2d_15">
      <g>
       <use style="stroke:#000000;stroke-width:0.6;" x="126" xlink:href="#m0c27092783" y="758.385883"/>
      </g>
     </g>
    </g>
    <g id="ytick_10">
     <g id="line2d_16">
      <g>
       <use style="stroke:#000000;stroke-width:0.6;" x="126" xlink:href="#m0c27092783" y="735.074785"/>
      </g>
     </g>
    </g>
    <g id="ytick_11">
     <g id="line2d_17">
      <g>
       <use style="stroke:#000000;stroke-width:0.6;" x="126" xlink:href="#m0c27092783" y="716.993293"/>
      </g>
     </g>
    </g>
    <g id="ytick_12">
     <g id="line2d_18">
      <g>
       <use style="stroke:#000000;stroke-width:0.6;" x="126" xlink:href="#m0c27092783" y="702.219639"/>
      </g>
     </g>
    </g>
    <g id="ytick_13">
     <g id="line2d_19">
      <g>
       <use style="stroke:#000000;stroke-width:0.6;" x="126" xlink:href="#m0c27092783" y="689.728692"/>
      </g>
     </g>
    </g>
    <g id="ytick_14">
     <g id="line2d_20">
      <g>
       <use style="stroke:#000000;stroke-width:0.6;" x="126" xlink:href="#m0c27092783" y="678.908541"/>
      </g>
     </g>
    </g>
    <g id="ytick_15">
     <g id="line2d_21">
      <g>
       <use style="stroke:#000000;stroke-width:0.6;" x="126" xlink:href="#m0c27092783" y="669.364492"/>
      </g>
     </g>
    </g>
    <g id="ytick_16">
     <g id="line2d_22">
      <g>
       <use style="stroke:#000000;stroke-width:0.6;" x="126" xlink:href="#m0c27092783" y="604.660806"/>
      </g>
     </g>
    </g>
    <g id="ytick_17">
     <g id="line2d_23">
      <g>
       <use style="stroke:#000000;stroke-width:0.6;" x="126" xlink:href="#m0c27092783" y="571.805659"/>
      </g>
     </g>
    </g>
    <g id="ytick_18">
     <g id="line2d_24">
      <g>
       <use style="stroke:#000000;stroke-width:0.6;" x="126" xlink:href="#m0c27092783" y="548.494562"/>
      </g>
     </g>
    </g>
    <g id="ytick_19">
     <g id="line2d_25">
      <g>
       <use style="stroke:#000000;stroke-width:0.6;" x="126" xlink:href="#m0c27092783" y="530.41307"/>
      </g>
     </g>
    </g>
    <g id="ytick_20">
     <g id="line2d_26">
      <g>
       <use style="stroke:#000000;stroke-width:0.6;" x="126" xlink:href="#m0c27092783" y="515.639415"/>
      </g>
     </g>
    </g>
    <g id="ytick_21">
     <g id="line2d_27">
      <g>
       <use style="stroke:#000000;stroke-width:0.6;" x="126" xlink:href="#m0c27092783" y="503.148468"/>
      </g>
     </g>
    </g>
    <g id="ytick_22">
     <g id="line2d_28">
      <g>
       <use style="stroke:#000000;stroke-width:0.6;" x="126" xlink:href="#m0c27092783" y="492.328318"/>
      </g>
     </g>
    </g>
    <g id="ytick_23">
     <g id="line2d_29">
      <g>
       <use style="stroke:#000000;stroke-width:0.6;" x="126" xlink:href="#m0c27092783" y="482.784269"/>
      </g>
     </g>
    </g>
    <g id="ytick_24">
     <g id="line2d_30">
      <g>
       <use style="stroke:#000000;stroke-width:0.6;" x="126" xlink:href="#m0c27092783" y="418.080582"/>
      </g>
     </g>
    </g>
    <g id="ytick_25">
     <g id="line2d_31">
      <g>
       <use style="stroke:#000000;stroke-width:0.6;" x="126" xlink:href="#m0c27092783" y="385.225436"/>
      </g>
     </g>
    </g>
    <g id="ytick_26">
     <g id="line2d_32">
      <g>
       <use style="stroke:#000000;stroke-width:0.6;" x="126" xlink:href="#m0c27092783" y="361.914339"/>
      </g>
     </g>
    </g>
    <g id="ytick_27">
     <g id="line2d_33">
      <g>
       <use style="stroke:#000000;stroke-width:0.6;" x="126" xlink:href="#m0c27092783" y="343.832847"/>
      </g>
     </g>
    </g>
    <g id="ytick_28">
     <g id="line2d_34">
      <g>
       <use style="stroke:#000000;stroke-width:0.6;" x="126" xlink:href="#m0c27092783" y="329.059192"/>
      </g>
     </g>
    </g>
    <g id="ytick_29">
     <g id="line2d_35">
      <g>
       <use style="stroke:#000000;stroke-width:0.6;" x="126" xlink:href="#m0c27092783" y="316.568245"/>
      </g>
     </g>
    </g>
    <g id="ytick_30">
     <g id="line2d_36">
      <g>
       <use style="stroke:#000000;stroke-width:0.6;" x="126" xlink:href="#m0c27092783" y="305.748095"/>
      </g>
     </g>
    </g>
    <g id="ytick_31">
     <g id="line2d_37">
      <g>
       <use style="stroke:#000000;stroke-width:0.6;" x="126" xlink:href="#m0c27092783" y="296.204046"/>
      </g>
     </g>
    </g>
    <g id="ytick_32">
     <g id="line2d_38">
      <g>
       <use style="stroke:#000000;stroke-width:0.6;" x="126" xlink:href="#m0c27092783" y="231.500359"/>
      </g>
     </g>
    </g>
    <g id="ytick_33">
     <g id="line2d_39">
      <g>
       <use style="stroke:#000000;stroke-width:0.6;" x="126" xlink:href="#m0c27092783" y="198.645213"/>
      </g>
     </g>
    </g>
    <g id="ytick_34">
     <g id="line2d_40">
      <g>
       <use style="stroke:#000000;stroke-width:0.6;" x="126" xlink:href="#m0c27092783" y="175.334115"/>
      </g>
     </g>
    </g>
    <g id="ytick_35">
     <g id="line2d_41">
      <g>
       <use style="stroke:#000000;stroke-width:0.6;" x="126" xlink:href="#m0c27092783" y="157.252624"/>
      </g>
     </g>
    </g>
    <g id="ytick_36">
     <g id="line2d_42">
      <g>
       <use style="stroke:#000000;stroke-width:0.6;" x="126" xlink:href="#m0c27092783" y="142.478969"/>
      </g>
     </g>
    </g>
    <g id="ytick_37">
     <g id="line2d_43">
      <g>
       <use style="stroke:#000000;stroke-width:0.6;" x="126" xlink:href="#m0c27092783" y="129.988022"/>
      </g>
     </g>
    </g>
    <g id="text_12">
     <!-- Events -->
     <g transform="translate(55.960938 552.266719)rotate(-90)scale(0.3 -0.3)">
      <defs>
       <path d="M 1172 4494 
L 1172 3500 
L 2356 3500 
L 2356 3053 
L 1172 3053 
L 1172 1153 
Q 1172 725 1289 603 
Q 1406 481 1766 481 
L 2356 481 
L 2356 0 
L 1766 0 
Q 1100 0 847 248 
Q 594 497 594 1153 
L 594 3053 
L 172 3053 
L 172 3500 
L 594 3500 
L 594 4494 
L 1172 4494 
z
" id="DejaVuSans-74" transform="scale(0.015625)"/>
      </defs>
      <use xlink:href="#DejaVuSans-45"/>
      <use x="63.183594" xlink:href="#DejaVuSans-76"/>
      <use x="122.363281" xlink:href="#DejaVuSans-65"/>
      <use x="183.886719" xlink:href="#DejaVuSans-6e"/>
      <use x="247.265625" xlink:href="#DejaVuSans-74"/>
      <use x="286.474609" xlink:href="#DejaVuSans-73"/>
     </g>
    </g>
   </g>
   <g id="line2d_44">
    <path clip-path="url(#p48b3fef5c7)" d="M 161.509091 847.407273 
L 161.509091 425.722649 
L 165.095868 425.722649 
L 165.095868 423.094394 
L 172.269421 423.094394 
L 172.269421 440.853267 
L 179.442975 440.853267 
L 179.442975 441.933694 
L 186.616529 441.933694 
L 186.616529 457.47231 
L 200.963636 457.47231 
L 200.963636 446.982225 
L 208.13719 446.982225 
L 208.13719 463.629506 
L 215.310744 463.629506 
L 215.310744 446.982225 
L 222.484298 446.982225 
L 222.484298 462.92181 
L 229.657851 462.92181 
L 229.657851 453.612973 
L 236.831405 453.612973 
L 236.831405 456.816187 
L 244.004959 456.816187 
L 244.004959 462.92181 
L 251.178512 462.92181 
L 251.178512 462.22024 
L 258.352066 462.22024 
L 258.352066 446.982225 
L 265.52562 446.982225 
L 265.52562 480.127285 
L 272.699174 480.127285 
L 272.699174 476.714959 
L 279.872727 476.714959 
L 279.872727 460.835065 
L 287.046281 460.835065 
L 287.046281 465.790455 
L 294.219835 465.790455 
L 294.219835 454.243566 
L 301.393388 454.243566 
L 301.393388 461.524693 
L 308.566942 461.524693 
L 308.566942 468.764394 
L 315.740496 468.764394 
L 315.740496 465.063717 
L 322.91405 465.063717 
L 322.91405 455.519668 
L 330.087603 455.519668 
L 330.087603 470.293322 
L 337.261157 470.293322 
L 337.261157 465.790455 
L 344.434711 465.790455 
L 344.434711 466.52377 
L 351.608264 466.52377 
L 351.608264 467.263782 
L 358.781818 467.263782 
L 358.781818 454.243566 
L 365.955372 454.243566 
L 365.955372 460.151257 
L 373.128926 460.151257 
L 373.128926 458.800713 
L 380.302479 458.800713 
L 380.302479 464.343438 
L 387.476033 464.343438 
L 387.476033 448.148155 
L 394.649587 448.148155 
L 394.649587 437.181343 
L 401.82314 437.181343 
L 401.82314 470.293322 
L 408.996694 470.293322 
L 408.996694 466.52377 
L 416.170248 466.52377 
L 416.170248 465.790455 
L 423.343802 465.790455 
L 423.343802 477.554664 
L 430.517355 477.554664 
L 430.517355 461.524693 
L 437.690909 461.524693 
L 437.690909 466.52377 
L 444.864463 466.52377 
L 444.864463 478.403161 
L 452.038017 478.403161 
L 452.038017 471.068742 
L 459.21157 471.068742 
L 459.21157 465.063717 
L 466.385124 465.063717 
L 466.385124 457.47231 
L 473.558678 457.47231 
L 473.558678 473.440543 
L 480.732231 473.440543 
L 480.732231 474.246826 
L 487.905785 474.246826 
L 487.905785 464.343438 
L 495.079339 464.343438 
L 495.079339 459.473172 
L 502.252893 459.473172 
L 502.252893 471.068742 
L 509.426446 471.068742 
L 509.426446 471.851654 
L 516.6 471.851654 
L 516.6 457.47231 
L 523.773554 457.47231 
L 523.773554 474.246826 
L 530.947107 474.246826 
L 530.947107 480.127285 
L 538.120661 480.127285 
L 538.120661 457.47231 
L 545.294215 457.47231 
L 545.294215 470.293322 
L 552.467769 470.293322 
L 552.467769 473.440543 
L 559.641322 473.440543 
L 559.641322 471.068742 
L 566.814876 471.068742 
L 566.814876 471.851654 
L 573.98843 471.851654 
L 573.98843 469.525252 
L 581.161983 469.525252 
L 581.161983 481.888892 
L 588.335537 481.888892 
L 588.335537 454.243566 
L 595.509091 454.243566 
L 595.509091 472.642204 
L 602.682645 472.642204 
L 602.682645 471.068742 
L 609.856198 471.068742 
L 609.856198 465.790455 
L 617.029752 465.790455 
L 617.029752 463.629506 
L 624.203306 463.629506 
L 624.203306 471.068742 
L 631.37686 471.068742 
L 631.37686 453.612973 
L 638.550413 453.612973 
L 638.550413 471.851654 
L 645.723967 471.851654 
L 645.723967 446.405491 
L 652.897521 446.405491 
L 652.897521 464.343438 
L 667.244628 464.343438 
L 667.244628 468.010614 
L 674.418182 468.010614 
L 674.418182 477.554664 
L 681.591736 477.554664 
L 681.591736 463.629506 
L 688.765289 463.629506 
L 688.765289 456.165334 
L 695.938843 456.165334 
L 695.938843 469.525252 
L 703.112397 469.525252 
L 703.112397 475.061213 
L 710.28595 475.061213 
L 710.28595 454.879105 
L 717.459504 454.879105 
L 717.459504 451.750115 
L 724.633058 451.750115 
L 724.633058 468.010614 
L 731.806612 468.010614 
L 731.806612 457.47231 
L 738.980165 457.47231 
L 738.980165 458.13379 
L 746.153719 458.13379 
L 746.153719 467.263782 
L 753.327273 467.263782 
L 753.327273 466.52377 
L 767.67438 466.52377 
L 767.67438 490.327457 
L 774.847934 490.327457 
L 774.847934 510.40981 
L 782.021488 510.40981 
L 782.021488 512.982431 
L 789.195041 512.982431 
L 789.195041 537.169545 
L 796.368595 537.169545 
L 796.368595 552.650897 
L 803.542149 552.650897 
L 803.542149 571.805659 
L 810.715702 571.805659 
L 810.715702 639.567473 
L 817.889256 639.567473 
L 817.889256 702.219639 
L 825.06281 702.219639 
L 825.06281 791.241029 
L 832.236364 791.241029 
L 832.236364 1009 
M 839.409917 1009 
L 839.409917 791.241029 
L 846.583471 791.241029 
L 846.583471 1009 
L 846.583471 1009 
" style="fill:none;stroke:#00bfbf;stroke-linecap:square;stroke-width:4;"/>
   </g>
   <g id="line2d_45">
    <path clip-path="url(#p48b3fef5c7)" d="M 161.509091 758.385883 
L 161.509091 437.695825 
L 165.095868 437.695825 
L 165.095868 444.699517 
L 172.269421 444.699517 
L 172.269421 449.331107 
L 179.442975 449.331107 
L 179.442975 460.151257 
L 186.616529 460.151257 
L 186.616529 449.331107 
L 193.790083 449.331107 
L 193.790083 439.787058 
L 200.963636 439.787058 
L 200.963636 462.22024 
L 208.13719 462.22024 
L 208.13719 477.554664 
L 215.310744 477.554664 
L 215.310744 449.929123 
L 222.484298 449.929123 
L 222.484298 466.52377 
L 229.657851 466.52377 
L 229.657851 460.835065 
L 236.831405 460.835065 
L 236.831405 456.816187 
L 244.004959 456.816187 
L 244.004959 474.246826 
L 251.178512 474.246826 
L 251.178512 473.440543 
L 258.352066 473.440543 
L 258.352066 456.816187 
L 265.52562 456.816187 
L 265.52562 452.98725 
L 272.699174 452.98725 
L 272.699174 475.061213 
L 279.872727 475.061213 
L 279.872727 462.22024 
L 287.046281 462.22024 
L 287.046281 460.835065 
L 294.219835 460.835065 
L 294.219835 458.800713 
L 301.393388 458.800713 
L 301.393388 454.243566 
L 308.566942 454.243566 
L 308.566942 458.800713 
L 315.740496 458.800713 
L 315.740496 449.331107 
L 322.91405 449.331107 
L 322.91405 462.22024 
L 330.087603 462.22024 
L 330.087603 460.151257 
L 337.261157 460.151257 
L 337.261157 459.473172 
L 344.434711 459.473172 
L 344.434711 452.366322 
L 351.608264 452.366322 
L 351.608264 465.063717 
L 358.781818 465.063717 
L 358.781818 468.010614 
L 365.955372 468.010614 
L 365.955372 464.343438 
L 373.128926 464.343438 
L 373.128926 470.293322 
L 380.302479 470.293322 
L 380.302479 461.524693 
L 387.476033 461.524693 
L 387.476033 466.52377 
L 394.649587 466.52377 
L 394.649587 462.92181 
L 401.82314 462.92181 
L 401.82314 469.525252 
L 408.996694 469.525252 
L 408.996694 468.010614 
L 416.170248 468.010614 
L 416.170248 460.835065 
L 423.343802 460.835065 
L 423.343802 468.010614 
L 430.517355 468.010614 
L 430.517355 469.525252 
L 437.690909 469.525252 
L 437.690909 456.816187 
L 452.038017 456.816187 
L 452.038017 450.531585 
L 459.21157 450.531585 
L 459.21157 455.519668 
L 466.385124 455.519668 
L 466.385124 462.92181 
L 473.558678 462.92181 
L 473.558678 458.13379 
L 480.732231 458.13379 
L 480.732231 459.473172 
L 487.905785 459.473172 
L 487.905785 454.879105 
L 495.079339 454.879105 
L 495.079339 481.003301 
L 502.252893 481.003301 
L 502.252893 463.629506 
L 509.426446 463.629506 
L 509.426446 484.605262 
L 516.6 484.605262 
L 516.6 468.010614 
L 523.773554 468.010614 
L 523.773554 471.851654 
L 530.947107 471.851654 
L 530.947107 485.531338 
L 538.120661 485.531338 
L 538.120661 467.263782 
L 545.294215 467.263782 
L 545.294215 468.010614 
L 552.467769 468.010614 
L 552.467769 457.47231 
L 559.641322 457.47231 
L 559.641322 468.764394 
L 566.814876 468.764394 
L 566.814876 473.440543 
L 573.98843 473.440543 
L 573.98843 466.52377 
L 581.161983 466.52377 
L 581.161983 456.165334 
L 588.335537 456.165334 
L 588.335537 456.816187 
L 595.509091 456.816187 
L 595.509091 457.47231 
L 602.682645 457.47231 
L 602.682645 456.165334 
L 609.856198 456.165334 
L 609.856198 460.151257 
L 617.029752 460.151257 
L 617.029752 474.246826 
L 624.203306 474.246826 
L 624.203306 485.531338 
L 631.37686 485.531338 
L 631.37686 462.92181 
L 638.550413 462.92181 
L 638.550413 470.293322 
L 645.723967 470.293322 
L 645.723967 464.343438 
L 652.897521 464.343438 
L 652.897521 475.883867 
L 660.071074 475.883867 
L 660.071074 474.246826 
L 667.244628 474.246826 
L 667.244628 470.293322 
L 674.418182 470.293322 
L 674.418182 465.063717 
L 681.591736 465.063717 
L 681.591736 475.883867 
L 688.765289 475.883867 
L 688.765289 465.790455 
L 695.938843 465.790455 
L 695.938843 465.063717 
L 703.112397 465.063717 
L 703.112397 453.612973 
L 710.28595 453.612973 
L 710.28595 455.519668 
L 717.459504 455.519668 
L 717.459504 463.629506 
L 724.633058 463.629506 
L 724.633058 475.061213 
L 731.806612 475.061213 
L 731.806612 473.440543 
L 738.980165 473.440543 
L 738.980165 458.13379 
L 746.153719 458.13379 
L 746.153719 465.790455 
L 753.327273 465.790455 
L 753.327273 485.531338 
L 760.500826 485.531338 
L 760.500826 481.003301 
L 767.67438 481.003301 
L 767.67438 493.347586 
L 774.847934 493.347586 
L 774.847934 501.999077 
L 782.021488 501.999077 
L 782.021488 497.557924 
L 789.195041 497.557924 
L 789.195041 537.169545 
L 796.368595 537.169545 
L 796.368595 548.494562 
L 803.542149 548.494562 
L 803.542149 537.169545 
L 810.715702 537.169545 
L 810.715702 564.082603 
L 817.889256 564.082603 
L 817.889256 561.663594 
L 825.06281 561.663594 
L 825.06281 639.567473 
L 832.236364 639.567473 
L 832.236364 593.335789 
L 839.409917 593.335789 
L 839.409917 613.198248 
L 846.583471 613.198248 
L 846.583471 702.219639 
L 853.757025 702.219639 
L 853.757025 716.993293 
L 860.930579 716.993293 
L 860.930579 791.241029 
L 868.104132 791.241029 
L 868.104132 847.407273 
L 871.690909 847.407273 
L 871.690909 1009 
L 871.690909 1009 
" style="fill:none;stroke:#bf00bf;stroke-linecap:square;stroke-width:4;"/>
   </g>
   <g id="line2d_46">
    <path clip-path="url(#p48b3fef5c7)" d="M 161.509091 617.829838 
L 161.509091 155.552727 
L 165.095868 155.552727 
L 165.095868 376.042326 
L 172.269421 376.042326 
L 172.269421 400.323864 
L 179.442975 400.323864 
L 179.442975 402.970001 
L 186.616529 402.970001 
L 186.616529 412.220384 
L 193.790083 412.220384 
L 193.790083 410.726687 
L 200.963636 410.726687 
L 200.963636 421.811558 
L 208.13719 421.811558 
L 208.13719 419.717623 
L 215.310744 419.717623 
L 215.310744 422.236917 
L 222.484298 422.236917 
L 222.484298 427.979919 
L 229.657851 427.979919 
L 229.657851 428.439018 
L 236.831405 428.439018 
L 236.831405 434.161213 
L 244.004959 434.161213 
L 244.004959 438.734695 
L 251.178512 438.734695 
L 251.178512 444.699517 
L 258.352066 444.699517 
L 258.352066 438.213596 
L 265.52562 438.213596 
L 265.52562 452.366322 
L 272.699174 452.366322 
L 272.699174 454.243566 
L 279.872727 454.243566 
L 279.872727 468.764394 
L 287.046281 468.764394 
L 287.046281 464.343438 
L 294.219835 464.343438 
L 294.219835 460.151257 
L 301.393388 460.151257 
L 301.393388 479.260637 
L 308.566942 479.260637 
L 308.566942 473.440543 
L 315.740496 473.440543 
L 315.740496 480.127285 
L 322.91405 480.127285 
L 322.91405 471.068742 
L 330.087603 471.068742 
L 330.087603 476.714959 
L 337.261157 476.714959 
L 337.261157 479.260637 
L 344.434711 479.260637 
L 344.434711 507.916359 
L 351.608264 507.916359 
L 351.608264 485.531338 
L 358.781818 485.531338 
L 358.781818 494.379839 
L 365.955372 494.379839 
L 365.955372 499.748077 
L 373.128926 499.748077 
L 373.128926 517.001309 
L 380.302479 517.001309 
L 380.302479 499.748077 
L 387.476033 499.748077 
L 387.476033 528.808448 
L 394.649587 528.808448 
L 394.649587 515.639415 
L 401.82314 515.639415 
L 401.82314 527.234986 
L 408.996694 527.234986 
L 408.996694 519.79575 
L 416.170248 519.79575 
L 416.170248 552.650897 
L 423.343802 552.650897 
L 423.343802 535.426881 
L 430.517355 535.426881 
L 430.517355 538.950513 
L 437.690909 538.950513 
L 437.690909 542.634364 
L 444.864463 542.634364 
L 444.864463 564.082603 
L 452.038017 564.082603 
L 452.038017 566.576054 
L 459.21157 566.576054 
L 459.21157 571.805659 
L 466.385124 571.805659 
L 466.385124 622.742298 
L 473.558678 622.742298 
L 473.558678 580.343102 
L 480.732231 580.343102 
L 480.732231 586.579314 
L 487.905785 586.579314 
L 487.905785 583.40123 
L 495.079339 583.40123 
L 495.079339 660.827049 
L 502.252893 660.827049 
L 502.252893 633.562448 
L 509.426446 633.562448 
L 509.426446 627.971903 
L 516.6 627.971903 
L 516.6 689.728692 
L 523.773554 689.728692 
L 523.773554 678.908541 
L 530.947107 678.908541 
L 530.947107 653.103993 
L 538.120661 653.103993 
L 538.120661 702.219639 
L 545.294215 702.219639 
L 545.294215 689.728692 
L 552.467769 689.728692 
L 552.467769 716.993293 
L 566.814876 716.993293 
L 566.814876 735.074785 
L 573.98843 735.074785 
L 573.98843 791.241029 
L 588.335537 791.241029 
L 588.335537 847.407273 
L 595.509091 847.407273 
L 595.509091 791.241029 
L 617.029752 791.241029 
L 617.029752 847.407273 
L 624.203306 847.407273 
L 624.203306 791.241029 
L 631.37686 791.241029 
L 631.37686 847.407273 
L 638.550413 847.407273 
L 638.550413 1009 
M 667.244628 1009 
L 667.244628 847.407273 
L 674.418182 847.407273 
L 674.418182 1009 
M 688.765289 1009 
L 688.765289 847.407273 
L 695.938843 847.407273 
L 695.938843 1009 
L 695.938843 1009 
" style="fill:none;stroke:#bfbf00;stroke-linecap:square;stroke-width:4;"/>
   </g>
   <g id="patch_3">
    <path d="M 126 882 
L 126 120.96 
" style="fill:none;stroke:#000000;stroke-linecap:square;stroke-linejoin:miter;stroke-width:0.8;"/>
   </g>
   <g id="patch_4">
    <path d="M 907.2 882 
L 907.2 120.96 
" style="fill:none;stroke:#000000;stroke-linecap:square;stroke-linejoin:miter;stroke-width:0.8;"/>
   </g>
   <g id="patch_5">
    <path d="M 126 882 
L 907.2 882 
" style="fill:none;stroke:#000000;stroke-linecap:square;stroke-linejoin:miter;stroke-width:0.8;"/>
   </g>
   <g id="patch_6">
    <path d="M 126 120.96 
L 907.2 120.96 
" style="fill:none;stroke:#000000;stroke-linecap:square;stroke-linejoin:miter;stroke-width:0.8;"/>
   </g>
   <g id="legend_1">
    <g id="patch_7">
     <path d="M 544.8 225.069375 
L 893.2 225.069375 
Q 897.2 225.069375 897.2 221.069375 
L 897.2 134.96 
Q 897.2 130.96 893.2 130.96 
L 544.8 130.96 
Q 540.8 130.96 540.8 134.96 
L 540.8 221.069375 
Q 540.8 225.069375 544.8 225.069375 
z
" style="fill:#ffffff;opacity:0.8;stroke:#cccccc;stroke-linejoin:miter;"/>
    </g>
    <g id="line2d_47">
     <path d="M 548.8 147.156875 
L 588.8 147.156875 
" style="fill:none;stroke:#00bfbf;stroke-linecap:square;stroke-width:4;"/>
    </g>
    <g id="line2d_48"/>
    <g id="text_13">
     <!-- $e^{+}$ DVAE -->
     <g transform="translate(604.8 154.156875)scale(0.2 -0.2)">
      <defs>
       <path d="M 3078 2063 
Q 3088 2113 3092 2166 
Q 3097 2219 3097 2272 
Q 3097 2653 2873 2875 
Q 2650 3097 2266 3097 
Q 1838 3097 1509 2826 
Q 1181 2556 1013 2059 
L 3078 2063 
z
M 3578 1613 
L 903 1613 
Q 884 1494 878 1425 
Q 872 1356 872 1306 
Q 872 872 1139 634 
Q 1406 397 1894 397 
Q 2269 397 2603 481 
Q 2938 566 3225 728 
L 3116 159 
Q 2806 34 2476 -28 
Q 2147 -91 1806 -91 
Q 1078 -91 686 257 
Q 294 606 294 1247 
Q 294 1794 489 2264 
Q 684 2734 1063 3103 
Q 1306 3334 1642 3459 
Q 1978 3584 2356 3584 
Q 2950 3584 3301 3228 
Q 3653 2872 3653 2272 
Q 3653 2128 3634 1964 
Q 3616 1800 3578 1613 
z
" id="DejaVuSans-Oblique-65" transform="scale(0.015625)"/>
       <path d="M 2944 4013 
L 2944 2272 
L 4684 2272 
L 4684 1741 
L 2944 1741 
L 2944 0 
L 2419 0 
L 2419 1741 
L 678 1741 
L 678 2272 
L 2419 2272 
L 2419 4013 
L 2944 4013 
z
" id="DejaVuSans-2b" transform="scale(0.015625)"/>
       <path d="M 1259 4147 
L 1259 519 
L 2022 519 
Q 2988 519 3436 956 
Q 3884 1394 3884 2338 
Q 3884 3275 3436 3711 
Q 2988 4147 2022 4147 
L 1259 4147 
z
M 628 4666 
L 1925 4666 
Q 3281 4666 3915 4102 
Q 4550 3538 4550 2338 
Q 4550 1131 3912 565 
Q 3275 0 1925 0 
L 628 0 
L 628 4666 
z
" id="DejaVuSans-44" transform="scale(0.015625)"/>
       <path d="M 2188 4044 
L 1331 1722 
L 3047 1722 
L 2188 4044 
z
M 1831 4666 
L 2547 4666 
L 4325 0 
L 3669 0 
L 3244 1197 
L 1141 1197 
L 716 0 
L 50 0 
L 1831 4666 
z
" id="DejaVuSans-41" transform="scale(0.015625)"/>
      </defs>
      <use transform="translate(0 0.826562)" xlink:href="#DejaVuSans-Oblique-65"/>
      <use transform="translate(66.173333 39.107812)scale(0.7)" xlink:href="#DejaVuSans-2b"/>
      <use transform="translate(127.560052 0.826562)" xlink:href="#DejaVuSans-20"/>
      <use transform="translate(159.347161 0.826562)" xlink:href="#DejaVuSans-44"/>
      <use transform="translate(236.349115 0.826562)" xlink:href="#DejaVuSans-56"/>
      <use transform="translate(304.757318 0.826562)" xlink:href="#DejaVuSans-41"/>
      <use transform="translate(373.165521 0.826562)" xlink:href="#DejaVuSans-45"/>
     </g>
    </g>
    <g id="line2d_49">
     <path d="M 548.8 176.513125 
L 588.8 176.513125 
" style="fill:none;stroke:#bf00bf;stroke-linecap:square;stroke-width:4;"/>
    </g>
    <g id="line2d_50"/>
    <g id="text_14">
     <!-- $\gamma$   DVAE -->
     <g transform="translate(604.8 183.513125)scale(0.2 -0.2)">
      <defs>
       <path d="M 1491 2950 
L 1838 788 
L 3456 3500 
L 4066 3500 
L 1972 0 
L 1713 -1331 
L 1138 -1331 
L 1397 0 
L 988 2613 
Q 925 3006 628 3006 
L 475 3006 
L 569 3500 
L 788 3500 
Q 1403 3500 1491 2950 
z
" id="DejaVuSans-Oblique-3b3" transform="scale(0.015625)"/>
      </defs>
      <use transform="translate(0 0.09375)" xlink:href="#DejaVuSans-Oblique-3b3"/>
      <use transform="translate(59.179688 0.09375)" xlink:href="#DejaVuSans-20"/>
      <use transform="translate(90.966797 0.09375)" xlink:href="#DejaVuSans-20"/>
      <use transform="translate(122.753906 0.09375)" xlink:href="#DejaVuSans-20"/>
      <use transform="translate(154.541016 0.09375)" xlink:href="#DejaVuSans-44"/>
      <use transform="translate(231.542969 0.09375)" xlink:href="#DejaVuSans-56"/>
      <use transform="translate(299.951172 0.09375)" xlink:href="#DejaVuSans-41"/>
      <use transform="translate(368.359375 0.09375)" xlink:href="#DejaVuSans-45"/>
     </g>
    </g>
    <g id="line2d_51">
     <path d="M 548.8 205.91 
L 588.8 205.91 
" style="fill:none;stroke:#bfbf00;stroke-linecap:square;stroke-width:4;"/>
    </g>
    <g id="line2d_52"/>
    <g id="text_15">
     <!-- $\pi^{+}$ DVAE -->
     <g transform="translate(604.8 212.91)scale(0.2 -0.2)">
      <defs>
       <path d="M 584 3500 
L 3938 3500 
L 3825 2925 
L 3384 2925 
L 2966 775 
Q 2922 550 2981 450 
Q 3038 353 3209 353 
Q 3256 353 3325 363 
Q 3397 369 3419 372 
L 3338 -44 
Q 3222 -84 3103 -103 
Q 2981 -122 2866 -122 
Q 2491 -122 2388 81 
Q 2284 288 2391 838 
L 2797 2925 
L 1506 2925 
L 938 0 
L 350 0 
L 919 2925 
L 472 2925 
L 584 3500 
z
" id="DejaVuSans-Oblique-3c0" transform="scale(0.015625)"/>
      </defs>
      <use transform="translate(0 0.826562)" xlink:href="#DejaVuSans-Oblique-3c0"/>
      <use transform="translate(64.671224 39.107812)scale(0.7)" xlink:href="#DejaVuSans-2b"/>
      <use transform="translate(126.057943 0.826562)" xlink:href="#DejaVuSans-20"/>
      <use transform="translate(157.845052 0.826562)" xlink:href="#DejaVuSans-44"/>
      <use transform="translate(234.847005 0.826562)" xlink:href="#DejaVuSans-56"/>
      <use transform="translate(303.255208 0.826562)" xlink:href="#DejaVuSans-41"/>
      <use transform="translate(371.663411 0.826562)" xlink:href="#DejaVuSans-45"/>
     </g>
    </g>
    <g id="patch_8">
     <path d="M 732.2 154.156875 
L 772.2 154.156875 
L 772.2 140.156875 
L 732.2 140.156875 
z
" style="fill:#00bfbf;opacity:0.4;stroke:#00bfbf;stroke-linejoin:miter;"/>
    </g>
    <g id="text_16">
     <!-- $e^{+}$ GEANT -->
     <g transform="translate(788.2 154.156875)scale(0.2 -0.2)">
      <defs>
       <path d="M 628 4666 
L 1478 4666 
L 3547 763 
L 3547 4666 
L 4159 4666 
L 4159 0 
L 3309 0 
L 1241 3903 
L 1241 0 
L 628 0 
L 628 4666 
z
" id="DejaVuSans-4e" transform="scale(0.015625)"/>
       <path d="M -19 4666 
L 3928 4666 
L 3928 4134 
L 2272 4134 
L 2272 0 
L 1638 0 
L 1638 4134 
L -19 4134 
L -19 4666 
z
" id="DejaVuSans-54" transform="scale(0.015625)"/>
      </defs>
      <use transform="translate(0 0.826562)" xlink:href="#DejaVuSans-Oblique-65"/>
      <use transform="translate(66.173333 39.107812)scale(0.7)" xlink:href="#DejaVuSans-2b"/>
      <use transform="translate(127.560052 0.826562)" xlink:href="#DejaVuSans-20"/>
      <use transform="translate(159.347161 0.826562)" xlink:href="#DejaVuSans-47"/>
      <use transform="translate(236.837396 0.826562)" xlink:href="#DejaVuSans-45"/>
      <use transform="translate(300.02099 0.826562)" xlink:href="#DejaVuSans-41"/>
      <use transform="translate(368.429193 0.826562)" xlink:href="#DejaVuSans-4e"/>
      <use transform="translate(443.23388 0.826562)" xlink:href="#DejaVuSans-54"/>
     </g>
    </g>
    <g id="patch_9">
     <path d="M 732.2 183.513125 
L 772.2 183.513125 
L 772.2 169.513125 
L 732.2 169.513125 
z
" style="fill:#bf00bf;opacity:0.4;stroke:#bf00bf;stroke-linejoin:miter;"/>
    </g>
    <g id="text_17">
     <!-- $\gamma$   GEANT -->
     <g transform="translate(788.2 183.513125)scale(0.2 -0.2)">
      <use transform="translate(0 0.78125)" xlink:href="#DejaVuSans-Oblique-3b3"/>
      <use transform="translate(59.179688 0.78125)" xlink:href="#DejaVuSans-20"/>
      <use transform="translate(90.966797 0.78125)" xlink:href="#DejaVuSans-20"/>
      <use transform="translate(122.753906 0.78125)" xlink:href="#DejaVuSans-20"/>
      <use transform="translate(154.541016 0.78125)" xlink:href="#DejaVuSans-47"/>
      <use transform="translate(232.03125 0.78125)" xlink:href="#DejaVuSans-45"/>
      <use transform="translate(295.214844 0.78125)" xlink:href="#DejaVuSans-41"/>
      <use transform="translate(363.623047 0.78125)" xlink:href="#DejaVuSans-4e"/>
      <use transform="translate(438.427734 0.78125)" xlink:href="#DejaVuSans-54"/>
     </g>
    </g>
    <g id="patch_10">
     <path d="M 732.2 212.91 
L 772.2 212.91 
L 772.2 198.91 
L 732.2 198.91 
z
" style="fill:#bfbf00;opacity:0.4;stroke:#bfbf00;stroke-linejoin:miter;"/>
    </g>
    <g id="text_18">
     <!-- $\pi^{+}$ GEANT -->
     <g transform="translate(788.2 212.91)scale(0.2 -0.2)">
      <use transform="translate(0 0.826562)" xlink:href="#DejaVuSans-Oblique-3c0"/>
      <use transform="translate(64.671224 39.107812)scale(0.7)" xlink:href="#DejaVuSans-2b"/>
      <use transform="translate(126.057943 0.826562)" xlink:href="#DejaVuSans-20"/>
      <use transform="translate(157.845052 0.826562)" xlink:href="#DejaVuSans-47"/>
      <use transform="translate(235.335286 0.826562)" xlink:href="#DejaVuSans-45"/>
      <use transform="translate(298.51888 0.826562)" xlink:href="#DejaVuSans-41"/>
      <use transform="translate(366.927083 0.826562)" xlink:href="#DejaVuSans-4e"/>
      <use transform="translate(441.731771 0.826562)" xlink:href="#DejaVuSans-54"/>
     </g>
    </g>
   </g>
  </g>
 </g>
 <defs>
  <clipPath id="p48b3fef5c7">
   <rect height="761.04" width="781.2" x="126" y="120.96"/>
  </clipPath>
 </defs>
</svg>
