<?xml version="1.0" encoding="utf-8" standalone="no"?>
<!DOCTYPE svg PUBLIC "-//W3C//DTD SVG 1.1//EN"
  "http://www.w3.org/Graphics/SVG/1.1/DTD/svg11.dtd">
<svg height="1008pt" version="1.1" viewBox="0 0 1008 1008" width="1008pt" xmlns="http://www.w3.org/2000/svg" xmlns:xlink="http://www.w3.org/1999/xlink">
 <metadata>
  <rdf:RDF xmlns:cc="http://creativecommons.org/ns#" xmlns:dc="http://purl.org/dc/elements/1.1/" xmlns:rdf="http://www.w3.org/1999/02/22-rdf-syntax-ns#">
   <cc:Work>
    <dc:type rdf:resource="http://purl.org/dc/dcmitype/StillImage"/>
    <dc:date>2021-09-27T15:02:15.332419</dc:date>
    <dc:format>image/svg+xml</dc:format>
    <dc:creator>
     <cc:Agent>
      <dc:title>Matplotlib v3.4.2, https://matplotlib.org/</dc:title>
     </cc:Agent>
    </dc:creator>
   </cc:Work>
  </rdf:RDF>
 </metadata>
 <defs>
  <style type="text/css">*{stroke-linecap:butt;stroke-linejoin:round;}</style>
 </defs>
 <g id="figure_1">
  <g id="patch_1">
   <path d="M 0 1008 
L 1008 1008 
L 1008 0 
L 0 0 
z
" style="fill:none;"/>
  </g>
  <g id="axes_1">
   <g id="patch_2">
    <path d="M 126 882 
L 907.2 882 
L 907.2 120.96 
L 126 120.96 
z
" style="fill:#ffffff;"/>
   </g>
   <g id="PolyCollection_1">
    <path clip-path="url(#p94f451f8a8)" d="M 161.509091 121157.605401 
L 161.509091 121157.605401 
L 161.509091 121157.605401 
L 161.509091 121157.605401 
L 171.404016 121157.605401 
L 171.404016 121157.605401 
L 190.093012 121157.605401 
L 190.093012 121157.605401 
L 208.782007 121157.605401 
L 208.782007 121157.605401 
L 227.471002 121157.605401 
L 227.471002 121157.605401 
L 246.159997 121157.605401 
L 246.159997 121157.605401 
L 264.848992 121157.605401 
L 264.848992 121157.605401 
L 283.537988 121157.605401 
L 283.537988 121157.605401 
L 302.226983 121157.605401 
L 302.226983 121157.605401 
L 320.915978 121157.605401 
L 320.915978 121157.605401 
L 339.604973 121157.605401 
L 339.604973 121157.605401 
L 358.293968 121157.605401 
L 358.293968 121157.605401 
L 376.982964 121157.605401 
L 376.982964 121157.605401 
L 395.671959 121157.605401 
L 395.671959 121157.605401 
L 414.360954 121157.605401 
L 414.360954 121157.605401 
L 433.049949 121157.605401 
L 433.049949 121157.605401 
L 451.738945 121157.605401 
L 451.738945 121157.605401 
L 470.42794 121157.605401 
L 470.42794 121157.605401 
L 489.116935 121157.605401 
L 489.116935 519.159635 
L 507.80593 519.159635 
L 507.80593 531.499142 
L 526.494925 531.499142 
L 526.494925 121157.605401 
L 545.183921 121157.605401 
L 545.183921 519.961179 
L 563.872916 519.961179 
L 563.872916 511.115112 
L 582.561911 511.115112 
L 582.561911 451.020663 
L 601.250906 451.020663 
L 601.250906 445.161126 
L 619.939901 445.161126 
L 619.939901 404.365763 
L 638.628897 404.365763 
L 638.628897 400.573824 
L 657.317892 400.573824 
L 657.317892 356.057905 
L 676.006887 356.057905 
L 676.006887 325.117544 
L 694.695882 325.117544 
L 694.695882 293.703023 
L 713.384878 293.703023 
L 713.384878 276.322027 
L 732.073873 276.322027 
L 732.073873 277.588392 
L 750.762868 277.588392 
L 750.762868 296.789377 
L 769.451863 296.789377 
L 769.451863 335.162876 
L 788.140858 335.162876 
L 788.140858 376.820616 
L 806.829854 376.820616 
L 806.829854 430.388408 
L 825.518849 430.388408 
L 825.518849 474.169126 
L 844.207844 474.169126 
L 844.207844 585.423838 
L 862.896839 585.423838 
L 862.896839 121157.605401 
L 871.690909 121157.605401 
L 871.690909 121157.605401 
L 871.690909 121157.605401 
L 871.690909 121157.605401 
L 871.690909 121157.605401 
L 871.690909 121157.605401 
L 871.690909 121157.605401 
L 862.896839 121157.605401 
L 862.896839 121157.605401 
L 844.207844 121157.605401 
L 844.207844 121157.605401 
L 825.518849 121157.605401 
L 825.518849 121157.605401 
L 806.829854 121157.605401 
L 806.829854 121157.605401 
L 788.140858 121157.605401 
L 788.140858 121157.605401 
L 769.451863 121157.605401 
L 769.451863 121157.605401 
L 750.762868 121157.605401 
L 750.762868 121157.605401 
L 732.073873 121157.605401 
L 732.073873 121157.605401 
L 713.384878 121157.605401 
L 713.384878 121157.605401 
L 694.695882 121157.605401 
L 694.695882 121157.605401 
L 676.006887 121157.605401 
L 676.006887 121157.605401 
L 657.317892 121157.605401 
L 657.317892 121157.605401 
L 638.628897 121157.605401 
L 638.628897 121157.605401 
L 619.939901 121157.605401 
L 619.939901 121157.605401 
L 601.250906 121157.605401 
L 601.250906 121157.605401 
L 582.561911 121157.605401 
L 582.561911 121157.605401 
L 563.872916 121157.605401 
L 563.872916 121157.605401 
L 545.183921 121157.605401 
L 545.183921 121157.605401 
L 526.494925 121157.605401 
L 526.494925 121157.605401 
L 507.80593 121157.605401 
L 507.80593 121157.605401 
L 489.116935 121157.605401 
L 489.116935 121157.605401 
L 470.42794 121157.605401 
L 470.42794 121157.605401 
L 451.738945 121157.605401 
L 451.738945 121157.605401 
L 433.049949 121157.605401 
L 433.049949 121157.605401 
L 414.360954 121157.605401 
L 414.360954 121157.605401 
L 395.671959 121157.605401 
L 395.671959 121157.605401 
L 376.982964 121157.605401 
L 376.982964 121157.605401 
L 358.293968 121157.605401 
L 358.293968 121157.605401 
L 339.604973 121157.605401 
L 339.604973 121157.605401 
L 320.915978 121157.605401 
L 320.915978 121157.605401 
L 302.226983 121157.605401 
L 302.226983 121157.605401 
L 283.537988 121157.605401 
L 283.537988 121157.605401 
L 264.848992 121157.605401 
L 264.848992 121157.605401 
L 246.159997 121157.605401 
L 246.159997 121157.605401 
L 227.471002 121157.605401 
L 227.471002 121157.605401 
L 208.782007 121157.605401 
L 208.782007 121157.605401 
L 190.093012 121157.605401 
L 190.093012 121157.605401 
L 171.404016 121157.605401 
L 171.404016 121157.605401 
L 161.509091 121157.605401 
L 161.509091 121157.605401 
L 161.509091 121157.605401 
z
" style="fill:#00bfbf;fill-opacity:0.4;stroke:#00bfbf;stroke-opacity:0.4;"/>
   </g>
   <g id="PolyCollection_2">
    <path clip-path="url(#p94f451f8a8)" d="M 161.509091 121157.605401 
L 161.509091 811.190294 
L 161.509091 811.190294 
L 161.509091 260.831521 
L 171.404016 260.831521 
L 171.404016 273.171029 
L 190.093012 273.171029 
L 190.093012 285.510536 
L 208.782007 285.510536 
L 208.782007 276.664469 
L 227.471002 276.664469 
L 227.471002 244.732617 
L 246.159997 244.732617 
L 246.159997 274.652817 
L 264.848992 274.652817 
L 264.848992 250.775347 
L 283.537988 250.775347 
L 283.537988 249.406307 
L 302.226983 249.406307 
L 302.226983 234.257421 
L 320.915978 234.257421 
L 320.915978 266.608295 
L 339.604973 266.608295 
L 339.604973 244.502182 
L 358.293968 244.502182 
L 358.293968 255.070331 
L 376.982964 255.070331 
L 376.982964 267.409839 
L 395.671959 267.409839 
L 395.671959 276.377205 
L 414.360954 276.377205 
L 414.360954 277.05745 
L 433.049949 277.05745 
L 433.049949 283.242787 
L 451.738945 283.242787 
L 451.738945 288.027917 
L 470.42794 288.027917 
L 470.42794 305.649703 
L 489.116935 305.649703 
L 489.116935 297.927336 
L 507.80593 297.927336 
L 507.80593 305.218086 
L 526.494925 305.218086 
L 526.494925 305.351205 
L 545.183921 305.351205 
L 545.183921 316.613353 
L 563.872916 316.613353 
L 563.872916 309.944687 
L 582.561911 309.944687 
L 582.561911 304.281703 
L 601.250906 304.281703 
L 601.250906 310.437875 
L 619.939901 310.437875 
L 619.939901 302.375182 
L 638.628897 302.375182 
L 638.628897 301.900165 
L 657.317892 301.900165 
L 657.317892 295.111618 
L 676.006887 295.111618 
L 676.006887 290.300476 
L 694.695882 290.300476 
L 694.695882 288.322856 
L 713.384878 288.322856 
L 713.384878 288.054933 
L 732.073873 288.054933 
L 732.073873 300.027256 
L 750.762868 300.027256 
L 750.762868 324.503871 
L 769.451863 324.503871 
L 769.451863 360.196534 
L 788.140858 360.196534 
L 788.140858 407.894095 
L 806.829854 407.894095 
L 806.829854 448.072669 
L 825.518849 448.072669 
L 825.518849 512.309636 
L 844.207844 512.309636 
L 844.207844 602.588193 
L 862.896839 602.588193 
L 862.896839 121157.605401 
L 871.690909 121157.605401 
L 871.690909 121157.605401 
L 871.690909 121157.605401 
L 871.690909 121157.605401 
L 871.690909 121157.605401 
L 871.690909 121157.605401 
L 871.690909 121157.605401 
L 862.896839 121157.605401 
L 862.896839 121157.605401 
L 844.207844 121157.605401 
L 844.207844 121157.605401 
L 825.518849 121157.605401 
L 825.518849 121157.605401 
L 806.829854 121157.605401 
L 806.829854 121157.605401 
L 788.140858 121157.605401 
L 788.140858 121157.605401 
L 769.451863 121157.605401 
L 769.451863 121157.605401 
L 750.762868 121157.605401 
L 750.762868 121157.605401 
L 732.073873 121157.605401 
L 732.073873 121157.605401 
L 713.384878 121157.605401 
L 713.384878 121157.605401 
L 694.695882 121157.605401 
L 694.695882 121157.605401 
L 676.006887 121157.605401 
L 676.006887 121157.605401 
L 657.317892 121157.605401 
L 657.317892 121157.605401 
L 638.628897 121157.605401 
L 638.628897 121157.605401 
L 619.939901 121157.605401 
L 619.939901 121157.605401 
L 601.250906 121157.605401 
L 601.250906 121157.605401 
L 582.561911 121157.605401 
L 582.561911 121157.605401 
L 563.872916 121157.605401 
L 563.872916 121157.605401 
L 545.183921 121157.605401 
L 545.183921 121157.605401 
L 526.494925 121157.605401 
L 526.494925 121157.605401 
L 507.80593 121157.605401 
L 507.80593 121157.605401 
L 489.116935 121157.605401 
L 489.116935 121157.605401 
L 470.42794 121157.605401 
L 470.42794 121157.605401 
L 451.738945 121157.605401 
L 451.738945 121157.605401 
L 433.049949 121157.605401 
L 433.049949 121157.605401 
L 414.360954 121157.605401 
L 414.360954 121157.605401 
L 395.671959 121157.605401 
L 395.671959 121157.605401 
L 376.982964 121157.605401 
L 376.982964 121157.605401 
L 358.293968 121157.605401 
L 358.293968 121157.605401 
L 339.604973 121157.605401 
L 339.604973 121157.605401 
L 320.915978 121157.605401 
L 320.915978 121157.605401 
L 302.226983 121157.605401 
L 302.226983 121157.605401 
L 283.537988 121157.605401 
L 283.537988 121157.605401 
L 264.848992 121157.605401 
L 264.848992 121157.605401 
L 246.159997 121157.605401 
L 246.159997 121157.605401 
L 227.471002 121157.605401 
L 227.471002 121157.605401 
L 208.782007 121157.605401 
L 208.782007 121157.605401 
L 190.093012 121157.605401 
L 190.093012 121157.605401 
L 171.404016 121157.605401 
L 171.404016 121157.605401 
L 161.509091 121157.605401 
L 161.509091 121157.605401 
L 161.509091 121157.605401 
z
" style="fill:#bf00bf;fill-opacity:0.4;stroke:#bf00bf;stroke-opacity:0.4;"/>
   </g>
   <g id="PolyCollection_3">
    <path clip-path="url(#p94f451f8a8)" d="M 161.509091 121157.605401 
L 161.509091 121157.605401 
L 161.509091 121157.605401 
L 161.509091 121157.605401 
L 171.404016 121157.605401 
L 171.404016 121157.605401 
L 190.093012 121157.605401 
L 190.093012 121157.605401 
L 208.782007 121157.605401 
L 208.782007 121157.605401 
L 227.471002 121157.605401 
L 227.471002 121157.605401 
L 246.159997 121157.605401 
L 246.159997 121157.605401 
L 264.848992 121157.605401 
L 264.848992 121157.605401 
L 283.537988 121157.605401 
L 283.537988 121157.605401 
L 302.226983 121157.605401 
L 302.226983 323.330603 
L 320.915978 323.330603 
L 320.915978 260.068514 
L 339.604973 260.068514 
L 339.604973 244.502182 
L 358.293968 244.502182 
L 358.293968 224.358446 
L 376.982964 224.358446 
L 376.982964 187.296054 
L 395.671959 187.296054 
L 395.671959 182.216218 
L 414.360954 182.216218 
L 414.360954 177.477626 
L 433.049949 177.477626 
L 433.049949 175.617833 
L 451.738945 175.617833 
L 451.738945 181.951397 
L 470.42794 181.951397 
L 470.42794 190.352828 
L 489.116935 190.352828 
L 489.116935 202.814845 
L 507.80593 202.814845 
L 507.80593 213.942 
L 526.494925 213.942 
L 526.494925 234.999199 
L 545.183921 234.999199 
L 545.183921 249.212702 
L 563.872916 249.212702 
L 563.872916 264.885227 
L 582.561911 264.885227 
L 582.561911 285.697957 
L 601.250906 285.697957 
L 601.250906 300.101469 
L 619.939901 300.101469 
L 619.939901 311.492674 
L 638.628897 311.492674 
L 638.628897 320.908338 
L 657.317892 320.908338 
L 657.317892 337.504185 
L 676.006887 337.504185 
L 676.006887 337.838529 
L 694.695882 337.838529 
L 694.695882 340.042388 
L 713.384878 340.042388 
L 713.384878 321.894862 
L 732.073873 321.894862 
L 732.073873 287.872729 
L 750.762868 287.872729 
L 750.762868 338.55975 
L 769.451863 338.55975 
L 769.451863 408.726363 
L 788.140858 408.726363 
L 788.140858 448.246003 
L 806.829854 448.246003 
L 806.829854 486.766417 
L 825.518849 486.766417 
L 825.518849 547.236424 
L 844.207844 547.236424 
L 844.207844 597.083101 
L 862.896839 597.083101 
L 862.896839 631.931039 
L 871.690909 631.931039 
L 871.690909 121157.605401 
L 871.690909 121157.605401 
L 871.690909 121157.605401 
L 871.690909 121157.605401 
L 871.690909 121157.605401 
L 871.690909 121157.605401 
L 862.896839 121157.605401 
L 862.896839 121157.605401 
L 844.207844 121157.605401 
L 844.207844 121157.605401 
L 825.518849 121157.605401 
L 825.518849 121157.605401 
L 806.829854 121157.605401 
L 806.829854 121157.605401 
L 788.140858 121157.605401 
L 788.140858 121157.605401 
L 769.451863 121157.605401 
L 769.451863 121157.605401 
L 750.762868 121157.605401 
L 750.762868 121157.605401 
L 732.073873 121157.605401 
L 732.073873 121157.605401 
L 713.384878 121157.605401 
L 713.384878 121157.605401 
L 694.695882 121157.605401 
L 694.695882 121157.605401 
L 676.006887 121157.605401 
L 676.006887 121157.605401 
L 657.317892 121157.605401 
L 657.317892 121157.605401 
L 638.628897 121157.605401 
L 638.628897 121157.605401 
L 619.939901 121157.605401 
L 619.939901 121157.605401 
L 601.250906 121157.605401 
L 601.250906 121157.605401 
L 582.561911 121157.605401 
L 582.561911 121157.605401 
L 563.872916 121157.605401 
L 563.872916 121157.605401 
L 545.183921 121157.605401 
L 545.183921 121157.605401 
L 526.494925 121157.605401 
L 526.494925 121157.605401 
L 507.80593 121157.605401 
L 507.80593 121157.605401 
L 489.116935 121157.605401 
L 489.116935 121157.605401 
L 470.42794 121157.605401 
L 470.42794 121157.605401 
L 451.738945 121157.605401 
L 451.738945 121157.605401 
L 433.049949 121157.605401 
L 433.049949 121157.605401 
L 414.360954 121157.605401 
L 414.360954 121157.605401 
L 395.671959 121157.605401 
L 395.671959 121157.605401 
L 376.982964 121157.605401 
L 376.982964 121157.605401 
L 358.293968 121157.605401 
L 358.293968 121157.605401 
L 339.604973 121157.605401 
L 339.604973 121157.605401 
L 320.915978 121157.605401 
L 320.915978 121157.605401 
L 302.226983 121157.605401 
L 302.226983 121157.605401 
L 283.537988 121157.605401 
L 283.537988 121157.605401 
L 264.848992 121157.605401 
L 264.848992 121157.605401 
L 246.159997 121157.605401 
L 246.159997 121157.605401 
L 227.471002 121157.605401 
L 227.471002 121157.605401 
L 208.782007 121157.605401 
L 208.782007 121157.605401 
L 190.093012 121157.605401 
L 190.093012 121157.605401 
L 171.404016 121157.605401 
L 171.404016 121157.605401 
L 161.509091 121157.605401 
L 161.509091 121157.605401 
L 161.509091 121157.605401 
z
" style="fill:#bfbf00;fill-opacity:0.4;stroke:#bfbf00;stroke-opacity:0.4;"/>
   </g>
   <g id="matplotlib.axis_1">
    <g id="xtick_1">
     <g id="line2d_1">
      <defs>
       <path d="M 0 0 
L 0 3.5 
" id="mb800335e9d" style="stroke:#000000;stroke-width:0.8;"/>
      </defs>
      <g>
       <use style="stroke:#000000;stroke-width:0.8;" x="151.614165" xlink:href="#mb800335e9d" y="882"/>
      </g>
     </g>
     <g id="text_1">
      <!-- $\mathdefault{10^{-4}}$ -->
      <g transform="translate(116.364165 911.795313)scale(0.3 -0.3)">
       <defs>
        <path d="M 794 531 
L 1825 531 
L 1825 4091 
L 703 3866 
L 703 4441 
L 1819 4666 
L 2450 4666 
L 2450 531 
L 3481 531 
L 3481 0 
L 794 0 
L 794 531 
z
" id="DejaVuSans-31" transform="scale(0.015625)"/>
        <path d="M 2034 4250 
Q 1547 4250 1301 3770 
Q 1056 3291 1056 2328 
Q 1056 1369 1301 889 
Q 1547 409 2034 409 
Q 2525 409 2770 889 
Q 3016 1369 3016 2328 
Q 3016 3291 2770 3770 
Q 2525 4250 2034 4250 
z
M 2034 4750 
Q 2819 4750 3233 4129 
Q 3647 3509 3647 2328 
Q 3647 1150 3233 529 
Q 2819 -91 2034 -91 
Q 1250 -91 836 529 
Q 422 1150 422 2328 
Q 422 3509 836 4129 
Q 1250 4750 2034 4750 
z
" id="DejaVuSans-30" transform="scale(0.015625)"/>
        <path d="M 678 2272 
L 4684 2272 
L 4684 1741 
L 678 1741 
L 678 2272 
z
" id="DejaVuSans-2212" transform="scale(0.015625)"/>
        <path d="M 2419 4116 
L 825 1625 
L 2419 1625 
L 2419 4116 
z
M 2253 4666 
L 3047 4666 
L 3047 1625 
L 3713 1625 
L 3713 1100 
L 3047 1100 
L 3047 0 
L 2419 0 
L 2419 1100 
L 313 1100 
L 313 1709 
L 2253 4666 
z
" id="DejaVuSans-34" transform="scale(0.015625)"/>
       </defs>
       <use transform="translate(0 0.684375)" xlink:href="#DejaVuSans-31"/>
       <use transform="translate(63.623047 0.684375)" xlink:href="#DejaVuSans-30"/>
       <use transform="translate(128.203125 38.965625)scale(0.7)" xlink:href="#DejaVuSans-2212"/>
       <use transform="translate(186.855469 38.965625)scale(0.7)" xlink:href="#DejaVuSans-34"/>
      </g>
     </g>
    </g>
    <g id="xtick_2">
     <g id="line2d_2">
      <g>
       <use style="stroke:#000000;stroke-width:0.8;" x="333.831869" xlink:href="#mb800335e9d" y="882"/>
      </g>
     </g>
     <g id="text_2">
      <!-- $\mathdefault{10^{-3}}$ -->
      <g transform="translate(298.581869 911.795313)scale(0.3 -0.3)">
       <defs>
        <path d="M 2597 2516 
Q 3050 2419 3304 2112 
Q 3559 1806 3559 1356 
Q 3559 666 3084 287 
Q 2609 -91 1734 -91 
Q 1441 -91 1130 -33 
Q 819 25 488 141 
L 488 750 
Q 750 597 1062 519 
Q 1375 441 1716 441 
Q 2309 441 2620 675 
Q 2931 909 2931 1356 
Q 2931 1769 2642 2001 
Q 2353 2234 1838 2234 
L 1294 2234 
L 1294 2753 
L 1863 2753 
Q 2328 2753 2575 2939 
Q 2822 3125 2822 3475 
Q 2822 3834 2567 4026 
Q 2313 4219 1838 4219 
Q 1578 4219 1281 4162 
Q 984 4106 628 3988 
L 628 4550 
Q 988 4650 1302 4700 
Q 1616 4750 1894 4750 
Q 2613 4750 3031 4423 
Q 3450 4097 3450 3541 
Q 3450 3153 3228 2886 
Q 3006 2619 2597 2516 
z
" id="DejaVuSans-33" transform="scale(0.015625)"/>
       </defs>
       <use transform="translate(0 0.765625)" xlink:href="#DejaVuSans-31"/>
       <use transform="translate(63.623047 0.765625)" xlink:href="#DejaVuSans-30"/>
       <use transform="translate(128.203125 39.046875)scale(0.7)" xlink:href="#DejaVuSans-2212"/>
       <use transform="translate(186.855469 39.046875)scale(0.7)" xlink:href="#DejaVuSans-33"/>
      </g>
     </g>
    </g>
    <g id="xtick_3">
     <g id="line2d_3">
      <g>
       <use style="stroke:#000000;stroke-width:0.8;" x="516.049572" xlink:href="#mb800335e9d" y="882"/>
      </g>
     </g>
     <g id="text_3">
      <!-- $\mathdefault{10^{-2}}$ -->
      <g transform="translate(480.799572 911.795313)scale(0.3 -0.3)">
       <defs>
        <path d="M 1228 531 
L 3431 531 
L 3431 0 
L 469 0 
L 469 531 
Q 828 903 1448 1529 
Q 2069 2156 2228 2338 
Q 2531 2678 2651 2914 
Q 2772 3150 2772 3378 
Q 2772 3750 2511 3984 
Q 2250 4219 1831 4219 
Q 1534 4219 1204 4116 
Q 875 4013 500 3803 
L 500 4441 
Q 881 4594 1212 4672 
Q 1544 4750 1819 4750 
Q 2544 4750 2975 4387 
Q 3406 4025 3406 3419 
Q 3406 3131 3298 2873 
Q 3191 2616 2906 2266 
Q 2828 2175 2409 1742 
Q 1991 1309 1228 531 
z
" id="DejaVuSans-32" transform="scale(0.015625)"/>
       </defs>
       <use transform="translate(0 0.765625)" xlink:href="#DejaVuSans-31"/>
       <use transform="translate(63.623047 0.765625)" xlink:href="#DejaVuSans-30"/>
       <use transform="translate(128.203125 39.046875)scale(0.7)" xlink:href="#DejaVuSans-2212"/>
       <use transform="translate(186.855469 39.046875)scale(0.7)" xlink:href="#DejaVuSans-32"/>
      </g>
     </g>
    </g>
    <g id="xtick_4">
     <g id="line2d_4">
      <g>
       <use style="stroke:#000000;stroke-width:0.8;" x="698.267276" xlink:href="#mb800335e9d" y="882"/>
      </g>
     </g>
     <g id="text_4">
      <!-- $\mathdefault{10^{-1}}$ -->
      <g transform="translate(663.017276 911.795313)scale(0.3 -0.3)">
       <use transform="translate(0 0.684375)" xlink:href="#DejaVuSans-31"/>
       <use transform="translate(63.623047 0.684375)" xlink:href="#DejaVuSans-30"/>
       <use transform="translate(128.203125 38.965625)scale(0.7)" xlink:href="#DejaVuSans-2212"/>
       <use transform="translate(186.855469 38.965625)scale(0.7)" xlink:href="#DejaVuSans-31"/>
      </g>
     </g>
    </g>
    <g id="xtick_5">
     <g id="line2d_5">
      <g>
       <use style="stroke:#000000;stroke-width:0.8;" x="880.484979" xlink:href="#mb800335e9d" y="882"/>
      </g>
     </g>
     <g id="text_5">
      <!-- $\mathdefault{10^{0}}$ -->
      <g transform="translate(854.084979 911.795313)scale(0.3 -0.3)">
       <use transform="translate(0 0.765625)" xlink:href="#DejaVuSans-31"/>
       <use transform="translate(63.623047 0.765625)" xlink:href="#DejaVuSans-30"/>
       <use transform="translate(128.203125 39.046875)scale(0.7)" xlink:href="#DejaVuSans-30"/>
      </g>
     </g>
    </g>
    <g id="xtick_6">
     <g id="line2d_6">
      <defs>
       <path d="M 0 0 
L 0 2 
" id="m624c4d15ee" style="stroke:#000000;stroke-width:0.6;"/>
      </defs>
      <g>
       <use style="stroke:#000000;stroke-width:0.6;" x="133.955445" xlink:href="#m624c4d15ee" y="882"/>
      </g>
     </g>
    </g>
    <g id="xtick_7">
     <g id="line2d_7">
      <g>
       <use style="stroke:#000000;stroke-width:0.6;" x="143.276341" xlink:href="#m624c4d15ee" y="882"/>
      </g>
     </g>
    </g>
    <g id="xtick_8">
     <g id="line2d_8">
      <g>
       <use style="stroke:#000000;stroke-width:0.6;" x="206.46716" xlink:href="#m624c4d15ee" y="882"/>
      </g>
     </g>
    </g>
    <g id="xtick_9">
     <g id="line2d_9">
      <g>
       <use style="stroke:#000000;stroke-width:0.6;" x="238.554105" xlink:href="#m624c4d15ee" y="882"/>
      </g>
     </g>
    </g>
    <g id="xtick_10">
     <g id="line2d_10">
      <g>
       <use style="stroke:#000000;stroke-width:0.6;" x="261.320154" xlink:href="#m624c4d15ee" y="882"/>
      </g>
     </g>
    </g>
    <g id="xtick_11">
     <g id="line2d_11">
      <g>
       <use style="stroke:#000000;stroke-width:0.6;" x="278.978874" xlink:href="#m624c4d15ee" y="882"/>
      </g>
     </g>
    </g>
    <g id="xtick_12">
     <g id="line2d_12">
      <g>
       <use style="stroke:#000000;stroke-width:0.6;" x="293.407099" xlink:href="#m624c4d15ee" y="882"/>
      </g>
     </g>
    </g>
    <g id="xtick_13">
     <g id="line2d_13">
      <g>
       <use style="stroke:#000000;stroke-width:0.6;" x="305.605989" xlink:href="#m624c4d15ee" y="882"/>
      </g>
     </g>
    </g>
    <g id="xtick_14">
     <g id="line2d_14">
      <g>
       <use style="stroke:#000000;stroke-width:0.6;" x="316.173149" xlink:href="#m624c4d15ee" y="882"/>
      </g>
     </g>
    </g>
    <g id="xtick_15">
     <g id="line2d_15">
      <g>
       <use style="stroke:#000000;stroke-width:0.6;" x="325.494044" xlink:href="#m624c4d15ee" y="882"/>
      </g>
     </g>
    </g>
    <g id="xtick_16">
     <g id="line2d_16">
      <g>
       <use style="stroke:#000000;stroke-width:0.6;" x="388.684863" xlink:href="#m624c4d15ee" y="882"/>
      </g>
     </g>
    </g>
    <g id="xtick_17">
     <g id="line2d_17">
      <g>
       <use style="stroke:#000000;stroke-width:0.6;" x="420.771808" xlink:href="#m624c4d15ee" y="882"/>
      </g>
     </g>
    </g>
    <g id="xtick_18">
     <g id="line2d_18">
      <g>
       <use style="stroke:#000000;stroke-width:0.6;" x="443.537858" xlink:href="#m624c4d15ee" y="882"/>
      </g>
     </g>
    </g>
    <g id="xtick_19">
     <g id="line2d_19">
      <g>
       <use style="stroke:#000000;stroke-width:0.6;" x="461.196578" xlink:href="#m624c4d15ee" y="882"/>
      </g>
     </g>
    </g>
    <g id="xtick_20">
     <g id="line2d_20">
      <g>
       <use style="stroke:#000000;stroke-width:0.6;" x="475.624803" xlink:href="#m624c4d15ee" y="882"/>
      </g>
     </g>
    </g>
    <g id="xtick_21">
     <g id="line2d_21">
      <g>
       <use style="stroke:#000000;stroke-width:0.6;" x="487.823693" xlink:href="#m624c4d15ee" y="882"/>
      </g>
     </g>
    </g>
    <g id="xtick_22">
     <g id="line2d_22">
      <g>
       <use style="stroke:#000000;stroke-width:0.6;" x="498.390852" xlink:href="#m624c4d15ee" y="882"/>
      </g>
     </g>
    </g>
    <g id="xtick_23">
     <g id="line2d_23">
      <g>
       <use style="stroke:#000000;stroke-width:0.6;" x="507.711747" xlink:href="#m624c4d15ee" y="882"/>
      </g>
     </g>
    </g>
    <g id="xtick_24">
     <g id="line2d_24">
      <g>
       <use style="stroke:#000000;stroke-width:0.6;" x="570.902567" xlink:href="#m624c4d15ee" y="882"/>
      </g>
     </g>
    </g>
    <g id="xtick_25">
     <g id="line2d_25">
      <g>
       <use style="stroke:#000000;stroke-width:0.6;" x="602.989511" xlink:href="#m624c4d15ee" y="882"/>
      </g>
     </g>
    </g>
    <g id="xtick_26">
     <g id="line2d_26">
      <g>
       <use style="stroke:#000000;stroke-width:0.6;" x="625.755561" xlink:href="#m624c4d15ee" y="882"/>
      </g>
     </g>
    </g>
    <g id="xtick_27">
     <g id="line2d_27">
      <g>
       <use style="stroke:#000000;stroke-width:0.6;" x="643.414281" xlink:href="#m624c4d15ee" y="882"/>
      </g>
     </g>
    </g>
    <g id="xtick_28">
     <g id="line2d_28">
      <g>
       <use style="stroke:#000000;stroke-width:0.6;" x="657.842506" xlink:href="#m624c4d15ee" y="882"/>
      </g>
     </g>
    </g>
    <g id="xtick_29">
     <g id="line2d_29">
      <g>
       <use style="stroke:#000000;stroke-width:0.6;" x="670.041396" xlink:href="#m624c4d15ee" y="882"/>
      </g>
     </g>
    </g>
    <g id="xtick_30">
     <g id="line2d_30">
      <g>
       <use style="stroke:#000000;stroke-width:0.6;" x="680.608556" xlink:href="#m624c4d15ee" y="882"/>
      </g>
     </g>
    </g>
    <g id="xtick_31">
     <g id="line2d_31">
      <g>
       <use style="stroke:#000000;stroke-width:0.6;" x="689.929451" xlink:href="#m624c4d15ee" y="882"/>
      </g>
     </g>
    </g>
    <g id="xtick_32">
     <g id="line2d_32">
      <g>
       <use style="stroke:#000000;stroke-width:0.6;" x="753.12027" xlink:href="#m624c4d15ee" y="882"/>
      </g>
     </g>
    </g>
    <g id="xtick_33">
     <g id="line2d_33">
      <g>
       <use style="stroke:#000000;stroke-width:0.6;" x="785.207215" xlink:href="#m624c4d15ee" y="882"/>
      </g>
     </g>
    </g>
    <g id="xtick_34">
     <g id="line2d_34">
      <g>
       <use style="stroke:#000000;stroke-width:0.6;" x="807.973264" xlink:href="#m624c4d15ee" y="882"/>
      </g>
     </g>
    </g>
    <g id="xtick_35">
     <g id="line2d_35">
      <g>
       <use style="stroke:#000000;stroke-width:0.6;" x="825.631984" xlink:href="#m624c4d15ee" y="882"/>
      </g>
     </g>
    </g>
    <g id="xtick_36">
     <g id="line2d_36">
      <g>
       <use style="stroke:#000000;stroke-width:0.6;" x="840.060209" xlink:href="#m624c4d15ee" y="882"/>
      </g>
     </g>
    </g>
    <g id="xtick_37">
     <g id="line2d_37">
      <g>
       <use style="stroke:#000000;stroke-width:0.6;" x="852.259099" xlink:href="#m624c4d15ee" y="882"/>
      </g>
     </g>
    </g>
    <g id="xtick_38">
     <g id="line2d_38">
      <g>
       <use style="stroke:#000000;stroke-width:0.6;" x="862.826259" xlink:href="#m624c4d15ee" y="882"/>
      </g>
     </g>
    </g>
    <g id="xtick_39">
     <g id="line2d_39">
      <g>
       <use style="stroke:#000000;stroke-width:0.6;" x="872.147154" xlink:href="#m624c4d15ee" y="882"/>
      </g>
     </g>
    </g>
    <g id="text_6">
     <!-- Layer 0 f -->
     <g transform="translate(450.417188 944.829687)scale(0.3 -0.3)">
      <defs>
       <path d="M 628 4666 
L 1259 4666 
L 1259 531 
L 3531 531 
L 3531 0 
L 628 0 
L 628 4666 
z
" id="DejaVuSans-4c" transform="scale(0.015625)"/>
       <path d="M 2194 1759 
Q 1497 1759 1228 1600 
Q 959 1441 959 1056 
Q 959 750 1161 570 
Q 1363 391 1709 391 
Q 2188 391 2477 730 
Q 2766 1069 2766 1631 
L 2766 1759 
L 2194 1759 
z
M 3341 1997 
L 3341 0 
L 2766 0 
L 2766 531 
Q 2569 213 2275 61 
Q 1981 -91 1556 -91 
Q 1019 -91 701 211 
Q 384 513 384 1019 
Q 384 1609 779 1909 
Q 1175 2209 1959 2209 
L 2766 2209 
L 2766 2266 
Q 2766 2663 2505 2880 
Q 2244 3097 1772 3097 
Q 1472 3097 1187 3025 
Q 903 2953 641 2809 
L 641 3341 
Q 956 3463 1253 3523 
Q 1550 3584 1831 3584 
Q 2591 3584 2966 3190 
Q 3341 2797 3341 1997 
z
" id="DejaVuSans-61" transform="scale(0.015625)"/>
       <path d="M 2059 -325 
Q 1816 -950 1584 -1140 
Q 1353 -1331 966 -1331 
L 506 -1331 
L 506 -850 
L 844 -850 
Q 1081 -850 1212 -737 
Q 1344 -625 1503 -206 
L 1606 56 
L 191 3500 
L 800 3500 
L 1894 763 
L 2988 3500 
L 3597 3500 
L 2059 -325 
z
" id="DejaVuSans-79" transform="scale(0.015625)"/>
       <path d="M 3597 1894 
L 3597 1613 
L 953 1613 
Q 991 1019 1311 708 
Q 1631 397 2203 397 
Q 2534 397 2845 478 
Q 3156 559 3463 722 
L 3463 178 
Q 3153 47 2828 -22 
Q 2503 -91 2169 -91 
Q 1331 -91 842 396 
Q 353 884 353 1716 
Q 353 2575 817 3079 
Q 1281 3584 2069 3584 
Q 2775 3584 3186 3129 
Q 3597 2675 3597 1894 
z
M 3022 2063 
Q 3016 2534 2758 2815 
Q 2500 3097 2075 3097 
Q 1594 3097 1305 2825 
Q 1016 2553 972 2059 
L 3022 2063 
z
" id="DejaVuSans-65" transform="scale(0.015625)"/>
       <path d="M 2631 2963 
Q 2534 3019 2420 3045 
Q 2306 3072 2169 3072 
Q 1681 3072 1420 2755 
Q 1159 2438 1159 1844 
L 1159 0 
L 581 0 
L 581 3500 
L 1159 3500 
L 1159 2956 
Q 1341 3275 1631 3429 
Q 1922 3584 2338 3584 
Q 2397 3584 2469 3576 
Q 2541 3569 2628 3553 
L 2631 2963 
z
" id="DejaVuSans-72" transform="scale(0.015625)"/>
       <path id="DejaVuSans-20" transform="scale(0.015625)"/>
       <path d="M 2375 4863 
L 2375 4384 
L 1825 4384 
Q 1516 4384 1395 4259 
Q 1275 4134 1275 3809 
L 1275 3500 
L 2222 3500 
L 2222 3053 
L 1275 3053 
L 1275 0 
L 697 0 
L 697 3053 
L 147 3053 
L 147 3500 
L 697 3500 
L 697 3744 
Q 697 4328 969 4595 
Q 1241 4863 1831 4863 
L 2375 4863 
z
" id="DejaVuSans-66" transform="scale(0.015625)"/>
      </defs>
      <use xlink:href="#DejaVuSans-4c"/>
      <use x="55.712891" xlink:href="#DejaVuSans-61"/>
      <use x="116.992188" xlink:href="#DejaVuSans-79"/>
      <use x="176.171875" xlink:href="#DejaVuSans-65"/>
      <use x="237.695312" xlink:href="#DejaVuSans-72"/>
      <use x="278.808594" xlink:href="#DejaVuSans-20"/>
      <use x="310.595703" xlink:href="#DejaVuSans-30"/>
      <use x="374.21875" xlink:href="#DejaVuSans-20"/>
      <use x="406.005859" xlink:href="#DejaVuSans-66"/>
     </g>
    </g>
   </g>
   <g id="matplotlib.axis_2">
    <g id="ytick_1">
     <g id="line2d_40">
      <defs>
       <path d="M 0 0 
L -3.5 0 
" id="m06e35e822e" style="stroke:#000000;stroke-width:0.8;"/>
      </defs>
      <g>
       <use style="stroke:#000000;stroke-width:0.8;" x="126" xlink:href="#m06e35e822e" y="847.407273"/>
      </g>
     </g>
     <g id="text_7">
      <!-- $\mathdefault{10^{0}}$ -->
      <g transform="translate(66.2 858.804929)scale(0.3 -0.3)">
       <use transform="translate(0 0.765625)" xlink:href="#DejaVuSans-31"/>
       <use transform="translate(63.623047 0.765625)" xlink:href="#DejaVuSans-30"/>
       <use transform="translate(128.203125 39.046875)scale(0.7)" xlink:href="#DejaVuSans-30"/>
      </g>
     </g>
    </g>
    <g id="ytick_2">
     <g id="line2d_41">
      <g>
       <use style="stroke:#000000;stroke-width:0.8;" x="126" xlink:href="#m06e35e822e" y="727.097075"/>
      </g>
     </g>
     <g id="text_8">
      <!-- $\mathdefault{10^{1}}$ -->
      <g transform="translate(66.2 738.494731)scale(0.3 -0.3)">
       <use transform="translate(0 0.684375)" xlink:href="#DejaVuSans-31"/>
       <use transform="translate(63.623047 0.684375)" xlink:href="#DejaVuSans-30"/>
       <use transform="translate(128.203125 38.965625)scale(0.7)" xlink:href="#DejaVuSans-31"/>
      </g>
     </g>
    </g>
    <g id="ytick_3">
     <g id="line2d_42">
      <g>
       <use style="stroke:#000000;stroke-width:0.8;" x="126" xlink:href="#m06e35e822e" y="606.786876"/>
      </g>
     </g>
     <g id="text_9">
      <!-- $\mathdefault{10^{2}}$ -->
      <g transform="translate(66.2 618.184533)scale(0.3 -0.3)">
       <use transform="translate(0 0.765625)" xlink:href="#DejaVuSans-31"/>
       <use transform="translate(63.623047 0.765625)" xlink:href="#DejaVuSans-30"/>
       <use transform="translate(128.203125 39.046875)scale(0.7)" xlink:href="#DejaVuSans-32"/>
      </g>
     </g>
    </g>
    <g id="ytick_4">
     <g id="line2d_43">
      <g>
       <use style="stroke:#000000;stroke-width:0.8;" x="126" xlink:href="#m06e35e822e" y="486.476678"/>
      </g>
     </g>
     <g id="text_10">
      <!-- $\mathdefault{10^{3}}$ -->
      <g transform="translate(66.2 497.874335)scale(0.3 -0.3)">
       <use transform="translate(0 0.765625)" xlink:href="#DejaVuSans-31"/>
       <use transform="translate(63.623047 0.765625)" xlink:href="#DejaVuSans-30"/>
       <use transform="translate(128.203125 39.046875)scale(0.7)" xlink:href="#DejaVuSans-33"/>
      </g>
     </g>
    </g>
    <g id="ytick_5">
     <g id="line2d_44">
      <g>
       <use style="stroke:#000000;stroke-width:0.8;" x="126" xlink:href="#m06e35e822e" y="366.16648"/>
      </g>
     </g>
     <g id="text_11">
      <!-- $\mathdefault{10^{4}}$ -->
      <g transform="translate(66.2 377.564136)scale(0.3 -0.3)">
       <use transform="translate(0 0.684375)" xlink:href="#DejaVuSans-31"/>
       <use transform="translate(63.623047 0.684375)" xlink:href="#DejaVuSans-30"/>
       <use transform="translate(128.203125 38.965625)scale(0.7)" xlink:href="#DejaVuSans-34"/>
      </g>
     </g>
    </g>
    <g id="ytick_6">
     <g id="line2d_45">
      <g>
       <use style="stroke:#000000;stroke-width:0.8;" x="126" xlink:href="#m06e35e822e" y="245.856282"/>
      </g>
     </g>
     <g id="text_12">
      <!-- $\mathdefault{10^{5}}$ -->
      <g transform="translate(66.2 257.253938)scale(0.3 -0.3)">
       <defs>
        <path d="M 691 4666 
L 3169 4666 
L 3169 4134 
L 1269 4134 
L 1269 2991 
Q 1406 3038 1543 3061 
Q 1681 3084 1819 3084 
Q 2600 3084 3056 2656 
Q 3513 2228 3513 1497 
Q 3513 744 3044 326 
Q 2575 -91 1722 -91 
Q 1428 -91 1123 -41 
Q 819 9 494 109 
L 494 744 
Q 775 591 1075 516 
Q 1375 441 1709 441 
Q 2250 441 2565 725 
Q 2881 1009 2881 1497 
Q 2881 1984 2565 2268 
Q 2250 2553 1709 2553 
Q 1456 2553 1204 2497 
Q 953 2441 691 2322 
L 691 4666 
z
" id="DejaVuSans-35" transform="scale(0.015625)"/>
       </defs>
       <use transform="translate(0 0.684375)" xlink:href="#DejaVuSans-31"/>
       <use transform="translate(63.623047 0.684375)" xlink:href="#DejaVuSans-30"/>
       <use transform="translate(128.203125 38.965625)scale(0.7)" xlink:href="#DejaVuSans-35"/>
      </g>
     </g>
    </g>
    <g id="ytick_7">
     <g id="line2d_46">
      <g>
       <use style="stroke:#000000;stroke-width:0.8;" x="126" xlink:href="#m06e35e822e" y="125.546084"/>
      </g>
     </g>
     <g id="text_13">
      <!-- $\mathdefault{10^{6}}$ -->
      <g transform="translate(66.2 136.94374)scale(0.3 -0.3)">
       <defs>
        <path d="M 2113 2584 
Q 1688 2584 1439 2293 
Q 1191 2003 1191 1497 
Q 1191 994 1439 701 
Q 1688 409 2113 409 
Q 2538 409 2786 701 
Q 3034 994 3034 1497 
Q 3034 2003 2786 2293 
Q 2538 2584 2113 2584 
z
M 3366 4563 
L 3366 3988 
Q 3128 4100 2886 4159 
Q 2644 4219 2406 4219 
Q 1781 4219 1451 3797 
Q 1122 3375 1075 2522 
Q 1259 2794 1537 2939 
Q 1816 3084 2150 3084 
Q 2853 3084 3261 2657 
Q 3669 2231 3669 1497 
Q 3669 778 3244 343 
Q 2819 -91 2113 -91 
Q 1303 -91 875 529 
Q 447 1150 447 2328 
Q 447 3434 972 4092 
Q 1497 4750 2381 4750 
Q 2619 4750 2861 4703 
Q 3103 4656 3366 4563 
z
" id="DejaVuSans-36" transform="scale(0.015625)"/>
       </defs>
       <use transform="translate(0 0.765625)" xlink:href="#DejaVuSans-31"/>
       <use transform="translate(63.623047 0.765625)" xlink:href="#DejaVuSans-30"/>
       <use transform="translate(128.203125 39.046875)scale(0.7)" xlink:href="#DejaVuSans-36"/>
      </g>
     </g>
    </g>
    <g id="ytick_8">
     <g id="line2d_47">
      <defs>
       <path d="M 0 0 
L -2 0 
" id="m1997370431" style="stroke:#000000;stroke-width:0.6;"/>
      </defs>
      <g>
       <use style="stroke:#000000;stroke-width:0.6;" x="126" xlink:href="#m1997370431" y="874.09794"/>
      </g>
     </g>
    </g>
    <g id="ytick_9">
     <g id="line2d_48">
      <g>
       <use style="stroke:#000000;stroke-width:0.6;" x="126" xlink:href="#m1997370431" y="866.043558"/>
      </g>
     </g>
    </g>
    <g id="ytick_10">
     <g id="line2d_49">
      <g>
       <use style="stroke:#000000;stroke-width:0.6;" x="126" xlink:href="#m1997370431" y="859.066536"/>
      </g>
     </g>
    </g>
    <g id="ytick_11">
     <g id="line2d_50">
      <g>
       <use style="stroke:#000000;stroke-width:0.6;" x="126" xlink:href="#m1997370431" y="852.912365"/>
      </g>
     </g>
    </g>
    <g id="ytick_12">
     <g id="line2d_51">
      <g>
       <use style="stroke:#000000;stroke-width:0.6;" x="126" xlink:href="#m1997370431" y="811.190294"/>
      </g>
     </g>
    </g>
    <g id="ytick_13">
     <g id="line2d_52">
      <g>
       <use style="stroke:#000000;stroke-width:0.6;" x="126" xlink:href="#m1997370431" y="790.00472"/>
      </g>
     </g>
    </g>
    <g id="ytick_14">
     <g id="line2d_53">
      <g>
       <use style="stroke:#000000;stroke-width:0.6;" x="126" xlink:href="#m1997370431" y="774.973316"/>
      </g>
     </g>
    </g>
    <g id="ytick_15">
     <g id="line2d_54">
      <g>
       <use style="stroke:#000000;stroke-width:0.6;" x="126" xlink:href="#m1997370431" y="763.314053"/>
      </g>
     </g>
    </g>
    <g id="ytick_16">
     <g id="line2d_55">
      <g>
       <use style="stroke:#000000;stroke-width:0.6;" x="126" xlink:href="#m1997370431" y="753.787742"/>
      </g>
     </g>
    </g>
    <g id="ytick_17">
     <g id="line2d_56">
      <g>
       <use style="stroke:#000000;stroke-width:0.6;" x="126" xlink:href="#m1997370431" y="745.73336"/>
      </g>
     </g>
    </g>
    <g id="ytick_18">
     <g id="line2d_57">
      <g>
       <use style="stroke:#000000;stroke-width:0.6;" x="126" xlink:href="#m1997370431" y="738.756337"/>
      </g>
     </g>
    </g>
    <g id="ytick_19">
     <g id="line2d_58">
      <g>
       <use style="stroke:#000000;stroke-width:0.6;" x="126" xlink:href="#m1997370431" y="732.602167"/>
      </g>
     </g>
    </g>
    <g id="ytick_20">
     <g id="line2d_59">
      <g>
       <use style="stroke:#000000;stroke-width:0.6;" x="126" xlink:href="#m1997370431" y="690.880096"/>
      </g>
     </g>
    </g>
    <g id="ytick_21">
     <g id="line2d_60">
      <g>
       <use style="stroke:#000000;stroke-width:0.6;" x="126" xlink:href="#m1997370431" y="669.694522"/>
      </g>
     </g>
    </g>
    <g id="ytick_22">
     <g id="line2d_61">
      <g>
       <use style="stroke:#000000;stroke-width:0.6;" x="126" xlink:href="#m1997370431" y="654.663118"/>
      </g>
     </g>
    </g>
    <g id="ytick_23">
     <g id="line2d_62">
      <g>
       <use style="stroke:#000000;stroke-width:0.6;" x="126" xlink:href="#m1997370431" y="643.003855"/>
      </g>
     </g>
    </g>
    <g id="ytick_24">
     <g id="line2d_63">
      <g>
       <use style="stroke:#000000;stroke-width:0.6;" x="126" xlink:href="#m1997370431" y="633.477543"/>
      </g>
     </g>
    </g>
    <g id="ytick_25">
     <g id="line2d_64">
      <g>
       <use style="stroke:#000000;stroke-width:0.6;" x="126" xlink:href="#m1997370431" y="625.423162"/>
      </g>
     </g>
    </g>
    <g id="ytick_26">
     <g id="line2d_65">
      <g>
       <use style="stroke:#000000;stroke-width:0.6;" x="126" xlink:href="#m1997370431" y="618.446139"/>
      </g>
     </g>
    </g>
    <g id="ytick_27">
     <g id="line2d_66">
      <g>
       <use style="stroke:#000000;stroke-width:0.6;" x="126" xlink:href="#m1997370431" y="612.291969"/>
      </g>
     </g>
    </g>
    <g id="ytick_28">
     <g id="line2d_67">
      <g>
       <use style="stroke:#000000;stroke-width:0.6;" x="126" xlink:href="#m1997370431" y="570.569898"/>
      </g>
     </g>
    </g>
    <g id="ytick_29">
     <g id="line2d_68">
      <g>
       <use style="stroke:#000000;stroke-width:0.6;" x="126" xlink:href="#m1997370431" y="549.384324"/>
      </g>
     </g>
    </g>
    <g id="ytick_30">
     <g id="line2d_69">
      <g>
       <use style="stroke:#000000;stroke-width:0.6;" x="126" xlink:href="#m1997370431" y="534.35292"/>
      </g>
     </g>
    </g>
    <g id="ytick_31">
     <g id="line2d_70">
      <g>
       <use style="stroke:#000000;stroke-width:0.6;" x="126" xlink:href="#m1997370431" y="522.693657"/>
      </g>
     </g>
    </g>
    <g id="ytick_32">
     <g id="line2d_71">
      <g>
       <use style="stroke:#000000;stroke-width:0.6;" x="126" xlink:href="#m1997370431" y="513.167345"/>
      </g>
     </g>
    </g>
    <g id="ytick_33">
     <g id="line2d_72">
      <g>
       <use style="stroke:#000000;stroke-width:0.6;" x="126" xlink:href="#m1997370431" y="505.112964"/>
      </g>
     </g>
    </g>
    <g id="ytick_34">
     <g id="line2d_73">
      <g>
       <use style="stroke:#000000;stroke-width:0.6;" x="126" xlink:href="#m1997370431" y="498.135941"/>
      </g>
     </g>
    </g>
    <g id="ytick_35">
     <g id="line2d_74">
      <g>
       <use style="stroke:#000000;stroke-width:0.6;" x="126" xlink:href="#m1997370431" y="491.981771"/>
      </g>
     </g>
    </g>
    <g id="ytick_36">
     <g id="line2d_75">
      <g>
       <use style="stroke:#000000;stroke-width:0.6;" x="126" xlink:href="#m1997370431" y="450.2597"/>
      </g>
     </g>
    </g>
    <g id="ytick_37">
     <g id="line2d_76">
      <g>
       <use style="stroke:#000000;stroke-width:0.6;" x="126" xlink:href="#m1997370431" y="429.074126"/>
      </g>
     </g>
    </g>
    <g id="ytick_38">
     <g id="line2d_77">
      <g>
       <use style="stroke:#000000;stroke-width:0.6;" x="126" xlink:href="#m1997370431" y="414.042722"/>
      </g>
     </g>
    </g>
    <g id="ytick_39">
     <g id="line2d_78">
      <g>
       <use style="stroke:#000000;stroke-width:0.6;" x="126" xlink:href="#m1997370431" y="402.383459"/>
      </g>
     </g>
    </g>
    <g id="ytick_40">
     <g id="line2d_79">
      <g>
       <use style="stroke:#000000;stroke-width:0.6;" x="126" xlink:href="#m1997370431" y="392.857147"/>
      </g>
     </g>
    </g>
    <g id="ytick_41">
     <g id="line2d_80">
      <g>
       <use style="stroke:#000000;stroke-width:0.6;" x="126" xlink:href="#m1997370431" y="384.802766"/>
      </g>
     </g>
    </g>
    <g id="ytick_42">
     <g id="line2d_81">
      <g>
       <use style="stroke:#000000;stroke-width:0.6;" x="126" xlink:href="#m1997370431" y="377.825743"/>
      </g>
     </g>
    </g>
    <g id="ytick_43">
     <g id="line2d_82">
      <g>
       <use style="stroke:#000000;stroke-width:0.6;" x="126" xlink:href="#m1997370431" y="371.671573"/>
      </g>
     </g>
    </g>
    <g id="ytick_44">
     <g id="line2d_83">
      <g>
       <use style="stroke:#000000;stroke-width:0.6;" x="126" xlink:href="#m1997370431" y="329.949502"/>
      </g>
     </g>
    </g>
    <g id="ytick_45">
     <g id="line2d_84">
      <g>
       <use style="stroke:#000000;stroke-width:0.6;" x="126" xlink:href="#m1997370431" y="308.763928"/>
      </g>
     </g>
    </g>
    <g id="ytick_46">
     <g id="line2d_85">
      <g>
       <use style="stroke:#000000;stroke-width:0.6;" x="126" xlink:href="#m1997370431" y="293.732523"/>
      </g>
     </g>
    </g>
    <g id="ytick_47">
     <g id="line2d_86">
      <g>
       <use style="stroke:#000000;stroke-width:0.6;" x="126" xlink:href="#m1997370431" y="282.073261"/>
      </g>
     </g>
    </g>
    <g id="ytick_48">
     <g id="line2d_87">
      <g>
       <use style="stroke:#000000;stroke-width:0.6;" x="126" xlink:href="#m1997370431" y="272.546949"/>
      </g>
     </g>
    </g>
    <g id="ytick_49">
     <g id="line2d_88">
      <g>
       <use style="stroke:#000000;stroke-width:0.6;" x="126" xlink:href="#m1997370431" y="264.492568"/>
      </g>
     </g>
    </g>
    <g id="ytick_50">
     <g id="line2d_89">
      <g>
       <use style="stroke:#000000;stroke-width:0.6;" x="126" xlink:href="#m1997370431" y="257.515545"/>
      </g>
     </g>
    </g>
    <g id="ytick_51">
     <g id="line2d_90">
      <g>
       <use style="stroke:#000000;stroke-width:0.6;" x="126" xlink:href="#m1997370431" y="251.361375"/>
      </g>
     </g>
    </g>
    <g id="ytick_52">
     <g id="line2d_91">
      <g>
       <use style="stroke:#000000;stroke-width:0.6;" x="126" xlink:href="#m1997370431" y="209.639304"/>
      </g>
     </g>
    </g>
    <g id="ytick_53">
     <g id="line2d_92">
      <g>
       <use style="stroke:#000000;stroke-width:0.6;" x="126" xlink:href="#m1997370431" y="188.453729"/>
      </g>
     </g>
    </g>
    <g id="ytick_54">
     <g id="line2d_93">
      <g>
       <use style="stroke:#000000;stroke-width:0.6;" x="126" xlink:href="#m1997370431" y="173.422325"/>
      </g>
     </g>
    </g>
    <g id="ytick_55">
     <g id="line2d_94">
      <g>
       <use style="stroke:#000000;stroke-width:0.6;" x="126" xlink:href="#m1997370431" y="161.763062"/>
      </g>
     </g>
    </g>
    <g id="ytick_56">
     <g id="line2d_95">
      <g>
       <use style="stroke:#000000;stroke-width:0.6;" x="126" xlink:href="#m1997370431" y="152.236751"/>
      </g>
     </g>
    </g>
    <g id="ytick_57">
     <g id="line2d_96">
      <g>
       <use style="stroke:#000000;stroke-width:0.6;" x="126" xlink:href="#m1997370431" y="144.182369"/>
      </g>
     </g>
    </g>
    <g id="ytick_58">
     <g id="line2d_97">
      <g>
       <use style="stroke:#000000;stroke-width:0.6;" x="126" xlink:href="#m1997370431" y="137.205347"/>
      </g>
     </g>
    </g>
    <g id="ytick_59">
     <g id="line2d_98">
      <g>
       <use style="stroke:#000000;stroke-width:0.6;" x="126" xlink:href="#m1997370431" y="131.051177"/>
      </g>
     </g>
    </g>
    <g id="text_14">
     <!-- Events / Bin Width -->
     <g transform="translate(55.960938 639.156563)rotate(-90)scale(0.3 -0.3)">
      <defs>
       <path d="M 628 4666 
L 3578 4666 
L 3578 4134 
L 1259 4134 
L 1259 2753 
L 3481 2753 
L 3481 2222 
L 1259 2222 
L 1259 531 
L 3634 531 
L 3634 0 
L 628 0 
L 628 4666 
z
" id="DejaVuSans-45" transform="scale(0.015625)"/>
       <path d="M 191 3500 
L 800 3500 
L 1894 563 
L 2988 3500 
L 3597 3500 
L 2284 0 
L 1503 0 
L 191 3500 
z
" id="DejaVuSans-76" transform="scale(0.015625)"/>
       <path d="M 3513 2113 
L 3513 0 
L 2938 0 
L 2938 2094 
Q 2938 2591 2744 2837 
Q 2550 3084 2163 3084 
Q 1697 3084 1428 2787 
Q 1159 2491 1159 1978 
L 1159 0 
L 581 0 
L 581 3500 
L 1159 3500 
L 1159 2956 
Q 1366 3272 1645 3428 
Q 1925 3584 2291 3584 
Q 2894 3584 3203 3211 
Q 3513 2838 3513 2113 
z
" id="DejaVuSans-6e" transform="scale(0.015625)"/>
       <path d="M 1172 4494 
L 1172 3500 
L 2356 3500 
L 2356 3053 
L 1172 3053 
L 1172 1153 
Q 1172 725 1289 603 
Q 1406 481 1766 481 
L 2356 481 
L 2356 0 
L 1766 0 
Q 1100 0 847 248 
Q 594 497 594 1153 
L 594 3053 
L 172 3053 
L 172 3500 
L 594 3500 
L 594 4494 
L 1172 4494 
z
" id="DejaVuSans-74" transform="scale(0.015625)"/>
       <path d="M 2834 3397 
L 2834 2853 
Q 2591 2978 2328 3040 
Q 2066 3103 1784 3103 
Q 1356 3103 1142 2972 
Q 928 2841 928 2578 
Q 928 2378 1081 2264 
Q 1234 2150 1697 2047 
L 1894 2003 
Q 2506 1872 2764 1633 
Q 3022 1394 3022 966 
Q 3022 478 2636 193 
Q 2250 -91 1575 -91 
Q 1294 -91 989 -36 
Q 684 19 347 128 
L 347 722 
Q 666 556 975 473 
Q 1284 391 1588 391 
Q 1994 391 2212 530 
Q 2431 669 2431 922 
Q 2431 1156 2273 1281 
Q 2116 1406 1581 1522 
L 1381 1569 
Q 847 1681 609 1914 
Q 372 2147 372 2553 
Q 372 3047 722 3315 
Q 1072 3584 1716 3584 
Q 2034 3584 2315 3537 
Q 2597 3491 2834 3397 
z
" id="DejaVuSans-73" transform="scale(0.015625)"/>
       <path d="M 1625 4666 
L 2156 4666 
L 531 -594 
L 0 -594 
L 1625 4666 
z
" id="DejaVuSans-2f" transform="scale(0.015625)"/>
       <path d="M 1259 2228 
L 1259 519 
L 2272 519 
Q 2781 519 3026 730 
Q 3272 941 3272 1375 
Q 3272 1813 3026 2020 
Q 2781 2228 2272 2228 
L 1259 2228 
z
M 1259 4147 
L 1259 2741 
L 2194 2741 
Q 2656 2741 2882 2914 
Q 3109 3088 3109 3444 
Q 3109 3797 2882 3972 
Q 2656 4147 2194 4147 
L 1259 4147 
z
M 628 4666 
L 2241 4666 
Q 2963 4666 3353 4366 
Q 3744 4066 3744 3513 
Q 3744 3084 3544 2831 
Q 3344 2578 2956 2516 
Q 3422 2416 3680 2098 
Q 3938 1781 3938 1306 
Q 3938 681 3513 340 
Q 3088 0 2303 0 
L 628 0 
L 628 4666 
z
" id="DejaVuSans-42" transform="scale(0.015625)"/>
       <path d="M 603 3500 
L 1178 3500 
L 1178 0 
L 603 0 
L 603 3500 
z
M 603 4863 
L 1178 4863 
L 1178 4134 
L 603 4134 
L 603 4863 
z
" id="DejaVuSans-69" transform="scale(0.015625)"/>
       <path d="M 213 4666 
L 850 4666 
L 1831 722 
L 2809 4666 
L 3519 4666 
L 4500 722 
L 5478 4666 
L 6119 4666 
L 4947 0 
L 4153 0 
L 3169 4050 
L 2175 0 
L 1381 0 
L 213 4666 
z
" id="DejaVuSans-57" transform="scale(0.015625)"/>
       <path d="M 2906 2969 
L 2906 4863 
L 3481 4863 
L 3481 0 
L 2906 0 
L 2906 525 
Q 2725 213 2448 61 
Q 2172 -91 1784 -91 
Q 1150 -91 751 415 
Q 353 922 353 1747 
Q 353 2572 751 3078 
Q 1150 3584 1784 3584 
Q 2172 3584 2448 3432 
Q 2725 3281 2906 2969 
z
M 947 1747 
Q 947 1113 1208 752 
Q 1469 391 1925 391 
Q 2381 391 2643 752 
Q 2906 1113 2906 1747 
Q 2906 2381 2643 2742 
Q 2381 3103 1925 3103 
Q 1469 3103 1208 2742 
Q 947 2381 947 1747 
z
" id="DejaVuSans-64" transform="scale(0.015625)"/>
       <path d="M 3513 2113 
L 3513 0 
L 2938 0 
L 2938 2094 
Q 2938 2591 2744 2837 
Q 2550 3084 2163 3084 
Q 1697 3084 1428 2787 
Q 1159 2491 1159 1978 
L 1159 0 
L 581 0 
L 581 4863 
L 1159 4863 
L 1159 2956 
Q 1366 3272 1645 3428 
Q 1925 3584 2291 3584 
Q 2894 3584 3203 3211 
Q 3513 2838 3513 2113 
z
" id="DejaVuSans-68" transform="scale(0.015625)"/>
      </defs>
      <use xlink:href="#DejaVuSans-45"/>
      <use x="63.183594" xlink:href="#DejaVuSans-76"/>
      <use x="122.363281" xlink:href="#DejaVuSans-65"/>
      <use x="183.886719" xlink:href="#DejaVuSans-6e"/>
      <use x="247.265625" xlink:href="#DejaVuSans-74"/>
      <use x="286.474609" xlink:href="#DejaVuSans-73"/>
      <use x="338.574219" xlink:href="#DejaVuSans-20"/>
      <use x="370.361328" xlink:href="#DejaVuSans-2f"/>
      <use x="404.052734" xlink:href="#DejaVuSans-20"/>
      <use x="435.839844" xlink:href="#DejaVuSans-42"/>
      <use x="504.443359" xlink:href="#DejaVuSans-69"/>
      <use x="532.226562" xlink:href="#DejaVuSans-6e"/>
      <use x="595.605469" xlink:href="#DejaVuSans-20"/>
      <use x="627.392578" xlink:href="#DejaVuSans-57"/>
      <use x="724.019531" xlink:href="#DejaVuSans-69"/>
      <use x="751.802734" xlink:href="#DejaVuSans-64"/>
      <use x="815.279297" xlink:href="#DejaVuSans-74"/>
      <use x="854.488281" xlink:href="#DejaVuSans-68"/>
     </g>
    </g>
   </g>
   <g id="line2d_99">
    <path clip-path="url(#p94f451f8a8)" d="M 208.782007 1009 
L 208.782007 334.067022 
L 227.471002 334.067022 
L 227.471002 1009 
M 339.604973 1009 
L 339.604973 420.443575 
L 358.293968 420.443575 
L 358.293968 1009 
M 470.42794 1009 
L 470.42794 506.820127 
L 489.116935 506.820127 
L 489.116935 1009 
M 545.183921 1009 
L 545.183921 556.178157 
L 563.872916 556.178157 
L 563.872916 1009 
M 582.561911 1009 
L 582.561911 544.640194 
L 601.250906 544.640194 
L 601.250906 472.886482 
L 619.939901 472.886482 
L 619.939901 464.040415 
L 638.628897 464.040415 
L 638.628897 416.70527 
L 657.317892 416.70527 
L 657.317892 367.717168 
L 676.006887 367.717168 
L 676.006887 319.540432 
L 694.695882 319.540432 
L 694.695882 291.166115 
L 713.384878 291.166115 
L 713.384878 272.355349 
L 732.073873 272.355349 
L 732.073873 273.27077 
L 750.762868 273.27077 
L 750.762868 298.248894 
L 769.451863 298.248894 
L 769.451863 337.028335 
L 788.140858 337.028335 
L 788.140858 380.135343 
L 806.829854 380.135343 
L 806.829854 426.086925 
L 825.518849 426.086925 
L 825.518849 474.484837 
L 844.207844 474.484837 
L 844.207844 572.525385 
L 862.896839 572.525385 
L 862.896839 606.873319 
L 871.690909 606.873319 
L 871.690909 847.407273 
L 871.690909 847.407273 
" style="fill:none;stroke:#00bfbf;stroke-linecap:square;stroke-width:4;"/>
   </g>
   <g id="line2d_100">
    <path clip-path="url(#p94f451f8a8)" d="M 161.509091 599.940643 
L 161.509091 599.940643 
L 161.509091 155.552727 
L 171.404016 155.552727 
L 171.404016 167.892235 
L 190.093012 167.892235 
L 190.093012 170.705431 
L 208.782007 170.705431 
L 208.782007 180.219923 
L 227.471002 180.219923 
L 227.471002 208.515639 
L 246.159997 208.515639 
L 246.159997 204.898938 
L 264.848992 204.898938 
L 264.848992 223.049991 
L 283.537988 223.049991 
L 283.537988 238.557138 
L 302.226983 238.557138 
L 302.226983 234.257421 
L 320.915978 234.257421 
L 320.915978 249.027602 
L 339.604973 249.027602 
L 339.604973 290.607065 
L 358.293968 290.607065 
L 358.293968 317.977977 
L 376.982964 317.977977 
L 376.982964 297.087036 
L 395.671959 297.087036 
L 395.671959 312.594183 
L 414.360954 312.594183 
L 414.360954 308.294466 
L 433.049949 308.294466 
L 433.049949 316.087624 
L 451.738945 316.087624 
L 451.738945 299.187176 
L 470.42794 299.187176 
L 470.42794 300.367425 
L 489.116935 300.367425 
L 489.116935 306.108078 
L 507.80593 306.108078 
L 507.80593 305.218086 
L 526.494925 305.218086 
L 526.494925 297.296823 
L 545.183921 297.296823 
L 545.183921 308.711527 
L 563.872916 308.711527 
L 563.872916 314.998816 
L 582.561911 314.998816 
L 582.561911 301.470509 
L 601.250906 301.470509 
L 601.250906 310.906488 
L 619.939901 310.906488 
L 619.939901 301.90375 
L 638.628897 301.90375 
L 638.628897 303.531151 
L 657.317892 303.531151 
L 657.317892 298.655352 
L 676.006887 298.655352 
L 676.006887 295.34834 
L 694.695882 295.34834 
L 694.695882 288.182336 
L 713.384878 288.182336 
L 713.384878 282.303542 
L 732.073873 282.303542 
L 732.073873 292.098476 
L 750.762868 292.098476 
L 750.762868 326.383572 
L 769.451863 326.383572 
L 769.451863 365.830084 
L 788.140858 365.830084 
L 788.140858 413.430749 
L 806.829854 413.430749 
L 806.829854 449.296379 
L 825.518849 449.296379 
L 825.518849 527.34104 
L 844.207844 527.34104 
L 844.207844 612.114505 
L 862.896839 612.114505 
L 862.896839 591.841915 
L 871.690909 591.841915 
L 871.690909 790.00472 
L 871.690909 790.00472 
" style="fill:none;stroke:#bf00bf;stroke-linecap:square;stroke-width:4;"/>
   </g>
   <g id="line2d_101">
    <path clip-path="url(#p94f451f8a8)" d="M 161.509091 753.787742 
L 161.509091 753.787742 
L 161.509091 1009 
M 190.093012 1009 
L 190.093012 321.727515 
L 208.782007 321.727515 
L 208.782007 1009 
M 246.159997 1009 
L 246.159997 301.343484 
L 264.848992 301.343484 
L 264.848992 286.992325 
L 283.537988 286.992325 
L 283.537988 258.134892 
L 302.226983 258.134892 
L 302.226983 247.729006 
L 320.915978 247.729006 
L 320.915978 257.081983 
L 339.604973 257.081983 
L 339.604973 216.040157 
L 358.293968 216.040157 
L 358.293968 200.654309 
L 376.982964 200.654309 
L 376.982964 189.99592 
L 395.671959 189.99592 
L 395.671959 179.846792 
L 414.360954 179.846792 
L 414.360954 184.984545 
L 433.049949 184.984545 
L 433.049949 186.798241 
L 451.738945 186.798241 
L 451.738945 195.765607 
L 470.42794 195.765607 
L 470.42794 200.001649 
L 489.116935 200.001649 
L 489.116935 208.102342 
L 507.80593 208.102342 
L 507.80593 234.177547 
L 526.494925 234.177547 
L 526.494925 244.271252 
L 545.183921 244.271252 
L 545.183921 260.652273 
L 563.872916 260.652273 
L 563.872916 275.614197 
L 582.561911 275.614197 
L 582.561911 297.173564 
L 601.250906 297.173564 
L 601.250906 311.617385 
L 619.939901 311.617385 
L 619.939901 321.852579 
L 638.628897 321.852579 
L 638.628897 314.243257 
L 657.317892 314.243257 
L 657.317892 321.65972 
L 676.006887 321.65972 
L 676.006887 306.601512 
L 694.695882 306.601512 
L 694.695882 286.615639 
L 713.384878 286.615639 
L 713.384878 289.059415 
L 732.073873 289.059415 
L 732.073873 312.908149 
L 750.762868 312.908149 
L 750.762868 358.022312 
L 769.451863 358.022312 
L 769.451863 405.882121 
L 788.140858 405.882121 
L 788.140858 458.018777 
L 806.829854 458.018777 
L 806.829854 492.102689 
L 825.518849 492.102689 
L 825.518849 520.801259 
L 844.207844 520.801259 
L 844.207844 563.5462 
L 862.896839 563.5462 
L 862.896839 586.523764 
L 871.690909 586.523764 
L 871.690909 632.613887 
L 871.690909 632.613887 
" style="fill:none;stroke:#bfbf00;stroke-linecap:square;stroke-width:4;"/>
   </g>
   <g id="patch_3">
    <path d="M 126 882 
L 126 120.96 
" style="fill:none;stroke:#000000;stroke-linecap:square;stroke-linejoin:miter;stroke-width:0.8;"/>
   </g>
   <g id="patch_4">
    <path d="M 907.2 882 
L 907.2 120.96 
" style="fill:none;stroke:#000000;stroke-linecap:square;stroke-linejoin:miter;stroke-width:0.8;"/>
   </g>
   <g id="patch_5">
    <path d="M 126 882 
L 907.2 882 
" style="fill:none;stroke:#000000;stroke-linecap:square;stroke-linejoin:miter;stroke-width:0.8;"/>
   </g>
   <g id="patch_6">
    <path d="M 126 120.96 
L 907.2 120.96 
" style="fill:none;stroke:#000000;stroke-linecap:square;stroke-linejoin:miter;stroke-width:0.8;"/>
   </g>
   <g id="legend_1">
    <g id="patch_7">
     <path d="M 544.8 225.069375 
L 893.2 225.069375 
Q 897.2 225.069375 897.2 221.069375 
L 897.2 134.96 
Q 897.2 130.96 893.2 130.96 
L 544.8 130.96 
Q 540.8 130.96 540.8 134.96 
L 540.8 221.069375 
Q 540.8 225.069375 544.8 225.069375 
z
" style="fill:#ffffff;opacity:0.8;stroke:#cccccc;stroke-linejoin:miter;"/>
    </g>
    <g id="line2d_102">
     <path d="M 548.8 147.156875 
L 588.8 147.156875 
" style="fill:none;stroke:#00bfbf;stroke-linecap:square;stroke-width:4;"/>
    </g>
    <g id="line2d_103"/>
    <g id="text_15">
     <!-- $e^{+}$ DVAE -->
     <g transform="translate(604.8 154.156875)scale(0.2 -0.2)">
      <defs>
       <path d="M 3078 2063 
Q 3088 2113 3092 2166 
Q 3097 2219 3097 2272 
Q 3097 2653 2873 2875 
Q 2650 3097 2266 3097 
Q 1838 3097 1509 2826 
Q 1181 2556 1013 2059 
L 3078 2063 
z
M 3578 1613 
L 903 1613 
Q 884 1494 878 1425 
Q 872 1356 872 1306 
Q 872 872 1139 634 
Q 1406 397 1894 397 
Q 2269 397 2603 481 
Q 2938 566 3225 728 
L 3116 159 
Q 2806 34 2476 -28 
Q 2147 -91 1806 -91 
Q 1078 -91 686 257 
Q 294 606 294 1247 
Q 294 1794 489 2264 
Q 684 2734 1063 3103 
Q 1306 3334 1642 3459 
Q 1978 3584 2356 3584 
Q 2950 3584 3301 3228 
Q 3653 2872 3653 2272 
Q 3653 2128 3634 1964 
Q 3616 1800 3578 1613 
z
" id="DejaVuSans-Oblique-65" transform="scale(0.015625)"/>
       <path d="M 2944 4013 
L 2944 2272 
L 4684 2272 
L 4684 1741 
L 2944 1741 
L 2944 0 
L 2419 0 
L 2419 1741 
L 678 1741 
L 678 2272 
L 2419 2272 
L 2419 4013 
L 2944 4013 
z
" id="DejaVuSans-2b" transform="scale(0.015625)"/>
       <path d="M 1259 4147 
L 1259 519 
L 2022 519 
Q 2988 519 3436 956 
Q 3884 1394 3884 2338 
Q 3884 3275 3436 3711 
Q 2988 4147 2022 4147 
L 1259 4147 
z
M 628 4666 
L 1925 4666 
Q 3281 4666 3915 4102 
Q 4550 3538 4550 2338 
Q 4550 1131 3912 565 
Q 3275 0 1925 0 
L 628 0 
L 628 4666 
z
" id="DejaVuSans-44" transform="scale(0.015625)"/>
       <path d="M 1831 0 
L 50 4666 
L 709 4666 
L 2188 738 
L 3669 4666 
L 4325 4666 
L 2547 0 
L 1831 0 
z
" id="DejaVuSans-56" transform="scale(0.015625)"/>
       <path d="M 2188 4044 
L 1331 1722 
L 3047 1722 
L 2188 4044 
z
M 1831 4666 
L 2547 4666 
L 4325 0 
L 3669 0 
L 3244 1197 
L 1141 1197 
L 716 0 
L 50 0 
L 1831 4666 
z
" id="DejaVuSans-41" transform="scale(0.015625)"/>
      </defs>
      <use transform="translate(0 0.826562)" xlink:href="#DejaVuSans-Oblique-65"/>
      <use transform="translate(66.173333 39.107812)scale(0.7)" xlink:href="#DejaVuSans-2b"/>
      <use transform="translate(127.560052 0.826562)" xlink:href="#DejaVuSans-20"/>
      <use transform="translate(159.347161 0.826562)" xlink:href="#DejaVuSans-44"/>
      <use transform="translate(236.349115 0.826562)" xlink:href="#DejaVuSans-56"/>
      <use transform="translate(304.757318 0.826562)" xlink:href="#DejaVuSans-41"/>
      <use transform="translate(373.165521 0.826562)" xlink:href="#DejaVuSans-45"/>
     </g>
    </g>
    <g id="line2d_104">
     <path d="M 548.8 176.513125 
L 588.8 176.513125 
" style="fill:none;stroke:#bf00bf;stroke-linecap:square;stroke-width:4;"/>
    </g>
    <g id="line2d_105"/>
    <g id="text_16">
     <!-- $\gamma$   DVAE -->
     <g transform="translate(604.8 183.513125)scale(0.2 -0.2)">
      <defs>
       <path d="M 1491 2950 
L 1838 788 
L 3456 3500 
L 4066 3500 
L 1972 0 
L 1713 -1331 
L 1138 -1331 
L 1397 0 
L 988 2613 
Q 925 3006 628 3006 
L 475 3006 
L 569 3500 
L 788 3500 
Q 1403 3500 1491 2950 
z
" id="DejaVuSans-Oblique-3b3" transform="scale(0.015625)"/>
      </defs>
      <use transform="translate(0 0.09375)" xlink:href="#DejaVuSans-Oblique-3b3"/>
      <use transform="translate(59.179688 0.09375)" xlink:href="#DejaVuSans-20"/>
      <use transform="translate(90.966797 0.09375)" xlink:href="#DejaVuSans-20"/>
      <use transform="translate(122.753906 0.09375)" xlink:href="#DejaVuSans-20"/>
      <use transform="translate(154.541016 0.09375)" xlink:href="#DejaVuSans-44"/>
      <use transform="translate(231.542969 0.09375)" xlink:href="#DejaVuSans-56"/>
      <use transform="translate(299.951172 0.09375)" xlink:href="#DejaVuSans-41"/>
      <use transform="translate(368.359375 0.09375)" xlink:href="#DejaVuSans-45"/>
     </g>
    </g>
    <g id="line2d_106">
     <path d="M 548.8 205.91 
L 588.8 205.91 
" style="fill:none;stroke:#bfbf00;stroke-linecap:square;stroke-width:4;"/>
    </g>
    <g id="line2d_107"/>
    <g id="text_17">
     <!-- $\pi^{+}$ DVAE -->
     <g transform="translate(604.8 212.91)scale(0.2 -0.2)">
      <defs>
       <path d="M 584 3500 
L 3938 3500 
L 3825 2925 
L 3384 2925 
L 2966 775 
Q 2922 550 2981 450 
Q 3038 353 3209 353 
Q 3256 353 3325 363 
Q 3397 369 3419 372 
L 3338 -44 
Q 3222 -84 3103 -103 
Q 2981 -122 2866 -122 
Q 2491 -122 2388 81 
Q 2284 288 2391 838 
L 2797 2925 
L 1506 2925 
L 938 0 
L 350 0 
L 919 2925 
L 472 2925 
L 584 3500 
z
" id="DejaVuSans-Oblique-3c0" transform="scale(0.015625)"/>
      </defs>
      <use transform="translate(0 0.826562)" xlink:href="#DejaVuSans-Oblique-3c0"/>
      <use transform="translate(64.671224 39.107812)scale(0.7)" xlink:href="#DejaVuSans-2b"/>
      <use transform="translate(126.057943 0.826562)" xlink:href="#DejaVuSans-20"/>
      <use transform="translate(157.845052 0.826562)" xlink:href="#DejaVuSans-44"/>
      <use transform="translate(234.847005 0.826562)" xlink:href="#DejaVuSans-56"/>
      <use transform="translate(303.255208 0.826562)" xlink:href="#DejaVuSans-41"/>
      <use transform="translate(371.663411 0.826562)" xlink:href="#DejaVuSans-45"/>
     </g>
    </g>
    <g id="patch_8">
     <path d="M 732.2 154.156875 
L 772.2 154.156875 
L 772.2 140.156875 
L 732.2 140.156875 
z
" style="fill:#00bfbf;opacity:0.4;stroke:#00bfbf;stroke-linejoin:miter;"/>
    </g>
    <g id="text_18">
     <!-- $e^{+}$ GEANT -->
     <g transform="translate(788.2 154.156875)scale(0.2 -0.2)">
      <defs>
       <path d="M 3809 666 
L 3809 1919 
L 2778 1919 
L 2778 2438 
L 4434 2438 
L 4434 434 
Q 4069 175 3628 42 
Q 3188 -91 2688 -91 
Q 1594 -91 976 548 
Q 359 1188 359 2328 
Q 359 3472 976 4111 
Q 1594 4750 2688 4750 
Q 3144 4750 3555 4637 
Q 3966 4525 4313 4306 
L 4313 3634 
Q 3963 3931 3569 4081 
Q 3175 4231 2741 4231 
Q 1884 4231 1454 3753 
Q 1025 3275 1025 2328 
Q 1025 1384 1454 906 
Q 1884 428 2741 428 
Q 3075 428 3337 486 
Q 3600 544 3809 666 
z
" id="DejaVuSans-47" transform="scale(0.015625)"/>
       <path d="M 628 4666 
L 1478 4666 
L 3547 763 
L 3547 4666 
L 4159 4666 
L 4159 0 
L 3309 0 
L 1241 3903 
L 1241 0 
L 628 0 
L 628 4666 
z
" id="DejaVuSans-4e" transform="scale(0.015625)"/>
       <path d="M -19 4666 
L 3928 4666 
L 3928 4134 
L 2272 4134 
L 2272 0 
L 1638 0 
L 1638 4134 
L -19 4134 
L -19 4666 
z
" id="DejaVuSans-54" transform="scale(0.015625)"/>
      </defs>
      <use transform="translate(0 0.826562)" xlink:href="#DejaVuSans-Oblique-65"/>
      <use transform="translate(66.173333 39.107812)scale(0.7)" xlink:href="#DejaVuSans-2b"/>
      <use transform="translate(127.560052 0.826562)" xlink:href="#DejaVuSans-20"/>
      <use transform="translate(159.347161 0.826562)" xlink:href="#DejaVuSans-47"/>
      <use transform="translate(236.837396 0.826562)" xlink:href="#DejaVuSans-45"/>
      <use transform="translate(300.02099 0.826562)" xlink:href="#DejaVuSans-41"/>
      <use transform="translate(368.429193 0.826562)" xlink:href="#DejaVuSans-4e"/>
      <use transform="translate(443.23388 0.826562)" xlink:href="#DejaVuSans-54"/>
     </g>
    </g>
    <g id="patch_9">
     <path d="M 732.2 183.513125 
L 772.2 183.513125 
L 772.2 169.513125 
L 732.2 169.513125 
z
" style="fill:#bf00bf;opacity:0.4;stroke:#bf00bf;stroke-linejoin:miter;"/>
    </g>
    <g id="text_19">
     <!-- $\gamma$   GEANT -->
     <g transform="translate(788.2 183.513125)scale(0.2 -0.2)">
      <use transform="translate(0 0.78125)" xlink:href="#DejaVuSans-Oblique-3b3"/>
      <use transform="translate(59.179688 0.78125)" xlink:href="#DejaVuSans-20"/>
      <use transform="translate(90.966797 0.78125)" xlink:href="#DejaVuSans-20"/>
      <use transform="translate(122.753906 0.78125)" xlink:href="#DejaVuSans-20"/>
      <use transform="translate(154.541016 0.78125)" xlink:href="#DejaVuSans-47"/>
      <use transform="translate(232.03125 0.78125)" xlink:href="#DejaVuSans-45"/>
      <use transform="translate(295.214844 0.78125)" xlink:href="#DejaVuSans-41"/>
      <use transform="translate(363.623047 0.78125)" xlink:href="#DejaVuSans-4e"/>
      <use transform="translate(438.427734 0.78125)" xlink:href="#DejaVuSans-54"/>
     </g>
    </g>
    <g id="patch_10">
     <path d="M 732.2 212.91 
L 772.2 212.91 
L 772.2 198.91 
L 732.2 198.91 
z
" style="fill:#bfbf00;opacity:0.4;stroke:#bfbf00;stroke-linejoin:miter;"/>
    </g>
    <g id="text_20">
     <!-- $\pi^{+}$ GEANT -->
     <g transform="translate(788.2 212.91)scale(0.2 -0.2)">
      <use transform="translate(0 0.826562)" xlink:href="#DejaVuSans-Oblique-3c0"/>
      <use transform="translate(64.671224 39.107812)scale(0.7)" xlink:href="#DejaVuSans-2b"/>
      <use transform="translate(126.057943 0.826562)" xlink:href="#DejaVuSans-20"/>
      <use transform="translate(157.845052 0.826562)" xlink:href="#DejaVuSans-47"/>
      <use transform="translate(235.335286 0.826562)" xlink:href="#DejaVuSans-45"/>
      <use transform="translate(298.51888 0.826562)" xlink:href="#DejaVuSans-41"/>
      <use transform="translate(366.927083 0.826562)" xlink:href="#DejaVuSans-4e"/>
      <use transform="translate(441.731771 0.826562)" xlink:href="#DejaVuSans-54"/>
     </g>
    </g>
   </g>
  </g>
 </g>
 <defs>
  <clipPath id="p94f451f8a8">
   <rect height="761.04" width="781.2" x="126" y="120.96"/>
  </clipPath>
 </defs>
</svg>
