<?xml version="1.0" encoding="utf-8" standalone="no"?>
<!DOCTYPE svg PUBLIC "-//W3C//DTD SVG 1.1//EN"
  "http://www.w3.org/Graphics/SVG/1.1/DTD/svg11.dtd">
<svg height="1440pt" version="1.1" viewBox="0 0 1440 1440" width="1440pt" xmlns="http://www.w3.org/2000/svg" xmlns:xlink="http://www.w3.org/1999/xlink">
 <metadata>
  <rdf:RDF xmlns:cc="http://creativecommons.org/ns#" xmlns:dc="http://purl.org/dc/elements/1.1/" xmlns:rdf="http://www.w3.org/1999/02/22-rdf-syntax-ns#">
   <cc:Work>
    <dc:type rdf:resource="http://purl.org/dc/dcmitype/StillImage"/>
    <dc:date>2021-09-27T16:29:11.567961</dc:date>
    <dc:format>image/svg+xml</dc:format>
    <dc:creator>
     <cc:Agent>
      <dc:title>Matplotlib v3.4.2, https://matplotlib.org/</dc:title>
     </cc:Agent>
    </dc:creator>
   </cc:Work>
  </rdf:RDF>
 </metadata>
 <defs>
  <style type="text/css">*{stroke-linecap:butt;stroke-linejoin:round;}</style>
 </defs>
 <g id="figure_1">
  <g id="patch_1">
   <path d="M 0 1440 
L 1440 1440 
L 1440 0 
L 0 0 
z
" style="fill:none;"/>
  </g>
  <g id="axes_1">
   <g id="patch_2">
    <path d="M 180 1260 
L 1296 1260 
L 1296 172.8 
L 180 172.8 
z
" style="fill:#ffffff;"/>
   </g>
   <g id="matplotlib.axis_1">
    <g id="xtick_1">
     <g id="line2d_1">
      <defs>
       <path d="M 0 0 
L 0 3.5 
" id="m49af47ac85" style="stroke:#000000;stroke-width:0.8;"/>
      </defs>
      <g>
       <use style="stroke:#000000;stroke-width:0.8;" x="229.030708" xlink:href="#m49af47ac85" y="1260"/>
      </g>
     </g>
     <g id="text_1">
      <!-- 0 -->
      <g transform="translate(209.943208 1312.590625)scale(0.6 -0.6)">
       <defs>
        <path d="M 2034 4250 
Q 1547 4250 1301 3770 
Q 1056 3291 1056 2328 
Q 1056 1369 1301 889 
Q 1547 409 2034 409 
Q 2525 409 2770 889 
Q 3016 1369 3016 2328 
Q 3016 3291 2770 3770 
Q 2525 4250 2034 4250 
z
M 2034 4750 
Q 2819 4750 3233 4129 
Q 3647 3509 3647 2328 
Q 3647 1150 3233 529 
Q 2819 -91 2034 -91 
Q 1250 -91 836 529 
Q 422 1150 422 2328 
Q 422 3509 836 4129 
Q 1250 4750 2034 4750 
z
" id="DejaVuSans-30" transform="scale(0.015625)"/>
       </defs>
       <use xlink:href="#DejaVuSans-30"/>
      </g>
     </g>
    </g>
    <g id="xtick_2">
     <g id="line2d_2">
      <g>
       <use style="stroke:#000000;stroke-width:0.8;" x="519.870304" xlink:href="#m49af47ac85" y="1260"/>
      </g>
     </g>
     <g id="text_2">
      <!-- 50 -->
      <g transform="translate(481.695304 1312.590625)scale(0.6 -0.6)">
       <defs>
        <path d="M 691 4666 
L 3169 4666 
L 3169 4134 
L 1269 4134 
L 1269 2991 
Q 1406 3038 1543 3061 
Q 1681 3084 1819 3084 
Q 2600 3084 3056 2656 
Q 3513 2228 3513 1497 
Q 3513 744 3044 326 
Q 2575 -91 1722 -91 
Q 1428 -91 1123 -41 
Q 819 9 494 109 
L 494 744 
Q 775 591 1075 516 
Q 1375 441 1709 441 
Q 2250 441 2565 725 
Q 2881 1009 2881 1497 
Q 2881 1984 2565 2268 
Q 2250 2553 1709 2553 
Q 1456 2553 1204 2497 
Q 953 2441 691 2322 
L 691 4666 
z
" id="DejaVuSans-35" transform="scale(0.015625)"/>
       </defs>
       <use xlink:href="#DejaVuSans-35"/>
       <use x="63.623047" xlink:href="#DejaVuSans-30"/>
      </g>
     </g>
    </g>
    <g id="xtick_3">
     <g id="line2d_3">
      <g>
       <use style="stroke:#000000;stroke-width:0.8;" x="810.709899" xlink:href="#m49af47ac85" y="1260"/>
      </g>
     </g>
     <g id="text_3">
      <!-- 100 -->
      <g transform="translate(753.447399 1312.590625)scale(0.6 -0.6)">
       <defs>
        <path d="M 794 531 
L 1825 531 
L 1825 4091 
L 703 3866 
L 703 4441 
L 1819 4666 
L 2450 4666 
L 2450 531 
L 3481 531 
L 3481 0 
L 794 0 
L 794 531 
z
" id="DejaVuSans-31" transform="scale(0.015625)"/>
       </defs>
       <use xlink:href="#DejaVuSans-31"/>
       <use x="63.623047" xlink:href="#DejaVuSans-30"/>
       <use x="127.246094" xlink:href="#DejaVuSans-30"/>
      </g>
     </g>
    </g>
    <g id="xtick_4">
     <g id="line2d_4">
      <g>
       <use style="stroke:#000000;stroke-width:0.8;" x="1101.549494" xlink:href="#m49af47ac85" y="1260"/>
      </g>
     </g>
     <g id="text_4">
      <!-- 150 -->
      <g transform="translate(1044.286994 1312.590625)scale(0.6 -0.6)">
       <use xlink:href="#DejaVuSans-31"/>
       <use x="63.623047" xlink:href="#DejaVuSans-35"/>
       <use x="127.246094" xlink:href="#DejaVuSans-30"/>
      </g>
     </g>
    </g>
    <g id="text_5">
     <!-- Observed Energy (GeV) -->
     <g transform="translate(383.915625 1374.659375)scale(0.6 -0.6)">
      <defs>
       <path d="M 2522 4238 
Q 1834 4238 1429 3725 
Q 1025 3213 1025 2328 
Q 1025 1447 1429 934 
Q 1834 422 2522 422 
Q 3209 422 3611 934 
Q 4013 1447 4013 2328 
Q 4013 3213 3611 3725 
Q 3209 4238 2522 4238 
z
M 2522 4750 
Q 3503 4750 4090 4092 
Q 4678 3434 4678 2328 
Q 4678 1225 4090 567 
Q 3503 -91 2522 -91 
Q 1538 -91 948 565 
Q 359 1222 359 2328 
Q 359 3434 948 4092 
Q 1538 4750 2522 4750 
z
" id="DejaVuSans-4f" transform="scale(0.015625)"/>
       <path d="M 3116 1747 
Q 3116 2381 2855 2742 
Q 2594 3103 2138 3103 
Q 1681 3103 1420 2742 
Q 1159 2381 1159 1747 
Q 1159 1113 1420 752 
Q 1681 391 2138 391 
Q 2594 391 2855 752 
Q 3116 1113 3116 1747 
z
M 1159 2969 
Q 1341 3281 1617 3432 
Q 1894 3584 2278 3584 
Q 2916 3584 3314 3078 
Q 3713 2572 3713 1747 
Q 3713 922 3314 415 
Q 2916 -91 2278 -91 
Q 1894 -91 1617 61 
Q 1341 213 1159 525 
L 1159 0 
L 581 0 
L 581 4863 
L 1159 4863 
L 1159 2969 
z
" id="DejaVuSans-62" transform="scale(0.015625)"/>
       <path d="M 2834 3397 
L 2834 2853 
Q 2591 2978 2328 3040 
Q 2066 3103 1784 3103 
Q 1356 3103 1142 2972 
Q 928 2841 928 2578 
Q 928 2378 1081 2264 
Q 1234 2150 1697 2047 
L 1894 2003 
Q 2506 1872 2764 1633 
Q 3022 1394 3022 966 
Q 3022 478 2636 193 
Q 2250 -91 1575 -91 
Q 1294 -91 989 -36 
Q 684 19 347 128 
L 347 722 
Q 666 556 975 473 
Q 1284 391 1588 391 
Q 1994 391 2212 530 
Q 2431 669 2431 922 
Q 2431 1156 2273 1281 
Q 2116 1406 1581 1522 
L 1381 1569 
Q 847 1681 609 1914 
Q 372 2147 372 2553 
Q 372 3047 722 3315 
Q 1072 3584 1716 3584 
Q 2034 3584 2315 3537 
Q 2597 3491 2834 3397 
z
" id="DejaVuSans-73" transform="scale(0.015625)"/>
       <path d="M 3597 1894 
L 3597 1613 
L 953 1613 
Q 991 1019 1311 708 
Q 1631 397 2203 397 
Q 2534 397 2845 478 
Q 3156 559 3463 722 
L 3463 178 
Q 3153 47 2828 -22 
Q 2503 -91 2169 -91 
Q 1331 -91 842 396 
Q 353 884 353 1716 
Q 353 2575 817 3079 
Q 1281 3584 2069 3584 
Q 2775 3584 3186 3129 
Q 3597 2675 3597 1894 
z
M 3022 2063 
Q 3016 2534 2758 2815 
Q 2500 3097 2075 3097 
Q 1594 3097 1305 2825 
Q 1016 2553 972 2059 
L 3022 2063 
z
" id="DejaVuSans-65" transform="scale(0.015625)"/>
       <path d="M 2631 2963 
Q 2534 3019 2420 3045 
Q 2306 3072 2169 3072 
Q 1681 3072 1420 2755 
Q 1159 2438 1159 1844 
L 1159 0 
L 581 0 
L 581 3500 
L 1159 3500 
L 1159 2956 
Q 1341 3275 1631 3429 
Q 1922 3584 2338 3584 
Q 2397 3584 2469 3576 
Q 2541 3569 2628 3553 
L 2631 2963 
z
" id="DejaVuSans-72" transform="scale(0.015625)"/>
       <path d="M 191 3500 
L 800 3500 
L 1894 563 
L 2988 3500 
L 3597 3500 
L 2284 0 
L 1503 0 
L 191 3500 
z
" id="DejaVuSans-76" transform="scale(0.015625)"/>
       <path d="M 2906 2969 
L 2906 4863 
L 3481 4863 
L 3481 0 
L 2906 0 
L 2906 525 
Q 2725 213 2448 61 
Q 2172 -91 1784 -91 
Q 1150 -91 751 415 
Q 353 922 353 1747 
Q 353 2572 751 3078 
Q 1150 3584 1784 3584 
Q 2172 3584 2448 3432 
Q 2725 3281 2906 2969 
z
M 947 1747 
Q 947 1113 1208 752 
Q 1469 391 1925 391 
Q 2381 391 2643 752 
Q 2906 1113 2906 1747 
Q 2906 2381 2643 2742 
Q 2381 3103 1925 3103 
Q 1469 3103 1208 2742 
Q 947 2381 947 1747 
z
" id="DejaVuSans-64" transform="scale(0.015625)"/>
       <path id="DejaVuSans-20" transform="scale(0.015625)"/>
       <path d="M 628 4666 
L 3578 4666 
L 3578 4134 
L 1259 4134 
L 1259 2753 
L 3481 2753 
L 3481 2222 
L 1259 2222 
L 1259 531 
L 3634 531 
L 3634 0 
L 628 0 
L 628 4666 
z
" id="DejaVuSans-45" transform="scale(0.015625)"/>
       <path d="M 3513 2113 
L 3513 0 
L 2938 0 
L 2938 2094 
Q 2938 2591 2744 2837 
Q 2550 3084 2163 3084 
Q 1697 3084 1428 2787 
Q 1159 2491 1159 1978 
L 1159 0 
L 581 0 
L 581 3500 
L 1159 3500 
L 1159 2956 
Q 1366 3272 1645 3428 
Q 1925 3584 2291 3584 
Q 2894 3584 3203 3211 
Q 3513 2838 3513 2113 
z
" id="DejaVuSans-6e" transform="scale(0.015625)"/>
       <path d="M 2906 1791 
Q 2906 2416 2648 2759 
Q 2391 3103 1925 3103 
Q 1463 3103 1205 2759 
Q 947 2416 947 1791 
Q 947 1169 1205 825 
Q 1463 481 1925 481 
Q 2391 481 2648 825 
Q 2906 1169 2906 1791 
z
M 3481 434 
Q 3481 -459 3084 -895 
Q 2688 -1331 1869 -1331 
Q 1566 -1331 1297 -1286 
Q 1028 -1241 775 -1147 
L 775 -588 
Q 1028 -725 1275 -790 
Q 1522 -856 1778 -856 
Q 2344 -856 2625 -561 
Q 2906 -266 2906 331 
L 2906 616 
Q 2728 306 2450 153 
Q 2172 0 1784 0 
Q 1141 0 747 490 
Q 353 981 353 1791 
Q 353 2603 747 3093 
Q 1141 3584 1784 3584 
Q 2172 3584 2450 3431 
Q 2728 3278 2906 2969 
L 2906 3500 
L 3481 3500 
L 3481 434 
z
" id="DejaVuSans-67" transform="scale(0.015625)"/>
       <path d="M 2059 -325 
Q 1816 -950 1584 -1140 
Q 1353 -1331 966 -1331 
L 506 -1331 
L 506 -850 
L 844 -850 
Q 1081 -850 1212 -737 
Q 1344 -625 1503 -206 
L 1606 56 
L 191 3500 
L 800 3500 
L 1894 763 
L 2988 3500 
L 3597 3500 
L 2059 -325 
z
" id="DejaVuSans-79" transform="scale(0.015625)"/>
       <path d="M 1984 4856 
Q 1566 4138 1362 3434 
Q 1159 2731 1159 2009 
Q 1159 1288 1364 580 
Q 1569 -128 1984 -844 
L 1484 -844 
Q 1016 -109 783 600 
Q 550 1309 550 2009 
Q 550 2706 781 3412 
Q 1013 4119 1484 4856 
L 1984 4856 
z
" id="DejaVuSans-28" transform="scale(0.015625)"/>
       <path d="M 3809 666 
L 3809 1919 
L 2778 1919 
L 2778 2438 
L 4434 2438 
L 4434 434 
Q 4069 175 3628 42 
Q 3188 -91 2688 -91 
Q 1594 -91 976 548 
Q 359 1188 359 2328 
Q 359 3472 976 4111 
Q 1594 4750 2688 4750 
Q 3144 4750 3555 4637 
Q 3966 4525 4313 4306 
L 4313 3634 
Q 3963 3931 3569 4081 
Q 3175 4231 2741 4231 
Q 1884 4231 1454 3753 
Q 1025 3275 1025 2328 
Q 1025 1384 1454 906 
Q 1884 428 2741 428 
Q 3075 428 3337 486 
Q 3600 544 3809 666 
z
" id="DejaVuSans-47" transform="scale(0.015625)"/>
       <path d="M 1831 0 
L 50 4666 
L 709 4666 
L 2188 738 
L 3669 4666 
L 4325 4666 
L 2547 0 
L 1831 0 
z
" id="DejaVuSans-56" transform="scale(0.015625)"/>
       <path d="M 513 4856 
L 1013 4856 
Q 1481 4119 1714 3412 
Q 1947 2706 1947 2009 
Q 1947 1309 1714 600 
Q 1481 -109 1013 -844 
L 513 -844 
Q 928 -128 1133 580 
Q 1338 1288 1338 2009 
Q 1338 2731 1133 3434 
Q 928 4138 513 4856 
z
" id="DejaVuSans-29" transform="scale(0.015625)"/>
      </defs>
      <use xlink:href="#DejaVuSans-4f"/>
      <use x="78.710938" xlink:href="#DejaVuSans-62"/>
      <use x="142.1875" xlink:href="#DejaVuSans-73"/>
      <use x="194.287109" xlink:href="#DejaVuSans-65"/>
      <use x="255.810547" xlink:href="#DejaVuSans-72"/>
      <use x="296.923828" xlink:href="#DejaVuSans-76"/>
      <use x="356.103516" xlink:href="#DejaVuSans-65"/>
      <use x="417.626953" xlink:href="#DejaVuSans-64"/>
      <use x="481.103516" xlink:href="#DejaVuSans-20"/>
      <use x="512.890625" xlink:href="#DejaVuSans-45"/>
      <use x="576.074219" xlink:href="#DejaVuSans-6e"/>
      <use x="639.453125" xlink:href="#DejaVuSans-65"/>
      <use x="700.976562" xlink:href="#DejaVuSans-72"/>
      <use x="740.339844" xlink:href="#DejaVuSans-67"/>
      <use x="803.816406" xlink:href="#DejaVuSans-79"/>
      <use x="862.996094" xlink:href="#DejaVuSans-20"/>
      <use x="894.783203" xlink:href="#DejaVuSans-28"/>
      <use x="933.796875" xlink:href="#DejaVuSans-47"/>
      <use x="1011.287109" xlink:href="#DejaVuSans-65"/>
      <use x="1072.810547" xlink:href="#DejaVuSans-56"/>
      <use x="1141.21875" xlink:href="#DejaVuSans-29"/>
     </g>
    </g>
   </g>
   <g id="matplotlib.axis_2">
    <g id="ytick_1">
     <g id="line2d_5">
      <defs>
       <path d="M 0 0 
L -3.5 0 
" id="m1eca9939cc" style="stroke:#000000;stroke-width:0.8;"/>
      </defs>
      <g>
       <use style="stroke:#000000;stroke-width:0.8;" x="180" xlink:href="#m1eca9939cc" y="1210.581818"/>
      </g>
     </g>
     <g id="text_6">
      <!-- $\mathdefault{10^{0}}$ -->
      <g transform="translate(67.4 1233.377131)scale(0.6 -0.6)">
       <use transform="translate(0 0.765625)" xlink:href="#DejaVuSans-31"/>
       <use transform="translate(63.623047 0.765625)" xlink:href="#DejaVuSans-30"/>
       <use transform="translate(128.203125 39.046875)scale(0.7)" xlink:href="#DejaVuSans-30"/>
      </g>
     </g>
    </g>
    <g id="ytick_2">
     <g id="line2d_6">
      <g>
       <use style="stroke:#000000;stroke-width:0.8;" x="180" xlink:href="#m1eca9939cc" y="978.786156"/>
      </g>
     </g>
     <g id="text_7">
      <!-- $\mathdefault{10^{1}}$ -->
      <g transform="translate(67.4 1001.581469)scale(0.6 -0.6)">
       <use transform="translate(0 0.684375)" xlink:href="#DejaVuSans-31"/>
       <use transform="translate(63.623047 0.684375)" xlink:href="#DejaVuSans-30"/>
       <use transform="translate(128.203125 38.965625)scale(0.7)" xlink:href="#DejaVuSans-31"/>
      </g>
     </g>
    </g>
    <g id="ytick_3">
     <g id="line2d_7">
      <g>
       <use style="stroke:#000000;stroke-width:0.8;" x="180" xlink:href="#m1eca9939cc" y="746.990495"/>
      </g>
     </g>
     <g id="text_8">
      <!-- $\mathdefault{10^{2}}$ -->
      <g transform="translate(67.4 769.785807)scale(0.6 -0.6)">
       <defs>
        <path d="M 1228 531 
L 3431 531 
L 3431 0 
L 469 0 
L 469 531 
Q 828 903 1448 1529 
Q 2069 2156 2228 2338 
Q 2531 2678 2651 2914 
Q 2772 3150 2772 3378 
Q 2772 3750 2511 3984 
Q 2250 4219 1831 4219 
Q 1534 4219 1204 4116 
Q 875 4013 500 3803 
L 500 4441 
Q 881 4594 1212 4672 
Q 1544 4750 1819 4750 
Q 2544 4750 2975 4387 
Q 3406 4025 3406 3419 
Q 3406 3131 3298 2873 
Q 3191 2616 2906 2266 
Q 2828 2175 2409 1742 
Q 1991 1309 1228 531 
z
" id="DejaVuSans-32" transform="scale(0.015625)"/>
       </defs>
       <use transform="translate(0 0.765625)" xlink:href="#DejaVuSans-31"/>
       <use transform="translate(63.623047 0.765625)" xlink:href="#DejaVuSans-30"/>
       <use transform="translate(128.203125 39.046875)scale(0.7)" xlink:href="#DejaVuSans-32"/>
      </g>
     </g>
    </g>
    <g id="ytick_4">
     <g id="line2d_8">
      <g>
       <use style="stroke:#000000;stroke-width:0.8;" x="180" xlink:href="#m1eca9939cc" y="515.194833"/>
      </g>
     </g>
     <g id="text_9">
      <!-- $\mathdefault{10^{3}}$ -->
      <g transform="translate(67.4 537.990145)scale(0.6 -0.6)">
       <defs>
        <path d="M 2597 2516 
Q 3050 2419 3304 2112 
Q 3559 1806 3559 1356 
Q 3559 666 3084 287 
Q 2609 -91 1734 -91 
Q 1441 -91 1130 -33 
Q 819 25 488 141 
L 488 750 
Q 750 597 1062 519 
Q 1375 441 1716 441 
Q 2309 441 2620 675 
Q 2931 909 2931 1356 
Q 2931 1769 2642 2001 
Q 2353 2234 1838 2234 
L 1294 2234 
L 1294 2753 
L 1863 2753 
Q 2328 2753 2575 2939 
Q 2822 3125 2822 3475 
Q 2822 3834 2567 4026 
Q 2313 4219 1838 4219 
Q 1578 4219 1281 4162 
Q 984 4106 628 3988 
L 628 4550 
Q 988 4650 1302 4700 
Q 1616 4750 1894 4750 
Q 2613 4750 3031 4423 
Q 3450 4097 3450 3541 
Q 3450 3153 3228 2886 
Q 3006 2619 2597 2516 
z
" id="DejaVuSans-33" transform="scale(0.015625)"/>
       </defs>
       <use transform="translate(0 0.765625)" xlink:href="#DejaVuSans-31"/>
       <use transform="translate(63.623047 0.765625)" xlink:href="#DejaVuSans-30"/>
       <use transform="translate(128.203125 39.046875)scale(0.7)" xlink:href="#DejaVuSans-33"/>
      </g>
     </g>
    </g>
    <g id="ytick_5">
     <g id="line2d_9">
      <g>
       <use style="stroke:#000000;stroke-width:0.8;" x="180" xlink:href="#m1eca9939cc" y="283.399171"/>
      </g>
     </g>
     <g id="text_10">
      <!-- $\mathdefault{10^{4}}$ -->
      <g transform="translate(67.4 306.194484)scale(0.6 -0.6)">
       <defs>
        <path d="M 2419 4116 
L 825 1625 
L 2419 1625 
L 2419 4116 
z
M 2253 4666 
L 3047 4666 
L 3047 1625 
L 3713 1625 
L 3713 1100 
L 3047 1100 
L 3047 0 
L 2419 0 
L 2419 1100 
L 313 1100 
L 313 1709 
L 2253 4666 
z
" id="DejaVuSans-34" transform="scale(0.015625)"/>
       </defs>
       <use transform="translate(0 0.684375)" xlink:href="#DejaVuSans-31"/>
       <use transform="translate(63.623047 0.684375)" xlink:href="#DejaVuSans-30"/>
       <use transform="translate(128.203125 38.965625)scale(0.7)" xlink:href="#DejaVuSans-34"/>
      </g>
     </g>
    </g>
    <g id="ytick_6">
     <g id="line2d_10">
      <defs>
       <path d="M 0 0 
L -2 0 
" id="m4fbe1b7bbd" style="stroke:#000000;stroke-width:0.6;"/>
      </defs>
      <g>
       <use style="stroke:#000000;stroke-width:0.6;" x="180" xlink:href="#m4fbe1b7bbd" y="1246.487421"/>
      </g>
     </g>
    </g>
    <g id="ytick_7">
     <g id="line2d_11">
      <g>
       <use style="stroke:#000000;stroke-width:0.6;" x="180" xlink:href="#m4fbe1b7bbd" y="1233.045139"/>
      </g>
     </g>
    </g>
    <g id="ytick_8">
     <g id="line2d_12">
      <g>
       <use style="stroke:#000000;stroke-width:0.6;" x="180" xlink:href="#m4fbe1b7bbd" y="1221.188206"/>
      </g>
     </g>
    </g>
    <g id="ytick_9">
     <g id="line2d_13">
      <g>
       <use style="stroke:#000000;stroke-width:0.6;" x="180" xlink:href="#m4fbe1b7bbd" y="1140.804371"/>
      </g>
     </g>
    </g>
    <g id="ytick_10">
     <g id="line2d_14">
      <g>
       <use style="stroke:#000000;stroke-width:0.6;" x="180" xlink:href="#m4fbe1b7bbd" y="1099.987181"/>
      </g>
     </g>
    </g>
    <g id="ytick_11">
     <g id="line2d_15">
      <g>
       <use style="stroke:#000000;stroke-width:0.6;" x="180" xlink:href="#m4fbe1b7bbd" y="1071.026924"/>
      </g>
     </g>
    </g>
    <g id="ytick_12">
     <g id="line2d_16">
      <g>
       <use style="stroke:#000000;stroke-width:0.6;" x="180" xlink:href="#m4fbe1b7bbd" y="1048.563603"/>
      </g>
     </g>
    </g>
    <g id="ytick_13">
     <g id="line2d_17">
      <g>
       <use style="stroke:#000000;stroke-width:0.6;" x="180" xlink:href="#m4fbe1b7bbd" y="1030.209734"/>
      </g>
     </g>
    </g>
    <g id="ytick_14">
     <g id="line2d_18">
      <g>
       <use style="stroke:#000000;stroke-width:0.6;" x="180" xlink:href="#m4fbe1b7bbd" y="1014.691759"/>
      </g>
     </g>
    </g>
    <g id="ytick_15">
     <g id="line2d_19">
      <g>
       <use style="stroke:#000000;stroke-width:0.6;" x="180" xlink:href="#m4fbe1b7bbd" y="1001.249477"/>
      </g>
     </g>
    </g>
    <g id="ytick_16">
     <g id="line2d_20">
      <g>
       <use style="stroke:#000000;stroke-width:0.6;" x="180" xlink:href="#m4fbe1b7bbd" y="989.392544"/>
      </g>
     </g>
    </g>
    <g id="ytick_17">
     <g id="line2d_21">
      <g>
       <use style="stroke:#000000;stroke-width:0.6;" x="180" xlink:href="#m4fbe1b7bbd" y="909.008709"/>
      </g>
     </g>
    </g>
    <g id="ytick_18">
     <g id="line2d_22">
      <g>
       <use style="stroke:#000000;stroke-width:0.6;" x="180" xlink:href="#m4fbe1b7bbd" y="868.191519"/>
      </g>
     </g>
    </g>
    <g id="ytick_19">
     <g id="line2d_23">
      <g>
       <use style="stroke:#000000;stroke-width:0.6;" x="180" xlink:href="#m4fbe1b7bbd" y="839.231262"/>
      </g>
     </g>
    </g>
    <g id="ytick_20">
     <g id="line2d_24">
      <g>
       <use style="stroke:#000000;stroke-width:0.6;" x="180" xlink:href="#m4fbe1b7bbd" y="816.767942"/>
      </g>
     </g>
    </g>
    <g id="ytick_21">
     <g id="line2d_25">
      <g>
       <use style="stroke:#000000;stroke-width:0.6;" x="180" xlink:href="#m4fbe1b7bbd" y="798.414072"/>
      </g>
     </g>
    </g>
    <g id="ytick_22">
     <g id="line2d_26">
      <g>
       <use style="stroke:#000000;stroke-width:0.6;" x="180" xlink:href="#m4fbe1b7bbd" y="782.896097"/>
      </g>
     </g>
    </g>
    <g id="ytick_23">
     <g id="line2d_27">
      <g>
       <use style="stroke:#000000;stroke-width:0.6;" x="180" xlink:href="#m4fbe1b7bbd" y="769.453815"/>
      </g>
     </g>
    </g>
    <g id="ytick_24">
     <g id="line2d_28">
      <g>
       <use style="stroke:#000000;stroke-width:0.6;" x="180" xlink:href="#m4fbe1b7bbd" y="757.596882"/>
      </g>
     </g>
    </g>
    <g id="ytick_25">
     <g id="line2d_29">
      <g>
       <use style="stroke:#000000;stroke-width:0.6;" x="180" xlink:href="#m4fbe1b7bbd" y="677.213048"/>
      </g>
     </g>
    </g>
    <g id="ytick_26">
     <g id="line2d_30">
      <g>
       <use style="stroke:#000000;stroke-width:0.6;" x="180" xlink:href="#m4fbe1b7bbd" y="636.395858"/>
      </g>
     </g>
    </g>
    <g id="ytick_27">
     <g id="line2d_31">
      <g>
       <use style="stroke:#000000;stroke-width:0.6;" x="180" xlink:href="#m4fbe1b7bbd" y="607.435601"/>
      </g>
     </g>
    </g>
    <g id="ytick_28">
     <g id="line2d_32">
      <g>
       <use style="stroke:#000000;stroke-width:0.6;" x="180" xlink:href="#m4fbe1b7bbd" y="584.97228"/>
      </g>
     </g>
    </g>
    <g id="ytick_29">
     <g id="line2d_33">
      <g>
       <use style="stroke:#000000;stroke-width:0.6;" x="180" xlink:href="#m4fbe1b7bbd" y="566.618411"/>
      </g>
     </g>
    </g>
    <g id="ytick_30">
     <g id="line2d_34">
      <g>
       <use style="stroke:#000000;stroke-width:0.6;" x="180" xlink:href="#m4fbe1b7bbd" y="551.100435"/>
      </g>
     </g>
    </g>
    <g id="ytick_31">
     <g id="line2d_35">
      <g>
       <use style="stroke:#000000;stroke-width:0.6;" x="180" xlink:href="#m4fbe1b7bbd" y="537.658154"/>
      </g>
     </g>
    </g>
    <g id="ytick_32">
     <g id="line2d_36">
      <g>
       <use style="stroke:#000000;stroke-width:0.6;" x="180" xlink:href="#m4fbe1b7bbd" y="525.801221"/>
      </g>
     </g>
    </g>
    <g id="ytick_33">
     <g id="line2d_37">
      <g>
       <use style="stroke:#000000;stroke-width:0.6;" x="180" xlink:href="#m4fbe1b7bbd" y="445.417386"/>
      </g>
     </g>
    </g>
    <g id="ytick_34">
     <g id="line2d_38">
      <g>
       <use style="stroke:#000000;stroke-width:0.6;" x="180" xlink:href="#m4fbe1b7bbd" y="404.600196"/>
      </g>
     </g>
    </g>
    <g id="ytick_35">
     <g id="line2d_39">
      <g>
       <use style="stroke:#000000;stroke-width:0.6;" x="180" xlink:href="#m4fbe1b7bbd" y="375.639939"/>
      </g>
     </g>
    </g>
    <g id="ytick_36">
     <g id="line2d_40">
      <g>
       <use style="stroke:#000000;stroke-width:0.6;" x="180" xlink:href="#m4fbe1b7bbd" y="353.176618"/>
      </g>
     </g>
    </g>
    <g id="ytick_37">
     <g id="line2d_41">
      <g>
       <use style="stroke:#000000;stroke-width:0.6;" x="180" xlink:href="#m4fbe1b7bbd" y="334.822749"/>
      </g>
     </g>
    </g>
    <g id="ytick_38">
     <g id="line2d_42">
      <g>
       <use style="stroke:#000000;stroke-width:0.6;" x="180" xlink:href="#m4fbe1b7bbd" y="319.304773"/>
      </g>
     </g>
    </g>
    <g id="ytick_39">
     <g id="line2d_43">
      <g>
       <use style="stroke:#000000;stroke-width:0.6;" x="180" xlink:href="#m4fbe1b7bbd" y="305.862492"/>
      </g>
     </g>
    </g>
    <g id="ytick_40">
     <g id="line2d_44">
      <g>
       <use style="stroke:#000000;stroke-width:0.6;" x="180" xlink:href="#m4fbe1b7bbd" y="294.005559"/>
      </g>
     </g>
    </g>
    <g id="ytick_41">
     <g id="line2d_45">
      <g>
       <use style="stroke:#000000;stroke-width:0.6;" x="180" xlink:href="#m4fbe1b7bbd" y="213.621724"/>
      </g>
     </g>
    </g>
    <g id="ytick_42">
     <g id="line2d_46">
      <g>
       <use style="stroke:#000000;stroke-width:0.6;" x="180" xlink:href="#m4fbe1b7bbd" y="172.804534"/>
      </g>
     </g>
    </g>
    <g id="text_11">
     <!-- Events -->
     <g transform="translate(50.921875 817.973437)rotate(-90)scale(0.6 -0.6)">
      <defs>
       <path d="M 1172 4494 
L 1172 3500 
L 2356 3500 
L 2356 3053 
L 1172 3053 
L 1172 1153 
Q 1172 725 1289 603 
Q 1406 481 1766 481 
L 2356 481 
L 2356 0 
L 1766 0 
Q 1100 0 847 248 
Q 594 497 594 1153 
L 594 3053 
L 172 3053 
L 172 3500 
L 594 3500 
L 594 4494 
L 1172 4494 
z
" id="DejaVuSans-74" transform="scale(0.015625)"/>
      </defs>
      <use xlink:href="#DejaVuSans-45"/>
      <use x="63.183594" xlink:href="#DejaVuSans-76"/>
      <use x="122.363281" xlink:href="#DejaVuSans-65"/>
      <use x="183.886719" xlink:href="#DejaVuSans-6e"/>
      <use x="247.265625" xlink:href="#DejaVuSans-74"/>
      <use x="286.474609" xlink:href="#DejaVuSans-73"/>
     </g>
    </g>
   </g>
   <g id="line2d_47">
    <path clip-path="url(#p3b378fce05)" d="M 230.727273 1441 
L 230.727273 671.823228 
L 232.423837 671.823228 
L 232.423837 404.734509 
L 235.816966 404.734509 
L 235.816966 345.447781 
L 239.210094 345.447781 
L 239.210094 490.422704 
L 242.603223 490.422704 
L 242.603223 642.268359 
L 245.996351 642.268359 
L 245.996351 803.577644 
L 249.38948 803.577644 
L 249.38948 989.392544 
L 252.782609 989.392544 
L 252.782609 1030.209734 
L 256.175737 1030.209734 
L 256.175737 1210.581818 
L 259.568866 1210.581818 
L 259.568866 1441 
M 286.713895 1441 
L 286.713895 1210.581818 
L 290.107023 1210.581818 
L 290.107023 1441 
M 300.286409 1441 
L 300.286409 1210.581818 
L 303.679538 1210.581818 
L 303.679538 1441 
M 310.465795 1441 
L 310.465795 1210.581818 
L 313.858924 1210.581818 
L 313.858924 1441 
M 327.431438 1441 
L 327.431438 1210.581818 
L 330.824567 1210.581818 
L 330.824567 1441 
M 337.610824 1441 
L 337.610824 1140.804371 
L 341.003953 1140.804371 
L 341.003953 1210.581818 
L 351.183338 1210.581818 
L 351.183338 1140.804371 
L 354.576467 1140.804371 
L 354.576467 1071.026924 
L 357.969596 1071.026924 
L 357.969596 1140.804371 
L 361.362724 1140.804371 
L 361.362724 989.392544 
L 364.755853 989.392544 
L 364.755853 855.591649 
L 368.148981 855.591649 
L 368.148981 694.167345 
L 371.54211 694.167345 
L 371.54211 489.638685 
L 374.935239 489.638685 
L 374.935239 372.713205 
L 378.328367 372.713205 
L 378.328367 384.637386 
L 381.721496 384.637386 
L 381.721496 529.794226 
L 385.114625 529.794226 
L 385.114625 773.301452 
L 388.507753 773.301452 
L 388.507753 1140.804371 
L 391.900882 1140.804371 
L 391.900882 1210.581818 
L 398.687139 1210.581818 
L 398.687139 1441 
M 429.225296 1441 
L 429.225296 1140.804371 
L 432.618425 1140.804371 
L 432.618425 1441 
M 463.156583 1441 
L 463.156583 1210.581818 
L 466.549711 1210.581818 
L 466.549711 1140.804371 
L 469.94284 1140.804371 
L 469.94284 1441 
M 473.335968 1441 
L 473.335968 1210.581818 
L 480.122226 1210.581818 
L 480.122226 1441 
M 493.69474 1441 
L 493.69474 1071.026924 
L 497.087869 1071.026924 
L 497.087869 1441 
M 500.480997 1441 
L 500.480997 1048.563603 
L 503.874126 1048.563603 
L 503.874126 1140.804371 
L 507.267254 1140.804371 
L 507.267254 978.786156 
L 510.660383 978.786156 
L 510.660383 925.369096 
L 514.053512 925.369096 
L 514.053512 777.302015 
L 517.44664 777.302015 
L 517.44664 575.012235 
L 520.839769 575.012235 
L 520.839769 431.698648 
L 524.232898 431.698648 
L 524.232898 377.161392 
L 527.626026 377.161392 
L 527.626026 419.316035 
L 531.019155 419.316035 
L 531.019155 561.069684 
L 534.412283 561.069684 
L 534.412283 752.154066 
L 537.805412 752.154066 
L 537.805412 952.374582 
L 541.198541 952.374582 
L 541.198541 1140.804371 
L 544.591669 1140.804371 
L 544.591669 1441 
M 663.351171 1441 
L 663.351171 1210.581818 
L 666.744299 1210.581818 
L 666.744299 1441 
M 680.316814 1441 
L 680.316814 1210.581818 
L 683.709942 1210.581818 
L 683.709942 1441 
M 697.282457 1441 
L 697.282457 1210.581818 
L 700.675585 1210.581818 
L 700.675585 1441 
M 710.854971 1441 
L 710.854971 1210.581818 
L 714.2481 1210.581818 
L 714.2481 1441 
M 721.034357 1441 
L 721.034357 1210.581818 
L 724.427486 1210.581818 
L 724.427486 1441 
M 738 1441 
L 738 1210.581818 
L 741.393129 1210.581818 
L 741.393129 1441 
M 754.965643 1441 
L 754.965643 1210.581818 
L 761.7519 1210.581818 
L 761.7519 1441 
M 775.324415 1441 
L 775.324415 1099.987181 
L 778.717543 1099.987181 
L 778.717543 1441 
M 788.896929 1441 
L 788.896929 1140.804371 
L 792.290058 1140.804371 
L 792.290058 1071.026924 
L 795.683186 1071.026924 
L 795.683186 960.432287 
L 799.076315 960.432287 
L 799.076315 899.414065 
L 802.469444 899.414065 
L 802.469444 702.872433 
L 805.862572 702.872433 
L 805.862572 568.823517 
L 809.255701 568.823517 
L 809.255701 467.316038 
L 812.648829 467.316038 
L 812.648829 415.84242 
L 816.041958 415.84242 
L 816.041958 411.222486 
L 819.435087 411.222486 
L 819.435087 464.844027 
L 822.828215 464.844027 
L 822.828215 574.28539 
L 826.221344 574.28539 
L 826.221344 737.39585 
L 829.614472 737.39585 
L 829.614472 909.008709 
L 833.007601 909.008709 
L 833.007601 1099.987181 
L 836.40073 1099.987181 
L 836.40073 1140.804371 
L 839.793858 1140.804371 
L 839.793858 1099.987181 
L 843.186987 1099.987181 
L 843.186987 1441 
M 846.580116 1441 
L 846.580116 1210.581818 
L 853.366373 1210.581818 
L 853.366373 1441 
M 866.938887 1441 
L 866.938887 1210.581818 
L 870.332016 1210.581818 
L 870.332016 1441 
M 1033.202189 1441 
L 1033.202189 1210.581818 
L 1036.595318 1210.581818 
L 1036.595318 1441 
M 1039.988446 1441 
L 1039.988446 1210.581818 
L 1043.381575 1210.581818 
L 1043.381575 1441 
M 1053.560961 1441 
L 1053.560961 1210.581818 
L 1056.954089 1210.581818 
L 1056.954089 1441 
M 1067.133475 1441 
L 1067.133475 1140.804371 
L 1073.919732 1140.804371 
L 1073.919732 931.47203 
L 1077.312861 931.47203 
L 1077.312861 780.060203 
L 1080.70599 780.060203 
L 1080.70599 652.756245 
L 1084.099118 652.756245 
L 1084.099118 566.28341 
L 1087.492247 566.28341 
L 1087.492247 506.150787 
L 1090.885375 506.150787 
L 1090.885375 468.638559 
L 1094.278504 468.638559 
L 1094.278504 455.077486 
L 1097.671633 455.077486 
L 1097.671633 465.517801 
L 1101.064761 465.517801 
L 1101.064761 495.094518 
L 1104.45789 495.094518 
L 1104.45789 534.195045 
L 1107.851019 534.195045 
L 1107.851019 587.006038 
L 1111.244147 587.006038 
L 1111.244147 651.969775 
L 1114.637276 651.969775 
L 1114.637276 693.573434 
L 1118.030404 693.573434 
L 1118.030404 761.00967 
L 1121.423533 761.00967 
L 1121.423533 822.996789 
L 1124.816662 822.996789 
L 1124.816662 904.097122 
L 1128.20979 904.097122 
L 1128.20979 937.968967 
L 1131.602919 937.968967 
L 1131.602919 1014.691759 
L 1134.996047 1014.691759 
L 1134.996047 1140.804371 
L 1138.389176 1140.804371 
L 1138.389176 1210.581818 
L 1145.175433 1210.581818 
L 1145.175433 1441 
M 1148.568562 1441 
L 1148.568562 1210.581818 
L 1158.747948 1210.581818 
L 1158.747948 1441 
M 1162.141076 1441 
L 1162.141076 1210.581818 
L 1165.534205 1210.581818 
L 1165.534205 1441 
L 1165.534205 1441 
" style="fill:none;stroke:#00bfbf;stroke-linecap:square;stroke-width:4;"/>
   </g>
   <g id="line2d_48">
    <path clip-path="url(#p3b378fce05)" d="M 230.727273 1441 
L 230.727273 588.872225 
L 232.423837 588.872225 
L 232.423837 407.045682 
L 235.816966 407.045682 
L 235.816966 345.391859 
L 239.210094 345.391859 
L 239.210094 524.247335 
L 242.603223 524.247335 
L 242.603223 613.664448 
L 245.996351 613.664448 
L 245.996351 723.725038 
L 249.38948 723.725038 
L 249.38948 978.786156 
L 252.782609 978.786156 
L 252.782609 1099.987181 
L 256.175737 1099.987181 
L 256.175737 1441 
M 266.355123 1441 
L 266.355123 1210.581818 
L 269.748252 1210.581818 
L 269.748252 1441 
M 273.14138 1441 
L 273.14138 1210.581818 
L 276.534509 1210.581818 
L 276.534509 1441 
M 290.107023 1441 
L 290.107023 1140.804371 
L 293.500152 1140.804371 
L 293.500152 1441 
M 300.286409 1441 
L 300.286409 1140.804371 
L 303.679538 1140.804371 
L 303.679538 1441 
M 310.465795 1441 
L 310.465795 1210.581818 
L 313.858924 1210.581818 
L 313.858924 1441 
M 317.252052 1441 
L 317.252052 1210.581818 
L 324.03831 1210.581818 
L 324.03831 1441 
M 351.183338 1441 
L 351.183338 1210.581818 
L 354.576467 1210.581818 
L 354.576467 1140.804371 
L 357.969596 1140.804371 
L 357.969596 1210.581818 
L 361.362724 1210.581818 
L 361.362724 978.786156 
L 364.755853 978.786156 
L 364.755853 640.505309 
L 368.148981 640.505309 
L 368.148981 437.344194 
L 371.54211 437.344194 
L 371.54211 368.242606 
L 374.935239 368.242606 
L 374.935239 420.527264 
L 378.328367 420.527264 
L 378.328367 550.956727 
L 381.721496 550.956727 
L 381.721496 697.806329 
L 385.114625 697.806329 
L 385.114625 861.694583 
L 388.507753 861.694583 
L 388.507753 1140.804371 
L 391.900882 1140.804371 
L 391.900882 1441 
M 402.080268 1441 
L 402.080268 1140.804371 
L 405.473396 1140.804371 
L 405.473396 1441 
M 422.439039 1441 
L 422.439039 1210.581818 
L 425.832168 1210.581818 
L 425.832168 1441 
M 456.370325 1441 
L 456.370325 1210.581818 
L 459.763454 1210.581818 
L 459.763454 1441 
M 463.156583 1441 
L 463.156583 1210.581818 
L 466.549711 1210.581818 
L 466.549711 1441 
M 476.729097 1441 
L 476.729097 1140.804371 
L 480.122226 1140.804371 
L 480.122226 1441 
M 500.480997 1441 
L 500.480997 904.097122 
L 503.874126 904.097122 
L 503.874126 688.380259 
L 507.267254 688.380259 
L 507.267254 517.331365 
L 510.660383 517.331365 
L 510.660383 431.479281 
L 514.053512 431.479281 
L 514.053512 403.134461 
L 517.44664 403.134461 
L 517.44664 436.4654 
L 520.839769 436.4654 
L 520.839769 516.308312 
L 524.232898 516.308312 
L 524.232898 612.864436 
L 527.626026 612.864436 
L 527.626026 725.335753 
L 531.019155 725.335753 
L 531.019155 904.097122 
L 534.412283 904.097122 
L 534.412283 1014.691759 
L 537.805412 1014.691759 
L 537.805412 1048.563603 
L 541.198541 1048.563603 
L 541.198541 1441 
M 609.061113 1441 
L 609.061113 1210.581818 
L 612.454241 1210.581818 
L 612.454241 1441 
M 636.206142 1441 
L 636.206142 1210.581818 
L 639.59927 1210.581818 
L 639.59927 1441 
M 690.496199 1441 
L 690.496199 1210.581818 
L 693.889328 1210.581818 
L 693.889328 1441 
M 724.427486 1441 
L 724.427486 1210.581818 
L 727.820614 1210.581818 
L 727.820614 1441 
M 744.786257 1441 
L 744.786257 1140.804371 
L 748.179386 1140.804371 
L 748.179386 1441 
M 771.931286 1441 
L 771.931286 1140.804371 
L 775.324415 1140.804371 
L 775.324415 1210.581818 
L 778.717543 1210.581818 
L 778.717543 1099.987181 
L 782.110672 1099.987181 
L 782.110672 952.374582 
L 785.503801 952.374582 
L 785.503801 812.819688 
L 788.896929 812.819688 
L 788.896929 650.03007 
L 792.290058 650.03007 
L 792.290058 547.429121 
L 795.683186 547.429121 
L 795.683186 475.118592 
L 799.076315 475.118592 
L 799.076315 438.888996 
L 802.469444 438.888996 
L 802.469444 433.963931 
L 805.862572 433.963931 
L 805.862572 465.027337 
L 809.255701 465.027337 
L 809.255701 512.610923 
L 812.648829 512.610923 
L 812.648829 598.070006 
L 816.041958 598.070006 
L 816.041958 720.57892 
L 819.435087 720.57892 
L 819.435087 812.819688 
L 822.828215 812.819688 
L 822.828215 937.968967 
L 826.221344 937.968967 
L 826.221344 1099.987181 
L 829.614472 1099.987181 
L 829.614472 1441 
M 972.125874 1441 
L 972.125874 1210.581818 
L 975.519003 1210.581818 
L 975.519003 1441 
M 982.30526 1441 
L 982.30526 1210.581818 
L 985.698389 1210.581818 
L 985.698389 1441 
M 1002.664032 1441 
L 1002.664032 1210.581818 
L 1006.05716 1210.581818 
L 1006.05716 1441 
M 1019.629675 1441 
L 1019.629675 1140.804371 
L 1023.022803 1140.804371 
L 1023.022803 1210.581818 
L 1026.415932 1210.581818 
L 1026.415932 1140.804371 
L 1029.809061 1140.804371 
L 1029.809061 1001.249477 
L 1033.202189 1001.249477 
L 1033.202189 904.097122 
L 1036.595318 904.097122 
L 1036.595318 818.801699 
L 1039.988446 818.801699 
L 1039.988446 723.725038 
L 1043.381575 723.725038 
L 1043.381575 630.847131 
L 1046.774704 630.847131 
L 1046.774704 542.030102 
L 1050.167832 542.030102 
L 1050.167832 499.820771 
L 1053.560961 499.820771 
L 1053.560961 470.364879 
L 1056.954089 470.364879 
L 1056.954089 467.066087 
L 1060.347218 467.066087 
L 1060.347218 484.537611 
L 1063.740347 484.537611 
L 1063.740347 511.92644 
L 1067.133475 511.92644 
L 1067.133475 531.436857 
L 1070.526604 531.436857 
L 1070.526604 568.823517 
L 1073.919732 568.823517 
L 1073.919732 614.470868 
L 1077.312861 614.470868 
L 1077.312861 679.246805 
L 1080.70599 679.246805 
L 1080.70599 742.078907 
L 1084.099118 742.078907 
L 1084.099118 801.826859 
L 1087.492247 801.826859 
L 1087.492247 904.097122 
L 1090.885375 904.097122 
L 1090.885375 969.191512 
L 1094.278504 969.191512 
L 1094.278504 1071.026924 
L 1097.671633 1071.026924 
L 1097.671633 1140.804371 
L 1104.45789 1140.804371 
L 1104.45789 1210.581818 
L 1107.851019 1210.581818 
L 1107.851019 1140.804371 
L 1111.244147 1140.804371 
L 1111.244147 1441 
M 1114.637276 1441 
L 1114.637276 1210.581818 
L 1118.030404 1210.581818 
L 1118.030404 1441 
M 1121.423533 1441 
L 1121.423533 1210.581818 
L 1124.816662 1210.581818 
L 1124.816662 1140.804371 
L 1128.20979 1140.804371 
L 1128.20979 1441 
L 1128.20979 1441 
" style="fill:none;stroke:#bf00bf;stroke-linecap:square;stroke-width:4;"/>
   </g>
   <g id="line2d_49">
    <path clip-path="url(#p3b378fce05)" d="M 230.727273 849.83765 
L 230.727273 222.218182 
L 232.423837 222.218182 
L 232.423837 295.130348 
L 235.816966 295.130348 
L 235.816966 457.488465 
L 239.210094 457.488465 
L 239.210094 568.652168 
L 242.603223 568.652168 
L 242.603223 596.252032 
L 245.996351 596.252032 
L 245.996351 616.103351 
L 249.38948 616.103351 
L 249.38948 634.073933 
L 256.175737 634.073933 
L 256.175737 637.407601 
L 259.568866 637.407601 
L 259.568866 649.646574 
L 262.961995 649.646574 
L 262.961995 642.268359 
L 266.355123 642.268359 
L 266.355123 641.91327 
L 269.748252 641.91327 
L 269.748252 658.440601 
L 273.14138 658.440601 
L 273.14138 643.701374 
L 276.534509 643.701374 
L 276.534509 633.746558 
L 279.927638 633.746558 
L 279.927638 616.103351 
L 283.320766 616.103351 
L 283.320766 629.271707 
L 286.713895 629.271707 
L 286.713895 627.720558 
L 290.107023 627.720558 
L 290.107023 618.32201 
L 293.500152 618.32201 
L 293.500152 596.027076 
L 296.893281 596.027076 
L 296.893281 587.006038 
L 300.286409 587.006038 
L 300.286409 581.411955 
L 303.679538 581.411955 
L 303.679538 577.224798 
L 307.072666 577.224798 
L 307.072666 594.024782 
L 310.465795 594.024782 
L 310.465795 605.195686 
L 313.858924 605.195686 
L 313.858924 618.8844 
L 317.252052 618.8844 
L 317.252052 645.155082 
L 320.645181 645.155082 
L 320.645181 661.407861 
L 324.03831 661.407861 
L 324.03831 661.838986 
L 327.431438 661.838986 
L 327.431438 679.246805 
L 330.824567 679.246805 
L 330.824567 668.537748 
L 334.217695 668.537748 
L 334.217695 672.781974 
L 337.610824 672.781974 
L 337.610824 682.376619 
L 341.003953 682.376619 
L 341.003953 672.30146 
L 344.397081 672.30146 
L 344.397081 674.237435 
L 347.79021 674.237435 
L 347.79021 677.213048 
L 351.183338 677.213048 
L 351.183338 672.30146 
L 354.576467 672.30146 
L 354.576467 681.322499 
L 357.969596 681.322499 
L 357.969596 671.823228 
L 361.362724 671.823228 
L 361.362724 664.909695 
L 364.755853 664.909695 
L 364.755853 658.859178 
L 368.148981 658.859178 
L 368.148981 648.883937 
L 371.54211 648.883937 
L 371.54211 660.125454 
L 374.935239 660.125454 
L 374.935239 644.789682 
L 378.328367 644.789682 
L 378.328367 649.646574 
L 381.721496 649.646574 
L 381.721496 649.264533 
L 385.114625 649.264533 
L 385.114625 668.537748 
L 388.507753 668.537748 
L 388.507753 680.799549 
L 391.900882 680.799549 
L 391.900882 677.717648 
L 395.29401 677.717648 
L 395.29401 710.282756 
L 398.687139 710.282756 
L 398.687139 699.676368 
L 402.080268 699.676368 
L 402.080268 731.185308 
L 405.473396 731.185308 
L 405.473396 716.779693 
L 408.866525 716.779693 
L 408.866525 719.807517 
L 412.259653 719.807517 
L 412.259653 733.800197 
L 415.652782 733.800197 
L 415.652782 736.484825 
L 419.045911 736.484825 
L 419.045911 743.042241 
L 422.439039 743.042241 
L 422.439039 716.779693 
L 425.832168 716.779693 
L 425.832168 733.800197 
L 429.225296 733.800197 
L 429.225296 731.185308 
L 432.618425 731.185308 
L 432.618425 734.687142 
L 439.404682 734.687142 
L 439.404682 742.078907 
L 442.797811 742.078907 
L 442.797811 734.687142 
L 446.190939 734.687142 
L 446.190939 759.85917 
L 449.584068 759.85917 
L 449.584068 750.056749 
L 452.977197 750.056749 
L 452.977197 727.801205 
L 456.370325 727.801205 
L 456.370325 768.20327 
L 459.763454 768.20327 
L 459.763454 746.990495 
L 463.156583 746.990495 
L 463.156583 722.929242 
L 466.549711 722.929242 
L 466.549711 749.024252 
L 469.94284 749.024252 
L 469.94284 740.179462 
L 473.335968 740.179462 
L 473.335968 736.484825 
L 480.122226 736.484825 
L 480.122226 724.527174 
L 483.515354 724.527174 
L 483.515354 726.972661 
L 486.908483 726.972661 
L 486.908483 722.139689 
L 490.301611 722.139689 
L 490.301611 736.484825 
L 493.69474 736.484825 
L 493.69474 751.099946 
L 497.087869 751.099946 
L 497.087869 731.185308 
L 500.480997 731.185308 
L 500.480997 735.581971 
L 503.874126 735.581971 
L 503.874126 715.29926 
L 507.267254 715.29926 
L 507.267254 726.972661 
L 510.660383 726.972661 
L 510.660383 722.929242 
L 514.053512 722.929242 
L 514.053512 723.725038 
L 517.44664 723.725038 
L 517.44664 716.036755 
L 520.839769 716.036755 
L 520.839769 738.315195 
L 524.232898 738.315195 
L 524.232898 749.024252 
L 527.626026 749.024252 
L 527.626026 748.002238 
L 531.019155 748.002238 
L 531.019155 741.124705 
L 534.412283 741.124705 
L 534.412283 764.542228 
L 537.805412 764.542228 
L 537.805412 772.002498 
L 541.198541 772.002498 
L 541.198541 758.721672 
L 544.591669 758.721672 
L 544.591669 770.720091 
L 547.984798 770.720091 
L 547.984798 773.301452 
L 551.377926 773.301452 
L 551.377926 796.750108 
L 554.771055 796.750108 
L 554.771055 766.96807 
L 558.164184 766.96807 
L 558.164184 780.060203 
L 561.557312 780.060203 
L 561.557312 774.617387 
L 564.950441 774.617387 
L 564.950441 770.720091 
L 568.343569 770.720091 
L 568.343569 778.671663 
L 571.736698 778.671663 
L 571.736698 780.060203 
L 575.129827 780.060203 
L 575.129827 798.414072 
L 578.522955 798.414072 
L 578.522955 774.617387 
L 581.916084 774.617387 
L 581.916084 800.106004 
L 585.309213 800.106004 
L 585.309213 774.617387 
L 588.702341 774.617387 
L 588.702341 791.917136 
L 592.09547 791.917136 
L 592.09547 793.502485 
L 595.488598 793.502485 
L 595.488598 790.356367 
L 598.881727 790.356367 
L 598.881727 795.1132 
L 602.274856 795.1132 
L 602.274856 790.356367 
L 605.667984 790.356367 
L 605.667984 803.577644 
L 609.061113 803.577644 
L 609.061113 777.302015 
L 612.454241 777.302015 
L 612.454241 818.801699 
L 615.84737 818.801699 
L 615.84737 796.750108 
L 619.240499 796.750108 
L 619.240499 795.1132 
L 622.633627 795.1132 
L 622.633627 785.814202 
L 626.026756 785.814202 
L 626.026756 787.305601 
L 629.419884 787.305601 
L 629.419884 788.819428 
L 632.813013 788.819428 
L 632.813013 836.745517 
L 636.206142 836.745517 
L 636.206142 778.671663 
L 639.59927 778.671663 
L 639.59927 803.577644 
L 642.992399 803.577644 
L 642.992399 798.414072 
L 649.778656 798.414072 
L 649.778656 809.02046 
L 653.171785 809.02046 
L 653.171785 803.577644 
L 656.564913 803.577644 
L 656.564913 852.673544 
L 659.958042 852.673544 
L 659.958042 810.902152 
L 663.351171 810.902152 
L 663.351171 820.877393 
L 666.744299 820.877393 
L 666.744299 816.767942 
L 670.137428 816.767942 
L 670.137428 831.950917 
L 673.530556 831.950917 
L 673.530556 809.02046 
L 676.923685 809.02046 
L 676.923685 829.636617 
L 680.316814 829.636617 
L 680.316814 822.996789 
L 683.709942 822.996789 
L 683.709942 834.319675 
L 687.103071 834.319675 
L 687.103071 807.173297 
L 690.496199 807.173297 
L 690.496199 834.319675 
L 693.889328 834.319675 
L 693.889328 847.079462 
L 697.282457 847.079462 
L 697.282457 831.950917 
L 700.675585 831.950917 
L 700.675585 816.767942 
L 704.068714 816.767942 
L 704.068714 852.673544 
L 707.461843 852.673544 
L 707.461843 886.545389 
L 710.854971 886.545389 
L 710.854971 871.604307 
L 714.2481 871.604307 
L 714.2481 868.191519 
L 717.641228 868.191519 
L 717.641228 875.136865 
L 721.034357 875.136865 
L 721.034357 882.597135 
L 724.427486 882.597135 
L 724.427486 868.191519 
L 727.820614 868.191519 
L 727.820614 925.369096 
L 731.213743 925.369096 
L 731.213743 861.694583 
L 734.606871 861.694583 
L 734.606871 909.008709 
L 738 909.008709 
L 738 894.939213 
L 744.786257 894.939213 
L 744.786257 925.369096 
L 748.179386 925.369096 
L 748.179386 904.097122 
L 751.572514 904.097122 
L 751.572514 931.47203 
L 754.965643 931.47203 
L 754.965643 937.968967 
L 758.358772 937.968967 
L 758.358772 1014.691759 
L 761.7519 1014.691759 
L 761.7519 952.374582 
L 765.145029 952.374582 
L 765.145029 909.008709 
L 768.538157 909.008709 
L 768.538157 1014.691759 
L 771.931286 1014.691759 
L 771.931286 1048.563603 
L 775.324415 1048.563603 
L 775.324415 969.191512 
L 778.717543 969.191512 
L 778.717543 937.968967 
L 782.110672 937.968967 
L 782.110672 1048.563603 
L 785.503801 1048.563603 
L 785.503801 960.432287 
L 788.896929 960.432287 
L 788.896929 978.786156 
L 792.290058 978.786156 
L 792.290058 969.191512 
L 795.683186 969.191512 
L 795.683186 1014.691759 
L 799.076315 1014.691759 
L 799.076315 1001.249477 
L 802.469444 1001.249477 
L 802.469444 1030.209734 
L 805.862572 1030.209734 
L 805.862572 1140.804371 
L 809.255701 1140.804371 
L 809.255701 1001.249477 
L 812.648829 1001.249477 
L 812.648829 1048.563603 
L 816.041958 1048.563603 
L 816.041958 1210.581818 
L 819.435087 1210.581818 
L 819.435087 1030.209734 
L 822.828215 1030.209734 
L 822.828215 1140.804371 
L 829.614472 1140.804371 
L 829.614472 1210.581818 
L 833.007601 1210.581818 
L 833.007601 1030.209734 
L 836.40073 1030.209734 
L 836.40073 1099.987181 
L 839.793858 1099.987181 
L 839.793858 1071.026924 
L 843.186987 1071.026924 
L 843.186987 1210.581818 
L 846.580116 1210.581818 
L 846.580116 1441 
M 849.973244 1441 
L 849.973244 1071.026924 
L 856.759501 1071.026924 
L 856.759501 1210.581818 
L 860.15263 1210.581818 
L 860.15263 1140.804371 
L 863.545759 1140.804371 
L 863.545759 1210.581818 
L 870.332016 1210.581818 
L 870.332016 1140.804371 
L 873.725144 1140.804371 
L 873.725144 1210.581818 
L 880.511402 1210.581818 
L 880.511402 1140.804371 
L 883.90453 1140.804371 
L 883.90453 1210.581818 
L 894.083916 1210.581818 
L 894.083916 1441 
M 900.870173 1441 
L 900.870173 1099.987181 
L 904.263302 1099.987181 
L 904.263302 1441 
M 907.656431 1441 
L 907.656431 1210.581818 
L 911.049559 1210.581818 
L 911.049559 1441 
M 914.442688 1441 
L 914.442688 1140.804371 
L 917.835816 1140.804371 
L 917.835816 1210.581818 
L 928.015202 1210.581818 
L 928.015202 1441 
M 931.408331 1441 
L 931.408331 1210.581818 
L 934.801459 1210.581818 
L 934.801459 1441 
M 944.980845 1441 
L 944.980845 1210.581818 
L 948.373974 1210.581818 
L 948.373974 1441 
L 948.373974 1441 
" style="fill:none;stroke:#bfbf00;stroke-linecap:square;stroke-width:4;"/>
   </g>
   <g id="patch_3">
    <path d="M 180 1260 
L 180 172.8 
" style="fill:none;stroke:#000000;stroke-linecap:square;stroke-linejoin:miter;stroke-width:0.8;"/>
   </g>
   <g id="patch_4">
    <path d="M 1296 1260 
L 1296 172.8 
" style="fill:none;stroke:#000000;stroke-linecap:square;stroke-linejoin:miter;stroke-width:0.8;"/>
   </g>
   <g id="patch_5">
    <path d="M 180 1260 
L 1296 1260 
" style="fill:none;stroke:#000000;stroke-linecap:square;stroke-linejoin:miter;stroke-width:0.8;"/>
   </g>
   <g id="patch_6">
    <path d="M 180 172.8 
L 1296 172.8 
" style="fill:none;stroke:#000000;stroke-linecap:square;stroke-linejoin:miter;stroke-width:0.8;"/>
   </g>
   <g id="legend_1">
    <g id="patch_7">
     <path d="M 1006.55 354.991406 
L 1271.5 354.991406 
Q 1278.5 354.991406 1278.5 347.991406 
L 1278.5 197.3 
Q 1278.5 190.3 1271.5 190.3 
L 1006.55 190.3 
Q 999.55 190.3 999.55 197.3 
L 999.55 347.991406 
Q 999.55 354.991406 1006.55 354.991406 
z
" style="fill:#ffffff;opacity:0.3;stroke:#cccccc;stroke-linejoin:miter;"/>
    </g>
    <g id="line2d_50">
     <path d="M 1013.55 218.644531 
L 1083.55 218.644531 
" style="fill:none;stroke:#00bfbf;stroke-linecap:square;stroke-width:4;"/>
    </g>
    <g id="line2d_51"/>
    <g id="text_12">
     <!-- $e^{+}$ DVAE -->
     <g transform="translate(1111.55 230.894531)scale(0.35 -0.35)">
      <defs>
       <path d="M 3078 2063 
Q 3088 2113 3092 2166 
Q 3097 2219 3097 2272 
Q 3097 2653 2873 2875 
Q 2650 3097 2266 3097 
Q 1838 3097 1509 2826 
Q 1181 2556 1013 2059 
L 3078 2063 
z
M 3578 1613 
L 903 1613 
Q 884 1494 878 1425 
Q 872 1356 872 1306 
Q 872 872 1139 634 
Q 1406 397 1894 397 
Q 2269 397 2603 481 
Q 2938 566 3225 728 
L 3116 159 
Q 2806 34 2476 -28 
Q 2147 -91 1806 -91 
Q 1078 -91 686 257 
Q 294 606 294 1247 
Q 294 1794 489 2264 
Q 684 2734 1063 3103 
Q 1306 3334 1642 3459 
Q 1978 3584 2356 3584 
Q 2950 3584 3301 3228 
Q 3653 2872 3653 2272 
Q 3653 2128 3634 1964 
Q 3616 1800 3578 1613 
z
" id="DejaVuSans-Oblique-65" transform="scale(0.015625)"/>
       <path d="M 2944 4013 
L 2944 2272 
L 4684 2272 
L 4684 1741 
L 2944 1741 
L 2944 0 
L 2419 0 
L 2419 1741 
L 678 1741 
L 678 2272 
L 2419 2272 
L 2419 4013 
L 2944 4013 
z
" id="DejaVuSans-2b" transform="scale(0.015625)"/>
       <path d="M 1259 4147 
L 1259 519 
L 2022 519 
Q 2988 519 3436 956 
Q 3884 1394 3884 2338 
Q 3884 3275 3436 3711 
Q 2988 4147 2022 4147 
L 1259 4147 
z
M 628 4666 
L 1925 4666 
Q 3281 4666 3915 4102 
Q 4550 3538 4550 2338 
Q 4550 1131 3912 565 
Q 3275 0 1925 0 
L 628 0 
L 628 4666 
z
" id="DejaVuSans-44" transform="scale(0.015625)"/>
       <path d="M 2188 4044 
L 1331 1722 
L 3047 1722 
L 2188 4044 
z
M 1831 4666 
L 2547 4666 
L 4325 0 
L 3669 0 
L 3244 1197 
L 1141 1197 
L 716 0 
L 50 0 
L 1831 4666 
z
" id="DejaVuSans-41" transform="scale(0.015625)"/>
      </defs>
      <use transform="translate(0 0.826562)" xlink:href="#DejaVuSans-Oblique-65"/>
      <use transform="translate(66.173333 39.107812)scale(0.7)" xlink:href="#DejaVuSans-2b"/>
      <use transform="translate(127.560052 0.826562)" xlink:href="#DejaVuSans-20"/>
      <use transform="translate(159.347161 0.826562)" xlink:href="#DejaVuSans-44"/>
      <use transform="translate(236.349115 0.826562)" xlink:href="#DejaVuSans-56"/>
      <use transform="translate(304.757318 0.826562)" xlink:href="#DejaVuSans-41"/>
      <use transform="translate(373.165521 0.826562)" xlink:href="#DejaVuSans-45"/>
     </g>
    </g>
    <g id="line2d_52">
     <path d="M 1013.55 270.017969 
L 1083.55 270.017969 
" style="fill:none;stroke:#bf00bf;stroke-linecap:square;stroke-width:4;"/>
    </g>
    <g id="line2d_53"/>
    <g id="text_13">
     <!-- $\gamma$   DVAE -->
     <g transform="translate(1111.55 282.267969)scale(0.35 -0.35)">
      <defs>
       <path d="M 1491 2950 
L 1838 788 
L 3456 3500 
L 4066 3500 
L 1972 0 
L 1713 -1331 
L 1138 -1331 
L 1397 0 
L 988 2613 
Q 925 3006 628 3006 
L 475 3006 
L 569 3500 
L 788 3500 
Q 1403 3500 1491 2950 
z
" id="DejaVuSans-Oblique-3b3" transform="scale(0.015625)"/>
      </defs>
      <use transform="translate(0 0.09375)" xlink:href="#DejaVuSans-Oblique-3b3"/>
      <use transform="translate(59.179688 0.09375)" xlink:href="#DejaVuSans-20"/>
      <use transform="translate(90.966797 0.09375)" xlink:href="#DejaVuSans-20"/>
      <use transform="translate(122.753906 0.09375)" xlink:href="#DejaVuSans-20"/>
      <use transform="translate(154.541016 0.09375)" xlink:href="#DejaVuSans-44"/>
      <use transform="translate(231.542969 0.09375)" xlink:href="#DejaVuSans-56"/>
      <use transform="translate(299.951172 0.09375)" xlink:href="#DejaVuSans-41"/>
      <use transform="translate(368.359375 0.09375)" xlink:href="#DejaVuSans-45"/>
     </g>
    </g>
    <g id="line2d_54">
     <path d="M 1013.55 321.4625 
L 1083.55 321.4625 
" style="fill:none;stroke:#bfbf00;stroke-linecap:square;stroke-width:4;"/>
    </g>
    <g id="line2d_55"/>
    <g id="text_14">
     <!-- $\pi^{+}$ DVAE -->
     <g transform="translate(1111.55 333.7125)scale(0.35 -0.35)">
      <defs>
       <path d="M 584 3500 
L 3938 3500 
L 3825 2925 
L 3384 2925 
L 2966 775 
Q 2922 550 2981 450 
Q 3038 353 3209 353 
Q 3256 353 3325 363 
Q 3397 369 3419 372 
L 3338 -44 
Q 3222 -84 3103 -103 
Q 2981 -122 2866 -122 
Q 2491 -122 2388 81 
Q 2284 288 2391 838 
L 2797 2925 
L 1506 2925 
L 938 0 
L 350 0 
L 919 2925 
L 472 2925 
L 584 3500 
z
" id="DejaVuSans-Oblique-3c0" transform="scale(0.015625)"/>
      </defs>
      <use transform="translate(0 0.826562)" xlink:href="#DejaVuSans-Oblique-3c0"/>
      <use transform="translate(64.671224 39.107812)scale(0.7)" xlink:href="#DejaVuSans-2b"/>
      <use transform="translate(126.057943 0.826562)" xlink:href="#DejaVuSans-20"/>
      <use transform="translate(157.845052 0.826562)" xlink:href="#DejaVuSans-44"/>
      <use transform="translate(234.847005 0.826562)" xlink:href="#DejaVuSans-56"/>
      <use transform="translate(303.255208 0.826562)" xlink:href="#DejaVuSans-41"/>
      <use transform="translate(371.663411 0.826562)" xlink:href="#DejaVuSans-45"/>
     </g>
    </g>
   </g>
  </g>
 </g>
 <defs>
  <clipPath id="p3b378fce05">
   <rect height="1087.2" width="1116" x="180" y="172.8"/>
  </clipPath>
 </defs>
</svg>
