<?xml version="1.0" encoding="utf-8" standalone="no"?>
<!DOCTYPE svg PUBLIC "-//W3C//DTD SVG 1.1//EN"
  "http://www.w3.org/Graphics/SVG/1.1/DTD/svg11.dtd">
<svg height="1008pt" version="1.1" viewBox="0 0 1008 1008" width="1008pt" xmlns="http://www.w3.org/2000/svg" xmlns:xlink="http://www.w3.org/1999/xlink">
 <metadata>
  <rdf:RDF xmlns:cc="http://creativecommons.org/ns#" xmlns:dc="http://purl.org/dc/elements/1.1/" xmlns:rdf="http://www.w3.org/1999/02/22-rdf-syntax-ns#">
   <cc:Work>
    <dc:type rdf:resource="http://purl.org/dc/dcmitype/StillImage"/>
    <dc:date>2021-09-27T15:02:12.160218</dc:date>
    <dc:format>image/svg+xml</dc:format>
    <dc:creator>
     <cc:Agent>
      <dc:title>Matplotlib v3.4.2, https://matplotlib.org/</dc:title>
     </cc:Agent>
    </dc:creator>
   </cc:Work>
  </rdf:RDF>
 </metadata>
 <defs>
  <style type="text/css">*{stroke-linecap:butt;stroke-linejoin:round;}</style>
 </defs>
 <g id="figure_1">
  <g id="patch_1">
   <path d="M 0 1008 
L 1008 1008 
L 1008 0 
L 0 0 
z
" style="fill:none;"/>
  </g>
  <g id="axes_1">
   <g id="patch_2">
    <path d="M 126 882 
L 907.2 882 
L 907.2 120.96 
L 126 120.96 
z
" style="fill:#ffffff;"/>
   </g>
   <g id="PolyCollection_1">
    <path clip-path="url(#p95549a3cfa)" d="M 161.509091 222461.555108 
L 161.509091 222461.555108 
L 161.509091 222461.555108 
L 161.509091 222461.555108 
L 165.095868 222461.555108 
L 165.095868 222461.555108 
L 172.269421 222461.555108 
L 172.269421 222461.555108 
L 179.442975 222461.555108 
L 179.442975 222461.555108 
L 186.616529 222461.555108 
L 186.616529 222461.555108 
L 193.790083 222461.555108 
L 193.790083 222461.555108 
L 200.963636 222461.555108 
L 200.963636 222461.555108 
L 208.13719 222461.555108 
L 208.13719 222461.555108 
L 215.310744 222461.555108 
L 215.310744 222461.555108 
L 222.484298 222461.555108 
L 222.484298 222461.555108 
L 229.657851 222461.555108 
L 229.657851 847.407273 
L 236.831405 847.407273 
L 236.831405 222461.555108 
L 244.004959 222461.555108 
L 244.004959 222461.555108 
L 251.178512 222461.555108 
L 251.178512 222461.555108 
L 258.352066 222461.555108 
L 258.352066 713.982261 
L 265.52562 713.982261 
L 265.52562 713.982261 
L 272.699174 713.982261 
L 272.699174 692.505631 
L 279.872727 692.505631 
L 279.872727 660.121591 
L 287.046281 660.121591 
L 287.046281 647.269755 
L 294.219835 647.269755 
L 294.219835 586.768811 
L 301.393388 586.768811 
L 301.393388 608.245441 
L 308.566942 608.245441 
L 308.566942 564.017383 
L 315.740496 564.017383 
L 315.740496 502.50862 
L 322.91405 502.50862 
L 322.91405 526.696579 
L 330.087603 526.696579 
L 330.087603 499.871584 
L 337.261157 499.871584 
L 337.261157 516.900422 
L 344.434711 516.900422 
L 344.434711 481.03199 
L 351.608264 481.03199 
L 351.608264 474.820429 
L 358.781818 474.820429 
L 358.781818 435.796114 
L 365.955372 435.796114 
L 365.955372 434.468565 
L 373.128926 434.468565 
L 373.128926 426.866262 
L 380.302479 426.866262 
L 380.302479 380.419731 
L 387.476033 380.419731 
L 387.476033 361.379834 
L 394.649587 361.379834 
L 394.649587 337.466471 
L 401.82314 337.466471 
L 401.82314 326.130348 
L 408.996694 326.130348 
L 408.996694 299.734066 
L 416.170248 299.734066 
L 416.170248 279.303596 
L 423.343802 279.303596 
L 423.343802 253.809705 
L 430.517355 253.809705 
L 430.517355 227.646835 
L 437.690909 227.646835 
L 437.690909 205.008762 
L 444.864463 205.008762 
L 444.864463 185.993795 
L 452.038017 185.993795 
L 452.038017 175.068577 
L 459.21157 175.068577 
L 459.21157 165.097383 
L 466.385124 165.097383 
L 466.385124 176.956691 
L 473.558678 176.956691 
L 473.558678 197.304987 
L 480.732231 197.304987 
L 480.732231 238.714275 
L 487.905785 238.714275 
L 487.905785 302.371102 
L 495.079339 302.371102 
L 495.079339 379.670733 
L 502.252893 379.670733 
L 502.252893 450.187916 
L 509.426446 450.187916 
L 509.426446 635.933632 
L 516.6 635.933632 
L 516.6 847.407273 
L 523.773554 847.407273 
L 523.773554 222461.555108 
L 530.947107 222461.555108 
L 530.947107 222461.555108 
L 538.120661 222461.555108 
L 538.120661 222461.555108 
L 545.294215 222461.555108 
L 545.294215 222461.555108 
L 552.467769 222461.555108 
L 552.467769 222461.555108 
L 559.641322 222461.555108 
L 559.641322 222461.555108 
L 566.814876 222461.555108 
L 566.814876 222461.555108 
L 573.98843 222461.555108 
L 573.98843 222461.555108 
L 581.161983 222461.555108 
L 581.161983 222461.555108 
L 588.335537 222461.555108 
L 588.335537 222461.555108 
L 595.509091 222461.555108 
L 595.509091 222461.555108 
L 602.682645 222461.555108 
L 602.682645 222461.555108 
L 609.856198 222461.555108 
L 609.856198 222461.555108 
L 617.029752 222461.555108 
L 617.029752 222461.555108 
L 624.203306 222461.555108 
L 624.203306 222461.555108 
L 631.37686 222461.555108 
L 631.37686 222461.555108 
L 638.550413 222461.555108 
L 638.550413 222461.555108 
L 645.723967 222461.555108 
L 645.723967 222461.555108 
L 652.897521 222461.555108 
L 652.897521 222461.555108 
L 660.071074 222461.555108 
L 660.071074 222461.555108 
L 667.244628 222461.555108 
L 667.244628 222461.555108 
L 674.418182 222461.555108 
L 674.418182 222461.555108 
L 681.591736 222461.555108 
L 681.591736 222461.555108 
L 688.765289 222461.555108 
L 688.765289 222461.555108 
L 695.938843 222461.555108 
L 695.938843 222461.555108 
L 703.112397 222461.555108 
L 703.112397 222461.555108 
L 710.28595 222461.555108 
L 710.28595 222461.555108 
L 717.459504 222461.555108 
L 717.459504 222461.555108 
L 724.633058 222461.555108 
L 724.633058 222461.555108 
L 731.806612 222461.555108 
L 731.806612 222461.555108 
L 738.980165 222461.555108 
L 738.980165 222461.555108 
L 746.153719 222461.555108 
L 746.153719 222461.555108 
L 753.327273 222461.555108 
L 753.327273 222461.555108 
L 760.500826 222461.555108 
L 760.500826 222461.555108 
L 767.67438 222461.555108 
L 767.67438 222461.555108 
L 774.847934 222461.555108 
L 774.847934 222461.555108 
L 782.021488 222461.555108 
L 782.021488 222461.555108 
L 789.195041 222461.555108 
L 789.195041 222461.555108 
L 796.368595 222461.555108 
L 796.368595 222461.555108 
L 803.542149 222461.555108 
L 803.542149 222461.555108 
L 810.715702 222461.555108 
L 810.715702 222461.555108 
L 817.889256 222461.555108 
L 817.889256 222461.555108 
L 825.06281 222461.555108 
L 825.06281 222461.555108 
L 832.236364 222461.555108 
L 832.236364 222461.555108 
L 839.409917 222461.555108 
L 839.409917 222461.555108 
L 846.583471 222461.555108 
L 846.583471 222461.555108 
L 853.757025 222461.555108 
L 853.757025 222461.555108 
L 860.930579 222461.555108 
L 860.930579 222461.555108 
L 868.104132 222461.555108 
L 868.104132 222461.555108 
L 871.690909 222461.555108 
L 871.690909 222461.555108 
L 871.690909 222461.555108 
L 871.690909 222461.555108 
L 871.690909 222461.555108 
L 871.690909 222461.555108 
L 871.690909 222461.555108 
L 868.104132 222461.555108 
L 868.104132 222461.555108 
L 860.930579 222461.555108 
L 860.930579 222461.555108 
L 853.757025 222461.555108 
L 853.757025 222461.555108 
L 846.583471 222461.555108 
L 846.583471 222461.555108 
L 839.409917 222461.555108 
L 839.409917 222461.555108 
L 832.236364 222461.555108 
L 832.236364 222461.555108 
L 825.06281 222461.555108 
L 825.06281 222461.555108 
L 817.889256 222461.555108 
L 817.889256 222461.555108 
L 810.715702 222461.555108 
L 810.715702 222461.555108 
L 803.542149 222461.555108 
L 803.542149 222461.555108 
L 796.368595 222461.555108 
L 796.368595 222461.555108 
L 789.195041 222461.555108 
L 789.195041 222461.555108 
L 782.021488 222461.555108 
L 782.021488 222461.555108 
L 774.847934 222461.555108 
L 774.847934 222461.555108 
L 767.67438 222461.555108 
L 767.67438 222461.555108 
L 760.500826 222461.555108 
L 760.500826 222461.555108 
L 753.327273 222461.555108 
L 753.327273 222461.555108 
L 746.153719 222461.555108 
L 746.153719 222461.555108 
L 738.980165 222461.555108 
L 738.980165 222461.555108 
L 731.806612 222461.555108 
L 731.806612 222461.555108 
L 724.633058 222461.555108 
L 724.633058 222461.555108 
L 717.459504 222461.555108 
L 717.459504 222461.555108 
L 710.28595 222461.555108 
L 710.28595 222461.555108 
L 703.112397 222461.555108 
L 703.112397 222461.555108 
L 695.938843 222461.555108 
L 695.938843 222461.555108 
L 688.765289 222461.555108 
L 688.765289 222461.555108 
L 681.591736 222461.555108 
L 681.591736 222461.555108 
L 674.418182 222461.555108 
L 674.418182 222461.555108 
L 667.244628 222461.555108 
L 667.244628 222461.555108 
L 660.071074 222461.555108 
L 660.071074 222461.555108 
L 652.897521 222461.555108 
L 652.897521 222461.555108 
L 645.723967 222461.555108 
L 645.723967 222461.555108 
L 638.550413 222461.555108 
L 638.550413 222461.555108 
L 631.37686 222461.555108 
L 631.37686 222461.555108 
L 624.203306 222461.555108 
L 624.203306 222461.555108 
L 617.029752 222461.555108 
L 617.029752 222461.555108 
L 609.856198 222461.555108 
L 609.856198 222461.555108 
L 602.682645 222461.555108 
L 602.682645 222461.555108 
L 595.509091 222461.555108 
L 595.509091 222461.555108 
L 588.335537 222461.555108 
L 588.335537 222461.555108 
L 581.161983 222461.555108 
L 581.161983 222461.555108 
L 573.98843 222461.555108 
L 573.98843 222461.555108 
L 566.814876 222461.555108 
L 566.814876 222461.555108 
L 559.641322 222461.555108 
L 559.641322 222461.555108 
L 552.467769 222461.555108 
L 552.467769 222461.555108 
L 545.294215 222461.555108 
L 545.294215 222461.555108 
L 538.120661 222461.555108 
L 538.120661 222461.555108 
L 530.947107 222461.555108 
L 530.947107 222461.555108 
L 523.773554 222461.555108 
L 523.773554 222461.555108 
L 516.6 222461.555108 
L 516.6 222461.555108 
L 509.426446 222461.555108 
L 509.426446 222461.555108 
L 502.252893 222461.555108 
L 502.252893 222461.555108 
L 495.079339 222461.555108 
L 495.079339 222461.555108 
L 487.905785 222461.555108 
L 487.905785 222461.555108 
L 480.732231 222461.555108 
L 480.732231 222461.555108 
L 473.558678 222461.555108 
L 473.558678 222461.555108 
L 466.385124 222461.555108 
L 466.385124 222461.555108 
L 459.21157 222461.555108 
L 459.21157 222461.555108 
L 452.038017 222461.555108 
L 452.038017 222461.555108 
L 444.864463 222461.555108 
L 444.864463 222461.555108 
L 437.690909 222461.555108 
L 437.690909 222461.555108 
L 430.517355 222461.555108 
L 430.517355 222461.555108 
L 423.343802 222461.555108 
L 423.343802 222461.555108 
L 416.170248 222461.555108 
L 416.170248 222461.555108 
L 408.996694 222461.555108 
L 408.996694 222461.555108 
L 401.82314 222461.555108 
L 401.82314 222461.555108 
L 394.649587 222461.555108 
L 394.649587 222461.555108 
L 387.476033 222461.555108 
L 387.476033 222461.555108 
L 380.302479 222461.555108 
L 380.302479 222461.555108 
L 373.128926 222461.555108 
L 373.128926 222461.555108 
L 365.955372 222461.555108 
L 365.955372 222461.555108 
L 358.781818 222461.555108 
L 358.781818 222461.555108 
L 351.608264 222461.555108 
L 351.608264 222461.555108 
L 344.434711 222461.555108 
L 344.434711 222461.555108 
L 337.261157 222461.555108 
L 337.261157 222461.555108 
L 330.087603 222461.555108 
L 330.087603 222461.555108 
L 322.91405 222461.555108 
L 322.91405 222461.555108 
L 315.740496 222461.555108 
L 315.740496 222461.555108 
L 308.566942 222461.555108 
L 308.566942 222461.555108 
L 301.393388 222461.555108 
L 301.393388 222461.555108 
L 294.219835 222461.555108 
L 294.219835 222461.555108 
L 287.046281 222461.555108 
L 287.046281 222461.555108 
L 279.872727 222461.555108 
L 279.872727 222461.555108 
L 272.699174 222461.555108 
L 272.699174 222461.555108 
L 265.52562 222461.555108 
L 265.52562 222461.555108 
L 258.352066 222461.555108 
L 258.352066 222461.555108 
L 251.178512 222461.555108 
L 251.178512 222461.555108 
L 244.004959 222461.555108 
L 244.004959 222461.555108 
L 236.831405 222461.555108 
L 236.831405 222461.555108 
L 229.657851 222461.555108 
L 229.657851 222461.555108 
L 222.484298 222461.555108 
L 222.484298 222461.555108 
L 215.310744 222461.555108 
L 215.310744 222461.555108 
L 208.13719 222461.555108 
L 208.13719 222461.555108 
L 200.963636 222461.555108 
L 200.963636 222461.555108 
L 193.790083 222461.555108 
L 193.790083 222461.555108 
L 186.616529 222461.555108 
L 186.616529 222461.555108 
L 179.442975 222461.555108 
L 179.442975 222461.555108 
L 172.269421 222461.555108 
L 172.269421 222461.555108 
L 165.095868 222461.555108 
L 165.095868 222461.555108 
L 161.509091 222461.555108 
L 161.509091 222461.555108 
L 161.509091 222461.555108 
z
" style="fill:#00bfbf;fill-opacity:0.4;stroke:#00bfbf;stroke-opacity:0.4;"/>
   </g>
   <g id="PolyCollection_2">
    <path clip-path="url(#p95549a3cfa)" d="M 161.509091 222461.555108 
L 161.509091 222461.555108 
L 161.509091 222461.555108 
L 161.509091 222461.555108 
L 165.095868 222461.555108 
L 165.095868 222461.555108 
L 172.269421 222461.555108 
L 172.269421 222461.555108 
L 179.442975 222461.555108 
L 179.442975 222461.555108 
L 186.616529 222461.555108 
L 186.616529 222461.555108 
L 193.790083 222461.555108 
L 193.790083 222461.555108 
L 200.963636 222461.555108 
L 200.963636 222461.555108 
L 208.13719 222461.555108 
L 208.13719 222461.555108 
L 215.310744 222461.555108 
L 215.310744 222461.555108 
L 222.484298 222461.555108 
L 222.484298 222461.555108 
L 229.657851 222461.555108 
L 229.657851 222461.555108 
L 236.831405 222461.555108 
L 236.831405 222461.555108 
L 244.004959 222461.555108 
L 244.004959 847.407273 
L 251.178512 847.407273 
L 251.178512 222461.555108 
L 258.352066 222461.555108 
L 258.352066 847.407273 
L 265.52562 847.407273 
L 265.52562 847.407273 
L 272.699174 847.407273 
L 272.699174 741.670452 
L 279.872727 741.670452 
L 279.872727 674.957946 
L 287.046281 674.957946 
L 287.046281 647.269755 
L 294.219835 647.269755 
L 294.219835 674.957946 
L 301.393388 674.957946 
L 301.393388 608.245441 
L 308.566942 608.245441 
L 308.566942 608.245441 
L 315.740496 608.245441 
L 315.740496 660.121591 
L 322.91405 660.121591 
L 322.91405 600.541666 
L 330.087603 600.541666 
L 330.087603 559.080619 
L 337.261157 559.080619 
L 337.261157 537.603989 
L 344.434711 537.603989 
L 344.434711 516.900422 
L 351.608264 516.900422 
L 351.608264 485.407553 
L 358.781818 485.407553 
L 358.781818 494.804846 
L 365.955372 494.804846 
L 365.955372 465.283345 
L 373.128926 465.283345 
L 373.128926 450.187916 
L 380.302479 450.187916 
L 380.302479 454.961413 
L 387.476033 454.961413 
L 387.476033 414.319484 
L 394.649587 414.319484 
L 394.649587 396.7718 
L 401.82314 396.7718 
L 401.82314 371.794937 
L 408.996694 371.794937 
L 408.996694 351.982541 
L 416.170248 351.982541 
L 416.170248 316.762904 
L 423.343802 316.762904 
L 423.343802 306.816636 
L 430.517355 306.816636 
L 430.517355 277.73859 
L 437.690909 277.73859 
L 437.690909 253.005977 
L 444.864463 253.005977 
L 444.864463 238.198211 
L 452.038017 238.198211 
L 452.038017 218.837721 
L 459.21157 218.837721 
L 459.21157 200.730466 
L 466.385124 200.730466 
L 466.385124 191.959654 
L 473.558678 191.959654 
L 473.558678 193.241526 
L 480.732231 193.241526 
L 480.732231 196.634282 
L 487.905785 196.634282 
L 487.905785 206.354879 
L 495.079339 206.354879 
L 495.079339 220.393528 
L 502.252893 220.393528 
L 502.252893 227.186695 
L 509.426446 227.186695 
L 509.426446 234.495993 
L 516.6 234.495993 
L 516.6 300.714507 
L 523.773554 300.714507 
L 523.773554 635.933632 
L 530.947107 635.933632 
L 530.947107 847.407273 
L 538.120661 847.407273 
L 538.120661 222461.555108 
L 545.294215 222461.555108 
L 545.294215 222461.555108 
L 552.467769 222461.555108 
L 552.467769 222461.555108 
L 559.641322 222461.555108 
L 559.641322 222461.555108 
L 566.814876 222461.555108 
L 566.814876 222461.555108 
L 573.98843 222461.555108 
L 573.98843 222461.555108 
L 581.161983 222461.555108 
L 581.161983 222461.555108 
L 588.335537 222461.555108 
L 588.335537 222461.555108 
L 595.509091 222461.555108 
L 595.509091 222461.555108 
L 602.682645 222461.555108 
L 602.682645 222461.555108 
L 609.856198 222461.555108 
L 609.856198 222461.555108 
L 617.029752 222461.555108 
L 617.029752 222461.555108 
L 624.203306 222461.555108 
L 624.203306 222461.555108 
L 631.37686 222461.555108 
L 631.37686 222461.555108 
L 638.550413 222461.555108 
L 638.550413 222461.555108 
L 645.723967 222461.555108 
L 645.723967 222461.555108 
L 652.897521 222461.555108 
L 652.897521 222461.555108 
L 660.071074 222461.555108 
L 660.071074 222461.555108 
L 667.244628 222461.555108 
L 667.244628 222461.555108 
L 674.418182 222461.555108 
L 674.418182 222461.555108 
L 681.591736 222461.555108 
L 681.591736 222461.555108 
L 688.765289 222461.555108 
L 688.765289 222461.555108 
L 695.938843 222461.555108 
L 695.938843 222461.555108 
L 703.112397 222461.555108 
L 703.112397 222461.555108 
L 710.28595 222461.555108 
L 710.28595 222461.555108 
L 717.459504 222461.555108 
L 717.459504 222461.555108 
L 724.633058 222461.555108 
L 724.633058 222461.555108 
L 731.806612 222461.555108 
L 731.806612 222461.555108 
L 738.980165 222461.555108 
L 738.980165 222461.555108 
L 746.153719 222461.555108 
L 746.153719 222461.555108 
L 753.327273 222461.555108 
L 753.327273 222461.555108 
L 760.500826 222461.555108 
L 760.500826 222461.555108 
L 767.67438 222461.555108 
L 767.67438 222461.555108 
L 774.847934 222461.555108 
L 774.847934 222461.555108 
L 782.021488 222461.555108 
L 782.021488 222461.555108 
L 789.195041 222461.555108 
L 789.195041 222461.555108 
L 796.368595 222461.555108 
L 796.368595 222461.555108 
L 803.542149 222461.555108 
L 803.542149 222461.555108 
L 810.715702 222461.555108 
L 810.715702 222461.555108 
L 817.889256 222461.555108 
L 817.889256 222461.555108 
L 825.06281 222461.555108 
L 825.06281 222461.555108 
L 832.236364 222461.555108 
L 832.236364 222461.555108 
L 839.409917 222461.555108 
L 839.409917 222461.555108 
L 846.583471 222461.555108 
L 846.583471 222461.555108 
L 853.757025 222461.555108 
L 853.757025 222461.555108 
L 860.930579 222461.555108 
L 860.930579 222461.555108 
L 868.104132 222461.555108 
L 868.104132 222461.555108 
L 871.690909 222461.555108 
L 871.690909 222461.555108 
L 871.690909 222461.555108 
L 871.690909 222461.555108 
L 871.690909 222461.555108 
L 871.690909 222461.555108 
L 871.690909 222461.555108 
L 868.104132 222461.555108 
L 868.104132 222461.555108 
L 860.930579 222461.555108 
L 860.930579 222461.555108 
L 853.757025 222461.555108 
L 853.757025 222461.555108 
L 846.583471 222461.555108 
L 846.583471 222461.555108 
L 839.409917 222461.555108 
L 839.409917 222461.555108 
L 832.236364 222461.555108 
L 832.236364 222461.555108 
L 825.06281 222461.555108 
L 825.06281 222461.555108 
L 817.889256 222461.555108 
L 817.889256 222461.555108 
L 810.715702 222461.555108 
L 810.715702 222461.555108 
L 803.542149 222461.555108 
L 803.542149 222461.555108 
L 796.368595 222461.555108 
L 796.368595 222461.555108 
L 789.195041 222461.555108 
L 789.195041 222461.555108 
L 782.021488 222461.555108 
L 782.021488 222461.555108 
L 774.847934 222461.555108 
L 774.847934 222461.555108 
L 767.67438 222461.555108 
L 767.67438 222461.555108 
L 760.500826 222461.555108 
L 760.500826 222461.555108 
L 753.327273 222461.555108 
L 753.327273 222461.555108 
L 746.153719 222461.555108 
L 746.153719 222461.555108 
L 738.980165 222461.555108 
L 738.980165 222461.555108 
L 731.806612 222461.555108 
L 731.806612 222461.555108 
L 724.633058 222461.555108 
L 724.633058 222461.555108 
L 717.459504 222461.555108 
L 717.459504 222461.555108 
L 710.28595 222461.555108 
L 710.28595 222461.555108 
L 703.112397 222461.555108 
L 703.112397 222461.555108 
L 695.938843 222461.555108 
L 695.938843 222461.555108 
L 688.765289 222461.555108 
L 688.765289 222461.555108 
L 681.591736 222461.555108 
L 681.591736 222461.555108 
L 674.418182 222461.555108 
L 674.418182 222461.555108 
L 667.244628 222461.555108 
L 667.244628 222461.555108 
L 660.071074 222461.555108 
L 660.071074 222461.555108 
L 652.897521 222461.555108 
L 652.897521 222461.555108 
L 645.723967 222461.555108 
L 645.723967 222461.555108 
L 638.550413 222461.555108 
L 638.550413 222461.555108 
L 631.37686 222461.555108 
L 631.37686 222461.555108 
L 624.203306 222461.555108 
L 624.203306 222461.555108 
L 617.029752 222461.555108 
L 617.029752 222461.555108 
L 609.856198 222461.555108 
L 609.856198 222461.555108 
L 602.682645 222461.555108 
L 602.682645 222461.555108 
L 595.509091 222461.555108 
L 595.509091 222461.555108 
L 588.335537 222461.555108 
L 588.335537 222461.555108 
L 581.161983 222461.555108 
L 581.161983 222461.555108 
L 573.98843 222461.555108 
L 573.98843 222461.555108 
L 566.814876 222461.555108 
L 566.814876 222461.555108 
L 559.641322 222461.555108 
L 559.641322 222461.555108 
L 552.467769 222461.555108 
L 552.467769 222461.555108 
L 545.294215 222461.555108 
L 545.294215 222461.555108 
L 538.120661 222461.555108 
L 538.120661 222461.555108 
L 530.947107 222461.555108 
L 530.947107 222461.555108 
L 523.773554 222461.555108 
L 523.773554 222461.555108 
L 516.6 222461.555108 
L 516.6 222461.555108 
L 509.426446 222461.555108 
L 509.426446 222461.555108 
L 502.252893 222461.555108 
L 502.252893 222461.555108 
L 495.079339 222461.555108 
L 495.079339 222461.555108 
L 487.905785 222461.555108 
L 487.905785 222461.555108 
L 480.732231 222461.555108 
L 480.732231 222461.555108 
L 473.558678 222461.555108 
L 473.558678 222461.555108 
L 466.385124 222461.555108 
L 466.385124 222461.555108 
L 459.21157 222461.555108 
L 459.21157 222461.555108 
L 452.038017 222461.555108 
L 452.038017 222461.555108 
L 444.864463 222461.555108 
L 444.864463 222461.555108 
L 437.690909 222461.555108 
L 437.690909 222461.555108 
L 430.517355 222461.555108 
L 430.517355 222461.555108 
L 423.343802 222461.555108 
L 423.343802 222461.555108 
L 416.170248 222461.555108 
L 416.170248 222461.555108 
L 408.996694 222461.555108 
L 408.996694 222461.555108 
L 401.82314 222461.555108 
L 401.82314 222461.555108 
L 394.649587 222461.555108 
L 394.649587 222461.555108 
L 387.476033 222461.555108 
L 387.476033 222461.555108 
L 380.302479 222461.555108 
L 380.302479 222461.555108 
L 373.128926 222461.555108 
L 373.128926 222461.555108 
L 365.955372 222461.555108 
L 365.955372 222461.555108 
L 358.781818 222461.555108 
L 358.781818 222461.555108 
L 351.608264 222461.555108 
L 351.608264 222461.555108 
L 344.434711 222461.555108 
L 344.434711 222461.555108 
L 337.261157 222461.555108 
L 337.261157 222461.555108 
L 330.087603 222461.555108 
L 330.087603 222461.555108 
L 322.91405 222461.555108 
L 322.91405 222461.555108 
L 315.740496 222461.555108 
L 315.740496 222461.555108 
L 308.566942 222461.555108 
L 308.566942 222461.555108 
L 301.393388 222461.555108 
L 301.393388 222461.555108 
L 294.219835 222461.555108 
L 294.219835 222461.555108 
L 287.046281 222461.555108 
L 287.046281 222461.555108 
L 279.872727 222461.555108 
L 279.872727 222461.555108 
L 272.699174 222461.555108 
L 272.699174 222461.555108 
L 265.52562 222461.555108 
L 265.52562 222461.555108 
L 258.352066 222461.555108 
L 258.352066 222461.555108 
L 251.178512 222461.555108 
L 251.178512 222461.555108 
L 244.004959 222461.555108 
L 244.004959 222461.555108 
L 236.831405 222461.555108 
L 236.831405 222461.555108 
L 229.657851 222461.555108 
L 229.657851 222461.555108 
L 222.484298 222461.555108 
L 222.484298 222461.555108 
L 215.310744 222461.555108 
L 215.310744 222461.555108 
L 208.13719 222461.555108 
L 208.13719 222461.555108 
L 200.963636 222461.555108 
L 200.963636 222461.555108 
L 193.790083 222461.555108 
L 193.790083 222461.555108 
L 186.616529 222461.555108 
L 186.616529 222461.555108 
L 179.442975 222461.555108 
L 179.442975 222461.555108 
L 172.269421 222461.555108 
L 172.269421 222461.555108 
L 165.095868 222461.555108 
L 165.095868 222461.555108 
L 161.509091 222461.555108 
L 161.509091 222461.555108 
L 161.509091 222461.555108 
z
" style="fill:#bf00bf;fill-opacity:0.4;stroke:#bf00bf;stroke-opacity:0.4;"/>
   </g>
   <g id="PolyCollection_3">
    <path clip-path="url(#p95549a3cfa)" d="M 161.509091 222461.555108 
L 161.509091 222461.555108 
L 161.509091 222461.555108 
L 161.509091 222461.555108 
L 165.095868 222461.555108 
L 165.095868 222461.555108 
L 172.269421 222461.555108 
L 172.269421 847.407273 
L 179.442975 847.407273 
L 179.442975 847.407273 
L 186.616529 847.407273 
L 186.616529 780.694767 
L 193.790083 780.694767 
L 193.790083 780.694767 
L 200.963636 780.694767 
L 200.963636 222461.555108 
L 208.13719 222461.555108 
L 208.13719 222461.555108 
L 215.310744 222461.555108 
L 215.310744 741.670452 
L 222.484298 741.670452 
L 222.484298 741.670452 
L 229.657851 741.670452 
L 229.657851 713.982261 
L 236.831405 713.982261 
L 236.831405 222461.555108 
L 244.004959 222461.555108 
L 244.004959 222461.555108 
L 251.178512 222461.555108 
L 251.178512 741.670452 
L 258.352066 741.670452 
L 258.352066 780.694767 
L 265.52562 780.694767 
L 265.52562 847.407273 
L 272.699174 847.407273 
L 272.699174 741.670452 
L 279.872727 741.670452 
L 279.872727 847.407273 
L 287.046281 847.407273 
L 287.046281 692.505631 
L 294.219835 692.505631 
L 294.219835 847.407273 
L 301.393388 847.407273 
L 301.393388 692.505631 
L 308.566942 692.505631 
L 308.566942 616.61992 
L 315.740496 616.61992 
L 315.740496 647.269755 
L 322.91405 647.269755 
L 322.91405 660.121591 
L 330.087603 660.121591 
L 330.087603 692.505631 
L 337.261157 692.505631 
L 337.261157 713.982261 
L 344.434711 713.982261 
L 344.434711 647.269755 
L 351.608264 647.269755 
L 351.608264 593.409085 
L 358.781818 593.409085 
L 358.781818 564.017383 
L 365.955372 564.017383 
L 365.955372 600.541666 
L 373.128926 600.541666 
L 373.128926 533.82916 
L 380.302479 533.82916 
L 380.302479 537.603989 
L 387.476033 537.603989 
L 387.476033 499.871584 
L 394.649587 499.871584 
L 394.649587 489.991553 
L 401.82314 489.991553 
L 401.82314 513.844743 
L 408.996694 513.844743 
L 408.996694 489.991553 
L 416.170248 489.991553 
L 416.170248 483.194908 
L 423.343802 483.194908 
L 423.343802 447.132237 
L 430.517355 447.132237 
L 430.517355 442.723261 
L 437.690909 442.723261 
L 437.690909 419.820742 
L 444.864463 419.820742 
L 444.864463 409.115741 
L 452.038017 409.115741 
L 452.038017 369.083608 
L 459.21157 369.083608 
L 459.21157 332.770623 
L 466.385124 332.770623 
L 466.385124 279.303596 
L 473.558678 279.303596 
L 473.558678 221.974899 
L 480.732231 221.974899 
L 480.732231 190.0683 
L 487.905785 190.0683 
L 487.905785 218.278151 
L 495.079339 218.278151 
L 495.079339 248.89312 
L 502.252893 248.89312 
L 502.252893 264.017493 
L 509.426446 264.017493 
L 509.426446 255.848887 
L 516.6 255.848887 
L 516.6 225.819328 
L 523.773554 225.819328 
L 523.773554 240.454753 
L 530.947107 240.454753 
L 530.947107 250.43927 
L 538.120661 250.43927 
L 538.120661 263.569838 
L 545.294215 263.569838 
L 545.294215 300.714507 
L 552.467769 300.714507 
L 552.467769 318.723171 
L 559.641322 318.723171 
L 559.641322 340.895437 
L 566.814876 340.895437 
L 566.814876 336.508794 
L 573.98843 336.508794 
L 573.98843 381.174604 
L 581.161983 381.174604 
L 581.161983 381.935444 
L 588.335537 381.935444 
L 588.335537 395.005772 
L 595.509091 395.005772 
L 595.509091 397.667116 
L 602.682645 397.667116 
L 602.682645 409.115741 
L 609.856198 409.115741 
L 609.856198 439.892298 
L 617.029752 439.892298 
L 617.029752 434.468565 
L 624.203306 434.468565 
L 624.203306 431.867169 
L 631.37686 431.867169 
L 631.37686 444.170594 
L 638.550413 444.170594 
L 638.550413 447.132237 
L 645.723967 447.132237 
L 645.723967 441.297372 
L 652.897521 441.297372 
L 652.897521 453.343799 
L 660.071074 453.343799 
L 660.071074 458.280563 
L 667.244628 458.280563 
L 667.244628 483.194908 
L 674.418182 483.194908 
L 674.418182 450.187916 
L 681.591736 450.187916 
L 681.591736 472.835909 
L 688.765289 472.835909 
L 688.765289 472.835909 
L 695.938843 472.835909 
L 695.938843 465.283345 
L 703.112397 465.283345 
L 703.112397 461.718278 
L 710.28595 461.718278 
L 710.28595 485.407553 
L 717.459504 485.407553 
L 717.459504 481.03199 
L 724.633058 481.03199 
L 724.633058 494.804846 
L 731.806612 494.804846 
L 731.806612 492.368113 
L 738.980165 492.368113 
L 738.980165 485.407553 
L 746.153719 485.407553 
L 746.153719 470.891483 
L 753.327273 470.891483 
L 753.327273 502.50862 
L 760.500826 502.50862 
L 760.500826 483.194908 
L 767.67438 483.194908 
L 767.67438 526.696579 
L 774.847934 526.696579 
L 774.847934 513.844743 
L 782.021488 513.844743 
L 782.021488 564.017383 
L 789.195041 564.017383 
L 789.195041 586.768811 
L 796.368595 586.768811 
L 796.368595 574.722384 
L 803.542149 574.722384 
L 803.542149 635.933632 
L 810.715702 635.933632 
L 810.715702 647.269755 
L 817.889256 647.269755 
L 817.889256 222461.555108 
L 825.06281 222461.555108 
L 825.06281 847.407273 
L 832.236364 847.407273 
L 832.236364 222461.555108 
L 839.409917 222461.555108 
L 839.409917 222461.555108 
L 846.583471 222461.555108 
L 846.583471 222461.555108 
L 853.757025 222461.555108 
L 853.757025 222461.555108 
L 860.930579 222461.555108 
L 860.930579 222461.555108 
L 868.104132 222461.555108 
L 868.104132 222461.555108 
L 871.690909 222461.555108 
L 871.690909 222461.555108 
L 871.690909 222461.555108 
L 871.690909 222461.555108 
L 871.690909 222461.555108 
L 871.690909 222461.555108 
L 871.690909 222461.555108 
L 868.104132 222461.555108 
L 868.104132 222461.555108 
L 860.930579 222461.555108 
L 860.930579 222461.555108 
L 853.757025 222461.555108 
L 853.757025 222461.555108 
L 846.583471 222461.555108 
L 846.583471 222461.555108 
L 839.409917 222461.555108 
L 839.409917 222461.555108 
L 832.236364 222461.555108 
L 832.236364 222461.555108 
L 825.06281 222461.555108 
L 825.06281 222461.555108 
L 817.889256 222461.555108 
L 817.889256 222461.555108 
L 810.715702 222461.555108 
L 810.715702 222461.555108 
L 803.542149 222461.555108 
L 803.542149 222461.555108 
L 796.368595 222461.555108 
L 796.368595 222461.555108 
L 789.195041 222461.555108 
L 789.195041 222461.555108 
L 782.021488 222461.555108 
L 782.021488 222461.555108 
L 774.847934 222461.555108 
L 774.847934 222461.555108 
L 767.67438 222461.555108 
L 767.67438 222461.555108 
L 760.500826 222461.555108 
L 760.500826 222461.555108 
L 753.327273 222461.555108 
L 753.327273 222461.555108 
L 746.153719 222461.555108 
L 746.153719 222461.555108 
L 738.980165 222461.555108 
L 738.980165 222461.555108 
L 731.806612 222461.555108 
L 731.806612 222461.555108 
L 724.633058 222461.555108 
L 724.633058 222461.555108 
L 717.459504 222461.555108 
L 717.459504 222461.555108 
L 710.28595 222461.555108 
L 710.28595 222461.555108 
L 703.112397 222461.555108 
L 703.112397 222461.555108 
L 695.938843 222461.555108 
L 695.938843 222461.555108 
L 688.765289 222461.555108 
L 688.765289 222461.555108 
L 681.591736 222461.555108 
L 681.591736 222461.555108 
L 674.418182 222461.555108 
L 674.418182 222461.555108 
L 667.244628 222461.555108 
L 667.244628 222461.555108 
L 660.071074 222461.555108 
L 660.071074 222461.555108 
L 652.897521 222461.555108 
L 652.897521 222461.555108 
L 645.723967 222461.555108 
L 645.723967 222461.555108 
L 638.550413 222461.555108 
L 638.550413 222461.555108 
L 631.37686 222461.555108 
L 631.37686 222461.555108 
L 624.203306 222461.555108 
L 624.203306 222461.555108 
L 617.029752 222461.555108 
L 617.029752 222461.555108 
L 609.856198 222461.555108 
L 609.856198 222461.555108 
L 602.682645 222461.555108 
L 602.682645 222461.555108 
L 595.509091 222461.555108 
L 595.509091 222461.555108 
L 588.335537 222461.555108 
L 588.335537 222461.555108 
L 581.161983 222461.555108 
L 581.161983 222461.555108 
L 573.98843 222461.555108 
L 573.98843 222461.555108 
L 566.814876 222461.555108 
L 566.814876 222461.555108 
L 559.641322 222461.555108 
L 559.641322 222461.555108 
L 552.467769 222461.555108 
L 552.467769 222461.555108 
L 545.294215 222461.555108 
L 545.294215 222461.555108 
L 538.120661 222461.555108 
L 538.120661 222461.555108 
L 530.947107 222461.555108 
L 530.947107 222461.555108 
L 523.773554 222461.555108 
L 523.773554 222461.555108 
L 516.6 222461.555108 
L 516.6 222461.555108 
L 509.426446 222461.555108 
L 509.426446 222461.555108 
L 502.252893 222461.555108 
L 502.252893 222461.555108 
L 495.079339 222461.555108 
L 495.079339 222461.555108 
L 487.905785 222461.555108 
L 487.905785 222461.555108 
L 480.732231 222461.555108 
L 480.732231 222461.555108 
L 473.558678 222461.555108 
L 473.558678 222461.555108 
L 466.385124 222461.555108 
L 466.385124 222461.555108 
L 459.21157 222461.555108 
L 459.21157 222461.555108 
L 452.038017 222461.555108 
L 452.038017 222461.555108 
L 444.864463 222461.555108 
L 444.864463 222461.555108 
L 437.690909 222461.555108 
L 437.690909 222461.555108 
L 430.517355 222461.555108 
L 430.517355 222461.555108 
L 423.343802 222461.555108 
L 423.343802 222461.555108 
L 416.170248 222461.555108 
L 416.170248 222461.555108 
L 408.996694 222461.555108 
L 408.996694 222461.555108 
L 401.82314 222461.555108 
L 401.82314 222461.555108 
L 394.649587 222461.555108 
L 394.649587 222461.555108 
L 387.476033 222461.555108 
L 387.476033 222461.555108 
L 380.302479 222461.555108 
L 380.302479 222461.555108 
L 373.128926 222461.555108 
L 373.128926 222461.555108 
L 365.955372 222461.555108 
L 365.955372 222461.555108 
L 358.781818 222461.555108 
L 358.781818 222461.555108 
L 351.608264 222461.555108 
L 351.608264 222461.555108 
L 344.434711 222461.555108 
L 344.434711 222461.555108 
L 337.261157 222461.555108 
L 337.261157 222461.555108 
L 330.087603 222461.555108 
L 330.087603 222461.555108 
L 322.91405 222461.555108 
L 322.91405 222461.555108 
L 315.740496 222461.555108 
L 315.740496 222461.555108 
L 308.566942 222461.555108 
L 308.566942 222461.555108 
L 301.393388 222461.555108 
L 301.393388 222461.555108 
L 294.219835 222461.555108 
L 294.219835 222461.555108 
L 287.046281 222461.555108 
L 287.046281 222461.555108 
L 279.872727 222461.555108 
L 279.872727 222461.555108 
L 272.699174 222461.555108 
L 272.699174 222461.555108 
L 265.52562 222461.555108 
L 265.52562 222461.555108 
L 258.352066 222461.555108 
L 258.352066 222461.555108 
L 251.178512 222461.555108 
L 251.178512 222461.555108 
L 244.004959 222461.555108 
L 244.004959 222461.555108 
L 236.831405 222461.555108 
L 236.831405 222461.555108 
L 229.657851 222461.555108 
L 229.657851 222461.555108 
L 222.484298 222461.555108 
L 222.484298 222461.555108 
L 215.310744 222461.555108 
L 215.310744 222461.555108 
L 208.13719 222461.555108 
L 208.13719 222461.555108 
L 200.963636 222461.555108 
L 200.963636 222461.555108 
L 193.790083 222461.555108 
L 193.790083 222461.555108 
L 186.616529 222461.555108 
L 186.616529 222461.555108 
L 179.442975 222461.555108 
L 179.442975 222461.555108 
L 172.269421 222461.555108 
L 172.269421 222461.555108 
L 165.095868 222461.555108 
L 165.095868 222461.555108 
L 161.509091 222461.555108 
L 161.509091 222461.555108 
L 161.509091 222461.555108 
z
" style="fill:#bfbf00;fill-opacity:0.4;stroke:#bfbf00;stroke-opacity:0.4;"/>
   </g>
   <g id="matplotlib.axis_1">
    <g id="xtick_1">
     <g id="line2d_1">
      <defs>
       <path d="M 0 0 
L 0 3.5 
" id="m262c4dbd60" style="stroke:#000000;stroke-width:0.8;"/>
      </defs>
      <g>
       <use style="stroke:#000000;stroke-width:0.8;" x="157.922314" xlink:href="#m262c4dbd60" y="882"/>
      </g>
     </g>
     <g id="text_1">
      <!-- 0.0 -->
      <g transform="translate(134.067627 911.795313)scale(0.3 -0.3)">
       <defs>
        <path d="M 2034 4250 
Q 1547 4250 1301 3770 
Q 1056 3291 1056 2328 
Q 1056 1369 1301 889 
Q 1547 409 2034 409 
Q 2525 409 2770 889 
Q 3016 1369 3016 2328 
Q 3016 3291 2770 3770 
Q 2525 4250 2034 4250 
z
M 2034 4750 
Q 2819 4750 3233 4129 
Q 3647 3509 3647 2328 
Q 3647 1150 3233 529 
Q 2819 -91 2034 -91 
Q 1250 -91 836 529 
Q 422 1150 422 2328 
Q 422 3509 836 4129 
Q 1250 4750 2034 4750 
z
" id="DejaVuSans-30" transform="scale(0.015625)"/>
        <path d="M 684 794 
L 1344 794 
L 1344 0 
L 684 0 
L 684 794 
z
" id="DejaVuSans-2e" transform="scale(0.015625)"/>
       </defs>
       <use xlink:href="#DejaVuSans-30"/>
       <use x="63.623047" xlink:href="#DejaVuSans-2e"/>
       <use x="95.410156" xlink:href="#DejaVuSans-30"/>
      </g>
     </g>
    </g>
    <g id="xtick_2">
     <g id="line2d_2">
      <g>
       <use style="stroke:#000000;stroke-width:0.8;" x="337.261157" xlink:href="#m262c4dbd60" y="882"/>
      </g>
     </g>
     <g id="text_2">
      <!-- 0.5 -->
      <g transform="translate(313.40647 911.795313)scale(0.3 -0.3)">
       <defs>
        <path d="M 691 4666 
L 3169 4666 
L 3169 4134 
L 1269 4134 
L 1269 2991 
Q 1406 3038 1543 3061 
Q 1681 3084 1819 3084 
Q 2600 3084 3056 2656 
Q 3513 2228 3513 1497 
Q 3513 744 3044 326 
Q 2575 -91 1722 -91 
Q 1428 -91 1123 -41 
Q 819 9 494 109 
L 494 744 
Q 775 591 1075 516 
Q 1375 441 1709 441 
Q 2250 441 2565 725 
Q 2881 1009 2881 1497 
Q 2881 1984 2565 2268 
Q 2250 2553 1709 2553 
Q 1456 2553 1204 2497 
Q 953 2441 691 2322 
L 691 4666 
z
" id="DejaVuSans-35" transform="scale(0.015625)"/>
       </defs>
       <use xlink:href="#DejaVuSans-30"/>
       <use x="63.623047" xlink:href="#DejaVuSans-2e"/>
       <use x="95.410156" xlink:href="#DejaVuSans-35"/>
      </g>
     </g>
    </g>
    <g id="xtick_3">
     <g id="line2d_3">
      <g>
       <use style="stroke:#000000;stroke-width:0.8;" x="516.6" xlink:href="#m262c4dbd60" y="882"/>
      </g>
     </g>
     <g id="text_3">
      <!-- 1.0 -->
      <g transform="translate(492.745313 911.795313)scale(0.3 -0.3)">
       <defs>
        <path d="M 794 531 
L 1825 531 
L 1825 4091 
L 703 3866 
L 703 4441 
L 1819 4666 
L 2450 4666 
L 2450 531 
L 3481 531 
L 3481 0 
L 794 0 
L 794 531 
z
" id="DejaVuSans-31" transform="scale(0.015625)"/>
       </defs>
       <use xlink:href="#DejaVuSans-31"/>
       <use x="63.623047" xlink:href="#DejaVuSans-2e"/>
       <use x="95.410156" xlink:href="#DejaVuSans-30"/>
      </g>
     </g>
    </g>
    <g id="xtick_4">
     <g id="line2d_4">
      <g>
       <use style="stroke:#000000;stroke-width:0.8;" x="695.938843" xlink:href="#m262c4dbd60" y="882"/>
      </g>
     </g>
     <g id="text_4">
      <!-- 1.5 -->
      <g transform="translate(672.084155 911.795313)scale(0.3 -0.3)">
       <use xlink:href="#DejaVuSans-31"/>
       <use x="63.623047" xlink:href="#DejaVuSans-2e"/>
       <use x="95.410156" xlink:href="#DejaVuSans-35"/>
      </g>
     </g>
    </g>
    <g id="xtick_5">
     <g id="line2d_5">
      <g>
       <use style="stroke:#000000;stroke-width:0.8;" x="875.277686" xlink:href="#m262c4dbd60" y="882"/>
      </g>
     </g>
     <g id="text_5">
      <!-- 2.0 -->
      <g transform="translate(851.422998 911.795313)scale(0.3 -0.3)">
       <defs>
        <path d="M 1228 531 
L 3431 531 
L 3431 0 
L 469 0 
L 469 531 
Q 828 903 1448 1529 
Q 2069 2156 2228 2338 
Q 2531 2678 2651 2914 
Q 2772 3150 2772 3378 
Q 2772 3750 2511 3984 
Q 2250 4219 1831 4219 
Q 1534 4219 1204 4116 
Q 875 4013 500 3803 
L 500 4441 
Q 881 4594 1212 4672 
Q 1544 4750 1819 4750 
Q 2544 4750 2975 4387 
Q 3406 4025 3406 3419 
Q 3406 3131 3298 2873 
Q 3191 2616 2906 2266 
Q 2828 2175 2409 1742 
Q 1991 1309 1228 531 
z
" id="DejaVuSans-32" transform="scale(0.015625)"/>
       </defs>
       <use xlink:href="#DejaVuSans-32"/>
       <use x="63.623047" xlink:href="#DejaVuSans-2e"/>
       <use x="95.410156" xlink:href="#DejaVuSans-30"/>
      </g>
     </g>
    </g>
    <g id="text_6">
     <!-- Shower depth -->
     <g transform="translate(412.300781 944.829687)scale(0.3 -0.3)">
      <defs>
       <path d="M 3425 4513 
L 3425 3897 
Q 3066 4069 2747 4153 
Q 2428 4238 2131 4238 
Q 1616 4238 1336 4038 
Q 1056 3838 1056 3469 
Q 1056 3159 1242 3001 
Q 1428 2844 1947 2747 
L 2328 2669 
Q 3034 2534 3370 2195 
Q 3706 1856 3706 1288 
Q 3706 609 3251 259 
Q 2797 -91 1919 -91 
Q 1588 -91 1214 -16 
Q 841 59 441 206 
L 441 856 
Q 825 641 1194 531 
Q 1563 422 1919 422 
Q 2459 422 2753 634 
Q 3047 847 3047 1241 
Q 3047 1584 2836 1778 
Q 2625 1972 2144 2069 
L 1759 2144 
Q 1053 2284 737 2584 
Q 422 2884 422 3419 
Q 422 4038 858 4394 
Q 1294 4750 2059 4750 
Q 2388 4750 2728 4690 
Q 3069 4631 3425 4513 
z
" id="DejaVuSans-53" transform="scale(0.015625)"/>
       <path d="M 3513 2113 
L 3513 0 
L 2938 0 
L 2938 2094 
Q 2938 2591 2744 2837 
Q 2550 3084 2163 3084 
Q 1697 3084 1428 2787 
Q 1159 2491 1159 1978 
L 1159 0 
L 581 0 
L 581 4863 
L 1159 4863 
L 1159 2956 
Q 1366 3272 1645 3428 
Q 1925 3584 2291 3584 
Q 2894 3584 3203 3211 
Q 3513 2838 3513 2113 
z
" id="DejaVuSans-68" transform="scale(0.015625)"/>
       <path d="M 1959 3097 
Q 1497 3097 1228 2736 
Q 959 2375 959 1747 
Q 959 1119 1226 758 
Q 1494 397 1959 397 
Q 2419 397 2687 759 
Q 2956 1122 2956 1747 
Q 2956 2369 2687 2733 
Q 2419 3097 1959 3097 
z
M 1959 3584 
Q 2709 3584 3137 3096 
Q 3566 2609 3566 1747 
Q 3566 888 3137 398 
Q 2709 -91 1959 -91 
Q 1206 -91 779 398 
Q 353 888 353 1747 
Q 353 2609 779 3096 
Q 1206 3584 1959 3584 
z
" id="DejaVuSans-6f" transform="scale(0.015625)"/>
       <path d="M 269 3500 
L 844 3500 
L 1563 769 
L 2278 3500 
L 2956 3500 
L 3675 769 
L 4391 3500 
L 4966 3500 
L 4050 0 
L 3372 0 
L 2619 2869 
L 1863 0 
L 1184 0 
L 269 3500 
z
" id="DejaVuSans-77" transform="scale(0.015625)"/>
       <path d="M 3597 1894 
L 3597 1613 
L 953 1613 
Q 991 1019 1311 708 
Q 1631 397 2203 397 
Q 2534 397 2845 478 
Q 3156 559 3463 722 
L 3463 178 
Q 3153 47 2828 -22 
Q 2503 -91 2169 -91 
Q 1331 -91 842 396 
Q 353 884 353 1716 
Q 353 2575 817 3079 
Q 1281 3584 2069 3584 
Q 2775 3584 3186 3129 
Q 3597 2675 3597 1894 
z
M 3022 2063 
Q 3016 2534 2758 2815 
Q 2500 3097 2075 3097 
Q 1594 3097 1305 2825 
Q 1016 2553 972 2059 
L 3022 2063 
z
" id="DejaVuSans-65" transform="scale(0.015625)"/>
       <path d="M 2631 2963 
Q 2534 3019 2420 3045 
Q 2306 3072 2169 3072 
Q 1681 3072 1420 2755 
Q 1159 2438 1159 1844 
L 1159 0 
L 581 0 
L 581 3500 
L 1159 3500 
L 1159 2956 
Q 1341 3275 1631 3429 
Q 1922 3584 2338 3584 
Q 2397 3584 2469 3576 
Q 2541 3569 2628 3553 
L 2631 2963 
z
" id="DejaVuSans-72" transform="scale(0.015625)"/>
       <path id="DejaVuSans-20" transform="scale(0.015625)"/>
       <path d="M 2906 2969 
L 2906 4863 
L 3481 4863 
L 3481 0 
L 2906 0 
L 2906 525 
Q 2725 213 2448 61 
Q 2172 -91 1784 -91 
Q 1150 -91 751 415 
Q 353 922 353 1747 
Q 353 2572 751 3078 
Q 1150 3584 1784 3584 
Q 2172 3584 2448 3432 
Q 2725 3281 2906 2969 
z
M 947 1747 
Q 947 1113 1208 752 
Q 1469 391 1925 391 
Q 2381 391 2643 752 
Q 2906 1113 2906 1747 
Q 2906 2381 2643 2742 
Q 2381 3103 1925 3103 
Q 1469 3103 1208 2742 
Q 947 2381 947 1747 
z
" id="DejaVuSans-64" transform="scale(0.015625)"/>
       <path d="M 1159 525 
L 1159 -1331 
L 581 -1331 
L 581 3500 
L 1159 3500 
L 1159 2969 
Q 1341 3281 1617 3432 
Q 1894 3584 2278 3584 
Q 2916 3584 3314 3078 
Q 3713 2572 3713 1747 
Q 3713 922 3314 415 
Q 2916 -91 2278 -91 
Q 1894 -91 1617 61 
Q 1341 213 1159 525 
z
M 3116 1747 
Q 3116 2381 2855 2742 
Q 2594 3103 2138 3103 
Q 1681 3103 1420 2742 
Q 1159 2381 1159 1747 
Q 1159 1113 1420 752 
Q 1681 391 2138 391 
Q 2594 391 2855 752 
Q 3116 1113 3116 1747 
z
" id="DejaVuSans-70" transform="scale(0.015625)"/>
       <path d="M 1172 4494 
L 1172 3500 
L 2356 3500 
L 2356 3053 
L 1172 3053 
L 1172 1153 
Q 1172 725 1289 603 
Q 1406 481 1766 481 
L 2356 481 
L 2356 0 
L 1766 0 
Q 1100 0 847 248 
Q 594 497 594 1153 
L 594 3053 
L 172 3053 
L 172 3500 
L 594 3500 
L 594 4494 
L 1172 4494 
z
" id="DejaVuSans-74" transform="scale(0.015625)"/>
      </defs>
      <use xlink:href="#DejaVuSans-53"/>
      <use x="63.476562" xlink:href="#DejaVuSans-68"/>
      <use x="126.855469" xlink:href="#DejaVuSans-6f"/>
      <use x="188.037109" xlink:href="#DejaVuSans-77"/>
      <use x="269.824219" xlink:href="#DejaVuSans-65"/>
      <use x="331.347656" xlink:href="#DejaVuSans-72"/>
      <use x="372.460938" xlink:href="#DejaVuSans-20"/>
      <use x="404.248047" xlink:href="#DejaVuSans-64"/>
      <use x="467.724609" xlink:href="#DejaVuSans-65"/>
      <use x="529.248047" xlink:href="#DejaVuSans-70"/>
      <use x="592.724609" xlink:href="#DejaVuSans-74"/>
      <use x="631.933594" xlink:href="#DejaVuSans-68"/>
     </g>
    </g>
   </g>
   <g id="matplotlib.axis_2">
    <g id="ytick_1">
     <g id="line2d_6">
      <defs>
       <path d="M 0 0 
L -3.5 0 
" id="mb42e19cfbb" style="stroke:#000000;stroke-width:0.8;"/>
      </defs>
      <g>
       <use style="stroke:#000000;stroke-width:0.8;" x="126" xlink:href="#mb42e19cfbb" y="847.407273"/>
      </g>
     </g>
     <g id="text_7">
      <!-- $\mathdefault{10^{0}}$ -->
      <g transform="translate(66.2 858.804929)scale(0.3 -0.3)">
       <use transform="translate(0 0.765625)" xlink:href="#DejaVuSans-31"/>
       <use transform="translate(63.623047 0.765625)" xlink:href="#DejaVuSans-30"/>
       <use transform="translate(128.203125 39.046875)scale(0.7)" xlink:href="#DejaVuSans-30"/>
      </g>
     </g>
    </g>
    <g id="ytick_2">
     <g id="line2d_7">
      <g>
       <use style="stroke:#000000;stroke-width:0.8;" x="126" xlink:href="#mb42e19cfbb" y="625.793125"/>
      </g>
     </g>
     <g id="text_8">
      <!-- $\mathdefault{10^{1}}$ -->
      <g transform="translate(66.2 637.190781)scale(0.3 -0.3)">
       <use transform="translate(0 0.684375)" xlink:href="#DejaVuSans-31"/>
       <use transform="translate(63.623047 0.684375)" xlink:href="#DejaVuSans-30"/>
       <use transform="translate(128.203125 38.965625)scale(0.7)" xlink:href="#DejaVuSans-31"/>
      </g>
     </g>
    </g>
    <g id="ytick_3">
     <g id="line2d_8">
      <g>
       <use style="stroke:#000000;stroke-width:0.8;" x="126" xlink:href="#mb42e19cfbb" y="404.178977"/>
      </g>
     </g>
     <g id="text_9">
      <!-- $\mathdefault{10^{2}}$ -->
      <g transform="translate(66.2 415.576633)scale(0.3 -0.3)">
       <use transform="translate(0 0.765625)" xlink:href="#DejaVuSans-31"/>
       <use transform="translate(63.623047 0.765625)" xlink:href="#DejaVuSans-30"/>
       <use transform="translate(128.203125 39.046875)scale(0.7)" xlink:href="#DejaVuSans-32"/>
      </g>
     </g>
    </g>
    <g id="ytick_4">
     <g id="line2d_9">
      <g>
       <use style="stroke:#000000;stroke-width:0.8;" x="126" xlink:href="#mb42e19cfbb" y="182.564829"/>
      </g>
     </g>
     <g id="text_10">
      <!-- $\mathdefault{10^{3}}$ -->
      <g transform="translate(66.2 193.962485)scale(0.3 -0.3)">
       <defs>
        <path d="M 2597 2516 
Q 3050 2419 3304 2112 
Q 3559 1806 3559 1356 
Q 3559 666 3084 287 
Q 2609 -91 1734 -91 
Q 1441 -91 1130 -33 
Q 819 25 488 141 
L 488 750 
Q 750 597 1062 519 
Q 1375 441 1716 441 
Q 2309 441 2620 675 
Q 2931 909 2931 1356 
Q 2931 1769 2642 2001 
Q 2353 2234 1838 2234 
L 1294 2234 
L 1294 2753 
L 1863 2753 
Q 2328 2753 2575 2939 
Q 2822 3125 2822 3475 
Q 2822 3834 2567 4026 
Q 2313 4219 1838 4219 
Q 1578 4219 1281 4162 
Q 984 4106 628 3988 
L 628 4550 
Q 988 4650 1302 4700 
Q 1616 4750 1894 4750 
Q 2613 4750 3031 4423 
Q 3450 4097 3450 3541 
Q 3450 3153 3228 2886 
Q 3006 2619 2597 2516 
z
" id="DejaVuSans-33" transform="scale(0.015625)"/>
       </defs>
       <use transform="translate(0 0.765625)" xlink:href="#DejaVuSans-31"/>
       <use transform="translate(63.623047 0.765625)" xlink:href="#DejaVuSans-30"/>
       <use transform="translate(128.203125 39.046875)scale(0.7)" xlink:href="#DejaVuSans-33"/>
      </g>
     </g>
    </g>
    <g id="ytick_5">
     <g id="line2d_10">
      <defs>
       <path d="M 0 0 
L -2 0 
" id="m911d582159" style="stroke:#000000;stroke-width:0.6;"/>
      </defs>
      <g>
       <use style="stroke:#000000;stroke-width:0.6;" x="126" xlink:href="#m911d582159" y="881.735739"/>
      </g>
     </g>
    </g>
    <g id="ytick_6">
     <g id="line2d_11">
      <g>
       <use style="stroke:#000000;stroke-width:0.6;" x="126" xlink:href="#m911d582159" y="868.883903"/>
      </g>
     </g>
    </g>
    <g id="ytick_7">
     <g id="line2d_12">
      <g>
       <use style="stroke:#000000;stroke-width:0.6;" x="126" xlink:href="#m911d582159" y="857.54778"/>
      </g>
     </g>
    </g>
    <g id="ytick_8">
     <g id="line2d_13">
      <g>
       <use style="stroke:#000000;stroke-width:0.6;" x="126" xlink:href="#m911d582159" y="780.694767"/>
      </g>
     </g>
    </g>
    <g id="ytick_9">
     <g id="line2d_14">
      <g>
       <use style="stroke:#000000;stroke-width:0.6;" x="126" xlink:href="#m911d582159" y="741.670452"/>
      </g>
     </g>
    </g>
    <g id="ytick_10">
     <g id="line2d_15">
      <g>
       <use style="stroke:#000000;stroke-width:0.6;" x="126" xlink:href="#m911d582159" y="713.982261"/>
      </g>
     </g>
    </g>
    <g id="ytick_11">
     <g id="line2d_16">
      <g>
       <use style="stroke:#000000;stroke-width:0.6;" x="126" xlink:href="#m911d582159" y="692.505631"/>
      </g>
     </g>
    </g>
    <g id="ytick_12">
     <g id="line2d_17">
      <g>
       <use style="stroke:#000000;stroke-width:0.6;" x="126" xlink:href="#m911d582159" y="674.957946"/>
      </g>
     </g>
    </g>
    <g id="ytick_13">
     <g id="line2d_18">
      <g>
       <use style="stroke:#000000;stroke-width:0.6;" x="126" xlink:href="#m911d582159" y="660.121591"/>
      </g>
     </g>
    </g>
    <g id="ytick_14">
     <g id="line2d_19">
      <g>
       <use style="stroke:#000000;stroke-width:0.6;" x="126" xlink:href="#m911d582159" y="647.269755"/>
      </g>
     </g>
    </g>
    <g id="ytick_15">
     <g id="line2d_20">
      <g>
       <use style="stroke:#000000;stroke-width:0.6;" x="126" xlink:href="#m911d582159" y="635.933632"/>
      </g>
     </g>
    </g>
    <g id="ytick_16">
     <g id="line2d_21">
      <g>
       <use style="stroke:#000000;stroke-width:0.6;" x="126" xlink:href="#m911d582159" y="559.080619"/>
      </g>
     </g>
    </g>
    <g id="ytick_17">
     <g id="line2d_22">
      <g>
       <use style="stroke:#000000;stroke-width:0.6;" x="126" xlink:href="#m911d582159" y="520.056305"/>
      </g>
     </g>
    </g>
    <g id="ytick_18">
     <g id="line2d_23">
      <g>
       <use style="stroke:#000000;stroke-width:0.6;" x="126" xlink:href="#m911d582159" y="492.368113"/>
      </g>
     </g>
    </g>
    <g id="ytick_19">
     <g id="line2d_24">
      <g>
       <use style="stroke:#000000;stroke-width:0.6;" x="126" xlink:href="#m911d582159" y="470.891483"/>
      </g>
     </g>
    </g>
    <g id="ytick_20">
     <g id="line2d_25">
      <g>
       <use style="stroke:#000000;stroke-width:0.6;" x="126" xlink:href="#m911d582159" y="453.343799"/>
      </g>
     </g>
    </g>
    <g id="ytick_21">
     <g id="line2d_26">
      <g>
       <use style="stroke:#000000;stroke-width:0.6;" x="126" xlink:href="#m911d582159" y="438.507443"/>
      </g>
     </g>
    </g>
    <g id="ytick_22">
     <g id="line2d_27">
      <g>
       <use style="stroke:#000000;stroke-width:0.6;" x="126" xlink:href="#m911d582159" y="425.655607"/>
      </g>
     </g>
    </g>
    <g id="ytick_23">
     <g id="line2d_28">
      <g>
       <use style="stroke:#000000;stroke-width:0.6;" x="126" xlink:href="#m911d582159" y="414.319484"/>
      </g>
     </g>
    </g>
    <g id="ytick_24">
     <g id="line2d_29">
      <g>
       <use style="stroke:#000000;stroke-width:0.6;" x="126" xlink:href="#m911d582159" y="337.466471"/>
      </g>
     </g>
    </g>
    <g id="ytick_25">
     <g id="line2d_30">
      <g>
       <use style="stroke:#000000;stroke-width:0.6;" x="126" xlink:href="#m911d582159" y="298.442157"/>
      </g>
     </g>
    </g>
    <g id="ytick_26">
     <g id="line2d_31">
      <g>
       <use style="stroke:#000000;stroke-width:0.6;" x="126" xlink:href="#m911d582159" y="270.753965"/>
      </g>
     </g>
    </g>
    <g id="ytick_27">
     <g id="line2d_32">
      <g>
       <use style="stroke:#000000;stroke-width:0.6;" x="126" xlink:href="#m911d582159" y="249.277335"/>
      </g>
     </g>
    </g>
    <g id="ytick_28">
     <g id="line2d_33">
      <g>
       <use style="stroke:#000000;stroke-width:0.6;" x="126" xlink:href="#m911d582159" y="231.729651"/>
      </g>
     </g>
    </g>
    <g id="ytick_29">
     <g id="line2d_34">
      <g>
       <use style="stroke:#000000;stroke-width:0.6;" x="126" xlink:href="#m911d582159" y="216.893295"/>
      </g>
     </g>
    </g>
    <g id="ytick_30">
     <g id="line2d_35">
      <g>
       <use style="stroke:#000000;stroke-width:0.6;" x="126" xlink:href="#m911d582159" y="204.041459"/>
      </g>
     </g>
    </g>
    <g id="ytick_31">
     <g id="line2d_36">
      <g>
       <use style="stroke:#000000;stroke-width:0.6;" x="126" xlink:href="#m911d582159" y="192.705337"/>
      </g>
     </g>
    </g>
    <g id="text_11">
     <!-- Events -->
     <g transform="translate(55.960938 552.266719)rotate(-90)scale(0.3 -0.3)">
      <defs>
       <path d="M 628 4666 
L 3578 4666 
L 3578 4134 
L 1259 4134 
L 1259 2753 
L 3481 2753 
L 3481 2222 
L 1259 2222 
L 1259 531 
L 3634 531 
L 3634 0 
L 628 0 
L 628 4666 
z
" id="DejaVuSans-45" transform="scale(0.015625)"/>
       <path d="M 191 3500 
L 800 3500 
L 1894 563 
L 2988 3500 
L 3597 3500 
L 2284 0 
L 1503 0 
L 191 3500 
z
" id="DejaVuSans-76" transform="scale(0.015625)"/>
       <path d="M 3513 2113 
L 3513 0 
L 2938 0 
L 2938 2094 
Q 2938 2591 2744 2837 
Q 2550 3084 2163 3084 
Q 1697 3084 1428 2787 
Q 1159 2491 1159 1978 
L 1159 0 
L 581 0 
L 581 3500 
L 1159 3500 
L 1159 2956 
Q 1366 3272 1645 3428 
Q 1925 3584 2291 3584 
Q 2894 3584 3203 3211 
Q 3513 2838 3513 2113 
z
" id="DejaVuSans-6e" transform="scale(0.015625)"/>
       <path d="M 2834 3397 
L 2834 2853 
Q 2591 2978 2328 3040 
Q 2066 3103 1784 3103 
Q 1356 3103 1142 2972 
Q 928 2841 928 2578 
Q 928 2378 1081 2264 
Q 1234 2150 1697 2047 
L 1894 2003 
Q 2506 1872 2764 1633 
Q 3022 1394 3022 966 
Q 3022 478 2636 193 
Q 2250 -91 1575 -91 
Q 1294 -91 989 -36 
Q 684 19 347 128 
L 347 722 
Q 666 556 975 473 
Q 1284 391 1588 391 
Q 1994 391 2212 530 
Q 2431 669 2431 922 
Q 2431 1156 2273 1281 
Q 2116 1406 1581 1522 
L 1381 1569 
Q 847 1681 609 1914 
Q 372 2147 372 2553 
Q 372 3047 722 3315 
Q 1072 3584 1716 3584 
Q 2034 3584 2315 3537 
Q 2597 3491 2834 3397 
z
" id="DejaVuSans-73" transform="scale(0.015625)"/>
      </defs>
      <use xlink:href="#DejaVuSans-45"/>
      <use x="63.183594" xlink:href="#DejaVuSans-76"/>
      <use x="122.363281" xlink:href="#DejaVuSans-65"/>
      <use x="183.886719" xlink:href="#DejaVuSans-6e"/>
      <use x="247.265625" xlink:href="#DejaVuSans-74"/>
      <use x="286.474609" xlink:href="#DejaVuSans-73"/>
     </g>
    </g>
   </g>
   <g id="line2d_37">
    <path clip-path="url(#p95549a3cfa)" d="M 161.509091 847.407273 
L 161.509091 741.670452 
L 172.269421 741.670452 
L 172.269421 692.505631 
L 179.442975 692.505631 
L 179.442975 1009 
M 186.616529 1009 
L 186.616529 847.407273 
L 208.13719 847.407273 
L 208.13719 713.982261 
L 215.310744 713.982261 
L 215.310744 847.407273 
L 222.484298 847.407273 
L 222.484298 780.694767 
L 229.657851 780.694767 
L 229.657851 847.407273 
L 236.831405 847.407273 
L 236.831405 741.670452 
L 244.004959 741.670452 
L 244.004959 780.694767 
L 251.178512 780.694767 
L 251.178512 847.407273 
L 258.352066 847.407273 
L 258.352066 780.694767 
L 265.52562 780.694767 
L 265.52562 713.982261 
L 272.699174 713.982261 
L 272.699174 780.694767 
L 279.872727 780.694767 
L 279.872727 660.121591 
L 287.046281 660.121591 
L 287.046281 616.61992 
L 294.219835 616.61992 
L 294.219835 647.269755 
L 301.393388 647.269755 
L 301.393388 574.722384 
L 308.566942 574.722384 
L 308.566942 549.907414 
L 315.740496 549.907414 
L 315.740496 530.196812 
L 322.91405 530.196812 
L 322.91405 487.672265 
L 330.087603 487.672265 
L 330.087603 499.871584 
L 337.261157 499.871584 
L 337.261157 487.672265 
L 344.434711 487.672265 
L 344.434711 494.804846 
L 351.608264 494.804846 
L 351.608264 467.116654 
L 358.781818 467.116654 
L 358.781818 442.723261 
L 365.955372 442.723261 
L 365.955372 431.867169 
L 373.128926 431.867169 
L 373.128926 402.273057 
L 380.302479 402.273057 
L 380.302479 371.794937 
L 387.476033 371.794937 
L 387.476033 366.446572 
L 394.649587 366.446572 
L 394.649587 356.566541 
L 401.82314 356.566541 
L 401.82314 336.986441 
L 408.996694 336.986441 
L 408.996694 296.851281 
L 416.170248 296.851281 
L 416.170248 279.303596 
L 423.343802 279.303596 
L 423.343802 264.9191 
L 430.517355 264.9191 
L 430.517355 231.090141 
L 437.690909 231.090141 
L 437.690909 207.470425 
L 444.864463 207.470425 
L 444.864463 181.226733 
L 452.038017 181.226733 
L 452.038017 168.280027 
L 459.21157 168.280027 
L 459.21157 155.552727 
L 466.385124 155.552727 
L 466.385124 170.038372 
L 473.558678 170.038372 
L 473.558678 191.114461 
L 480.732231 191.114461 
L 480.732231 234.331047 
L 487.905785 234.331047 
L 487.905785 305.082431 
L 495.079339 305.082431 
L 495.079339 419.820742 
L 502.252893 419.820742 
L 502.252893 545.629119 
L 509.426446 545.629119 
L 509.426446 713.982261 
L 516.6 713.982261 
L 516.6 780.694767 
L 523.773554 780.694767 
L 523.773554 1009 
L 523.773554 1009 
" style="fill:none;stroke:#00bfbf;stroke-linecap:square;stroke-width:4;"/>
   </g>
   <g id="line2d_38">
    <path clip-path="url(#p95549a3cfa)" d="M 161.509091 741.670452 
L 161.509091 847.407273 
L 165.095868 847.407273 
L 165.095868 780.694767 
L 172.269421 780.694767 
L 172.269421 741.670452 
L 179.442975 741.670452 
L 179.442975 847.407273 
L 186.616529 847.407273 
L 186.616529 741.670452 
L 193.790083 741.670452 
L 193.790083 713.982261 
L 200.963636 713.982261 
L 200.963636 847.407273 
L 208.13719 847.407273 
L 208.13719 741.670452 
L 229.657851 741.670452 
L 229.657851 713.982261 
L 236.831405 713.982261 
L 236.831405 1009 
M 244.004959 1009 
L 244.004959 847.407273 
L 251.178512 847.407273 
L 251.178512 692.505631 
L 258.352066 692.505631 
L 258.352066 1009 
M 265.52562 1009 
L 265.52562 847.407273 
L 272.699174 847.407273 
L 272.699174 713.982261 
L 279.872727 713.982261 
L 279.872727 741.670452 
L 287.046281 741.670452 
L 287.046281 847.407273 
L 294.219835 847.407273 
L 294.219835 692.505631 
L 308.566942 692.505631 
L 308.566942 660.121591 
L 315.740496 660.121591 
L 315.740496 600.541666 
L 322.91405 600.541666 
L 322.91405 635.933632 
L 330.087603 635.933632 
L 330.087603 600.541666 
L 337.261157 600.541666 
L 337.261157 549.907414 
L 344.434711 549.907414 
L 344.434711 520.056305 
L 351.608264 520.056305 
L 351.608264 523.319187 
L 358.781818 523.319187 
L 358.781818 481.03199 
L 365.955372 481.03199 
L 365.955372 458.280563 
L 373.128926 458.280563 
L 373.128926 442.723261 
L 380.302479 442.723261 
L 380.302479 448.64795 
L 387.476033 448.64795 
L 387.476033 423.279047 
L 394.649587 423.279047 
L 394.649587 416.482402 
L 401.82314 416.482402 
L 401.82314 389.068025 
L 408.996694 389.068025 
L 408.996694 360.764843 
L 416.170248 360.764843 
L 416.170248 332.313397 
L 423.343802 332.313397 
L 423.343802 312.215012 
L 430.517355 312.215012 
L 430.517355 283.05739 
L 437.690909 283.05739 
L 437.690909 261.144271 
L 444.864463 261.144271 
L 444.864463 229.040604 
L 452.038017 229.040604 
L 452.038017 199.460257 
L 459.21157 199.460257 
L 459.21157 186.594083 
L 466.385124 186.594083 
L 466.385124 182.950584 
L 473.558678 182.950584 
L 473.558678 190.172406 
L 480.732231 190.172406 
L 480.732231 205.496083 
L 487.905785 205.496083 
L 487.905785 211.026084 
L 495.079339 211.026084 
L 495.079339 225.21779 
L 502.252893 225.21779 
L 502.252893 228.573768 
L 509.426446 228.573768 
L 509.426446 230.296684 
L 516.6 230.296684 
L 516.6 280.627494 
L 523.773554 280.627494 
L 523.773554 741.670452 
L 538.120661 741.670452 
L 538.120661 780.694767 
L 545.294215 780.694767 
L 545.294215 741.670452 
L 552.467769 741.670452 
L 552.467769 780.694767 
L 559.641322 780.694767 
L 559.641322 1009 
M 573.98843 1009 
L 573.98843 847.407273 
L 581.161983 847.407273 
L 581.161983 780.694767 
L 588.335537 780.694767 
L 588.335537 847.407273 
L 595.509091 847.407273 
L 595.509091 1009 
M 652.897521 1009 
L 652.897521 847.407273 
L 660.071074 847.407273 
L 660.071074 1009 
M 774.847934 1009 
L 774.847934 847.407273 
L 782.021488 847.407273 
L 782.021488 1009 
M 839.409917 1009 
L 839.409917 847.407273 
L 853.757025 847.407273 
L 853.757025 1009 
L 853.757025 1009 
" style="fill:none;stroke:#bf00bf;stroke-linecap:square;stroke-width:4;"/>
   </g>
   <g id="line2d_39">
    <path clip-path="url(#p95549a3cfa)" d="M 161.509091 593.409085 
L 161.509091 470.891483 
L 165.095868 470.891483 
L 165.095868 741.670452 
L 172.269421 741.670452 
L 172.269421 692.505631 
L 179.442975 692.505631 
L 179.442975 741.670452 
L 186.616529 741.670452 
L 186.616529 713.982261 
L 193.790083 713.982261 
L 193.790083 780.694767 
L 200.963636 780.694767 
L 200.963636 1009 
M 208.13719 1009 
L 208.13719 847.407273 
L 215.310744 847.407273 
L 215.310744 741.670452 
L 222.484298 741.670452 
L 222.484298 713.982261 
L 229.657851 713.982261 
L 229.657851 741.670452 
L 251.178512 741.670452 
L 251.178512 647.269755 
L 258.352066 647.269755 
L 258.352066 780.694767 
L 265.52562 780.694767 
L 265.52562 674.957946 
L 272.699174 674.957946 
L 272.699174 847.407273 
L 279.872727 847.407273 
L 279.872727 713.982261 
L 287.046281 713.982261 
L 287.046281 625.793125 
L 308.566942 625.793125 
L 308.566942 692.505631 
L 315.740496 692.505631 
L 315.740496 660.121591 
L 322.91405 660.121591 
L 322.91405 593.409085 
L 330.087603 593.409085 
L 330.087603 600.541666 
L 337.261157 600.541666 
L 337.261157 616.61992 
L 351.608264 616.61992 
L 351.608264 569.221126 
L 358.781818 569.221126 
L 358.781818 600.541666 
L 365.955372 600.541666 
L 365.955372 549.907414 
L 373.128926 549.907414 
L 373.128926 569.221126 
L 380.302479 569.221126 
L 380.302479 526.696579 
L 387.476033 526.696579 
L 387.476033 513.844743 
L 394.649587 513.844743 
L 394.649587 520.056305 
L 401.82314 520.056305 
L 401.82314 476.846731 
L 408.996694 476.846731 
L 408.996694 456.606681 
L 416.170248 456.606681 
L 416.170248 450.187916 
L 423.343802 450.187916 
L 423.343802 431.867169 
L 430.517355 431.867169 
L 430.517355 407.110548 
L 437.690909 407.110548 
L 437.690909 380.419731 
L 444.864463 380.419731 
L 444.864463 337.948907 
L 452.038017 337.948907 
L 452.038017 311.477493 
L 459.21157 311.477493 
L 459.21157 271.236401 
L 466.385124 271.236401 
L 466.385124 233.510532 
L 473.558678 233.510532 
L 473.558678 229.19672 
L 480.732231 229.19672 
L 480.732231 222.702384 
L 487.905785 222.702384 
L 487.905785 229.823731 
L 495.079339 229.823731 
L 495.079339 240.104131 
L 502.252893 240.104131 
L 502.252893 257.302465 
L 509.426446 257.302465 
L 509.426446 256.676813 
L 516.6 256.676813 
L 516.6 247.749592 
L 523.773554 247.749592 
L 523.773554 247.182883 
L 530.947107 247.182883 
L 530.947107 242.585744 
L 538.120661 242.585744 
L 538.120661 265.37309 
L 545.294215 265.37309 
L 545.294215 287.248726 
L 552.467769 287.248726 
L 552.467769 310.019195 
L 559.641322 310.019195 
L 559.641322 326.989692 
L 566.814876 326.989692 
L 566.814876 357.155202 
L 573.98843 357.155202 
L 573.98843 361.99878 
L 588.335537 361.99878 
L 588.335537 390.727477 
L 595.509091 390.727477 
L 595.509091 392.416043 
L 602.682645 392.416043 
L 602.682645 395.884736 
L 609.856198 395.884736 
L 609.856198 430.592371 
L 617.029752 430.592371 
L 617.029752 426.866262 
L 624.203306 426.866262 
L 624.203306 416.482402 
L 631.37686 416.482402 
L 631.37686 430.592371 
L 638.550413 430.592371 
L 638.550413 438.507443 
L 645.723967 438.507443 
L 645.723967 454.961413 
L 652.897521 454.961413 
L 652.897521 463.484306 
L 660.071074 463.484306 
L 660.071074 472.835909 
L 667.244628 472.835909 
L 667.244628 494.804846 
L 674.418182 494.804846 
L 674.418182 453.343799 
L 681.591736 453.343799 
L 681.591736 489.991553 
L 688.765289 489.991553 
L 688.765289 487.672265 
L 695.938843 487.672265 
L 695.938843 508.009878 
L 703.112397 508.009878 
L 703.112397 505.219949 
L 710.28595 505.219949 
L 710.28595 483.194908 
L 717.459504 483.194908 
L 717.459504 545.629119 
L 724.633058 545.629119 
L 724.633058 530.196812 
L 731.806612 530.196812 
L 731.806612 580.557249 
L 738.980165 580.557249 
L 738.980165 608.245441 
L 746.153719 608.245441 
L 746.153719 569.221126 
L 753.327273 569.221126 
L 753.327273 574.722384 
L 760.500826 574.722384 
L 760.500826 635.933632 
L 767.67438 635.933632 
L 767.67438 713.982261 
L 774.847934 713.982261 
L 774.847934 741.670452 
L 789.195041 741.670452 
L 789.195041 1009 
M 871.690909 1009 
L 871.690909 780.694767 
L 871.690909 780.694767 
" style="fill:none;stroke:#bfbf00;stroke-linecap:square;stroke-width:4;"/>
   </g>
   <g id="patch_3">
    <path d="M 126 882 
L 126 120.96 
" style="fill:none;stroke:#000000;stroke-linecap:square;stroke-linejoin:miter;stroke-width:0.8;"/>
   </g>
   <g id="patch_4">
    <path d="M 907.2 882 
L 907.2 120.96 
" style="fill:none;stroke:#000000;stroke-linecap:square;stroke-linejoin:miter;stroke-width:0.8;"/>
   </g>
   <g id="patch_5">
    <path d="M 126 882 
L 907.2 882 
" style="fill:none;stroke:#000000;stroke-linecap:square;stroke-linejoin:miter;stroke-width:0.8;"/>
   </g>
   <g id="patch_6">
    <path d="M 126 120.96 
L 907.2 120.96 
" style="fill:none;stroke:#000000;stroke-linecap:square;stroke-linejoin:miter;stroke-width:0.8;"/>
   </g>
   <g id="legend_1">
    <g id="patch_7">
     <path d="M 544.8 225.069375 
L 893.2 225.069375 
Q 897.2 225.069375 897.2 221.069375 
L 897.2 134.96 
Q 897.2 130.96 893.2 130.96 
L 544.8 130.96 
Q 540.8 130.96 540.8 134.96 
L 540.8 221.069375 
Q 540.8 225.069375 544.8 225.069375 
z
" style="fill:#ffffff;opacity:0.8;stroke:#cccccc;stroke-linejoin:miter;"/>
    </g>
    <g id="line2d_40">
     <path d="M 548.8 147.156875 
L 588.8 147.156875 
" style="fill:none;stroke:#00bfbf;stroke-linecap:square;stroke-width:4;"/>
    </g>
    <g id="line2d_41"/>
    <g id="text_12">
     <!-- $e^{+}$ DVAE -->
     <g transform="translate(604.8 154.156875)scale(0.2 -0.2)">
      <defs>
       <path d="M 3078 2063 
Q 3088 2113 3092 2166 
Q 3097 2219 3097 2272 
Q 3097 2653 2873 2875 
Q 2650 3097 2266 3097 
Q 1838 3097 1509 2826 
Q 1181 2556 1013 2059 
L 3078 2063 
z
M 3578 1613 
L 903 1613 
Q 884 1494 878 1425 
Q 872 1356 872 1306 
Q 872 872 1139 634 
Q 1406 397 1894 397 
Q 2269 397 2603 481 
Q 2938 566 3225 728 
L 3116 159 
Q 2806 34 2476 -28 
Q 2147 -91 1806 -91 
Q 1078 -91 686 257 
Q 294 606 294 1247 
Q 294 1794 489 2264 
Q 684 2734 1063 3103 
Q 1306 3334 1642 3459 
Q 1978 3584 2356 3584 
Q 2950 3584 3301 3228 
Q 3653 2872 3653 2272 
Q 3653 2128 3634 1964 
Q 3616 1800 3578 1613 
z
" id="DejaVuSans-Oblique-65" transform="scale(0.015625)"/>
       <path d="M 2944 4013 
L 2944 2272 
L 4684 2272 
L 4684 1741 
L 2944 1741 
L 2944 0 
L 2419 0 
L 2419 1741 
L 678 1741 
L 678 2272 
L 2419 2272 
L 2419 4013 
L 2944 4013 
z
" id="DejaVuSans-2b" transform="scale(0.015625)"/>
       <path d="M 1259 4147 
L 1259 519 
L 2022 519 
Q 2988 519 3436 956 
Q 3884 1394 3884 2338 
Q 3884 3275 3436 3711 
Q 2988 4147 2022 4147 
L 1259 4147 
z
M 628 4666 
L 1925 4666 
Q 3281 4666 3915 4102 
Q 4550 3538 4550 2338 
Q 4550 1131 3912 565 
Q 3275 0 1925 0 
L 628 0 
L 628 4666 
z
" id="DejaVuSans-44" transform="scale(0.015625)"/>
       <path d="M 1831 0 
L 50 4666 
L 709 4666 
L 2188 738 
L 3669 4666 
L 4325 4666 
L 2547 0 
L 1831 0 
z
" id="DejaVuSans-56" transform="scale(0.015625)"/>
       <path d="M 2188 4044 
L 1331 1722 
L 3047 1722 
L 2188 4044 
z
M 1831 4666 
L 2547 4666 
L 4325 0 
L 3669 0 
L 3244 1197 
L 1141 1197 
L 716 0 
L 50 0 
L 1831 4666 
z
" id="DejaVuSans-41" transform="scale(0.015625)"/>
      </defs>
      <use transform="translate(0 0.826562)" xlink:href="#DejaVuSans-Oblique-65"/>
      <use transform="translate(66.173333 39.107812)scale(0.7)" xlink:href="#DejaVuSans-2b"/>
      <use transform="translate(127.560052 0.826562)" xlink:href="#DejaVuSans-20"/>
      <use transform="translate(159.347161 0.826562)" xlink:href="#DejaVuSans-44"/>
      <use transform="translate(236.349115 0.826562)" xlink:href="#DejaVuSans-56"/>
      <use transform="translate(304.757318 0.826562)" xlink:href="#DejaVuSans-41"/>
      <use transform="translate(373.165521 0.826562)" xlink:href="#DejaVuSans-45"/>
     </g>
    </g>
    <g id="line2d_42">
     <path d="M 548.8 176.513125 
L 588.8 176.513125 
" style="fill:none;stroke:#bf00bf;stroke-linecap:square;stroke-width:4;"/>
    </g>
    <g id="line2d_43"/>
    <g id="text_13">
     <!-- $\gamma$   DVAE -->
     <g transform="translate(604.8 183.513125)scale(0.2 -0.2)">
      <defs>
       <path d="M 1491 2950 
L 1838 788 
L 3456 3500 
L 4066 3500 
L 1972 0 
L 1713 -1331 
L 1138 -1331 
L 1397 0 
L 988 2613 
Q 925 3006 628 3006 
L 475 3006 
L 569 3500 
L 788 3500 
Q 1403 3500 1491 2950 
z
" id="DejaVuSans-Oblique-3b3" transform="scale(0.015625)"/>
      </defs>
      <use transform="translate(0 0.09375)" xlink:href="#DejaVuSans-Oblique-3b3"/>
      <use transform="translate(59.179688 0.09375)" xlink:href="#DejaVuSans-20"/>
      <use transform="translate(90.966797 0.09375)" xlink:href="#DejaVuSans-20"/>
      <use transform="translate(122.753906 0.09375)" xlink:href="#DejaVuSans-20"/>
      <use transform="translate(154.541016 0.09375)" xlink:href="#DejaVuSans-44"/>
      <use transform="translate(231.542969 0.09375)" xlink:href="#DejaVuSans-56"/>
      <use transform="translate(299.951172 0.09375)" xlink:href="#DejaVuSans-41"/>
      <use transform="translate(368.359375 0.09375)" xlink:href="#DejaVuSans-45"/>
     </g>
    </g>
    <g id="line2d_44">
     <path d="M 548.8 205.91 
L 588.8 205.91 
" style="fill:none;stroke:#bfbf00;stroke-linecap:square;stroke-width:4;"/>
    </g>
    <g id="line2d_45"/>
    <g id="text_14">
     <!-- $\pi^{+}$ DVAE -->
     <g transform="translate(604.8 212.91)scale(0.2 -0.2)">
      <defs>
       <path d="M 584 3500 
L 3938 3500 
L 3825 2925 
L 3384 2925 
L 2966 775 
Q 2922 550 2981 450 
Q 3038 353 3209 353 
Q 3256 353 3325 363 
Q 3397 369 3419 372 
L 3338 -44 
Q 3222 -84 3103 -103 
Q 2981 -122 2866 -122 
Q 2491 -122 2388 81 
Q 2284 288 2391 838 
L 2797 2925 
L 1506 2925 
L 938 0 
L 350 0 
L 919 2925 
L 472 2925 
L 584 3500 
z
" id="DejaVuSans-Oblique-3c0" transform="scale(0.015625)"/>
      </defs>
      <use transform="translate(0 0.826562)" xlink:href="#DejaVuSans-Oblique-3c0"/>
      <use transform="translate(64.671224 39.107812)scale(0.7)" xlink:href="#DejaVuSans-2b"/>
      <use transform="translate(126.057943 0.826562)" xlink:href="#DejaVuSans-20"/>
      <use transform="translate(157.845052 0.826562)" xlink:href="#DejaVuSans-44"/>
      <use transform="translate(234.847005 0.826562)" xlink:href="#DejaVuSans-56"/>
      <use transform="translate(303.255208 0.826562)" xlink:href="#DejaVuSans-41"/>
      <use transform="translate(371.663411 0.826562)" xlink:href="#DejaVuSans-45"/>
     </g>
    </g>
    <g id="patch_8">
     <path d="M 732.2 154.156875 
L 772.2 154.156875 
L 772.2 140.156875 
L 732.2 140.156875 
z
" style="fill:#00bfbf;opacity:0.4;stroke:#00bfbf;stroke-linejoin:miter;"/>
    </g>
    <g id="text_15">
     <!-- $e^{+}$ GEANT -->
     <g transform="translate(788.2 154.156875)scale(0.2 -0.2)">
      <defs>
       <path d="M 3809 666 
L 3809 1919 
L 2778 1919 
L 2778 2438 
L 4434 2438 
L 4434 434 
Q 4069 175 3628 42 
Q 3188 -91 2688 -91 
Q 1594 -91 976 548 
Q 359 1188 359 2328 
Q 359 3472 976 4111 
Q 1594 4750 2688 4750 
Q 3144 4750 3555 4637 
Q 3966 4525 4313 4306 
L 4313 3634 
Q 3963 3931 3569 4081 
Q 3175 4231 2741 4231 
Q 1884 4231 1454 3753 
Q 1025 3275 1025 2328 
Q 1025 1384 1454 906 
Q 1884 428 2741 428 
Q 3075 428 3337 486 
Q 3600 544 3809 666 
z
" id="DejaVuSans-47" transform="scale(0.015625)"/>
       <path d="M 628 4666 
L 1478 4666 
L 3547 763 
L 3547 4666 
L 4159 4666 
L 4159 0 
L 3309 0 
L 1241 3903 
L 1241 0 
L 628 0 
L 628 4666 
z
" id="DejaVuSans-4e" transform="scale(0.015625)"/>
       <path d="M -19 4666 
L 3928 4666 
L 3928 4134 
L 2272 4134 
L 2272 0 
L 1638 0 
L 1638 4134 
L -19 4134 
L -19 4666 
z
" id="DejaVuSans-54" transform="scale(0.015625)"/>
      </defs>
      <use transform="translate(0 0.826562)" xlink:href="#DejaVuSans-Oblique-65"/>
      <use transform="translate(66.173333 39.107812)scale(0.7)" xlink:href="#DejaVuSans-2b"/>
      <use transform="translate(127.560052 0.826562)" xlink:href="#DejaVuSans-20"/>
      <use transform="translate(159.347161 0.826562)" xlink:href="#DejaVuSans-47"/>
      <use transform="translate(236.837396 0.826562)" xlink:href="#DejaVuSans-45"/>
      <use transform="translate(300.02099 0.826562)" xlink:href="#DejaVuSans-41"/>
      <use transform="translate(368.429193 0.826562)" xlink:href="#DejaVuSans-4e"/>
      <use transform="translate(443.23388 0.826562)" xlink:href="#DejaVuSans-54"/>
     </g>
    </g>
    <g id="patch_9">
     <path d="M 732.2 183.513125 
L 772.2 183.513125 
L 772.2 169.513125 
L 732.2 169.513125 
z
" style="fill:#bf00bf;opacity:0.4;stroke:#bf00bf;stroke-linejoin:miter;"/>
    </g>
    <g id="text_16">
     <!-- $\gamma$   GEANT -->
     <g transform="translate(788.2 183.513125)scale(0.2 -0.2)">
      <use transform="translate(0 0.78125)" xlink:href="#DejaVuSans-Oblique-3b3"/>
      <use transform="translate(59.179688 0.78125)" xlink:href="#DejaVuSans-20"/>
      <use transform="translate(90.966797 0.78125)" xlink:href="#DejaVuSans-20"/>
      <use transform="translate(122.753906 0.78125)" xlink:href="#DejaVuSans-20"/>
      <use transform="translate(154.541016 0.78125)" xlink:href="#DejaVuSans-47"/>
      <use transform="translate(232.03125 0.78125)" xlink:href="#DejaVuSans-45"/>
      <use transform="translate(295.214844 0.78125)" xlink:href="#DejaVuSans-41"/>
      <use transform="translate(363.623047 0.78125)" xlink:href="#DejaVuSans-4e"/>
      <use transform="translate(438.427734 0.78125)" xlink:href="#DejaVuSans-54"/>
     </g>
    </g>
    <g id="patch_10">
     <path d="M 732.2 212.91 
L 772.2 212.91 
L 772.2 198.91 
L 732.2 198.91 
z
" style="fill:#bfbf00;opacity:0.4;stroke:#bfbf00;stroke-linejoin:miter;"/>
    </g>
    <g id="text_17">
     <!-- $\pi^{+}$ GEANT -->
     <g transform="translate(788.2 212.91)scale(0.2 -0.2)">
      <use transform="translate(0 0.826562)" xlink:href="#DejaVuSans-Oblique-3c0"/>
      <use transform="translate(64.671224 39.107812)scale(0.7)" xlink:href="#DejaVuSans-2b"/>
      <use transform="translate(126.057943 0.826562)" xlink:href="#DejaVuSans-20"/>
      <use transform="translate(157.845052 0.826562)" xlink:href="#DejaVuSans-47"/>
      <use transform="translate(235.335286 0.826562)" xlink:href="#DejaVuSans-45"/>
      <use transform="translate(298.51888 0.826562)" xlink:href="#DejaVuSans-41"/>
      <use transform="translate(366.927083 0.826562)" xlink:href="#DejaVuSans-4e"/>
      <use transform="translate(441.731771 0.826562)" xlink:href="#DejaVuSans-54"/>
     </g>
    </g>
   </g>
  </g>
 </g>
 <defs>
  <clipPath id="p95549a3cfa">
   <rect height="761.04" width="781.2" x="126" y="120.96"/>
  </clipPath>
 </defs>
</svg>
