<?xml version="1.0" encoding="utf-8" standalone="no"?>
<!DOCTYPE svg PUBLIC "-//W3C//DTD SVG 1.1//EN"
  "http://www.w3.org/Graphics/SVG/1.1/DTD/svg11.dtd">
<svg height="1008pt" version="1.1" viewBox="0 0 1008 1008" width="1008pt" xmlns="http://www.w3.org/2000/svg" xmlns:xlink="http://www.w3.org/1999/xlink">
 <metadata>
  <rdf:RDF xmlns:cc="http://creativecommons.org/ns#" xmlns:dc="http://purl.org/dc/elements/1.1/" xmlns:rdf="http://www.w3.org/1999/02/22-rdf-syntax-ns#">
   <cc:Work>
    <dc:type rdf:resource="http://purl.org/dc/dcmitype/StillImage"/>
    <dc:date>2021-09-27T15:17:13.980437</dc:date>
    <dc:format>image/svg+xml</dc:format>
    <dc:creator>
     <cc:Agent>
      <dc:title>Matplotlib v3.4.2, https://matplotlib.org/</dc:title>
     </cc:Agent>
    </dc:creator>
   </cc:Work>
  </rdf:RDF>
 </metadata>
 <defs>
  <style type="text/css">*{stroke-linecap:butt;stroke-linejoin:round;}</style>
 </defs>
 <g id="figure_1">
  <g id="patch_1">
   <path d="M 0 1008 
L 1008 1008 
L 1008 0 
L 0 0 
z
" style="fill:none;"/>
  </g>
  <g id="axes_1">
   <g id="patch_2">
    <path d="M 126 882 
L 907.2 882 
L 907.2 120.96 
L 126 120.96 
z
" style="fill:#ffffff;"/>
   </g>
   <g id="PolyCollection_1">
    <path clip-path="url(#p881658f050)" d="M 161.509091 188741.835956 
L 161.509091 188741.835956 
L 161.509091 188741.835956 
L 161.509091 188741.835956 
L 165.095868 188741.835956 
L 165.095868 464.586185 
L 172.269421 464.586185 
L 172.269421 474.103933 
L 179.442975 474.103933 
L 179.442975 468.417946 
L 186.616529 468.417946 
L 186.616529 463.84096 
L 193.790083 463.84096 
L 193.790083 464.586185 
L 200.963636 464.586185 
L 200.963636 478.422481 
L 208.13719 478.422481 
L 208.13719 462.370623 
L 215.310744 462.370623 
L 215.310744 483.925791 
L 222.484298 483.925791 
L 222.484298 479.31431 
L 229.657851 479.31431 
L 229.657851 469.206372 
L 236.831405 469.206372 
L 236.831405 461.645272 
L 244.004959 461.645272 
L 244.004959 477.540294 
L 251.178512 477.540294 
L 251.178512 476.667542 
L 258.352066 476.667542 
L 258.352066 479.31431 
L 265.52562 479.31431 
L 265.52562 470.002491 
L 272.699174 470.002491 
L 272.699174 488.81357 
L 279.872727 488.81357 
L 279.872727 473.266987 
L 287.046281 473.266987 
L 287.046281 456.063506 
L 294.219835 456.063506 
L 294.219835 476.667542 
L 301.393388 476.667542 
L 301.393388 478.422481 
L 308.566942 478.422481 
L 308.566942 466.863584 
L 315.740496 466.863584 
L 315.740496 476.667542 
L 322.91405 476.667542 
L 322.91405 464.586185 
L 330.087603 464.586185 
L 330.087603 469.206372 
L 337.261157 469.206372 
L 337.261157 460.213629 
L 344.434711 460.213629 
L 344.434711 461.645272 
L 351.608264 461.645272 
L 351.608264 463.10248 
L 358.781818 463.10248 
L 358.781818 463.10248 
L 365.955372 463.10248 
L 365.955372 467.637064 
L 373.128926 467.637064 
L 373.128926 469.206372 
L 380.302479 469.206372 
L 380.302479 476.667542 
L 387.476033 476.667542 
L 387.476033 464.586185 
L 394.649587 464.586185 
L 394.649587 466.097367 
L 401.82314 466.097367 
L 401.82314 460.926311 
L 408.996694 460.926311 
L 408.996694 475.804026 
L 416.170248 475.804026 
L 416.170248 471.618415 
L 423.343802 471.618415 
L 423.343802 477.540294 
L 430.517355 477.540294 
L 430.517355 465.338278 
L 437.690909 465.338278 
L 437.690909 460.213629 
L 444.864463 460.213629 
L 444.864463 465.338278 
L 452.038017 465.338278 
L 452.038017 472.438538 
L 459.21157 472.438538 
L 459.21157 464.586185 
L 466.385124 464.586185 
L 466.385124 468.417946 
L 473.558678 468.417946 
L 473.558678 474.103933 
L 480.732231 474.103933 
L 480.732231 470.002491 
L 487.905785 470.002491 
L 487.905785 474.949552 
L 495.079339 474.949552 
L 495.079339 482.049812 
L 502.252893 482.049812 
L 502.252893 465.338278 
L 509.426446 465.338278 
L 509.426446 468.417946 
L 516.6 468.417946 
L 516.6 471.618415 
L 523.773554 471.618415 
L 523.773554 470.806453 
L 530.947107 470.806453 
L 530.947107 483.925791 
L 538.120661 483.925791 
L 538.120661 482.049812 
L 545.294215 482.049812 
L 545.294215 460.213629 
L 552.467769 460.213629 
L 552.467769 464.586185 
L 559.641322 464.586185 
L 559.641322 466.097367 
L 566.814876 466.097367 
L 566.814876 470.002491 
L 573.98843 470.002491 
L 573.98843 473.266987 
L 581.161983 473.266987 
L 581.161983 459.507118 
L 588.335537 459.507118 
L 588.335537 467.637064 
L 595.509091 467.637064 
L 595.509091 474.103933 
L 602.682645 474.103933 
L 602.682645 457.423562 
L 609.856198 457.423562 
L 609.856198 478.422481 
L 617.029752 478.422481 
L 617.029752 470.002491 
L 624.203306 470.002491 
L 624.203306 494.012877 
L 631.37686 494.012877 
L 631.37686 482.982411 
L 638.550413 482.982411 
L 638.550413 464.586185 
L 645.723967 464.586185 
L 645.723967 470.002491 
L 652.897521 470.002491 
L 652.897521 470.806453 
L 660.071074 470.806453 
L 660.071074 473.266987 
L 667.244628 473.266987 
L 667.244628 479.31431 
L 674.418182 479.31431 
L 674.418182 471.618415 
L 681.591736 471.618415 
L 681.591736 465.338278 
L 688.765289 465.338278 
L 688.765289 466.097367 
L 695.938843 466.097367 
L 695.938843 466.097367 
L 703.112397 466.097367 
L 703.112397 481.127751 
L 710.28595 481.127751 
L 710.28595 457.423562 
L 717.459504 457.423562 
L 717.459504 470.806453 
L 724.633058 470.806453 
L 724.633058 472.438538 
L 731.806612 472.438538 
L 731.806612 462.370623 
L 738.980165 462.370623 
L 738.980165 470.002491 
L 746.153719 470.002491 
L 746.153719 471.618415 
L 753.327273 471.618415 
L 753.327273 478.422481 
L 760.500826 478.422481 
L 760.500826 491.893238 
L 767.67438 491.893238 
L 767.67438 463.10248 
L 774.847934 463.10248 
L 774.847934 474.949552 
L 782.021488 474.949552 
L 782.021488 466.863584 
L 789.195041 466.863584 
L 789.195041 460.926311 
L 796.368595 460.926311 
L 796.368595 467.637064 
L 803.542149 467.637064 
L 803.542149 466.863584 
L 810.715702 466.863584 
L 810.715702 472.438538 
L 817.889256 472.438538 
L 817.889256 468.417946 
L 825.06281 468.417946 
L 825.06281 470.002491 
L 832.236364 470.002491 
L 832.236364 464.586185 
L 839.409917 464.586185 
L 839.409917 474.949552 
L 846.583471 474.949552 
L 846.583471 466.863584 
L 853.757025 466.863584 
L 853.757025 474.949552 
L 860.930579 474.949552 
L 860.930579 474.949552 
L 868.104132 474.949552 
L 868.104132 578.461996 
L 871.690909 578.461996 
L 871.690909 188741.835956 
L 871.690909 188741.835956 
L 871.690909 188741.835956 
L 871.690909 188741.835956 
L 871.690909 188741.835956 
L 871.690909 188741.835956 
L 868.104132 188741.835956 
L 868.104132 188741.835956 
L 860.930579 188741.835956 
L 860.930579 188741.835956 
L 853.757025 188741.835956 
L 853.757025 188741.835956 
L 846.583471 188741.835956 
L 846.583471 188741.835956 
L 839.409917 188741.835956 
L 839.409917 188741.835956 
L 832.236364 188741.835956 
L 832.236364 188741.835956 
L 825.06281 188741.835956 
L 825.06281 188741.835956 
L 817.889256 188741.835956 
L 817.889256 188741.835956 
L 810.715702 188741.835956 
L 810.715702 188741.835956 
L 803.542149 188741.835956 
L 803.542149 188741.835956 
L 796.368595 188741.835956 
L 796.368595 188741.835956 
L 789.195041 188741.835956 
L 789.195041 188741.835956 
L 782.021488 188741.835956 
L 782.021488 188741.835956 
L 774.847934 188741.835956 
L 774.847934 188741.835956 
L 767.67438 188741.835956 
L 767.67438 188741.835956 
L 760.500826 188741.835956 
L 760.500826 188741.835956 
L 753.327273 188741.835956 
L 753.327273 188741.835956 
L 746.153719 188741.835956 
L 746.153719 188741.835956 
L 738.980165 188741.835956 
L 738.980165 188741.835956 
L 731.806612 188741.835956 
L 731.806612 188741.835956 
L 724.633058 188741.835956 
L 724.633058 188741.835956 
L 717.459504 188741.835956 
L 717.459504 188741.835956 
L 710.28595 188741.835956 
L 710.28595 188741.835956 
L 703.112397 188741.835956 
L 703.112397 188741.835956 
L 695.938843 188741.835956 
L 695.938843 188741.835956 
L 688.765289 188741.835956 
L 688.765289 188741.835956 
L 681.591736 188741.835956 
L 681.591736 188741.835956 
L 674.418182 188741.835956 
L 674.418182 188741.835956 
L 667.244628 188741.835956 
L 667.244628 188741.835956 
L 660.071074 188741.835956 
L 660.071074 188741.835956 
L 652.897521 188741.835956 
L 652.897521 188741.835956 
L 645.723967 188741.835956 
L 645.723967 188741.835956 
L 638.550413 188741.835956 
L 638.550413 188741.835956 
L 631.37686 188741.835956 
L 631.37686 188741.835956 
L 624.203306 188741.835956 
L 624.203306 188741.835956 
L 617.029752 188741.835956 
L 617.029752 188741.835956 
L 609.856198 188741.835956 
L 609.856198 188741.835956 
L 602.682645 188741.835956 
L 602.682645 188741.835956 
L 595.509091 188741.835956 
L 595.509091 188741.835956 
L 588.335537 188741.835956 
L 588.335537 188741.835956 
L 581.161983 188741.835956 
L 581.161983 188741.835956 
L 573.98843 188741.835956 
L 573.98843 188741.835956 
L 566.814876 188741.835956 
L 566.814876 188741.835956 
L 559.641322 188741.835956 
L 559.641322 188741.835956 
L 552.467769 188741.835956 
L 552.467769 188741.835956 
L 545.294215 188741.835956 
L 545.294215 188741.835956 
L 538.120661 188741.835956 
L 538.120661 188741.835956 
L 530.947107 188741.835956 
L 530.947107 188741.835956 
L 523.773554 188741.835956 
L 523.773554 188741.835956 
L 516.6 188741.835956 
L 516.6 188741.835956 
L 509.426446 188741.835956 
L 509.426446 188741.835956 
L 502.252893 188741.835956 
L 502.252893 188741.835956 
L 495.079339 188741.835956 
L 495.079339 188741.835956 
L 487.905785 188741.835956 
L 487.905785 188741.835956 
L 480.732231 188741.835956 
L 480.732231 188741.835956 
L 473.558678 188741.835956 
L 473.558678 188741.835956 
L 466.385124 188741.835956 
L 466.385124 188741.835956 
L 459.21157 188741.835956 
L 459.21157 188741.835956 
L 452.038017 188741.835956 
L 452.038017 188741.835956 
L 444.864463 188741.835956 
L 444.864463 188741.835956 
L 437.690909 188741.835956 
L 437.690909 188741.835956 
L 430.517355 188741.835956 
L 430.517355 188741.835956 
L 423.343802 188741.835956 
L 423.343802 188741.835956 
L 416.170248 188741.835956 
L 416.170248 188741.835956 
L 408.996694 188741.835956 
L 408.996694 188741.835956 
L 401.82314 188741.835956 
L 401.82314 188741.835956 
L 394.649587 188741.835956 
L 394.649587 188741.835956 
L 387.476033 188741.835956 
L 387.476033 188741.835956 
L 380.302479 188741.835956 
L 380.302479 188741.835956 
L 373.128926 188741.835956 
L 373.128926 188741.835956 
L 365.955372 188741.835956 
L 365.955372 188741.835956 
L 358.781818 188741.835956 
L 358.781818 188741.835956 
L 351.608264 188741.835956 
L 351.608264 188741.835956 
L 344.434711 188741.835956 
L 344.434711 188741.835956 
L 337.261157 188741.835956 
L 337.261157 188741.835956 
L 330.087603 188741.835956 
L 330.087603 188741.835956 
L 322.91405 188741.835956 
L 322.91405 188741.835956 
L 315.740496 188741.835956 
L 315.740496 188741.835956 
L 308.566942 188741.835956 
L 308.566942 188741.835956 
L 301.393388 188741.835956 
L 301.393388 188741.835956 
L 294.219835 188741.835956 
L 294.219835 188741.835956 
L 287.046281 188741.835956 
L 287.046281 188741.835956 
L 279.872727 188741.835956 
L 279.872727 188741.835956 
L 272.699174 188741.835956 
L 272.699174 188741.835956 
L 265.52562 188741.835956 
L 265.52562 188741.835956 
L 258.352066 188741.835956 
L 258.352066 188741.835956 
L 251.178512 188741.835956 
L 251.178512 188741.835956 
L 244.004959 188741.835956 
L 244.004959 188741.835956 
L 236.831405 188741.835956 
L 236.831405 188741.835956 
L 229.657851 188741.835956 
L 229.657851 188741.835956 
L 222.484298 188741.835956 
L 222.484298 188741.835956 
L 215.310744 188741.835956 
L 215.310744 188741.835956 
L 208.13719 188741.835956 
L 208.13719 188741.835956 
L 200.963636 188741.835956 
L 200.963636 188741.835956 
L 193.790083 188741.835956 
L 193.790083 188741.835956 
L 186.616529 188741.835956 
L 186.616529 188741.835956 
L 179.442975 188741.835956 
L 179.442975 188741.835956 
L 172.269421 188741.835956 
L 172.269421 188741.835956 
L 165.095868 188741.835956 
L 165.095868 188741.835956 
L 161.509091 188741.835956 
L 161.509091 188741.835956 
L 161.509091 188741.835956 
z
" style="fill:#00bfbf;fill-opacity:0.4;stroke:#00bfbf;stroke-opacity:0.4;"/>
   </g>
   <g id="PolyCollection_2">
    <path clip-path="url(#p881658f050)" d="M 161.509091 188741.835956 
L 161.509091 188741.835956 
L 161.509091 188741.835956 
L 161.509091 188741.835956 
L 165.095868 188741.835956 
L 165.095868 478.422481 
L 172.269421 478.422481 
L 172.269421 473.266987 
L 179.442975 473.266987 
L 179.442975 468.417946 
L 186.616529 468.417946 
L 186.616529 467.637064 
L 193.790083 467.637064 
L 193.790083 466.863584 
L 200.963636 466.863584 
L 200.963636 463.84096 
L 208.13719 463.84096 
L 208.13719 476.667542 
L 215.310744 476.667542 
L 215.310744 466.097367 
L 222.484298 466.097367 
L 222.484298 471.618415 
L 229.657851 471.618415 
L 229.657851 466.097367 
L 236.831405 466.097367 
L 236.831405 474.949552 
L 244.004959 474.949552 
L 244.004959 487.812312 
L 251.178512 487.812312 
L 251.178512 482.049812 
L 258.352066 482.049812 
L 258.352066 469.206372 
L 265.52562 469.206372 
L 265.52562 481.127751 
L 272.699174 481.127751 
L 272.699174 456.063506 
L 279.872727 456.063506 
L 279.872727 469.206372 
L 287.046281 469.206372 
L 287.046281 470.002491 
L 294.219835 470.002491 
L 294.219835 462.370623 
L 301.393388 462.370623 
L 301.393388 474.103933 
L 308.566942 474.103933 
L 308.566942 471.618415 
L 315.740496 471.618415 
L 315.740496 489.827267 
L 322.91405 489.827267 
L 322.91405 482.982411 
L 330.087603 482.982411 
L 330.087603 474.949552 
L 337.261157 474.949552 
L 337.261157 459.507118 
L 344.434711 459.507118 
L 344.434711 482.049812 
L 351.608264 482.049812 
L 351.608264 471.618415 
L 358.781818 471.618415 
L 358.781818 470.002491 
L 365.955372 470.002491 
L 365.955372 475.804026 
L 373.128926 475.804026 
L 373.128926 474.103933 
L 380.302479 474.103933 
L 380.302479 470.806453 
L 387.476033 470.806453 
L 387.476033 463.10248 
L 394.649587 463.10248 
L 394.649587 466.863584 
L 401.82314 466.863584 
L 401.82314 466.097367 
L 408.996694 466.097367 
L 408.996694 464.586185 
L 416.170248 464.586185 
L 416.170248 472.438538 
L 423.343802 472.438538 
L 423.343802 474.103933 
L 430.517355 474.103933 
L 430.517355 462.370623 
L 437.690909 462.370623 
L 437.690909 487.812312 
L 444.864463 487.812312 
L 444.864463 460.926311 
L 452.038017 460.926311 
L 452.038017 462.370623 
L 459.21157 462.370623 
L 459.21157 475.804026 
L 466.385124 475.804026 
L 466.385124 470.002491 
L 473.558678 470.002491 
L 473.558678 489.827267 
L 480.732231 489.827267 
L 480.732231 475.804026 
L 487.905785 475.804026 
L 487.905785 482.982411 
L 495.079339 482.982411 
L 495.079339 469.206372 
L 502.252893 469.206372 
L 502.252893 472.438538 
L 509.426446 472.438538 
L 509.426446 474.103933 
L 516.6 474.103933 
L 516.6 462.370623 
L 523.773554 462.370623 
L 523.773554 467.637064 
L 530.947107 467.637064 
L 530.947107 469.206372 
L 538.120661 469.206372 
L 538.120661 456.063506 
L 545.294215 456.063506 
L 545.294215 460.926311 
L 552.467769 460.926311 
L 552.467769 470.002491 
L 559.641322 470.002491 
L 559.641322 473.266987 
L 566.814876 473.266987 
L 566.814876 451.474259 
L 573.98843 451.474259 
L 573.98843 472.438538 
L 581.161983 472.438538 
L 581.161983 482.982411 
L 588.335537 482.982411 
L 588.335537 481.127751 
L 595.509091 481.127751 
L 595.509091 464.586185 
L 602.682645 464.586185 
L 602.682645 470.002491 
L 609.856198 470.002491 
L 609.856198 467.637064 
L 617.029752 467.637064 
L 617.029752 472.438538 
L 624.203306 472.438538 
L 624.203306 466.863584 
L 631.37686 466.863584 
L 631.37686 466.863584 
L 638.550413 466.863584 
L 638.550413 474.103933 
L 645.723967 474.103933 
L 645.723967 460.213629 
L 652.897521 460.213629 
L 652.897521 474.103933 
L 660.071074 474.103933 
L 660.071074 473.266987 
L 667.244628 473.266987 
L 667.244628 473.266987 
L 674.418182 473.266987 
L 674.418182 470.002491 
L 681.591736 470.002491 
L 681.591736 486.823191 
L 688.765289 486.823191 
L 688.765289 472.438538 
L 695.938843 472.438538 
L 695.938843 479.31431 
L 703.112397 479.31431 
L 703.112397 470.002491 
L 710.28595 470.002491 
L 710.28595 468.417946 
L 717.459504 468.417946 
L 717.459504 473.266987 
L 724.633058 473.266987 
L 724.633058 470.806453 
L 731.806612 470.806453 
L 731.806612 456.7407 
L 738.980165 456.7407 
L 738.980165 463.84096 
L 746.153719 463.84096 
L 746.153719 474.949552 
L 753.327273 474.949552 
L 753.327273 472.438538 
L 760.500826 472.438538 
L 760.500826 452.759349 
L 767.67438 452.759349 
L 767.67438 464.586185 
L 774.847934 464.586185 
L 774.847934 466.097367 
L 782.021488 466.097367 
L 782.021488 466.863584 
L 789.195041 466.863584 
L 789.195041 469.206372 
L 796.368595 469.206372 
L 796.368595 467.637064 
L 803.542149 467.637064 
L 803.542149 461.645272 
L 810.715702 461.645272 
L 810.715702 469.206372 
L 817.889256 469.206372 
L 817.889256 457.423562 
L 825.06281 457.423562 
L 825.06281 463.10248 
L 832.236364 463.10248 
L 832.236364 472.438538 
L 839.409917 472.438538 
L 839.409917 479.31431 
L 846.583471 479.31431 
L 846.583471 467.637064 
L 853.757025 467.637064 
L 853.757025 482.982411 
L 860.930579 482.982411 
L 860.930579 474.949552 
L 868.104132 474.949552 
L 868.104132 546.389126 
L 871.690909 546.389126 
L 871.690909 188741.835956 
L 871.690909 188741.835956 
L 871.690909 188741.835956 
L 871.690909 188741.835956 
L 871.690909 188741.835956 
L 871.690909 188741.835956 
L 868.104132 188741.835956 
L 868.104132 188741.835956 
L 860.930579 188741.835956 
L 860.930579 188741.835956 
L 853.757025 188741.835956 
L 853.757025 188741.835956 
L 846.583471 188741.835956 
L 846.583471 188741.835956 
L 839.409917 188741.835956 
L 839.409917 188741.835956 
L 832.236364 188741.835956 
L 832.236364 188741.835956 
L 825.06281 188741.835956 
L 825.06281 188741.835956 
L 817.889256 188741.835956 
L 817.889256 188741.835956 
L 810.715702 188741.835956 
L 810.715702 188741.835956 
L 803.542149 188741.835956 
L 803.542149 188741.835956 
L 796.368595 188741.835956 
L 796.368595 188741.835956 
L 789.195041 188741.835956 
L 789.195041 188741.835956 
L 782.021488 188741.835956 
L 782.021488 188741.835956 
L 774.847934 188741.835956 
L 774.847934 188741.835956 
L 767.67438 188741.835956 
L 767.67438 188741.835956 
L 760.500826 188741.835956 
L 760.500826 188741.835956 
L 753.327273 188741.835956 
L 753.327273 188741.835956 
L 746.153719 188741.835956 
L 746.153719 188741.835956 
L 738.980165 188741.835956 
L 738.980165 188741.835956 
L 731.806612 188741.835956 
L 731.806612 188741.835956 
L 724.633058 188741.835956 
L 724.633058 188741.835956 
L 717.459504 188741.835956 
L 717.459504 188741.835956 
L 710.28595 188741.835956 
L 710.28595 188741.835956 
L 703.112397 188741.835956 
L 703.112397 188741.835956 
L 695.938843 188741.835956 
L 695.938843 188741.835956 
L 688.765289 188741.835956 
L 688.765289 188741.835956 
L 681.591736 188741.835956 
L 681.591736 188741.835956 
L 674.418182 188741.835956 
L 674.418182 188741.835956 
L 667.244628 188741.835956 
L 667.244628 188741.835956 
L 660.071074 188741.835956 
L 660.071074 188741.835956 
L 652.897521 188741.835956 
L 652.897521 188741.835956 
L 645.723967 188741.835956 
L 645.723967 188741.835956 
L 638.550413 188741.835956 
L 638.550413 188741.835956 
L 631.37686 188741.835956 
L 631.37686 188741.835956 
L 624.203306 188741.835956 
L 624.203306 188741.835956 
L 617.029752 188741.835956 
L 617.029752 188741.835956 
L 609.856198 188741.835956 
L 609.856198 188741.835956 
L 602.682645 188741.835956 
L 602.682645 188741.835956 
L 595.509091 188741.835956 
L 595.509091 188741.835956 
L 588.335537 188741.835956 
L 588.335537 188741.835956 
L 581.161983 188741.835956 
L 581.161983 188741.835956 
L 573.98843 188741.835956 
L 573.98843 188741.835956 
L 566.814876 188741.835956 
L 566.814876 188741.835956 
L 559.641322 188741.835956 
L 559.641322 188741.835956 
L 552.467769 188741.835956 
L 552.467769 188741.835956 
L 545.294215 188741.835956 
L 545.294215 188741.835956 
L 538.120661 188741.835956 
L 538.120661 188741.835956 
L 530.947107 188741.835956 
L 530.947107 188741.835956 
L 523.773554 188741.835956 
L 523.773554 188741.835956 
L 516.6 188741.835956 
L 516.6 188741.835956 
L 509.426446 188741.835956 
L 509.426446 188741.835956 
L 502.252893 188741.835956 
L 502.252893 188741.835956 
L 495.079339 188741.835956 
L 495.079339 188741.835956 
L 487.905785 188741.835956 
L 487.905785 188741.835956 
L 480.732231 188741.835956 
L 480.732231 188741.835956 
L 473.558678 188741.835956 
L 473.558678 188741.835956 
L 466.385124 188741.835956 
L 466.385124 188741.835956 
L 459.21157 188741.835956 
L 459.21157 188741.835956 
L 452.038017 188741.835956 
L 452.038017 188741.835956 
L 444.864463 188741.835956 
L 444.864463 188741.835956 
L 437.690909 188741.835956 
L 437.690909 188741.835956 
L 430.517355 188741.835956 
L 430.517355 188741.835956 
L 423.343802 188741.835956 
L 423.343802 188741.835956 
L 416.170248 188741.835956 
L 416.170248 188741.835956 
L 408.996694 188741.835956 
L 408.996694 188741.835956 
L 401.82314 188741.835956 
L 401.82314 188741.835956 
L 394.649587 188741.835956 
L 394.649587 188741.835956 
L 387.476033 188741.835956 
L 387.476033 188741.835956 
L 380.302479 188741.835956 
L 380.302479 188741.835956 
L 373.128926 188741.835956 
L 373.128926 188741.835956 
L 365.955372 188741.835956 
L 365.955372 188741.835956 
L 358.781818 188741.835956 
L 358.781818 188741.835956 
L 351.608264 188741.835956 
L 351.608264 188741.835956 
L 344.434711 188741.835956 
L 344.434711 188741.835956 
L 337.261157 188741.835956 
L 337.261157 188741.835956 
L 330.087603 188741.835956 
L 330.087603 188741.835956 
L 322.91405 188741.835956 
L 322.91405 188741.835956 
L 315.740496 188741.835956 
L 315.740496 188741.835956 
L 308.566942 188741.835956 
L 308.566942 188741.835956 
L 301.393388 188741.835956 
L 301.393388 188741.835956 
L 294.219835 188741.835956 
L 294.219835 188741.835956 
L 287.046281 188741.835956 
L 287.046281 188741.835956 
L 279.872727 188741.835956 
L 279.872727 188741.835956 
L 272.699174 188741.835956 
L 272.699174 188741.835956 
L 265.52562 188741.835956 
L 265.52562 188741.835956 
L 258.352066 188741.835956 
L 258.352066 188741.835956 
L 251.178512 188741.835956 
L 251.178512 188741.835956 
L 244.004959 188741.835956 
L 244.004959 188741.835956 
L 236.831405 188741.835956 
L 236.831405 188741.835956 
L 229.657851 188741.835956 
L 229.657851 188741.835956 
L 222.484298 188741.835956 
L 222.484298 188741.835956 
L 215.310744 188741.835956 
L 215.310744 188741.835956 
L 208.13719 188741.835956 
L 208.13719 188741.835956 
L 200.963636 188741.835956 
L 200.963636 188741.835956 
L 193.790083 188741.835956 
L 193.790083 188741.835956 
L 186.616529 188741.835956 
L 186.616529 188741.835956 
L 179.442975 188741.835956 
L 179.442975 188741.835956 
L 172.269421 188741.835956 
L 172.269421 188741.835956 
L 165.095868 188741.835956 
L 165.095868 188741.835956 
L 161.509091 188741.835956 
L 161.509091 188741.835956 
L 161.509091 188741.835956 
z
" style="fill:#bf00bf;fill-opacity:0.4;stroke:#bf00bf;stroke-opacity:0.4;"/>
   </g>
   <g id="PolyCollection_3">
    <path clip-path="url(#p881658f050)" d="M 161.509091 188741.835956 
L 161.509091 188741.835956 
L 161.509091 188741.835956 
L 161.509091 179.379385 
L 165.095868 179.379385 
L 165.095868 339.960091 
L 172.269421 339.960091 
L 172.269421 374.688594 
L 179.442975 374.688594 
L 179.442975 380.889159 
L 186.616529 380.889159 
L 186.616529 397.503142 
L 193.790083 397.503142 
L 193.790083 401.205289 
L 200.963636 401.205289 
L 200.963636 407.650863 
L 208.13719 407.650863 
L 208.13719 413.041602 
L 215.310744 413.041602 
L 215.310744 403.65177 
L 222.484298 403.65177 
L 222.484298 422.305318 
L 229.657851 422.305318 
L 229.657851 423.654134 
L 236.831405 423.654134 
L 236.831405 429.284057 
L 244.004959 429.284057 
L 244.004959 428.799773 
L 251.178512 428.799773 
L 251.178512 438.531849 
L 258.352066 438.531849 
L 258.352066 432.756986 
L 265.52562 432.756986 
L 265.52562 429.284057 
L 272.699174 429.284057 
L 272.699174 450.839225 
L 279.872727 450.839225 
L 279.872727 437.989644 
L 287.046281 437.989644 
L 287.046281 451.474259 
L 294.219835 451.474259 
L 294.219835 452.114275 
L 301.393388 452.114275 
L 301.393388 464.586185 
L 308.566942 464.586185 
L 308.566942 468.417946 
L 315.740496 468.417946 
L 315.740496 467.637064 
L 322.91405 467.637064 
L 322.91405 460.926311 
L 330.087603 460.926311 
L 330.087603 467.637064 
L 337.261157 467.637064 
L 337.261157 469.206372 
L 344.434711 469.206372 
L 344.434711 470.806453 
L 351.608264 470.806453 
L 351.608264 473.266987 
L 358.781818 473.266987 
L 358.781818 477.540294 
L 365.955372 477.540294 
L 365.955372 504.297991 
L 373.128926 504.297991 
L 373.128926 503.089058 
L 380.302479 503.089058 
L 380.302479 480.215993 
L 387.476033 480.215993 
L 387.476033 499.566143 
L 394.649587 499.566143 
L 394.649587 482.049812 
L 401.82314 482.049812 
L 401.82314 510.62686 
L 408.996694 510.62686 
L 408.996694 499.566143 
L 416.170248 499.566143 
L 416.170248 513.302559 
L 423.343802 513.302559 
L 423.343802 520.402819 
L 430.517355 520.402819 
L 430.517355 524.979805 
L 437.690909 524.979805 
L 437.690909 546.389126 
L 444.864463 546.389126 
L 444.864463 540.48765 
L 452.038017 540.48765 
L 452.038017 524.979805 
L 459.21157 524.979805 
L 459.21157 531.511411 
L 466.385124 531.511411 
L 466.385124 546.389126 
L 473.558678 546.389126 
L 473.558678 569.864418 
L 480.732231 569.864418 
L 480.732231 544.374171 
L 487.905785 544.374171 
L 487.905785 534.98434 
L 495.079339 534.98434 
L 495.079339 546.389126 
L 502.252893 546.389126 
L 502.252893 572.630836 
L 509.426446 572.630836 
L 509.426446 557.28549 
L 516.6 557.28549 
L 516.6 581.541664 
L 523.773554 581.541664 
L 523.773554 598.969634 
L 530.947107 598.969634 
L 530.947107 584.742133 
L 538.120661 584.742133 
L 538.120661 591.546199 
L 545.294215 591.546199 
L 545.294215 584.742133 
L 552.467769 584.742133 
L 552.467769 598.969634 
L 559.641322 598.969634 
L 559.641322 598.969634 
L 566.814876 598.969634 
L 566.814876 638.103523 
L 573.98843 638.103523 
L 573.98843 651.735389 
L 581.161983 651.735389 
L 581.161983 626.426278 
L 588.335537 626.426278 
L 588.335537 621.159837 
L 595.509091 621.159837 
L 595.509091 626.426278 
L 602.682645 626.426278 
L 602.682645 668.110422 
L 609.856198 668.110422 
L 609.856198 659.512844 
L 617.029752 659.512844 
L 617.029752 677.721696 
L 624.203306 677.721696 
L 624.203306 659.512844 
L 631.37686 659.512844 
L 631.37686 716.074703 
L 638.550413 716.074703 
L 638.550413 688.618059 
L 645.723967 688.618059 
L 645.723967 757.758847 
L 652.897521 757.758847 
L 652.897521 701.196988 
L 660.071074 701.196988 
L 660.071074 757.758847 
L 667.244628 757.758847 
L 667.244628 701.196988 
L 674.418182 701.196988 
L 674.418182 651.735389 
L 681.591736 651.735389 
L 681.591736 716.074703 
L 688.765289 716.074703 
L 688.765289 734.283555 
L 695.938843 734.283555 
L 695.938843 734.283555 
L 703.112397 734.283555 
L 703.112397 188741.835956 
L 710.28595 188741.835956 
L 710.28595 701.196988 
L 717.459504 701.196988 
L 717.459504 790.845414 
L 724.633058 790.845414 
L 724.633058 790.845414 
L 731.806612 790.845414 
L 731.806612 757.758847 
L 738.980165 757.758847 
L 738.980165 790.845414 
L 746.153719 790.845414 
L 746.153719 188741.835956 
L 753.327273 188741.835956 
L 753.327273 847.407273 
L 760.500826 847.407273 
L 760.500826 790.845414 
L 767.67438 790.845414 
L 767.67438 734.283555 
L 774.847934 734.283555 
L 774.847934 188741.835956 
L 782.021488 188741.835956 
L 782.021488 734.283555 
L 789.195041 734.283555 
L 789.195041 790.845414 
L 796.368595 790.845414 
L 796.368595 790.845414 
L 803.542149 790.845414 
L 803.542149 188741.835956 
L 810.715702 188741.835956 
L 810.715702 847.407273 
L 817.889256 847.407273 
L 817.889256 790.845414 
L 825.06281 790.845414 
L 825.06281 790.845414 
L 832.236364 790.845414 
L 832.236364 847.407273 
L 839.409917 847.407273 
L 839.409917 847.407273 
L 846.583471 847.407273 
L 846.583471 847.407273 
L 853.757025 847.407273 
L 853.757025 188741.835956 
L 860.930579 188741.835956 
L 860.930579 188741.835956 
L 868.104132 188741.835956 
L 868.104132 188741.835956 
L 871.690909 188741.835956 
L 871.690909 188741.835956 
L 871.690909 188741.835956 
L 871.690909 188741.835956 
L 871.690909 188741.835956 
L 871.690909 188741.835956 
L 871.690909 188741.835956 
L 868.104132 188741.835956 
L 868.104132 188741.835956 
L 860.930579 188741.835956 
L 860.930579 188741.835956 
L 853.757025 188741.835956 
L 853.757025 188741.835956 
L 846.583471 188741.835956 
L 846.583471 188741.835956 
L 839.409917 188741.835956 
L 839.409917 188741.835956 
L 832.236364 188741.835956 
L 832.236364 188741.835956 
L 825.06281 188741.835956 
L 825.06281 188741.835956 
L 817.889256 188741.835956 
L 817.889256 188741.835956 
L 810.715702 188741.835956 
L 810.715702 188741.835956 
L 803.542149 188741.835956 
L 803.542149 188741.835956 
L 796.368595 188741.835956 
L 796.368595 188741.835956 
L 789.195041 188741.835956 
L 789.195041 188741.835956 
L 782.021488 188741.835956 
L 782.021488 188741.835956 
L 774.847934 188741.835956 
L 774.847934 188741.835956 
L 767.67438 188741.835956 
L 767.67438 188741.835956 
L 760.500826 188741.835956 
L 760.500826 188741.835956 
L 753.327273 188741.835956 
L 753.327273 188741.835956 
L 746.153719 188741.835956 
L 746.153719 188741.835956 
L 738.980165 188741.835956 
L 738.980165 188741.835956 
L 731.806612 188741.835956 
L 731.806612 188741.835956 
L 724.633058 188741.835956 
L 724.633058 188741.835956 
L 717.459504 188741.835956 
L 717.459504 188741.835956 
L 710.28595 188741.835956 
L 710.28595 188741.835956 
L 703.112397 188741.835956 
L 703.112397 188741.835956 
L 695.938843 188741.835956 
L 695.938843 188741.835956 
L 688.765289 188741.835956 
L 688.765289 188741.835956 
L 681.591736 188741.835956 
L 681.591736 188741.835956 
L 674.418182 188741.835956 
L 674.418182 188741.835956 
L 667.244628 188741.835956 
L 667.244628 188741.835956 
L 660.071074 188741.835956 
L 660.071074 188741.835956 
L 652.897521 188741.835956 
L 652.897521 188741.835956 
L 645.723967 188741.835956 
L 645.723967 188741.835956 
L 638.550413 188741.835956 
L 638.550413 188741.835956 
L 631.37686 188741.835956 
L 631.37686 188741.835956 
L 624.203306 188741.835956 
L 624.203306 188741.835956 
L 617.029752 188741.835956 
L 617.029752 188741.835956 
L 609.856198 188741.835956 
L 609.856198 188741.835956 
L 602.682645 188741.835956 
L 602.682645 188741.835956 
L 595.509091 188741.835956 
L 595.509091 188741.835956 
L 588.335537 188741.835956 
L 588.335537 188741.835956 
L 581.161983 188741.835956 
L 581.161983 188741.835956 
L 573.98843 188741.835956 
L 573.98843 188741.835956 
L 566.814876 188741.835956 
L 566.814876 188741.835956 
L 559.641322 188741.835956 
L 559.641322 188741.835956 
L 552.467769 188741.835956 
L 552.467769 188741.835956 
L 545.294215 188741.835956 
L 545.294215 188741.835956 
L 538.120661 188741.835956 
L 538.120661 188741.835956 
L 530.947107 188741.835956 
L 530.947107 188741.835956 
L 523.773554 188741.835956 
L 523.773554 188741.835956 
L 516.6 188741.835956 
L 516.6 188741.835956 
L 509.426446 188741.835956 
L 509.426446 188741.835956 
L 502.252893 188741.835956 
L 502.252893 188741.835956 
L 495.079339 188741.835956 
L 495.079339 188741.835956 
L 487.905785 188741.835956 
L 487.905785 188741.835956 
L 480.732231 188741.835956 
L 480.732231 188741.835956 
L 473.558678 188741.835956 
L 473.558678 188741.835956 
L 466.385124 188741.835956 
L 466.385124 188741.835956 
L 459.21157 188741.835956 
L 459.21157 188741.835956 
L 452.038017 188741.835956 
L 452.038017 188741.835956 
L 444.864463 188741.835956 
L 444.864463 188741.835956 
L 437.690909 188741.835956 
L 437.690909 188741.835956 
L 430.517355 188741.835956 
L 430.517355 188741.835956 
L 423.343802 188741.835956 
L 423.343802 188741.835956 
L 416.170248 188741.835956 
L 416.170248 188741.835956 
L 408.996694 188741.835956 
L 408.996694 188741.835956 
L 401.82314 188741.835956 
L 401.82314 188741.835956 
L 394.649587 188741.835956 
L 394.649587 188741.835956 
L 387.476033 188741.835956 
L 387.476033 188741.835956 
L 380.302479 188741.835956 
L 380.302479 188741.835956 
L 373.128926 188741.835956 
L 373.128926 188741.835956 
L 365.955372 188741.835956 
L 365.955372 188741.835956 
L 358.781818 188741.835956 
L 358.781818 188741.835956 
L 351.608264 188741.835956 
L 351.608264 188741.835956 
L 344.434711 188741.835956 
L 344.434711 188741.835956 
L 337.261157 188741.835956 
L 337.261157 188741.835956 
L 330.087603 188741.835956 
L 330.087603 188741.835956 
L 322.91405 188741.835956 
L 322.91405 188741.835956 
L 315.740496 188741.835956 
L 315.740496 188741.835956 
L 308.566942 188741.835956 
L 308.566942 188741.835956 
L 301.393388 188741.835956 
L 301.393388 188741.835956 
L 294.219835 188741.835956 
L 294.219835 188741.835956 
L 287.046281 188741.835956 
L 287.046281 188741.835956 
L 279.872727 188741.835956 
L 279.872727 188741.835956 
L 272.699174 188741.835956 
L 272.699174 188741.835956 
L 265.52562 188741.835956 
L 265.52562 188741.835956 
L 258.352066 188741.835956 
L 258.352066 188741.835956 
L 251.178512 188741.835956 
L 251.178512 188741.835956 
L 244.004959 188741.835956 
L 244.004959 188741.835956 
L 236.831405 188741.835956 
L 236.831405 188741.835956 
L 229.657851 188741.835956 
L 229.657851 188741.835956 
L 222.484298 188741.835956 
L 222.484298 188741.835956 
L 215.310744 188741.835956 
L 215.310744 188741.835956 
L 208.13719 188741.835956 
L 208.13719 188741.835956 
L 200.963636 188741.835956 
L 200.963636 188741.835956 
L 193.790083 188741.835956 
L 193.790083 188741.835956 
L 186.616529 188741.835956 
L 186.616529 188741.835956 
L 179.442975 188741.835956 
L 179.442975 188741.835956 
L 172.269421 188741.835956 
L 172.269421 188741.835956 
L 165.095868 188741.835956 
L 165.095868 188741.835956 
L 161.509091 188741.835956 
L 161.509091 188741.835956 
L 161.509091 188741.835956 
z
" style="fill:#bfbf00;fill-opacity:0.4;stroke:#bfbf00;stroke-opacity:0.4;"/>
   </g>
   <g id="matplotlib.axis_1">
    <g id="xtick_1">
     <g id="line2d_1">
      <defs>
       <path d="M 0 0 
L 0 3.5 
" id="m06a6484ff1" style="stroke:#000000;stroke-width:0.8;"/>
      </defs>
      <g>
       <use style="stroke:#000000;stroke-width:0.8;" x="157.922314" xlink:href="#m06a6484ff1" y="882"/>
      </g>
     </g>
     <g id="text_1">
      <!-- 0 -->
      <g transform="translate(145.197314 919.39375)scale(0.4 -0.4)">
       <defs>
        <path d="M 2034 4250 
Q 1547 4250 1301 3770 
Q 1056 3291 1056 2328 
Q 1056 1369 1301 889 
Q 1547 409 2034 409 
Q 2525 409 2770 889 
Q 3016 1369 3016 2328 
Q 3016 3291 2770 3770 
Q 2525 4250 2034 4250 
z
M 2034 4750 
Q 2819 4750 3233 4129 
Q 3647 3509 3647 2328 
Q 3647 1150 3233 529 
Q 2819 -91 2034 -91 
Q 1250 -91 836 529 
Q 422 1150 422 2328 
Q 422 3509 836 4129 
Q 1250 4750 2034 4750 
z
" id="DejaVuSans-30" transform="scale(0.015625)"/>
       </defs>
       <use xlink:href="#DejaVuSans-30"/>
      </g>
     </g>
    </g>
    <g id="xtick_2">
     <g id="line2d_2">
      <g>
       <use style="stroke:#000000;stroke-width:0.8;" x="301.393388" xlink:href="#m06a6484ff1" y="882"/>
      </g>
     </g>
     <g id="text_2">
      <!-- 20 -->
      <g transform="translate(275.943388 919.39375)scale(0.4 -0.4)">
       <defs>
        <path d="M 1228 531 
L 3431 531 
L 3431 0 
L 469 0 
L 469 531 
Q 828 903 1448 1529 
Q 2069 2156 2228 2338 
Q 2531 2678 2651 2914 
Q 2772 3150 2772 3378 
Q 2772 3750 2511 3984 
Q 2250 4219 1831 4219 
Q 1534 4219 1204 4116 
Q 875 4013 500 3803 
L 500 4441 
Q 881 4594 1212 4672 
Q 1544 4750 1819 4750 
Q 2544 4750 2975 4387 
Q 3406 4025 3406 3419 
Q 3406 3131 3298 2873 
Q 3191 2616 2906 2266 
Q 2828 2175 2409 1742 
Q 1991 1309 1228 531 
z
" id="DejaVuSans-32" transform="scale(0.015625)"/>
       </defs>
       <use xlink:href="#DejaVuSans-32"/>
       <use x="63.623047" xlink:href="#DejaVuSans-30"/>
      </g>
     </g>
    </g>
    <g id="xtick_3">
     <g id="line2d_3">
      <g>
       <use style="stroke:#000000;stroke-width:0.8;" x="444.864463" xlink:href="#m06a6484ff1" y="882"/>
      </g>
     </g>
     <g id="text_3">
      <!-- 40 -->
      <g transform="translate(419.414463 919.39375)scale(0.4 -0.4)">
       <defs>
        <path d="M 2419 4116 
L 825 1625 
L 2419 1625 
L 2419 4116 
z
M 2253 4666 
L 3047 4666 
L 3047 1625 
L 3713 1625 
L 3713 1100 
L 3047 1100 
L 3047 0 
L 2419 0 
L 2419 1100 
L 313 1100 
L 313 1709 
L 2253 4666 
z
" id="DejaVuSans-34" transform="scale(0.015625)"/>
       </defs>
       <use xlink:href="#DejaVuSans-34"/>
       <use x="63.623047" xlink:href="#DejaVuSans-30"/>
      </g>
     </g>
    </g>
    <g id="xtick_4">
     <g id="line2d_4">
      <g>
       <use style="stroke:#000000;stroke-width:0.8;" x="588.335537" xlink:href="#m06a6484ff1" y="882"/>
      </g>
     </g>
     <g id="text_4">
      <!-- 60 -->
      <g transform="translate(562.885537 919.39375)scale(0.4 -0.4)">
       <defs>
        <path d="M 2113 2584 
Q 1688 2584 1439 2293 
Q 1191 2003 1191 1497 
Q 1191 994 1439 701 
Q 1688 409 2113 409 
Q 2538 409 2786 701 
Q 3034 994 3034 1497 
Q 3034 2003 2786 2293 
Q 2538 2584 2113 2584 
z
M 3366 4563 
L 3366 3988 
Q 3128 4100 2886 4159 
Q 2644 4219 2406 4219 
Q 1781 4219 1451 3797 
Q 1122 3375 1075 2522 
Q 1259 2794 1537 2939 
Q 1816 3084 2150 3084 
Q 2853 3084 3261 2657 
Q 3669 2231 3669 1497 
Q 3669 778 3244 343 
Q 2819 -91 2113 -91 
Q 1303 -91 875 529 
Q 447 1150 447 2328 
Q 447 3434 972 4092 
Q 1497 4750 2381 4750 
Q 2619 4750 2861 4703 
Q 3103 4656 3366 4563 
z
" id="DejaVuSans-36" transform="scale(0.015625)"/>
       </defs>
       <use xlink:href="#DejaVuSans-36"/>
       <use x="63.623047" xlink:href="#DejaVuSans-30"/>
      </g>
     </g>
    </g>
    <g id="xtick_5">
     <g id="line2d_5">
      <g>
       <use style="stroke:#000000;stroke-width:0.8;" x="731.806612" xlink:href="#m06a6484ff1" y="882"/>
      </g>
     </g>
     <g id="text_5">
      <!-- 80 -->
      <g transform="translate(706.356612 919.39375)scale(0.4 -0.4)">
       <defs>
        <path d="M 2034 2216 
Q 1584 2216 1326 1975 
Q 1069 1734 1069 1313 
Q 1069 891 1326 650 
Q 1584 409 2034 409 
Q 2484 409 2743 651 
Q 3003 894 3003 1313 
Q 3003 1734 2745 1975 
Q 2488 2216 2034 2216 
z
M 1403 2484 
Q 997 2584 770 2862 
Q 544 3141 544 3541 
Q 544 4100 942 4425 
Q 1341 4750 2034 4750 
Q 2731 4750 3128 4425 
Q 3525 4100 3525 3541 
Q 3525 3141 3298 2862 
Q 3072 2584 2669 2484 
Q 3125 2378 3379 2068 
Q 3634 1759 3634 1313 
Q 3634 634 3220 271 
Q 2806 -91 2034 -91 
Q 1263 -91 848 271 
Q 434 634 434 1313 
Q 434 1759 690 2068 
Q 947 2378 1403 2484 
z
M 1172 3481 
Q 1172 3119 1398 2916 
Q 1625 2713 2034 2713 
Q 2441 2713 2670 2916 
Q 2900 3119 2900 3481 
Q 2900 3844 2670 4047 
Q 2441 4250 2034 4250 
Q 1625 4250 1398 4047 
Q 1172 3844 1172 3481 
z
" id="DejaVuSans-38" transform="scale(0.015625)"/>
       </defs>
       <use xlink:href="#DejaVuSans-38"/>
       <use x="63.623047" xlink:href="#DejaVuSans-30"/>
      </g>
     </g>
    </g>
    <g id="xtick_6">
     <g id="line2d_6">
      <g>
       <use style="stroke:#000000;stroke-width:0.8;" x="875.277686" xlink:href="#m06a6484ff1" y="882"/>
      </g>
     </g>
     <g id="text_6">
      <!-- 100 -->
      <g transform="translate(837.102686 919.39375)scale(0.4 -0.4)">
       <defs>
        <path d="M 794 531 
L 1825 531 
L 1825 4091 
L 703 3866 
L 703 4441 
L 1819 4666 
L 2450 4666 
L 2450 531 
L 3481 531 
L 3481 0 
L 794 0 
L 794 531 
z
" id="DejaVuSans-31" transform="scale(0.015625)"/>
       </defs>
       <use xlink:href="#DejaVuSans-31"/>
       <use x="63.623047" xlink:href="#DejaVuSans-30"/>
       <use x="127.246094" xlink:href="#DejaVuSans-30"/>
      </g>
     </g>
    </g>
    <g id="text_7">
     <!-- Observed Energy (GeV) -->
     <g transform="translate(280.54375 962.10625)scale(0.4 -0.4)">
      <defs>
       <path d="M 2522 4238 
Q 1834 4238 1429 3725 
Q 1025 3213 1025 2328 
Q 1025 1447 1429 934 
Q 1834 422 2522 422 
Q 3209 422 3611 934 
Q 4013 1447 4013 2328 
Q 4013 3213 3611 3725 
Q 3209 4238 2522 4238 
z
M 2522 4750 
Q 3503 4750 4090 4092 
Q 4678 3434 4678 2328 
Q 4678 1225 4090 567 
Q 3503 -91 2522 -91 
Q 1538 -91 948 565 
Q 359 1222 359 2328 
Q 359 3434 948 4092 
Q 1538 4750 2522 4750 
z
" id="DejaVuSans-4f" transform="scale(0.015625)"/>
       <path d="M 3116 1747 
Q 3116 2381 2855 2742 
Q 2594 3103 2138 3103 
Q 1681 3103 1420 2742 
Q 1159 2381 1159 1747 
Q 1159 1113 1420 752 
Q 1681 391 2138 391 
Q 2594 391 2855 752 
Q 3116 1113 3116 1747 
z
M 1159 2969 
Q 1341 3281 1617 3432 
Q 1894 3584 2278 3584 
Q 2916 3584 3314 3078 
Q 3713 2572 3713 1747 
Q 3713 922 3314 415 
Q 2916 -91 2278 -91 
Q 1894 -91 1617 61 
Q 1341 213 1159 525 
L 1159 0 
L 581 0 
L 581 4863 
L 1159 4863 
L 1159 2969 
z
" id="DejaVuSans-62" transform="scale(0.015625)"/>
       <path d="M 2834 3397 
L 2834 2853 
Q 2591 2978 2328 3040 
Q 2066 3103 1784 3103 
Q 1356 3103 1142 2972 
Q 928 2841 928 2578 
Q 928 2378 1081 2264 
Q 1234 2150 1697 2047 
L 1894 2003 
Q 2506 1872 2764 1633 
Q 3022 1394 3022 966 
Q 3022 478 2636 193 
Q 2250 -91 1575 -91 
Q 1294 -91 989 -36 
Q 684 19 347 128 
L 347 722 
Q 666 556 975 473 
Q 1284 391 1588 391 
Q 1994 391 2212 530 
Q 2431 669 2431 922 
Q 2431 1156 2273 1281 
Q 2116 1406 1581 1522 
L 1381 1569 
Q 847 1681 609 1914 
Q 372 2147 372 2553 
Q 372 3047 722 3315 
Q 1072 3584 1716 3584 
Q 2034 3584 2315 3537 
Q 2597 3491 2834 3397 
z
" id="DejaVuSans-73" transform="scale(0.015625)"/>
       <path d="M 3597 1894 
L 3597 1613 
L 953 1613 
Q 991 1019 1311 708 
Q 1631 397 2203 397 
Q 2534 397 2845 478 
Q 3156 559 3463 722 
L 3463 178 
Q 3153 47 2828 -22 
Q 2503 -91 2169 -91 
Q 1331 -91 842 396 
Q 353 884 353 1716 
Q 353 2575 817 3079 
Q 1281 3584 2069 3584 
Q 2775 3584 3186 3129 
Q 3597 2675 3597 1894 
z
M 3022 2063 
Q 3016 2534 2758 2815 
Q 2500 3097 2075 3097 
Q 1594 3097 1305 2825 
Q 1016 2553 972 2059 
L 3022 2063 
z
" id="DejaVuSans-65" transform="scale(0.015625)"/>
       <path d="M 2631 2963 
Q 2534 3019 2420 3045 
Q 2306 3072 2169 3072 
Q 1681 3072 1420 2755 
Q 1159 2438 1159 1844 
L 1159 0 
L 581 0 
L 581 3500 
L 1159 3500 
L 1159 2956 
Q 1341 3275 1631 3429 
Q 1922 3584 2338 3584 
Q 2397 3584 2469 3576 
Q 2541 3569 2628 3553 
L 2631 2963 
z
" id="DejaVuSans-72" transform="scale(0.015625)"/>
       <path d="M 191 3500 
L 800 3500 
L 1894 563 
L 2988 3500 
L 3597 3500 
L 2284 0 
L 1503 0 
L 191 3500 
z
" id="DejaVuSans-76" transform="scale(0.015625)"/>
       <path d="M 2906 2969 
L 2906 4863 
L 3481 4863 
L 3481 0 
L 2906 0 
L 2906 525 
Q 2725 213 2448 61 
Q 2172 -91 1784 -91 
Q 1150 -91 751 415 
Q 353 922 353 1747 
Q 353 2572 751 3078 
Q 1150 3584 1784 3584 
Q 2172 3584 2448 3432 
Q 2725 3281 2906 2969 
z
M 947 1747 
Q 947 1113 1208 752 
Q 1469 391 1925 391 
Q 2381 391 2643 752 
Q 2906 1113 2906 1747 
Q 2906 2381 2643 2742 
Q 2381 3103 1925 3103 
Q 1469 3103 1208 2742 
Q 947 2381 947 1747 
z
" id="DejaVuSans-64" transform="scale(0.015625)"/>
       <path id="DejaVuSans-20" transform="scale(0.015625)"/>
       <path d="M 628 4666 
L 3578 4666 
L 3578 4134 
L 1259 4134 
L 1259 2753 
L 3481 2753 
L 3481 2222 
L 1259 2222 
L 1259 531 
L 3634 531 
L 3634 0 
L 628 0 
L 628 4666 
z
" id="DejaVuSans-45" transform="scale(0.015625)"/>
       <path d="M 3513 2113 
L 3513 0 
L 2938 0 
L 2938 2094 
Q 2938 2591 2744 2837 
Q 2550 3084 2163 3084 
Q 1697 3084 1428 2787 
Q 1159 2491 1159 1978 
L 1159 0 
L 581 0 
L 581 3500 
L 1159 3500 
L 1159 2956 
Q 1366 3272 1645 3428 
Q 1925 3584 2291 3584 
Q 2894 3584 3203 3211 
Q 3513 2838 3513 2113 
z
" id="DejaVuSans-6e" transform="scale(0.015625)"/>
       <path d="M 2906 1791 
Q 2906 2416 2648 2759 
Q 2391 3103 1925 3103 
Q 1463 3103 1205 2759 
Q 947 2416 947 1791 
Q 947 1169 1205 825 
Q 1463 481 1925 481 
Q 2391 481 2648 825 
Q 2906 1169 2906 1791 
z
M 3481 434 
Q 3481 -459 3084 -895 
Q 2688 -1331 1869 -1331 
Q 1566 -1331 1297 -1286 
Q 1028 -1241 775 -1147 
L 775 -588 
Q 1028 -725 1275 -790 
Q 1522 -856 1778 -856 
Q 2344 -856 2625 -561 
Q 2906 -266 2906 331 
L 2906 616 
Q 2728 306 2450 153 
Q 2172 0 1784 0 
Q 1141 0 747 490 
Q 353 981 353 1791 
Q 353 2603 747 3093 
Q 1141 3584 1784 3584 
Q 2172 3584 2450 3431 
Q 2728 3278 2906 2969 
L 2906 3500 
L 3481 3500 
L 3481 434 
z
" id="DejaVuSans-67" transform="scale(0.015625)"/>
       <path d="M 2059 -325 
Q 1816 -950 1584 -1140 
Q 1353 -1331 966 -1331 
L 506 -1331 
L 506 -850 
L 844 -850 
Q 1081 -850 1212 -737 
Q 1344 -625 1503 -206 
L 1606 56 
L 191 3500 
L 800 3500 
L 1894 763 
L 2988 3500 
L 3597 3500 
L 2059 -325 
z
" id="DejaVuSans-79" transform="scale(0.015625)"/>
       <path d="M 1984 4856 
Q 1566 4138 1362 3434 
Q 1159 2731 1159 2009 
Q 1159 1288 1364 580 
Q 1569 -128 1984 -844 
L 1484 -844 
Q 1016 -109 783 600 
Q 550 1309 550 2009 
Q 550 2706 781 3412 
Q 1013 4119 1484 4856 
L 1984 4856 
z
" id="DejaVuSans-28" transform="scale(0.015625)"/>
       <path d="M 3809 666 
L 3809 1919 
L 2778 1919 
L 2778 2438 
L 4434 2438 
L 4434 434 
Q 4069 175 3628 42 
Q 3188 -91 2688 -91 
Q 1594 -91 976 548 
Q 359 1188 359 2328 
Q 359 3472 976 4111 
Q 1594 4750 2688 4750 
Q 3144 4750 3555 4637 
Q 3966 4525 4313 4306 
L 4313 3634 
Q 3963 3931 3569 4081 
Q 3175 4231 2741 4231 
Q 1884 4231 1454 3753 
Q 1025 3275 1025 2328 
Q 1025 1384 1454 906 
Q 1884 428 2741 428 
Q 3075 428 3337 486 
Q 3600 544 3809 666 
z
" id="DejaVuSans-47" transform="scale(0.015625)"/>
       <path d="M 1831 0 
L 50 4666 
L 709 4666 
L 2188 738 
L 3669 4666 
L 4325 4666 
L 2547 0 
L 1831 0 
z
" id="DejaVuSans-56" transform="scale(0.015625)"/>
       <path d="M 513 4856 
L 1013 4856 
Q 1481 4119 1714 3412 
Q 1947 2706 1947 2009 
Q 1947 1309 1714 600 
Q 1481 -109 1013 -844 
L 513 -844 
Q 928 -128 1133 580 
Q 1338 1288 1338 2009 
Q 1338 2731 1133 3434 
Q 928 4138 513 4856 
z
" id="DejaVuSans-29" transform="scale(0.015625)"/>
      </defs>
      <use xlink:href="#DejaVuSans-4f"/>
      <use x="78.710938" xlink:href="#DejaVuSans-62"/>
      <use x="142.1875" xlink:href="#DejaVuSans-73"/>
      <use x="194.287109" xlink:href="#DejaVuSans-65"/>
      <use x="255.810547" xlink:href="#DejaVuSans-72"/>
      <use x="296.923828" xlink:href="#DejaVuSans-76"/>
      <use x="356.103516" xlink:href="#DejaVuSans-65"/>
      <use x="417.626953" xlink:href="#DejaVuSans-64"/>
      <use x="481.103516" xlink:href="#DejaVuSans-20"/>
      <use x="512.890625" xlink:href="#DejaVuSans-45"/>
      <use x="576.074219" xlink:href="#DejaVuSans-6e"/>
      <use x="639.453125" xlink:href="#DejaVuSans-65"/>
      <use x="700.976562" xlink:href="#DejaVuSans-72"/>
      <use x="740.339844" xlink:href="#DejaVuSans-67"/>
      <use x="803.816406" xlink:href="#DejaVuSans-79"/>
      <use x="862.996094" xlink:href="#DejaVuSans-20"/>
      <use x="894.783203" xlink:href="#DejaVuSans-28"/>
      <use x="933.796875" xlink:href="#DejaVuSans-47"/>
      <use x="1011.287109" xlink:href="#DejaVuSans-65"/>
      <use x="1072.810547" xlink:href="#DejaVuSans-56"/>
      <use x="1141.21875" xlink:href="#DejaVuSans-29"/>
     </g>
    </g>
   </g>
   <g id="matplotlib.axis_2">
    <g id="ytick_1">
     <g id="line2d_7">
      <defs>
       <path d="M 0 0 
L -3.5 0 
" id="m8c833e7615" style="stroke:#000000;stroke-width:0.8;"/>
      </defs>
      <g>
       <use style="stroke:#000000;stroke-width:0.8;" x="126" xlink:href="#m8c833e7615" y="847.407273"/>
      </g>
     </g>
     <g id="text_8">
      <!-- $\mathdefault{10^{0}}$ -->
      <g transform="translate(48.6 862.604148)scale(0.4 -0.4)">
       <use transform="translate(0 0.765625)" xlink:href="#DejaVuSans-31"/>
       <use transform="translate(63.623047 0.765625)" xlink:href="#DejaVuSans-30"/>
       <use transform="translate(128.203125 39.046875)scale(0.7)" xlink:href="#DejaVuSans-30"/>
      </g>
     </g>
    </g>
    <g id="ytick_2">
     <g id="line2d_8">
      <g>
       <use style="stroke:#000000;stroke-width:0.8;" x="126" xlink:href="#m8c833e7615" y="659.512844"/>
      </g>
     </g>
     <g id="text_9">
      <!-- $\mathdefault{10^{1}}$ -->
      <g transform="translate(48.6 674.709719)scale(0.4 -0.4)">
       <use transform="translate(0 0.684375)" xlink:href="#DejaVuSans-31"/>
       <use transform="translate(63.623047 0.684375)" xlink:href="#DejaVuSans-30"/>
       <use transform="translate(128.203125 38.965625)scale(0.7)" xlink:href="#DejaVuSans-31"/>
      </g>
     </g>
    </g>
    <g id="ytick_3">
     <g id="line2d_9">
      <g>
       <use style="stroke:#000000;stroke-width:0.8;" x="126" xlink:href="#m8c833e7615" y="471.618415"/>
      </g>
     </g>
     <g id="text_10">
      <!-- $\mathdefault{10^{2}}$ -->
      <g transform="translate(48.6 486.81529)scale(0.4 -0.4)">
       <use transform="translate(0 0.765625)" xlink:href="#DejaVuSans-31"/>
       <use transform="translate(63.623047 0.765625)" xlink:href="#DejaVuSans-30"/>
       <use transform="translate(128.203125 39.046875)scale(0.7)" xlink:href="#DejaVuSans-32"/>
      </g>
     </g>
    </g>
    <g id="ytick_4">
     <g id="line2d_10">
      <g>
       <use style="stroke:#000000;stroke-width:0.8;" x="126" xlink:href="#m8c833e7615" y="283.723987"/>
      </g>
     </g>
     <g id="text_11">
      <!-- $\mathdefault{10^{3}}$ -->
      <g transform="translate(48.6 298.920862)scale(0.4 -0.4)">
       <defs>
        <path d="M 2597 2516 
Q 3050 2419 3304 2112 
Q 3559 1806 3559 1356 
Q 3559 666 3084 287 
Q 2609 -91 1734 -91 
Q 1441 -91 1130 -33 
Q 819 25 488 141 
L 488 750 
Q 750 597 1062 519 
Q 1375 441 1716 441 
Q 2309 441 2620 675 
Q 2931 909 2931 1356 
Q 2931 1769 2642 2001 
Q 2353 2234 1838 2234 
L 1294 2234 
L 1294 2753 
L 1863 2753 
Q 2328 2753 2575 2939 
Q 2822 3125 2822 3475 
Q 2822 3834 2567 4026 
Q 2313 4219 1838 4219 
Q 1578 4219 1281 4162 
Q 984 4106 628 3988 
L 628 4550 
Q 988 4650 1302 4700 
Q 1616 4750 1894 4750 
Q 2613 4750 3031 4423 
Q 3450 4097 3450 3541 
Q 3450 3153 3228 2886 
Q 3006 2619 2597 2516 
z
" id="DejaVuSans-33" transform="scale(0.015625)"/>
       </defs>
       <use transform="translate(0 0.765625)" xlink:href="#DejaVuSans-31"/>
       <use transform="translate(63.623047 0.765625)" xlink:href="#DejaVuSans-30"/>
       <use transform="translate(128.203125 39.046875)scale(0.7)" xlink:href="#DejaVuSans-33"/>
      </g>
     </g>
    </g>
    <g id="ytick_5">
     <g id="line2d_11">
      <defs>
       <path d="M 0 0 
L -2 0 
" id="m27b7f37917" style="stroke:#000000;stroke-width:0.6;"/>
      </defs>
      <g>
       <use style="stroke:#000000;stroke-width:0.6;" x="126" xlink:href="#m27b7f37917" y="876.512488"/>
      </g>
     </g>
    </g>
    <g id="ytick_6">
     <g id="line2d_12">
      <g>
       <use style="stroke:#000000;stroke-width:0.6;" x="126" xlink:href="#m27b7f37917" y="865.616124"/>
      </g>
     </g>
    </g>
    <g id="ytick_7">
     <g id="line2d_13">
      <g>
       <use style="stroke:#000000;stroke-width:0.6;" x="126" xlink:href="#m27b7f37917" y="856.00485"/>
      </g>
     </g>
    </g>
    <g id="ytick_8">
     <g id="line2d_14">
      <g>
       <use style="stroke:#000000;stroke-width:0.6;" x="126" xlink:href="#m27b7f37917" y="790.845414"/>
      </g>
     </g>
    </g>
    <g id="ytick_9">
     <g id="line2d_15">
      <g>
       <use style="stroke:#000000;stroke-width:0.6;" x="126" xlink:href="#m27b7f37917" y="757.758847"/>
      </g>
     </g>
    </g>
    <g id="ytick_10">
     <g id="line2d_16">
      <g>
       <use style="stroke:#000000;stroke-width:0.6;" x="126" xlink:href="#m27b7f37917" y="734.283555"/>
      </g>
     </g>
    </g>
    <g id="ytick_11">
     <g id="line2d_17">
      <g>
       <use style="stroke:#000000;stroke-width:0.6;" x="126" xlink:href="#m27b7f37917" y="716.074703"/>
      </g>
     </g>
    </g>
    <g id="ytick_12">
     <g id="line2d_18">
      <g>
       <use style="stroke:#000000;stroke-width:0.6;" x="126" xlink:href="#m27b7f37917" y="701.196988"/>
      </g>
     </g>
    </g>
    <g id="ytick_13">
     <g id="line2d_19">
      <g>
       <use style="stroke:#000000;stroke-width:0.6;" x="126" xlink:href="#m27b7f37917" y="688.618059"/>
      </g>
     </g>
    </g>
    <g id="ytick_14">
     <g id="line2d_20">
      <g>
       <use style="stroke:#000000;stroke-width:0.6;" x="126" xlink:href="#m27b7f37917" y="677.721696"/>
      </g>
     </g>
    </g>
    <g id="ytick_15">
     <g id="line2d_21">
      <g>
       <use style="stroke:#000000;stroke-width:0.6;" x="126" xlink:href="#m27b7f37917" y="668.110422"/>
      </g>
     </g>
    </g>
    <g id="ytick_16">
     <g id="line2d_22">
      <g>
       <use style="stroke:#000000;stroke-width:0.6;" x="126" xlink:href="#m27b7f37917" y="602.950985"/>
      </g>
     </g>
    </g>
    <g id="ytick_17">
     <g id="line2d_23">
      <g>
       <use style="stroke:#000000;stroke-width:0.6;" x="126" xlink:href="#m27b7f37917" y="569.864418"/>
      </g>
     </g>
    </g>
    <g id="ytick_18">
     <g id="line2d_24">
      <g>
       <use style="stroke:#000000;stroke-width:0.6;" x="126" xlink:href="#m27b7f37917" y="546.389126"/>
      </g>
     </g>
    </g>
    <g id="ytick_19">
     <g id="line2d_25">
      <g>
       <use style="stroke:#000000;stroke-width:0.6;" x="126" xlink:href="#m27b7f37917" y="528.180274"/>
      </g>
     </g>
    </g>
    <g id="ytick_20">
     <g id="line2d_26">
      <g>
       <use style="stroke:#000000;stroke-width:0.6;" x="126" xlink:href="#m27b7f37917" y="513.302559"/>
      </g>
     </g>
    </g>
    <g id="ytick_21">
     <g id="line2d_27">
      <g>
       <use style="stroke:#000000;stroke-width:0.6;" x="126" xlink:href="#m27b7f37917" y="500.723631"/>
      </g>
     </g>
    </g>
    <g id="ytick_22">
     <g id="line2d_28">
      <g>
       <use style="stroke:#000000;stroke-width:0.6;" x="126" xlink:href="#m27b7f37917" y="489.827267"/>
      </g>
     </g>
    </g>
    <g id="ytick_23">
     <g id="line2d_29">
      <g>
       <use style="stroke:#000000;stroke-width:0.6;" x="126" xlink:href="#m27b7f37917" y="480.215993"/>
      </g>
     </g>
    </g>
    <g id="ytick_24">
     <g id="line2d_30">
      <g>
       <use style="stroke:#000000;stroke-width:0.6;" x="126" xlink:href="#m27b7f37917" y="415.056556"/>
      </g>
     </g>
    </g>
    <g id="ytick_25">
     <g id="line2d_31">
      <g>
       <use style="stroke:#000000;stroke-width:0.6;" x="126" xlink:href="#m27b7f37917" y="381.96999"/>
      </g>
     </g>
    </g>
    <g id="ytick_26">
     <g id="line2d_32">
      <g>
       <use style="stroke:#000000;stroke-width:0.6;" x="126" xlink:href="#m27b7f37917" y="358.494697"/>
      </g>
     </g>
    </g>
    <g id="ytick_27">
     <g id="line2d_33">
      <g>
       <use style="stroke:#000000;stroke-width:0.6;" x="126" xlink:href="#m27b7f37917" y="340.285846"/>
      </g>
     </g>
    </g>
    <g id="ytick_28">
     <g id="line2d_34">
      <g>
       <use style="stroke:#000000;stroke-width:0.6;" x="126" xlink:href="#m27b7f37917" y="325.408131"/>
      </g>
     </g>
    </g>
    <g id="ytick_29">
     <g id="line2d_35">
      <g>
       <use style="stroke:#000000;stroke-width:0.6;" x="126" xlink:href="#m27b7f37917" y="312.829202"/>
      </g>
     </g>
    </g>
    <g id="ytick_30">
     <g id="line2d_36">
      <g>
       <use style="stroke:#000000;stroke-width:0.6;" x="126" xlink:href="#m27b7f37917" y="301.932838"/>
      </g>
     </g>
    </g>
    <g id="ytick_31">
     <g id="line2d_37">
      <g>
       <use style="stroke:#000000;stroke-width:0.6;" x="126" xlink:href="#m27b7f37917" y="292.321564"/>
      </g>
     </g>
    </g>
    <g id="ytick_32">
     <g id="line2d_38">
      <g>
       <use style="stroke:#000000;stroke-width:0.6;" x="126" xlink:href="#m27b7f37917" y="227.162128"/>
      </g>
     </g>
    </g>
    <g id="ytick_33">
     <g id="line2d_39">
      <g>
       <use style="stroke:#000000;stroke-width:0.6;" x="126" xlink:href="#m27b7f37917" y="194.075561"/>
      </g>
     </g>
    </g>
    <g id="ytick_34">
     <g id="line2d_40">
      <g>
       <use style="stroke:#000000;stroke-width:0.6;" x="126" xlink:href="#m27b7f37917" y="170.600269"/>
      </g>
     </g>
    </g>
    <g id="ytick_35">
     <g id="line2d_41">
      <g>
       <use style="stroke:#000000;stroke-width:0.6;" x="126" xlink:href="#m27b7f37917" y="152.391417"/>
      </g>
     </g>
    </g>
    <g id="ytick_36">
     <g id="line2d_42">
      <g>
       <use style="stroke:#000000;stroke-width:0.6;" x="126" xlink:href="#m27b7f37917" y="137.513702"/>
      </g>
     </g>
    </g>
    <g id="ytick_37">
     <g id="line2d_43">
      <g>
       <use style="stroke:#000000;stroke-width:0.6;" x="126" xlink:href="#m27b7f37917" y="124.934773"/>
      </g>
     </g>
    </g>
    <g id="text_12">
     <!-- Events -->
     <g transform="translate(36.28125 569.195625)rotate(-90)scale(0.4 -0.4)">
      <defs>
       <path d="M 1172 4494 
L 1172 3500 
L 2356 3500 
L 2356 3053 
L 1172 3053 
L 1172 1153 
Q 1172 725 1289 603 
Q 1406 481 1766 481 
L 2356 481 
L 2356 0 
L 1766 0 
Q 1100 0 847 248 
Q 594 497 594 1153 
L 594 3053 
L 172 3053 
L 172 3500 
L 594 3500 
L 594 4494 
L 1172 4494 
z
" id="DejaVuSans-74" transform="scale(0.015625)"/>
      </defs>
      <use xlink:href="#DejaVuSans-45"/>
      <use x="63.183594" xlink:href="#DejaVuSans-76"/>
      <use x="122.363281" xlink:href="#DejaVuSans-65"/>
      <use x="183.886719" xlink:href="#DejaVuSans-6e"/>
      <use x="247.265625" xlink:href="#DejaVuSans-74"/>
      <use x="286.474609" xlink:href="#DejaVuSans-73"/>
     </g>
    </g>
   </g>
   <g id="line2d_44">
    <path clip-path="url(#p881658f050)" d="M 161.509091 1009 
L 161.509091 524.979805 
L 165.095868 524.979805 
L 165.095868 443.580975 
L 172.269421 443.580975 
L 172.269421 453.409564 
L 179.442975 453.409564 
L 179.442975 466.863584 
L 186.616529 466.863584 
L 186.616529 463.10248 
L 193.790083 463.10248 
L 193.790083 474.103933 
L 200.963636 474.103933 
L 200.963636 458.112187 
L 208.13719 458.112187 
L 208.13719 477.540294 
L 215.310744 477.540294 
L 215.310744 474.949552 
L 222.484298 474.949552 
L 222.484298 468.417946 
L 229.657851 468.417946 
L 229.657851 470.002491 
L 236.831405 470.002491 
L 236.831405 461.645272 
L 244.004959 461.645272 
L 244.004959 463.10248 
L 251.178512 463.10248 
L 251.178512 467.637064 
L 258.352066 467.637064 
L 258.352066 485.845916 
L 265.52562 485.845916 
L 265.52562 476.667542 
L 272.699174 476.667542 
L 272.699174 467.637064 
L 279.872727 467.637064 
L 279.872727 478.422481 
L 287.046281 478.422481 
L 287.046281 469.206372 
L 294.219835 469.206372 
L 294.219835 483.925791 
L 301.393388 483.925791 
L 301.393388 473.266987 
L 308.566942 473.266987 
L 308.566942 472.438538 
L 315.740496 472.438538 
L 315.740496 489.827267 
L 322.91405 489.827267 
L 322.91405 470.002491 
L 330.087603 470.002491 
L 330.087603 475.804026 
L 337.261157 475.804026 
L 337.261157 476.667542 
L 344.434711 476.667542 
L 344.434711 470.002491 
L 351.608264 470.002491 
L 351.608264 453.409564 
L 358.781818 453.409564 
L 358.781818 494.012877 
L 365.955372 494.012877 
L 365.955372 471.618415 
L 373.128926 471.618415 
L 373.128926 477.540294 
L 387.476033 477.540294 
L 387.476033 472.438538 
L 394.649587 472.438538 
L 394.649587 459.507118 
L 401.82314 459.507118 
L 401.82314 474.103933 
L 408.996694 474.103933 
L 408.996694 469.206372 
L 416.170248 469.206372 
L 416.170248 466.863584 
L 423.343802 466.863584 
L 423.343802 470.002491 
L 430.517355 470.002491 
L 430.517355 447.129426 
L 437.690909 447.129426 
L 437.690909 472.438538 
L 444.864463 472.438538 
L 444.864463 460.926311 
L 452.038017 460.926311 
L 452.038017 458.112187 
L 459.21157 458.112187 
L 459.21157 474.949552 
L 466.385124 474.949552 
L 466.385124 473.266987 
L 473.558678 473.266987 
L 473.558678 468.417946 
L 480.732231 468.417946 
L 480.732231 474.103933 
L 487.905785 474.103933 
L 487.905785 460.213629 
L 495.079339 460.213629 
L 495.079339 474.949552 
L 502.252893 474.949552 
L 502.252893 464.586185 
L 509.426446 464.586185 
L 509.426446 473.266987 
L 516.6 473.266987 
L 516.6 496.189047 
L 523.773554 496.189047 
L 523.773554 489.827267 
L 530.947107 489.827267 
L 530.947107 466.097367 
L 538.120661 466.097367 
L 538.120661 464.586185 
L 545.294215 464.586185 
L 545.294215 476.667542 
L 552.467769 476.667542 
L 552.467769 480.215993 
L 559.641322 480.215993 
L 559.641322 466.097367 
L 566.814876 466.097367 
L 566.814876 471.618415 
L 573.98843 471.618415 
L 573.98843 456.063506 
L 581.161983 456.063506 
L 581.161983 487.812312 
L 588.335537 487.812312 
L 588.335537 476.667542 
L 595.509091 476.667542 
L 595.509091 488.81357 
L 602.682645 488.81357 
L 602.682645 473.266987 
L 609.856198 473.266987 
L 609.856198 492.946176 
L 617.029752 492.946176 
L 617.029752 477.540294 
L 624.203306 477.540294 
L 624.203306 482.049812 
L 631.37686 482.049812 
L 631.37686 476.667542 
L 638.550413 476.667542 
L 638.550413 472.438538 
L 645.723967 472.438538 
L 645.723967 475.804026 
L 652.897521 475.804026 
L 652.897521 465.338278 
L 660.071074 465.338278 
L 660.071074 477.540294 
L 667.244628 477.540294 
L 667.244628 463.84096 
L 674.418182 463.84096 
L 674.418182 472.438538 
L 681.591736 472.438538 
L 681.591736 465.338278 
L 688.765289 465.338278 
L 688.765289 474.949552 
L 695.938843 474.949552 
L 695.938843 462.370623 
L 703.112397 462.370623 
L 703.112397 477.540294 
L 710.28595 477.540294 
L 710.28595 474.949552 
L 717.459504 474.949552 
L 717.459504 463.84096 
L 724.633058 463.84096 
L 724.633058 474.949552 
L 731.806612 474.949552 
L 731.806612 461.645272 
L 738.980165 461.645272 
L 738.980165 467.637064 
L 746.153719 467.637064 
L 746.153719 476.667542 
L 753.327273 476.667542 
L 753.327273 470.002491 
L 760.500826 470.002491 
L 760.500826 459.507118 
L 767.67438 459.507118 
L 767.67438 466.863584 
L 774.847934 466.863584 
L 774.847934 480.215993 
L 782.021488 480.215993 
L 782.021488 473.266987 
L 789.195041 473.266987 
L 789.195041 471.618415 
L 796.368595 471.618415 
L 796.368595 460.926311 
L 803.542149 460.926311 
L 803.542149 454.065001 
L 810.715702 454.065001 
L 810.715702 474.949552 
L 817.889256 474.949552 
L 817.889256 466.097367 
L 825.06281 466.097367 
L 825.06281 448.963245 
L 832.236364 448.963245 
L 832.236364 466.097367 
L 839.409917 466.097367 
L 839.409917 465.338278 
L 846.583471 465.338278 
L 846.583471 462.370623 
L 853.757025 462.370623 
L 853.757025 463.10248 
L 860.930579 463.10248 
L 860.930579 466.863584 
L 868.104132 466.863584 
L 868.104132 465.338278 
L 871.690909 465.338278 
L 871.690909 480.215993 
L 871.690909 480.215993 
" style="fill:none;stroke:#00bfbf;stroke-linecap:square;stroke-width:4;"/>
   </g>
   <g id="line2d_45">
    <path clip-path="url(#p881658f050)" d="M 161.509091 1009 
L 161.509091 523.425443 
L 165.095868 523.425443 
L 165.095868 437.451018 
L 172.269421 437.451018 
L 172.269421 464.586185 
L 179.442975 464.586185 
L 179.442975 466.863584 
L 186.616529 466.863584 
L 186.616529 479.31431 
L 193.790083 479.31431 
L 193.790083 467.637064 
L 200.963636 467.637064 
L 200.963636 451.474259 
L 208.13719 451.474259 
L 208.13719 476.667542 
L 215.310744 476.667542 
L 215.310744 465.338278 
L 222.484298 465.338278 
L 222.484298 456.7407 
L 229.657851 456.7407 
L 229.657851 482.049812 
L 236.831405 482.049812 
L 236.831405 464.586185 
L 244.004959 464.586185 
L 244.004959 481.127751 
L 251.178512 481.127751 
L 251.178512 467.637064 
L 258.352066 467.637064 
L 258.352066 468.417946 
L 272.699174 468.417946 
L 272.699174 479.31431 
L 279.872727 479.31431 
L 279.872727 470.806453 
L 287.046281 470.806453 
L 287.046281 483.925791 
L 294.219835 483.925791 
L 294.219835 462.370623 
L 301.393388 462.370623 
L 301.393388 472.438538 
L 308.566942 472.438538 
L 308.566942 463.10248 
L 322.91405 463.10248 
L 322.91405 466.863584 
L 330.087603 466.863584 
L 330.087603 471.618415 
L 337.261157 471.618415 
L 337.261157 467.637064 
L 344.434711 467.637064 
L 344.434711 463.84096 
L 351.608264 463.84096 
L 351.608264 482.049812 
L 358.781818 482.049812 
L 358.781818 443.004284 
L 365.955372 443.004284 
L 365.955372 467.637064 
L 373.128926 467.637064 
L 373.128926 461.645272 
L 380.302479 461.645272 
L 380.302479 463.84096 
L 387.476033 463.84096 
L 387.476033 474.103933 
L 394.649587 474.103933 
L 394.649587 467.637064 
L 401.82314 467.637064 
L 401.82314 459.507118 
L 408.996694 459.507118 
L 408.996694 477.540294 
L 416.170248 477.540294 
L 416.170248 458.806672 
L 423.343802 458.806672 
L 423.343802 472.438538 
L 430.517355 472.438538 
L 430.517355 469.206372 
L 437.690909 469.206372 
L 437.690909 470.806453 
L 444.864463 470.806453 
L 444.864463 475.804026 
L 452.038017 475.804026 
L 452.038017 460.926311 
L 459.21157 460.926311 
L 459.21157 482.982411 
L 466.385124 482.982411 
L 466.385124 458.112187 
L 473.558678 458.112187 
L 473.558678 474.949552 
L 480.732231 474.949552 
L 480.732231 456.063506 
L 487.905785 456.063506 
L 487.905785 478.422481 
L 495.079339 478.422481 
L 495.079339 470.806453 
L 502.252893 470.806453 
L 502.252893 463.84096 
L 509.426446 463.84096 
L 509.426446 460.213629 
L 516.6 460.213629 
L 516.6 462.370623 
L 523.773554 462.370623 
L 523.773554 463.84096 
L 530.947107 463.84096 
L 530.947107 459.507118 
L 538.120661 459.507118 
L 538.120661 462.370623 
L 545.294215 462.370623 
L 545.294215 478.422481 
L 552.467769 478.422481 
L 552.467769 481.127751 
L 559.641322 481.127751 
L 559.641322 470.002491 
L 566.814876 470.002491 
L 566.814876 496.189047 
L 573.98843 496.189047 
L 573.98843 471.618415 
L 581.161983 471.618415 
L 581.161983 481.127751 
L 588.335537 481.127751 
L 588.335537 460.926311 
L 595.509091 460.926311 
L 595.509091 473.266987 
L 602.682645 473.266987 
L 602.682645 463.84096 
L 609.856198 463.84096 
L 609.856198 469.206372 
L 617.029752 469.206372 
L 617.029752 451.474259 
L 624.203306 451.474259 
L 624.203306 476.667542 
L 631.37686 476.667542 
L 631.37686 469.206372 
L 645.723967 469.206372 
L 645.723967 460.926311 
L 652.897521 460.926311 
L 652.897521 463.84096 
L 660.071074 463.84096 
L 660.071074 465.338278 
L 667.244628 465.338278 
L 667.244628 476.667542 
L 674.418182 476.667542 
L 674.418182 485.845916 
L 681.591736 485.845916 
L 681.591736 480.215993 
L 688.765289 480.215993 
L 688.765289 465.338278 
L 695.938843 465.338278 
L 695.938843 476.667542 
L 703.112397 476.667542 
L 703.112397 472.438538 
L 710.28595 472.438538 
L 710.28595 468.417946 
L 717.459504 468.417946 
L 717.459504 471.618415 
L 724.633058 471.618415 
L 724.633058 487.812312 
L 731.806612 487.812312 
L 731.806612 480.215993 
L 738.980165 480.215993 
L 738.980165 461.645272 
L 746.153719 461.645272 
L 746.153719 460.213629 
L 753.327273 460.213629 
L 753.327273 478.422481 
L 760.500826 478.422481 
L 760.500826 468.417946 
L 767.67438 468.417946 
L 767.67438 460.213629 
L 774.847934 460.213629 
L 774.847934 466.097367 
L 782.021488 466.097367 
L 782.021488 456.7407 
L 789.195041 456.7407 
L 789.195041 471.618415 
L 796.368595 471.618415 
L 796.368595 474.949552 
L 803.542149 474.949552 
L 803.542149 471.618415 
L 810.715702 471.618415 
L 810.715702 463.10248 
L 817.889256 463.10248 
L 817.889256 471.618415 
L 825.06281 471.618415 
L 825.06281 463.10248 
L 832.236364 463.10248 
L 832.236364 471.618415 
L 839.409917 471.618415 
L 839.409917 466.097367 
L 846.583471 466.097367 
L 846.583471 467.637064 
L 853.757025 467.637064 
L 853.757025 475.804026 
L 860.930579 475.804026 
L 860.930579 517.48817 
L 868.104132 517.48817 
L 868.104132 591.546199 
L 871.690909 591.546199 
L 871.690909 677.721696 
L 871.690909 677.721696 
" style="fill:none;stroke:#bf00bf;stroke-linecap:square;stroke-width:4;"/>
   </g>
   <g id="line2d_46">
    <path clip-path="url(#p881658f050)" d="M 161.509091 790.845414 
L 161.509091 155.552727 
L 165.095868 155.552727 
L 165.095868 353.547636 
L 172.269421 353.547636 
L 172.269421 403.29775 
L 179.442975 403.29775 
L 179.442975 406.909026 
L 186.616529 406.909026 
L 186.616529 420.978435 
L 193.790083 420.978435 
L 193.790083 416.705128 
L 200.963636 416.705128 
L 200.963636 425.487953 
L 208.13719 425.487953 
L 208.13719 433.265408 
L 215.310744 433.265408 
L 215.310744 429.771231 
L 222.484298 429.771231 
L 222.484298 426.890879 
L 229.657851 426.890879 
L 229.657851 432.756986 
L 236.831405 432.756986 
L 236.831405 430.261332 
L 244.004959 430.261332 
L 244.004959 438.531849 
L 251.178512 438.531849 
L 251.178512 441.862985 
L 258.352066 441.862985 
L 258.352066 428.318347 
L 265.52562 428.318347 
L 265.52562 435.85615 
L 272.699174 435.85615 
L 272.699174 453.409564 
L 279.872727 453.409564 
L 279.872727 452.114275 
L 287.046281 452.114275 
L 287.046281 456.7407 
L 294.219835 456.7407 
L 294.219835 454.065001 
L 301.393388 454.065001 
L 301.393388 459.507118 
L 308.566942 459.507118 
L 308.566942 475.804026 
L 315.740496 475.804026 
L 315.740496 469.206372 
L 322.91405 469.206372 
L 322.91405 470.002491 
L 330.087603 470.002491 
L 330.087603 474.949552 
L 344.434711 474.949552 
L 344.434711 482.982411 
L 351.608264 482.982411 
L 351.608264 490.853715 
L 365.955372 490.853715 
L 365.955372 504.297991 
L 373.128926 504.297991 
L 373.128926 499.566143 
L 380.302479 499.566143 
L 380.302479 495.093708 
L 394.649587 495.093708 
L 394.649587 503.089058 
L 401.82314 503.089058 
L 401.82314 511.953743 
L 408.996694 511.953743 
L 408.996694 518.932482 
L 416.170248 518.932482 
L 416.170248 503.089058 
L 423.343802 503.089058 
L 423.343802 528.180274 
L 430.517355 528.180274 
L 430.517355 534.98434 
L 437.690909 534.98434 
L 437.690909 540.48765 
L 444.864463 540.48765 
L 444.864463 514.674046 
L 452.038017 514.674046 
L 452.038017 531.511411 
L 466.385124 531.511411 
L 466.385124 542.407775 
L 473.558678 542.407775 
L 473.558678 588.07327 
L 480.732231 588.07327 
L 480.732231 540.48765 
L 487.905785 540.48765 
L 487.905785 554.986703 
L 495.079339 554.986703 
L 495.079339 584.742133 
L 502.252893 584.742133 
L 502.252893 616.212776 
L 509.426446 616.212776 
L 509.426446 562.086964 
L 516.6 562.086964 
L 516.6 598.969634 
L 523.773554 598.969634 
L 523.773554 621.159837 
L 530.947107 621.159837 
L 530.947107 632.0562 
L 538.120661 632.0562 
L 538.120661 616.212776 
L 545.294215 616.212776 
L 545.294215 651.735389 
L 552.467769 651.735389 
L 552.467769 644.635129 
L 559.641322 644.635129 
L 559.641322 659.512844 
L 566.814876 659.512844 
L 566.814876 688.618059 
L 573.98843 688.618059 
L 573.98843 734.283555 
L 581.161983 734.283555 
L 581.161983 688.618059 
L 588.335537 688.618059 
L 588.335537 790.845414 
L 602.682645 790.845414 
L 602.682645 716.074703 
L 609.856198 716.074703 
L 609.856198 847.407273 
L 617.029752 847.407273 
L 617.029752 790.845414 
L 624.203306 790.845414 
L 624.203306 1009 
M 631.37686 1009 
L 631.37686 716.074703 
L 638.550413 716.074703 
L 638.550413 847.407273 
L 645.723967 847.407273 
L 645.723967 790.845414 
L 652.897521 790.845414 
L 652.897521 1009 
M 660.071074 1009 
L 660.071074 847.407273 
L 674.418182 847.407273 
L 674.418182 1009 
M 681.591736 1009 
L 681.591736 847.407273 
L 688.765289 847.407273 
L 688.765289 1009 
M 710.28595 1009 
L 710.28595 847.407273 
L 717.459504 847.407273 
L 717.459504 1009 
L 717.459504 1009 
" style="fill:none;stroke:#bfbf00;stroke-linecap:square;stroke-width:4;"/>
   </g>
   <g id="patch_3">
    <path d="M 126 882 
L 126 120.96 
" style="fill:none;stroke:#000000;stroke-linecap:square;stroke-linejoin:miter;stroke-width:0.8;"/>
   </g>
   <g id="patch_4">
    <path d="M 907.2 882 
L 907.2 120.96 
" style="fill:none;stroke:#000000;stroke-linecap:square;stroke-linejoin:miter;stroke-width:0.8;"/>
   </g>
   <g id="patch_5">
    <path d="M 126 882 
L 907.2 882 
" style="fill:none;stroke:#000000;stroke-linecap:square;stroke-linejoin:miter;stroke-width:0.8;"/>
   </g>
   <g id="patch_6">
    <path d="M 126 120.96 
L 907.2 120.96 
" style="fill:none;stroke:#000000;stroke-linecap:square;stroke-linejoin:miter;stroke-width:0.8;"/>
   </g>
   <g id="legend_1">
    <g id="patch_7">
     <path d="M 363.6 277.124063 
L 886.2 277.124063 
Q 892.2 277.124063 892.2 271.124063 
L 892.2 141.96 
Q 892.2 135.96 886.2 135.96 
L 363.6 135.96 
Q 357.6 135.96 357.6 141.96 
L 357.6 271.124063 
Q 357.6 277.124063 363.6 277.124063 
z
" style="fill:#ffffff;opacity:0.8;stroke:#cccccc;stroke-linejoin:miter;"/>
    </g>
    <g id="line2d_47">
     <path d="M 369.6 160.255313 
L 429.6 160.255313 
" style="fill:none;stroke:#00bfbf;stroke-linecap:square;stroke-width:4;"/>
    </g>
    <g id="line2d_48"/>
    <g id="text_13">
     <!-- $e^{+}$ DVAE -->
     <g transform="translate(453.6 170.755313)scale(0.3 -0.3)">
      <defs>
       <path d="M 3078 2063 
Q 3088 2113 3092 2166 
Q 3097 2219 3097 2272 
Q 3097 2653 2873 2875 
Q 2650 3097 2266 3097 
Q 1838 3097 1509 2826 
Q 1181 2556 1013 2059 
L 3078 2063 
z
M 3578 1613 
L 903 1613 
Q 884 1494 878 1425 
Q 872 1356 872 1306 
Q 872 872 1139 634 
Q 1406 397 1894 397 
Q 2269 397 2603 481 
Q 2938 566 3225 728 
L 3116 159 
Q 2806 34 2476 -28 
Q 2147 -91 1806 -91 
Q 1078 -91 686 257 
Q 294 606 294 1247 
Q 294 1794 489 2264 
Q 684 2734 1063 3103 
Q 1306 3334 1642 3459 
Q 1978 3584 2356 3584 
Q 2950 3584 3301 3228 
Q 3653 2872 3653 2272 
Q 3653 2128 3634 1964 
Q 3616 1800 3578 1613 
z
" id="DejaVuSans-Oblique-65" transform="scale(0.015625)"/>
       <path d="M 2944 4013 
L 2944 2272 
L 4684 2272 
L 4684 1741 
L 2944 1741 
L 2944 0 
L 2419 0 
L 2419 1741 
L 678 1741 
L 678 2272 
L 2419 2272 
L 2419 4013 
L 2944 4013 
z
" id="DejaVuSans-2b" transform="scale(0.015625)"/>
       <path d="M 1259 4147 
L 1259 519 
L 2022 519 
Q 2988 519 3436 956 
Q 3884 1394 3884 2338 
Q 3884 3275 3436 3711 
Q 2988 4147 2022 4147 
L 1259 4147 
z
M 628 4666 
L 1925 4666 
Q 3281 4666 3915 4102 
Q 4550 3538 4550 2338 
Q 4550 1131 3912 565 
Q 3275 0 1925 0 
L 628 0 
L 628 4666 
z
" id="DejaVuSans-44" transform="scale(0.015625)"/>
       <path d="M 2188 4044 
L 1331 1722 
L 3047 1722 
L 2188 4044 
z
M 1831 4666 
L 2547 4666 
L 4325 0 
L 3669 0 
L 3244 1197 
L 1141 1197 
L 716 0 
L 50 0 
L 1831 4666 
z
" id="DejaVuSans-41" transform="scale(0.015625)"/>
      </defs>
      <use transform="translate(0 0.826562)" xlink:href="#DejaVuSans-Oblique-65"/>
      <use transform="translate(66.173333 39.107812)scale(0.7)" xlink:href="#DejaVuSans-2b"/>
      <use transform="translate(127.560052 0.826562)" xlink:href="#DejaVuSans-20"/>
      <use transform="translate(159.347161 0.826562)" xlink:href="#DejaVuSans-44"/>
      <use transform="translate(236.349115 0.826562)" xlink:href="#DejaVuSans-56"/>
      <use transform="translate(304.757318 0.826562)" xlink:href="#DejaVuSans-41"/>
      <use transform="translate(373.165521 0.826562)" xlink:href="#DejaVuSans-45"/>
     </g>
    </g>
    <g id="line2d_49">
     <path d="M 369.6 204.289688 
L 429.6 204.289688 
" style="fill:none;stroke:#bf00bf;stroke-linecap:square;stroke-width:4;"/>
    </g>
    <g id="line2d_50"/>
    <g id="text_14">
     <!-- $\gamma$   DVAE -->
     <g transform="translate(453.6 214.789688)scale(0.3 -0.3)">
      <defs>
       <path d="M 1491 2950 
L 1838 788 
L 3456 3500 
L 4066 3500 
L 1972 0 
L 1713 -1331 
L 1138 -1331 
L 1397 0 
L 988 2613 
Q 925 3006 628 3006 
L 475 3006 
L 569 3500 
L 788 3500 
Q 1403 3500 1491 2950 
z
" id="DejaVuSans-Oblique-3b3" transform="scale(0.015625)"/>
      </defs>
      <use transform="translate(0 0.09375)" xlink:href="#DejaVuSans-Oblique-3b3"/>
      <use transform="translate(59.179688 0.09375)" xlink:href="#DejaVuSans-20"/>
      <use transform="translate(90.966797 0.09375)" xlink:href="#DejaVuSans-20"/>
      <use transform="translate(122.753906 0.09375)" xlink:href="#DejaVuSans-20"/>
      <use transform="translate(154.541016 0.09375)" xlink:href="#DejaVuSans-44"/>
      <use transform="translate(231.542969 0.09375)" xlink:href="#DejaVuSans-56"/>
      <use transform="translate(299.951172 0.09375)" xlink:href="#DejaVuSans-41"/>
      <use transform="translate(368.359375 0.09375)" xlink:href="#DejaVuSans-45"/>
     </g>
    </g>
    <g id="line2d_51">
     <path d="M 369.6 248.385 
L 429.6 248.385 
" style="fill:none;stroke:#bfbf00;stroke-linecap:square;stroke-width:4;"/>
    </g>
    <g id="line2d_52"/>
    <g id="text_15">
     <!-- $\pi^{+}$ DVAE -->
     <g transform="translate(453.6 258.885)scale(0.3 -0.3)">
      <defs>
       <path d="M 584 3500 
L 3938 3500 
L 3825 2925 
L 3384 2925 
L 2966 775 
Q 2922 550 2981 450 
Q 3038 353 3209 353 
Q 3256 353 3325 363 
Q 3397 369 3419 372 
L 3338 -44 
Q 3222 -84 3103 -103 
Q 2981 -122 2866 -122 
Q 2491 -122 2388 81 
Q 2284 288 2391 838 
L 2797 2925 
L 1506 2925 
L 938 0 
L 350 0 
L 919 2925 
L 472 2925 
L 584 3500 
z
" id="DejaVuSans-Oblique-3c0" transform="scale(0.015625)"/>
      </defs>
      <use transform="translate(0 0.826562)" xlink:href="#DejaVuSans-Oblique-3c0"/>
      <use transform="translate(64.671224 39.107812)scale(0.7)" xlink:href="#DejaVuSans-2b"/>
      <use transform="translate(126.057943 0.826562)" xlink:href="#DejaVuSans-20"/>
      <use transform="translate(157.845052 0.826562)" xlink:href="#DejaVuSans-44"/>
      <use transform="translate(234.847005 0.826562)" xlink:href="#DejaVuSans-56"/>
      <use transform="translate(303.255208 0.826562)" xlink:href="#DejaVuSans-41"/>
      <use transform="translate(371.663411 0.826562)" xlink:href="#DejaVuSans-45"/>
     </g>
    </g>
    <g id="patch_8">
     <path d="M 644.7 170.755313 
L 704.7 170.755313 
L 704.7 149.755313 
L 644.7 149.755313 
z
" style="fill:#00bfbf;opacity:0.4;stroke:#00bfbf;stroke-linejoin:miter;"/>
    </g>
    <g id="text_16">
     <!-- $e^{+}$ GEANT -->
     <g transform="translate(728.7 170.755313)scale(0.3 -0.3)">
      <defs>
       <path d="M 628 4666 
L 1478 4666 
L 3547 763 
L 3547 4666 
L 4159 4666 
L 4159 0 
L 3309 0 
L 1241 3903 
L 1241 0 
L 628 0 
L 628 4666 
z
" id="DejaVuSans-4e" transform="scale(0.015625)"/>
       <path d="M -19 4666 
L 3928 4666 
L 3928 4134 
L 2272 4134 
L 2272 0 
L 1638 0 
L 1638 4134 
L -19 4134 
L -19 4666 
z
" id="DejaVuSans-54" transform="scale(0.015625)"/>
      </defs>
      <use transform="translate(0 0.826562)" xlink:href="#DejaVuSans-Oblique-65"/>
      <use transform="translate(66.173333 39.107812)scale(0.7)" xlink:href="#DejaVuSans-2b"/>
      <use transform="translate(127.560052 0.826562)" xlink:href="#DejaVuSans-20"/>
      <use transform="translate(159.347161 0.826562)" xlink:href="#DejaVuSans-47"/>
      <use transform="translate(236.837396 0.826562)" xlink:href="#DejaVuSans-45"/>
      <use transform="translate(300.02099 0.826562)" xlink:href="#DejaVuSans-41"/>
      <use transform="translate(368.429193 0.826562)" xlink:href="#DejaVuSans-4e"/>
      <use transform="translate(443.23388 0.826562)" xlink:href="#DejaVuSans-54"/>
     </g>
    </g>
    <g id="patch_9">
     <path d="M 644.7 214.789688 
L 704.7 214.789688 
L 704.7 193.789688 
L 644.7 193.789688 
z
" style="fill:#bf00bf;opacity:0.4;stroke:#bf00bf;stroke-linejoin:miter;"/>
    </g>
    <g id="text_17">
     <!-- $\gamma$   GEANT -->
     <g transform="translate(728.7 214.789688)scale(0.3 -0.3)">
      <use transform="translate(0 0.78125)" xlink:href="#DejaVuSans-Oblique-3b3"/>
      <use transform="translate(59.179688 0.78125)" xlink:href="#DejaVuSans-20"/>
      <use transform="translate(90.966797 0.78125)" xlink:href="#DejaVuSans-20"/>
      <use transform="translate(122.753906 0.78125)" xlink:href="#DejaVuSans-20"/>
      <use transform="translate(154.541016 0.78125)" xlink:href="#DejaVuSans-47"/>
      <use transform="translate(232.03125 0.78125)" xlink:href="#DejaVuSans-45"/>
      <use transform="translate(295.214844 0.78125)" xlink:href="#DejaVuSans-41"/>
      <use transform="translate(363.623047 0.78125)" xlink:href="#DejaVuSans-4e"/>
      <use transform="translate(438.427734 0.78125)" xlink:href="#DejaVuSans-54"/>
     </g>
    </g>
    <g id="patch_10">
     <path d="M 644.7 258.885 
L 704.7 258.885 
L 704.7 237.885 
L 644.7 237.885 
z
" style="fill:#bfbf00;opacity:0.4;stroke:#bfbf00;stroke-linejoin:miter;"/>
    </g>
    <g id="text_18">
     <!-- $\pi^{+}$ GEANT -->
     <g transform="translate(728.7 258.885)scale(0.3 -0.3)">
      <use transform="translate(0 0.826562)" xlink:href="#DejaVuSans-Oblique-3c0"/>
      <use transform="translate(64.671224 39.107812)scale(0.7)" xlink:href="#DejaVuSans-2b"/>
      <use transform="translate(126.057943 0.826562)" xlink:href="#DejaVuSans-20"/>
      <use transform="translate(157.845052 0.826562)" xlink:href="#DejaVuSans-47"/>
      <use transform="translate(235.335286 0.826562)" xlink:href="#DejaVuSans-45"/>
      <use transform="translate(298.51888 0.826562)" xlink:href="#DejaVuSans-41"/>
      <use transform="translate(366.927083 0.826562)" xlink:href="#DejaVuSans-4e"/>
      <use transform="translate(441.731771 0.826562)" xlink:href="#DejaVuSans-54"/>
     </g>
    </g>
   </g>
  </g>
 </g>
 <defs>
  <clipPath id="p881658f050">
   <rect height="761.04" width="781.2" x="126" y="120.96"/>
  </clipPath>
 </defs>
</svg>
