<?xml version="1.0" encoding="utf-8" standalone="no"?>
<!DOCTYPE svg PUBLIC "-//W3C//DTD SVG 1.1//EN"
  "http://www.w3.org/Graphics/SVG/1.1/DTD/svg11.dtd">
<svg height="648pt" version="1.1" viewBox="0 0 1152 648" width="1152pt" xmlns="http://www.w3.org/2000/svg" xmlns:xlink="http://www.w3.org/1999/xlink">
 <metadata>
  <rdf:RDF xmlns:cc="http://creativecommons.org/ns#" xmlns:dc="http://purl.org/dc/elements/1.1/" xmlns:rdf="http://www.w3.org/1999/02/22-rdf-syntax-ns#">
   <cc:Work>
    <dc:type rdf:resource="http://purl.org/dc/dcmitype/StillImage"/>
    <dc:date>2021-09-24T23:01:27.499388</dc:date>
    <dc:format>image/svg+xml</dc:format>
    <dc:creator>
     <cc:Agent>
      <dc:title>Matplotlib v3.4.2, https://matplotlib.org/</dc:title>
     </cc:Agent>
    </dc:creator>
   </cc:Work>
  </rdf:RDF>
 </metadata>
 <defs>
  <style type="text/css">*{stroke-linecap:butt;stroke-linejoin:round;}</style>
 </defs>
 <g id="figure_1">
  <g id="patch_1">
   <path d="M 0 648 
L 1152 648 
L 1152 0 
L 0 0 
z
" style="fill:none;"/>
  </g>
  <g id="axes_1">
   <g id="patch_2">
    <path d="M 144 567 
L 1036.8 567 
L 1036.8 77.76 
L 144 77.76 
z
" style="fill:#ffffff;"/>
   </g>
   <g id="PolyCollection_1">
    <path clip-path="url(#pf9bd087ef4)" d="M 184.581818 124764.148497 
L 184.581818 285.59548 
L 184.581818 285.59548 
L 184.581818 420.542432 
L 188.79504 420.542432 
L 188.79504 432.580534 
L 197.077044 432.580534 
L 197.077044 426.226399 
L 205.359048 426.226399 
L 205.359048 426.226399 
L 213.641051 426.226399 
L 213.641051 402.390497 
L 221.923055 402.390497 
L 221.923055 398.668483 
L 230.205059 398.668483 
L 230.205059 380.516548 
L 238.487063 380.516548 
L 238.487063 375.608822 
L 246.769066 375.608822 
L 246.769066 406.388458 
L 255.05107 406.388458 
L 255.05107 410.706586 
L 263.333074 410.706586 
L 263.333074 383.14867 
L 271.615077 383.14867 
L 271.615077 410.706586 
L 279.897081 410.706586 
L 279.897081 375.608822 
L 288.179085 375.608822 
L 288.179085 395.186772 
L 296.461089 395.186772 
L 296.461089 380.516548 
L 304.743092 380.516548 
L 304.743092 366.958689 
L 313.025096 366.958689 
L 313.025096 373.312824 
L 321.3071 373.312824 
L 321.3071 347.120749 
L 329.589103 347.120749 
L 329.589103 359.505783 
L 337.871107 359.505783 
L 337.871107 352.958633 
L 346.153111 352.958633 
L 346.153111 349.960762 
L 354.435115 349.960762 
L 354.435115 354.522446 
L 362.717118 354.522446 
L 362.717118 326.648121 
L 370.999122 326.648121 
L 370.999122 338.21506 
L 379.281126 338.21506 
L 379.281126 329.564928 
L 387.563129 329.564928 
L 387.563129 328.575032 
L 395.845133 328.575032 
L 395.845133 314.799642 
L 404.127137 314.799642 
L 404.127137 320.39925 
L 412.40914 320.39925 
L 412.40914 327.602974 
L 420.691144 327.602974 
L 420.691144 310.423097 
L 428.973148 310.423097 
L 428.973148 329.564928 
L 437.255152 329.564928 
L 437.255152 314.045115 
L 445.537155 314.045115 
L 445.537155 309.039745 
L 453.819159 309.039745 
L 453.819159 307.029035 
L 462.101163 307.029035 
L 462.101163 298.525301 
L 470.383166 298.525301 
L 470.383166 300.238074 
L 478.66517 300.238074 
L 478.66517 294.728413 
L 486.947174 294.728413 
L 486.947174 286.039497 
L 495.229178 286.039497 
L 495.229178 277.787138 
L 503.511181 277.787138 
L 503.511181 288.316113 
L 511.793185 288.316113 
L 511.793185 277.787138 
L 520.075189 277.787138 
L 520.075189 276.278011 
L 528.357192 276.278011 
L 528.357192 267.696821 
L 536.639196 267.696821 
L 536.639196 264.613251 
L 544.9212 264.613251 
L 544.9212 260.019175 
L 553.203204 260.019175 
L 553.203204 265.519958 
L 561.485207 265.519958 
L 561.485207 260.851291 
L 569.767211 260.851291 
L 569.767211 257.860975 
L 578.049215 257.860975 
L 578.049215 251.624502 
L 586.331218 251.624502 
L 586.331218 254.033286 
L 594.613222 254.033286 
L 594.613222 244.361915 
L 602.895226 244.361915 
L 602.895226 243.140403 
L 611.17723 243.140403 
L 611.17723 241.945938 
L 619.459233 241.945938 
L 619.459233 234.252222 
L 627.741237 234.252222 
L 627.741237 231.425343 
L 636.023241 231.425343 
L 636.023241 226.033776 
L 644.305244 226.033776 
L 644.305244 225.161286 
L 652.587248 225.161286 
L 652.587248 220.07199 
L 660.869252 220.07199 
L 660.869252 217.258909 
L 669.151256 217.258909 
L 669.151256 213.180912 
L 677.433259 213.180912 
L 677.433259 212.606383 
L 685.715263 212.606383 
L 685.715263 205.646087 
L 693.997267 205.646087 
L 693.997267 199.124775 
L 702.27927 199.124775 
L 702.27927 202.239775 
L 710.561274 202.239775 
L 710.561274 226.033776 
L 718.843278 226.033776 
L 718.843278 314.045115 
L 727.125281 314.045115 
L 727.125281 544.761818 
L 735.407285 544.761818 
L 735.407285 124764.148497 
L 743.689289 124764.148497 
L 743.689289 124764.148497 
L 751.971293 124764.148497 
L 751.971293 124764.148497 
L 760.253296 124764.148497 
L 760.253296 124764.148497 
L 768.5353 124764.148497 
L 768.5353 124764.148497 
L 776.817304 124764.148497 
L 776.817304 124764.148497 
L 785.099307 124764.148497 
L 785.099307 124764.148497 
L 793.381311 124764.148497 
L 793.381311 124764.148497 
L 801.663315 124764.148497 
L 801.663315 124764.148497 
L 809.945319 124764.148497 
L 809.945319 124764.148497 
L 818.227322 124764.148497 
L 818.227322 124764.148497 
L 826.509326 124764.148497 
L 826.509326 124764.148497 
L 834.79133 124764.148497 
L 834.79133 124764.148497 
L 843.073333 124764.148497 
L 843.073333 124764.148497 
L 851.355337 124764.148497 
L 851.355337 124764.148497 
L 859.637341 124764.148497 
L 859.637341 124764.148497 
L 867.919345 124764.148497 
L 867.919345 124764.148497 
L 876.201348 124764.148497 
L 876.201348 124764.148497 
L 884.483352 124764.148497 
L 884.483352 124764.148497 
L 892.765356 124764.148497 
L 892.765356 124764.148497 
L 901.047359 124764.148497 
L 901.047359 124764.148497 
L 909.329363 124764.148497 
L 909.329363 124764.148497 
L 917.611367 124764.148497 
L 917.611367 124764.148497 
L 925.893371 124764.148497 
L 925.893371 124764.148497 
L 934.175374 124764.148497 
L 934.175374 124764.148497 
L 942.457378 124764.148497 
L 942.457378 124764.148497 
L 950.739382 124764.148497 
L 950.739382 124764.148497 
L 959.021385 124764.148497 
L 959.021385 124764.148497 
L 967.303389 124764.148497 
L 967.303389 124764.148497 
L 975.585393 124764.148497 
L 975.585393 124764.148497 
L 983.867397 124764.148497 
L 983.867397 124764.148497 
L 992.1494 124764.148497 
L 992.1494 124764.148497 
L 996.218182 124764.148497 
L 996.218182 124764.148497 
L 996.218182 124764.148497 
L 996.218182 124764.148497 
L 996.218182 124764.148497 
L 996.218182 124764.148497 
L 996.218182 124764.148497 
L 992.1494 124764.148497 
L 992.1494 124764.148497 
L 983.867397 124764.148497 
L 983.867397 124764.148497 
L 975.585393 124764.148497 
L 975.585393 124764.148497 
L 967.303389 124764.148497 
L 967.303389 124764.148497 
L 959.021385 124764.148497 
L 959.021385 124764.148497 
L 950.739382 124764.148497 
L 950.739382 124764.148497 
L 942.457378 124764.148497 
L 942.457378 124764.148497 
L 934.175374 124764.148497 
L 934.175374 124764.148497 
L 925.893371 124764.148497 
L 925.893371 124764.148497 
L 917.611367 124764.148497 
L 917.611367 124764.148497 
L 909.329363 124764.148497 
L 909.329363 124764.148497 
L 901.047359 124764.148497 
L 901.047359 124764.148497 
L 892.765356 124764.148497 
L 892.765356 124764.148497 
L 884.483352 124764.148497 
L 884.483352 124764.148497 
L 876.201348 124764.148497 
L 876.201348 124764.148497 
L 867.919345 124764.148497 
L 867.919345 124764.148497 
L 859.637341 124764.148497 
L 859.637341 124764.148497 
L 851.355337 124764.148497 
L 851.355337 124764.148497 
L 843.073333 124764.148497 
L 843.073333 124764.148497 
L 834.79133 124764.148497 
L 834.79133 124764.148497 
L 826.509326 124764.148497 
L 826.509326 124764.148497 
L 818.227322 124764.148497 
L 818.227322 124764.148497 
L 809.945319 124764.148497 
L 809.945319 124764.148497 
L 801.663315 124764.148497 
L 801.663315 124764.148497 
L 793.381311 124764.148497 
L 793.381311 124764.148497 
L 785.099307 124764.148497 
L 785.099307 124764.148497 
L 776.817304 124764.148497 
L 776.817304 124764.148497 
L 768.5353 124764.148497 
L 768.5353 124764.148497 
L 760.253296 124764.148497 
L 760.253296 124764.148497 
L 751.971293 124764.148497 
L 751.971293 124764.148497 
L 743.689289 124764.148497 
L 743.689289 124764.148497 
L 735.407285 124764.148497 
L 735.407285 124764.148497 
L 727.125281 124764.148497 
L 727.125281 124764.148497 
L 718.843278 124764.148497 
L 718.843278 124764.148497 
L 710.561274 124764.148497 
L 710.561274 124764.148497 
L 702.27927 124764.148497 
L 702.27927 124764.148497 
L 693.997267 124764.148497 
L 693.997267 124764.148497 
L 685.715263 124764.148497 
L 685.715263 124764.148497 
L 677.433259 124764.148497 
L 677.433259 124764.148497 
L 669.151256 124764.148497 
L 669.151256 124764.148497 
L 660.869252 124764.148497 
L 660.869252 124764.148497 
L 652.587248 124764.148497 
L 652.587248 124764.148497 
L 644.305244 124764.148497 
L 644.305244 124764.148497 
L 636.023241 124764.148497 
L 636.023241 124764.148497 
L 627.741237 124764.148497 
L 627.741237 124764.148497 
L 619.459233 124764.148497 
L 619.459233 124764.148497 
L 611.17723 124764.148497 
L 611.17723 124764.148497 
L 602.895226 124764.148497 
L 602.895226 124764.148497 
L 594.613222 124764.148497 
L 594.613222 124764.148497 
L 586.331218 124764.148497 
L 586.331218 124764.148497 
L 578.049215 124764.148497 
L 578.049215 124764.148497 
L 569.767211 124764.148497 
L 569.767211 124764.148497 
L 561.485207 124764.148497 
L 561.485207 124764.148497 
L 553.203204 124764.148497 
L 553.203204 124764.148497 
L 544.9212 124764.148497 
L 544.9212 124764.148497 
L 536.639196 124764.148497 
L 536.639196 124764.148497 
L 528.357192 124764.148497 
L 528.357192 124764.148497 
L 520.075189 124764.148497 
L 520.075189 124764.148497 
L 511.793185 124764.148497 
L 511.793185 124764.148497 
L 503.511181 124764.148497 
L 503.511181 124764.148497 
L 495.229178 124764.148497 
L 495.229178 124764.148497 
L 486.947174 124764.148497 
L 486.947174 124764.148497 
L 478.66517 124764.148497 
L 478.66517 124764.148497 
L 470.383166 124764.148497 
L 470.383166 124764.148497 
L 462.101163 124764.148497 
L 462.101163 124764.148497 
L 453.819159 124764.148497 
L 453.819159 124764.148497 
L 445.537155 124764.148497 
L 445.537155 124764.148497 
L 437.255152 124764.148497 
L 437.255152 124764.148497 
L 428.973148 124764.148497 
L 428.973148 124764.148497 
L 420.691144 124764.148497 
L 420.691144 124764.148497 
L 412.40914 124764.148497 
L 412.40914 124764.148497 
L 404.127137 124764.148497 
L 404.127137 124764.148497 
L 395.845133 124764.148497 
L 395.845133 124764.148497 
L 387.563129 124764.148497 
L 387.563129 124764.148497 
L 379.281126 124764.148497 
L 379.281126 124764.148497 
L 370.999122 124764.148497 
L 370.999122 124764.148497 
L 362.717118 124764.148497 
L 362.717118 124764.148497 
L 354.435115 124764.148497 
L 354.435115 124764.148497 
L 346.153111 124764.148497 
L 346.153111 124764.148497 
L 337.871107 124764.148497 
L 337.871107 124764.148497 
L 329.589103 124764.148497 
L 329.589103 124764.148497 
L 321.3071 124764.148497 
L 321.3071 124764.148497 
L 313.025096 124764.148497 
L 313.025096 124764.148497 
L 304.743092 124764.148497 
L 304.743092 124764.148497 
L 296.461089 124764.148497 
L 296.461089 124764.148497 
L 288.179085 124764.148497 
L 288.179085 124764.148497 
L 279.897081 124764.148497 
L 279.897081 124764.148497 
L 271.615077 124764.148497 
L 271.615077 124764.148497 
L 263.333074 124764.148497 
L 263.333074 124764.148497 
L 255.05107 124764.148497 
L 255.05107 124764.148497 
L 246.769066 124764.148497 
L 246.769066 124764.148497 
L 238.487063 124764.148497 
L 238.487063 124764.148497 
L 230.205059 124764.148497 
L 230.205059 124764.148497 
L 221.923055 124764.148497 
L 221.923055 124764.148497 
L 213.641051 124764.148497 
L 213.641051 124764.148497 
L 205.359048 124764.148497 
L 205.359048 124764.148497 
L 197.077044 124764.148497 
L 197.077044 124764.148497 
L 188.79504 124764.148497 
L 188.79504 124764.148497 
L 184.581818 124764.148497 
L 184.581818 124764.148497 
L 184.581818 124764.148497 
z
" style="fill:#800080;fill-opacity:0.3;stroke:#800080;stroke-opacity:0.3;"/>
   </g>
   <g id="PolyCollection_2">
    <path clip-path="url(#pf9bd087ef4)" d="M 184.581818 124764.148497 
L 184.581818 312.567 
L 184.581818 312.567 
L 184.581818 410.706586 
L 188.79504 410.706586 
L 188.79504 426.226399 
L 197.077044 426.226399 
L 197.077044 402.390497 
L 205.359048 402.390497 
L 205.359048 402.390497 
L 213.641051 402.390497 
L 213.641051 385.91583 
L 221.923055 385.91583 
L 221.923055 406.388458 
L 230.205059 406.388458 
L 230.205059 406.388458 
L 238.487063 406.388458 
L 238.487063 383.14867 
L 246.769066 383.14867 
L 246.769066 366.958689 
L 255.05107 366.958689 
L 255.05107 368.994697 
L 263.333074 368.994697 
L 263.333074 380.516548 
L 271.615077 380.516548 
L 271.615077 366.958689 
L 279.897081 366.958689 
L 279.897081 375.608822 
L 288.179085 375.608822 
L 288.179085 361.274722 
L 296.461089 361.274722 
L 296.461089 373.312824 
L 304.743092 373.312824 
L 304.743092 373.312824 
L 313.025096 373.312824 
L 313.025096 373.312824 
L 321.3071 373.312824 
L 321.3071 366.958689 
L 329.589103 366.958689 
L 329.589103 356.132948 
L 337.871107 356.132948 
L 337.871107 348.522069 
L 346.153111 348.522069 
L 346.153111 345.754909 
L 354.435115 345.754909 
L 354.435115 349.960762 
L 362.717118 349.960762 
L 362.717118 373.312824 
L 370.999122 373.312824 
L 370.999122 345.754909 
L 379.281126 345.754909 
L 379.281126 341.853368 
L 387.563129 341.853368 
L 387.563129 333.716806 
L 395.845133 333.716806 
L 395.845133 329.564928 
L 404.127137 329.564928 
L 404.127137 327.602974 
L 412.40914 327.602974 
L 412.40914 316.341112 
L 420.691144 316.341112 
L 420.691144 320.39925 
L 428.973148 320.39925 
L 428.973148 312.567 
L 437.255152 312.567 
L 437.255152 303.835926 
L 445.537155 303.835926 
L 445.537155 314.799642 
L 453.819159 314.799642 
L 453.819159 305.729025 
L 462.101163 305.729025 
L 462.101163 302.609787 
L 470.383166 302.609787 
L 470.383166 299.090205 
L 478.66517 299.090205 
L 478.66517 296.865238 
L 486.947174 296.865238 
L 486.947174 302.007012 
L 495.229178 302.007012 
L 495.229178 286.487199 
L 503.511181 286.487199 
L 503.511181 291.673948 
L 511.793185 291.673948 
L 511.793185 276.278011 
L 520.075189 276.278011 
L 520.075189 281.755676 
L 528.357192 281.755676 
L 528.357192 276.278011 
L 536.639196 276.278011 
L 536.639196 266.442165 
L 544.9212 266.442165 
L 544.9212 259.199699 
L 553.203204 259.199699 
L 553.203204 263.427537 
L 561.485207 263.427537 
L 561.485207 258.929283 
L 569.767211 258.929283 
L 569.767211 258.392485 
L 578.049215 258.392485 
L 578.049215 251.389435 
L 586.331218 251.389435 
L 586.331218 245.611727 
L 594.613222 245.611727 
L 594.613222 246.034849 
L 602.895226 246.034849 
L 602.895226 242.539865 
L 611.17723 242.539865 
L 611.17723 234.423213 
L 619.459233 234.423213 
L 619.459233 236.696877 
L 627.741237 236.696877 
L 627.741237 226.47537 
L 636.023241 226.47537 
L 636.023241 222.21412 
L 644.305244 222.21412 
L 644.305244 220.335151 
L 652.587248 220.335151 
L 652.587248 224.302682 
L 660.869252 224.302682 
L 660.869252 215.542243 
L 669.151256 215.542243 
L 669.151256 215.061636 
L 677.433259 215.061636 
L 677.433259 211.587402 
L 685.715263 211.587402 
L 685.715263 205.345541 
L 693.997267 205.345541 
L 693.997267 203.383587 
L 702.27927 203.383587 
L 702.27927 207.798136 
L 710.561274 207.798136 
L 710.561274 222.077715 
L 718.843278 222.077715 
L 718.843278 276.278011 
L 727.125281 276.278011 
L 727.125281 124764.148497 
L 735.407285 124764.148497 
L 735.407285 124764.148497 
L 743.689289 124764.148497 
L 743.689289 124764.148497 
L 751.971293 124764.148497 
L 751.971293 124764.148497 
L 760.253296 124764.148497 
L 760.253296 124764.148497 
L 768.5353 124764.148497 
L 768.5353 124764.148497 
L 776.817304 124764.148497 
L 776.817304 124764.148497 
L 785.099307 124764.148497 
L 785.099307 124764.148497 
L 793.381311 124764.148497 
L 793.381311 124764.148497 
L 801.663315 124764.148497 
L 801.663315 124764.148497 
L 809.945319 124764.148497 
L 809.945319 124764.148497 
L 818.227322 124764.148497 
L 818.227322 124764.148497 
L 826.509326 124764.148497 
L 826.509326 124764.148497 
L 834.79133 124764.148497 
L 834.79133 124764.148497 
L 843.073333 124764.148497 
L 843.073333 124764.148497 
L 851.355337 124764.148497 
L 851.355337 124764.148497 
L 859.637341 124764.148497 
L 859.637341 124764.148497 
L 867.919345 124764.148497 
L 867.919345 124764.148497 
L 876.201348 124764.148497 
L 876.201348 124764.148497 
L 884.483352 124764.148497 
L 884.483352 124764.148497 
L 892.765356 124764.148497 
L 892.765356 124764.148497 
L 901.047359 124764.148497 
L 901.047359 124764.148497 
L 909.329363 124764.148497 
L 909.329363 124764.148497 
L 917.611367 124764.148497 
L 917.611367 124764.148497 
L 925.893371 124764.148497 
L 925.893371 124764.148497 
L 934.175374 124764.148497 
L 934.175374 124764.148497 
L 942.457378 124764.148497 
L 942.457378 124764.148497 
L 950.739382 124764.148497 
L 950.739382 124764.148497 
L 959.021385 124764.148497 
L 959.021385 124764.148497 
L 967.303389 124764.148497 
L 967.303389 124764.148497 
L 975.585393 124764.148497 
L 975.585393 124764.148497 
L 983.867397 124764.148497 
L 983.867397 124764.148497 
L 992.1494 124764.148497 
L 992.1494 124764.148497 
L 996.218182 124764.148497 
L 996.218182 124764.148497 
L 996.218182 124764.148497 
L 996.218182 124764.148497 
L 996.218182 124764.148497 
L 996.218182 124764.148497 
L 996.218182 124764.148497 
L 992.1494 124764.148497 
L 992.1494 124764.148497 
L 983.867397 124764.148497 
L 983.867397 124764.148497 
L 975.585393 124764.148497 
L 975.585393 124764.148497 
L 967.303389 124764.148497 
L 967.303389 124764.148497 
L 959.021385 124764.148497 
L 959.021385 124764.148497 
L 950.739382 124764.148497 
L 950.739382 124764.148497 
L 942.457378 124764.148497 
L 942.457378 124764.148497 
L 934.175374 124764.148497 
L 934.175374 124764.148497 
L 925.893371 124764.148497 
L 925.893371 124764.148497 
L 917.611367 124764.148497 
L 917.611367 124764.148497 
L 909.329363 124764.148497 
L 909.329363 124764.148497 
L 901.047359 124764.148497 
L 901.047359 124764.148497 
L 892.765356 124764.148497 
L 892.765356 124764.148497 
L 884.483352 124764.148497 
L 884.483352 124764.148497 
L 876.201348 124764.148497 
L 876.201348 124764.148497 
L 867.919345 124764.148497 
L 867.919345 124764.148497 
L 859.637341 124764.148497 
L 859.637341 124764.148497 
L 851.355337 124764.148497 
L 851.355337 124764.148497 
L 843.073333 124764.148497 
L 843.073333 124764.148497 
L 834.79133 124764.148497 
L 834.79133 124764.148497 
L 826.509326 124764.148497 
L 826.509326 124764.148497 
L 818.227322 124764.148497 
L 818.227322 124764.148497 
L 809.945319 124764.148497 
L 809.945319 124764.148497 
L 801.663315 124764.148497 
L 801.663315 124764.148497 
L 793.381311 124764.148497 
L 793.381311 124764.148497 
L 785.099307 124764.148497 
L 785.099307 124764.148497 
L 776.817304 124764.148497 
L 776.817304 124764.148497 
L 768.5353 124764.148497 
L 768.5353 124764.148497 
L 760.253296 124764.148497 
L 760.253296 124764.148497 
L 751.971293 124764.148497 
L 751.971293 124764.148497 
L 743.689289 124764.148497 
L 743.689289 124764.148497 
L 735.407285 124764.148497 
L 735.407285 124764.148497 
L 727.125281 124764.148497 
L 727.125281 124764.148497 
L 718.843278 124764.148497 
L 718.843278 124764.148497 
L 710.561274 124764.148497 
L 710.561274 124764.148497 
L 702.27927 124764.148497 
L 702.27927 124764.148497 
L 693.997267 124764.148497 
L 693.997267 124764.148497 
L 685.715263 124764.148497 
L 685.715263 124764.148497 
L 677.433259 124764.148497 
L 677.433259 124764.148497 
L 669.151256 124764.148497 
L 669.151256 124764.148497 
L 660.869252 124764.148497 
L 660.869252 124764.148497 
L 652.587248 124764.148497 
L 652.587248 124764.148497 
L 644.305244 124764.148497 
L 644.305244 124764.148497 
L 636.023241 124764.148497 
L 636.023241 124764.148497 
L 627.741237 124764.148497 
L 627.741237 124764.148497 
L 619.459233 124764.148497 
L 619.459233 124764.148497 
L 611.17723 124764.148497 
L 611.17723 124764.148497 
L 602.895226 124764.148497 
L 602.895226 124764.148497 
L 594.613222 124764.148497 
L 594.613222 124764.148497 
L 586.331218 124764.148497 
L 586.331218 124764.148497 
L 578.049215 124764.148497 
L 578.049215 124764.148497 
L 569.767211 124764.148497 
L 569.767211 124764.148497 
L 561.485207 124764.148497 
L 561.485207 124764.148497 
L 553.203204 124764.148497 
L 553.203204 124764.148497 
L 544.9212 124764.148497 
L 544.9212 124764.148497 
L 536.639196 124764.148497 
L 536.639196 124764.148497 
L 528.357192 124764.148497 
L 528.357192 124764.148497 
L 520.075189 124764.148497 
L 520.075189 124764.148497 
L 511.793185 124764.148497 
L 511.793185 124764.148497 
L 503.511181 124764.148497 
L 503.511181 124764.148497 
L 495.229178 124764.148497 
L 495.229178 124764.148497 
L 486.947174 124764.148497 
L 486.947174 124764.148497 
L 478.66517 124764.148497 
L 478.66517 124764.148497 
L 470.383166 124764.148497 
L 470.383166 124764.148497 
L 462.101163 124764.148497 
L 462.101163 124764.148497 
L 453.819159 124764.148497 
L 453.819159 124764.148497 
L 445.537155 124764.148497 
L 445.537155 124764.148497 
L 437.255152 124764.148497 
L 437.255152 124764.148497 
L 428.973148 124764.148497 
L 428.973148 124764.148497 
L 420.691144 124764.148497 
L 420.691144 124764.148497 
L 412.40914 124764.148497 
L 412.40914 124764.148497 
L 404.127137 124764.148497 
L 404.127137 124764.148497 
L 395.845133 124764.148497 
L 395.845133 124764.148497 
L 387.563129 124764.148497 
L 387.563129 124764.148497 
L 379.281126 124764.148497 
L 379.281126 124764.148497 
L 370.999122 124764.148497 
L 370.999122 124764.148497 
L 362.717118 124764.148497 
L 362.717118 124764.148497 
L 354.435115 124764.148497 
L 354.435115 124764.148497 
L 346.153111 124764.148497 
L 346.153111 124764.148497 
L 337.871107 124764.148497 
L 337.871107 124764.148497 
L 329.589103 124764.148497 
L 329.589103 124764.148497 
L 321.3071 124764.148497 
L 321.3071 124764.148497 
L 313.025096 124764.148497 
L 313.025096 124764.148497 
L 304.743092 124764.148497 
L 304.743092 124764.148497 
L 296.461089 124764.148497 
L 296.461089 124764.148497 
L 288.179085 124764.148497 
L 288.179085 124764.148497 
L 279.897081 124764.148497 
L 279.897081 124764.148497 
L 271.615077 124764.148497 
L 271.615077 124764.148497 
L 263.333074 124764.148497 
L 263.333074 124764.148497 
L 255.05107 124764.148497 
L 255.05107 124764.148497 
L 246.769066 124764.148497 
L 246.769066 124764.148497 
L 238.487063 124764.148497 
L 238.487063 124764.148497 
L 230.205059 124764.148497 
L 230.205059 124764.148497 
L 221.923055 124764.148497 
L 221.923055 124764.148497 
L 213.641051 124764.148497 
L 213.641051 124764.148497 
L 205.359048 124764.148497 
L 205.359048 124764.148497 
L 197.077044 124764.148497 
L 197.077044 124764.148497 
L 188.79504 124764.148497 
L 188.79504 124764.148497 
L 184.581818 124764.148497 
L 184.581818 124764.148497 
L 184.581818 124764.148497 
z
" style="fill:#0000ff;fill-opacity:0.3;stroke:#0000ff;stroke-opacity:0.3;"/>
   </g>
   <g id="PolyCollection_3">
    <path clip-path="url(#pf9bd087ef4)" d="M 184.581818 124764.148497 
L 184.581818 103.633194 
L 184.581818 103.633194 
L 184.581818 331.600935 
L 188.79504 331.600935 
L 188.79504 349.960762 
L 197.077044 349.960762 
L 197.077044 349.960762 
L 205.359048 349.960762 
L 205.359048 345.754909 
L 213.641051 345.754909 
L 213.641051 333.716806 
L 221.923055 333.716806 
L 221.923055 348.522069 
L 230.205059 348.522069 
L 230.205059 345.754909 
L 238.487063 345.754909 
L 238.487063 348.522069 
L 246.769066 348.522069 
L 246.769066 327.602974 
L 255.05107 327.602974 
L 255.05107 334.806698 
L 263.333074 334.806698 
L 263.333074 322.112022 
L 271.615077 322.112022 
L 271.615077 334.806698 
L 279.897081 334.806698 
L 279.897081 337.054848 
L 288.179085 337.054848 
L 288.179085 319.562833 
L 296.461089 319.562833 
L 296.461089 330.573327 
L 304.743092 330.573327 
L 304.743092 325.709874 
L 313.025096 325.709874 
L 313.025096 310.423097 
L 321.3071 310.423097 
L 321.3071 330.573327 
L 329.589103 330.573327 
L 329.589103 310.423097 
L 337.871107 310.423097 
L 337.871107 324.787667 
L 346.153111 324.787667 
L 346.153111 313.300995 
L 354.435115 313.300995 
L 354.435115 307.029035 
L 362.717118 307.029035 
L 362.717118 305.090583 
L 370.999122 305.090583 
L 370.999122 318.739186 
L 379.281126 318.739186 
L 379.281126 296.323045 
L 387.563129 296.323045 
L 387.563129 302.007012 
L 395.845133 302.007012 
L 395.845133 309.039745 
L 404.127137 309.039745 
L 404.127137 295.254737 
L 412.40914 295.254737 
L 412.40914 287.393906 
L 420.691144 287.393906 
L 420.691144 298.525301 
L 428.973148 298.525301 
L 428.973148 288.783196 
L 437.255152 288.783196 
L 437.255152 284.284942 
L 445.537155 284.284942 
L 445.537155 287.853039 
L 453.819159 287.853039 
L 453.819159 285.59548 
L 462.101163 285.59548 
L 462.101163 277.40588 
L 470.383166 277.40588 
L 470.383166 281.345425 
L 478.66517 281.345425 
L 478.66517 275.907234 
L 486.947174 275.907234 
L 486.947174 283.005488 
L 495.229178 283.005488 
L 495.229178 264.31437 
L 503.511181 264.31437 
L 503.511181 269.635274 
L 511.793185 269.635274 
L 511.793185 264.017137 
L 520.075189 264.017137 
L 520.075189 264.613251 
L 528.357192 264.613251 
L 528.357192 269.307323 
L 536.639196 269.307323 
L 536.639196 260.019175 
L 544.9212 260.019175 
L 544.9212 269.307323 
L 553.203204 269.307323 
L 553.203204 258.392485 
L 561.485207 258.392485 
L 561.485207 264.017137 
L 569.767211 264.017137 
L 569.767211 260.295123 
L 578.049215 260.295123 
L 578.049215 263.135137 
L 586.331218 263.135137 
L 586.331218 263.721531 
L 594.613222 263.721531 
L 594.613222 265.216026 
L 602.895226 265.216026 
L 602.895226 268.015098 
L 611.17723 268.015098 
L 611.17723 277.787138 
L 619.459233 277.787138 
L 619.459233 271.305618 
L 627.741237 271.305618 
L 627.741237 280.534165 
L 636.023241 280.534165 
L 636.023241 292.67301 
L 644.305244 292.67301 
L 644.305244 296.323045 
L 652.587248 296.323045 
L 652.587248 308.361147 
L 660.869252 308.361147 
L 660.869252 310.423097 
L 669.151256 310.423097 
L 669.151256 344.422797 
L 677.433259 344.422797 
L 677.433259 347.120749 
L 685.715263 347.120749 
L 685.715263 363.103636 
L 693.997267 363.103636 
L 693.997267 363.103636 
L 702.27927 363.103636 
L 702.27927 398.668483 
L 710.561274 398.668483 
L 710.561274 439.784258 
L 718.843278 439.784258 
L 718.843278 507.368057 
L 727.125281 507.368057 
L 727.125281 124764.148497 
L 735.407285 124764.148497 
L 735.407285 124764.148497 
L 743.689289 124764.148497 
L 743.689289 124764.148497 
L 751.971293 124764.148497 
L 751.971293 124764.148497 
L 760.253296 124764.148497 
L 760.253296 124764.148497 
L 768.5353 124764.148497 
L 768.5353 124764.148497 
L 776.817304 124764.148497 
L 776.817304 124764.148497 
L 785.099307 124764.148497 
L 785.099307 124764.148497 
L 793.381311 124764.148497 
L 793.381311 124764.148497 
L 801.663315 124764.148497 
L 801.663315 124764.148497 
L 809.945319 124764.148497 
L 809.945319 124764.148497 
L 818.227322 124764.148497 
L 818.227322 124764.148497 
L 826.509326 124764.148497 
L 826.509326 124764.148497 
L 834.79133 124764.148497 
L 834.79133 124764.148497 
L 843.073333 124764.148497 
L 843.073333 124764.148497 
L 851.355337 124764.148497 
L 851.355337 124764.148497 
L 859.637341 124764.148497 
L 859.637341 124764.148497 
L 867.919345 124764.148497 
L 867.919345 124764.148497 
L 876.201348 124764.148497 
L 876.201348 124764.148497 
L 884.483352 124764.148497 
L 884.483352 124764.148497 
L 892.765356 124764.148497 
L 892.765356 124764.148497 
L 901.047359 124764.148497 
L 901.047359 124764.148497 
L 909.329363 124764.148497 
L 909.329363 124764.148497 
L 917.611367 124764.148497 
L 917.611367 124764.148497 
L 925.893371 124764.148497 
L 925.893371 124764.148497 
L 934.175374 124764.148497 
L 934.175374 124764.148497 
L 942.457378 124764.148497 
L 942.457378 124764.148497 
L 950.739382 124764.148497 
L 950.739382 124764.148497 
L 959.021385 124764.148497 
L 959.021385 124764.148497 
L 967.303389 124764.148497 
L 967.303389 124764.148497 
L 975.585393 124764.148497 
L 975.585393 124764.148497 
L 983.867397 124764.148497 
L 983.867397 124764.148497 
L 992.1494 124764.148497 
L 992.1494 124764.148497 
L 996.218182 124764.148497 
L 996.218182 124764.148497 
L 996.218182 124764.148497 
L 996.218182 124764.148497 
L 996.218182 124764.148497 
L 996.218182 124764.148497 
L 996.218182 124764.148497 
L 992.1494 124764.148497 
L 992.1494 124764.148497 
L 983.867397 124764.148497 
L 983.867397 124764.148497 
L 975.585393 124764.148497 
L 975.585393 124764.148497 
L 967.303389 124764.148497 
L 967.303389 124764.148497 
L 959.021385 124764.148497 
L 959.021385 124764.148497 
L 950.739382 124764.148497 
L 950.739382 124764.148497 
L 942.457378 124764.148497 
L 942.457378 124764.148497 
L 934.175374 124764.148497 
L 934.175374 124764.148497 
L 925.893371 124764.148497 
L 925.893371 124764.148497 
L 917.611367 124764.148497 
L 917.611367 124764.148497 
L 909.329363 124764.148497 
L 909.329363 124764.148497 
L 901.047359 124764.148497 
L 901.047359 124764.148497 
L 892.765356 124764.148497 
L 892.765356 124764.148497 
L 884.483352 124764.148497 
L 884.483352 124764.148497 
L 876.201348 124764.148497 
L 876.201348 124764.148497 
L 867.919345 124764.148497 
L 867.919345 124764.148497 
L 859.637341 124764.148497 
L 859.637341 124764.148497 
L 851.355337 124764.148497 
L 851.355337 124764.148497 
L 843.073333 124764.148497 
L 843.073333 124764.148497 
L 834.79133 124764.148497 
L 834.79133 124764.148497 
L 826.509326 124764.148497 
L 826.509326 124764.148497 
L 818.227322 124764.148497 
L 818.227322 124764.148497 
L 809.945319 124764.148497 
L 809.945319 124764.148497 
L 801.663315 124764.148497 
L 801.663315 124764.148497 
L 793.381311 124764.148497 
L 793.381311 124764.148497 
L 785.099307 124764.148497 
L 785.099307 124764.148497 
L 776.817304 124764.148497 
L 776.817304 124764.148497 
L 768.5353 124764.148497 
L 768.5353 124764.148497 
L 760.253296 124764.148497 
L 760.253296 124764.148497 
L 751.971293 124764.148497 
L 751.971293 124764.148497 
L 743.689289 124764.148497 
L 743.689289 124764.148497 
L 735.407285 124764.148497 
L 735.407285 124764.148497 
L 727.125281 124764.148497 
L 727.125281 124764.148497 
L 718.843278 124764.148497 
L 718.843278 124764.148497 
L 710.561274 124764.148497 
L 710.561274 124764.148497 
L 702.27927 124764.148497 
L 702.27927 124764.148497 
L 693.997267 124764.148497 
L 693.997267 124764.148497 
L 685.715263 124764.148497 
L 685.715263 124764.148497 
L 677.433259 124764.148497 
L 677.433259 124764.148497 
L 669.151256 124764.148497 
L 669.151256 124764.148497 
L 660.869252 124764.148497 
L 660.869252 124764.148497 
L 652.587248 124764.148497 
L 652.587248 124764.148497 
L 644.305244 124764.148497 
L 644.305244 124764.148497 
L 636.023241 124764.148497 
L 636.023241 124764.148497 
L 627.741237 124764.148497 
L 627.741237 124764.148497 
L 619.459233 124764.148497 
L 619.459233 124764.148497 
L 611.17723 124764.148497 
L 611.17723 124764.148497 
L 602.895226 124764.148497 
L 602.895226 124764.148497 
L 594.613222 124764.148497 
L 594.613222 124764.148497 
L 586.331218 124764.148497 
L 586.331218 124764.148497 
L 578.049215 124764.148497 
L 578.049215 124764.148497 
L 569.767211 124764.148497 
L 569.767211 124764.148497 
L 561.485207 124764.148497 
L 561.485207 124764.148497 
L 553.203204 124764.148497 
L 553.203204 124764.148497 
L 544.9212 124764.148497 
L 544.9212 124764.148497 
L 536.639196 124764.148497 
L 536.639196 124764.148497 
L 528.357192 124764.148497 
L 528.357192 124764.148497 
L 520.075189 124764.148497 
L 520.075189 124764.148497 
L 511.793185 124764.148497 
L 511.793185 124764.148497 
L 503.511181 124764.148497 
L 503.511181 124764.148497 
L 495.229178 124764.148497 
L 495.229178 124764.148497 
L 486.947174 124764.148497 
L 486.947174 124764.148497 
L 478.66517 124764.148497 
L 478.66517 124764.148497 
L 470.383166 124764.148497 
L 470.383166 124764.148497 
L 462.101163 124764.148497 
L 462.101163 124764.148497 
L 453.819159 124764.148497 
L 453.819159 124764.148497 
L 445.537155 124764.148497 
L 445.537155 124764.148497 
L 437.255152 124764.148497 
L 437.255152 124764.148497 
L 428.973148 124764.148497 
L 428.973148 124764.148497 
L 420.691144 124764.148497 
L 420.691144 124764.148497 
L 412.40914 124764.148497 
L 412.40914 124764.148497 
L 404.127137 124764.148497 
L 404.127137 124764.148497 
L 395.845133 124764.148497 
L 395.845133 124764.148497 
L 387.563129 124764.148497 
L 387.563129 124764.148497 
L 379.281126 124764.148497 
L 379.281126 124764.148497 
L 370.999122 124764.148497 
L 370.999122 124764.148497 
L 362.717118 124764.148497 
L 362.717118 124764.148497 
L 354.435115 124764.148497 
L 354.435115 124764.148497 
L 346.153111 124764.148497 
L 346.153111 124764.148497 
L 337.871107 124764.148497 
L 337.871107 124764.148497 
L 329.589103 124764.148497 
L 329.589103 124764.148497 
L 321.3071 124764.148497 
L 321.3071 124764.148497 
L 313.025096 124764.148497 
L 313.025096 124764.148497 
L 304.743092 124764.148497 
L 304.743092 124764.148497 
L 296.461089 124764.148497 
L 296.461089 124764.148497 
L 288.179085 124764.148497 
L 288.179085 124764.148497 
L 279.897081 124764.148497 
L 279.897081 124764.148497 
L 271.615077 124764.148497 
L 271.615077 124764.148497 
L 263.333074 124764.148497 
L 263.333074 124764.148497 
L 255.05107 124764.148497 
L 255.05107 124764.148497 
L 246.769066 124764.148497 
L 246.769066 124764.148497 
L 238.487063 124764.148497 
L 238.487063 124764.148497 
L 230.205059 124764.148497 
L 230.205059 124764.148497 
L 221.923055 124764.148497 
L 221.923055 124764.148497 
L 213.641051 124764.148497 
L 213.641051 124764.148497 
L 205.359048 124764.148497 
L 205.359048 124764.148497 
L 197.077044 124764.148497 
L 197.077044 124764.148497 
L 188.79504 124764.148497 
L 188.79504 124764.148497 
L 184.581818 124764.148497 
L 184.581818 124764.148497 
L 184.581818 124764.148497 
z
" style="fill:#f0e68c;fill-opacity:0.3;stroke:#f0e68c;stroke-opacity:0.3;"/>
   </g>
   <g id="matplotlib.axis_1">
    <g id="xtick_1">
     <g id="line2d_1">
      <defs>
       <path d="M 0 0 
L 0 3.5 
" id="mb8944cf471" style="stroke:#000000;stroke-width:0.8;"/>
      </defs>
      <g>
       <use style="stroke:#000000;stroke-width:0.8;" x="180.368596" xlink:href="#mb8944cf471" y="567"/>
      </g>
     </g>
     <g id="text_1">
      <!-- $\mathdefault{10^{0}}$ -->
      <g transform="translate(153.968596 596.795313)scale(0.3 -0.3)">
       <defs>
        <path d="M 794 531 
L 1825 531 
L 1825 4091 
L 703 3866 
L 703 4441 
L 1819 4666 
L 2450 4666 
L 2450 531 
L 3481 531 
L 3481 0 
L 794 0 
L 794 531 
z
" id="DejaVuSans-31" transform="scale(0.015625)"/>
        <path d="M 2034 4250 
Q 1547 4250 1301 3770 
Q 1056 3291 1056 2328 
Q 1056 1369 1301 889 
Q 1547 409 2034 409 
Q 2525 409 2770 889 
Q 3016 1369 3016 2328 
Q 3016 3291 2770 3770 
Q 2525 4250 2034 4250 
z
M 2034 4750 
Q 2819 4750 3233 4129 
Q 3647 3509 3647 2328 
Q 3647 1150 3233 529 
Q 2819 -91 2034 -91 
Q 1250 -91 836 529 
Q 422 1150 422 2328 
Q 422 3509 836 4129 
Q 1250 4750 2034 4750 
z
" id="DejaVuSans-30" transform="scale(0.015625)"/>
       </defs>
       <use transform="translate(0 0.765625)" xlink:href="#DejaVuSans-31"/>
       <use transform="translate(63.623047 0.765625)" xlink:href="#DejaVuSans-30"/>
       <use transform="translate(128.203125 39.046875)scale(0.7)" xlink:href="#DejaVuSans-30"/>
      </g>
     </g>
    </g>
    <g id="xtick_2">
     <g id="line2d_2">
      <g>
       <use style="stroke:#000000;stroke-width:0.8;" x="453.674719" xlink:href="#mb8944cf471" y="567"/>
      </g>
     </g>
     <g id="text_2">
      <!-- $\mathdefault{10^{1}}$ -->
      <g transform="translate(427.274719 596.795313)scale(0.3 -0.3)">
       <use transform="translate(0 0.684375)" xlink:href="#DejaVuSans-31"/>
       <use transform="translate(63.623047 0.684375)" xlink:href="#DejaVuSans-30"/>
       <use transform="translate(128.203125 38.965625)scale(0.7)" xlink:href="#DejaVuSans-31"/>
      </g>
     </g>
    </g>
    <g id="xtick_3">
     <g id="line2d_3">
      <g>
       <use style="stroke:#000000;stroke-width:0.8;" x="726.980841" xlink:href="#mb8944cf471" y="567"/>
      </g>
     </g>
     <g id="text_3">
      <!-- $\mathdefault{10^{2}}$ -->
      <g transform="translate(700.580841 596.795313)scale(0.3 -0.3)">
       <defs>
        <path d="M 1228 531 
L 3431 531 
L 3431 0 
L 469 0 
L 469 531 
Q 828 903 1448 1529 
Q 2069 2156 2228 2338 
Q 2531 2678 2651 2914 
Q 2772 3150 2772 3378 
Q 2772 3750 2511 3984 
Q 2250 4219 1831 4219 
Q 1534 4219 1204 4116 
Q 875 4013 500 3803 
L 500 4441 
Q 881 4594 1212 4672 
Q 1544 4750 1819 4750 
Q 2544 4750 2975 4387 
Q 3406 4025 3406 3419 
Q 3406 3131 3298 2873 
Q 3191 2616 2906 2266 
Q 2828 2175 2409 1742 
Q 1991 1309 1228 531 
z
" id="DejaVuSans-32" transform="scale(0.015625)"/>
       </defs>
       <use transform="translate(0 0.765625)" xlink:href="#DejaVuSans-31"/>
       <use transform="translate(63.623047 0.765625)" xlink:href="#DejaVuSans-30"/>
       <use transform="translate(128.203125 39.046875)scale(0.7)" xlink:href="#DejaVuSans-32"/>
      </g>
     </g>
    </g>
    <g id="xtick_4">
     <g id="line2d_4">
      <g>
       <use style="stroke:#000000;stroke-width:0.8;" x="1000.286963" xlink:href="#mb8944cf471" y="567"/>
      </g>
     </g>
     <g id="text_4">
      <!-- $\mathdefault{10^{3}}$ -->
      <g transform="translate(973.886963 596.795313)scale(0.3 -0.3)">
       <defs>
        <path d="M 2597 2516 
Q 3050 2419 3304 2112 
Q 3559 1806 3559 1356 
Q 3559 666 3084 287 
Q 2609 -91 1734 -91 
Q 1441 -91 1130 -33 
Q 819 25 488 141 
L 488 750 
Q 750 597 1062 519 
Q 1375 441 1716 441 
Q 2309 441 2620 675 
Q 2931 909 2931 1356 
Q 2931 1769 2642 2001 
Q 2353 2234 1838 2234 
L 1294 2234 
L 1294 2753 
L 1863 2753 
Q 2328 2753 2575 2939 
Q 2822 3125 2822 3475 
Q 2822 3834 2567 4026 
Q 2313 4219 1838 4219 
Q 1578 4219 1281 4162 
Q 984 4106 628 3988 
L 628 4550 
Q 988 4650 1302 4700 
Q 1616 4750 1894 4750 
Q 2613 4750 3031 4423 
Q 3450 4097 3450 3541 
Q 3450 3153 3228 2886 
Q 3006 2619 2597 2516 
z
" id="DejaVuSans-33" transform="scale(0.015625)"/>
       </defs>
       <use transform="translate(0 0.765625)" xlink:href="#DejaVuSans-31"/>
       <use transform="translate(63.623047 0.765625)" xlink:href="#DejaVuSans-30"/>
       <use transform="translate(128.203125 39.046875)scale(0.7)" xlink:href="#DejaVuSans-33"/>
      </g>
     </g>
    </g>
    <g id="xtick_5">
     <g id="line2d_5">
      <defs>
       <path d="M 0 0 
L 0 2 
" id="m0a61678450" style="stroke:#000000;stroke-width:0.6;"/>
      </defs>
      <g>
       <use style="stroke:#000000;stroke-width:0.6;" x="153.882496" xlink:href="#m0a61678450" y="567"/>
      </g>
     </g>
    </g>
    <g id="xtick_6">
     <g id="line2d_6">
      <g>
       <use style="stroke:#000000;stroke-width:0.6;" x="167.862794" xlink:href="#m0a61678450" y="567"/>
      </g>
     </g>
    </g>
    <g id="xtick_7">
     <g id="line2d_7">
      <g>
       <use style="stroke:#000000;stroke-width:0.6;" x="262.641937" xlink:href="#m0a61678450" y="567"/>
      </g>
     </g>
    </g>
    <g id="xtick_8">
     <g id="line2d_8">
      <g>
       <use style="stroke:#000000;stroke-width:0.6;" x="310.768756" xlink:href="#m0a61678450" y="567"/>
      </g>
     </g>
    </g>
    <g id="xtick_9">
     <g id="line2d_9">
      <g>
       <use style="stroke:#000000;stroke-width:0.6;" x="344.915278" xlink:href="#m0a61678450" y="567"/>
      </g>
     </g>
    </g>
    <g id="xtick_10">
     <g id="line2d_10">
      <g>
       <use style="stroke:#000000;stroke-width:0.6;" x="371.401378" xlink:href="#m0a61678450" y="567"/>
      </g>
     </g>
    </g>
    <g id="xtick_11">
     <g id="line2d_11">
      <g>
       <use style="stroke:#000000;stroke-width:0.6;" x="393.042097" xlink:href="#m0a61678450" y="567"/>
      </g>
     </g>
    </g>
    <g id="xtick_12">
     <g id="line2d_12">
      <g>
       <use style="stroke:#000000;stroke-width:0.6;" x="411.339064" xlink:href="#m0a61678450" y="567"/>
      </g>
     </g>
    </g>
    <g id="xtick_13">
     <g id="line2d_13">
      <g>
       <use style="stroke:#000000;stroke-width:0.6;" x="427.188619" xlink:href="#m0a61678450" y="567"/>
      </g>
     </g>
    </g>
    <g id="xtick_14">
     <g id="line2d_14">
      <g>
       <use style="stroke:#000000;stroke-width:0.6;" x="441.168916" xlink:href="#m0a61678450" y="567"/>
      </g>
     </g>
    </g>
    <g id="xtick_15">
     <g id="line2d_15">
      <g>
       <use style="stroke:#000000;stroke-width:0.6;" x="535.948059" xlink:href="#m0a61678450" y="567"/>
      </g>
     </g>
    </g>
    <g id="xtick_16">
     <g id="line2d_16">
      <g>
       <use style="stroke:#000000;stroke-width:0.6;" x="584.074879" xlink:href="#m0a61678450" y="567"/>
      </g>
     </g>
    </g>
    <g id="xtick_17">
     <g id="line2d_17">
      <g>
       <use style="stroke:#000000;stroke-width:0.6;" x="618.2214" xlink:href="#m0a61678450" y="567"/>
      </g>
     </g>
    </g>
    <g id="xtick_18">
     <g id="line2d_18">
      <g>
       <use style="stroke:#000000;stroke-width:0.6;" x="644.7075" xlink:href="#m0a61678450" y="567"/>
      </g>
     </g>
    </g>
    <g id="xtick_19">
     <g id="line2d_19">
      <g>
       <use style="stroke:#000000;stroke-width:0.6;" x="666.348219" xlink:href="#m0a61678450" y="567"/>
      </g>
     </g>
    </g>
    <g id="xtick_20">
     <g id="line2d_20">
      <g>
       <use style="stroke:#000000;stroke-width:0.6;" x="684.645187" xlink:href="#m0a61678450" y="567"/>
      </g>
     </g>
    </g>
    <g id="xtick_21">
     <g id="line2d_21">
      <g>
       <use style="stroke:#000000;stroke-width:0.6;" x="700.494741" xlink:href="#m0a61678450" y="567"/>
      </g>
     </g>
    </g>
    <g id="xtick_22">
     <g id="line2d_22">
      <g>
       <use style="stroke:#000000;stroke-width:0.6;" x="714.475039" xlink:href="#m0a61678450" y="567"/>
      </g>
     </g>
    </g>
    <g id="xtick_23">
     <g id="line2d_23">
      <g>
       <use style="stroke:#000000;stroke-width:0.6;" x="809.254182" xlink:href="#m0a61678450" y="567"/>
      </g>
     </g>
    </g>
    <g id="xtick_24">
     <g id="line2d_24">
      <g>
       <use style="stroke:#000000;stroke-width:0.6;" x="857.381001" xlink:href="#m0a61678450" y="567"/>
      </g>
     </g>
    </g>
    <g id="xtick_25">
     <g id="line2d_25">
      <g>
       <use style="stroke:#000000;stroke-width:0.6;" x="891.527523" xlink:href="#m0a61678450" y="567"/>
      </g>
     </g>
    </g>
    <g id="xtick_26">
     <g id="line2d_26">
      <g>
       <use style="stroke:#000000;stroke-width:0.6;" x="918.013623" xlink:href="#m0a61678450" y="567"/>
      </g>
     </g>
    </g>
    <g id="xtick_27">
     <g id="line2d_27">
      <g>
       <use style="stroke:#000000;stroke-width:0.6;" x="939.654342" xlink:href="#m0a61678450" y="567"/>
      </g>
     </g>
    </g>
    <g id="xtick_28">
     <g id="line2d_28">
      <g>
       <use style="stroke:#000000;stroke-width:0.6;" x="957.951309" xlink:href="#m0a61678450" y="567"/>
      </g>
     </g>
    </g>
    <g id="xtick_29">
     <g id="line2d_29">
      <g>
       <use style="stroke:#000000;stroke-width:0.6;" x="973.800864" xlink:href="#m0a61678450" y="567"/>
      </g>
     </g>
    </g>
    <g id="xtick_30">
     <g id="line2d_30">
      <g>
       <use style="stroke:#000000;stroke-width:0.6;" x="987.781161" xlink:href="#m0a61678450" y="567"/>
      </g>
     </g>
    </g>
    <g id="text_5">
     <!-- Depth-weighted total energy -->
     <g transform="translate(373.870312 629.829687)scale(0.3 -0.3)">
      <defs>
       <path d="M 1259 4147 
L 1259 519 
L 2022 519 
Q 2988 519 3436 956 
Q 3884 1394 3884 2338 
Q 3884 3275 3436 3711 
Q 2988 4147 2022 4147 
L 1259 4147 
z
M 628 4666 
L 1925 4666 
Q 3281 4666 3915 4102 
Q 4550 3538 4550 2338 
Q 4550 1131 3912 565 
Q 3275 0 1925 0 
L 628 0 
L 628 4666 
z
" id="DejaVuSans-44" transform="scale(0.015625)"/>
       <path d="M 3597 1894 
L 3597 1613 
L 953 1613 
Q 991 1019 1311 708 
Q 1631 397 2203 397 
Q 2534 397 2845 478 
Q 3156 559 3463 722 
L 3463 178 
Q 3153 47 2828 -22 
Q 2503 -91 2169 -91 
Q 1331 -91 842 396 
Q 353 884 353 1716 
Q 353 2575 817 3079 
Q 1281 3584 2069 3584 
Q 2775 3584 3186 3129 
Q 3597 2675 3597 1894 
z
M 3022 2063 
Q 3016 2534 2758 2815 
Q 2500 3097 2075 3097 
Q 1594 3097 1305 2825 
Q 1016 2553 972 2059 
L 3022 2063 
z
" id="DejaVuSans-65" transform="scale(0.015625)"/>
       <path d="M 1159 525 
L 1159 -1331 
L 581 -1331 
L 581 3500 
L 1159 3500 
L 1159 2969 
Q 1341 3281 1617 3432 
Q 1894 3584 2278 3584 
Q 2916 3584 3314 3078 
Q 3713 2572 3713 1747 
Q 3713 922 3314 415 
Q 2916 -91 2278 -91 
Q 1894 -91 1617 61 
Q 1341 213 1159 525 
z
M 3116 1747 
Q 3116 2381 2855 2742 
Q 2594 3103 2138 3103 
Q 1681 3103 1420 2742 
Q 1159 2381 1159 1747 
Q 1159 1113 1420 752 
Q 1681 391 2138 391 
Q 2594 391 2855 752 
Q 3116 1113 3116 1747 
z
" id="DejaVuSans-70" transform="scale(0.015625)"/>
       <path d="M 1172 4494 
L 1172 3500 
L 2356 3500 
L 2356 3053 
L 1172 3053 
L 1172 1153 
Q 1172 725 1289 603 
Q 1406 481 1766 481 
L 2356 481 
L 2356 0 
L 1766 0 
Q 1100 0 847 248 
Q 594 497 594 1153 
L 594 3053 
L 172 3053 
L 172 3500 
L 594 3500 
L 594 4494 
L 1172 4494 
z
" id="DejaVuSans-74" transform="scale(0.015625)"/>
       <path d="M 3513 2113 
L 3513 0 
L 2938 0 
L 2938 2094 
Q 2938 2591 2744 2837 
Q 2550 3084 2163 3084 
Q 1697 3084 1428 2787 
Q 1159 2491 1159 1978 
L 1159 0 
L 581 0 
L 581 4863 
L 1159 4863 
L 1159 2956 
Q 1366 3272 1645 3428 
Q 1925 3584 2291 3584 
Q 2894 3584 3203 3211 
Q 3513 2838 3513 2113 
z
" id="DejaVuSans-68" transform="scale(0.015625)"/>
       <path d="M 313 2009 
L 1997 2009 
L 1997 1497 
L 313 1497 
L 313 2009 
z
" id="DejaVuSans-2d" transform="scale(0.015625)"/>
       <path d="M 269 3500 
L 844 3500 
L 1563 769 
L 2278 3500 
L 2956 3500 
L 3675 769 
L 4391 3500 
L 4966 3500 
L 4050 0 
L 3372 0 
L 2619 2869 
L 1863 0 
L 1184 0 
L 269 3500 
z
" id="DejaVuSans-77" transform="scale(0.015625)"/>
       <path d="M 603 3500 
L 1178 3500 
L 1178 0 
L 603 0 
L 603 3500 
z
M 603 4863 
L 1178 4863 
L 1178 4134 
L 603 4134 
L 603 4863 
z
" id="DejaVuSans-69" transform="scale(0.015625)"/>
       <path d="M 2906 1791 
Q 2906 2416 2648 2759 
Q 2391 3103 1925 3103 
Q 1463 3103 1205 2759 
Q 947 2416 947 1791 
Q 947 1169 1205 825 
Q 1463 481 1925 481 
Q 2391 481 2648 825 
Q 2906 1169 2906 1791 
z
M 3481 434 
Q 3481 -459 3084 -895 
Q 2688 -1331 1869 -1331 
Q 1566 -1331 1297 -1286 
Q 1028 -1241 775 -1147 
L 775 -588 
Q 1028 -725 1275 -790 
Q 1522 -856 1778 -856 
Q 2344 -856 2625 -561 
Q 2906 -266 2906 331 
L 2906 616 
Q 2728 306 2450 153 
Q 2172 0 1784 0 
Q 1141 0 747 490 
Q 353 981 353 1791 
Q 353 2603 747 3093 
Q 1141 3584 1784 3584 
Q 2172 3584 2450 3431 
Q 2728 3278 2906 2969 
L 2906 3500 
L 3481 3500 
L 3481 434 
z
" id="DejaVuSans-67" transform="scale(0.015625)"/>
       <path d="M 2906 2969 
L 2906 4863 
L 3481 4863 
L 3481 0 
L 2906 0 
L 2906 525 
Q 2725 213 2448 61 
Q 2172 -91 1784 -91 
Q 1150 -91 751 415 
Q 353 922 353 1747 
Q 353 2572 751 3078 
Q 1150 3584 1784 3584 
Q 2172 3584 2448 3432 
Q 2725 3281 2906 2969 
z
M 947 1747 
Q 947 1113 1208 752 
Q 1469 391 1925 391 
Q 2381 391 2643 752 
Q 2906 1113 2906 1747 
Q 2906 2381 2643 2742 
Q 2381 3103 1925 3103 
Q 1469 3103 1208 2742 
Q 947 2381 947 1747 
z
" id="DejaVuSans-64" transform="scale(0.015625)"/>
       <path id="DejaVuSans-20" transform="scale(0.015625)"/>
       <path d="M 1959 3097 
Q 1497 3097 1228 2736 
Q 959 2375 959 1747 
Q 959 1119 1226 758 
Q 1494 397 1959 397 
Q 2419 397 2687 759 
Q 2956 1122 2956 1747 
Q 2956 2369 2687 2733 
Q 2419 3097 1959 3097 
z
M 1959 3584 
Q 2709 3584 3137 3096 
Q 3566 2609 3566 1747 
Q 3566 888 3137 398 
Q 2709 -91 1959 -91 
Q 1206 -91 779 398 
Q 353 888 353 1747 
Q 353 2609 779 3096 
Q 1206 3584 1959 3584 
z
" id="DejaVuSans-6f" transform="scale(0.015625)"/>
       <path d="M 2194 1759 
Q 1497 1759 1228 1600 
Q 959 1441 959 1056 
Q 959 750 1161 570 
Q 1363 391 1709 391 
Q 2188 391 2477 730 
Q 2766 1069 2766 1631 
L 2766 1759 
L 2194 1759 
z
M 3341 1997 
L 3341 0 
L 2766 0 
L 2766 531 
Q 2569 213 2275 61 
Q 1981 -91 1556 -91 
Q 1019 -91 701 211 
Q 384 513 384 1019 
Q 384 1609 779 1909 
Q 1175 2209 1959 2209 
L 2766 2209 
L 2766 2266 
Q 2766 2663 2505 2880 
Q 2244 3097 1772 3097 
Q 1472 3097 1187 3025 
Q 903 2953 641 2809 
L 641 3341 
Q 956 3463 1253 3523 
Q 1550 3584 1831 3584 
Q 2591 3584 2966 3190 
Q 3341 2797 3341 1997 
z
" id="DejaVuSans-61" transform="scale(0.015625)"/>
       <path d="M 603 4863 
L 1178 4863 
L 1178 0 
L 603 0 
L 603 4863 
z
" id="DejaVuSans-6c" transform="scale(0.015625)"/>
       <path d="M 3513 2113 
L 3513 0 
L 2938 0 
L 2938 2094 
Q 2938 2591 2744 2837 
Q 2550 3084 2163 3084 
Q 1697 3084 1428 2787 
Q 1159 2491 1159 1978 
L 1159 0 
L 581 0 
L 581 3500 
L 1159 3500 
L 1159 2956 
Q 1366 3272 1645 3428 
Q 1925 3584 2291 3584 
Q 2894 3584 3203 3211 
Q 3513 2838 3513 2113 
z
" id="DejaVuSans-6e" transform="scale(0.015625)"/>
       <path d="M 2631 2963 
Q 2534 3019 2420 3045 
Q 2306 3072 2169 3072 
Q 1681 3072 1420 2755 
Q 1159 2438 1159 1844 
L 1159 0 
L 581 0 
L 581 3500 
L 1159 3500 
L 1159 2956 
Q 1341 3275 1631 3429 
Q 1922 3584 2338 3584 
Q 2397 3584 2469 3576 
Q 2541 3569 2628 3553 
L 2631 2963 
z
" id="DejaVuSans-72" transform="scale(0.015625)"/>
       <path d="M 2059 -325 
Q 1816 -950 1584 -1140 
Q 1353 -1331 966 -1331 
L 506 -1331 
L 506 -850 
L 844 -850 
Q 1081 -850 1212 -737 
Q 1344 -625 1503 -206 
L 1606 56 
L 191 3500 
L 800 3500 
L 1894 763 
L 2988 3500 
L 3597 3500 
L 2059 -325 
z
" id="DejaVuSans-79" transform="scale(0.015625)"/>
      </defs>
      <use xlink:href="#DejaVuSans-44"/>
      <use x="77.001953" xlink:href="#DejaVuSans-65"/>
      <use x="138.525391" xlink:href="#DejaVuSans-70"/>
      <use x="202.001953" xlink:href="#DejaVuSans-74"/>
      <use x="241.210938" xlink:href="#DejaVuSans-68"/>
      <use x="304.589844" xlink:href="#DejaVuSans-2d"/>
      <use x="340.673828" xlink:href="#DejaVuSans-77"/>
      <use x="422.460938" xlink:href="#DejaVuSans-65"/>
      <use x="483.984375" xlink:href="#DejaVuSans-69"/>
      <use x="511.767578" xlink:href="#DejaVuSans-67"/>
      <use x="575.244141" xlink:href="#DejaVuSans-68"/>
      <use x="638.623047" xlink:href="#DejaVuSans-74"/>
      <use x="677.832031" xlink:href="#DejaVuSans-65"/>
      <use x="739.355469" xlink:href="#DejaVuSans-64"/>
      <use x="802.832031" xlink:href="#DejaVuSans-20"/>
      <use x="834.619141" xlink:href="#DejaVuSans-74"/>
      <use x="873.828125" xlink:href="#DejaVuSans-6f"/>
      <use x="935.009766" xlink:href="#DejaVuSans-74"/>
      <use x="974.21875" xlink:href="#DejaVuSans-61"/>
      <use x="1035.498047" xlink:href="#DejaVuSans-6c"/>
      <use x="1063.28125" xlink:href="#DejaVuSans-20"/>
      <use x="1095.068359" xlink:href="#DejaVuSans-65"/>
      <use x="1156.591797" xlink:href="#DejaVuSans-6e"/>
      <use x="1219.970703" xlink:href="#DejaVuSans-65"/>
      <use x="1281.494141" xlink:href="#DejaVuSans-72"/>
      <use x="1320.857422" xlink:href="#DejaVuSans-67"/>
      <use x="1384.333984" xlink:href="#DejaVuSans-79"/>
     </g>
    </g>
   </g>
   <g id="matplotlib.axis_2">
    <g id="ytick_1">
     <g id="line2d_31">
      <defs>
       <path d="M 0 0 
L -3.5 0 
" id="m206405d0a6" style="stroke:#000000;stroke-width:0.8;"/>
      </defs>
      <g>
       <use style="stroke:#000000;stroke-width:0.8;" x="144" xlink:href="#m206405d0a6" y="544.761818"/>
      </g>
     </g>
     <g id="text_6">
      <!-- $\mathdefault{10^{0}}$ -->
      <g transform="translate(84.2 556.159474)scale(0.3 -0.3)">
       <use transform="translate(0 0.765625)" xlink:href="#DejaVuSans-31"/>
       <use transform="translate(63.623047 0.765625)" xlink:href="#DejaVuSans-30"/>
       <use transform="translate(128.203125 39.046875)scale(0.7)" xlink:href="#DejaVuSans-30"/>
      </g>
     </g>
    </g>
    <g id="ytick_2">
     <g id="line2d_32">
      <g>
       <use style="stroke:#000000;stroke-width:0.8;" x="144" xlink:href="#m206405d0a6" y="420.542432"/>
      </g>
     </g>
     <g id="text_7">
      <!-- $\mathdefault{10^{1}}$ -->
      <g transform="translate(84.2 431.940088)scale(0.3 -0.3)">
       <use transform="translate(0 0.684375)" xlink:href="#DejaVuSans-31"/>
       <use transform="translate(63.623047 0.684375)" xlink:href="#DejaVuSans-30"/>
       <use transform="translate(128.203125 38.965625)scale(0.7)" xlink:href="#DejaVuSans-31"/>
      </g>
     </g>
    </g>
    <g id="ytick_3">
     <g id="line2d_33">
      <g>
       <use style="stroke:#000000;stroke-width:0.8;" x="144" xlink:href="#m206405d0a6" y="296.323045"/>
      </g>
     </g>
     <g id="text_8">
      <!-- $\mathdefault{10^{2}}$ -->
      <g transform="translate(84.2 307.720701)scale(0.3 -0.3)">
       <use transform="translate(0 0.765625)" xlink:href="#DejaVuSans-31"/>
       <use transform="translate(63.623047 0.765625)" xlink:href="#DejaVuSans-30"/>
       <use transform="translate(128.203125 39.046875)scale(0.7)" xlink:href="#DejaVuSans-32"/>
      </g>
     </g>
    </g>
    <g id="ytick_4">
     <g id="line2d_34">
      <g>
       <use style="stroke:#000000;stroke-width:0.8;" x="144" xlink:href="#m206405d0a6" y="172.103658"/>
      </g>
     </g>
     <g id="text_9">
      <!-- $\mathdefault{10^{3}}$ -->
      <g transform="translate(84.2 183.501314)scale(0.3 -0.3)">
       <use transform="translate(0 0.765625)" xlink:href="#DejaVuSans-31"/>
       <use transform="translate(63.623047 0.765625)" xlink:href="#DejaVuSans-30"/>
       <use transform="translate(128.203125 39.046875)scale(0.7)" xlink:href="#DejaVuSans-33"/>
      </g>
     </g>
    </g>
    <g id="ytick_5">
     <g id="line2d_35">
      <defs>
       <path d="M 0 0 
L -2 0 
" id="m31323b70aa" style="stroke:#000000;stroke-width:0.6;"/>
      </defs>
      <g>
       <use style="stroke:#000000;stroke-width:0.6;" x="144" xlink:href="#m31323b70aa" y="564.003645"/>
      </g>
     </g>
    </g>
    <g id="ytick_6">
     <g id="line2d_36">
      <g>
       <use style="stroke:#000000;stroke-width:0.6;" x="144" xlink:href="#m31323b70aa" y="556.799921"/>
      </g>
     </g>
    </g>
    <g id="ytick_7">
     <g id="line2d_37">
      <g>
       <use style="stroke:#000000;stroke-width:0.6;" x="144" xlink:href="#m31323b70aa" y="550.445786"/>
      </g>
     </g>
    </g>
    <g id="ytick_8">
     <g id="line2d_38">
      <g>
       <use style="stroke:#000000;stroke-width:0.6;" x="144" xlink:href="#m31323b70aa" y="507.368057"/>
      </g>
     </g>
    </g>
    <g id="ytick_9">
     <g id="line2d_39">
      <g>
       <use style="stroke:#000000;stroke-width:0.6;" x="144" xlink:href="#m31323b70aa" y="485.494109"/>
      </g>
     </g>
    </g>
    <g id="ytick_10">
     <g id="line2d_40">
      <g>
       <use style="stroke:#000000;stroke-width:0.6;" x="144" xlink:href="#m31323b70aa" y="469.974295"/>
      </g>
     </g>
    </g>
    <g id="ytick_11">
     <g id="line2d_41">
      <g>
       <use style="stroke:#000000;stroke-width:0.6;" x="144" xlink:href="#m31323b70aa" y="457.936193"/>
      </g>
     </g>
    </g>
    <g id="ytick_12">
     <g id="line2d_42">
      <g>
       <use style="stroke:#000000;stroke-width:0.6;" x="144" xlink:href="#m31323b70aa" y="448.100347"/>
      </g>
     </g>
    </g>
    <g id="ytick_13">
     <g id="line2d_43">
      <g>
       <use style="stroke:#000000;stroke-width:0.6;" x="144" xlink:href="#m31323b70aa" y="439.784258"/>
      </g>
     </g>
    </g>
    <g id="ytick_14">
     <g id="line2d_44">
      <g>
       <use style="stroke:#000000;stroke-width:0.6;" x="144" xlink:href="#m31323b70aa" y="432.580534"/>
      </g>
     </g>
    </g>
    <g id="ytick_15">
     <g id="line2d_45">
      <g>
       <use style="stroke:#000000;stroke-width:0.6;" x="144" xlink:href="#m31323b70aa" y="426.226399"/>
      </g>
     </g>
    </g>
    <g id="ytick_16">
     <g id="line2d_46">
      <g>
       <use style="stroke:#000000;stroke-width:0.6;" x="144" xlink:href="#m31323b70aa" y="383.14867"/>
      </g>
     </g>
    </g>
    <g id="ytick_17">
     <g id="line2d_47">
      <g>
       <use style="stroke:#000000;stroke-width:0.6;" x="144" xlink:href="#m31323b70aa" y="361.274722"/>
      </g>
     </g>
    </g>
    <g id="ytick_18">
     <g id="line2d_48">
      <g>
       <use style="stroke:#000000;stroke-width:0.6;" x="144" xlink:href="#m31323b70aa" y="345.754909"/>
      </g>
     </g>
    </g>
    <g id="ytick_19">
     <g id="line2d_49">
      <g>
       <use style="stroke:#000000;stroke-width:0.6;" x="144" xlink:href="#m31323b70aa" y="333.716806"/>
      </g>
     </g>
    </g>
    <g id="ytick_20">
     <g id="line2d_50">
      <g>
       <use style="stroke:#000000;stroke-width:0.6;" x="144" xlink:href="#m31323b70aa" y="323.88096"/>
      </g>
     </g>
    </g>
    <g id="ytick_21">
     <g id="line2d_51">
      <g>
       <use style="stroke:#000000;stroke-width:0.6;" x="144" xlink:href="#m31323b70aa" y="315.564871"/>
      </g>
     </g>
    </g>
    <g id="ytick_22">
     <g id="line2d_52">
      <g>
       <use style="stroke:#000000;stroke-width:0.6;" x="144" xlink:href="#m31323b70aa" y="308.361147"/>
      </g>
     </g>
    </g>
    <g id="ytick_23">
     <g id="line2d_53">
      <g>
       <use style="stroke:#000000;stroke-width:0.6;" x="144" xlink:href="#m31323b70aa" y="302.007012"/>
      </g>
     </g>
    </g>
    <g id="ytick_24">
     <g id="line2d_54">
      <g>
       <use style="stroke:#000000;stroke-width:0.6;" x="144" xlink:href="#m31323b70aa" y="258.929283"/>
      </g>
     </g>
    </g>
    <g id="ytick_25">
     <g id="line2d_55">
      <g>
       <use style="stroke:#000000;stroke-width:0.6;" x="144" xlink:href="#m31323b70aa" y="237.055335"/>
      </g>
     </g>
    </g>
    <g id="ytick_26">
     <g id="line2d_56">
      <g>
       <use style="stroke:#000000;stroke-width:0.6;" x="144" xlink:href="#m31323b70aa" y="221.535522"/>
      </g>
     </g>
    </g>
    <g id="ytick_27">
     <g id="line2d_57">
      <g>
       <use style="stroke:#000000;stroke-width:0.6;" x="144" xlink:href="#m31323b70aa" y="209.49742"/>
      </g>
     </g>
    </g>
    <g id="ytick_28">
     <g id="line2d_58">
      <g>
       <use style="stroke:#000000;stroke-width:0.6;" x="144" xlink:href="#m31323b70aa" y="199.661574"/>
      </g>
     </g>
    </g>
    <g id="ytick_29">
     <g id="line2d_59">
      <g>
       <use style="stroke:#000000;stroke-width:0.6;" x="144" xlink:href="#m31323b70aa" y="191.345485"/>
      </g>
     </g>
    </g>
    <g id="ytick_30">
     <g id="line2d_60">
      <g>
       <use style="stroke:#000000;stroke-width:0.6;" x="144" xlink:href="#m31323b70aa" y="184.141761"/>
      </g>
     </g>
    </g>
    <g id="ytick_31">
     <g id="line2d_61">
      <g>
       <use style="stroke:#000000;stroke-width:0.6;" x="144" xlink:href="#m31323b70aa" y="177.787626"/>
      </g>
     </g>
    </g>
    <g id="ytick_32">
     <g id="line2d_62">
      <g>
       <use style="stroke:#000000;stroke-width:0.6;" x="144" xlink:href="#m31323b70aa" y="134.709897"/>
      </g>
     </g>
    </g>
    <g id="ytick_33">
     <g id="line2d_63">
      <g>
       <use style="stroke:#000000;stroke-width:0.6;" x="144" xlink:href="#m31323b70aa" y="112.835949"/>
      </g>
     </g>
    </g>
    <g id="ytick_34">
     <g id="line2d_64">
      <g>
       <use style="stroke:#000000;stroke-width:0.6;" x="144" xlink:href="#m31323b70aa" y="97.316135"/>
      </g>
     </g>
    </g>
    <g id="ytick_35">
     <g id="line2d_65">
      <g>
       <use style="stroke:#000000;stroke-width:0.6;" x="144" xlink:href="#m31323b70aa" y="85.278033"/>
      </g>
     </g>
    </g>
    <g id="text_10">
     <!-- Events -->
     <g transform="translate(73.960938 373.166719)rotate(-90)scale(0.3 -0.3)">
      <defs>
       <path d="M 628 4666 
L 3578 4666 
L 3578 4134 
L 1259 4134 
L 1259 2753 
L 3481 2753 
L 3481 2222 
L 1259 2222 
L 1259 531 
L 3634 531 
L 3634 0 
L 628 0 
L 628 4666 
z
" id="DejaVuSans-45" transform="scale(0.015625)"/>
       <path d="M 191 3500 
L 800 3500 
L 1894 563 
L 2988 3500 
L 3597 3500 
L 2284 0 
L 1503 0 
L 191 3500 
z
" id="DejaVuSans-76" transform="scale(0.015625)"/>
       <path d="M 2834 3397 
L 2834 2853 
Q 2591 2978 2328 3040 
Q 2066 3103 1784 3103 
Q 1356 3103 1142 2972 
Q 928 2841 928 2578 
Q 928 2378 1081 2264 
Q 1234 2150 1697 2047 
L 1894 2003 
Q 2506 1872 2764 1633 
Q 3022 1394 3022 966 
Q 3022 478 2636 193 
Q 2250 -91 1575 -91 
Q 1294 -91 989 -36 
Q 684 19 347 128 
L 347 722 
Q 666 556 975 473 
Q 1284 391 1588 391 
Q 1994 391 2212 530 
Q 2431 669 2431 922 
Q 2431 1156 2273 1281 
Q 2116 1406 1581 1522 
L 1381 1569 
Q 847 1681 609 1914 
Q 372 2147 372 2553 
Q 372 3047 722 3315 
Q 1072 3584 1716 3584 
Q 2034 3584 2315 3537 
Q 2597 3491 2834 3397 
z
" id="DejaVuSans-73" transform="scale(0.015625)"/>
      </defs>
      <use xlink:href="#DejaVuSans-45"/>
      <use x="63.183594" xlink:href="#DejaVuSans-76"/>
      <use x="122.363281" xlink:href="#DejaVuSans-65"/>
      <use x="183.886719" xlink:href="#DejaVuSans-6e"/>
      <use x="247.265625" xlink:href="#DejaVuSans-74"/>
      <use x="286.474609" xlink:href="#DejaVuSans-73"/>
     </g>
    </g>
   </g>
   <g id="line2d_66">
    <path clip-path="url(#pf9bd087ef4)" d="M 184.581818 252.335912 
L 184.581818 439.784258 
L 197.077044 439.784258 
L 197.077044 391.916208 
L 205.359048 391.916208 
L 205.359048 410.706586 
L 213.641051 410.706586 
L 213.641051 385.91583 
L 221.923055 385.91583 
L 221.923055 388.832637 
L 230.205059 388.832637 
L 230.205059 415.400658 
L 238.487063 415.400658 
L 238.487063 398.668483 
L 246.769066 398.668483 
L 246.769066 402.390497 
L 255.05107 402.390497 
L 255.05107 380.516548 
L 263.333074 380.516548 
L 263.333074 368.994697 
L 271.615077 368.994697 
L 271.615077 388.832637 
L 279.897081 388.832637 
L 279.897081 349.960762 
L 288.179085 349.960762 
L 288.179085 380.516548 
L 296.461089 380.516548 
L 296.461089 368.994697 
L 304.743092 368.994697 
L 304.743092 359.505783 
L 313.025096 359.505783 
L 313.025096 361.274722 
L 321.3071 361.274722 
L 321.3071 368.994697 
L 329.589103 368.994697 
L 329.589103 349.960762 
L 337.871107 349.960762 
L 337.871107 335.919063 
L 346.153111 335.919063 
L 346.153111 344.422797 
L 354.435115 344.422797 
L 354.435115 331.600935 
L 362.717118 331.600935 
L 362.717118 332.648498 
L 370.999122 332.648498 
L 370.999122 333.716806 
L 379.281126 333.716806 
L 379.281126 326.648121 
L 387.563129 326.648121 
L 387.563129 332.648498 
L 395.845133 332.648498 
L 395.845133 314.045115 
L 404.127137 314.045115 
L 404.127137 317.128685 
L 412.40914 317.128685 
L 412.40914 325.709874 
L 420.691144 325.709874 
L 420.691144 317.128685 
L 428.973148 317.128685 
L 428.973148 307.69098 
L 437.255152 307.69098 
L 437.255152 309.039745 
L 445.537155 309.039745 
L 445.537155 303.219373 
L 453.819159 303.219373 
L 453.819159 301.410898 
L 462.101163 301.410898 
L 462.101163 300.238074 
L 470.383166 300.238074 
L 470.383166 295.254737 
L 478.66517 295.254737 
L 478.66517 296.323045 
L 486.947174 296.323045 
L 486.947174 293.690923 
L 495.229178 293.690923 
L 495.229178 291.181271 
L 511.793185 291.181271 
L 511.793185 280.133064 
L 520.075189 280.133064 
L 520.075189 270.631261 
L 528.357192 270.631261 
L 528.357192 270.297218 
L 536.639196 270.297218 
L 536.639196 272.680158 
L 544.9212 272.680158 
L 544.9212 270.631261 
L 553.203204 270.631261 
L 553.203204 263.427537 
L 561.485207 263.427537 
L 561.485207 258.126076 
L 569.767211 258.126076 
L 569.767211 254.528223 
L 578.049215 254.528223 
L 578.049215 249.772035 
L 586.331218 249.772035 
L 586.331218 248.42327 
L 594.613222 248.42327 
L 594.613222 236.696877 
L 602.895226 236.696877 
L 602.895226 237.962042 
L 611.17723 237.962042 
L 611.17723 243.342078 
L 619.459233 243.342078 
L 619.459233 234.081771 
L 627.741237 234.081771 
L 627.741237 231.75033 
L 636.023241 231.75033 
L 636.023241 224.160901 
L 644.305244 224.160901 
L 644.305244 223.45753 
L 652.587248 223.45753 
L 652.587248 225.595767 
L 660.869252 225.595767 
L 660.869252 218.9034 
L 669.151256 218.9034 
L 669.151256 210.148709 
L 677.433259 210.148709 
L 677.433259 205.746642 
L 693.997267 205.847385 
L 693.997267 199.571736 
L 702.27927 199.571736 
L 702.27927 197.632227 
L 710.561274 197.632227 
L 710.561274 238.329035 
L 718.843278 238.329035 
L 718.843278 351.438876 
L 727.125281 351.438876 
L 727.125281 649 
L 727.125281 649 
" style="fill:none;stroke:#800080;stroke-linecap:square;stroke-width:3;"/>
   </g>
   <g id="line2d_67">
    <path clip-path="url(#pf9bd087ef4)" d="M 184.581818 255.531932 
L 184.581818 395.186772 
L 188.79504 395.186772 
L 188.79504 439.784258 
L 197.077044 439.784258 
L 197.077044 426.226399 
L 205.359048 426.226399 
L 205.359048 420.542432 
L 213.641051 420.542432 
L 213.641051 398.668483 
L 221.923055 398.668483 
L 221.923055 406.388458 
L 230.205059 406.388458 
L 230.205059 402.390497 
L 238.487063 402.390497 
L 238.487063 398.668483 
L 246.769066 398.668483 
L 246.769066 391.916208 
L 255.05107 391.916208 
L 255.05107 415.400658 
L 263.333074 415.400658 
L 263.333074 383.14867 
L 271.615077 383.14867 
L 271.615077 378.006896 
L 279.897081 378.006896 
L 279.897081 385.91583 
L 288.179085 385.91583 
L 288.179085 357.793011 
L 296.461089 357.793011 
L 296.461089 366.958689 
L 313.025096 366.958689 
L 313.025096 356.132948 
L 321.3071 356.132948 
L 321.3071 359.505783 
L 329.589103 359.505783 
L 329.589103 375.608822 
L 337.871107 375.608822 
L 337.871107 352.958633 
L 346.153111 352.958633 
L 346.153111 340.613135 
L 354.435115 340.613135 
L 354.435115 341.853368 
L 362.717118 341.853368 
L 362.717118 332.648498 
L 370.999122 332.648498 
L 370.999122 325.709874 
L 379.281126 325.709874 
L 379.281126 335.919063 
L 387.563129 335.919063 
L 387.563129 343.122787 
L 395.845133 343.122787 
L 395.845133 339.400774 
L 404.127137 339.400774 
L 404.127137 321.248839 
L 412.40914 321.248839 
L 412.40914 322.989241 
L 420.691144 322.989241 
L 420.691144 313.300995 
L 428.973148 313.300995 
L 428.973148 321.248839 
L 437.255152 321.248839 
L 437.255152 309.039745 
L 445.537155 309.039745 
L 445.537155 308.361147 
L 453.819159 308.361147 
L 453.819159 297.412936 
L 462.101163 297.412936 
L 462.101163 303.219373 
L 470.383166 303.219373 
L 470.383166 295.786246 
L 478.66517 295.786246 
L 478.66517 297.412936 
L 486.947174 297.412936 
L 486.947174 294.207174 
L 495.229178 294.207174 
L 495.229178 285.59548 
L 503.511181 285.59548 
L 503.511181 286.487199 
L 511.793185 286.487199 
L 511.793185 280.534165 
L 520.075189 280.534165 
L 520.075189 278.557834 
L 528.357192 278.557834 
L 528.357192 274.449097 
L 536.639196 274.449097 
L 536.639196 267.065846 
L 544.9212 267.065846 
L 544.9212 269.635274 
L 553.203204 269.635274 
L 553.203204 267.380411 
L 561.485207 267.380411 
L 561.485207 259.744631 
L 569.767211 259.744631 
L 569.767211 254.528223 
L 578.049215 254.528223 
L 578.049215 249.544886 
L 586.331218 249.544886 
L 586.331218 237.779478 
L 594.613222 237.779478 
L 594.613222 239.445236 
L 602.895226 239.445236 
L 602.895226 238.145227 
L 611.17723 238.145227 
L 611.17723 236.875808 
L 619.459233 236.875808 
L 619.459233 234.594749 
L 627.741237 234.594749 
L 627.741237 230.941503 
L 636.023241 230.941503 
L 636.023241 228.43185 
L 644.305244 228.43185 
L 644.305244 225.161286 
L 652.587248 225.161286 
L 652.587248 221.805938 
L 660.869252 221.805938 
L 660.869252 217.759588 
L 669.151256 217.759588 
L 669.151256 206.968154 
L 677.433259 206.968154 
L 677.433259 208.853899 
L 685.715263 208.853899 
L 685.715263 204.355646 
L 693.997267 204.355646 
L 693.997267 198.947023 
L 702.27927 198.947023 
L 702.27927 198.769854 
L 710.561274 198.769854 
L 710.561274 236.340784 
L 718.843278 236.340784 
L 718.843278 305.090583 
L 727.125281 305.090583 
L 727.125281 649 
L 727.125281 649 
" style="fill:none;stroke:#0000ff;stroke-linecap:square;stroke-width:3;"/>
   </g>
   <g id="line2d_68">
    <path clip-path="url(#pf9bd087ef4)" d="M 184.581818 99.998182 
L 184.581818 383.14867 
L 188.79504 383.14867 
L 188.79504 368.994697 
L 197.077044 368.994697 
L 197.077044 363.103636 
L 205.359048 363.103636 
L 205.359048 359.505783 
L 213.641051 359.505783 
L 213.641051 378.006896 
L 221.923055 378.006896 
L 221.923055 361.274722 
L 230.205059 361.274722 
L 230.205059 363.103636 
L 238.487063 363.103636 
L 238.487063 352.958633 
L 246.769066 352.958633 
L 246.769066 366.958689 
L 255.05107 366.958689 
L 255.05107 354.522446 
L 271.615077 354.522446 
L 271.615077 333.716806 
L 279.897081 333.716806 
L 279.897081 332.648498 
L 288.179085 332.648498 
L 288.179085 322.989241 
L 296.461089 322.989241 
L 296.461089 334.806698 
L 304.743092 334.806698 
L 304.743092 310.423097 
L 313.025096 310.423097 
L 313.025096 328.575032 
L 321.3071 328.575032 
L 321.3071 323.88096 
L 329.589103 323.88096 
L 329.589103 325.709874 
L 337.871107 325.709874 
L 337.871107 309.039745 
L 346.153111 309.039745 
L 346.153111 314.045115 
L 354.435115 314.045115 
L 354.435115 295.786246 
L 362.717118 295.786246 
L 362.717118 302.609787 
L 379.281126 302.609787 
L 379.281126 299.661086 
L 387.563129 299.661086 
L 387.563129 309.726987 
L 395.845133 309.726987 
L 395.845133 294.728413 
L 404.127137 294.728413 
L 404.127137 296.865238 
L 412.40914 296.865238 
L 412.40914 280.93827 
L 420.691144 280.93827 
L 420.691144 288.783196 
L 428.973148 288.783196 
L 428.973148 284.71826 
L 437.255152 284.71826 
L 437.255152 290.693052 
L 445.537155 290.693052 
L 445.537155 277.40588 
L 453.819159 277.40588 
L 453.819159 286.039497 
L 462.101163 286.039497 
L 462.101163 282.585659 
L 470.383166 282.585659 
L 470.383166 266.133007 
L 478.66517 266.133007 
L 478.66517 269.965231 
L 486.947174 269.965231 
L 486.947174 266.133007 
L 495.229178 266.133007 
L 495.229178 262.267325 
L 503.511181 262.267325 
L 503.511181 260.295123 
L 511.793185 260.295123 
L 511.793185 256.297162 
L 520.075189 256.297162 
L 520.075189 260.57249 
L 528.357192 260.57249 
L 528.357192 264.913796 
L 536.639196 264.913796 
L 536.639196 254.777405 
L 544.9212 254.777405 
L 544.9212 260.57249 
L 553.203204 260.57249 
L 553.203204 252.097731 
L 561.485207 252.097731 
L 561.485207 249.31869 
L 569.767211 249.31869 
L 569.767211 253.299291 
L 578.049215 253.299291 
L 578.049215 249.31869 
L 586.331218 249.31869 
L 586.331218 251.860598 
L 594.613222 251.860598 
L 594.613222 260.57249 
L 602.895226 260.57249 
L 602.895226 255.279249 
L 611.17723 255.279249 
L 611.17723 266.133007 
L 619.459233 266.133007 
L 619.459233 279.3397 
L 627.741237 279.3397 
L 627.741237 296.865238 
L 636.023241 296.865238 
L 636.023241 341.853368 
L 644.305244 341.853368 
L 644.305244 363.103636 
L 652.587248 363.103636 
L 652.587248 380.516548 
L 660.869252 380.516548 
L 660.869252 406.388458 
L 669.151256 406.388458 
L 669.151256 457.936193 
L 677.433259 457.936193 
L 677.433259 507.368057 
L 685.715263 507.368057 
L 685.715263 544.761818 
L 693.997267 544.761818 
L 693.997267 649 
L 693.997267 649 
" style="fill:none;stroke:#f0e68c;stroke-linecap:square;stroke-width:3;"/>
   </g>
   <g id="patch_3">
    <path d="M 144 567 
L 144 77.76 
" style="fill:none;stroke:#000000;stroke-linecap:square;stroke-linejoin:miter;stroke-width:0.8;"/>
   </g>
   <g id="patch_4">
    <path d="M 1036.8 567 
L 1036.8 77.76 
" style="fill:none;stroke:#000000;stroke-linecap:square;stroke-linejoin:miter;stroke-width:0.8;"/>
   </g>
   <g id="patch_5">
    <path d="M 144 567 
L 1036.8 567 
" style="fill:none;stroke:#000000;stroke-linecap:square;stroke-linejoin:miter;stroke-width:0.8;"/>
   </g>
   <g id="patch_6">
    <path d="M 144 77.76 
L 1036.8 77.76 
" style="fill:none;stroke:#000000;stroke-linecap:square;stroke-linejoin:miter;stroke-width:0.8;"/>
   </g>
   <g id="legend_1">
    <g id="patch_7">
     <path d="M 674.4 181.869375 
L 1022.8 181.869375 
Q 1026.8 181.869375 1026.8 177.869375 
L 1026.8 91.76 
Q 1026.8 87.76 1022.8 87.76 
L 674.4 87.76 
Q 670.4 87.76 670.4 91.76 
L 670.4 177.869375 
Q 670.4 181.869375 674.4 181.869375 
z
" style="fill:#ffffff;opacity:0.8;stroke:#cccccc;stroke-linejoin:miter;"/>
    </g>
    <g id="line2d_69">
     <path d="M 678.4 103.956875 
L 718.4 103.956875 
" style="fill:none;stroke:#800080;stroke-linecap:square;stroke-width:3;"/>
    </g>
    <g id="line2d_70"/>
    <g id="text_11">
     <!-- $e^{+}$ DVAE -->
     <g transform="translate(734.4 110.956875)scale(0.2 -0.2)">
      <defs>
       <path d="M 3078 2063 
Q 3088 2113 3092 2166 
Q 3097 2219 3097 2272 
Q 3097 2653 2873 2875 
Q 2650 3097 2266 3097 
Q 1838 3097 1509 2826 
Q 1181 2556 1013 2059 
L 3078 2063 
z
M 3578 1613 
L 903 1613 
Q 884 1494 878 1425 
Q 872 1356 872 1306 
Q 872 872 1139 634 
Q 1406 397 1894 397 
Q 2269 397 2603 481 
Q 2938 566 3225 728 
L 3116 159 
Q 2806 34 2476 -28 
Q 2147 -91 1806 -91 
Q 1078 -91 686 257 
Q 294 606 294 1247 
Q 294 1794 489 2264 
Q 684 2734 1063 3103 
Q 1306 3334 1642 3459 
Q 1978 3584 2356 3584 
Q 2950 3584 3301 3228 
Q 3653 2872 3653 2272 
Q 3653 2128 3634 1964 
Q 3616 1800 3578 1613 
z
" id="DejaVuSans-Oblique-65" transform="scale(0.015625)"/>
       <path d="M 2944 4013 
L 2944 2272 
L 4684 2272 
L 4684 1741 
L 2944 1741 
L 2944 0 
L 2419 0 
L 2419 1741 
L 678 1741 
L 678 2272 
L 2419 2272 
L 2419 4013 
L 2944 4013 
z
" id="DejaVuSans-2b" transform="scale(0.015625)"/>
       <path d="M 1831 0 
L 50 4666 
L 709 4666 
L 2188 738 
L 3669 4666 
L 4325 4666 
L 2547 0 
L 1831 0 
z
" id="DejaVuSans-56" transform="scale(0.015625)"/>
       <path d="M 2188 4044 
L 1331 1722 
L 3047 1722 
L 2188 4044 
z
M 1831 4666 
L 2547 4666 
L 4325 0 
L 3669 0 
L 3244 1197 
L 1141 1197 
L 716 0 
L 50 0 
L 1831 4666 
z
" id="DejaVuSans-41" transform="scale(0.015625)"/>
      </defs>
      <use transform="translate(0 0.826562)" xlink:href="#DejaVuSans-Oblique-65"/>
      <use transform="translate(66.173333 39.107812)scale(0.7)" xlink:href="#DejaVuSans-2b"/>
      <use transform="translate(127.560052 0.826562)" xlink:href="#DejaVuSans-20"/>
      <use transform="translate(159.347161 0.826562)" xlink:href="#DejaVuSans-44"/>
      <use transform="translate(236.349115 0.826562)" xlink:href="#DejaVuSans-56"/>
      <use transform="translate(304.757318 0.826562)" xlink:href="#DejaVuSans-41"/>
      <use transform="translate(373.165521 0.826562)" xlink:href="#DejaVuSans-45"/>
     </g>
    </g>
    <g id="line2d_71">
     <path d="M 678.4 133.313125 
L 718.4 133.313125 
" style="fill:none;stroke:#0000ff;stroke-linecap:square;stroke-width:3;"/>
    </g>
    <g id="line2d_72"/>
    <g id="text_12">
     <!-- $\gamma$   DVAE -->
     <g transform="translate(734.4 140.313125)scale(0.2 -0.2)">
      <defs>
       <path d="M 1491 2950 
L 1838 788 
L 3456 3500 
L 4066 3500 
L 1972 0 
L 1713 -1331 
L 1138 -1331 
L 1397 0 
L 988 2613 
Q 925 3006 628 3006 
L 475 3006 
L 569 3500 
L 788 3500 
Q 1403 3500 1491 2950 
z
" id="DejaVuSans-Oblique-3b3" transform="scale(0.015625)"/>
      </defs>
      <use transform="translate(0 0.09375)" xlink:href="#DejaVuSans-Oblique-3b3"/>
      <use transform="translate(59.179688 0.09375)" xlink:href="#DejaVuSans-20"/>
      <use transform="translate(90.966797 0.09375)" xlink:href="#DejaVuSans-20"/>
      <use transform="translate(122.753906 0.09375)" xlink:href="#DejaVuSans-20"/>
      <use transform="translate(154.541016 0.09375)" xlink:href="#DejaVuSans-44"/>
      <use transform="translate(231.542969 0.09375)" xlink:href="#DejaVuSans-56"/>
      <use transform="translate(299.951172 0.09375)" xlink:href="#DejaVuSans-41"/>
      <use transform="translate(368.359375 0.09375)" xlink:href="#DejaVuSans-45"/>
     </g>
    </g>
    <g id="line2d_73">
     <path d="M 678.4 162.71 
L 718.4 162.71 
" style="fill:none;stroke:#f0e68c;stroke-linecap:square;stroke-width:3;"/>
    </g>
    <g id="line2d_74"/>
    <g id="text_13">
     <!-- $\pi^{+}$ DVAE -->
     <g transform="translate(734.4 169.71)scale(0.2 -0.2)">
      <defs>
       <path d="M 584 3500 
L 3938 3500 
L 3825 2925 
L 3384 2925 
L 2966 775 
Q 2922 550 2981 450 
Q 3038 353 3209 353 
Q 3256 353 3325 363 
Q 3397 369 3419 372 
L 3338 -44 
Q 3222 -84 3103 -103 
Q 2981 -122 2866 -122 
Q 2491 -122 2388 81 
Q 2284 288 2391 838 
L 2797 2925 
L 1506 2925 
L 938 0 
L 350 0 
L 919 2925 
L 472 2925 
L 584 3500 
z
" id="DejaVuSans-Oblique-3c0" transform="scale(0.015625)"/>
      </defs>
      <use transform="translate(0 0.826562)" xlink:href="#DejaVuSans-Oblique-3c0"/>
      <use transform="translate(64.671224 39.107812)scale(0.7)" xlink:href="#DejaVuSans-2b"/>
      <use transform="translate(126.057943 0.826562)" xlink:href="#DejaVuSans-20"/>
      <use transform="translate(157.845052 0.826562)" xlink:href="#DejaVuSans-44"/>
      <use transform="translate(234.847005 0.826562)" xlink:href="#DejaVuSans-56"/>
      <use transform="translate(303.255208 0.826562)" xlink:href="#DejaVuSans-41"/>
      <use transform="translate(371.663411 0.826562)" xlink:href="#DejaVuSans-45"/>
     </g>
    </g>
    <g id="patch_8">
     <path d="M 861.8 110.956875 
L 901.8 110.956875 
L 901.8 96.956875 
L 861.8 96.956875 
z
" style="fill:#800080;opacity:0.3;stroke:#800080;stroke-linejoin:miter;"/>
    </g>
    <g id="text_14">
     <!-- $e^{+}$ GEANT -->
     <g transform="translate(917.8 110.956875)scale(0.2 -0.2)">
      <defs>
       <path d="M 3809 666 
L 3809 1919 
L 2778 1919 
L 2778 2438 
L 4434 2438 
L 4434 434 
Q 4069 175 3628 42 
Q 3188 -91 2688 -91 
Q 1594 -91 976 548 
Q 359 1188 359 2328 
Q 359 3472 976 4111 
Q 1594 4750 2688 4750 
Q 3144 4750 3555 4637 
Q 3966 4525 4313 4306 
L 4313 3634 
Q 3963 3931 3569 4081 
Q 3175 4231 2741 4231 
Q 1884 4231 1454 3753 
Q 1025 3275 1025 2328 
Q 1025 1384 1454 906 
Q 1884 428 2741 428 
Q 3075 428 3337 486 
Q 3600 544 3809 666 
z
" id="DejaVuSans-47" transform="scale(0.015625)"/>
       <path d="M 628 4666 
L 1478 4666 
L 3547 763 
L 3547 4666 
L 4159 4666 
L 4159 0 
L 3309 0 
L 1241 3903 
L 1241 0 
L 628 0 
L 628 4666 
z
" id="DejaVuSans-4e" transform="scale(0.015625)"/>
       <path d="M -19 4666 
L 3928 4666 
L 3928 4134 
L 2272 4134 
L 2272 0 
L 1638 0 
L 1638 4134 
L -19 4134 
L -19 4666 
z
" id="DejaVuSans-54" transform="scale(0.015625)"/>
      </defs>
      <use transform="translate(0 0.826562)" xlink:href="#DejaVuSans-Oblique-65"/>
      <use transform="translate(66.173333 39.107812)scale(0.7)" xlink:href="#DejaVuSans-2b"/>
      <use transform="translate(127.560052 0.826562)" xlink:href="#DejaVuSans-20"/>
      <use transform="translate(159.347161 0.826562)" xlink:href="#DejaVuSans-47"/>
      <use transform="translate(236.837396 0.826562)" xlink:href="#DejaVuSans-45"/>
      <use transform="translate(300.02099 0.826562)" xlink:href="#DejaVuSans-41"/>
      <use transform="translate(368.429193 0.826562)" xlink:href="#DejaVuSans-4e"/>
      <use transform="translate(443.23388 0.826562)" xlink:href="#DejaVuSans-54"/>
     </g>
    </g>
    <g id="patch_9">
     <path d="M 861.8 140.313125 
L 901.8 140.313125 
L 901.8 126.313125 
L 861.8 126.313125 
z
" style="fill:#0000ff;opacity:0.3;stroke:#0000ff;stroke-linejoin:miter;"/>
    </g>
    <g id="text_15">
     <!-- $\gamma$   GEANT -->
     <g transform="translate(917.8 140.313125)scale(0.2 -0.2)">
      <use transform="translate(0 0.78125)" xlink:href="#DejaVuSans-Oblique-3b3"/>
      <use transform="translate(59.179688 0.78125)" xlink:href="#DejaVuSans-20"/>
      <use transform="translate(90.966797 0.78125)" xlink:href="#DejaVuSans-20"/>
      <use transform="translate(122.753906 0.78125)" xlink:href="#DejaVuSans-20"/>
      <use transform="translate(154.541016 0.78125)" xlink:href="#DejaVuSans-47"/>
      <use transform="translate(232.03125 0.78125)" xlink:href="#DejaVuSans-45"/>
      <use transform="translate(295.214844 0.78125)" xlink:href="#DejaVuSans-41"/>
      <use transform="translate(363.623047 0.78125)" xlink:href="#DejaVuSans-4e"/>
      <use transform="translate(438.427734 0.78125)" xlink:href="#DejaVuSans-54"/>
     </g>
    </g>
    <g id="patch_10">
     <path d="M 861.8 169.71 
L 901.8 169.71 
L 901.8 155.71 
L 861.8 155.71 
z
" style="fill:#f0e68c;opacity:0.3;stroke:#f0e68c;stroke-linejoin:miter;"/>
    </g>
    <g id="text_16">
     <!-- $\pi^{+}$ GEANT -->
     <g transform="translate(917.8 169.71)scale(0.2 -0.2)">
      <use transform="translate(0 0.826562)" xlink:href="#DejaVuSans-Oblique-3c0"/>
      <use transform="translate(64.671224 39.107812)scale(0.7)" xlink:href="#DejaVuSans-2b"/>
      <use transform="translate(126.057943 0.826562)" xlink:href="#DejaVuSans-20"/>
      <use transform="translate(157.845052 0.826562)" xlink:href="#DejaVuSans-47"/>
      <use transform="translate(235.335286 0.826562)" xlink:href="#DejaVuSans-45"/>
      <use transform="translate(298.51888 0.826562)" xlink:href="#DejaVuSans-41"/>
      <use transform="translate(366.927083 0.826562)" xlink:href="#DejaVuSans-4e"/>
      <use transform="translate(441.731771 0.826562)" xlink:href="#DejaVuSans-54"/>
     </g>
    </g>
   </g>
  </g>
 </g>
 <defs>
  <clipPath id="pf9bd087ef4">
   <rect height="489.24" width="892.8" x="144" y="77.76"/>
  </clipPath>
 </defs>
</svg>
