<?xml version="1.0" encoding="utf-8" standalone="no"?>
<!DOCTYPE svg PUBLIC "-//W3C//DTD SVG 1.1//EN"
  "http://www.w3.org/Graphics/SVG/1.1/DTD/svg11.dtd">
<svg height="648pt" version="1.1" viewBox="0 0 1152 648" width="1152pt" xmlns="http://www.w3.org/2000/svg" xmlns:xlink="http://www.w3.org/1999/xlink">
 <metadata>
  <rdf:RDF xmlns:cc="http://creativecommons.org/ns#" xmlns:dc="http://purl.org/dc/elements/1.1/" xmlns:rdf="http://www.w3.org/1999/02/22-rdf-syntax-ns#">
   <cc:Work>
    <dc:type rdf:resource="http://purl.org/dc/dcmitype/StillImage"/>
    <dc:date>2021-09-24T23:03:46.913839</dc:date>
    <dc:format>image/svg+xml</dc:format>
    <dc:creator>
     <cc:Agent>
      <dc:title>Matplotlib v3.4.2, https://matplotlib.org/</dc:title>
     </cc:Agent>
    </dc:creator>
   </cc:Work>
  </rdf:RDF>
 </metadata>
 <defs>
  <style type="text/css">*{stroke-linecap:butt;stroke-linejoin:round;}</style>
 </defs>
 <g id="figure_1">
  <g id="patch_1">
   <path d="M 0 648 
L 1152 648 
L 1152 0 
L 0 0 
z
" style="fill:none;"/>
  </g>
  <g id="axes_1">
   <g id="patch_2">
    <path d="M 144 567 
L 1036.8 567 
L 1036.8 77.76 
L 144 77.76 
z
" style="fill:#ffffff;"/>
   </g>
   <g id="PolyCollection_1">
    <path clip-path="url(#p8c783de5e8)" d="M 184.581818 122679.785733 
L 184.581818 122679.785733 
L 184.581818 122679.785733 
L 184.581818 122679.785733 
L 188.819099 122679.785733 
L 188.819099 122679.785733 
L 197.101102 122679.785733 
L 197.101102 122679.785733 
L 205.383106 122679.785733 
L 205.383106 122679.785733 
L 213.66511 122679.785733 
L 213.66511 122679.785733 
L 221.947113 122679.785733 
L 221.947113 122679.785733 
L 230.229117 122679.785733 
L 230.229117 122679.785733 
L 238.511121 122679.785733 
L 238.511121 122679.785733 
L 246.793125 122679.785733 
L 246.793125 122679.785733 
L 255.075128 122679.785733 
L 255.075128 122679.785733 
L 263.357132 122679.785733 
L 263.357132 122679.785733 
L 271.639136 122679.785733 
L 271.639136 122679.785733 
L 279.921139 122679.785733 
L 279.921139 122679.785733 
L 288.203143 122679.785733 
L 288.203143 122679.785733 
L 296.485147 122679.785733 
L 296.485147 122679.785733 
L 304.76715 122679.785733 
L 304.76715 122679.785733 
L 313.049154 122679.785733 
L 313.049154 122679.785733 
L 321.331158 122679.785733 
L 321.331158 122679.785733 
L 329.613162 122679.785733 
L 329.613162 122679.785733 
L 337.895165 122679.785733 
L 337.895165 122679.785733 
L 346.177169 122679.785733 
L 346.177169 122679.785733 
L 354.459173 122679.785733 
L 354.459173 122679.785733 
L 362.741176 122679.785733 
L 362.741176 122679.785733 
L 371.02318 122679.785733 
L 371.02318 122679.785733 
L 379.305184 122679.785733 
L 379.305184 122679.785733 
L 387.587188 122679.785733 
L 387.587188 122679.785733 
L 395.869191 122679.785733 
L 395.869191 122679.785733 
L 404.151195 122679.785733 
L 404.151195 122679.785733 
L 412.433199 122679.785733 
L 412.433199 122679.785733 
L 420.715202 122679.785733 
L 420.715202 122679.785733 
L 428.997206 122679.785733 
L 428.997206 122679.785733 
L 437.27921 122679.785733 
L 437.27921 122679.785733 
L 445.561214 122679.785733 
L 445.561214 122679.785733 
L 453.843217 122679.785733 
L 453.843217 122679.785733 
L 462.125221 122679.785733 
L 462.125221 122679.785733 
L 470.407225 122679.785733 
L 470.407225 122679.785733 
L 478.689228 122679.785733 
L 478.689228 122679.785733 
L 486.971232 122679.785733 
L 486.971232 122679.785733 
L 495.253236 122679.785733 
L 495.253236 122679.785733 
L 503.53524 122679.785733 
L 503.53524 122679.785733 
L 511.817243 122679.785733 
L 511.817243 122679.785733 
L 520.099247 122679.785733 
L 520.099247 122679.785733 
L 528.381251 122679.785733 
L 528.381251 122679.785733 
L 536.663254 122679.785733 
L 536.663254 122679.785733 
L 544.945258 122679.785733 
L 544.945258 122679.785733 
L 553.227262 122679.785733 
L 553.227262 122679.785733 
L 561.509266 122679.785733 
L 561.509266 122679.785733 
L 569.791269 122679.785733 
L 569.791269 122679.785733 
L 578.073273 122679.785733 
L 578.073273 122679.785733 
L 586.355277 122679.785733 
L 586.355277 122679.785733 
L 594.63728 122679.785733 
L 594.63728 122679.785733 
L 602.919284 122679.785733 
L 602.919284 122679.785733 
L 611.201288 122679.785733 
L 611.201288 122679.785733 
L 619.483291 122679.785733 
L 619.483291 122679.785733 
L 627.765295 122679.785733 
L 627.765295 122679.785733 
L 636.047299 122679.785733 
L 636.047299 122679.785733 
L 644.329303 122679.785733 
L 644.329303 122679.785733 
L 652.611306 122679.785733 
L 652.611306 122679.785733 
L 660.89331 122679.785733 
L 660.89331 122679.785733 
L 669.175314 122679.785733 
L 669.175314 122679.785733 
L 677.457317 122679.785733 
L 677.457317 122679.785733 
L 685.739321 122679.785733 
L 685.739321 122679.785733 
L 694.021325 122679.785733 
L 694.021325 122679.785733 
L 702.303329 122679.785733 
L 702.303329 122679.785733 
L 710.585332 122679.785733 
L 710.585332 122679.785733 
L 718.867336 122679.785733 
L 718.867336 122679.785733 
L 727.14934 122679.785733 
L 727.14934 122679.785733 
L 735.431343 122679.785733 
L 735.431343 122679.785733 
L 743.713347 122679.785733 
L 743.713347 122679.785733 
L 751.995351 122679.785733 
L 751.995351 122679.785733 
L 760.277355 122679.785733 
L 760.277355 122679.785733 
L 768.559358 122679.785733 
L 768.559358 122679.785733 
L 776.841362 122679.785733 
L 776.841362 122679.785733 
L 785.123366 122679.785733 
L 785.123366 122679.785733 
L 793.405369 122679.785733 
L 793.405369 122679.785733 
L 801.687373 122679.785733 
L 801.687373 122679.785733 
L 809.969377 122679.785733 
L 809.969377 122679.785733 
L 818.251381 122679.785733 
L 818.251381 122679.785733 
L 826.533384 122679.785733 
L 826.533384 122679.785733 
L 834.815388 122679.785733 
L 834.815388 122679.785733 
L 843.097392 122679.785733 
L 843.097392 122679.785733 
L 851.379395 122679.785733 
L 851.379395 122679.785733 
L 859.661399 122679.785733 
L 859.661399 486.488602 
L 867.943403 486.488602 
L 867.943403 471.229207 
L 876.225407 471.229207 
L 876.225407 486.488602 
L 884.50741 486.488602 
L 884.50741 544.761818 
L 892.789414 544.761818 
L 892.789414 422.626794 
L 901.071418 422.626794 
L 901.071418 422.626794 
L 909.353421 422.626794 
L 909.353421 394.48091 
L 917.635425 394.48091 
L 917.635425 369.942171 
L 925.917429 369.942171 
L 925.917429 335.177709 
L 934.199432 335.177709 
L 934.199432 314.355228 
L 942.481436 314.355228 
L 942.481436 291.26484 
L 950.76344 291.26484 
L 950.76344 258.669968 
L 959.045444 258.669968 
L 959.045444 217.067804 
L 967.327447 217.067804 
L 967.327447 170.438462 
L 975.609451 170.438462 
L 975.609451 120.065853 
L 983.891455 120.065853 
L 983.891455 102.858648 
L 992.173458 102.858648 
L 992.173458 200.23626 
L 996.218182 200.23626 
L 996.218182 122679.785733 
L 996.218182 122679.785733 
L 996.218182 122679.785733 
L 996.218182 122679.785733 
L 996.218182 122679.785733 
L 996.218182 122679.785733 
L 992.173458 122679.785733 
L 992.173458 122679.785733 
L 983.891455 122679.785733 
L 983.891455 122679.785733 
L 975.609451 122679.785733 
L 975.609451 122679.785733 
L 967.327447 122679.785733 
L 967.327447 122679.785733 
L 959.045444 122679.785733 
L 959.045444 122679.785733 
L 950.76344 122679.785733 
L 950.76344 122679.785733 
L 942.481436 122679.785733 
L 942.481436 122679.785733 
L 934.199432 122679.785733 
L 934.199432 122679.785733 
L 925.917429 122679.785733 
L 925.917429 122679.785733 
L 917.635425 122679.785733 
L 917.635425 122679.785733 
L 909.353421 122679.785733 
L 909.353421 122679.785733 
L 901.071418 122679.785733 
L 901.071418 122679.785733 
L 892.789414 122679.785733 
L 892.789414 122679.785733 
L 884.50741 122679.785733 
L 884.50741 122679.785733 
L 876.225407 122679.785733 
L 876.225407 122679.785733 
L 867.943403 122679.785733 
L 867.943403 122679.785733 
L 859.661399 122679.785733 
L 859.661399 122679.785733 
L 851.379395 122679.785733 
L 851.379395 122679.785733 
L 843.097392 122679.785733 
L 843.097392 122679.785733 
L 834.815388 122679.785733 
L 834.815388 122679.785733 
L 826.533384 122679.785733 
L 826.533384 122679.785733 
L 818.251381 122679.785733 
L 818.251381 122679.785733 
L 809.969377 122679.785733 
L 809.969377 122679.785733 
L 801.687373 122679.785733 
L 801.687373 122679.785733 
L 793.405369 122679.785733 
L 793.405369 122679.785733 
L 785.123366 122679.785733 
L 785.123366 122679.785733 
L 776.841362 122679.785733 
L 776.841362 122679.785733 
L 768.559358 122679.785733 
L 768.559358 122679.785733 
L 760.277355 122679.785733 
L 760.277355 122679.785733 
L 751.995351 122679.785733 
L 751.995351 122679.785733 
L 743.713347 122679.785733 
L 743.713347 122679.785733 
L 735.431343 122679.785733 
L 735.431343 122679.785733 
L 727.14934 122679.785733 
L 727.14934 122679.785733 
L 718.867336 122679.785733 
L 718.867336 122679.785733 
L 710.585332 122679.785733 
L 710.585332 122679.785733 
L 702.303329 122679.785733 
L 702.303329 122679.785733 
L 694.021325 122679.785733 
L 694.021325 122679.785733 
L 685.739321 122679.785733 
L 685.739321 122679.785733 
L 677.457317 122679.785733 
L 677.457317 122679.785733 
L 669.175314 122679.785733 
L 669.175314 122679.785733 
L 660.89331 122679.785733 
L 660.89331 122679.785733 
L 652.611306 122679.785733 
L 652.611306 122679.785733 
L 644.329303 122679.785733 
L 644.329303 122679.785733 
L 636.047299 122679.785733 
L 636.047299 122679.785733 
L 627.765295 122679.785733 
L 627.765295 122679.785733 
L 619.483291 122679.785733 
L 619.483291 122679.785733 
L 611.201288 122679.785733 
L 611.201288 122679.785733 
L 602.919284 122679.785733 
L 602.919284 122679.785733 
L 594.63728 122679.785733 
L 594.63728 122679.785733 
L 586.355277 122679.785733 
L 586.355277 122679.785733 
L 578.073273 122679.785733 
L 578.073273 122679.785733 
L 569.791269 122679.785733 
L 569.791269 122679.785733 
L 561.509266 122679.785733 
L 561.509266 122679.785733 
L 553.227262 122679.785733 
L 553.227262 122679.785733 
L 544.945258 122679.785733 
L 544.945258 122679.785733 
L 536.663254 122679.785733 
L 536.663254 122679.785733 
L 528.381251 122679.785733 
L 528.381251 122679.785733 
L 520.099247 122679.785733 
L 520.099247 122679.785733 
L 511.817243 122679.785733 
L 511.817243 122679.785733 
L 503.53524 122679.785733 
L 503.53524 122679.785733 
L 495.253236 122679.785733 
L 495.253236 122679.785733 
L 486.971232 122679.785733 
L 486.971232 122679.785733 
L 478.689228 122679.785733 
L 478.689228 122679.785733 
L 470.407225 122679.785733 
L 470.407225 122679.785733 
L 462.125221 122679.785733 
L 462.125221 122679.785733 
L 453.843217 122679.785733 
L 453.843217 122679.785733 
L 445.561214 122679.785733 
L 445.561214 122679.785733 
L 437.27921 122679.785733 
L 437.27921 122679.785733 
L 428.997206 122679.785733 
L 428.997206 122679.785733 
L 420.715202 122679.785733 
L 420.715202 122679.785733 
L 412.433199 122679.785733 
L 412.433199 122679.785733 
L 404.151195 122679.785733 
L 404.151195 122679.785733 
L 395.869191 122679.785733 
L 395.869191 122679.785733 
L 387.587188 122679.785733 
L 387.587188 122679.785733 
L 379.305184 122679.785733 
L 379.305184 122679.785733 
L 371.02318 122679.785733 
L 371.02318 122679.785733 
L 362.741176 122679.785733 
L 362.741176 122679.785733 
L 354.459173 122679.785733 
L 354.459173 122679.785733 
L 346.177169 122679.785733 
L 346.177169 122679.785733 
L 337.895165 122679.785733 
L 337.895165 122679.785733 
L 329.613162 122679.785733 
L 329.613162 122679.785733 
L 321.331158 122679.785733 
L 321.331158 122679.785733 
L 313.049154 122679.785733 
L 313.049154 122679.785733 
L 304.76715 122679.785733 
L 304.76715 122679.785733 
L 296.485147 122679.785733 
L 296.485147 122679.785733 
L 288.203143 122679.785733 
L 288.203143 122679.785733 
L 279.921139 122679.785733 
L 279.921139 122679.785733 
L 271.639136 122679.785733 
L 271.639136 122679.785733 
L 263.357132 122679.785733 
L 263.357132 122679.785733 
L 255.075128 122679.785733 
L 255.075128 122679.785733 
L 246.793125 122679.785733 
L 246.793125 122679.785733 
L 238.511121 122679.785733 
L 238.511121 122679.785733 
L 230.229117 122679.785733 
L 230.229117 122679.785733 
L 221.947113 122679.785733 
L 221.947113 122679.785733 
L 213.66511 122679.785733 
L 213.66511 122679.785733 
L 205.383106 122679.785733 
L 205.383106 122679.785733 
L 197.101102 122679.785733 
L 197.101102 122679.785733 
L 188.819099 122679.785733 
L 188.819099 122679.785733 
L 184.581818 122679.785733 
L 184.581818 122679.785733 
L 184.581818 122679.785733 
z
" style="fill:#800080;fill-opacity:0.3;stroke:#800080;stroke-opacity:0.3;"/>
   </g>
   <g id="PolyCollection_2">
    <path clip-path="url(#p8c783de5e8)" d="M 184.581818 122679.785733 
L 184.581818 122679.785733 
L 184.581818 122679.785733 
L 184.581818 122679.785733 
L 188.819099 122679.785733 
L 188.819099 122679.785733 
L 197.101102 122679.785733 
L 197.101102 122679.785733 
L 205.383106 122679.785733 
L 205.383106 122679.785733 
L 213.66511 122679.785733 
L 213.66511 122679.785733 
L 221.947113 122679.785733 
L 221.947113 122679.785733 
L 230.229117 122679.785733 
L 230.229117 122679.785733 
L 238.511121 122679.785733 
L 238.511121 122679.785733 
L 246.793125 122679.785733 
L 246.793125 122679.785733 
L 255.075128 122679.785733 
L 255.075128 122679.785733 
L 263.357132 122679.785733 
L 263.357132 122679.785733 
L 271.639136 122679.785733 
L 271.639136 122679.785733 
L 279.921139 122679.785733 
L 279.921139 122679.785733 
L 288.203143 122679.785733 
L 288.203143 122679.785733 
L 296.485147 122679.785733 
L 296.485147 122679.785733 
L 304.76715 122679.785733 
L 304.76715 122679.785733 
L 313.049154 122679.785733 
L 313.049154 122679.785733 
L 321.331158 122679.785733 
L 321.331158 122679.785733 
L 329.613162 122679.785733 
L 329.613162 122679.785733 
L 337.895165 122679.785733 
L 337.895165 122679.785733 
L 346.177169 122679.785733 
L 346.177169 122679.785733 
L 354.459173 122679.785733 
L 354.459173 122679.785733 
L 362.741176 122679.785733 
L 362.741176 122679.785733 
L 371.02318 122679.785733 
L 371.02318 122679.785733 
L 379.305184 122679.785733 
L 379.305184 122679.785733 
L 387.587188 122679.785733 
L 387.587188 122679.785733 
L 395.869191 122679.785733 
L 395.869191 122679.785733 
L 404.151195 122679.785733 
L 404.151195 122679.785733 
L 412.433199 122679.785733 
L 412.433199 122679.785733 
L 420.715202 122679.785733 
L 420.715202 122679.785733 
L 428.997206 122679.785733 
L 428.997206 122679.785733 
L 437.27921 122679.785733 
L 437.27921 122679.785733 
L 445.561214 122679.785733 
L 445.561214 122679.785733 
L 453.843217 122679.785733 
L 453.843217 122679.785733 
L 462.125221 122679.785733 
L 462.125221 122679.785733 
L 470.407225 122679.785733 
L 470.407225 122679.785733 
L 478.689228 122679.785733 
L 478.689228 122679.785733 
L 486.971232 122679.785733 
L 486.971232 122679.785733 
L 495.253236 122679.785733 
L 495.253236 122679.785733 
L 503.53524 122679.785733 
L 503.53524 122679.785733 
L 511.817243 122679.785733 
L 511.817243 122679.785733 
L 520.099247 122679.785733 
L 520.099247 122679.785733 
L 528.381251 122679.785733 
L 528.381251 122679.785733 
L 536.663254 122679.785733 
L 536.663254 122679.785733 
L 544.945258 122679.785733 
L 544.945258 122679.785733 
L 553.227262 122679.785733 
L 553.227262 122679.785733 
L 561.509266 122679.785733 
L 561.509266 122679.785733 
L 569.791269 122679.785733 
L 569.791269 122679.785733 
L 578.073273 122679.785733 
L 578.073273 122679.785733 
L 586.355277 122679.785733 
L 586.355277 122679.785733 
L 594.63728 122679.785733 
L 594.63728 122679.785733 
L 602.919284 122679.785733 
L 602.919284 122679.785733 
L 611.201288 122679.785733 
L 611.201288 122679.785733 
L 619.483291 122679.785733 
L 619.483291 122679.785733 
L 627.765295 122679.785733 
L 627.765295 122679.785733 
L 636.047299 122679.785733 
L 636.047299 122679.785733 
L 644.329303 122679.785733 
L 644.329303 122679.785733 
L 652.611306 122679.785733 
L 652.611306 122679.785733 
L 660.89331 122679.785733 
L 660.89331 122679.785733 
L 669.175314 122679.785733 
L 669.175314 122679.785733 
L 677.457317 122679.785733 
L 677.457317 122679.785733 
L 685.739321 122679.785733 
L 685.739321 122679.785733 
L 694.021325 122679.785733 
L 694.021325 122679.785733 
L 702.303329 122679.785733 
L 702.303329 122679.785733 
L 710.585332 122679.785733 
L 710.585332 122679.785733 
L 718.867336 122679.785733 
L 718.867336 122679.785733 
L 727.14934 122679.785733 
L 727.14934 122679.785733 
L 735.431343 122679.785733 
L 735.431343 122679.785733 
L 743.713347 122679.785733 
L 743.713347 122679.785733 
L 751.995351 122679.785733 
L 751.995351 122679.785733 
L 760.277355 122679.785733 
L 760.277355 122679.785733 
L 768.559358 122679.785733 
L 768.559358 122679.785733 
L 776.841362 122679.785733 
L 776.841362 122679.785733 
L 785.123366 122679.785733 
L 785.123366 122679.785733 
L 793.405369 122679.785733 
L 793.405369 122679.785733 
L 801.687373 122679.785733 
L 801.687373 122679.785733 
L 809.969377 122679.785733 
L 809.969377 122679.785733 
L 818.251381 122679.785733 
L 818.251381 122679.785733 
L 826.533384 122679.785733 
L 826.533384 122679.785733 
L 834.815388 122679.785733 
L 834.815388 122679.785733 
L 843.097392 122679.785733 
L 843.097392 122679.785733 
L 851.379395 122679.785733 
L 851.379395 122679.785733 
L 859.661399 122679.785733 
L 859.661399 122679.785733 
L 867.943403 122679.785733 
L 867.943403 122679.785733 
L 876.225407 122679.785733 
L 876.225407 122679.785733 
L 884.50741 122679.785733 
L 884.50741 486.488602 
L 892.789414 486.488602 
L 892.789414 507.995512 
L 901.071418 507.995512 
L 901.071418 449.722297 
L 909.353421 449.722297 
L 909.353421 417.571298 
L 917.635425 417.571298 
L 917.635425 374.024382 
L 925.917429 374.024382 
L 925.917429 368.013137 
L 934.199432 368.013137 
L 934.199432 331.246832 
L 942.481436 331.246832 
L 942.481436 306.673023 
L 950.76344 306.673023 
L 950.76344 277.934478 
L 959.045444 277.934478 
L 959.045444 234.805222 
L 967.327447 234.805222 
L 967.327447 193.053351 
L 975.609451 193.053351 
L 975.609451 145.268947 
L 983.891455 145.268947 
L 983.891455 112.089156 
L 992.173458 112.089156 
L 992.173458 117.159861 
L 996.218182 117.159861 
L 996.218182 122679.785733 
L 996.218182 122679.785733 
L 996.218182 122679.785733 
L 996.218182 122679.785733 
L 996.218182 122679.785733 
L 996.218182 122679.785733 
L 992.173458 122679.785733 
L 992.173458 122679.785733 
L 983.891455 122679.785733 
L 983.891455 122679.785733 
L 975.609451 122679.785733 
L 975.609451 122679.785733 
L 967.327447 122679.785733 
L 967.327447 122679.785733 
L 959.045444 122679.785733 
L 959.045444 122679.785733 
L 950.76344 122679.785733 
L 950.76344 122679.785733 
L 942.481436 122679.785733 
L 942.481436 122679.785733 
L 934.199432 122679.785733 
L 934.199432 122679.785733 
L 925.917429 122679.785733 
L 925.917429 122679.785733 
L 917.635425 122679.785733 
L 917.635425 122679.785733 
L 909.353421 122679.785733 
L 909.353421 122679.785733 
L 901.071418 122679.785733 
L 901.071418 122679.785733 
L 892.789414 122679.785733 
L 892.789414 122679.785733 
L 884.50741 122679.785733 
L 884.50741 122679.785733 
L 876.225407 122679.785733 
L 876.225407 122679.785733 
L 867.943403 122679.785733 
L 867.943403 122679.785733 
L 859.661399 122679.785733 
L 859.661399 122679.785733 
L 851.379395 122679.785733 
L 851.379395 122679.785733 
L 843.097392 122679.785733 
L 843.097392 122679.785733 
L 834.815388 122679.785733 
L 834.815388 122679.785733 
L 826.533384 122679.785733 
L 826.533384 122679.785733 
L 818.251381 122679.785733 
L 818.251381 122679.785733 
L 809.969377 122679.785733 
L 809.969377 122679.785733 
L 801.687373 122679.785733 
L 801.687373 122679.785733 
L 793.405369 122679.785733 
L 793.405369 122679.785733 
L 785.123366 122679.785733 
L 785.123366 122679.785733 
L 776.841362 122679.785733 
L 776.841362 122679.785733 
L 768.559358 122679.785733 
L 768.559358 122679.785733 
L 760.277355 122679.785733 
L 760.277355 122679.785733 
L 751.995351 122679.785733 
L 751.995351 122679.785733 
L 743.713347 122679.785733 
L 743.713347 122679.785733 
L 735.431343 122679.785733 
L 735.431343 122679.785733 
L 727.14934 122679.785733 
L 727.14934 122679.785733 
L 718.867336 122679.785733 
L 718.867336 122679.785733 
L 710.585332 122679.785733 
L 710.585332 122679.785733 
L 702.303329 122679.785733 
L 702.303329 122679.785733 
L 694.021325 122679.785733 
L 694.021325 122679.785733 
L 685.739321 122679.785733 
L 685.739321 122679.785733 
L 677.457317 122679.785733 
L 677.457317 122679.785733 
L 669.175314 122679.785733 
L 669.175314 122679.785733 
L 660.89331 122679.785733 
L 660.89331 122679.785733 
L 652.611306 122679.785733 
L 652.611306 122679.785733 
L 644.329303 122679.785733 
L 644.329303 122679.785733 
L 636.047299 122679.785733 
L 636.047299 122679.785733 
L 627.765295 122679.785733 
L 627.765295 122679.785733 
L 619.483291 122679.785733 
L 619.483291 122679.785733 
L 611.201288 122679.785733 
L 611.201288 122679.785733 
L 602.919284 122679.785733 
L 602.919284 122679.785733 
L 594.63728 122679.785733 
L 594.63728 122679.785733 
L 586.355277 122679.785733 
L 586.355277 122679.785733 
L 578.073273 122679.785733 
L 578.073273 122679.785733 
L 569.791269 122679.785733 
L 569.791269 122679.785733 
L 561.509266 122679.785733 
L 561.509266 122679.785733 
L 553.227262 122679.785733 
L 553.227262 122679.785733 
L 544.945258 122679.785733 
L 544.945258 122679.785733 
L 536.663254 122679.785733 
L 536.663254 122679.785733 
L 528.381251 122679.785733 
L 528.381251 122679.785733 
L 520.099247 122679.785733 
L 520.099247 122679.785733 
L 511.817243 122679.785733 
L 511.817243 122679.785733 
L 503.53524 122679.785733 
L 503.53524 122679.785733 
L 495.253236 122679.785733 
L 495.253236 122679.785733 
L 486.971232 122679.785733 
L 486.971232 122679.785733 
L 478.689228 122679.785733 
L 478.689228 122679.785733 
L 470.407225 122679.785733 
L 470.407225 122679.785733 
L 462.125221 122679.785733 
L 462.125221 122679.785733 
L 453.843217 122679.785733 
L 453.843217 122679.785733 
L 445.561214 122679.785733 
L 445.561214 122679.785733 
L 437.27921 122679.785733 
L 437.27921 122679.785733 
L 428.997206 122679.785733 
L 428.997206 122679.785733 
L 420.715202 122679.785733 
L 420.715202 122679.785733 
L 412.433199 122679.785733 
L 412.433199 122679.785733 
L 404.151195 122679.785733 
L 404.151195 122679.785733 
L 395.869191 122679.785733 
L 395.869191 122679.785733 
L 387.587188 122679.785733 
L 387.587188 122679.785733 
L 379.305184 122679.785733 
L 379.305184 122679.785733 
L 371.02318 122679.785733 
L 371.02318 122679.785733 
L 362.741176 122679.785733 
L 362.741176 122679.785733 
L 354.459173 122679.785733 
L 354.459173 122679.785733 
L 346.177169 122679.785733 
L 346.177169 122679.785733 
L 337.895165 122679.785733 
L 337.895165 122679.785733 
L 329.613162 122679.785733 
L 329.613162 122679.785733 
L 321.331158 122679.785733 
L 321.331158 122679.785733 
L 313.049154 122679.785733 
L 313.049154 122679.785733 
L 304.76715 122679.785733 
L 304.76715 122679.785733 
L 296.485147 122679.785733 
L 296.485147 122679.785733 
L 288.203143 122679.785733 
L 288.203143 122679.785733 
L 279.921139 122679.785733 
L 279.921139 122679.785733 
L 271.639136 122679.785733 
L 271.639136 122679.785733 
L 263.357132 122679.785733 
L 263.357132 122679.785733 
L 255.075128 122679.785733 
L 255.075128 122679.785733 
L 246.793125 122679.785733 
L 246.793125 122679.785733 
L 238.511121 122679.785733 
L 238.511121 122679.785733 
L 230.229117 122679.785733 
L 230.229117 122679.785733 
L 221.947113 122679.785733 
L 221.947113 122679.785733 
L 213.66511 122679.785733 
L 213.66511 122679.785733 
L 205.383106 122679.785733 
L 205.383106 122679.785733 
L 197.101102 122679.785733 
L 197.101102 122679.785733 
L 188.819099 122679.785733 
L 188.819099 122679.785733 
L 184.581818 122679.785733 
L 184.581818 122679.785733 
L 184.581818 122679.785733 
z
" style="fill:#0000ff;fill-opacity:0.3;stroke:#0000ff;stroke-opacity:0.3;"/>
   </g>
   <g id="PolyCollection_3">
    <path clip-path="url(#p8c783de5e8)" d="M 184.581818 122679.785733 
L 184.581818 122679.785733 
L 184.581818 122679.785733 
L 184.581818 122679.785733 
L 188.819099 122679.785733 
L 188.819099 122679.785733 
L 197.101102 122679.785733 
L 197.101102 122679.785733 
L 205.383106 122679.785733 
L 205.383106 122679.785733 
L 213.66511 122679.785733 
L 213.66511 122679.785733 
L 221.947113 122679.785733 
L 221.947113 122679.785733 
L 230.229117 122679.785733 
L 230.229117 122679.785733 
L 238.511121 122679.785733 
L 238.511121 122679.785733 
L 246.793125 122679.785733 
L 246.793125 122679.785733 
L 255.075128 122679.785733 
L 255.075128 122679.785733 
L 263.357132 122679.785733 
L 263.357132 122679.785733 
L 271.639136 122679.785733 
L 271.639136 122679.785733 
L 279.921139 122679.785733 
L 279.921139 122679.785733 
L 288.203143 122679.785733 
L 288.203143 122679.785733 
L 296.485147 122679.785733 
L 296.485147 122679.785733 
L 304.76715 122679.785733 
L 304.76715 122679.785733 
L 313.049154 122679.785733 
L 313.049154 122679.785733 
L 321.331158 122679.785733 
L 321.331158 122679.785733 
L 329.613162 122679.785733 
L 329.613162 122679.785733 
L 337.895165 122679.785733 
L 337.895165 122679.785733 
L 346.177169 122679.785733 
L 346.177169 122679.785733 
L 354.459173 122679.785733 
L 354.459173 122679.785733 
L 362.741176 122679.785733 
L 362.741176 122679.785733 
L 371.02318 122679.785733 
L 371.02318 122679.785733 
L 379.305184 122679.785733 
L 379.305184 122679.785733 
L 387.587188 122679.785733 
L 387.587188 122679.785733 
L 395.869191 122679.785733 
L 395.869191 122679.785733 
L 404.151195 122679.785733 
L 404.151195 122679.785733 
L 412.433199 122679.785733 
L 412.433199 122679.785733 
L 420.715202 122679.785733 
L 420.715202 122679.785733 
L 428.997206 122679.785733 
L 428.997206 122679.785733 
L 437.27921 122679.785733 
L 437.27921 122679.785733 
L 445.561214 122679.785733 
L 445.561214 122679.785733 
L 453.843217 122679.785733 
L 453.843217 122679.785733 
L 462.125221 122679.785733 
L 462.125221 122679.785733 
L 470.407225 122679.785733 
L 470.407225 122679.785733 
L 478.689228 122679.785733 
L 478.689228 122679.785733 
L 486.971232 122679.785733 
L 486.971232 122679.785733 
L 495.253236 122679.785733 
L 495.253236 122679.785733 
L 503.53524 122679.785733 
L 503.53524 122679.785733 
L 511.817243 122679.785733 
L 511.817243 122679.785733 
L 520.099247 122679.785733 
L 520.099247 122679.785733 
L 528.381251 122679.785733 
L 528.381251 122679.785733 
L 536.663254 122679.785733 
L 536.663254 122679.785733 
L 544.945258 122679.785733 
L 544.945258 122679.785733 
L 553.227262 122679.785733 
L 553.227262 122679.785733 
L 561.509266 122679.785733 
L 561.509266 122679.785733 
L 569.791269 122679.785733 
L 569.791269 122679.785733 
L 578.073273 122679.785733 
L 578.073273 122679.785733 
L 586.355277 122679.785733 
L 586.355277 122679.785733 
L 594.63728 122679.785733 
L 594.63728 122679.785733 
L 602.919284 122679.785733 
L 602.919284 122679.785733 
L 611.201288 122679.785733 
L 611.201288 122679.785733 
L 619.483291 122679.785733 
L 619.483291 122679.785733 
L 627.765295 122679.785733 
L 627.765295 122679.785733 
L 636.047299 122679.785733 
L 636.047299 122679.785733 
L 644.329303 122679.785733 
L 644.329303 122679.785733 
L 652.611306 122679.785733 
L 652.611306 122679.785733 
L 660.89331 122679.785733 
L 660.89331 122679.785733 
L 669.175314 122679.785733 
L 669.175314 544.761818 
L 677.457317 544.761818 
L 677.457317 122679.785733 
L 685.739321 122679.785733 
L 685.739321 122679.785733 
L 694.021325 122679.785733 
L 694.021325 122679.785733 
L 702.303329 122679.785733 
L 702.303329 122679.785733 
L 710.585332 122679.785733 
L 710.585332 122679.785733 
L 718.867336 122679.785733 
L 718.867336 122679.785733 
L 727.14934 122679.785733 
L 727.14934 122679.785733 
L 735.431343 122679.785733 
L 735.431343 544.761818 
L 743.713347 544.761818 
L 743.713347 122679.785733 
L 751.995351 122679.785733 
L 751.995351 544.761818 
L 760.277355 544.761818 
L 760.277355 122679.785733 
L 768.559358 122679.785733 
L 768.559358 544.761818 
L 776.841362 544.761818 
L 776.841362 122679.785733 
L 785.123366 122679.785733 
L 785.123366 544.761818 
L 793.405369 544.761818 
L 793.405369 122679.785733 
L 801.687373 122679.785733 
L 801.687373 544.761818 
L 809.969377 544.761818 
L 809.969377 486.488602 
L 818.251381 486.488602 
L 818.251381 471.229207 
L 826.533384 471.229207 
L 826.533384 459.3931 
L 834.815388 459.3931 
L 834.815388 412.955991 
L 843.097392 412.955991 
L 843.097392 371.944014 
L 851.379395 371.944014 
L 851.379395 359.298082 
L 859.661399 359.298082 
L 859.661399 357.714604 
L 867.943403 357.714604 
L 867.943403 360.93029 
L 876.225407 360.93029 
L 876.225407 329.385498 
L 884.50741 329.385498 
L 884.50741 317.184836 
L 892.789414 317.184836 
L 892.789414 317.916469 
L 901.071418 317.916469 
L 901.071418 308.491804 
L 909.353421 308.491804 
L 909.353421 312.327877 
L 917.635425 312.327877 
L 917.635425 289.081711 
L 925.917429 289.081711 
L 925.917429 288.233011 
L 934.199432 288.233011 
L 934.199432 276.565562 
L 942.481436 276.565562 
L 942.481436 256.312132 
L 950.76344 256.312132 
L 950.76344 240.822617 
L 959.045444 240.822617 
L 959.045444 199.126211 
L 967.327447 199.126211 
L 967.327447 134.223253 
L 975.609451 134.223253 
L 975.609451 152.47376 
L 983.891455 152.47376 
L 983.891455 149.436504 
L 992.173458 149.436504 
L 992.173458 136.462663 
L 996.218182 136.462663 
L 996.218182 122679.785733 
L 996.218182 122679.785733 
L 996.218182 122679.785733 
L 996.218182 122679.785733 
L 996.218182 122679.785733 
L 996.218182 122679.785733 
L 992.173458 122679.785733 
L 992.173458 122679.785733 
L 983.891455 122679.785733 
L 983.891455 122679.785733 
L 975.609451 122679.785733 
L 975.609451 122679.785733 
L 967.327447 122679.785733 
L 967.327447 122679.785733 
L 959.045444 122679.785733 
L 959.045444 122679.785733 
L 950.76344 122679.785733 
L 950.76344 122679.785733 
L 942.481436 122679.785733 
L 942.481436 122679.785733 
L 934.199432 122679.785733 
L 934.199432 122679.785733 
L 925.917429 122679.785733 
L 925.917429 122679.785733 
L 917.635425 122679.785733 
L 917.635425 122679.785733 
L 909.353421 122679.785733 
L 909.353421 122679.785733 
L 901.071418 122679.785733 
L 901.071418 122679.785733 
L 892.789414 122679.785733 
L 892.789414 122679.785733 
L 884.50741 122679.785733 
L 884.50741 122679.785733 
L 876.225407 122679.785733 
L 876.225407 122679.785733 
L 867.943403 122679.785733 
L 867.943403 122679.785733 
L 859.661399 122679.785733 
L 859.661399 122679.785733 
L 851.379395 122679.785733 
L 851.379395 122679.785733 
L 843.097392 122679.785733 
L 843.097392 122679.785733 
L 834.815388 122679.785733 
L 834.815388 122679.785733 
L 826.533384 122679.785733 
L 826.533384 122679.785733 
L 818.251381 122679.785733 
L 818.251381 122679.785733 
L 809.969377 122679.785733 
L 809.969377 122679.785733 
L 801.687373 122679.785733 
L 801.687373 122679.785733 
L 793.405369 122679.785733 
L 793.405369 122679.785733 
L 785.123366 122679.785733 
L 785.123366 122679.785733 
L 776.841362 122679.785733 
L 776.841362 122679.785733 
L 768.559358 122679.785733 
L 768.559358 122679.785733 
L 760.277355 122679.785733 
L 760.277355 122679.785733 
L 751.995351 122679.785733 
L 751.995351 122679.785733 
L 743.713347 122679.785733 
L 743.713347 122679.785733 
L 735.431343 122679.785733 
L 735.431343 122679.785733 
L 727.14934 122679.785733 
L 727.14934 122679.785733 
L 718.867336 122679.785733 
L 718.867336 122679.785733 
L 710.585332 122679.785733 
L 710.585332 122679.785733 
L 702.303329 122679.785733 
L 702.303329 122679.785733 
L 694.021325 122679.785733 
L 694.021325 122679.785733 
L 685.739321 122679.785733 
L 685.739321 122679.785733 
L 677.457317 122679.785733 
L 677.457317 122679.785733 
L 669.175314 122679.785733 
L 669.175314 122679.785733 
L 660.89331 122679.785733 
L 660.89331 122679.785733 
L 652.611306 122679.785733 
L 652.611306 122679.785733 
L 644.329303 122679.785733 
L 644.329303 122679.785733 
L 636.047299 122679.785733 
L 636.047299 122679.785733 
L 627.765295 122679.785733 
L 627.765295 122679.785733 
L 619.483291 122679.785733 
L 619.483291 122679.785733 
L 611.201288 122679.785733 
L 611.201288 122679.785733 
L 602.919284 122679.785733 
L 602.919284 122679.785733 
L 594.63728 122679.785733 
L 594.63728 122679.785733 
L 586.355277 122679.785733 
L 586.355277 122679.785733 
L 578.073273 122679.785733 
L 578.073273 122679.785733 
L 569.791269 122679.785733 
L 569.791269 122679.785733 
L 561.509266 122679.785733 
L 561.509266 122679.785733 
L 553.227262 122679.785733 
L 553.227262 122679.785733 
L 544.945258 122679.785733 
L 544.945258 122679.785733 
L 536.663254 122679.785733 
L 536.663254 122679.785733 
L 528.381251 122679.785733 
L 528.381251 122679.785733 
L 520.099247 122679.785733 
L 520.099247 122679.785733 
L 511.817243 122679.785733 
L 511.817243 122679.785733 
L 503.53524 122679.785733 
L 503.53524 122679.785733 
L 495.253236 122679.785733 
L 495.253236 122679.785733 
L 486.971232 122679.785733 
L 486.971232 122679.785733 
L 478.689228 122679.785733 
L 478.689228 122679.785733 
L 470.407225 122679.785733 
L 470.407225 122679.785733 
L 462.125221 122679.785733 
L 462.125221 122679.785733 
L 453.843217 122679.785733 
L 453.843217 122679.785733 
L 445.561214 122679.785733 
L 445.561214 122679.785733 
L 437.27921 122679.785733 
L 437.27921 122679.785733 
L 428.997206 122679.785733 
L 428.997206 122679.785733 
L 420.715202 122679.785733 
L 420.715202 122679.785733 
L 412.433199 122679.785733 
L 412.433199 122679.785733 
L 404.151195 122679.785733 
L 404.151195 122679.785733 
L 395.869191 122679.785733 
L 395.869191 122679.785733 
L 387.587188 122679.785733 
L 387.587188 122679.785733 
L 379.305184 122679.785733 
L 379.305184 122679.785733 
L 371.02318 122679.785733 
L 371.02318 122679.785733 
L 362.741176 122679.785733 
L 362.741176 122679.785733 
L 354.459173 122679.785733 
L 354.459173 122679.785733 
L 346.177169 122679.785733 
L 346.177169 122679.785733 
L 337.895165 122679.785733 
L 337.895165 122679.785733 
L 329.613162 122679.785733 
L 329.613162 122679.785733 
L 321.331158 122679.785733 
L 321.331158 122679.785733 
L 313.049154 122679.785733 
L 313.049154 122679.785733 
L 304.76715 122679.785733 
L 304.76715 122679.785733 
L 296.485147 122679.785733 
L 296.485147 122679.785733 
L 288.203143 122679.785733 
L 288.203143 122679.785733 
L 279.921139 122679.785733 
L 279.921139 122679.785733 
L 271.639136 122679.785733 
L 271.639136 122679.785733 
L 263.357132 122679.785733 
L 263.357132 122679.785733 
L 255.075128 122679.785733 
L 255.075128 122679.785733 
L 246.793125 122679.785733 
L 246.793125 122679.785733 
L 238.511121 122679.785733 
L 238.511121 122679.785733 
L 230.229117 122679.785733 
L 230.229117 122679.785733 
L 221.947113 122679.785733 
L 221.947113 122679.785733 
L 213.66511 122679.785733 
L 213.66511 122679.785733 
L 205.383106 122679.785733 
L 205.383106 122679.785733 
L 197.101102 122679.785733 
L 197.101102 122679.785733 
L 188.819099 122679.785733 
L 188.819099 122679.785733 
L 184.581818 122679.785733 
L 184.581818 122679.785733 
L 184.581818 122679.785733 
z
" style="fill:#f0e68c;fill-opacity:0.3;stroke:#f0e68c;stroke-opacity:0.3;"/>
   </g>
   <g id="matplotlib.axis_1">
    <g id="xtick_1">
     <g id="line2d_1">
      <defs>
       <path d="M 0 0 
L 0 3.5 
" id="maa162767b3" style="stroke:#000000;stroke-width:0.8;"/>
      </defs>
      <g>
       <use style="stroke:#000000;stroke-width:0.8;" x="180.344538" xlink:href="#maa162767b3" y="567"/>
      </g>
     </g>
     <g id="text_1">
      <!-- $\mathdefault{10^{-4}}$ -->
      <g transform="translate(145.094538 596.795313)scale(0.3 -0.3)">
       <defs>
        <path d="M 794 531 
L 1825 531 
L 1825 4091 
L 703 3866 
L 703 4441 
L 1819 4666 
L 2450 4666 
L 2450 531 
L 3481 531 
L 3481 0 
L 794 0 
L 794 531 
z
" id="DejaVuSans-31" transform="scale(0.015625)"/>
        <path d="M 2034 4250 
Q 1547 4250 1301 3770 
Q 1056 3291 1056 2328 
Q 1056 1369 1301 889 
Q 1547 409 2034 409 
Q 2525 409 2770 889 
Q 3016 1369 3016 2328 
Q 3016 3291 2770 3770 
Q 2525 4250 2034 4250 
z
M 2034 4750 
Q 2819 4750 3233 4129 
Q 3647 3509 3647 2328 
Q 3647 1150 3233 529 
Q 2819 -91 2034 -91 
Q 1250 -91 836 529 
Q 422 1150 422 2328 
Q 422 3509 836 4129 
Q 1250 4750 2034 4750 
z
" id="DejaVuSans-30" transform="scale(0.015625)"/>
        <path d="M 678 2272 
L 4684 2272 
L 4684 1741 
L 678 1741 
L 678 2272 
z
" id="DejaVuSans-2212" transform="scale(0.015625)"/>
        <path d="M 2419 4116 
L 825 1625 
L 2419 1625 
L 2419 4116 
z
M 2253 4666 
L 3047 4666 
L 3047 1625 
L 3713 1625 
L 3713 1100 
L 3047 1100 
L 3047 0 
L 2419 0 
L 2419 1100 
L 313 1100 
L 313 1709 
L 2253 4666 
z
" id="DejaVuSans-34" transform="scale(0.015625)"/>
       </defs>
       <use transform="translate(0 0.684375)" xlink:href="#DejaVuSans-31"/>
       <use transform="translate(63.623047 0.684375)" xlink:href="#DejaVuSans-30"/>
       <use transform="translate(128.203125 38.965625)scale(0.7)" xlink:href="#DejaVuSans-2212"/>
       <use transform="translate(186.855469 38.965625)scale(0.7)" xlink:href="#DejaVuSans-34"/>
      </g>
     </g>
    </g>
    <g id="xtick_2">
     <g id="line2d_2">
      <g>
       <use style="stroke:#000000;stroke-width:0.8;" x="385.32413" xlink:href="#maa162767b3" y="567"/>
      </g>
     </g>
     <g id="text_2">
      <!-- $\mathdefault{10^{-3}}$ -->
      <g transform="translate(350.07413 596.795313)scale(0.3 -0.3)">
       <defs>
        <path d="M 2597 2516 
Q 3050 2419 3304 2112 
Q 3559 1806 3559 1356 
Q 3559 666 3084 287 
Q 2609 -91 1734 -91 
Q 1441 -91 1130 -33 
Q 819 25 488 141 
L 488 750 
Q 750 597 1062 519 
Q 1375 441 1716 441 
Q 2309 441 2620 675 
Q 2931 909 2931 1356 
Q 2931 1769 2642 2001 
Q 2353 2234 1838 2234 
L 1294 2234 
L 1294 2753 
L 1863 2753 
Q 2328 2753 2575 2939 
Q 2822 3125 2822 3475 
Q 2822 3834 2567 4026 
Q 2313 4219 1838 4219 
Q 1578 4219 1281 4162 
Q 984 4106 628 3988 
L 628 4550 
Q 988 4650 1302 4700 
Q 1616 4750 1894 4750 
Q 2613 4750 3031 4423 
Q 3450 4097 3450 3541 
Q 3450 3153 3228 2886 
Q 3006 2619 2597 2516 
z
" id="DejaVuSans-33" transform="scale(0.015625)"/>
       </defs>
       <use transform="translate(0 0.765625)" xlink:href="#DejaVuSans-31"/>
       <use transform="translate(63.623047 0.765625)" xlink:href="#DejaVuSans-30"/>
       <use transform="translate(128.203125 39.046875)scale(0.7)" xlink:href="#DejaVuSans-2212"/>
       <use transform="translate(186.855469 39.046875)scale(0.7)" xlink:href="#DejaVuSans-33"/>
      </g>
     </g>
    </g>
    <g id="xtick_3">
     <g id="line2d_3">
      <g>
       <use style="stroke:#000000;stroke-width:0.8;" x="590.303721" xlink:href="#maa162767b3" y="567"/>
      </g>
     </g>
     <g id="text_3">
      <!-- $\mathdefault{10^{-2}}$ -->
      <g transform="translate(555.053721 596.795313)scale(0.3 -0.3)">
       <defs>
        <path d="M 1228 531 
L 3431 531 
L 3431 0 
L 469 0 
L 469 531 
Q 828 903 1448 1529 
Q 2069 2156 2228 2338 
Q 2531 2678 2651 2914 
Q 2772 3150 2772 3378 
Q 2772 3750 2511 3984 
Q 2250 4219 1831 4219 
Q 1534 4219 1204 4116 
Q 875 4013 500 3803 
L 500 4441 
Q 881 4594 1212 4672 
Q 1544 4750 1819 4750 
Q 2544 4750 2975 4387 
Q 3406 4025 3406 3419 
Q 3406 3131 3298 2873 
Q 3191 2616 2906 2266 
Q 2828 2175 2409 1742 
Q 1991 1309 1228 531 
z
" id="DejaVuSans-32" transform="scale(0.015625)"/>
       </defs>
       <use transform="translate(0 0.765625)" xlink:href="#DejaVuSans-31"/>
       <use transform="translate(63.623047 0.765625)" xlink:href="#DejaVuSans-30"/>
       <use transform="translate(128.203125 39.046875)scale(0.7)" xlink:href="#DejaVuSans-2212"/>
       <use transform="translate(186.855469 39.046875)scale(0.7)" xlink:href="#DejaVuSans-32"/>
      </g>
     </g>
    </g>
    <g id="xtick_4">
     <g id="line2d_4">
      <g>
       <use style="stroke:#000000;stroke-width:0.8;" x="795.283313" xlink:href="#maa162767b3" y="567"/>
      </g>
     </g>
     <g id="text_4">
      <!-- $\mathdefault{10^{-1}}$ -->
      <g transform="translate(760.033313 596.795313)scale(0.3 -0.3)">
       <use transform="translate(0 0.684375)" xlink:href="#DejaVuSans-31"/>
       <use transform="translate(63.623047 0.684375)" xlink:href="#DejaVuSans-30"/>
       <use transform="translate(128.203125 38.965625)scale(0.7)" xlink:href="#DejaVuSans-2212"/>
       <use transform="translate(186.855469 38.965625)scale(0.7)" xlink:href="#DejaVuSans-31"/>
      </g>
     </g>
    </g>
    <g id="xtick_5">
     <g id="line2d_5">
      <g>
       <use style="stroke:#000000;stroke-width:0.8;" x="1000.262905" xlink:href="#maa162767b3" y="567"/>
      </g>
     </g>
     <g id="text_5">
      <!-- $\mathdefault{10^{0}}$ -->
      <g transform="translate(973.862905 596.795313)scale(0.3 -0.3)">
       <use transform="translate(0 0.765625)" xlink:href="#DejaVuSans-31"/>
       <use transform="translate(63.623047 0.765625)" xlink:href="#DejaVuSans-30"/>
       <use transform="translate(128.203125 39.046875)scale(0.7)" xlink:href="#DejaVuSans-30"/>
      </g>
     </g>
    </g>
    <g id="xtick_6">
     <g id="line2d_6">
      <defs>
       <path d="M 0 0 
L 0 2 
" id="m9ec2115877" style="stroke:#000000;stroke-width:0.6;"/>
      </defs>
      <g>
       <use style="stroke:#000000;stroke-width:0.6;" x="148.592797" xlink:href="#m9ec2115877" y="567"/>
      </g>
     </g>
    </g>
    <g id="xtick_7">
     <g id="line2d_7">
      <g>
       <use style="stroke:#000000;stroke-width:0.6;" x="160.479963" xlink:href="#m9ec2115877" y="567"/>
      </g>
     </g>
    </g>
    <g id="xtick_8">
     <g id="line2d_8">
      <g>
       <use style="stroke:#000000;stroke-width:0.6;" x="170.965186" xlink:href="#m9ec2115877" y="567"/>
      </g>
     </g>
    </g>
    <g id="xtick_9">
     <g id="line2d_9">
      <g>
       <use style="stroke:#000000;stroke-width:0.6;" x="242.049543" xlink:href="#m9ec2115877" y="567"/>
      </g>
     </g>
    </g>
    <g id="xtick_10">
     <g id="line2d_10">
      <g>
       <use style="stroke:#000000;stroke-width:0.6;" x="278.144658" xlink:href="#m9ec2115877" y="567"/>
      </g>
     </g>
    </g>
    <g id="xtick_11">
     <g id="line2d_11">
      <g>
       <use style="stroke:#000000;stroke-width:0.6;" x="303.754549" xlink:href="#m9ec2115877" y="567"/>
      </g>
     </g>
    </g>
    <g id="xtick_12">
     <g id="line2d_12">
      <g>
       <use style="stroke:#000000;stroke-width:0.6;" x="323.619124" xlink:href="#m9ec2115877" y="567"/>
      </g>
     </g>
    </g>
    <g id="xtick_13">
     <g id="line2d_13">
      <g>
       <use style="stroke:#000000;stroke-width:0.6;" x="339.849664" xlink:href="#m9ec2115877" y="567"/>
      </g>
     </g>
    </g>
    <g id="xtick_14">
     <g id="line2d_14">
      <g>
       <use style="stroke:#000000;stroke-width:0.6;" x="353.572389" xlink:href="#m9ec2115877" y="567"/>
      </g>
     </g>
    </g>
    <g id="xtick_15">
     <g id="line2d_15">
      <g>
       <use style="stroke:#000000;stroke-width:0.6;" x="365.459555" xlink:href="#m9ec2115877" y="567"/>
      </g>
     </g>
    </g>
    <g id="xtick_16">
     <g id="line2d_16">
      <g>
       <use style="stroke:#000000;stroke-width:0.6;" x="375.944778" xlink:href="#m9ec2115877" y="567"/>
      </g>
     </g>
    </g>
    <g id="xtick_17">
     <g id="line2d_17">
      <g>
       <use style="stroke:#000000;stroke-width:0.6;" x="447.029135" xlink:href="#m9ec2115877" y="567"/>
      </g>
     </g>
    </g>
    <g id="xtick_18">
     <g id="line2d_18">
      <g>
       <use style="stroke:#000000;stroke-width:0.6;" x="483.12425" xlink:href="#m9ec2115877" y="567"/>
      </g>
     </g>
    </g>
    <g id="xtick_19">
     <g id="line2d_19">
      <g>
       <use style="stroke:#000000;stroke-width:0.6;" x="508.734141" xlink:href="#m9ec2115877" y="567"/>
      </g>
     </g>
    </g>
    <g id="xtick_20">
     <g id="line2d_20">
      <g>
       <use style="stroke:#000000;stroke-width:0.6;" x="528.598716" xlink:href="#m9ec2115877" y="567"/>
      </g>
     </g>
    </g>
    <g id="xtick_21">
     <g id="line2d_21">
      <g>
       <use style="stroke:#000000;stroke-width:0.6;" x="544.829255" xlink:href="#m9ec2115877" y="567"/>
      </g>
     </g>
    </g>
    <g id="xtick_22">
     <g id="line2d_22">
      <g>
       <use style="stroke:#000000;stroke-width:0.6;" x="558.551981" xlink:href="#m9ec2115877" y="567"/>
      </g>
     </g>
    </g>
    <g id="xtick_23">
     <g id="line2d_23">
      <g>
       <use style="stroke:#000000;stroke-width:0.6;" x="570.439147" xlink:href="#m9ec2115877" y="567"/>
      </g>
     </g>
    </g>
    <g id="xtick_24">
     <g id="line2d_24">
      <g>
       <use style="stroke:#000000;stroke-width:0.6;" x="580.92437" xlink:href="#m9ec2115877" y="567"/>
      </g>
     </g>
    </g>
    <g id="xtick_25">
     <g id="line2d_25">
      <g>
       <use style="stroke:#000000;stroke-width:0.6;" x="652.008727" xlink:href="#m9ec2115877" y="567"/>
      </g>
     </g>
    </g>
    <g id="xtick_26">
     <g id="line2d_26">
      <g>
       <use style="stroke:#000000;stroke-width:0.6;" x="688.103842" xlink:href="#m9ec2115877" y="567"/>
      </g>
     </g>
    </g>
    <g id="xtick_27">
     <g id="line2d_27">
      <g>
       <use style="stroke:#000000;stroke-width:0.6;" x="713.713733" xlink:href="#m9ec2115877" y="567"/>
      </g>
     </g>
    </g>
    <g id="xtick_28">
     <g id="line2d_28">
      <g>
       <use style="stroke:#000000;stroke-width:0.6;" x="733.578308" xlink:href="#m9ec2115877" y="567"/>
      </g>
     </g>
    </g>
    <g id="xtick_29">
     <g id="line2d_29">
      <g>
       <use style="stroke:#000000;stroke-width:0.6;" x="749.808847" xlink:href="#m9ec2115877" y="567"/>
      </g>
     </g>
    </g>
    <g id="xtick_30">
     <g id="line2d_30">
      <g>
       <use style="stroke:#000000;stroke-width:0.6;" x="763.531573" xlink:href="#m9ec2115877" y="567"/>
      </g>
     </g>
    </g>
    <g id="xtick_31">
     <g id="line2d_31">
      <g>
       <use style="stroke:#000000;stroke-width:0.6;" x="775.418738" xlink:href="#m9ec2115877" y="567"/>
      </g>
     </g>
    </g>
    <g id="xtick_32">
     <g id="line2d_32">
      <g>
       <use style="stroke:#000000;stroke-width:0.6;" x="785.903962" xlink:href="#m9ec2115877" y="567"/>
      </g>
     </g>
    </g>
    <g id="xtick_33">
     <g id="line2d_33">
      <g>
       <use style="stroke:#000000;stroke-width:0.6;" x="856.988319" xlink:href="#m9ec2115877" y="567"/>
      </g>
     </g>
    </g>
    <g id="xtick_34">
     <g id="line2d_34">
      <g>
       <use style="stroke:#000000;stroke-width:0.6;" x="893.083433" xlink:href="#m9ec2115877" y="567"/>
      </g>
     </g>
    </g>
    <g id="xtick_35">
     <g id="line2d_35">
      <g>
       <use style="stroke:#000000;stroke-width:0.6;" x="918.693325" xlink:href="#m9ec2115877" y="567"/>
      </g>
     </g>
    </g>
    <g id="xtick_36">
     <g id="line2d_36">
      <g>
       <use style="stroke:#000000;stroke-width:0.6;" x="938.5579" xlink:href="#m9ec2115877" y="567"/>
      </g>
     </g>
    </g>
    <g id="xtick_37">
     <g id="line2d_37">
      <g>
       <use style="stroke:#000000;stroke-width:0.6;" x="954.788439" xlink:href="#m9ec2115877" y="567"/>
      </g>
     </g>
    </g>
    <g id="xtick_38">
     <g id="line2d_38">
      <g>
       <use style="stroke:#000000;stroke-width:0.6;" x="968.511165" xlink:href="#m9ec2115877" y="567"/>
      </g>
     </g>
    </g>
    <g id="xtick_39">
     <g id="line2d_39">
      <g>
       <use style="stroke:#000000;stroke-width:0.6;" x="980.39833" xlink:href="#m9ec2115877" y="567"/>
      </g>
     </g>
    </g>
    <g id="xtick_40">
     <g id="line2d_40">
      <g>
       <use style="stroke:#000000;stroke-width:0.6;" x="990.883553" xlink:href="#m9ec2115877" y="567"/>
      </g>
     </g>
    </g>
    <g id="text_6">
     <!-- Layer 1 f -->
     <g transform="translate(524.217188 629.829687)scale(0.3 -0.3)">
      <defs>
       <path d="M 628 4666 
L 1259 4666 
L 1259 531 
L 3531 531 
L 3531 0 
L 628 0 
L 628 4666 
z
" id="DejaVuSans-4c" transform="scale(0.015625)"/>
       <path d="M 2194 1759 
Q 1497 1759 1228 1600 
Q 959 1441 959 1056 
Q 959 750 1161 570 
Q 1363 391 1709 391 
Q 2188 391 2477 730 
Q 2766 1069 2766 1631 
L 2766 1759 
L 2194 1759 
z
M 3341 1997 
L 3341 0 
L 2766 0 
L 2766 531 
Q 2569 213 2275 61 
Q 1981 -91 1556 -91 
Q 1019 -91 701 211 
Q 384 513 384 1019 
Q 384 1609 779 1909 
Q 1175 2209 1959 2209 
L 2766 2209 
L 2766 2266 
Q 2766 2663 2505 2880 
Q 2244 3097 1772 3097 
Q 1472 3097 1187 3025 
Q 903 2953 641 2809 
L 641 3341 
Q 956 3463 1253 3523 
Q 1550 3584 1831 3584 
Q 2591 3584 2966 3190 
Q 3341 2797 3341 1997 
z
" id="DejaVuSans-61" transform="scale(0.015625)"/>
       <path d="M 2059 -325 
Q 1816 -950 1584 -1140 
Q 1353 -1331 966 -1331 
L 506 -1331 
L 506 -850 
L 844 -850 
Q 1081 -850 1212 -737 
Q 1344 -625 1503 -206 
L 1606 56 
L 191 3500 
L 800 3500 
L 1894 763 
L 2988 3500 
L 3597 3500 
L 2059 -325 
z
" id="DejaVuSans-79" transform="scale(0.015625)"/>
       <path d="M 3597 1894 
L 3597 1613 
L 953 1613 
Q 991 1019 1311 708 
Q 1631 397 2203 397 
Q 2534 397 2845 478 
Q 3156 559 3463 722 
L 3463 178 
Q 3153 47 2828 -22 
Q 2503 -91 2169 -91 
Q 1331 -91 842 396 
Q 353 884 353 1716 
Q 353 2575 817 3079 
Q 1281 3584 2069 3584 
Q 2775 3584 3186 3129 
Q 3597 2675 3597 1894 
z
M 3022 2063 
Q 3016 2534 2758 2815 
Q 2500 3097 2075 3097 
Q 1594 3097 1305 2825 
Q 1016 2553 972 2059 
L 3022 2063 
z
" id="DejaVuSans-65" transform="scale(0.015625)"/>
       <path d="M 2631 2963 
Q 2534 3019 2420 3045 
Q 2306 3072 2169 3072 
Q 1681 3072 1420 2755 
Q 1159 2438 1159 1844 
L 1159 0 
L 581 0 
L 581 3500 
L 1159 3500 
L 1159 2956 
Q 1341 3275 1631 3429 
Q 1922 3584 2338 3584 
Q 2397 3584 2469 3576 
Q 2541 3569 2628 3553 
L 2631 2963 
z
" id="DejaVuSans-72" transform="scale(0.015625)"/>
       <path id="DejaVuSans-20" transform="scale(0.015625)"/>
       <path d="M 2375 4863 
L 2375 4384 
L 1825 4384 
Q 1516 4384 1395 4259 
Q 1275 4134 1275 3809 
L 1275 3500 
L 2222 3500 
L 2222 3053 
L 1275 3053 
L 1275 0 
L 697 0 
L 697 3053 
L 147 3053 
L 147 3500 
L 697 3500 
L 697 3744 
Q 697 4328 969 4595 
Q 1241 4863 1831 4863 
L 2375 4863 
z
" id="DejaVuSans-66" transform="scale(0.015625)"/>
      </defs>
      <use xlink:href="#DejaVuSans-4c"/>
      <use x="55.712891" xlink:href="#DejaVuSans-61"/>
      <use x="116.992188" xlink:href="#DejaVuSans-79"/>
      <use x="176.171875" xlink:href="#DejaVuSans-65"/>
      <use x="237.695312" xlink:href="#DejaVuSans-72"/>
      <use x="278.808594" xlink:href="#DejaVuSans-20"/>
      <use x="310.595703" xlink:href="#DejaVuSans-31"/>
      <use x="374.21875" xlink:href="#DejaVuSans-20"/>
      <use x="406.005859" xlink:href="#DejaVuSans-66"/>
     </g>
    </g>
   </g>
   <g id="matplotlib.axis_2">
    <g id="ytick_1">
     <g id="line2d_41">
      <defs>
       <path d="M 0 0 
L -3.5 0 
" id="m3c674daaea" style="stroke:#000000;stroke-width:0.8;"/>
      </defs>
      <g>
       <use style="stroke:#000000;stroke-width:0.8;" x="144" xlink:href="#m3c674daaea" y="544.761818"/>
      </g>
     </g>
     <g id="text_7">
      <!-- $\mathdefault{10^{0}}$ -->
      <g transform="translate(84.2 556.159474)scale(0.3 -0.3)">
       <use transform="translate(0 0.765625)" xlink:href="#DejaVuSans-31"/>
       <use transform="translate(63.623047 0.765625)" xlink:href="#DejaVuSans-30"/>
       <use transform="translate(128.203125 39.046875)scale(0.7)" xlink:href="#DejaVuSans-30"/>
      </g>
     </g>
    </g>
    <g id="ytick_2">
     <g id="line2d_42">
      <g>
       <use style="stroke:#000000;stroke-width:0.8;" x="144" xlink:href="#m3c674daaea" y="422.626794"/>
      </g>
     </g>
     <g id="text_8">
      <!-- $\mathdefault{10^{1}}$ -->
      <g transform="translate(84.2 434.024451)scale(0.3 -0.3)">
       <use transform="translate(0 0.684375)" xlink:href="#DejaVuSans-31"/>
       <use transform="translate(63.623047 0.684375)" xlink:href="#DejaVuSans-30"/>
       <use transform="translate(128.203125 38.965625)scale(0.7)" xlink:href="#DejaVuSans-31"/>
      </g>
     </g>
    </g>
    <g id="ytick_3">
     <g id="line2d_43">
      <g>
       <use style="stroke:#000000;stroke-width:0.8;" x="144" xlink:href="#m3c674daaea" y="300.49177"/>
      </g>
     </g>
     <g id="text_9">
      <!-- $\mathdefault{10^{2}}$ -->
      <g transform="translate(84.2 311.889427)scale(0.3 -0.3)">
       <use transform="translate(0 0.765625)" xlink:href="#DejaVuSans-31"/>
       <use transform="translate(63.623047 0.765625)" xlink:href="#DejaVuSans-30"/>
       <use transform="translate(128.203125 39.046875)scale(0.7)" xlink:href="#DejaVuSans-32"/>
      </g>
     </g>
    </g>
    <g id="ytick_4">
     <g id="line2d_44">
      <g>
       <use style="stroke:#000000;stroke-width:0.8;" x="144" xlink:href="#m3c674daaea" y="178.356746"/>
      </g>
     </g>
     <g id="text_10">
      <!-- $\mathdefault{10^{3}}$ -->
      <g transform="translate(84.2 189.754403)scale(0.3 -0.3)">
       <use transform="translate(0 0.765625)" xlink:href="#DejaVuSans-31"/>
       <use transform="translate(63.623047 0.765625)" xlink:href="#DejaVuSans-30"/>
       <use transform="translate(128.203125 39.046875)scale(0.7)" xlink:href="#DejaVuSans-33"/>
      </g>
     </g>
    </g>
    <g id="ytick_5">
     <g id="line2d_45">
      <defs>
       <path d="M 0 0 
L -2 0 
" id="maae7dd4ede" style="stroke:#000000;stroke-width:0.6;"/>
      </defs>
      <g>
       <use style="stroke:#000000;stroke-width:0.6;" x="144" xlink:href="#maae7dd4ede" y="563.680773"/>
      </g>
     </g>
    </g>
    <g id="ytick_6">
     <g id="line2d_46">
      <g>
       <use style="stroke:#000000;stroke-width:0.6;" x="144" xlink:href="#maae7dd4ede" y="556.597925"/>
      </g>
     </g>
    </g>
    <g id="ytick_7">
     <g id="line2d_47">
      <g>
       <use style="stroke:#000000;stroke-width:0.6;" x="144" xlink:href="#maae7dd4ede" y="550.35041"/>
      </g>
     </g>
    </g>
    <g id="ytick_8">
     <g id="line2d_48">
      <g>
       <use style="stroke:#000000;stroke-width:0.6;" x="144" xlink:href="#maae7dd4ede" y="507.995512"/>
      </g>
     </g>
    </g>
    <g id="ytick_9">
     <g id="line2d_49">
      <g>
       <use style="stroke:#000000;stroke-width:0.6;" x="144" xlink:href="#maae7dd4ede" y="486.488602"/>
      </g>
     </g>
    </g>
    <g id="ytick_10">
     <g id="line2d_50">
      <g>
       <use style="stroke:#000000;stroke-width:0.6;" x="144" xlink:href="#maae7dd4ede" y="471.229207"/>
      </g>
     </g>
    </g>
    <g id="ytick_11">
     <g id="line2d_51">
      <g>
       <use style="stroke:#000000;stroke-width:0.6;" x="144" xlink:href="#maae7dd4ede" y="459.3931"/>
      </g>
     </g>
    </g>
    <g id="ytick_12">
     <g id="line2d_52">
      <g>
       <use style="stroke:#000000;stroke-width:0.6;" x="144" xlink:href="#maae7dd4ede" y="449.722297"/>
      </g>
     </g>
    </g>
    <g id="ytick_13">
     <g id="line2d_53">
      <g>
       <use style="stroke:#000000;stroke-width:0.6;" x="144" xlink:href="#maae7dd4ede" y="441.545749"/>
      </g>
     </g>
    </g>
    <g id="ytick_14">
     <g id="line2d_54">
      <g>
       <use style="stroke:#000000;stroke-width:0.6;" x="144" xlink:href="#maae7dd4ede" y="434.462901"/>
      </g>
     </g>
    </g>
    <g id="ytick_15">
     <g id="line2d_55">
      <g>
       <use style="stroke:#000000;stroke-width:0.6;" x="144" xlink:href="#maae7dd4ede" y="428.215386"/>
      </g>
     </g>
    </g>
    <g id="ytick_16">
     <g id="line2d_56">
      <g>
       <use style="stroke:#000000;stroke-width:0.6;" x="144" xlink:href="#maae7dd4ede" y="385.860489"/>
      </g>
     </g>
    </g>
    <g id="ytick_17">
     <g id="line2d_57">
      <g>
       <use style="stroke:#000000;stroke-width:0.6;" x="144" xlink:href="#maae7dd4ede" y="364.353578"/>
      </g>
     </g>
    </g>
    <g id="ytick_18">
     <g id="line2d_58">
      <g>
       <use style="stroke:#000000;stroke-width:0.6;" x="144" xlink:href="#maae7dd4ede" y="349.094183"/>
      </g>
     </g>
    </g>
    <g id="ytick_19">
     <g id="line2d_59">
      <g>
       <use style="stroke:#000000;stroke-width:0.6;" x="144" xlink:href="#maae7dd4ede" y="337.258076"/>
      </g>
     </g>
    </g>
    <g id="ytick_20">
     <g id="line2d_60">
      <g>
       <use style="stroke:#000000;stroke-width:0.6;" x="144" xlink:href="#maae7dd4ede" y="327.587273"/>
      </g>
     </g>
    </g>
    <g id="ytick_21">
     <g id="line2d_61">
      <g>
       <use style="stroke:#000000;stroke-width:0.6;" x="144" xlink:href="#maae7dd4ede" y="319.410725"/>
      </g>
     </g>
    </g>
    <g id="ytick_22">
     <g id="line2d_62">
      <g>
       <use style="stroke:#000000;stroke-width:0.6;" x="144" xlink:href="#maae7dd4ede" y="312.327877"/>
      </g>
     </g>
    </g>
    <g id="ytick_23">
     <g id="line2d_63">
      <g>
       <use style="stroke:#000000;stroke-width:0.6;" x="144" xlink:href="#maae7dd4ede" y="306.080363"/>
      </g>
     </g>
    </g>
    <g id="ytick_24">
     <g id="line2d_64">
      <g>
       <use style="stroke:#000000;stroke-width:0.6;" x="144" xlink:href="#maae7dd4ede" y="263.725465"/>
      </g>
     </g>
    </g>
    <g id="ytick_25">
     <g id="line2d_65">
      <g>
       <use style="stroke:#000000;stroke-width:0.6;" x="144" xlink:href="#maae7dd4ede" y="242.218554"/>
      </g>
     </g>
    </g>
    <g id="ytick_26">
     <g id="line2d_66">
      <g>
       <use style="stroke:#000000;stroke-width:0.6;" x="144" xlink:href="#maae7dd4ede" y="226.959159"/>
      </g>
     </g>
    </g>
    <g id="ytick_27">
     <g id="line2d_67">
      <g>
       <use style="stroke:#000000;stroke-width:0.6;" x="144" xlink:href="#maae7dd4ede" y="215.123052"/>
      </g>
     </g>
    </g>
    <g id="ytick_28">
     <g id="line2d_68">
      <g>
       <use style="stroke:#000000;stroke-width:0.6;" x="144" xlink:href="#maae7dd4ede" y="205.452249"/>
      </g>
     </g>
    </g>
    <g id="ytick_29">
     <g id="line2d_69">
      <g>
       <use style="stroke:#000000;stroke-width:0.6;" x="144" xlink:href="#maae7dd4ede" y="197.275701"/>
      </g>
     </g>
    </g>
    <g id="ytick_30">
     <g id="line2d_70">
      <g>
       <use style="stroke:#000000;stroke-width:0.6;" x="144" xlink:href="#maae7dd4ede" y="190.192853"/>
      </g>
     </g>
    </g>
    <g id="ytick_31">
     <g id="line2d_71">
      <g>
       <use style="stroke:#000000;stroke-width:0.6;" x="144" xlink:href="#maae7dd4ede" y="183.945339"/>
      </g>
     </g>
    </g>
    <g id="ytick_32">
     <g id="line2d_72">
      <g>
       <use style="stroke:#000000;stroke-width:0.6;" x="144" xlink:href="#maae7dd4ede" y="141.590441"/>
      </g>
     </g>
    </g>
    <g id="ytick_33">
     <g id="line2d_73">
      <g>
       <use style="stroke:#000000;stroke-width:0.6;" x="144" xlink:href="#maae7dd4ede" y="120.083531"/>
      </g>
     </g>
    </g>
    <g id="ytick_34">
     <g id="line2d_74">
      <g>
       <use style="stroke:#000000;stroke-width:0.6;" x="144" xlink:href="#maae7dd4ede" y="104.824135"/>
      </g>
     </g>
    </g>
    <g id="ytick_35">
     <g id="line2d_75">
      <g>
       <use style="stroke:#000000;stroke-width:0.6;" x="144" xlink:href="#maae7dd4ede" y="92.988028"/>
      </g>
     </g>
    </g>
    <g id="ytick_36">
     <g id="line2d_76">
      <g>
       <use style="stroke:#000000;stroke-width:0.6;" x="144" xlink:href="#maae7dd4ede" y="83.317225"/>
      </g>
     </g>
    </g>
    <g id="text_11">
     <!-- Events -->
     <g transform="translate(73.960938 373.166719)rotate(-90)scale(0.3 -0.3)">
      <defs>
       <path d="M 628 4666 
L 3578 4666 
L 3578 4134 
L 1259 4134 
L 1259 2753 
L 3481 2753 
L 3481 2222 
L 1259 2222 
L 1259 531 
L 3634 531 
L 3634 0 
L 628 0 
L 628 4666 
z
" id="DejaVuSans-45" transform="scale(0.015625)"/>
       <path d="M 191 3500 
L 800 3500 
L 1894 563 
L 2988 3500 
L 3597 3500 
L 2284 0 
L 1503 0 
L 191 3500 
z
" id="DejaVuSans-76" transform="scale(0.015625)"/>
       <path d="M 3513 2113 
L 3513 0 
L 2938 0 
L 2938 2094 
Q 2938 2591 2744 2837 
Q 2550 3084 2163 3084 
Q 1697 3084 1428 2787 
Q 1159 2491 1159 1978 
L 1159 0 
L 581 0 
L 581 3500 
L 1159 3500 
L 1159 2956 
Q 1366 3272 1645 3428 
Q 1925 3584 2291 3584 
Q 2894 3584 3203 3211 
Q 3513 2838 3513 2113 
z
" id="DejaVuSans-6e" transform="scale(0.015625)"/>
       <path d="M 1172 4494 
L 1172 3500 
L 2356 3500 
L 2356 3053 
L 1172 3053 
L 1172 1153 
Q 1172 725 1289 603 
Q 1406 481 1766 481 
L 2356 481 
L 2356 0 
L 1766 0 
Q 1100 0 847 248 
Q 594 497 594 1153 
L 594 3053 
L 172 3053 
L 172 3500 
L 594 3500 
L 594 4494 
L 1172 4494 
z
" id="DejaVuSans-74" transform="scale(0.015625)"/>
       <path d="M 2834 3397 
L 2834 2853 
Q 2591 2978 2328 3040 
Q 2066 3103 1784 3103 
Q 1356 3103 1142 2972 
Q 928 2841 928 2578 
Q 928 2378 1081 2264 
Q 1234 2150 1697 2047 
L 1894 2003 
Q 2506 1872 2764 1633 
Q 3022 1394 3022 966 
Q 3022 478 2636 193 
Q 2250 -91 1575 -91 
Q 1294 -91 989 -36 
Q 684 19 347 128 
L 347 722 
Q 666 556 975 473 
Q 1284 391 1588 391 
Q 1994 391 2212 530 
Q 2431 669 2431 922 
Q 2431 1156 2273 1281 
Q 2116 1406 1581 1522 
L 1381 1569 
Q 847 1681 609 1914 
Q 372 2147 372 2553 
Q 372 3047 722 3315 
Q 1072 3584 1716 3584 
Q 2034 3584 2315 3537 
Q 2597 3491 2834 3397 
z
" id="DejaVuSans-73" transform="scale(0.015625)"/>
      </defs>
      <use xlink:href="#DejaVuSans-45"/>
      <use x="63.183594" xlink:href="#DejaVuSans-76"/>
      <use x="122.363281" xlink:href="#DejaVuSans-65"/>
      <use x="183.886719" xlink:href="#DejaVuSans-6e"/>
      <use x="247.265625" xlink:href="#DejaVuSans-74"/>
      <use x="286.474609" xlink:href="#DejaVuSans-73"/>
     </g>
    </g>
   </g>
   <g id="line2d_77">
    <path clip-path="url(#p8c783de5e8)" d="M 184.581818 383.272533 
L 184.581818 649 
M 279.921139 649 
L 279.921139 544.761818 
L 288.203143 544.761818 
L 288.203143 649 
M 313.049154 649 
L 313.049154 544.761818 
L 321.331158 544.761818 
L 321.331158 649 
M 462.125221 649 
L 462.125221 544.761818 
L 478.689228 544.761818 
L 478.689228 649 
M 486.971232 649 
L 486.971232 544.761818 
L 503.53524 544.761818 
L 503.53524 649 
M 511.817243 649 
L 511.817243 544.761818 
L 520.099247 544.761818 
L 520.099247 649 
M 536.663254 649 
L 536.663254 544.761818 
L 544.945258 544.761818 
L 544.945258 649 
M 569.791269 649 
L 569.791269 544.761818 
L 578.073273 544.761818 
L 578.073273 649 
M 586.355277 649 
L 586.355277 544.761818 
L 594.63728 544.761818 
L 594.63728 649 
M 602.919284 649 
L 602.919284 544.761818 
L 619.483291 544.761818 
L 619.483291 649 
M 627.765295 649 
L 627.765295 486.488602 
L 636.047299 486.488602 
L 636.047299 544.761818 
L 644.329303 544.761818 
L 644.329303 507.995512 
L 652.611306 507.995512 
L 652.611306 649 
M 660.89331 649 
L 660.89331 544.761818 
L 669.175314 544.761818 
L 669.175314 507.995512 
L 677.457317 507.995512 
L 677.457317 544.761818 
L 694.021325 544.761818 
L 694.021325 471.229207 
L 702.303329 471.229207 
L 702.303329 507.995512 
L 710.585332 507.995512 
L 710.585332 544.761818 
L 727.14934 544.761818 
L 727.14934 471.229207 
L 735.431343 471.229207 
L 735.431343 507.995512 
L 743.713347 507.995512 
L 743.713347 471.229207 
L 751.995351 471.229207 
L 751.995351 544.761818 
L 760.277355 544.761818 
L 760.277355 471.229207 
L 768.559358 471.229207 
L 768.559358 507.995512 
L 785.123366 507.995512 
L 785.123366 649 
M 793.405369 649 
L 793.405369 459.3931 
L 809.969377 459.3931 
L 809.969377 544.761818 
L 818.251381 544.761818 
L 818.251381 507.995512 
L 826.533384 507.995512 
L 826.533384 459.3931 
L 834.815388 459.3931 
L 834.815388 471.229207 
L 843.097392 471.229207 
L 843.097392 544.761818 
L 851.379395 544.761818 
L 851.379395 449.722297 
L 867.943403 449.722297 
L 867.943403 459.3931 
L 884.50741 459.3931 
L 884.50741 417.571298 
L 892.789414 417.571298 
L 892.789414 441.545749 
L 901.071418 441.545749 
L 901.071418 404.779443 
L 909.353421 404.779443 
L 909.353421 412.955991 
L 917.635425 412.955991 
L 917.635425 383.272533 
L 925.917429 383.272533 
L 925.917429 369.942171 
L 934.199432 369.942171 
L 934.199432 320.173941 
L 942.481436 320.173941 
L 942.481436 297.401038 
L 950.76344 297.401038 
L 950.76344 252.315405 
L 959.045444 252.315405 
L 959.045444 213.555177 
L 967.327447 213.555177 
L 967.327447 175.215997 
L 975.609451 175.215997 
L 975.609451 116.313287 
L 983.891455 116.313287 
L 983.891455 99.998182 
L 992.173458 99.998182 
L 992.173458 222.999874 
L 996.218182 222.999874 
L 996.218182 649 
L 996.218182 649 
" style="fill:none;stroke:#800080;stroke-linecap:square;stroke-width:3;"/>
   </g>
   <g id="line2d_78">
    <path clip-path="url(#p8c783de5e8)" d="M 184.581818 544.761818 
L 184.581818 649 
M 702.303329 649 
L 702.303329 544.761818 
L 710.585332 544.761818 
L 710.585332 649 
M 718.867336 649 
L 718.867336 507.995512 
L 743.713347 507.995512 
L 743.713347 544.761818 
L 751.995351 544.761818 
L 751.995351 649 
M 785.123366 649 
L 785.123366 486.488602 
L 793.405369 486.488602 
L 793.405369 544.761818 
L 801.687373 544.761818 
L 801.687373 649 
M 826.533384 649 
L 826.533384 486.488602 
L 843.097392 486.488602 
L 843.097392 544.761818 
L 851.379395 544.761818 
L 851.379395 486.488602 
L 859.661399 486.488602 
L 859.661399 471.229207 
L 867.943403 471.229207 
L 867.943403 449.722297 
L 876.225407 449.722297 
L 876.225407 422.626794 
L 884.50741 422.626794 
L 884.50741 428.215386 
L 892.789414 428.215386 
L 892.789414 449.722297 
L 901.071418 449.722297 
L 901.071418 428.215386 
L 909.353421 428.215386 
L 909.353421 378.447156 
L 917.635425 378.447156 
L 917.635425 394.48091 
L 925.917429 394.48091 
L 925.917429 364.353578 
L 934.199432 364.353578 
L 934.199432 347.784423 
L 942.481436 347.784423 
L 942.481436 320.173941 
L 950.76344 320.173941 
L 950.76344 276.565562 
L 959.045444 276.565562 
L 959.045444 239.127822 
L 967.327447 239.127822 
L 967.327447 203.970273 
L 975.609451 203.970273 
L 975.609451 140.879157 
L 983.891455 140.879157 
L 983.891455 104.89048 
L 992.173458 104.89048 
L 992.173458 122.377914 
L 996.218182 122.377914 
L 996.218182 449.722297 
L 996.218182 449.722297 
" style="fill:none;stroke:#0000ff;stroke-linecap:square;stroke-width:3;"/>
   </g>
   <g id="line2d_79">
    <path clip-path="url(#p8c783de5e8)" d="M 184.581818 441.545749 
L 184.581818 649 
M 246.793125 649 
L 246.793125 544.761818 
L 255.075128 544.761818 
L 255.075128 649 
M 453.843217 649 
L 453.843217 544.761818 
L 462.125221 544.761818 
L 462.125221 649 
M 486.971232 649 
L 486.971232 544.761818 
L 495.253236 544.761818 
L 495.253236 649 
M 520.099247 649 
L 520.099247 544.761818 
L 528.381251 544.761818 
L 528.381251 649 
M 536.663254 649 
L 536.663254 544.761818 
L 553.227262 544.761818 
L 553.227262 649 
M 586.355277 649 
L 586.355277 544.761818 
L 594.63728 544.761818 
L 594.63728 649 
M 602.919284 649 
L 602.919284 544.761818 
L 611.201288 544.761818 
L 611.201288 649 
M 627.765295 649 
L 627.765295 544.761818 
L 636.047299 544.761818 
L 636.047299 649 
M 644.329303 649 
L 644.329303 544.761818 
L 652.611306 544.761818 
L 652.611306 649 
M 669.175314 649 
L 669.175314 507.995512 
L 677.457317 507.995512 
L 677.457317 544.761818 
L 685.739321 544.761818 
L 685.739321 649 
M 694.021325 649 
L 694.021325 486.488602 
L 702.303329 486.488602 
L 702.303329 544.761818 
L 718.867336 544.761818 
L 718.867336 507.995512 
L 727.14934 507.995512 
L 727.14934 471.229207 
L 735.431343 471.229207 
L 735.431343 486.488602 
L 743.713347 486.488602 
L 743.713347 471.229207 
L 751.995351 471.229207 
L 751.995351 428.215386 
L 760.277355 428.215386 
L 760.277355 441.545749 
L 768.559358 441.545749 
L 768.559358 471.229207 
L 776.841362 471.229207 
L 776.841362 507.995512 
L 785.123366 507.995512 
L 785.123366 408.71032 
L 793.405369 408.71032 
L 793.405369 544.761818 
L 801.687373 544.761818 
L 801.687373 459.3931 
L 809.969377 459.3931 
L 809.969377 441.545749 
L 826.533384 441.545749 
L 826.533384 412.955991 
L 834.815388 412.955991 
L 834.815388 401.119884 
L 843.097392 401.119884 
L 843.097392 383.272533 
L 851.379395 383.272533 
L 851.379395 378.447156 
L 859.661399 378.447156 
L 859.661399 369.942171 
L 867.943403 369.942171 
L 867.943403 362.614322 
L 876.225407 362.614322 
L 876.225407 357.714604 
L 884.50741 357.714604 
L 884.50741 327.587273 
L 892.789414 327.587273 
L 892.789414 320.173941 
L 901.071418 320.173941 
L 901.071418 310.375169 
L 909.353421 310.375169 
L 909.353421 314.355228 
L 917.635425 314.355228 
L 917.635425 318.658335 
L 925.917429 318.658335 
L 925.917429 307.272381 
L 934.199432 307.272381 
L 934.199432 280.41853 
L 942.481436 280.41853 
L 942.481436 274.251812 
L 950.76344 274.251812 
L 950.76344 276.228782 
L 959.045444 276.228782 
L 959.045444 243.110047 
L 967.327447 243.110047 
L 967.327447 203.371881 
L 975.609451 203.371881 
L 975.609451 150.523798 
L 983.891455 150.523798 
L 983.891455 108.602225 
L 992.173458 108.602225 
L 992.173458 125.00835 
L 996.218182 125.00835 
L 996.218182 649 
L 996.218182 649 
" style="fill:none;stroke:#f0e68c;stroke-linecap:square;stroke-width:3;"/>
   </g>
   <g id="patch_3">
    <path d="M 144 567 
L 144 77.76 
" style="fill:none;stroke:#000000;stroke-linecap:square;stroke-linejoin:miter;stroke-width:0.8;"/>
   </g>
   <g id="patch_4">
    <path d="M 1036.8 567 
L 1036.8 77.76 
" style="fill:none;stroke:#000000;stroke-linecap:square;stroke-linejoin:miter;stroke-width:0.8;"/>
   </g>
   <g id="patch_5">
    <path d="M 144 567 
L 1036.8 567 
" style="fill:none;stroke:#000000;stroke-linecap:square;stroke-linejoin:miter;stroke-width:0.8;"/>
   </g>
   <g id="patch_6">
    <path d="M 144 77.76 
L 1036.8 77.76 
" style="fill:none;stroke:#000000;stroke-linecap:square;stroke-linejoin:miter;stroke-width:0.8;"/>
   </g>
   <g id="legend_1">
    <g id="patch_7">
     <path d="M 158 181.869375 
L 506.4 181.869375 
Q 510.4 181.869375 510.4 177.869375 
L 510.4 91.76 
Q 510.4 87.76 506.4 87.76 
L 158 87.76 
Q 154 87.76 154 91.76 
L 154 177.869375 
Q 154 181.869375 158 181.869375 
z
" style="fill:#ffffff;opacity:0.8;stroke:#cccccc;stroke-linejoin:miter;"/>
    </g>
    <g id="line2d_80">
     <path d="M 162 103.956875 
L 202 103.956875 
" style="fill:none;stroke:#800080;stroke-linecap:square;stroke-width:3;"/>
    </g>
    <g id="line2d_81"/>
    <g id="text_12">
     <!-- $e^{+}$ DVAE -->
     <g transform="translate(218 110.956875)scale(0.2 -0.2)">
      <defs>
       <path d="M 3078 2063 
Q 3088 2113 3092 2166 
Q 3097 2219 3097 2272 
Q 3097 2653 2873 2875 
Q 2650 3097 2266 3097 
Q 1838 3097 1509 2826 
Q 1181 2556 1013 2059 
L 3078 2063 
z
M 3578 1613 
L 903 1613 
Q 884 1494 878 1425 
Q 872 1356 872 1306 
Q 872 872 1139 634 
Q 1406 397 1894 397 
Q 2269 397 2603 481 
Q 2938 566 3225 728 
L 3116 159 
Q 2806 34 2476 -28 
Q 2147 -91 1806 -91 
Q 1078 -91 686 257 
Q 294 606 294 1247 
Q 294 1794 489 2264 
Q 684 2734 1063 3103 
Q 1306 3334 1642 3459 
Q 1978 3584 2356 3584 
Q 2950 3584 3301 3228 
Q 3653 2872 3653 2272 
Q 3653 2128 3634 1964 
Q 3616 1800 3578 1613 
z
" id="DejaVuSans-Oblique-65" transform="scale(0.015625)"/>
       <path d="M 2944 4013 
L 2944 2272 
L 4684 2272 
L 4684 1741 
L 2944 1741 
L 2944 0 
L 2419 0 
L 2419 1741 
L 678 1741 
L 678 2272 
L 2419 2272 
L 2419 4013 
L 2944 4013 
z
" id="DejaVuSans-2b" transform="scale(0.015625)"/>
       <path d="M 1259 4147 
L 1259 519 
L 2022 519 
Q 2988 519 3436 956 
Q 3884 1394 3884 2338 
Q 3884 3275 3436 3711 
Q 2988 4147 2022 4147 
L 1259 4147 
z
M 628 4666 
L 1925 4666 
Q 3281 4666 3915 4102 
Q 4550 3538 4550 2338 
Q 4550 1131 3912 565 
Q 3275 0 1925 0 
L 628 0 
L 628 4666 
z
" id="DejaVuSans-44" transform="scale(0.015625)"/>
       <path d="M 1831 0 
L 50 4666 
L 709 4666 
L 2188 738 
L 3669 4666 
L 4325 4666 
L 2547 0 
L 1831 0 
z
" id="DejaVuSans-56" transform="scale(0.015625)"/>
       <path d="M 2188 4044 
L 1331 1722 
L 3047 1722 
L 2188 4044 
z
M 1831 4666 
L 2547 4666 
L 4325 0 
L 3669 0 
L 3244 1197 
L 1141 1197 
L 716 0 
L 50 0 
L 1831 4666 
z
" id="DejaVuSans-41" transform="scale(0.015625)"/>
      </defs>
      <use transform="translate(0 0.826562)" xlink:href="#DejaVuSans-Oblique-65"/>
      <use transform="translate(66.173333 39.107812)scale(0.7)" xlink:href="#DejaVuSans-2b"/>
      <use transform="translate(127.560052 0.826562)" xlink:href="#DejaVuSans-20"/>
      <use transform="translate(159.347161 0.826562)" xlink:href="#DejaVuSans-44"/>
      <use transform="translate(236.349115 0.826562)" xlink:href="#DejaVuSans-56"/>
      <use transform="translate(304.757318 0.826562)" xlink:href="#DejaVuSans-41"/>
      <use transform="translate(373.165521 0.826562)" xlink:href="#DejaVuSans-45"/>
     </g>
    </g>
    <g id="line2d_82">
     <path d="M 162 133.313125 
L 202 133.313125 
" style="fill:none;stroke:#0000ff;stroke-linecap:square;stroke-width:3;"/>
    </g>
    <g id="line2d_83"/>
    <g id="text_13">
     <!-- $\gamma$   DVAE -->
     <g transform="translate(218 140.313125)scale(0.2 -0.2)">
      <defs>
       <path d="M 1491 2950 
L 1838 788 
L 3456 3500 
L 4066 3500 
L 1972 0 
L 1713 -1331 
L 1138 -1331 
L 1397 0 
L 988 2613 
Q 925 3006 628 3006 
L 475 3006 
L 569 3500 
L 788 3500 
Q 1403 3500 1491 2950 
z
" id="DejaVuSans-Oblique-3b3" transform="scale(0.015625)"/>
      </defs>
      <use transform="translate(0 0.09375)" xlink:href="#DejaVuSans-Oblique-3b3"/>
      <use transform="translate(59.179688 0.09375)" xlink:href="#DejaVuSans-20"/>
      <use transform="translate(90.966797 0.09375)" xlink:href="#DejaVuSans-20"/>
      <use transform="translate(122.753906 0.09375)" xlink:href="#DejaVuSans-20"/>
      <use transform="translate(154.541016 0.09375)" xlink:href="#DejaVuSans-44"/>
      <use transform="translate(231.542969 0.09375)" xlink:href="#DejaVuSans-56"/>
      <use transform="translate(299.951172 0.09375)" xlink:href="#DejaVuSans-41"/>
      <use transform="translate(368.359375 0.09375)" xlink:href="#DejaVuSans-45"/>
     </g>
    </g>
    <g id="line2d_84">
     <path d="M 162 162.71 
L 202 162.71 
" style="fill:none;stroke:#f0e68c;stroke-linecap:square;stroke-width:3;"/>
    </g>
    <g id="line2d_85"/>
    <g id="text_14">
     <!-- $\pi^{+}$ DVAE -->
     <g transform="translate(218 169.71)scale(0.2 -0.2)">
      <defs>
       <path d="M 584 3500 
L 3938 3500 
L 3825 2925 
L 3384 2925 
L 2966 775 
Q 2922 550 2981 450 
Q 3038 353 3209 353 
Q 3256 353 3325 363 
Q 3397 369 3419 372 
L 3338 -44 
Q 3222 -84 3103 -103 
Q 2981 -122 2866 -122 
Q 2491 -122 2388 81 
Q 2284 288 2391 838 
L 2797 2925 
L 1506 2925 
L 938 0 
L 350 0 
L 919 2925 
L 472 2925 
L 584 3500 
z
" id="DejaVuSans-Oblique-3c0" transform="scale(0.015625)"/>
      </defs>
      <use transform="translate(0 0.826562)" xlink:href="#DejaVuSans-Oblique-3c0"/>
      <use transform="translate(64.671224 39.107812)scale(0.7)" xlink:href="#DejaVuSans-2b"/>
      <use transform="translate(126.057943 0.826562)" xlink:href="#DejaVuSans-20"/>
      <use transform="translate(157.845052 0.826562)" xlink:href="#DejaVuSans-44"/>
      <use transform="translate(234.847005 0.826562)" xlink:href="#DejaVuSans-56"/>
      <use transform="translate(303.255208 0.826562)" xlink:href="#DejaVuSans-41"/>
      <use transform="translate(371.663411 0.826562)" xlink:href="#DejaVuSans-45"/>
     </g>
    </g>
    <g id="patch_8">
     <path d="M 345.4 110.956875 
L 385.4 110.956875 
L 385.4 96.956875 
L 345.4 96.956875 
z
" style="fill:#800080;opacity:0.3;stroke:#800080;stroke-linejoin:miter;"/>
    </g>
    <g id="text_15">
     <!-- $e^{+}$ GEANT -->
     <g transform="translate(401.4 110.956875)scale(0.2 -0.2)">
      <defs>
       <path d="M 3809 666 
L 3809 1919 
L 2778 1919 
L 2778 2438 
L 4434 2438 
L 4434 434 
Q 4069 175 3628 42 
Q 3188 -91 2688 -91 
Q 1594 -91 976 548 
Q 359 1188 359 2328 
Q 359 3472 976 4111 
Q 1594 4750 2688 4750 
Q 3144 4750 3555 4637 
Q 3966 4525 4313 4306 
L 4313 3634 
Q 3963 3931 3569 4081 
Q 3175 4231 2741 4231 
Q 1884 4231 1454 3753 
Q 1025 3275 1025 2328 
Q 1025 1384 1454 906 
Q 1884 428 2741 428 
Q 3075 428 3337 486 
Q 3600 544 3809 666 
z
" id="DejaVuSans-47" transform="scale(0.015625)"/>
       <path d="M 628 4666 
L 1478 4666 
L 3547 763 
L 3547 4666 
L 4159 4666 
L 4159 0 
L 3309 0 
L 1241 3903 
L 1241 0 
L 628 0 
L 628 4666 
z
" id="DejaVuSans-4e" transform="scale(0.015625)"/>
       <path d="M -19 4666 
L 3928 4666 
L 3928 4134 
L 2272 4134 
L 2272 0 
L 1638 0 
L 1638 4134 
L -19 4134 
L -19 4666 
z
" id="DejaVuSans-54" transform="scale(0.015625)"/>
      </defs>
      <use transform="translate(0 0.826562)" xlink:href="#DejaVuSans-Oblique-65"/>
      <use transform="translate(66.173333 39.107812)scale(0.7)" xlink:href="#DejaVuSans-2b"/>
      <use transform="translate(127.560052 0.826562)" xlink:href="#DejaVuSans-20"/>
      <use transform="translate(159.347161 0.826562)" xlink:href="#DejaVuSans-47"/>
      <use transform="translate(236.837396 0.826562)" xlink:href="#DejaVuSans-45"/>
      <use transform="translate(300.02099 0.826562)" xlink:href="#DejaVuSans-41"/>
      <use transform="translate(368.429193 0.826562)" xlink:href="#DejaVuSans-4e"/>
      <use transform="translate(443.23388 0.826562)" xlink:href="#DejaVuSans-54"/>
     </g>
    </g>
    <g id="patch_9">
     <path d="M 345.4 140.313125 
L 385.4 140.313125 
L 385.4 126.313125 
L 345.4 126.313125 
z
" style="fill:#0000ff;opacity:0.3;stroke:#0000ff;stroke-linejoin:miter;"/>
    </g>
    <g id="text_16">
     <!-- $\gamma$   GEANT -->
     <g transform="translate(401.4 140.313125)scale(0.2 -0.2)">
      <use transform="translate(0 0.78125)" xlink:href="#DejaVuSans-Oblique-3b3"/>
      <use transform="translate(59.179688 0.78125)" xlink:href="#DejaVuSans-20"/>
      <use transform="translate(90.966797 0.78125)" xlink:href="#DejaVuSans-20"/>
      <use transform="translate(122.753906 0.78125)" xlink:href="#DejaVuSans-20"/>
      <use transform="translate(154.541016 0.78125)" xlink:href="#DejaVuSans-47"/>
      <use transform="translate(232.03125 0.78125)" xlink:href="#DejaVuSans-45"/>
      <use transform="translate(295.214844 0.78125)" xlink:href="#DejaVuSans-41"/>
      <use transform="translate(363.623047 0.78125)" xlink:href="#DejaVuSans-4e"/>
      <use transform="translate(438.427734 0.78125)" xlink:href="#DejaVuSans-54"/>
     </g>
    </g>
    <g id="patch_10">
     <path d="M 345.4 169.71 
L 385.4 169.71 
L 385.4 155.71 
L 345.4 155.71 
z
" style="fill:#f0e68c;opacity:0.3;stroke:#f0e68c;stroke-linejoin:miter;"/>
    </g>
    <g id="text_17">
     <!-- $\pi^{+}$ GEANT -->
     <g transform="translate(401.4 169.71)scale(0.2 -0.2)">
      <use transform="translate(0 0.826562)" xlink:href="#DejaVuSans-Oblique-3c0"/>
      <use transform="translate(64.671224 39.107812)scale(0.7)" xlink:href="#DejaVuSans-2b"/>
      <use transform="translate(126.057943 0.826562)" xlink:href="#DejaVuSans-20"/>
      <use transform="translate(157.845052 0.826562)" xlink:href="#DejaVuSans-47"/>
      <use transform="translate(235.335286 0.826562)" xlink:href="#DejaVuSans-45"/>
      <use transform="translate(298.51888 0.826562)" xlink:href="#DejaVuSans-41"/>
      <use transform="translate(366.927083 0.826562)" xlink:href="#DejaVuSans-4e"/>
      <use transform="translate(441.731771 0.826562)" xlink:href="#DejaVuSans-54"/>
     </g>
    </g>
   </g>
  </g>
 </g>
 <defs>
  <clipPath id="p8c783de5e8">
   <rect height="489.24" width="892.8" x="144" y="77.76"/>
  </clipPath>
 </defs>
</svg>
