<?xml version="1.0" encoding="utf-8" standalone="no"?>
<!DOCTYPE svg PUBLIC "-//W3C//DTD SVG 1.1//EN"
  "http://www.w3.org/Graphics/SVG/1.1/DTD/svg11.dtd">
<svg height="648pt" version="1.1" viewBox="0 0 1152 648" width="1152pt" xmlns="http://www.w3.org/2000/svg" xmlns:xlink="http://www.w3.org/1999/xlink">
 <metadata>
  <rdf:RDF xmlns:cc="http://creativecommons.org/ns#" xmlns:dc="http://purl.org/dc/elements/1.1/" xmlns:rdf="http://www.w3.org/1999/02/22-rdf-syntax-ns#">
   <cc:Work>
    <dc:type rdf:resource="http://purl.org/dc/dcmitype/StillImage"/>
    <dc:date>2021-09-24T23:04:15.510845</dc:date>
    <dc:format>image/svg+xml</dc:format>
    <dc:creator>
     <cc:Agent>
      <dc:title>Matplotlib v3.4.2, https://matplotlib.org/</dc:title>
     </cc:Agent>
    </dc:creator>
   </cc:Work>
  </rdf:RDF>
 </metadata>
 <defs>
  <style type="text/css">*{stroke-linecap:butt;stroke-linejoin:round;}</style>
 </defs>
 <g id="figure_1">
  <g id="patch_1">
   <path d="M 0 648 
L 1152 648 
L 1152 0 
L 0 0 
z
" style="fill:none;"/>
  </g>
  <g id="axes_1">
   <g id="patch_2">
    <path d="M 144 567 
L 1036.8 567 
L 1036.8 77.76 
L 144 77.76 
z
" style="fill:#ffffff;"/>
   </g>
   <g id="PolyCollection_1">
    <path clip-path="url(#p86a521b803)" d="M 184.581818 133888.86317 
L 184.581818 208.061988 
L 184.581818 208.061988 
L 184.581818 451.558291 
L 188.819099 451.558291 
L 188.819099 405.898246 
L 197.101102 405.898246 
L 197.101102 417.519208 
L 205.383106 417.519208 
L 205.383106 391.932405 
L 213.66511 391.932405 
L 213.66511 377.378634 
L 221.947113 377.378634 
L 221.947113 400.859365 
L 230.229117 400.859365 
L 230.229117 387.936986 
L 238.511121 387.936986 
L 238.511121 384.199521 
L 246.793125 384.199521 
L 246.793125 377.378634 
L 255.075128 377.378634 
L 255.075128 365.757672 
L 263.357132 365.757672 
L 263.357132 344.058947 
L 271.639136 344.058947 
L 271.639136 342.276941 
L 279.921139 342.276941 
L 279.921139 340.548138 
L 288.203143 340.548138 
L 288.203143 332.602738 
L 296.485147 332.602738 
L 296.485147 312.694719 
L 304.76715 312.694719 
L 304.76715 324.315681 
L 313.049154 324.315681 
L 313.049154 292.462164 
L 321.331158 292.462164 
L 321.331158 296.298706 
L 329.613162 296.298706 
L 329.613162 274.699228 
L 337.895165 274.699228 
L 337.895165 266.085299 
L 346.177169 266.085299 
L 346.177169 270.485689 
L 354.459173 270.485689 
L 354.459173 251.218497 
L 362.741176 251.218497 
L 362.741176 241.209065 
L 371.02318 241.209065 
L 371.02318 230.091676 
L 379.305184 230.091676 
L 379.305184 220.768684 
L 387.587188 220.768684 
L 387.587188 210.534157 
L 395.869191 210.534157 
L 395.869191 196.362503 
L 404.151195 196.362503 
L 404.151195 190.58679 
L 412.433199 190.58679 
L 412.433199 182.04462 
L 420.715202 182.04462 
L 420.715202 178.307155 
L 428.997206 178.307155 
L 428.997206 172.69375 
L 437.27921 172.69375 
L 437.27921 169.765576 
L 445.561214 169.765576 
L 445.561214 177.180654 
L 453.843217 177.180654 
L 453.843217 173.354514 
L 462.125221 173.354514 
L 462.125221 181.277581 
L 470.407225 181.277581 
L 470.407225 189.573012 
L 478.689228 189.573012 
L 478.689228 199.110338 
L 486.971232 199.110338 
L 486.971232 202.463994 
L 495.253236 202.463994 
L 495.253236 217.830559 
L 503.53524 217.830559 
L 503.53524 228.103134 
L 511.817243 228.103134 
L 511.817243 235.940834 
L 520.099247 235.940834 
L 520.099247 252.321589 
L 528.381251 252.321589 
L 528.381251 261.12494 
L 536.663254 261.12494 
L 536.663254 283.535204 
L 544.945258 283.535204 
L 544.945258 287.485185 
L 553.227262 287.485185 
L 553.227262 315.942894 
L 561.509266 315.942894 
L 561.509266 332.602738 
L 569.791269 332.602738 
L 569.791269 324.315681 
L 578.073273 324.315681 
L 578.073273 347.796412 
L 586.355277 347.796412 
L 586.355277 371.277143 
L 594.63728 371.277143 
L 594.63728 365.757672 
L 602.919284 365.757672 
L 602.919284 405.898246 
L 611.201288 405.898246 
L 611.201288 400.859365 
L 619.483291 400.859365 
L 619.483291 405.898246 
L 627.765295 405.898246 
L 627.765295 432.072979 
L 636.047299 432.072979 
L 636.047299 432.072979 
L 644.329303 432.072979 
L 644.329303 432.072979 
L 652.611306 432.072979 
L 652.611306 451.558291 
L 660.89331 451.558291 
L 660.89331 440.999939 
L 669.175314 440.999939 
L 669.175314 544.761818 
L 677.457317 544.761818 
L 677.457317 481.140513 
L 685.739321 481.140513 
L 685.739321 504.621244 
L 694.021325 504.621244 
L 694.021325 544.761818 
L 702.303329 544.761818 
L 702.303329 544.761818 
L 710.585332 544.761818 
L 710.585332 544.761818 
L 718.867336 544.761818 
L 718.867336 544.761818 
L 727.14934 544.761818 
L 727.14934 133888.86317 
L 735.431343 133888.86317 
L 735.431343 544.761818 
L 743.713347 544.761818 
L 743.713347 133888.86317 
L 751.995351 133888.86317 
L 751.995351 133888.86317 
L 760.277355 133888.86317 
L 760.277355 133888.86317 
L 768.559358 133888.86317 
L 768.559358 133888.86317 
L 776.841362 133888.86317 
L 776.841362 133888.86317 
L 785.123366 133888.86317 
L 785.123366 133888.86317 
L 793.405369 133888.86317 
L 793.405369 133888.86317 
L 801.687373 133888.86317 
L 801.687373 133888.86317 
L 809.969377 133888.86317 
L 809.969377 133888.86317 
L 818.251381 133888.86317 
L 818.251381 133888.86317 
L 826.533384 133888.86317 
L 826.533384 133888.86317 
L 834.815388 133888.86317 
L 834.815388 133888.86317 
L 843.097392 133888.86317 
L 843.097392 133888.86317 
L 851.379395 133888.86317 
L 851.379395 133888.86317 
L 859.661399 133888.86317 
L 859.661399 133888.86317 
L 867.943403 133888.86317 
L 867.943403 133888.86317 
L 876.225407 133888.86317 
L 876.225407 133888.86317 
L 884.50741 133888.86317 
L 884.50741 133888.86317 
L 892.789414 133888.86317 
L 892.789414 133888.86317 
L 901.071418 133888.86317 
L 901.071418 133888.86317 
L 909.353421 133888.86317 
L 909.353421 133888.86317 
L 917.635425 133888.86317 
L 917.635425 133888.86317 
L 925.917429 133888.86317 
L 925.917429 133888.86317 
L 934.199432 133888.86317 
L 934.199432 133888.86317 
L 942.481436 133888.86317 
L 942.481436 133888.86317 
L 950.76344 133888.86317 
L 950.76344 133888.86317 
L 959.045444 133888.86317 
L 959.045444 133888.86317 
L 967.327447 133888.86317 
L 967.327447 133888.86317 
L 975.609451 133888.86317 
L 975.609451 133888.86317 
L 983.891455 133888.86317 
L 983.891455 133888.86317 
L 992.173458 133888.86317 
L 992.173458 133888.86317 
L 996.218182 133888.86317 
L 996.218182 133888.86317 
L 996.218182 133888.86317 
L 996.218182 133888.86317 
L 996.218182 133888.86317 
L 996.218182 133888.86317 
L 996.218182 133888.86317 
L 992.173458 133888.86317 
L 992.173458 133888.86317 
L 983.891455 133888.86317 
L 983.891455 133888.86317 
L 975.609451 133888.86317 
L 975.609451 133888.86317 
L 967.327447 133888.86317 
L 967.327447 133888.86317 
L 959.045444 133888.86317 
L 959.045444 133888.86317 
L 950.76344 133888.86317 
L 950.76344 133888.86317 
L 942.481436 133888.86317 
L 942.481436 133888.86317 
L 934.199432 133888.86317 
L 934.199432 133888.86317 
L 925.917429 133888.86317 
L 925.917429 133888.86317 
L 917.635425 133888.86317 
L 917.635425 133888.86317 
L 909.353421 133888.86317 
L 909.353421 133888.86317 
L 901.071418 133888.86317 
L 901.071418 133888.86317 
L 892.789414 133888.86317 
L 892.789414 133888.86317 
L 884.50741 133888.86317 
L 884.50741 133888.86317 
L 876.225407 133888.86317 
L 876.225407 133888.86317 
L 867.943403 133888.86317 
L 867.943403 133888.86317 
L 859.661399 133888.86317 
L 859.661399 133888.86317 
L 851.379395 133888.86317 
L 851.379395 133888.86317 
L 843.097392 133888.86317 
L 843.097392 133888.86317 
L 834.815388 133888.86317 
L 834.815388 133888.86317 
L 826.533384 133888.86317 
L 826.533384 133888.86317 
L 818.251381 133888.86317 
L 818.251381 133888.86317 
L 809.969377 133888.86317 
L 809.969377 133888.86317 
L 801.687373 133888.86317 
L 801.687373 133888.86317 
L 793.405369 133888.86317 
L 793.405369 133888.86317 
L 785.123366 133888.86317 
L 785.123366 133888.86317 
L 776.841362 133888.86317 
L 776.841362 133888.86317 
L 768.559358 133888.86317 
L 768.559358 133888.86317 
L 760.277355 133888.86317 
L 760.277355 133888.86317 
L 751.995351 133888.86317 
L 751.995351 133888.86317 
L 743.713347 133888.86317 
L 743.713347 133888.86317 
L 735.431343 133888.86317 
L 735.431343 133888.86317 
L 727.14934 133888.86317 
L 727.14934 133888.86317 
L 718.867336 133888.86317 
L 718.867336 133888.86317 
L 710.585332 133888.86317 
L 710.585332 133888.86317 
L 702.303329 133888.86317 
L 702.303329 133888.86317 
L 694.021325 133888.86317 
L 694.021325 133888.86317 
L 685.739321 133888.86317 
L 685.739321 133888.86317 
L 677.457317 133888.86317 
L 677.457317 133888.86317 
L 669.175314 133888.86317 
L 669.175314 133888.86317 
L 660.89331 133888.86317 
L 660.89331 133888.86317 
L 652.611306 133888.86317 
L 652.611306 133888.86317 
L 644.329303 133888.86317 
L 644.329303 133888.86317 
L 636.047299 133888.86317 
L 636.047299 133888.86317 
L 627.765295 133888.86317 
L 627.765295 133888.86317 
L 619.483291 133888.86317 
L 619.483291 133888.86317 
L 611.201288 133888.86317 
L 611.201288 133888.86317 
L 602.919284 133888.86317 
L 602.919284 133888.86317 
L 594.63728 133888.86317 
L 594.63728 133888.86317 
L 586.355277 133888.86317 
L 586.355277 133888.86317 
L 578.073273 133888.86317 
L 578.073273 133888.86317 
L 569.791269 133888.86317 
L 569.791269 133888.86317 
L 561.509266 133888.86317 
L 561.509266 133888.86317 
L 553.227262 133888.86317 
L 553.227262 133888.86317 
L 544.945258 133888.86317 
L 544.945258 133888.86317 
L 536.663254 133888.86317 
L 536.663254 133888.86317 
L 528.381251 133888.86317 
L 528.381251 133888.86317 
L 520.099247 133888.86317 
L 520.099247 133888.86317 
L 511.817243 133888.86317 
L 511.817243 133888.86317 
L 503.53524 133888.86317 
L 503.53524 133888.86317 
L 495.253236 133888.86317 
L 495.253236 133888.86317 
L 486.971232 133888.86317 
L 486.971232 133888.86317 
L 478.689228 133888.86317 
L 478.689228 133888.86317 
L 470.407225 133888.86317 
L 470.407225 133888.86317 
L 462.125221 133888.86317 
L 462.125221 133888.86317 
L 453.843217 133888.86317 
L 453.843217 133888.86317 
L 445.561214 133888.86317 
L 445.561214 133888.86317 
L 437.27921 133888.86317 
L 437.27921 133888.86317 
L 428.997206 133888.86317 
L 428.997206 133888.86317 
L 420.715202 133888.86317 
L 420.715202 133888.86317 
L 412.433199 133888.86317 
L 412.433199 133888.86317 
L 404.151195 133888.86317 
L 404.151195 133888.86317 
L 395.869191 133888.86317 
L 395.869191 133888.86317 
L 387.587188 133888.86317 
L 387.587188 133888.86317 
L 379.305184 133888.86317 
L 379.305184 133888.86317 
L 371.02318 133888.86317 
L 371.02318 133888.86317 
L 362.741176 133888.86317 
L 362.741176 133888.86317 
L 354.459173 133888.86317 
L 354.459173 133888.86317 
L 346.177169 133888.86317 
L 346.177169 133888.86317 
L 337.895165 133888.86317 
L 337.895165 133888.86317 
L 329.613162 133888.86317 
L 329.613162 133888.86317 
L 321.331158 133888.86317 
L 321.331158 133888.86317 
L 313.049154 133888.86317 
L 313.049154 133888.86317 
L 304.76715 133888.86317 
L 304.76715 133888.86317 
L 296.485147 133888.86317 
L 296.485147 133888.86317 
L 288.203143 133888.86317 
L 288.203143 133888.86317 
L 279.921139 133888.86317 
L 279.921139 133888.86317 
L 271.639136 133888.86317 
L 271.639136 133888.86317 
L 263.357132 133888.86317 
L 263.357132 133888.86317 
L 255.075128 133888.86317 
L 255.075128 133888.86317 
L 246.793125 133888.86317 
L 246.793125 133888.86317 
L 238.511121 133888.86317 
L 238.511121 133888.86317 
L 230.229117 133888.86317 
L 230.229117 133888.86317 
L 221.947113 133888.86317 
L 221.947113 133888.86317 
L 213.66511 133888.86317 
L 213.66511 133888.86317 
L 205.383106 133888.86317 
L 205.383106 133888.86317 
L 197.101102 133888.86317 
L 197.101102 133888.86317 
L 188.819099 133888.86317 
L 188.819099 133888.86317 
L 184.581818 133888.86317 
L 184.581818 133888.86317 
L 184.581818 133888.86317 
z
" style="fill:#800080;fill-opacity:0.3;stroke:#800080;stroke-opacity:0.3;"/>
   </g>
   <g id="PolyCollection_2">
    <path clip-path="url(#p86a521b803)" d="M 184.581818 133888.86317 
L 184.581818 214.645668 
L 184.581818 214.645668 
L 184.581818 405.898246 
L 188.819099 405.898246 
L 188.819099 384.199521 
L 197.101102 384.199521 
L 197.101102 380.688713 
L 205.383106 380.688713 
L 205.383106 411.417717 
L 213.66511 411.417717 
L 213.66511 365.757672 
L 221.947113 365.757672 
L 221.947113 391.932405 
L 230.229117 391.932405 
L 230.229117 365.757672 
L 238.511121 365.757672 
L 238.511121 360.71879 
L 246.793125 360.71879 
L 246.793125 351.791831 
L 255.075128 351.791831 
L 255.075128 351.791831 
L 263.357132 351.791831 
L 263.357132 344.058947 
L 271.639136 344.058947 
L 271.639136 326.948435 
L 279.921139 326.948435 
L 279.921139 331.136568 
L 288.203143 331.136568 
L 288.203143 325.617098 
L 296.485147 325.617098 
L 296.485147 320.578216 
L 304.76715 320.578216 
L 304.76715 294.733459 
L 313.049154 294.733459 
L 313.049154 298.728878 
L 321.331158 298.728878 
L 321.331158 276.926833 
L 329.613162 276.926833 
L 329.613162 251.583865 
L 337.895165 251.583865 
L 337.895165 249.77965 
L 346.177169 249.77965 
L 346.177169 253.068833 
L 354.459173 253.068833 
L 354.459173 229.588103 
L 362.741176 229.588103 
L 362.741176 223.637224 
L 371.02318 223.637224 
L 371.02318 209.284881 
L 379.305184 209.284881 
L 379.305184 205.525351 
L 387.587188 205.525351 
L 387.587188 194.418079 
L 395.869191 194.418079 
L 395.869191 189.072701 
L 404.151195 189.072701 
L 404.151195 180.520569 
L 412.433199 180.520569 
L 412.433199 181.277581 
L 420.715202 181.277581 
L 420.715202 180.19914 
L 428.997206 180.19914 
L 428.997206 176.274996 
L 437.27921 176.274996 
L 437.27921 175.285047 
L 445.561214 175.285047 
L 445.561214 182.821956 
L 453.843217 182.821956 
L 453.843217 192.801864 
L 462.125221 192.801864 
L 462.125221 196.930258 
L 470.407225 196.930258 
L 470.407225 203.254056 
L 478.689228 203.254056 
L 478.689228 212.553432 
L 486.971232 212.553432 
L 486.971232 220.768684 
L 495.253236 220.768684 
L 495.253236 222.739367 
L 503.53524 222.739367 
L 503.53524 231.112154 
L 511.817243 231.112154 
L 511.817243 244.681585 
L 520.099247 244.681585 
L 520.099247 263.777798 
L 528.381251 263.777798 
L 528.381251 273.083013 
L 536.663254 273.083013 
L 536.663254 277.497386 
L 544.945258 277.497386 
L 544.945258 291.724439 
L 553.227262 291.724439 
L 553.227262 311.651257 
L 561.509266 311.651257 
L 561.509266 312.694719 
L 569.791269 312.694719 
L 569.791269 328.3111 
L 578.073273 328.3111 
L 578.073273 328.3111 
L 586.355277 328.3111 
L 586.355277 349.759671 
L 594.63728 349.759671 
L 594.63728 368.451675 
L 602.919284 368.451675 
L 602.919284 400.859365 
L 611.201288 400.859365 
L 611.201288 380.688713 
L 619.483291 380.688713 
L 619.483291 387.936986 
L 627.765295 387.936986 
L 627.765295 405.898246 
L 636.047299 405.898246 
L 636.047299 405.898246 
L 644.329303 405.898246 
L 644.329303 411.417717 
L 652.611306 411.417717 
L 652.611306 451.558291 
L 660.89331 451.558291 
L 660.89331 440.999939 
L 669.175314 440.999939 
L 669.175314 432.072979 
L 677.457317 432.072979 
L 677.457317 451.558291 
L 685.739321 451.558291 
L 685.739321 504.621244 
L 694.021325 504.621244 
L 694.021325 481.140513 
L 702.303329 481.140513 
L 702.303329 504.621244 
L 710.585332 504.621244 
L 710.585332 544.761818 
L 718.867336 544.761818 
L 718.867336 544.761818 
L 727.14934 544.761818 
L 727.14934 544.761818 
L 735.431343 544.761818 
L 735.431343 133888.86317 
L 743.713347 133888.86317 
L 743.713347 481.140513 
L 751.995351 481.140513 
L 751.995351 133888.86317 
L 760.277355 133888.86317 
L 760.277355 544.761818 
L 768.559358 544.761818 
L 768.559358 544.761818 
L 776.841362 544.761818 
L 776.841362 133888.86317 
L 785.123366 133888.86317 
L 785.123366 133888.86317 
L 793.405369 133888.86317 
L 793.405369 133888.86317 
L 801.687373 133888.86317 
L 801.687373 544.761818 
L 809.969377 544.761818 
L 809.969377 133888.86317 
L 818.251381 133888.86317 
L 818.251381 133888.86317 
L 826.533384 133888.86317 
L 826.533384 133888.86317 
L 834.815388 133888.86317 
L 834.815388 133888.86317 
L 843.097392 133888.86317 
L 843.097392 133888.86317 
L 851.379395 133888.86317 
L 851.379395 133888.86317 
L 859.661399 133888.86317 
L 859.661399 133888.86317 
L 867.943403 133888.86317 
L 867.943403 133888.86317 
L 876.225407 133888.86317 
L 876.225407 133888.86317 
L 884.50741 133888.86317 
L 884.50741 133888.86317 
L 892.789414 133888.86317 
L 892.789414 133888.86317 
L 901.071418 133888.86317 
L 901.071418 133888.86317 
L 909.353421 133888.86317 
L 909.353421 133888.86317 
L 917.635425 133888.86317 
L 917.635425 133888.86317 
L 925.917429 133888.86317 
L 925.917429 133888.86317 
L 934.199432 133888.86317 
L 934.199432 133888.86317 
L 942.481436 133888.86317 
L 942.481436 133888.86317 
L 950.76344 133888.86317 
L 950.76344 133888.86317 
L 959.045444 133888.86317 
L 959.045444 133888.86317 
L 967.327447 133888.86317 
L 967.327447 133888.86317 
L 975.609451 133888.86317 
L 975.609451 133888.86317 
L 983.891455 133888.86317 
L 983.891455 133888.86317 
L 992.173458 133888.86317 
L 992.173458 133888.86317 
L 996.218182 133888.86317 
L 996.218182 133888.86317 
L 996.218182 133888.86317 
L 996.218182 133888.86317 
L 996.218182 133888.86317 
L 996.218182 133888.86317 
L 996.218182 133888.86317 
L 992.173458 133888.86317 
L 992.173458 133888.86317 
L 983.891455 133888.86317 
L 983.891455 133888.86317 
L 975.609451 133888.86317 
L 975.609451 133888.86317 
L 967.327447 133888.86317 
L 967.327447 133888.86317 
L 959.045444 133888.86317 
L 959.045444 133888.86317 
L 950.76344 133888.86317 
L 950.76344 133888.86317 
L 942.481436 133888.86317 
L 942.481436 133888.86317 
L 934.199432 133888.86317 
L 934.199432 133888.86317 
L 925.917429 133888.86317 
L 925.917429 133888.86317 
L 917.635425 133888.86317 
L 917.635425 133888.86317 
L 909.353421 133888.86317 
L 909.353421 133888.86317 
L 901.071418 133888.86317 
L 901.071418 133888.86317 
L 892.789414 133888.86317 
L 892.789414 133888.86317 
L 884.50741 133888.86317 
L 884.50741 133888.86317 
L 876.225407 133888.86317 
L 876.225407 133888.86317 
L 867.943403 133888.86317 
L 867.943403 133888.86317 
L 859.661399 133888.86317 
L 859.661399 133888.86317 
L 851.379395 133888.86317 
L 851.379395 133888.86317 
L 843.097392 133888.86317 
L 843.097392 133888.86317 
L 834.815388 133888.86317 
L 834.815388 133888.86317 
L 826.533384 133888.86317 
L 826.533384 133888.86317 
L 818.251381 133888.86317 
L 818.251381 133888.86317 
L 809.969377 133888.86317 
L 809.969377 133888.86317 
L 801.687373 133888.86317 
L 801.687373 133888.86317 
L 793.405369 133888.86317 
L 793.405369 133888.86317 
L 785.123366 133888.86317 
L 785.123366 133888.86317 
L 776.841362 133888.86317 
L 776.841362 133888.86317 
L 768.559358 133888.86317 
L 768.559358 133888.86317 
L 760.277355 133888.86317 
L 760.277355 133888.86317 
L 751.995351 133888.86317 
L 751.995351 133888.86317 
L 743.713347 133888.86317 
L 743.713347 133888.86317 
L 735.431343 133888.86317 
L 735.431343 133888.86317 
L 727.14934 133888.86317 
L 727.14934 133888.86317 
L 718.867336 133888.86317 
L 718.867336 133888.86317 
L 710.585332 133888.86317 
L 710.585332 133888.86317 
L 702.303329 133888.86317 
L 702.303329 133888.86317 
L 694.021325 133888.86317 
L 694.021325 133888.86317 
L 685.739321 133888.86317 
L 685.739321 133888.86317 
L 677.457317 133888.86317 
L 677.457317 133888.86317 
L 669.175314 133888.86317 
L 669.175314 133888.86317 
L 660.89331 133888.86317 
L 660.89331 133888.86317 
L 652.611306 133888.86317 
L 652.611306 133888.86317 
L 644.329303 133888.86317 
L 644.329303 133888.86317 
L 636.047299 133888.86317 
L 636.047299 133888.86317 
L 627.765295 133888.86317 
L 627.765295 133888.86317 
L 619.483291 133888.86317 
L 619.483291 133888.86317 
L 611.201288 133888.86317 
L 611.201288 133888.86317 
L 602.919284 133888.86317 
L 602.919284 133888.86317 
L 594.63728 133888.86317 
L 594.63728 133888.86317 
L 586.355277 133888.86317 
L 586.355277 133888.86317 
L 578.073273 133888.86317 
L 578.073273 133888.86317 
L 569.791269 133888.86317 
L 569.791269 133888.86317 
L 561.509266 133888.86317 
L 561.509266 133888.86317 
L 553.227262 133888.86317 
L 553.227262 133888.86317 
L 544.945258 133888.86317 
L 544.945258 133888.86317 
L 536.663254 133888.86317 
L 536.663254 133888.86317 
L 528.381251 133888.86317 
L 528.381251 133888.86317 
L 520.099247 133888.86317 
L 520.099247 133888.86317 
L 511.817243 133888.86317 
L 511.817243 133888.86317 
L 503.53524 133888.86317 
L 503.53524 133888.86317 
L 495.253236 133888.86317 
L 495.253236 133888.86317 
L 486.971232 133888.86317 
L 486.971232 133888.86317 
L 478.689228 133888.86317 
L 478.689228 133888.86317 
L 470.407225 133888.86317 
L 470.407225 133888.86317 
L 462.125221 133888.86317 
L 462.125221 133888.86317 
L 453.843217 133888.86317 
L 453.843217 133888.86317 
L 445.561214 133888.86317 
L 445.561214 133888.86317 
L 437.27921 133888.86317 
L 437.27921 133888.86317 
L 428.997206 133888.86317 
L 428.997206 133888.86317 
L 420.715202 133888.86317 
L 420.715202 133888.86317 
L 412.433199 133888.86317 
L 412.433199 133888.86317 
L 404.151195 133888.86317 
L 404.151195 133888.86317 
L 395.869191 133888.86317 
L 395.869191 133888.86317 
L 387.587188 133888.86317 
L 387.587188 133888.86317 
L 379.305184 133888.86317 
L 379.305184 133888.86317 
L 371.02318 133888.86317 
L 371.02318 133888.86317 
L 362.741176 133888.86317 
L 362.741176 133888.86317 
L 354.459173 133888.86317 
L 354.459173 133888.86317 
L 346.177169 133888.86317 
L 346.177169 133888.86317 
L 337.895165 133888.86317 
L 337.895165 133888.86317 
L 329.613162 133888.86317 
L 329.613162 133888.86317 
L 321.331158 133888.86317 
L 321.331158 133888.86317 
L 313.049154 133888.86317 
L 313.049154 133888.86317 
L 304.76715 133888.86317 
L 304.76715 133888.86317 
L 296.485147 133888.86317 
L 296.485147 133888.86317 
L 288.203143 133888.86317 
L 288.203143 133888.86317 
L 279.921139 133888.86317 
L 279.921139 133888.86317 
L 271.639136 133888.86317 
L 271.639136 133888.86317 
L 263.357132 133888.86317 
L 263.357132 133888.86317 
L 255.075128 133888.86317 
L 255.075128 133888.86317 
L 246.793125 133888.86317 
L 246.793125 133888.86317 
L 238.511121 133888.86317 
L 238.511121 133888.86317 
L 230.229117 133888.86317 
L 230.229117 133888.86317 
L 221.947113 133888.86317 
L 221.947113 133888.86317 
L 213.66511 133888.86317 
L 213.66511 133888.86317 
L 205.383106 133888.86317 
L 205.383106 133888.86317 
L 197.101102 133888.86317 
L 197.101102 133888.86317 
L 188.819099 133888.86317 
L 188.819099 133888.86317 
L 184.581818 133888.86317 
L 184.581818 133888.86317 
L 184.581818 133888.86317 
z
" style="fill:#0000ff;fill-opacity:0.3;stroke:#0000ff;stroke-opacity:0.3;"/>
   </g>
   <g id="PolyCollection_3">
    <path clip-path="url(#p86a521b803)" d="M 184.581818 133888.86317 
L 184.581818 331.136568 
L 184.581818 331.136568 
L 184.581818 451.558291 
L 188.819099 451.558291 
L 188.819099 544.761818 
L 197.101102 544.761818 
L 197.101102 504.621244 
L 205.383106 504.621244 
L 205.383106 481.140513 
L 213.66511 481.140513 
L 213.66511 504.621244 
L 221.947113 504.621244 
L 221.947113 504.621244 
L 230.229117 504.621244 
L 230.229117 481.140513 
L 238.511121 481.140513 
L 238.511121 544.761818 
L 246.793125 544.761818 
L 246.793125 544.761818 
L 255.075128 544.761818 
L 255.075128 133888.86317 
L 263.357132 133888.86317 
L 263.357132 544.761818 
L 271.639136 544.761818 
L 271.639136 544.761818 
L 279.921139 544.761818 
L 279.921139 464.48067 
L 288.203143 464.48067 
L 288.203143 133888.86317 
L 296.485147 133888.86317 
L 296.485147 464.48067 
L 304.76715 464.48067 
L 304.76715 504.621244 
L 313.049154 504.621244 
L 313.049154 544.761818 
L 321.331158 544.761818 
L 321.331158 544.761818 
L 329.613162 544.761818 
L 329.613162 464.48067 
L 337.895165 464.48067 
L 337.895165 451.558291 
L 346.177169 451.558291 
L 346.177169 451.558291 
L 354.459173 451.558291 
L 354.459173 504.621244 
L 362.741176 504.621244 
L 362.741176 432.072979 
L 371.02318 432.072979 
L 371.02318 481.140513 
L 379.305184 481.140513 
L 379.305184 464.48067 
L 387.587188 464.48067 
L 387.587188 504.621244 
L 395.869191 504.621244 
L 395.869191 464.48067 
L 404.151195 464.48067 
L 404.151195 432.072979 
L 412.433199 432.072979 
L 412.433199 481.140513 
L 420.715202 481.140513 
L 420.715202 432.072979 
L 428.997206 432.072979 
L 428.997206 464.48067 
L 437.27921 464.48067 
L 437.27921 440.999939 
L 445.561214 440.999939 
L 445.561214 440.999939 
L 453.843217 440.999939 
L 453.843217 451.558291 
L 462.125221 451.558291 
L 462.125221 432.072979 
L 470.407225 432.072979 
L 470.407225 424.340095 
L 478.689228 424.340095 
L 478.689228 424.340095 
L 486.971232 424.340095 
L 486.971232 387.936986 
L 495.253236 387.936986 
L 495.253236 387.936986 
L 503.53524 387.936986 
L 503.53524 411.417717 
L 511.817243 411.417717 
L 511.817243 387.936986 
L 520.099247 387.936986 
L 520.099247 396.224043 
L 528.381251 396.224043 
L 528.381251 356.083469 
L 536.663254 356.083469 
L 536.663254 331.136568 
L 544.945258 331.136568 
L 544.945258 345.897533 
L 553.227262 345.897533 
L 553.227262 335.651369 
L 561.509266 335.651369 
L 561.509266 325.617098 
L 569.791269 325.617098 
L 569.791269 317.067408 
L 578.073273 317.067408 
L 578.073273 319.384141 
L 586.355277 319.384141 
L 586.355277 310.626263 
L 594.63728 310.626263 
L 594.63728 314.839802 
L 602.919284 314.839802 
L 602.919284 293.209408 
L 611.201288 293.209408 
L 611.201288 285.476524 
L 619.483291 285.476524 
L 619.483291 293.96642 
L 627.765295 293.96642 
L 627.765295 286.138366 
L 636.047299 286.138366 
L 636.047299 280.437642 
L 644.329303 280.437642 
L 644.329303 264.689795 
L 652.611306 264.689795 
L 652.611306 261.995793 
L 660.89331 261.995793 
L 660.89331 257.360471 
L 669.175314 257.360471 
L 669.175314 260.26699 
L 677.457317 260.26699 
L 677.457317 254.980248 
L 685.739321 254.980248 
L 685.739321 246.667286 
L 694.021325 246.667286 
L 694.021325 241.516283 
L 702.303329 241.516283 
L 702.303329 241.516283 
L 710.585332 241.516283 
L 710.585332 236.786259 
L 718.867336 236.786259 
L 718.867336 227.374689 
L 727.14934 227.374689 
L 727.14934 227.8593 
L 735.431343 227.8593 
L 735.431343 216.017557 
L 743.713347 216.017557 
L 743.713347 215.819572 
L 751.995351 215.819572 
L 751.995351 202.621147 
L 760.277355 202.621147 
L 760.277355 176.175236 
L 768.559358 176.175236 
L 768.559358 158.453689 
L 776.841362 158.453689 
L 776.841362 166.554728 
L 785.123366 166.554728 
L 785.123366 181.934419 
L 793.405369 181.934419 
L 793.405369 205.03109 
L 801.687373 205.03109 
L 801.687373 218.862861 
L 809.969377 218.862861 
L 809.969377 226.180614 
L 818.251381 226.180614 
L 818.251381 236.786259 
L 826.533384 236.786259 
L 826.533384 244.681585 
L 834.815388 244.681585 
L 834.815388 241.516283 
L 843.097392 241.516283 
L 843.097392 254.592885 
L 851.379395 254.592885 
L 851.379395 259.842734 
L 859.661399 259.842734 
L 859.661399 260.694376 
L 867.943403 260.694376 
L 867.943403 275.80232 
L 876.225407 275.80232 
L 876.225407 262.879942 
L 884.50741 262.879942 
L 884.50741 262.43618 
L 892.789414 262.43618 
L 892.789414 274.699228 
L 901.071418 274.699228 
L 901.071418 275.80232 
L 909.353421 275.80232 
L 909.353421 263.777798 
L 917.635425 263.777798 
L 917.635425 282.902295 
L 925.917429 282.902295 
L 925.917429 273.083013 
L 934.199432 273.083013 
L 934.199432 273.616755 
L 942.481436 273.616755 
L 942.481436 264.689795 
L 950.76344 264.689795 
L 950.76344 261.12494 
L 959.045444 261.12494 
L 959.045444 257.766863 
L 967.327447 257.766863 
L 967.327447 261.12494 
L 975.609451 261.12494 
L 975.609451 297.907437 
L 983.891455 297.907437 
L 983.891455 405.898246 
L 992.173458 405.898246 
L 992.173458 133888.86317 
L 996.218182 133888.86317 
L 996.218182 133888.86317 
L 996.218182 133888.86317 
L 996.218182 133888.86317 
L 996.218182 133888.86317 
L 996.218182 133888.86317 
L 996.218182 133888.86317 
L 992.173458 133888.86317 
L 992.173458 133888.86317 
L 983.891455 133888.86317 
L 983.891455 133888.86317 
L 975.609451 133888.86317 
L 975.609451 133888.86317 
L 967.327447 133888.86317 
L 967.327447 133888.86317 
L 959.045444 133888.86317 
L 959.045444 133888.86317 
L 950.76344 133888.86317 
L 950.76344 133888.86317 
L 942.481436 133888.86317 
L 942.481436 133888.86317 
L 934.199432 133888.86317 
L 934.199432 133888.86317 
L 925.917429 133888.86317 
L 925.917429 133888.86317 
L 917.635425 133888.86317 
L 917.635425 133888.86317 
L 909.353421 133888.86317 
L 909.353421 133888.86317 
L 901.071418 133888.86317 
L 901.071418 133888.86317 
L 892.789414 133888.86317 
L 892.789414 133888.86317 
L 884.50741 133888.86317 
L 884.50741 133888.86317 
L 876.225407 133888.86317 
L 876.225407 133888.86317 
L 867.943403 133888.86317 
L 867.943403 133888.86317 
L 859.661399 133888.86317 
L 859.661399 133888.86317 
L 851.379395 133888.86317 
L 851.379395 133888.86317 
L 843.097392 133888.86317 
L 843.097392 133888.86317 
L 834.815388 133888.86317 
L 834.815388 133888.86317 
L 826.533384 133888.86317 
L 826.533384 133888.86317 
L 818.251381 133888.86317 
L 818.251381 133888.86317 
L 809.969377 133888.86317 
L 809.969377 133888.86317 
L 801.687373 133888.86317 
L 801.687373 133888.86317 
L 793.405369 133888.86317 
L 793.405369 133888.86317 
L 785.123366 133888.86317 
L 785.123366 133888.86317 
L 776.841362 133888.86317 
L 776.841362 133888.86317 
L 768.559358 133888.86317 
L 768.559358 133888.86317 
L 760.277355 133888.86317 
L 760.277355 133888.86317 
L 751.995351 133888.86317 
L 751.995351 133888.86317 
L 743.713347 133888.86317 
L 743.713347 133888.86317 
L 735.431343 133888.86317 
L 735.431343 133888.86317 
L 727.14934 133888.86317 
L 727.14934 133888.86317 
L 718.867336 133888.86317 
L 718.867336 133888.86317 
L 710.585332 133888.86317 
L 710.585332 133888.86317 
L 702.303329 133888.86317 
L 702.303329 133888.86317 
L 694.021325 133888.86317 
L 694.021325 133888.86317 
L 685.739321 133888.86317 
L 685.739321 133888.86317 
L 677.457317 133888.86317 
L 677.457317 133888.86317 
L 669.175314 133888.86317 
L 669.175314 133888.86317 
L 660.89331 133888.86317 
L 660.89331 133888.86317 
L 652.611306 133888.86317 
L 652.611306 133888.86317 
L 644.329303 133888.86317 
L 644.329303 133888.86317 
L 636.047299 133888.86317 
L 636.047299 133888.86317 
L 627.765295 133888.86317 
L 627.765295 133888.86317 
L 619.483291 133888.86317 
L 619.483291 133888.86317 
L 611.201288 133888.86317 
L 611.201288 133888.86317 
L 602.919284 133888.86317 
L 602.919284 133888.86317 
L 594.63728 133888.86317 
L 594.63728 133888.86317 
L 586.355277 133888.86317 
L 586.355277 133888.86317 
L 578.073273 133888.86317 
L 578.073273 133888.86317 
L 569.791269 133888.86317 
L 569.791269 133888.86317 
L 561.509266 133888.86317 
L 561.509266 133888.86317 
L 553.227262 133888.86317 
L 553.227262 133888.86317 
L 544.945258 133888.86317 
L 544.945258 133888.86317 
L 536.663254 133888.86317 
L 536.663254 133888.86317 
L 528.381251 133888.86317 
L 528.381251 133888.86317 
L 520.099247 133888.86317 
L 520.099247 133888.86317 
L 511.817243 133888.86317 
L 511.817243 133888.86317 
L 503.53524 133888.86317 
L 503.53524 133888.86317 
L 495.253236 133888.86317 
L 495.253236 133888.86317 
L 486.971232 133888.86317 
L 486.971232 133888.86317 
L 478.689228 133888.86317 
L 478.689228 133888.86317 
L 470.407225 133888.86317 
L 470.407225 133888.86317 
L 462.125221 133888.86317 
L 462.125221 133888.86317 
L 453.843217 133888.86317 
L 453.843217 133888.86317 
L 445.561214 133888.86317 
L 445.561214 133888.86317 
L 437.27921 133888.86317 
L 437.27921 133888.86317 
L 428.997206 133888.86317 
L 428.997206 133888.86317 
L 420.715202 133888.86317 
L 420.715202 133888.86317 
L 412.433199 133888.86317 
L 412.433199 133888.86317 
L 404.151195 133888.86317 
L 404.151195 133888.86317 
L 395.869191 133888.86317 
L 395.869191 133888.86317 
L 387.587188 133888.86317 
L 387.587188 133888.86317 
L 379.305184 133888.86317 
L 379.305184 133888.86317 
L 371.02318 133888.86317 
L 371.02318 133888.86317 
L 362.741176 133888.86317 
L 362.741176 133888.86317 
L 354.459173 133888.86317 
L 354.459173 133888.86317 
L 346.177169 133888.86317 
L 346.177169 133888.86317 
L 337.895165 133888.86317 
L 337.895165 133888.86317 
L 329.613162 133888.86317 
L 329.613162 133888.86317 
L 321.331158 133888.86317 
L 321.331158 133888.86317 
L 313.049154 133888.86317 
L 313.049154 133888.86317 
L 304.76715 133888.86317 
L 304.76715 133888.86317 
L 296.485147 133888.86317 
L 296.485147 133888.86317 
L 288.203143 133888.86317 
L 288.203143 133888.86317 
L 279.921139 133888.86317 
L 279.921139 133888.86317 
L 271.639136 133888.86317 
L 271.639136 133888.86317 
L 263.357132 133888.86317 
L 263.357132 133888.86317 
L 255.075128 133888.86317 
L 255.075128 133888.86317 
L 246.793125 133888.86317 
L 246.793125 133888.86317 
L 238.511121 133888.86317 
L 238.511121 133888.86317 
L 230.229117 133888.86317 
L 230.229117 133888.86317 
L 221.947113 133888.86317 
L 221.947113 133888.86317 
L 213.66511 133888.86317 
L 213.66511 133888.86317 
L 205.383106 133888.86317 
L 205.383106 133888.86317 
L 197.101102 133888.86317 
L 197.101102 133888.86317 
L 188.819099 133888.86317 
L 188.819099 133888.86317 
L 184.581818 133888.86317 
L 184.581818 133888.86317 
L 184.581818 133888.86317 
z
" style="fill:#f0e68c;fill-opacity:0.3;stroke:#f0e68c;stroke-opacity:0.3;"/>
   </g>
   <g id="matplotlib.axis_1">
    <g id="xtick_1">
     <g id="line2d_1">
      <defs>
       <path d="M 0 0 
L 0 3.5 
" id="m63006208d4" style="stroke:#000000;stroke-width:0.8;"/>
      </defs>
      <g>
       <use style="stroke:#000000;stroke-width:0.8;" x="180.344538" xlink:href="#m63006208d4" y="567"/>
      </g>
     </g>
     <g id="text_1">
      <!-- $\mathdefault{10^{-4}}$ -->
      <g transform="translate(145.094538 596.795313)scale(0.3 -0.3)">
       <defs>
        <path d="M 794 531 
L 1825 531 
L 1825 4091 
L 703 3866 
L 703 4441 
L 1819 4666 
L 2450 4666 
L 2450 531 
L 3481 531 
L 3481 0 
L 794 0 
L 794 531 
z
" id="DejaVuSans-31" transform="scale(0.015625)"/>
        <path d="M 2034 4250 
Q 1547 4250 1301 3770 
Q 1056 3291 1056 2328 
Q 1056 1369 1301 889 
Q 1547 409 2034 409 
Q 2525 409 2770 889 
Q 3016 1369 3016 2328 
Q 3016 3291 2770 3770 
Q 2525 4250 2034 4250 
z
M 2034 4750 
Q 2819 4750 3233 4129 
Q 3647 3509 3647 2328 
Q 3647 1150 3233 529 
Q 2819 -91 2034 -91 
Q 1250 -91 836 529 
Q 422 1150 422 2328 
Q 422 3509 836 4129 
Q 1250 4750 2034 4750 
z
" id="DejaVuSans-30" transform="scale(0.015625)"/>
        <path d="M 678 2272 
L 4684 2272 
L 4684 1741 
L 678 1741 
L 678 2272 
z
" id="DejaVuSans-2212" transform="scale(0.015625)"/>
        <path d="M 2419 4116 
L 825 1625 
L 2419 1625 
L 2419 4116 
z
M 2253 4666 
L 3047 4666 
L 3047 1625 
L 3713 1625 
L 3713 1100 
L 3047 1100 
L 3047 0 
L 2419 0 
L 2419 1100 
L 313 1100 
L 313 1709 
L 2253 4666 
z
" id="DejaVuSans-34" transform="scale(0.015625)"/>
       </defs>
       <use transform="translate(0 0.684375)" xlink:href="#DejaVuSans-31"/>
       <use transform="translate(63.623047 0.684375)" xlink:href="#DejaVuSans-30"/>
       <use transform="translate(128.203125 38.965625)scale(0.7)" xlink:href="#DejaVuSans-2212"/>
       <use transform="translate(186.855469 38.965625)scale(0.7)" xlink:href="#DejaVuSans-34"/>
      </g>
     </g>
    </g>
    <g id="xtick_2">
     <g id="line2d_2">
      <g>
       <use style="stroke:#000000;stroke-width:0.8;" x="385.32413" xlink:href="#m63006208d4" y="567"/>
      </g>
     </g>
     <g id="text_2">
      <!-- $\mathdefault{10^{-3}}$ -->
      <g transform="translate(350.07413 596.795313)scale(0.3 -0.3)">
       <defs>
        <path d="M 2597 2516 
Q 3050 2419 3304 2112 
Q 3559 1806 3559 1356 
Q 3559 666 3084 287 
Q 2609 -91 1734 -91 
Q 1441 -91 1130 -33 
Q 819 25 488 141 
L 488 750 
Q 750 597 1062 519 
Q 1375 441 1716 441 
Q 2309 441 2620 675 
Q 2931 909 2931 1356 
Q 2931 1769 2642 2001 
Q 2353 2234 1838 2234 
L 1294 2234 
L 1294 2753 
L 1863 2753 
Q 2328 2753 2575 2939 
Q 2822 3125 2822 3475 
Q 2822 3834 2567 4026 
Q 2313 4219 1838 4219 
Q 1578 4219 1281 4162 
Q 984 4106 628 3988 
L 628 4550 
Q 988 4650 1302 4700 
Q 1616 4750 1894 4750 
Q 2613 4750 3031 4423 
Q 3450 4097 3450 3541 
Q 3450 3153 3228 2886 
Q 3006 2619 2597 2516 
z
" id="DejaVuSans-33" transform="scale(0.015625)"/>
       </defs>
       <use transform="translate(0 0.765625)" xlink:href="#DejaVuSans-31"/>
       <use transform="translate(63.623047 0.765625)" xlink:href="#DejaVuSans-30"/>
       <use transform="translate(128.203125 39.046875)scale(0.7)" xlink:href="#DejaVuSans-2212"/>
       <use transform="translate(186.855469 39.046875)scale(0.7)" xlink:href="#DejaVuSans-33"/>
      </g>
     </g>
    </g>
    <g id="xtick_3">
     <g id="line2d_3">
      <g>
       <use style="stroke:#000000;stroke-width:0.8;" x="590.303721" xlink:href="#m63006208d4" y="567"/>
      </g>
     </g>
     <g id="text_3">
      <!-- $\mathdefault{10^{-2}}$ -->
      <g transform="translate(555.053721 596.795313)scale(0.3 -0.3)">
       <defs>
        <path d="M 1228 531 
L 3431 531 
L 3431 0 
L 469 0 
L 469 531 
Q 828 903 1448 1529 
Q 2069 2156 2228 2338 
Q 2531 2678 2651 2914 
Q 2772 3150 2772 3378 
Q 2772 3750 2511 3984 
Q 2250 4219 1831 4219 
Q 1534 4219 1204 4116 
Q 875 4013 500 3803 
L 500 4441 
Q 881 4594 1212 4672 
Q 1544 4750 1819 4750 
Q 2544 4750 2975 4387 
Q 3406 4025 3406 3419 
Q 3406 3131 3298 2873 
Q 3191 2616 2906 2266 
Q 2828 2175 2409 1742 
Q 1991 1309 1228 531 
z
" id="DejaVuSans-32" transform="scale(0.015625)"/>
       </defs>
       <use transform="translate(0 0.765625)" xlink:href="#DejaVuSans-31"/>
       <use transform="translate(63.623047 0.765625)" xlink:href="#DejaVuSans-30"/>
       <use transform="translate(128.203125 39.046875)scale(0.7)" xlink:href="#DejaVuSans-2212"/>
       <use transform="translate(186.855469 39.046875)scale(0.7)" xlink:href="#DejaVuSans-32"/>
      </g>
     </g>
    </g>
    <g id="xtick_4">
     <g id="line2d_4">
      <g>
       <use style="stroke:#000000;stroke-width:0.8;" x="795.283313" xlink:href="#m63006208d4" y="567"/>
      </g>
     </g>
     <g id="text_4">
      <!-- $\mathdefault{10^{-1}}$ -->
      <g transform="translate(760.033313 596.795313)scale(0.3 -0.3)">
       <use transform="translate(0 0.684375)" xlink:href="#DejaVuSans-31"/>
       <use transform="translate(63.623047 0.684375)" xlink:href="#DejaVuSans-30"/>
       <use transform="translate(128.203125 38.965625)scale(0.7)" xlink:href="#DejaVuSans-2212"/>
       <use transform="translate(186.855469 38.965625)scale(0.7)" xlink:href="#DejaVuSans-31"/>
      </g>
     </g>
    </g>
    <g id="xtick_5">
     <g id="line2d_5">
      <g>
       <use style="stroke:#000000;stroke-width:0.8;" x="1000.262905" xlink:href="#m63006208d4" y="567"/>
      </g>
     </g>
     <g id="text_5">
      <!-- $\mathdefault{10^{0}}$ -->
      <g transform="translate(973.862905 596.795313)scale(0.3 -0.3)">
       <use transform="translate(0 0.765625)" xlink:href="#DejaVuSans-31"/>
       <use transform="translate(63.623047 0.765625)" xlink:href="#DejaVuSans-30"/>
       <use transform="translate(128.203125 39.046875)scale(0.7)" xlink:href="#DejaVuSans-30"/>
      </g>
     </g>
    </g>
    <g id="xtick_6">
     <g id="line2d_6">
      <defs>
       <path d="M 0 0 
L 0 2 
" id="m5cb3dc7d57" style="stroke:#000000;stroke-width:0.6;"/>
      </defs>
      <g>
       <use style="stroke:#000000;stroke-width:0.6;" x="148.592797" xlink:href="#m5cb3dc7d57" y="567"/>
      </g>
     </g>
    </g>
    <g id="xtick_7">
     <g id="line2d_7">
      <g>
       <use style="stroke:#000000;stroke-width:0.6;" x="160.479963" xlink:href="#m5cb3dc7d57" y="567"/>
      </g>
     </g>
    </g>
    <g id="xtick_8">
     <g id="line2d_8">
      <g>
       <use style="stroke:#000000;stroke-width:0.6;" x="170.965186" xlink:href="#m5cb3dc7d57" y="567"/>
      </g>
     </g>
    </g>
    <g id="xtick_9">
     <g id="line2d_9">
      <g>
       <use style="stroke:#000000;stroke-width:0.6;" x="242.049543" xlink:href="#m5cb3dc7d57" y="567"/>
      </g>
     </g>
    </g>
    <g id="xtick_10">
     <g id="line2d_10">
      <g>
       <use style="stroke:#000000;stroke-width:0.6;" x="278.144658" xlink:href="#m5cb3dc7d57" y="567"/>
      </g>
     </g>
    </g>
    <g id="xtick_11">
     <g id="line2d_11">
      <g>
       <use style="stroke:#000000;stroke-width:0.6;" x="303.754549" xlink:href="#m5cb3dc7d57" y="567"/>
      </g>
     </g>
    </g>
    <g id="xtick_12">
     <g id="line2d_12">
      <g>
       <use style="stroke:#000000;stroke-width:0.6;" x="323.619124" xlink:href="#m5cb3dc7d57" y="567"/>
      </g>
     </g>
    </g>
    <g id="xtick_13">
     <g id="line2d_13">
      <g>
       <use style="stroke:#000000;stroke-width:0.6;" x="339.849664" xlink:href="#m5cb3dc7d57" y="567"/>
      </g>
     </g>
    </g>
    <g id="xtick_14">
     <g id="line2d_14">
      <g>
       <use style="stroke:#000000;stroke-width:0.6;" x="353.572389" xlink:href="#m5cb3dc7d57" y="567"/>
      </g>
     </g>
    </g>
    <g id="xtick_15">
     <g id="line2d_15">
      <g>
       <use style="stroke:#000000;stroke-width:0.6;" x="365.459555" xlink:href="#m5cb3dc7d57" y="567"/>
      </g>
     </g>
    </g>
    <g id="xtick_16">
     <g id="line2d_16">
      <g>
       <use style="stroke:#000000;stroke-width:0.6;" x="375.944778" xlink:href="#m5cb3dc7d57" y="567"/>
      </g>
     </g>
    </g>
    <g id="xtick_17">
     <g id="line2d_17">
      <g>
       <use style="stroke:#000000;stroke-width:0.6;" x="447.029135" xlink:href="#m5cb3dc7d57" y="567"/>
      </g>
     </g>
    </g>
    <g id="xtick_18">
     <g id="line2d_18">
      <g>
       <use style="stroke:#000000;stroke-width:0.6;" x="483.12425" xlink:href="#m5cb3dc7d57" y="567"/>
      </g>
     </g>
    </g>
    <g id="xtick_19">
     <g id="line2d_19">
      <g>
       <use style="stroke:#000000;stroke-width:0.6;" x="508.734141" xlink:href="#m5cb3dc7d57" y="567"/>
      </g>
     </g>
    </g>
    <g id="xtick_20">
     <g id="line2d_20">
      <g>
       <use style="stroke:#000000;stroke-width:0.6;" x="528.598716" xlink:href="#m5cb3dc7d57" y="567"/>
      </g>
     </g>
    </g>
    <g id="xtick_21">
     <g id="line2d_21">
      <g>
       <use style="stroke:#000000;stroke-width:0.6;" x="544.829255" xlink:href="#m5cb3dc7d57" y="567"/>
      </g>
     </g>
    </g>
    <g id="xtick_22">
     <g id="line2d_22">
      <g>
       <use style="stroke:#000000;stroke-width:0.6;" x="558.551981" xlink:href="#m5cb3dc7d57" y="567"/>
      </g>
     </g>
    </g>
    <g id="xtick_23">
     <g id="line2d_23">
      <g>
       <use style="stroke:#000000;stroke-width:0.6;" x="570.439147" xlink:href="#m5cb3dc7d57" y="567"/>
      </g>
     </g>
    </g>
    <g id="xtick_24">
     <g id="line2d_24">
      <g>
       <use style="stroke:#000000;stroke-width:0.6;" x="580.92437" xlink:href="#m5cb3dc7d57" y="567"/>
      </g>
     </g>
    </g>
    <g id="xtick_25">
     <g id="line2d_25">
      <g>
       <use style="stroke:#000000;stroke-width:0.6;" x="652.008727" xlink:href="#m5cb3dc7d57" y="567"/>
      </g>
     </g>
    </g>
    <g id="xtick_26">
     <g id="line2d_26">
      <g>
       <use style="stroke:#000000;stroke-width:0.6;" x="688.103842" xlink:href="#m5cb3dc7d57" y="567"/>
      </g>
     </g>
    </g>
    <g id="xtick_27">
     <g id="line2d_27">
      <g>
       <use style="stroke:#000000;stroke-width:0.6;" x="713.713733" xlink:href="#m5cb3dc7d57" y="567"/>
      </g>
     </g>
    </g>
    <g id="xtick_28">
     <g id="line2d_28">
      <g>
       <use style="stroke:#000000;stroke-width:0.6;" x="733.578308" xlink:href="#m5cb3dc7d57" y="567"/>
      </g>
     </g>
    </g>
    <g id="xtick_29">
     <g id="line2d_29">
      <g>
       <use style="stroke:#000000;stroke-width:0.6;" x="749.808847" xlink:href="#m5cb3dc7d57" y="567"/>
      </g>
     </g>
    </g>
    <g id="xtick_30">
     <g id="line2d_30">
      <g>
       <use style="stroke:#000000;stroke-width:0.6;" x="763.531573" xlink:href="#m5cb3dc7d57" y="567"/>
      </g>
     </g>
    </g>
    <g id="xtick_31">
     <g id="line2d_31">
      <g>
       <use style="stroke:#000000;stroke-width:0.6;" x="775.418738" xlink:href="#m5cb3dc7d57" y="567"/>
      </g>
     </g>
    </g>
    <g id="xtick_32">
     <g id="line2d_32">
      <g>
       <use style="stroke:#000000;stroke-width:0.6;" x="785.903962" xlink:href="#m5cb3dc7d57" y="567"/>
      </g>
     </g>
    </g>
    <g id="xtick_33">
     <g id="line2d_33">
      <g>
       <use style="stroke:#000000;stroke-width:0.6;" x="856.988319" xlink:href="#m5cb3dc7d57" y="567"/>
      </g>
     </g>
    </g>
    <g id="xtick_34">
     <g id="line2d_34">
      <g>
       <use style="stroke:#000000;stroke-width:0.6;" x="893.083433" xlink:href="#m5cb3dc7d57" y="567"/>
      </g>
     </g>
    </g>
    <g id="xtick_35">
     <g id="line2d_35">
      <g>
       <use style="stroke:#000000;stroke-width:0.6;" x="918.693325" xlink:href="#m5cb3dc7d57" y="567"/>
      </g>
     </g>
    </g>
    <g id="xtick_36">
     <g id="line2d_36">
      <g>
       <use style="stroke:#000000;stroke-width:0.6;" x="938.5579" xlink:href="#m5cb3dc7d57" y="567"/>
      </g>
     </g>
    </g>
    <g id="xtick_37">
     <g id="line2d_37">
      <g>
       <use style="stroke:#000000;stroke-width:0.6;" x="954.788439" xlink:href="#m5cb3dc7d57" y="567"/>
      </g>
     </g>
    </g>
    <g id="xtick_38">
     <g id="line2d_38">
      <g>
       <use style="stroke:#000000;stroke-width:0.6;" x="968.511165" xlink:href="#m5cb3dc7d57" y="567"/>
      </g>
     </g>
    </g>
    <g id="xtick_39">
     <g id="line2d_39">
      <g>
       <use style="stroke:#000000;stroke-width:0.6;" x="980.39833" xlink:href="#m5cb3dc7d57" y="567"/>
      </g>
     </g>
    </g>
    <g id="xtick_40">
     <g id="line2d_40">
      <g>
       <use style="stroke:#000000;stroke-width:0.6;" x="990.883553" xlink:href="#m5cb3dc7d57" y="567"/>
      </g>
     </g>
    </g>
    <g id="text_6">
     <!-- Layer 2 f -->
     <g transform="translate(524.217188 629.829687)scale(0.3 -0.3)">
      <defs>
       <path d="M 628 4666 
L 1259 4666 
L 1259 531 
L 3531 531 
L 3531 0 
L 628 0 
L 628 4666 
z
" id="DejaVuSans-4c" transform="scale(0.015625)"/>
       <path d="M 2194 1759 
Q 1497 1759 1228 1600 
Q 959 1441 959 1056 
Q 959 750 1161 570 
Q 1363 391 1709 391 
Q 2188 391 2477 730 
Q 2766 1069 2766 1631 
L 2766 1759 
L 2194 1759 
z
M 3341 1997 
L 3341 0 
L 2766 0 
L 2766 531 
Q 2569 213 2275 61 
Q 1981 -91 1556 -91 
Q 1019 -91 701 211 
Q 384 513 384 1019 
Q 384 1609 779 1909 
Q 1175 2209 1959 2209 
L 2766 2209 
L 2766 2266 
Q 2766 2663 2505 2880 
Q 2244 3097 1772 3097 
Q 1472 3097 1187 3025 
Q 903 2953 641 2809 
L 641 3341 
Q 956 3463 1253 3523 
Q 1550 3584 1831 3584 
Q 2591 3584 2966 3190 
Q 3341 2797 3341 1997 
z
" id="DejaVuSans-61" transform="scale(0.015625)"/>
       <path d="M 2059 -325 
Q 1816 -950 1584 -1140 
Q 1353 -1331 966 -1331 
L 506 -1331 
L 506 -850 
L 844 -850 
Q 1081 -850 1212 -737 
Q 1344 -625 1503 -206 
L 1606 56 
L 191 3500 
L 800 3500 
L 1894 763 
L 2988 3500 
L 3597 3500 
L 2059 -325 
z
" id="DejaVuSans-79" transform="scale(0.015625)"/>
       <path d="M 3597 1894 
L 3597 1613 
L 953 1613 
Q 991 1019 1311 708 
Q 1631 397 2203 397 
Q 2534 397 2845 478 
Q 3156 559 3463 722 
L 3463 178 
Q 3153 47 2828 -22 
Q 2503 -91 2169 -91 
Q 1331 -91 842 396 
Q 353 884 353 1716 
Q 353 2575 817 3079 
Q 1281 3584 2069 3584 
Q 2775 3584 3186 3129 
Q 3597 2675 3597 1894 
z
M 3022 2063 
Q 3016 2534 2758 2815 
Q 2500 3097 2075 3097 
Q 1594 3097 1305 2825 
Q 1016 2553 972 2059 
L 3022 2063 
z
" id="DejaVuSans-65" transform="scale(0.015625)"/>
       <path d="M 2631 2963 
Q 2534 3019 2420 3045 
Q 2306 3072 2169 3072 
Q 1681 3072 1420 2755 
Q 1159 2438 1159 1844 
L 1159 0 
L 581 0 
L 581 3500 
L 1159 3500 
L 1159 2956 
Q 1341 3275 1631 3429 
Q 1922 3584 2338 3584 
Q 2397 3584 2469 3576 
Q 2541 3569 2628 3553 
L 2631 2963 
z
" id="DejaVuSans-72" transform="scale(0.015625)"/>
       <path id="DejaVuSans-20" transform="scale(0.015625)"/>
       <path d="M 2375 4863 
L 2375 4384 
L 1825 4384 
Q 1516 4384 1395 4259 
Q 1275 4134 1275 3809 
L 1275 3500 
L 2222 3500 
L 2222 3053 
L 1275 3053 
L 1275 0 
L 697 0 
L 697 3053 
L 147 3053 
L 147 3500 
L 697 3500 
L 697 3744 
Q 697 4328 969 4595 
Q 1241 4863 1831 4863 
L 2375 4863 
z
" id="DejaVuSans-66" transform="scale(0.015625)"/>
      </defs>
      <use xlink:href="#DejaVuSans-4c"/>
      <use x="55.712891" xlink:href="#DejaVuSans-61"/>
      <use x="116.992188" xlink:href="#DejaVuSans-79"/>
      <use x="176.171875" xlink:href="#DejaVuSans-65"/>
      <use x="237.695312" xlink:href="#DejaVuSans-72"/>
      <use x="278.808594" xlink:href="#DejaVuSans-20"/>
      <use x="310.595703" xlink:href="#DejaVuSans-32"/>
      <use x="374.21875" xlink:href="#DejaVuSans-20"/>
      <use x="406.005859" xlink:href="#DejaVuSans-66"/>
     </g>
    </g>
   </g>
   <g id="matplotlib.axis_2">
    <g id="ytick_1">
     <g id="line2d_41">
      <defs>
       <path d="M 0 0 
L -3.5 0 
" id="mb70c9335a4" style="stroke:#000000;stroke-width:0.8;"/>
      </defs>
      <g>
       <use style="stroke:#000000;stroke-width:0.8;" x="144" xlink:href="#mb70c9335a4" y="544.761818"/>
      </g>
     </g>
     <g id="text_7">
      <!-- $\mathdefault{10^{0}}$ -->
      <g transform="translate(84.2 556.159474)scale(0.3 -0.3)">
       <use transform="translate(0 0.765625)" xlink:href="#DejaVuSans-31"/>
       <use transform="translate(63.623047 0.765625)" xlink:href="#DejaVuSans-30"/>
       <use transform="translate(128.203125 39.046875)scale(0.7)" xlink:href="#DejaVuSans-30"/>
      </g>
     </g>
    </g>
    <g id="ytick_2">
     <g id="line2d_42">
      <g>
       <use style="stroke:#000000;stroke-width:0.8;" x="144" xlink:href="#mb70c9335a4" y="411.417717"/>
      </g>
     </g>
     <g id="text_8">
      <!-- $\mathdefault{10^{1}}$ -->
      <g transform="translate(84.2 422.815373)scale(0.3 -0.3)">
       <use transform="translate(0 0.684375)" xlink:href="#DejaVuSans-31"/>
       <use transform="translate(63.623047 0.684375)" xlink:href="#DejaVuSans-30"/>
       <use transform="translate(128.203125 38.965625)scale(0.7)" xlink:href="#DejaVuSans-31"/>
      </g>
     </g>
    </g>
    <g id="ytick_3">
     <g id="line2d_43">
      <g>
       <use style="stroke:#000000;stroke-width:0.8;" x="144" xlink:href="#mb70c9335a4" y="278.073615"/>
      </g>
     </g>
     <g id="text_9">
      <!-- $\mathdefault{10^{2}}$ -->
      <g transform="translate(84.2 289.471272)scale(0.3 -0.3)">
       <use transform="translate(0 0.765625)" xlink:href="#DejaVuSans-31"/>
       <use transform="translate(63.623047 0.765625)" xlink:href="#DejaVuSans-30"/>
       <use transform="translate(128.203125 39.046875)scale(0.7)" xlink:href="#DejaVuSans-32"/>
      </g>
     </g>
    </g>
    <g id="ytick_4">
     <g id="line2d_44">
      <g>
       <use style="stroke:#000000;stroke-width:0.8;" x="144" xlink:href="#mb70c9335a4" y="144.729514"/>
      </g>
     </g>
     <g id="text_10">
      <!-- $\mathdefault{10^{3}}$ -->
      <g transform="translate(84.2 156.12717)scale(0.3 -0.3)">
       <use transform="translate(0 0.765625)" xlink:href="#DejaVuSans-31"/>
       <use transform="translate(63.623047 0.765625)" xlink:href="#DejaVuSans-30"/>
       <use transform="translate(128.203125 39.046875)scale(0.7)" xlink:href="#DejaVuSans-33"/>
      </g>
     </g>
    </g>
    <g id="ytick_5">
     <g id="line2d_45">
      <defs>
       <path d="M 0 0 
L -2 0 
" id="m3f35a8a965" style="stroke:#000000;stroke-width:0.6;"/>
      </defs>
      <g>
       <use style="stroke:#000000;stroke-width:0.6;" x="144" xlink:href="#m3f35a8a965" y="565.417081"/>
      </g>
     </g>
    </g>
    <g id="ytick_6">
     <g id="line2d_46">
      <g>
       <use style="stroke:#000000;stroke-width:0.6;" x="144" xlink:href="#m3f35a8a965" y="557.684197"/>
      </g>
     </g>
    </g>
    <g id="ytick_7">
     <g id="line2d_47">
      <g>
       <use style="stroke:#000000;stroke-width:0.6;" x="144" xlink:href="#m3f35a8a965" y="550.86331"/>
      </g>
     </g>
    </g>
    <g id="ytick_8">
     <g id="line2d_48">
      <g>
       <use style="stroke:#000000;stroke-width:0.6;" x="144" xlink:href="#m3f35a8a965" y="504.621244"/>
      </g>
     </g>
    </g>
    <g id="ytick_9">
     <g id="line2d_49">
      <g>
       <use style="stroke:#000000;stroke-width:0.6;" x="144" xlink:href="#m3f35a8a965" y="481.140513"/>
      </g>
     </g>
    </g>
    <g id="ytick_10">
     <g id="line2d_50">
      <g>
       <use style="stroke:#000000;stroke-width:0.6;" x="144" xlink:href="#m3f35a8a965" y="464.48067"/>
      </g>
     </g>
    </g>
    <g id="ytick_11">
     <g id="line2d_51">
      <g>
       <use style="stroke:#000000;stroke-width:0.6;" x="144" xlink:href="#m3f35a8a965" y="451.558291"/>
      </g>
     </g>
    </g>
    <g id="ytick_12">
     <g id="line2d_52">
      <g>
       <use style="stroke:#000000;stroke-width:0.6;" x="144" xlink:href="#m3f35a8a965" y="440.999939"/>
      </g>
     </g>
    </g>
    <g id="ytick_13">
     <g id="line2d_53">
      <g>
       <use style="stroke:#000000;stroke-width:0.6;" x="144" xlink:href="#m3f35a8a965" y="432.072979"/>
      </g>
     </g>
    </g>
    <g id="ytick_14">
     <g id="line2d_54">
      <g>
       <use style="stroke:#000000;stroke-width:0.6;" x="144" xlink:href="#m3f35a8a965" y="424.340095"/>
      </g>
     </g>
    </g>
    <g id="ytick_15">
     <g id="line2d_55">
      <g>
       <use style="stroke:#000000;stroke-width:0.6;" x="144" xlink:href="#m3f35a8a965" y="417.519208"/>
      </g>
     </g>
    </g>
    <g id="ytick_16">
     <g id="line2d_56">
      <g>
       <use style="stroke:#000000;stroke-width:0.6;" x="144" xlink:href="#m3f35a8a965" y="371.277143"/>
      </g>
     </g>
    </g>
    <g id="ytick_17">
     <g id="line2d_57">
      <g>
       <use style="stroke:#000000;stroke-width:0.6;" x="144" xlink:href="#m3f35a8a965" y="347.796412"/>
      </g>
     </g>
    </g>
    <g id="ytick_18">
     <g id="line2d_58">
      <g>
       <use style="stroke:#000000;stroke-width:0.6;" x="144" xlink:href="#m3f35a8a965" y="331.136568"/>
      </g>
     </g>
    </g>
    <g id="ytick_19">
     <g id="line2d_59">
      <g>
       <use style="stroke:#000000;stroke-width:0.6;" x="144" xlink:href="#m3f35a8a965" y="318.21419"/>
      </g>
     </g>
    </g>
    <g id="ytick_20">
     <g id="line2d_60">
      <g>
       <use style="stroke:#000000;stroke-width:0.6;" x="144" xlink:href="#m3f35a8a965" y="307.655838"/>
      </g>
     </g>
    </g>
    <g id="ytick_21">
     <g id="line2d_61">
      <g>
       <use style="stroke:#000000;stroke-width:0.6;" x="144" xlink:href="#m3f35a8a965" y="298.728878"/>
      </g>
     </g>
    </g>
    <g id="ytick_22">
     <g id="line2d_62">
      <g>
       <use style="stroke:#000000;stroke-width:0.6;" x="144" xlink:href="#m3f35a8a965" y="290.995994"/>
      </g>
     </g>
    </g>
    <g id="ytick_23">
     <g id="line2d_63">
      <g>
       <use style="stroke:#000000;stroke-width:0.6;" x="144" xlink:href="#m3f35a8a965" y="284.175107"/>
      </g>
     </g>
    </g>
    <g id="ytick_24">
     <g id="line2d_64">
      <g>
       <use style="stroke:#000000;stroke-width:0.6;" x="144" xlink:href="#m3f35a8a965" y="237.933041"/>
      </g>
     </g>
    </g>
    <g id="ytick_25">
     <g id="line2d_65">
      <g>
       <use style="stroke:#000000;stroke-width:0.6;" x="144" xlink:href="#m3f35a8a965" y="214.452311"/>
      </g>
     </g>
    </g>
    <g id="ytick_26">
     <g id="line2d_66">
      <g>
       <use style="stroke:#000000;stroke-width:0.6;" x="144" xlink:href="#m3f35a8a965" y="197.792467"/>
      </g>
     </g>
    </g>
    <g id="ytick_27">
     <g id="line2d_67">
      <g>
       <use style="stroke:#000000;stroke-width:0.6;" x="144" xlink:href="#m3f35a8a965" y="184.870088"/>
      </g>
     </g>
    </g>
    <g id="ytick_28">
     <g id="line2d_68">
      <g>
       <use style="stroke:#000000;stroke-width:0.6;" x="144" xlink:href="#m3f35a8a965" y="174.311736"/>
      </g>
     </g>
    </g>
    <g id="ytick_29">
     <g id="line2d_69">
      <g>
       <use style="stroke:#000000;stroke-width:0.6;" x="144" xlink:href="#m3f35a8a965" y="165.384777"/>
      </g>
     </g>
    </g>
    <g id="ytick_30">
     <g id="line2d_70">
      <g>
       <use style="stroke:#000000;stroke-width:0.6;" x="144" xlink:href="#m3f35a8a965" y="157.651893"/>
      </g>
     </g>
    </g>
    <g id="ytick_31">
     <g id="line2d_71">
      <g>
       <use style="stroke:#000000;stroke-width:0.6;" x="144" xlink:href="#m3f35a8a965" y="150.831006"/>
      </g>
     </g>
    </g>
    <g id="ytick_32">
     <g id="line2d_72">
      <g>
       <use style="stroke:#000000;stroke-width:0.6;" x="144" xlink:href="#m3f35a8a965" y="104.58894"/>
      </g>
     </g>
    </g>
    <g id="ytick_33">
     <g id="line2d_73">
      <g>
       <use style="stroke:#000000;stroke-width:0.6;" x="144" xlink:href="#m3f35a8a965" y="81.108209"/>
      </g>
     </g>
    </g>
    <g id="text_11">
     <!-- Events -->
     <g transform="translate(73.960938 373.166719)rotate(-90)scale(0.3 -0.3)">
      <defs>
       <path d="M 628 4666 
L 3578 4666 
L 3578 4134 
L 1259 4134 
L 1259 2753 
L 3481 2753 
L 3481 2222 
L 1259 2222 
L 1259 531 
L 3634 531 
L 3634 0 
L 628 0 
L 628 4666 
z
" id="DejaVuSans-45" transform="scale(0.015625)"/>
       <path d="M 191 3500 
L 800 3500 
L 1894 563 
L 2988 3500 
L 3597 3500 
L 2284 0 
L 1503 0 
L 191 3500 
z
" id="DejaVuSans-76" transform="scale(0.015625)"/>
       <path d="M 3513 2113 
L 3513 0 
L 2938 0 
L 2938 2094 
Q 2938 2591 2744 2837 
Q 2550 3084 2163 3084 
Q 1697 3084 1428 2787 
Q 1159 2491 1159 1978 
L 1159 0 
L 581 0 
L 581 3500 
L 1159 3500 
L 1159 2956 
Q 1366 3272 1645 3428 
Q 1925 3584 2291 3584 
Q 2894 3584 3203 3211 
Q 3513 2838 3513 2113 
z
" id="DejaVuSans-6e" transform="scale(0.015625)"/>
       <path d="M 1172 4494 
L 1172 3500 
L 2356 3500 
L 2356 3053 
L 1172 3053 
L 1172 1153 
Q 1172 725 1289 603 
Q 1406 481 1766 481 
L 2356 481 
L 2356 0 
L 1766 0 
Q 1100 0 847 248 
Q 594 497 594 1153 
L 594 3053 
L 172 3053 
L 172 3500 
L 594 3500 
L 594 4494 
L 1172 4494 
z
" id="DejaVuSans-74" transform="scale(0.015625)"/>
       <path d="M 2834 3397 
L 2834 2853 
Q 2591 2978 2328 3040 
Q 2066 3103 1784 3103 
Q 1356 3103 1142 2972 
Q 928 2841 928 2578 
Q 928 2378 1081 2264 
Q 1234 2150 1697 2047 
L 1894 2003 
Q 2506 1872 2764 1633 
Q 3022 1394 3022 966 
Q 3022 478 2636 193 
Q 2250 -91 1575 -91 
Q 1294 -91 989 -36 
Q 684 19 347 128 
L 347 722 
Q 666 556 975 473 
Q 1284 391 1588 391 
Q 1994 391 2212 530 
Q 2431 669 2431 922 
Q 2431 1156 2273 1281 
Q 2116 1406 1581 1522 
L 1381 1569 
Q 847 1681 609 1914 
Q 372 2147 372 2553 
Q 372 3047 722 3315 
Q 1072 3584 1716 3584 
Q 2034 3584 2315 3537 
Q 2597 3491 2834 3397 
z
" id="DejaVuSans-73" transform="scale(0.015625)"/>
      </defs>
      <use xlink:href="#DejaVuSans-45"/>
      <use x="63.183594" xlink:href="#DejaVuSans-76"/>
      <use x="122.363281" xlink:href="#DejaVuSans-65"/>
      <use x="183.886719" xlink:href="#DejaVuSans-6e"/>
      <use x="247.265625" xlink:href="#DejaVuSans-74"/>
      <use x="286.474609" xlink:href="#DejaVuSans-73"/>
     </g>
    </g>
   </g>
   <g id="line2d_74">
    <path clip-path="url(#p86a521b803)" d="M 184.581818 170.574271 
L 184.581818 374.247568 
L 188.819099 374.247568 
L 188.819099 360.71879 
L 197.101102 360.71879 
L 197.101102 371.277143 
L 205.383106 371.277143 
L 205.383106 380.688713 
L 213.66511 380.688713 
L 213.66511 358.354764 
L 221.947113 358.354764 
L 221.947113 360.71879 
L 230.229117 360.71879 
L 230.229117 351.791831 
L 246.793125 351.791831 
L 246.793125 360.71879 
L 255.075128 360.71879 
L 255.075128 337.23806 
L 263.357132 337.23806 
L 263.357132 334.106994 
L 271.639136 334.106994 
L 271.639136 340.548138 
L 279.921139 340.548138 
L 279.921139 324.315681 
L 288.203143 324.315681 
L 288.203143 332.602738 
L 296.485147 332.602738 
L 296.485147 319.384141 
L 304.76715 319.384141 
L 304.76715 309.619097 
L 313.049154 309.619097 
L 313.049154 289.56603 
L 321.331158 289.56603 
L 321.331158 284.175107 
L 337.895165 284.175107 
L 337.895165 266.085299 
L 346.177169 266.085299 
L 346.177169 274.155462 
L 354.459173 274.155462 
L 354.459173 264.232002 
L 362.741176 264.232002 
L 362.741176 240.599474 
L 371.02318 240.599474 
L 371.02318 241.516283 
L 379.305184 241.516283 
L 379.305184 231.370108 
L 387.587188 231.370108 
L 387.587188 221.636275 
L 395.869191 221.636275 
L 395.869191 215.819572 
L 404.151195 215.819572 
L 404.151195 195.382131 
L 412.433199 195.382131 
L 412.433199 182.487533 
L 420.715202 182.487533 
L 420.715202 166.554728 
L 428.997206 166.554728 
L 428.997206 155.033618 
L 437.27921 155.033618 
L 437.27921 144.038723 
L 445.561214 144.038723 
L 445.561214 146.374145 
L 453.843217 146.374145 
L 453.843217 153.598592 
L 462.125221 153.598592 
L 462.125221 172.133321 
L 470.407225 172.133321 
L 470.407225 200.156493 
L 478.689228 200.156493 
L 478.689228 229.588103 
L 486.971232 229.588103 
L 486.971232 239.996233 
L 495.253236 239.996233 
L 495.253236 263.777798 
L 503.53524 263.777798 
L 503.53524 281.656858 
L 511.817243 281.656858 
L 511.817243 299.562139 
L 520.099247 299.562139 
L 520.099247 306.698616 
L 528.381251 306.698616 
L 528.381251 315.942894 
L 536.663254 315.942894 
L 536.663254 338.869452 
L 544.945258 338.869452 
L 544.945258 360.71879 
L 553.227262 360.71879 
L 553.227262 374.247568 
L 561.509266 374.247568 
L 561.509266 377.378634 
L 569.791269 377.378634 
L 569.791269 380.688713 
L 586.355277 380.688713 
L 586.355277 405.898246 
L 594.63728 405.898246 
L 594.63728 440.999939 
L 602.919284 440.999939 
L 602.919284 451.558291 
L 619.483291 451.558291 
L 619.483291 481.140513 
L 627.765295 481.140513 
L 627.765295 504.621244 
L 636.047299 504.621244 
L 636.047299 481.140513 
L 644.329303 481.140513 
L 644.329303 649 
M 652.611306 649 
L 652.611306 504.621244 
L 660.89331 504.621244 
L 660.89331 649 
M 669.175314 649 
L 669.175314 544.761818 
L 677.457317 544.761818 
L 677.457317 649 
M 685.739321 649 
L 685.739321 544.761818 
L 694.021325 544.761818 
L 694.021325 649 
M 702.303329 649 
L 702.303329 544.761818 
L 710.585332 544.761818 
L 710.585332 504.621244 
L 718.867336 504.621244 
L 718.867336 649 
M 751.995351 649 
L 751.995351 544.761818 
L 760.277355 544.761818 
L 760.277355 649 
M 809.969377 649 
L 809.969377 544.761818 
L 818.251381 544.761818 
L 818.251381 649 
L 818.251381 649 
" style="fill:none;stroke:#800080;stroke-linecap:square;stroke-width:3;"/>
   </g>
   <g id="line2d_75">
    <path clip-path="url(#p86a521b803)" d="M 184.581818 154.277505 
L 184.581818 365.757672 
L 188.819099 365.757672 
L 188.819099 374.247568 
L 197.101102 374.247568 
L 197.101102 371.277143 
L 205.383106 371.277143 
L 205.383106 358.354764 
L 213.66511 358.354764 
L 213.66511 351.791831 
L 221.947113 351.791831 
L 221.947113 363.183444 
L 230.229117 363.183444 
L 230.229117 353.897903 
L 238.511121 353.897903 
L 238.511121 338.869452 
L 246.793125 338.869452 
L 246.793125 345.897533 
L 255.075128 345.897533 
L 255.075128 349.759671 
L 263.357132 349.759671 
L 263.357132 326.948435 
L 271.639136 326.948435 
L 271.639136 311.651257 
L 279.921139 311.651257 
L 279.921139 312.694719 
L 288.203143 312.694719 
L 288.203143 303.020516 
L 296.485147 303.020516 
L 296.485147 297.097486 
L 304.76715 297.097486 
L 304.76715 291.724439 
L 313.049154 291.724439 
L 313.049154 293.209408 
L 321.331158 293.209408 
L 321.331158 283.535204 
L 329.613162 283.535204 
L 329.613162 266.558041 
L 337.895165 266.558041 
L 337.895165 261.12494 
L 346.177169 261.12494 
L 346.177169 255.762836 
L 354.459173 255.762836 
L 354.459173 242.761721 
L 362.741176 242.761721 
L 362.741176 232.413571 
L 371.02318 232.413571 
L 371.02318 218.862861 
L 379.305184 218.862861 
L 379.305184 203.573123 
L 387.587188 203.573123 
L 387.587188 194.281658 
L 395.869191 194.281658 
L 395.869191 180.520569 
L 404.151195 180.520569 
L 404.151195 167.662691 
L 412.433199 167.662691 
L 412.433199 161.158177 
L 420.715202 161.158177 
L 420.715202 157.57955 
L 428.997206 157.57955 
L 428.997206 164.400437 
L 437.27921 164.400437 
L 437.27921 177.485715 
L 445.561214 177.485715 
L 445.561214 180.951935 
L 453.843217 180.951935 
L 453.843217 200.005881 
L 462.125221 200.005881 
L 462.125221 213.876081 
L 470.407225 213.876081 
L 470.407225 233.744908 
L 478.689228 233.744908 
L 478.689228 225.475811 
L 486.971232 225.475811 
L 486.971232 249.073414 
L 495.253236 249.073414 
L 495.253236 247.686268 
L 503.53524 247.686268 
L 503.53524 268.488574 
L 511.817243 268.488574 
L 511.817243 276.926833 
L 520.099247 276.926833 
L 520.099247 285.476524 
L 528.381251 285.476524 
L 528.381251 307.655838 
L 536.663254 307.655838 
L 536.663254 304.83037 
L 544.945258 304.83037 
L 544.945258 315.942894 
L 553.227262 315.942894 
L 553.227262 323.042869 
L 561.509266 323.042869 
L 561.509266 334.106994 
L 569.791269 334.106994 
L 569.791269 384.199521 
L 578.073273 384.199521 
L 578.073273 374.247568 
L 586.355277 374.247568 
L 586.355277 396.224043 
L 594.63728 396.224043 
L 594.63728 391.932405 
L 602.919284 391.932405 
L 602.919284 440.999939 
L 611.201288 440.999939 
L 611.201288 544.761818 
L 627.765295 544.761818 
L 627.765295 481.140513 
L 636.047299 481.140513 
L 636.047299 504.621244 
L 652.611306 504.621244 
L 652.611306 544.761818 
L 660.89331 544.761818 
L 660.89331 481.140513 
L 669.175314 481.140513 
L 669.175314 504.621244 
L 677.457317 504.621244 
L 677.457317 649 
M 710.585332 649 
L 710.585332 544.761818 
L 727.14934 544.761818 
L 727.14934 504.621244 
L 735.431343 504.621244 
L 735.431343 649 
M 743.713347 649 
L 743.713347 544.761818 
L 751.995351 544.761818 
L 751.995351 649 
M 760.277355 649 
L 760.277355 544.761818 
L 768.559358 544.761818 
L 768.559358 649 
M 776.841362 649 
L 776.841362 544.761818 
L 785.123366 544.761818 
L 785.123366 649 
L 785.123366 649 
" style="fill:none;stroke:#0000ff;stroke-linecap:square;stroke-width:3;"/>
   </g>
   <g id="line2d_76">
    <path clip-path="url(#p86a521b803)" d="M 184.581818 99.998182 
L 184.581818 544.761818 
L 197.101102 544.761818 
L 197.101102 649 
M 205.383106 649 
L 205.383106 544.761818 
L 213.66511 544.761818 
L 213.66511 649 
M 230.229117 649 
L 230.229117 544.761818 
L 246.793125 544.761818 
L 246.793125 504.621244 
L 255.075128 504.621244 
L 255.075128 649 
M 263.357132 649 
L 263.357132 544.761818 
L 279.921139 544.761818 
L 279.921139 504.621244 
L 296.485147 504.621244 
L 296.485147 451.558291 
L 304.76715 451.558291 
L 304.76715 649 
M 313.049154 649 
L 313.049154 504.621244 
L 321.331158 504.621244 
L 321.331158 464.48067 
L 329.613162 464.48067 
L 329.613162 417.519208 
L 337.895165 417.519208 
L 337.895165 504.621244 
L 346.177169 504.621244 
L 346.177169 424.340095 
L 354.459173 424.340095 
L 354.459173 417.519208 
L 362.741176 417.519208 
L 362.741176 451.558291 
L 371.02318 451.558291 
L 371.02318 504.621244 
L 379.305184 504.621244 
L 379.305184 432.072979 
L 387.587188 432.072979 
L 387.587188 451.558291 
L 395.869191 451.558291 
L 395.869191 481.140513 
L 404.151195 481.140513 
L 404.151195 440.999939 
L 412.433199 440.999939 
L 412.433199 424.340095 
L 420.715202 424.340095 
L 420.715202 464.48067 
L 428.997206 464.48067 
L 428.997206 432.072979 
L 437.27921 432.072979 
L 437.27921 424.340095 
L 445.561214 424.340095 
L 445.561214 411.417717 
L 453.843217 411.417717 
L 453.843217 384.199521 
L 462.125221 384.199521 
L 462.125221 424.340095 
L 470.407225 424.340095 
L 470.407225 380.688713 
L 478.689228 380.688713 
L 478.689228 396.224043 
L 486.971232 396.224043 
L 486.971232 391.932405 
L 495.253236 391.932405 
L 495.253236 432.072979 
L 503.53524 432.072979 
L 503.53524 363.183444 
L 511.817243 363.183444 
L 511.817243 358.354764 
L 520.099247 358.354764 
L 520.099247 363.183444 
L 528.381251 363.183444 
L 528.381251 358.354764 
L 536.663254 358.354764 
L 536.663254 342.276941 
L 544.945258 342.276941 
L 544.945258 335.651369 
L 553.227262 335.651369 
L 553.227262 353.897903 
L 561.509266 353.897903 
L 561.509266 331.136568 
L 569.791269 331.136568 
L 569.791269 335.651369 
L 578.073273 335.651369 
L 578.073273 337.23806 
L 586.355277 337.23806 
L 586.355277 318.21419 
L 594.63728 318.21419 
L 594.63728 308.629148 
L 602.919284 308.629148 
L 602.919284 321.797432 
L 611.201288 321.797432 
L 611.201288 302.136367 
L 619.483291 302.136367 
L 619.483291 304.83037 
L 627.765295 304.83037 
L 627.765295 292.462164 
L 636.047299 292.462164 
L 636.047299 295.510794 
L 644.329303 295.510794 
L 644.329303 281.044041 
L 652.611306 281.044041 
L 652.611306 294.733459 
L 660.89331 294.733459 
L 660.89331 261.12494 
L 669.175314 261.12494 
L 669.175314 268.488574 
L 677.457317 268.488574 
L 677.457317 253.068833 
L 685.739321 253.068833 
L 685.739321 245.335949 
L 694.021325 245.335949 
L 694.021325 221.418155 
L 702.303329 221.418155 
L 702.303329 203.893958 
L 710.585332 203.893958 
L 710.585332 200.005881 
L 718.867336 200.005881 
L 718.867336 195.243422 
L 727.14934 195.243422 
L 727.14934 196.503921 
L 735.431343 196.503921 
L 735.431343 193.604334 
L 743.713347 193.604334 
L 743.713347 198.228433 
L 751.995351 198.228433 
L 751.995351 212.740542 
L 760.277355 212.740542 
L 760.277355 226.417467 
L 768.559358 226.417467 
L 768.559358 226.655293 
L 776.841362 226.655293 
L 776.841362 221.636275 
L 785.123366 221.636275 
L 785.123366 249.073414 
L 793.405369 249.073414 
L 793.405369 268.981433 
L 801.687373 268.981433 
L 801.687373 267.999874 
L 809.969377 267.999874 
L 809.969377 263.32713 
L 818.251381 263.32713 
L 818.251381 251.951552 
L 826.533384 251.951552 
L 826.533384 256.956911 
L 834.815388 256.956911 
L 834.815388 274.699228 
L 843.097392 274.699228 
L 843.097392 291.724439 
L 851.379395 291.724439 
L 851.379395 287.485185 
L 859.661399 287.485185 
L 859.661399 282.902295 
L 867.943403 282.902295 
L 867.943403 284.175107 
L 876.225407 284.175107 
L 876.225407 264.232002 
L 884.50741 264.232002 
L 884.50741 274.699228 
L 892.789414 274.699228 
L 892.789414 275.248147 
L 901.071418 275.248147 
L 901.071418 276.361847 
L 909.353421 276.361847 
L 909.353421 291.724439 
L 925.917429 291.724439 
L 925.917429 264.232002 
L 934.199432 264.232002 
L 934.199432 271.510682 
L 942.481436 271.510682 
L 942.481436 281.656858 
L 950.76344 281.656858 
L 950.76344 286.807861 
L 959.045444 286.807861 
L 959.045444 260.26699 
L 967.327447 260.26699 
L 967.327447 285.476524 
L 975.609451 285.476524 
L 975.609451 307.655838 
L 983.891455 307.655838 
L 983.891455 324.315681 
L 992.173458 324.315681 
L 992.173458 345.897533 
L 996.218182 345.897533 
L 996.218182 544.761818 
L 996.218182 544.761818 
" style="fill:none;stroke:#f0e68c;stroke-linecap:square;stroke-width:3;"/>
   </g>
   <g id="patch_3">
    <path d="M 144 567 
L 144 77.76 
" style="fill:none;stroke:#000000;stroke-linecap:square;stroke-linejoin:miter;stroke-width:0.8;"/>
   </g>
   <g id="patch_4">
    <path d="M 1036.8 567 
L 1036.8 77.76 
" style="fill:none;stroke:#000000;stroke-linecap:square;stroke-linejoin:miter;stroke-width:0.8;"/>
   </g>
   <g id="patch_5">
    <path d="M 144 567 
L 1036.8 567 
" style="fill:none;stroke:#000000;stroke-linecap:square;stroke-linejoin:miter;stroke-width:0.8;"/>
   </g>
   <g id="patch_6">
    <path d="M 144 77.76 
L 1036.8 77.76 
" style="fill:none;stroke:#000000;stroke-linecap:square;stroke-linejoin:miter;stroke-width:0.8;"/>
   </g>
   <g id="legend_1">
    <g id="patch_7">
     <path d="M 674.4 181.869375 
L 1022.8 181.869375 
Q 1026.8 181.869375 1026.8 177.869375 
L 1026.8 91.76 
Q 1026.8 87.76 1022.8 87.76 
L 674.4 87.76 
Q 670.4 87.76 670.4 91.76 
L 670.4 177.869375 
Q 670.4 181.869375 674.4 181.869375 
z
" style="fill:#ffffff;opacity:0.8;stroke:#cccccc;stroke-linejoin:miter;"/>
    </g>
    <g id="line2d_77">
     <path d="M 678.4 103.956875 
L 718.4 103.956875 
" style="fill:none;stroke:#800080;stroke-linecap:square;stroke-width:3;"/>
    </g>
    <g id="line2d_78"/>
    <g id="text_12">
     <!-- $e^{+}$ DVAE -->
     <g transform="translate(734.4 110.956875)scale(0.2 -0.2)">
      <defs>
       <path d="M 3078 2063 
Q 3088 2113 3092 2166 
Q 3097 2219 3097 2272 
Q 3097 2653 2873 2875 
Q 2650 3097 2266 3097 
Q 1838 3097 1509 2826 
Q 1181 2556 1013 2059 
L 3078 2063 
z
M 3578 1613 
L 903 1613 
Q 884 1494 878 1425 
Q 872 1356 872 1306 
Q 872 872 1139 634 
Q 1406 397 1894 397 
Q 2269 397 2603 481 
Q 2938 566 3225 728 
L 3116 159 
Q 2806 34 2476 -28 
Q 2147 -91 1806 -91 
Q 1078 -91 686 257 
Q 294 606 294 1247 
Q 294 1794 489 2264 
Q 684 2734 1063 3103 
Q 1306 3334 1642 3459 
Q 1978 3584 2356 3584 
Q 2950 3584 3301 3228 
Q 3653 2872 3653 2272 
Q 3653 2128 3634 1964 
Q 3616 1800 3578 1613 
z
" id="DejaVuSans-Oblique-65" transform="scale(0.015625)"/>
       <path d="M 2944 4013 
L 2944 2272 
L 4684 2272 
L 4684 1741 
L 2944 1741 
L 2944 0 
L 2419 0 
L 2419 1741 
L 678 1741 
L 678 2272 
L 2419 2272 
L 2419 4013 
L 2944 4013 
z
" id="DejaVuSans-2b" transform="scale(0.015625)"/>
       <path d="M 1259 4147 
L 1259 519 
L 2022 519 
Q 2988 519 3436 956 
Q 3884 1394 3884 2338 
Q 3884 3275 3436 3711 
Q 2988 4147 2022 4147 
L 1259 4147 
z
M 628 4666 
L 1925 4666 
Q 3281 4666 3915 4102 
Q 4550 3538 4550 2338 
Q 4550 1131 3912 565 
Q 3275 0 1925 0 
L 628 0 
L 628 4666 
z
" id="DejaVuSans-44" transform="scale(0.015625)"/>
       <path d="M 1831 0 
L 50 4666 
L 709 4666 
L 2188 738 
L 3669 4666 
L 4325 4666 
L 2547 0 
L 1831 0 
z
" id="DejaVuSans-56" transform="scale(0.015625)"/>
       <path d="M 2188 4044 
L 1331 1722 
L 3047 1722 
L 2188 4044 
z
M 1831 4666 
L 2547 4666 
L 4325 0 
L 3669 0 
L 3244 1197 
L 1141 1197 
L 716 0 
L 50 0 
L 1831 4666 
z
" id="DejaVuSans-41" transform="scale(0.015625)"/>
      </defs>
      <use transform="translate(0 0.826562)" xlink:href="#DejaVuSans-Oblique-65"/>
      <use transform="translate(66.173333 39.107812)scale(0.7)" xlink:href="#DejaVuSans-2b"/>
      <use transform="translate(127.560052 0.826562)" xlink:href="#DejaVuSans-20"/>
      <use transform="translate(159.347161 0.826562)" xlink:href="#DejaVuSans-44"/>
      <use transform="translate(236.349115 0.826562)" xlink:href="#DejaVuSans-56"/>
      <use transform="translate(304.757318 0.826562)" xlink:href="#DejaVuSans-41"/>
      <use transform="translate(373.165521 0.826562)" xlink:href="#DejaVuSans-45"/>
     </g>
    </g>
    <g id="line2d_79">
     <path d="M 678.4 133.313125 
L 718.4 133.313125 
" style="fill:none;stroke:#0000ff;stroke-linecap:square;stroke-width:3;"/>
    </g>
    <g id="line2d_80"/>
    <g id="text_13">
     <!-- $\gamma$   DVAE -->
     <g transform="translate(734.4 140.313125)scale(0.2 -0.2)">
      <defs>
       <path d="M 1491 2950 
L 1838 788 
L 3456 3500 
L 4066 3500 
L 1972 0 
L 1713 -1331 
L 1138 -1331 
L 1397 0 
L 988 2613 
Q 925 3006 628 3006 
L 475 3006 
L 569 3500 
L 788 3500 
Q 1403 3500 1491 2950 
z
" id="DejaVuSans-Oblique-3b3" transform="scale(0.015625)"/>
      </defs>
      <use transform="translate(0 0.09375)" xlink:href="#DejaVuSans-Oblique-3b3"/>
      <use transform="translate(59.179688 0.09375)" xlink:href="#DejaVuSans-20"/>
      <use transform="translate(90.966797 0.09375)" xlink:href="#DejaVuSans-20"/>
      <use transform="translate(122.753906 0.09375)" xlink:href="#DejaVuSans-20"/>
      <use transform="translate(154.541016 0.09375)" xlink:href="#DejaVuSans-44"/>
      <use transform="translate(231.542969 0.09375)" xlink:href="#DejaVuSans-56"/>
      <use transform="translate(299.951172 0.09375)" xlink:href="#DejaVuSans-41"/>
      <use transform="translate(368.359375 0.09375)" xlink:href="#DejaVuSans-45"/>
     </g>
    </g>
    <g id="line2d_81">
     <path d="M 678.4 162.71 
L 718.4 162.71 
" style="fill:none;stroke:#f0e68c;stroke-linecap:square;stroke-width:3;"/>
    </g>
    <g id="line2d_82"/>
    <g id="text_14">
     <!-- $\pi^{+}$ DVAE -->
     <g transform="translate(734.4 169.71)scale(0.2 -0.2)">
      <defs>
       <path d="M 584 3500 
L 3938 3500 
L 3825 2925 
L 3384 2925 
L 2966 775 
Q 2922 550 2981 450 
Q 3038 353 3209 353 
Q 3256 353 3325 363 
Q 3397 369 3419 372 
L 3338 -44 
Q 3222 -84 3103 -103 
Q 2981 -122 2866 -122 
Q 2491 -122 2388 81 
Q 2284 288 2391 838 
L 2797 2925 
L 1506 2925 
L 938 0 
L 350 0 
L 919 2925 
L 472 2925 
L 584 3500 
z
" id="DejaVuSans-Oblique-3c0" transform="scale(0.015625)"/>
      </defs>
      <use transform="translate(0 0.826562)" xlink:href="#DejaVuSans-Oblique-3c0"/>
      <use transform="translate(64.671224 39.107812)scale(0.7)" xlink:href="#DejaVuSans-2b"/>
      <use transform="translate(126.057943 0.826562)" xlink:href="#DejaVuSans-20"/>
      <use transform="translate(157.845052 0.826562)" xlink:href="#DejaVuSans-44"/>
      <use transform="translate(234.847005 0.826562)" xlink:href="#DejaVuSans-56"/>
      <use transform="translate(303.255208 0.826562)" xlink:href="#DejaVuSans-41"/>
      <use transform="translate(371.663411 0.826562)" xlink:href="#DejaVuSans-45"/>
     </g>
    </g>
    <g id="patch_8">
     <path d="M 861.8 110.956875 
L 901.8 110.956875 
L 901.8 96.956875 
L 861.8 96.956875 
z
" style="fill:#800080;opacity:0.3;stroke:#800080;stroke-linejoin:miter;"/>
    </g>
    <g id="text_15">
     <!-- $e^{+}$ GEANT -->
     <g transform="translate(917.8 110.956875)scale(0.2 -0.2)">
      <defs>
       <path d="M 3809 666 
L 3809 1919 
L 2778 1919 
L 2778 2438 
L 4434 2438 
L 4434 434 
Q 4069 175 3628 42 
Q 3188 -91 2688 -91 
Q 1594 -91 976 548 
Q 359 1188 359 2328 
Q 359 3472 976 4111 
Q 1594 4750 2688 4750 
Q 3144 4750 3555 4637 
Q 3966 4525 4313 4306 
L 4313 3634 
Q 3963 3931 3569 4081 
Q 3175 4231 2741 4231 
Q 1884 4231 1454 3753 
Q 1025 3275 1025 2328 
Q 1025 1384 1454 906 
Q 1884 428 2741 428 
Q 3075 428 3337 486 
Q 3600 544 3809 666 
z
" id="DejaVuSans-47" transform="scale(0.015625)"/>
       <path d="M 628 4666 
L 1478 4666 
L 3547 763 
L 3547 4666 
L 4159 4666 
L 4159 0 
L 3309 0 
L 1241 3903 
L 1241 0 
L 628 0 
L 628 4666 
z
" id="DejaVuSans-4e" transform="scale(0.015625)"/>
       <path d="M -19 4666 
L 3928 4666 
L 3928 4134 
L 2272 4134 
L 2272 0 
L 1638 0 
L 1638 4134 
L -19 4134 
L -19 4666 
z
" id="DejaVuSans-54" transform="scale(0.015625)"/>
      </defs>
      <use transform="translate(0 0.826562)" xlink:href="#DejaVuSans-Oblique-65"/>
      <use transform="translate(66.173333 39.107812)scale(0.7)" xlink:href="#DejaVuSans-2b"/>
      <use transform="translate(127.560052 0.826562)" xlink:href="#DejaVuSans-20"/>
      <use transform="translate(159.347161 0.826562)" xlink:href="#DejaVuSans-47"/>
      <use transform="translate(236.837396 0.826562)" xlink:href="#DejaVuSans-45"/>
      <use transform="translate(300.02099 0.826562)" xlink:href="#DejaVuSans-41"/>
      <use transform="translate(368.429193 0.826562)" xlink:href="#DejaVuSans-4e"/>
      <use transform="translate(443.23388 0.826562)" xlink:href="#DejaVuSans-54"/>
     </g>
    </g>
    <g id="patch_9">
     <path d="M 861.8 140.313125 
L 901.8 140.313125 
L 901.8 126.313125 
L 861.8 126.313125 
z
" style="fill:#0000ff;opacity:0.3;stroke:#0000ff;stroke-linejoin:miter;"/>
    </g>
    <g id="text_16">
     <!-- $\gamma$   GEANT -->
     <g transform="translate(917.8 140.313125)scale(0.2 -0.2)">
      <use transform="translate(0 0.78125)" xlink:href="#DejaVuSans-Oblique-3b3"/>
      <use transform="translate(59.179688 0.78125)" xlink:href="#DejaVuSans-20"/>
      <use transform="translate(90.966797 0.78125)" xlink:href="#DejaVuSans-20"/>
      <use transform="translate(122.753906 0.78125)" xlink:href="#DejaVuSans-20"/>
      <use transform="translate(154.541016 0.78125)" xlink:href="#DejaVuSans-47"/>
      <use transform="translate(232.03125 0.78125)" xlink:href="#DejaVuSans-45"/>
      <use transform="translate(295.214844 0.78125)" xlink:href="#DejaVuSans-41"/>
      <use transform="translate(363.623047 0.78125)" xlink:href="#DejaVuSans-4e"/>
      <use transform="translate(438.427734 0.78125)" xlink:href="#DejaVuSans-54"/>
     </g>
    </g>
    <g id="patch_10">
     <path d="M 861.8 169.71 
L 901.8 169.71 
L 901.8 155.71 
L 861.8 155.71 
z
" style="fill:#f0e68c;opacity:0.3;stroke:#f0e68c;stroke-linejoin:miter;"/>
    </g>
    <g id="text_17">
     <!-- $\pi^{+}$ GEANT -->
     <g transform="translate(917.8 169.71)scale(0.2 -0.2)">
      <use transform="translate(0 0.826562)" xlink:href="#DejaVuSans-Oblique-3c0"/>
      <use transform="translate(64.671224 39.107812)scale(0.7)" xlink:href="#DejaVuSans-2b"/>
      <use transform="translate(126.057943 0.826562)" xlink:href="#DejaVuSans-20"/>
      <use transform="translate(157.845052 0.826562)" xlink:href="#DejaVuSans-47"/>
      <use transform="translate(235.335286 0.826562)" xlink:href="#DejaVuSans-45"/>
      <use transform="translate(298.51888 0.826562)" xlink:href="#DejaVuSans-41"/>
      <use transform="translate(366.927083 0.826562)" xlink:href="#DejaVuSans-4e"/>
      <use transform="translate(441.731771 0.826562)" xlink:href="#DejaVuSans-54"/>
     </g>
    </g>
   </g>
  </g>
 </g>
 <defs>
  <clipPath id="p86a521b803">
   <rect height="489.24" width="892.8" x="144" y="77.76"/>
  </clipPath>
 </defs>
</svg>
