<?xml version="1.0" encoding="utf-8" standalone="no"?>
<!DOCTYPE svg PUBLIC "-//W3C//DTD SVG 1.1//EN"
  "http://www.w3.org/Graphics/SVG/1.1/DTD/svg11.dtd">
<svg height="648pt" version="1.1" viewBox="0 0 1152 648" width="1152pt" xmlns="http://www.w3.org/2000/svg" xmlns:xlink="http://www.w3.org/1999/xlink">
 <metadata>
  <rdf:RDF xmlns:cc="http://creativecommons.org/ns#" xmlns:dc="http://purl.org/dc/elements/1.1/" xmlns:rdf="http://www.w3.org/1999/02/22-rdf-syntax-ns#">
   <cc:Work>
    <dc:type rdf:resource="http://purl.org/dc/dcmitype/StillImage"/>
    <dc:date>2021-09-24T22:51:55.962826</dc:date>
    <dc:format>image/svg+xml</dc:format>
    <dc:creator>
     <cc:Agent>
      <dc:title>Matplotlib v3.4.2, https://matplotlib.org/</dc:title>
     </cc:Agent>
    </dc:creator>
   </cc:Work>
  </rdf:RDF>
 </metadata>
 <defs>
  <style type="text/css">*{stroke-linecap:butt;stroke-linejoin:round;}</style>
 </defs>
 <g id="figure_1">
  <g id="patch_1">
   <path d="M 0 648 
L 1152 648 
L 1152 0 
L 0 0 
z
" style="fill:none;"/>
  </g>
  <g id="axes_1">
   <g id="patch_2">
    <path d="M 144 567 
L 1036.8 567 
L 1036.8 77.76 
L 144 77.76 
z
" style="fill:#ffffff;"/>
   </g>
   <g id="PolyCollection_1">
    <path clip-path="url(#p5546ba9275)" d="M 184.581818 129145.409078 
L 184.581818 129145.409078 
L 184.581818 129145.409078 
L 184.581818 129145.409078 
L 192.863822 129145.409078 
L 192.863822 129145.409078 
L 209.427829 129145.409078 
L 209.427829 129145.409078 
L 225.991837 129145.409078 
L 225.991837 129145.409078 
L 242.555844 129145.409078 
L 242.555844 129145.409078 
L 259.119852 129145.409078 
L 259.119852 129145.409078 
L 275.683859 129145.409078 
L 275.683859 129145.409078 
L 292.247866 129145.409078 
L 292.247866 544.761818 
L 308.811874 544.761818 
L 308.811874 506.049166 
L 325.375881 506.049166 
L 325.375881 444.691064 
L 341.939889 444.691064 
L 341.939889 374.723561 
L 358.503896 374.723561 
L 358.503896 397.369011 
L 375.067904 397.369011 
L 375.067904 362.79533 
L 391.631911 362.79533 
L 391.631911 352.971739 
L 408.195918 352.971739 
L 408.195918 356.696489 
L 424.759926 356.696489 
L 424.759926 347.812638 
L 441.323933 347.812638 
L 441.323933 377.448519 
L 457.887941 377.448519 
L 457.887941 334.696718 
L 474.451948 334.696718 
L 474.451948 341.600625 
L 491.015955 341.600625 
L 491.015955 325.167188 
L 507.579963 325.167188 
L 507.579963 329.728951 
L 524.14397 329.728951 
L 524.14397 326.273176 
L 540.707978 326.273176 
L 540.707978 318.955175 
L 557.271985 318.955175 
L 557.271985 309.099986 
L 573.835993 309.099986 
L 573.835993 320.95005 
L 590.4 320.95005 
L 590.4 292.217433 
L 606.964007 292.217433 
L 606.964007 283.262207 
L 623.528015 283.262207 
L 623.528015 286.454536 
L 640.092022 286.454536 
L 640.092022 282.237398 
L 656.65603 282.237398 
L 656.65603 266.043406 
L 673.220037 266.043406 
L 673.220037 267.195005 
L 689.784045 267.195005 
L 689.784045 262.367702 
L 706.348052 262.367702 
L 706.348052 264.175321 
L 722.912059 264.175321 
L 722.912059 264.175321 
L 739.476067 264.175321 
L 739.476067 246.926533 
L 756.040074 246.926533 
L 756.040074 240.799788 
L 772.604082 240.799788 
L 772.604082 232.710899 
L 789.168089 232.710899 
L 789.168089 220.879295 
L 805.732096 220.879295 
L 805.732096 217.593021 
L 822.296104 217.593021 
L 822.296104 214.188332 
L 838.860111 214.188332 
L 838.860111 203.18587 
L 855.424119 203.18587 
L 855.424119 222.07675 
L 871.988126 222.07675 
L 871.988126 186.750016 
L 888.552134 186.750016 
L 888.552134 171.005251 
L 905.116141 171.005251 
L 905.116141 160.718648 
L 921.680148 160.718648 
L 921.680148 149.05707 
L 938.244156 149.05707 
L 938.244156 151.251311 
L 954.808163 151.251311 
L 954.808163 177.074783 
L 971.372171 177.074783 
L 971.372171 240.558532 
L 987.936178 240.558532 
L 987.936178 354.803069 
L 996.218182 354.803069 
L 996.218182 129145.409078 
L 996.218182 129145.409078 
L 996.218182 129145.409078 
L 996.218182 129145.409078 
L 996.218182 129145.409078 
L 996.218182 129145.409078 
L 987.936178 129145.409078 
L 987.936178 129145.409078 
L 971.372171 129145.409078 
L 971.372171 129145.409078 
L 954.808163 129145.409078 
L 954.808163 129145.409078 
L 938.244156 129145.409078 
L 938.244156 129145.409078 
L 921.680148 129145.409078 
L 921.680148 129145.409078 
L 905.116141 129145.409078 
L 905.116141 129145.409078 
L 888.552134 129145.409078 
L 888.552134 129145.409078 
L 871.988126 129145.409078 
L 871.988126 129145.409078 
L 855.424119 129145.409078 
L 855.424119 129145.409078 
L 838.860111 129145.409078 
L 838.860111 129145.409078 
L 822.296104 129145.409078 
L 822.296104 129145.409078 
L 805.732096 129145.409078 
L 805.732096 129145.409078 
L 789.168089 129145.409078 
L 789.168089 129145.409078 
L 772.604082 129145.409078 
L 772.604082 129145.409078 
L 756.040074 129145.409078 
L 756.040074 129145.409078 
L 739.476067 129145.409078 
L 739.476067 129145.409078 
L 722.912059 129145.409078 
L 722.912059 129145.409078 
L 706.348052 129145.409078 
L 706.348052 129145.409078 
L 689.784045 129145.409078 
L 689.784045 129145.409078 
L 673.220037 129145.409078 
L 673.220037 129145.409078 
L 656.65603 129145.409078 
L 656.65603 129145.409078 
L 640.092022 129145.409078 
L 640.092022 129145.409078 
L 623.528015 129145.409078 
L 623.528015 129145.409078 
L 606.964007 129145.409078 
L 606.964007 129145.409078 
L 590.4 129145.409078 
L 590.4 129145.409078 
L 573.835993 129145.409078 
L 573.835993 129145.409078 
L 557.271985 129145.409078 
L 557.271985 129145.409078 
L 540.707978 129145.409078 
L 540.707978 129145.409078 
L 524.14397 129145.409078 
L 524.14397 129145.409078 
L 507.579963 129145.409078 
L 507.579963 129145.409078 
L 491.015955 129145.409078 
L 491.015955 129145.409078 
L 474.451948 129145.409078 
L 474.451948 129145.409078 
L 457.887941 129145.409078 
L 457.887941 129145.409078 
L 441.323933 129145.409078 
L 441.323933 129145.409078 
L 424.759926 129145.409078 
L 424.759926 129145.409078 
L 408.195918 129145.409078 
L 408.195918 129145.409078 
L 391.631911 129145.409078 
L 391.631911 129145.409078 
L 375.067904 129145.409078 
L 375.067904 129145.409078 
L 358.503896 129145.409078 
L 358.503896 129145.409078 
L 341.939889 129145.409078 
L 341.939889 129145.409078 
L 325.375881 129145.409078 
L 325.375881 129145.409078 
L 308.811874 129145.409078 
L 308.811874 129145.409078 
L 292.247866 129145.409078 
L 292.247866 129145.409078 
L 275.683859 129145.409078 
L 275.683859 129145.409078 
L 259.119852 129145.409078 
L 259.119852 129145.409078 
L 242.555844 129145.409078 
L 242.555844 129145.409078 
L 225.991837 129145.409078 
L 225.991837 129145.409078 
L 209.427829 129145.409078 
L 209.427829 129145.409078 
L 192.863822 129145.409078 
L 192.863822 129145.409078 
L 184.581818 129145.409078 
L 184.581818 129145.409078 
L 184.581818 129145.409078 
z
" style="fill:#800080;fill-opacity:0.3;stroke:#800080;stroke-opacity:0.3;"/>
   </g>
   <g id="PolyCollection_2">
    <path clip-path="url(#p5546ba9275)" d="M 184.581818 129145.409078 
L 184.581818 129145.409078 
L 184.581818 129145.409078 
L 184.581818 129145.409078 
L 192.863822 129145.409078 
L 192.863822 129145.409078 
L 209.427829 129145.409078 
L 209.427829 129145.409078 
L 225.991837 129145.409078 
L 225.991837 129145.409078 
L 242.555844 129145.409078 
L 242.555844 129145.409078 
L 259.119852 129145.409078 
L 259.119852 129145.409078 
L 275.683859 129145.409078 
L 275.683859 129145.409078 
L 292.247866 129145.409078 
L 292.247866 129145.409078 
L 308.811874 129145.409078 
L 308.811874 544.761818 
L 325.375881 544.761818 
L 325.375881 422.045614 
L 341.939889 422.045614 
L 341.939889 467.336514 
L 358.503896 467.336514 
L 358.503896 401.507982 
L 375.067904 401.507982 
L 375.067904 380.313277 
L 391.631911 380.313277 
L 391.631911 380.313277 
L 408.195918 380.313277 
L 408.195918 347.812638 
L 424.759926 347.812638 
L 424.759926 336.010909 
L 441.323933 336.010909 
L 441.323933 356.696489 
L 457.887941 356.696489 
L 457.887941 334.696718 
L 474.451948 334.696718 
L 474.451948 334.696718 
L 491.015955 334.696718 
L 491.015955 308.284635 
L 507.579963 308.284635 
L 507.579963 328.553107 
L 524.14397 328.553107 
L 524.14397 315.167246 
L 540.707978 315.167246 
L 540.707978 324.082677 
L 557.271985 324.082677 
L 557.271985 306.688796 
L 573.835993 306.688796 
L 573.835993 333.41274 
L 590.4 333.41274 
L 590.4 291.016299 
L 606.964007 291.016299 
L 606.964007 297.298256 
L 623.528015 297.298256 
L 623.528015 294.700088 
L 640.092022 294.700088 
L 640.092022 285.909648 
L 656.65603 285.909648 
L 656.65603 271.214764 
L 673.220037 271.214764 
L 673.220037 265.288657 
L 689.784045 265.288657 
L 689.784045 270.387334 
L 706.348052 270.387334 
L 706.348052 262.724575 
L 722.912059 262.724575 
L 722.912059 277.845136 
L 739.476067 277.845136 
L 739.476067 250.261885 
L 756.040074 250.261885 
L 756.040074 238.665112 
L 772.604082 238.665112 
L 772.604082 231.674681 
L 789.168089 231.674681 
L 789.168089 221.560408 
L 805.732096 221.560408 
L 805.732096 221.38935 
L 822.296104 221.38935 
L 822.296104 213.147147 
L 838.860111 213.147147 
L 838.860111 203.80575 
L 855.424119 203.80575 
L 855.424119 220.039422 
L 871.988126 220.039422 
L 871.988126 181.829176 
L 888.552134 181.829176 
L 888.552134 173.557243 
L 905.116141 173.557243 
L 905.116141 162.237689 
L 921.680148 162.237689 
L 921.680148 149.952961 
L 938.244156 149.952961 
L 938.244156 148.49856 
L 954.808163 148.49856 
L 954.808163 174.287326 
L 971.372171 174.287326 
L 971.372171 235.718964 
L 987.936178 235.718964 
L 987.936178 346.193668 
L 996.218182 346.193668 
L 996.218182 428.623861 
L 996.218182 428.623861 
L 996.218182 129145.409078 
L 996.218182 129145.409078 
L 996.218182 129145.409078 
L 996.218182 129145.409078 
L 987.936178 129145.409078 
L 987.936178 129145.409078 
L 971.372171 129145.409078 
L 971.372171 129145.409078 
L 954.808163 129145.409078 
L 954.808163 129145.409078 
L 938.244156 129145.409078 
L 938.244156 129145.409078 
L 921.680148 129145.409078 
L 921.680148 129145.409078 
L 905.116141 129145.409078 
L 905.116141 129145.409078 
L 888.552134 129145.409078 
L 888.552134 129145.409078 
L 871.988126 129145.409078 
L 871.988126 129145.409078 
L 855.424119 129145.409078 
L 855.424119 129145.409078 
L 838.860111 129145.409078 
L 838.860111 129145.409078 
L 822.296104 129145.409078 
L 822.296104 129145.409078 
L 805.732096 129145.409078 
L 805.732096 129145.409078 
L 789.168089 129145.409078 
L 789.168089 129145.409078 
L 772.604082 129145.409078 
L 772.604082 129145.409078 
L 756.040074 129145.409078 
L 756.040074 129145.409078 
L 739.476067 129145.409078 
L 739.476067 129145.409078 
L 722.912059 129145.409078 
L 722.912059 129145.409078 
L 706.348052 129145.409078 
L 706.348052 129145.409078 
L 689.784045 129145.409078 
L 689.784045 129145.409078 
L 673.220037 129145.409078 
L 673.220037 129145.409078 
L 656.65603 129145.409078 
L 656.65603 129145.409078 
L 640.092022 129145.409078 
L 640.092022 129145.409078 
L 623.528015 129145.409078 
L 623.528015 129145.409078 
L 606.964007 129145.409078 
L 606.964007 129145.409078 
L 590.4 129145.409078 
L 590.4 129145.409078 
L 573.835993 129145.409078 
L 573.835993 129145.409078 
L 557.271985 129145.409078 
L 557.271985 129145.409078 
L 540.707978 129145.409078 
L 540.707978 129145.409078 
L 524.14397 129145.409078 
L 524.14397 129145.409078 
L 507.579963 129145.409078 
L 507.579963 129145.409078 
L 491.015955 129145.409078 
L 491.015955 129145.409078 
L 474.451948 129145.409078 
L 474.451948 129145.409078 
L 457.887941 129145.409078 
L 457.887941 129145.409078 
L 441.323933 129145.409078 
L 441.323933 129145.409078 
L 424.759926 129145.409078 
L 424.759926 129145.409078 
L 408.195918 129145.409078 
L 408.195918 129145.409078 
L 391.631911 129145.409078 
L 391.631911 129145.409078 
L 375.067904 129145.409078 
L 375.067904 129145.409078 
L 358.503896 129145.409078 
L 358.503896 129145.409078 
L 341.939889 129145.409078 
L 341.939889 129145.409078 
L 325.375881 129145.409078 
L 325.375881 129145.409078 
L 308.811874 129145.409078 
L 308.811874 129145.409078 
L 292.247866 129145.409078 
L 292.247866 129145.409078 
L 275.683859 129145.409078 
L 275.683859 129145.409078 
L 259.119852 129145.409078 
L 259.119852 129145.409078 
L 242.555844 129145.409078 
L 242.555844 129145.409078 
L 225.991837 129145.409078 
L 225.991837 129145.409078 
L 209.427829 129145.409078 
L 209.427829 129145.409078 
L 192.863822 129145.409078 
L 192.863822 129145.409078 
L 184.581818 129145.409078 
L 184.581818 129145.409078 
L 184.581818 129145.409078 
z
" style="fill:#0000ff;fill-opacity:0.3;stroke:#0000ff;stroke-opacity:0.3;"/>
   </g>
   <g id="PolyCollection_3">
    <path clip-path="url(#p5546ba9275)" d="M 184.581818 129145.409078 
L 184.581818 129145.409078 
L 184.581818 129145.409078 
L 184.581818 372.125393 
L 192.863822 372.125393 
L 192.863822 151.348696 
L 209.427829 151.348696 
L 209.427829 160.546003 
L 225.991837 160.546003 
L 225.991837 201.84588 
L 242.555844 201.84588 
L 242.555844 231.062055 
L 259.119852 231.062055 
L 259.119852 263.809086 
L 275.683859 263.809086 
L 275.683859 285.370025 
L 292.247866 285.370025 
L 292.247866 299.329409 
L 308.811874 299.329409 
L 308.811874 343.090061 
L 325.375881 343.090061 
L 325.375881 324.082677 
L 341.939889 324.082677 
L 341.939889 340.14988 
L 358.503896 340.14988 
L 358.503896 338.735866 
L 375.067904 338.735866 
L 375.067904 347.812638 
L 391.631911 347.812638 
L 391.631911 351.198557 
L 408.195918 351.198557 
L 408.195918 351.198557 
L 424.759926 351.198557 
L 424.759926 351.198557 
L 441.323933 351.198557 
L 441.323933 372.125393 
L 457.887941 372.125393 
L 457.887941 358.656359 
L 474.451948 358.656359 
L 474.451948 354.803069 
L 491.015955 354.803069 
L 491.015955 362.79533 
L 507.579963 362.79533 
L 507.579963 349.479943 
L 524.14397 349.479943 
L 524.14397 351.198557 
L 540.707978 351.198557 
L 540.707978 352.971739 
L 557.271985 352.971739 
L 557.271985 346.193668 
L 573.835993 346.193668 
L 573.835993 374.723561 
L 590.4 374.723561 
L 590.4 340.14988 
L 606.964007 340.14988 
L 606.964007 336.010909 
L 623.528015 336.010909 
L 623.528015 340.14988 
L 640.092022 340.14988 
L 640.092022 325.167188 
L 656.65603 325.167188 
L 656.65603 317.983837 
L 673.220037 317.983837 
L 673.220037 332.157619 
L 689.784045 332.157619 
L 689.784045 317.029103 
L 706.348052 317.029103 
L 706.348052 324.082677 
L 722.912059 324.082677 
L 722.912059 337.35677 
L 739.476067 337.35677 
L 739.476067 320.95005 
L 756.040074 320.95005 
L 756.040074 310.76729 
L 772.604082 310.76729 
L 772.604082 301.437228 
L 789.168089 301.437228 
L 789.168089 302.887973 
L 805.732096 302.887973 
L 805.732096 289.261687 
L 822.296104 289.261687 
L 822.296104 301.437228 
L 838.860111 301.437228 
L 838.860111 283.262207 
L 855.424119 283.262207 
L 855.424119 291.613637 
L 871.988126 291.613637 
L 871.988126 270.387334 
L 888.552134 270.387334 
L 888.552134 264.543972 
L 905.116141 264.543972 
L 905.116141 248.847871 
L 921.680148 248.847871 
L 921.680148 245.069099 
L 938.244156 245.069099 
L 938.244156 225.462668 
L 954.808163 225.462668 
L 954.808163 208.484344 
L 971.372171 208.484344 
L 971.372171 181.326769 
L 987.936178 181.326769 
L 987.936178 157.79916 
L 996.218182 157.79916 
L 996.218182 119.086508 
L 996.218182 119.086508 
L 996.218182 129145.409078 
L 996.218182 129145.409078 
L 996.218182 129145.409078 
L 996.218182 129145.409078 
L 987.936178 129145.409078 
L 987.936178 129145.409078 
L 971.372171 129145.409078 
L 971.372171 129145.409078 
L 954.808163 129145.409078 
L 954.808163 129145.409078 
L 938.244156 129145.409078 
L 938.244156 129145.409078 
L 921.680148 129145.409078 
L 921.680148 129145.409078 
L 905.116141 129145.409078 
L 905.116141 129145.409078 
L 888.552134 129145.409078 
L 888.552134 129145.409078 
L 871.988126 129145.409078 
L 871.988126 129145.409078 
L 855.424119 129145.409078 
L 855.424119 129145.409078 
L 838.860111 129145.409078 
L 838.860111 129145.409078 
L 822.296104 129145.409078 
L 822.296104 129145.409078 
L 805.732096 129145.409078 
L 805.732096 129145.409078 
L 789.168089 129145.409078 
L 789.168089 129145.409078 
L 772.604082 129145.409078 
L 772.604082 129145.409078 
L 756.040074 129145.409078 
L 756.040074 129145.409078 
L 739.476067 129145.409078 
L 739.476067 129145.409078 
L 722.912059 129145.409078 
L 722.912059 129145.409078 
L 706.348052 129145.409078 
L 706.348052 129145.409078 
L 689.784045 129145.409078 
L 689.784045 129145.409078 
L 673.220037 129145.409078 
L 673.220037 129145.409078 
L 656.65603 129145.409078 
L 656.65603 129145.409078 
L 640.092022 129145.409078 
L 640.092022 129145.409078 
L 623.528015 129145.409078 
L 623.528015 129145.409078 
L 606.964007 129145.409078 
L 606.964007 129145.409078 
L 590.4 129145.409078 
L 590.4 129145.409078 
L 573.835993 129145.409078 
L 573.835993 129145.409078 
L 557.271985 129145.409078 
L 557.271985 129145.409078 
L 540.707978 129145.409078 
L 540.707978 129145.409078 
L 524.14397 129145.409078 
L 524.14397 129145.409078 
L 507.579963 129145.409078 
L 507.579963 129145.409078 
L 491.015955 129145.409078 
L 491.015955 129145.409078 
L 474.451948 129145.409078 
L 474.451948 129145.409078 
L 457.887941 129145.409078 
L 457.887941 129145.409078 
L 441.323933 129145.409078 
L 441.323933 129145.409078 
L 424.759926 129145.409078 
L 424.759926 129145.409078 
L 408.195918 129145.409078 
L 408.195918 129145.409078 
L 391.631911 129145.409078 
L 391.631911 129145.409078 
L 375.067904 129145.409078 
L 375.067904 129145.409078 
L 358.503896 129145.409078 
L 358.503896 129145.409078 
L 341.939889 129145.409078 
L 341.939889 129145.409078 
L 325.375881 129145.409078 
L 325.375881 129145.409078 
L 308.811874 129145.409078 
L 308.811874 129145.409078 
L 292.247866 129145.409078 
L 292.247866 129145.409078 
L 275.683859 129145.409078 
L 275.683859 129145.409078 
L 259.119852 129145.409078 
L 259.119852 129145.409078 
L 242.555844 129145.409078 
L 242.555844 129145.409078 
L 225.991837 129145.409078 
L 225.991837 129145.409078 
L 209.427829 129145.409078 
L 209.427829 129145.409078 
L 192.863822 129145.409078 
L 192.863822 129145.409078 
L 184.581818 129145.409078 
L 184.581818 129145.409078 
L 184.581818 129145.409078 
z
" style="fill:#f0e68c;fill-opacity:0.3;stroke:#f0e68c;stroke-opacity:0.3;"/>
   </g>
   <g id="matplotlib.axis_1">
    <g id="xtick_1">
     <g id="line2d_1">
      <defs>
       <path d="M 0 0 
L 0 3.5 
" id="m2ce0dba785" style="stroke:#000000;stroke-width:0.8;"/>
      </defs>
      <g>
       <use style="stroke:#000000;stroke-width:0.8;" x="176.299814" xlink:href="#m2ce0dba785" y="567"/>
      </g>
     </g>
     <g id="text_1">
      <!-- 0.0 -->
      <g transform="translate(152.445127 596.795313)scale(0.3 -0.3)">
       <defs>
        <path d="M 2034 4250 
Q 1547 4250 1301 3770 
Q 1056 3291 1056 2328 
Q 1056 1369 1301 889 
Q 1547 409 2034 409 
Q 2525 409 2770 889 
Q 3016 1369 3016 2328 
Q 3016 3291 2770 3770 
Q 2525 4250 2034 4250 
z
M 2034 4750 
Q 2819 4750 3233 4129 
Q 3647 3509 3647 2328 
Q 3647 1150 3233 529 
Q 2819 -91 2034 -91 
Q 1250 -91 836 529 
Q 422 1150 422 2328 
Q 422 3509 836 4129 
Q 1250 4750 2034 4750 
z
" id="DejaVuSans-30" transform="scale(0.015625)"/>
        <path d="M 684 794 
L 1344 794 
L 1344 0 
L 684 0 
L 684 794 
z
" id="DejaVuSans-2e" transform="scale(0.015625)"/>
       </defs>
       <use xlink:href="#DejaVuSans-30"/>
       <use x="63.623047" xlink:href="#DejaVuSans-2e"/>
       <use x="95.410156" xlink:href="#DejaVuSans-30"/>
      </g>
     </g>
    </g>
    <g id="xtick_2">
     <g id="line2d_2">
      <g>
       <use style="stroke:#000000;stroke-width:0.8;" x="341.939889" xlink:href="#m2ce0dba785" y="567"/>
      </g>
     </g>
     <g id="text_2">
      <!-- 0.2 -->
      <g transform="translate(318.085201 596.795313)scale(0.3 -0.3)">
       <defs>
        <path d="M 1228 531 
L 3431 531 
L 3431 0 
L 469 0 
L 469 531 
Q 828 903 1448 1529 
Q 2069 2156 2228 2338 
Q 2531 2678 2651 2914 
Q 2772 3150 2772 3378 
Q 2772 3750 2511 3984 
Q 2250 4219 1831 4219 
Q 1534 4219 1204 4116 
Q 875 4013 500 3803 
L 500 4441 
Q 881 4594 1212 4672 
Q 1544 4750 1819 4750 
Q 2544 4750 2975 4387 
Q 3406 4025 3406 3419 
Q 3406 3131 3298 2873 
Q 3191 2616 2906 2266 
Q 2828 2175 2409 1742 
Q 1991 1309 1228 531 
z
" id="DejaVuSans-32" transform="scale(0.015625)"/>
       </defs>
       <use xlink:href="#DejaVuSans-30"/>
       <use x="63.623047" xlink:href="#DejaVuSans-2e"/>
       <use x="95.410156" xlink:href="#DejaVuSans-32"/>
      </g>
     </g>
    </g>
    <g id="xtick_3">
     <g id="line2d_3">
      <g>
       <use style="stroke:#000000;stroke-width:0.8;" x="507.579963" xlink:href="#m2ce0dba785" y="567"/>
      </g>
     </g>
     <g id="text_3">
      <!-- 0.4 -->
      <g transform="translate(483.725275 596.795313)scale(0.3 -0.3)">
       <defs>
        <path d="M 2419 4116 
L 825 1625 
L 2419 1625 
L 2419 4116 
z
M 2253 4666 
L 3047 4666 
L 3047 1625 
L 3713 1625 
L 3713 1100 
L 3047 1100 
L 3047 0 
L 2419 0 
L 2419 1100 
L 313 1100 
L 313 1709 
L 2253 4666 
z
" id="DejaVuSans-34" transform="scale(0.015625)"/>
       </defs>
       <use xlink:href="#DejaVuSans-30"/>
       <use x="63.623047" xlink:href="#DejaVuSans-2e"/>
       <use x="95.410156" xlink:href="#DejaVuSans-34"/>
      </g>
     </g>
    </g>
    <g id="xtick_4">
     <g id="line2d_4">
      <g>
       <use style="stroke:#000000;stroke-width:0.8;" x="673.220037" xlink:href="#m2ce0dba785" y="567"/>
      </g>
     </g>
     <g id="text_4">
      <!-- 0.6 -->
      <g transform="translate(649.36535 596.795313)scale(0.3 -0.3)">
       <defs>
        <path d="M 2113 2584 
Q 1688 2584 1439 2293 
Q 1191 2003 1191 1497 
Q 1191 994 1439 701 
Q 1688 409 2113 409 
Q 2538 409 2786 701 
Q 3034 994 3034 1497 
Q 3034 2003 2786 2293 
Q 2538 2584 2113 2584 
z
M 3366 4563 
L 3366 3988 
Q 3128 4100 2886 4159 
Q 2644 4219 2406 4219 
Q 1781 4219 1451 3797 
Q 1122 3375 1075 2522 
Q 1259 2794 1537 2939 
Q 1816 3084 2150 3084 
Q 2853 3084 3261 2657 
Q 3669 2231 3669 1497 
Q 3669 778 3244 343 
Q 2819 -91 2113 -91 
Q 1303 -91 875 529 
Q 447 1150 447 2328 
Q 447 3434 972 4092 
Q 1497 4750 2381 4750 
Q 2619 4750 2861 4703 
Q 3103 4656 3366 4563 
z
" id="DejaVuSans-36" transform="scale(0.015625)"/>
       </defs>
       <use xlink:href="#DejaVuSans-30"/>
       <use x="63.623047" xlink:href="#DejaVuSans-2e"/>
       <use x="95.410156" xlink:href="#DejaVuSans-36"/>
      </g>
     </g>
    </g>
    <g id="xtick_5">
     <g id="line2d_5">
      <g>
       <use style="stroke:#000000;stroke-width:0.8;" x="838.860111" xlink:href="#m2ce0dba785" y="567"/>
      </g>
     </g>
     <g id="text_5">
      <!-- 0.8 -->
      <g transform="translate(815.005424 596.795313)scale(0.3 -0.3)">
       <defs>
        <path d="M 2034 2216 
Q 1584 2216 1326 1975 
Q 1069 1734 1069 1313 
Q 1069 891 1326 650 
Q 1584 409 2034 409 
Q 2484 409 2743 651 
Q 3003 894 3003 1313 
Q 3003 1734 2745 1975 
Q 2488 2216 2034 2216 
z
M 1403 2484 
Q 997 2584 770 2862 
Q 544 3141 544 3541 
Q 544 4100 942 4425 
Q 1341 4750 2034 4750 
Q 2731 4750 3128 4425 
Q 3525 4100 3525 3541 
Q 3525 3141 3298 2862 
Q 3072 2584 2669 2484 
Q 3125 2378 3379 2068 
Q 3634 1759 3634 1313 
Q 3634 634 3220 271 
Q 2806 -91 2034 -91 
Q 1263 -91 848 271 
Q 434 634 434 1313 
Q 434 1759 690 2068 
Q 947 2378 1403 2484 
z
M 1172 3481 
Q 1172 3119 1398 2916 
Q 1625 2713 2034 2713 
Q 2441 2713 2670 2916 
Q 2900 3119 2900 3481 
Q 2900 3844 2670 4047 
Q 2441 4250 2034 4250 
Q 1625 4250 1398 4047 
Q 1172 3844 1172 3481 
z
" id="DejaVuSans-38" transform="scale(0.015625)"/>
       </defs>
       <use xlink:href="#DejaVuSans-30"/>
       <use x="63.623047" xlink:href="#DejaVuSans-2e"/>
       <use x="95.410156" xlink:href="#DejaVuSans-38"/>
      </g>
     </g>
    </g>
    <g id="xtick_6">
     <g id="line2d_6">
      <g>
       <use style="stroke:#000000;stroke-width:0.8;" x="1004.500186" xlink:href="#m2ce0dba785" y="567"/>
      </g>
     </g>
     <g id="text_6">
      <!-- 1.0 -->
      <g transform="translate(980.645498 596.795313)scale(0.3 -0.3)">
       <defs>
        <path d="M 794 531 
L 1825 531 
L 1825 4091 
L 703 3866 
L 703 4441 
L 1819 4666 
L 2450 4666 
L 2450 531 
L 3481 531 
L 3481 0 
L 794 0 
L 794 531 
z
" id="DejaVuSans-31" transform="scale(0.015625)"/>
       </defs>
       <use xlink:href="#DejaVuSans-31"/>
       <use x="63.623047" xlink:href="#DejaVuSans-2e"/>
       <use x="95.410156" xlink:href="#DejaVuSans-30"/>
      </g>
     </g>
    </g>
    <g id="text_7">
     <!-- Layer 1 Sparsity -->
     <g transform="translate(468.353906 629.829687)scale(0.3 -0.3)">
      <defs>
       <path d="M 628 4666 
L 1259 4666 
L 1259 531 
L 3531 531 
L 3531 0 
L 628 0 
L 628 4666 
z
" id="DejaVuSans-4c" transform="scale(0.015625)"/>
       <path d="M 2194 1759 
Q 1497 1759 1228 1600 
Q 959 1441 959 1056 
Q 959 750 1161 570 
Q 1363 391 1709 391 
Q 2188 391 2477 730 
Q 2766 1069 2766 1631 
L 2766 1759 
L 2194 1759 
z
M 3341 1997 
L 3341 0 
L 2766 0 
L 2766 531 
Q 2569 213 2275 61 
Q 1981 -91 1556 -91 
Q 1019 -91 701 211 
Q 384 513 384 1019 
Q 384 1609 779 1909 
Q 1175 2209 1959 2209 
L 2766 2209 
L 2766 2266 
Q 2766 2663 2505 2880 
Q 2244 3097 1772 3097 
Q 1472 3097 1187 3025 
Q 903 2953 641 2809 
L 641 3341 
Q 956 3463 1253 3523 
Q 1550 3584 1831 3584 
Q 2591 3584 2966 3190 
Q 3341 2797 3341 1997 
z
" id="DejaVuSans-61" transform="scale(0.015625)"/>
       <path d="M 2059 -325 
Q 1816 -950 1584 -1140 
Q 1353 -1331 966 -1331 
L 506 -1331 
L 506 -850 
L 844 -850 
Q 1081 -850 1212 -737 
Q 1344 -625 1503 -206 
L 1606 56 
L 191 3500 
L 800 3500 
L 1894 763 
L 2988 3500 
L 3597 3500 
L 2059 -325 
z
" id="DejaVuSans-79" transform="scale(0.015625)"/>
       <path d="M 3597 1894 
L 3597 1613 
L 953 1613 
Q 991 1019 1311 708 
Q 1631 397 2203 397 
Q 2534 397 2845 478 
Q 3156 559 3463 722 
L 3463 178 
Q 3153 47 2828 -22 
Q 2503 -91 2169 -91 
Q 1331 -91 842 396 
Q 353 884 353 1716 
Q 353 2575 817 3079 
Q 1281 3584 2069 3584 
Q 2775 3584 3186 3129 
Q 3597 2675 3597 1894 
z
M 3022 2063 
Q 3016 2534 2758 2815 
Q 2500 3097 2075 3097 
Q 1594 3097 1305 2825 
Q 1016 2553 972 2059 
L 3022 2063 
z
" id="DejaVuSans-65" transform="scale(0.015625)"/>
       <path d="M 2631 2963 
Q 2534 3019 2420 3045 
Q 2306 3072 2169 3072 
Q 1681 3072 1420 2755 
Q 1159 2438 1159 1844 
L 1159 0 
L 581 0 
L 581 3500 
L 1159 3500 
L 1159 2956 
Q 1341 3275 1631 3429 
Q 1922 3584 2338 3584 
Q 2397 3584 2469 3576 
Q 2541 3569 2628 3553 
L 2631 2963 
z
" id="DejaVuSans-72" transform="scale(0.015625)"/>
       <path id="DejaVuSans-20" transform="scale(0.015625)"/>
       <path d="M 3425 4513 
L 3425 3897 
Q 3066 4069 2747 4153 
Q 2428 4238 2131 4238 
Q 1616 4238 1336 4038 
Q 1056 3838 1056 3469 
Q 1056 3159 1242 3001 
Q 1428 2844 1947 2747 
L 2328 2669 
Q 3034 2534 3370 2195 
Q 3706 1856 3706 1288 
Q 3706 609 3251 259 
Q 2797 -91 1919 -91 
Q 1588 -91 1214 -16 
Q 841 59 441 206 
L 441 856 
Q 825 641 1194 531 
Q 1563 422 1919 422 
Q 2459 422 2753 634 
Q 3047 847 3047 1241 
Q 3047 1584 2836 1778 
Q 2625 1972 2144 2069 
L 1759 2144 
Q 1053 2284 737 2584 
Q 422 2884 422 3419 
Q 422 4038 858 4394 
Q 1294 4750 2059 4750 
Q 2388 4750 2728 4690 
Q 3069 4631 3425 4513 
z
" id="DejaVuSans-53" transform="scale(0.015625)"/>
       <path d="M 1159 525 
L 1159 -1331 
L 581 -1331 
L 581 3500 
L 1159 3500 
L 1159 2969 
Q 1341 3281 1617 3432 
Q 1894 3584 2278 3584 
Q 2916 3584 3314 3078 
Q 3713 2572 3713 1747 
Q 3713 922 3314 415 
Q 2916 -91 2278 -91 
Q 1894 -91 1617 61 
Q 1341 213 1159 525 
z
M 3116 1747 
Q 3116 2381 2855 2742 
Q 2594 3103 2138 3103 
Q 1681 3103 1420 2742 
Q 1159 2381 1159 1747 
Q 1159 1113 1420 752 
Q 1681 391 2138 391 
Q 2594 391 2855 752 
Q 3116 1113 3116 1747 
z
" id="DejaVuSans-70" transform="scale(0.015625)"/>
       <path d="M 2834 3397 
L 2834 2853 
Q 2591 2978 2328 3040 
Q 2066 3103 1784 3103 
Q 1356 3103 1142 2972 
Q 928 2841 928 2578 
Q 928 2378 1081 2264 
Q 1234 2150 1697 2047 
L 1894 2003 
Q 2506 1872 2764 1633 
Q 3022 1394 3022 966 
Q 3022 478 2636 193 
Q 2250 -91 1575 -91 
Q 1294 -91 989 -36 
Q 684 19 347 128 
L 347 722 
Q 666 556 975 473 
Q 1284 391 1588 391 
Q 1994 391 2212 530 
Q 2431 669 2431 922 
Q 2431 1156 2273 1281 
Q 2116 1406 1581 1522 
L 1381 1569 
Q 847 1681 609 1914 
Q 372 2147 372 2553 
Q 372 3047 722 3315 
Q 1072 3584 1716 3584 
Q 2034 3584 2315 3537 
Q 2597 3491 2834 3397 
z
" id="DejaVuSans-73" transform="scale(0.015625)"/>
       <path d="M 603 3500 
L 1178 3500 
L 1178 0 
L 603 0 
L 603 3500 
z
M 603 4863 
L 1178 4863 
L 1178 4134 
L 603 4134 
L 603 4863 
z
" id="DejaVuSans-69" transform="scale(0.015625)"/>
       <path d="M 1172 4494 
L 1172 3500 
L 2356 3500 
L 2356 3053 
L 1172 3053 
L 1172 1153 
Q 1172 725 1289 603 
Q 1406 481 1766 481 
L 2356 481 
L 2356 0 
L 1766 0 
Q 1100 0 847 248 
Q 594 497 594 1153 
L 594 3053 
L 172 3053 
L 172 3500 
L 594 3500 
L 594 4494 
L 1172 4494 
z
" id="DejaVuSans-74" transform="scale(0.015625)"/>
      </defs>
      <use xlink:href="#DejaVuSans-4c"/>
      <use x="55.712891" xlink:href="#DejaVuSans-61"/>
      <use x="116.992188" xlink:href="#DejaVuSans-79"/>
      <use x="176.171875" xlink:href="#DejaVuSans-65"/>
      <use x="237.695312" xlink:href="#DejaVuSans-72"/>
      <use x="278.808594" xlink:href="#DejaVuSans-20"/>
      <use x="310.595703" xlink:href="#DejaVuSans-31"/>
      <use x="374.21875" xlink:href="#DejaVuSans-20"/>
      <use x="406.005859" xlink:href="#DejaVuSans-53"/>
      <use x="469.482422" xlink:href="#DejaVuSans-70"/>
      <use x="532.958984" xlink:href="#DejaVuSans-61"/>
      <use x="594.238281" xlink:href="#DejaVuSans-72"/>
      <use x="635.351562" xlink:href="#DejaVuSans-73"/>
      <use x="687.451172" xlink:href="#DejaVuSans-69"/>
      <use x="715.234375" xlink:href="#DejaVuSans-74"/>
      <use x="754.443359" xlink:href="#DejaVuSans-79"/>
     </g>
    </g>
   </g>
   <g id="matplotlib.axis_2">
    <g id="ytick_1">
     <g id="line2d_7">
      <defs>
       <path d="M 0 0 
L -3.5 0 
" id="m88d36c5f15" style="stroke:#000000;stroke-width:0.8;"/>
      </defs>
      <g>
       <use style="stroke:#000000;stroke-width:0.8;" x="144" xlink:href="#m88d36c5f15" y="544.761818"/>
      </g>
     </g>
     <g id="text_8">
      <!-- $\mathdefault{10^{0}}$ -->
      <g transform="translate(84.2 556.159474)scale(0.3 -0.3)">
       <use transform="translate(0 0.765625)" xlink:href="#DejaVuSans-31"/>
       <use transform="translate(63.623047 0.765625)" xlink:href="#DejaVuSans-30"/>
       <use transform="translate(128.203125 39.046875)scale(0.7)" xlink:href="#DejaVuSans-30"/>
      </g>
     </g>
    </g>
    <g id="ytick_2">
     <g id="line2d_8">
      <g>
       <use style="stroke:#000000;stroke-width:0.8;" x="144" xlink:href="#m88d36c5f15" y="416.161171"/>
      </g>
     </g>
     <g id="text_9">
      <!-- $\mathdefault{10^{1}}$ -->
      <g transform="translate(84.2 427.558827)scale(0.3 -0.3)">
       <use transform="translate(0 0.684375)" xlink:href="#DejaVuSans-31"/>
       <use transform="translate(63.623047 0.684375)" xlink:href="#DejaVuSans-30"/>
       <use transform="translate(128.203125 38.965625)scale(0.7)" xlink:href="#DejaVuSans-31"/>
      </g>
     </g>
    </g>
    <g id="ytick_3">
     <g id="line2d_9">
      <g>
       <use style="stroke:#000000;stroke-width:0.8;" x="144" xlink:href="#m88d36c5f15" y="287.560524"/>
      </g>
     </g>
     <g id="text_10">
      <!-- $\mathdefault{10^{2}}$ -->
      <g transform="translate(84.2 298.95818)scale(0.3 -0.3)">
       <use transform="translate(0 0.765625)" xlink:href="#DejaVuSans-31"/>
       <use transform="translate(63.623047 0.765625)" xlink:href="#DejaVuSans-30"/>
       <use transform="translate(128.203125 39.046875)scale(0.7)" xlink:href="#DejaVuSans-32"/>
      </g>
     </g>
    </g>
    <g id="ytick_4">
     <g id="line2d_10">
      <g>
       <use style="stroke:#000000;stroke-width:0.8;" x="144" xlink:href="#m88d36c5f15" y="158.959876"/>
      </g>
     </g>
     <g id="text_11">
      <!-- $\mathdefault{10^{3}}$ -->
      <g transform="translate(84.2 170.357533)scale(0.3 -0.3)">
       <defs>
        <path d="M 2597 2516 
Q 3050 2419 3304 2112 
Q 3559 1806 3559 1356 
Q 3559 666 3084 287 
Q 2609 -91 1734 -91 
Q 1441 -91 1130 -33 
Q 819 25 488 141 
L 488 750 
Q 750 597 1062 519 
Q 1375 441 1716 441 
Q 2309 441 2620 675 
Q 2931 909 2931 1356 
Q 2931 1769 2642 2001 
Q 2353 2234 1838 2234 
L 1294 2234 
L 1294 2753 
L 1863 2753 
Q 2328 2753 2575 2939 
Q 2822 3125 2822 3475 
Q 2822 3834 2567 4026 
Q 2313 4219 1838 4219 
Q 1578 4219 1281 4162 
Q 984 4106 628 3988 
L 628 4550 
Q 988 4650 1302 4700 
Q 1616 4750 1894 4750 
Q 2613 4750 3031 4423 
Q 3450 4097 3450 3541 
Q 3450 3153 3228 2886 
Q 3006 2619 2597 2516 
z
" id="DejaVuSans-33" transform="scale(0.015625)"/>
       </defs>
       <use transform="translate(0 0.765625)" xlink:href="#DejaVuSans-31"/>
       <use transform="translate(63.623047 0.765625)" xlink:href="#DejaVuSans-30"/>
       <use transform="translate(128.203125 39.046875)scale(0.7)" xlink:href="#DejaVuSans-33"/>
      </g>
     </g>
    </g>
    <g id="ytick_5">
     <g id="line2d_11">
      <defs>
       <path d="M 0 0 
L -2 0 
" id="mc747968cb9" style="stroke:#000000;stroke-width:0.6;"/>
      </defs>
      <g>
       <use style="stroke:#000000;stroke-width:0.6;" x="144" xlink:href="#mc747968cb9" y="564.68231"/>
      </g>
     </g>
    </g>
    <g id="ytick_6">
     <g id="line2d_12">
      <g>
       <use style="stroke:#000000;stroke-width:0.6;" x="144" xlink:href="#mc747968cb9" y="557.224509"/>
      </g>
     </g>
    </g>
    <g id="ytick_7">
     <g id="line2d_13">
      <g>
       <use style="stroke:#000000;stroke-width:0.6;" x="144" xlink:href="#mc747968cb9" y="550.646261"/>
      </g>
     </g>
    </g>
    <g id="ytick_8">
     <g id="line2d_14">
      <g>
       <use style="stroke:#000000;stroke-width:0.6;" x="144" xlink:href="#mc747968cb9" y="506.049166"/>
      </g>
     </g>
    </g>
    <g id="ytick_9">
     <g id="line2d_15">
      <g>
       <use style="stroke:#000000;stroke-width:0.6;" x="144" xlink:href="#mc747968cb9" y="483.403716"/>
      </g>
     </g>
    </g>
    <g id="ytick_10">
     <g id="line2d_16">
      <g>
       <use style="stroke:#000000;stroke-width:0.6;" x="144" xlink:href="#mc747968cb9" y="467.336514"/>
      </g>
     </g>
    </g>
    <g id="ytick_11">
     <g id="line2d_17">
      <g>
       <use style="stroke:#000000;stroke-width:0.6;" x="144" xlink:href="#mc747968cb9" y="454.873823"/>
      </g>
     </g>
    </g>
    <g id="ytick_12">
     <g id="line2d_18">
      <g>
       <use style="stroke:#000000;stroke-width:0.6;" x="144" xlink:href="#mc747968cb9" y="444.691064"/>
      </g>
     </g>
    </g>
    <g id="ytick_13">
     <g id="line2d_19">
      <g>
       <use style="stroke:#000000;stroke-width:0.6;" x="144" xlink:href="#mc747968cb9" y="436.081663"/>
      </g>
     </g>
    </g>
    <g id="ytick_14">
     <g id="line2d_20">
      <g>
       <use style="stroke:#000000;stroke-width:0.6;" x="144" xlink:href="#mc747968cb9" y="428.623861"/>
      </g>
     </g>
    </g>
    <g id="ytick_15">
     <g id="line2d_21">
      <g>
       <use style="stroke:#000000;stroke-width:0.6;" x="144" xlink:href="#mc747968cb9" y="422.045614"/>
      </g>
     </g>
    </g>
    <g id="ytick_16">
     <g id="line2d_22">
      <g>
       <use style="stroke:#000000;stroke-width:0.6;" x="144" xlink:href="#mc747968cb9" y="377.448519"/>
      </g>
     </g>
    </g>
    <g id="ytick_17">
     <g id="line2d_23">
      <g>
       <use style="stroke:#000000;stroke-width:0.6;" x="144" xlink:href="#mc747968cb9" y="354.803069"/>
      </g>
     </g>
    </g>
    <g id="ytick_18">
     <g id="line2d_24">
      <g>
       <use style="stroke:#000000;stroke-width:0.6;" x="144" xlink:href="#mc747968cb9" y="338.735866"/>
      </g>
     </g>
    </g>
    <g id="ytick_19">
     <g id="line2d_25">
      <g>
       <use style="stroke:#000000;stroke-width:0.6;" x="144" xlink:href="#mc747968cb9" y="326.273176"/>
      </g>
     </g>
    </g>
    <g id="ytick_20">
     <g id="line2d_26">
      <g>
       <use style="stroke:#000000;stroke-width:0.6;" x="144" xlink:href="#mc747968cb9" y="316.090416"/>
      </g>
     </g>
    </g>
    <g id="ytick_21">
     <g id="line2d_27">
      <g>
       <use style="stroke:#000000;stroke-width:0.6;" x="144" xlink:href="#mc747968cb9" y="307.481016"/>
      </g>
     </g>
    </g>
    <g id="ytick_22">
     <g id="line2d_28">
      <g>
       <use style="stroke:#000000;stroke-width:0.6;" x="144" xlink:href="#mc747968cb9" y="300.023214"/>
      </g>
     </g>
    </g>
    <g id="ytick_23">
     <g id="line2d_29">
      <g>
       <use style="stroke:#000000;stroke-width:0.6;" x="144" xlink:href="#mc747968cb9" y="293.444967"/>
      </g>
     </g>
    </g>
    <g id="ytick_24">
     <g id="line2d_30">
      <g>
       <use style="stroke:#000000;stroke-width:0.6;" x="144" xlink:href="#mc747968cb9" y="248.847871"/>
      </g>
     </g>
    </g>
    <g id="ytick_25">
     <g id="line2d_31">
      <g>
       <use style="stroke:#000000;stroke-width:0.6;" x="144" xlink:href="#mc747968cb9" y="226.202421"/>
      </g>
     </g>
    </g>
    <g id="ytick_26">
     <g id="line2d_32">
      <g>
       <use style="stroke:#000000;stroke-width:0.6;" x="144" xlink:href="#mc747968cb9" y="210.135219"/>
      </g>
     </g>
    </g>
    <g id="ytick_27">
     <g id="line2d_33">
      <g>
       <use style="stroke:#000000;stroke-width:0.6;" x="144" xlink:href="#mc747968cb9" y="197.672529"/>
      </g>
     </g>
    </g>
    <g id="ytick_28">
     <g id="line2d_34">
      <g>
       <use style="stroke:#000000;stroke-width:0.6;" x="144" xlink:href="#mc747968cb9" y="187.489769"/>
      </g>
     </g>
    </g>
    <g id="ytick_29">
     <g id="line2d_35">
      <g>
       <use style="stroke:#000000;stroke-width:0.6;" x="144" xlink:href="#mc747968cb9" y="178.880369"/>
      </g>
     </g>
    </g>
    <g id="ytick_30">
     <g id="line2d_36">
      <g>
       <use style="stroke:#000000;stroke-width:0.6;" x="144" xlink:href="#mc747968cb9" y="171.422567"/>
      </g>
     </g>
    </g>
    <g id="ytick_31">
     <g id="line2d_37">
      <g>
       <use style="stroke:#000000;stroke-width:0.6;" x="144" xlink:href="#mc747968cb9" y="164.844319"/>
      </g>
     </g>
    </g>
    <g id="ytick_32">
     <g id="line2d_38">
      <g>
       <use style="stroke:#000000;stroke-width:0.6;" x="144" xlink:href="#mc747968cb9" y="120.247224"/>
      </g>
     </g>
    </g>
    <g id="ytick_33">
     <g id="line2d_39">
      <g>
       <use style="stroke:#000000;stroke-width:0.6;" x="144" xlink:href="#mc747968cb9" y="97.601774"/>
      </g>
     </g>
    </g>
    <g id="ytick_34">
     <g id="line2d_40">
      <g>
       <use style="stroke:#000000;stroke-width:0.6;" x="144" xlink:href="#mc747968cb9" y="81.534572"/>
      </g>
     </g>
    </g>
    <g id="text_12">
     <!-- Events -->
     <g transform="translate(73.960938 373.166719)rotate(-90)scale(0.3 -0.3)">
      <defs>
       <path d="M 628 4666 
L 3578 4666 
L 3578 4134 
L 1259 4134 
L 1259 2753 
L 3481 2753 
L 3481 2222 
L 1259 2222 
L 1259 531 
L 3634 531 
L 3634 0 
L 628 0 
L 628 4666 
z
" id="DejaVuSans-45" transform="scale(0.015625)"/>
       <path d="M 191 3500 
L 800 3500 
L 1894 563 
L 2988 3500 
L 3597 3500 
L 2284 0 
L 1503 0 
L 191 3500 
z
" id="DejaVuSans-76" transform="scale(0.015625)"/>
       <path d="M 3513 2113 
L 3513 0 
L 2938 0 
L 2938 2094 
Q 2938 2591 2744 2837 
Q 2550 3084 2163 3084 
Q 1697 3084 1428 2787 
Q 1159 2491 1159 1978 
L 1159 0 
L 581 0 
L 581 3500 
L 1159 3500 
L 1159 2956 
Q 1366 3272 1645 3428 
Q 1925 3584 2291 3584 
Q 2894 3584 3203 3211 
Q 3513 2838 3513 2113 
z
" id="DejaVuSans-6e" transform="scale(0.015625)"/>
      </defs>
      <use xlink:href="#DejaVuSans-45"/>
      <use x="63.183594" xlink:href="#DejaVuSans-76"/>
      <use x="122.363281" xlink:href="#DejaVuSans-65"/>
      <use x="183.886719" xlink:href="#DejaVuSans-6e"/>
      <use x="247.265625" xlink:href="#DejaVuSans-74"/>
      <use x="286.474609" xlink:href="#DejaVuSans-73"/>
     </g>
    </g>
   </g>
   <g id="line2d_41">
    <path clip-path="url(#p5546ba9275)" d="M 184.581818 649 
L 184.581818 544.761818 
L 192.863822 544.761818 
L 192.863822 467.336514 
L 209.427829 467.336514 
L 209.427829 649 
M 225.991837 649 
L 225.991837 444.691064 
L 242.555844 444.691064 
L 242.555844 422.045614 
L 259.119852 422.045614 
L 259.119852 422.045614 
L 275.683859 422.045614 
L 275.683859 386.52529 
L 292.247866 386.52529 
L 292.247866 358.656359 
L 308.811874 358.656359 
L 308.811874 389.911209 
L 325.375881 389.911209 
L 325.375881 380.313277 
L 341.939889 380.313277 
L 341.939889 383.332962 
L 358.503896 383.332962 
L 358.503896 358.656359 
L 375.067904 358.656359 
L 375.067904 334.696718 
L 391.631911 334.696718 
L 391.631911 358.656359 
L 408.195918 358.656359 
L 408.195918 356.696489 
L 424.759926 356.696489 
L 424.759926 364.985828 
L 441.323933 364.985828 
L 441.323933 362.79533 
L 457.887941 362.79533 
L 457.887941 356.696489 
L 474.451948 356.696489 
L 474.451948 324.082677 
L 491.015955 324.082677 
L 491.015955 317.983837 
L 507.579963 317.983837 
L 507.579963 307.481016 
L 524.14397 307.481016 
L 524.14397 330.930085 
L 540.707978 330.930085 
L 540.707978 308.284635 
L 557.271985 308.284635 
L 557.271985 300.725746 
L 573.835993 300.725746 
L 573.835993 312.485904 
L 590.4 312.485904 
L 590.4 292.827827 
L 606.964007 292.827827 
L 606.964007 284.306173 
L 623.528015 284.306173 
L 623.528015 278.791778 
L 640.092022 278.791778 
L 640.092022 275.546434 
L 656.65603 275.546434 
L 656.65603 270.387334 
L 673.220037 270.387334 
L 673.220037 265.664757 
L 689.784045 265.664757 
L 689.784045 259.591948 
L 706.348052 259.591948 
L 706.348052 260.27306 
L 722.912059 260.27306 
L 722.912059 269.571983 
L 739.476067 269.571983 
L 739.476067 246.657373 
L 756.040074 246.657373 
L 756.040074 245.069099 
L 772.604082 245.069099 
L 772.604082 233.13083 
L 789.168089 233.13083 
L 789.168089 222.423649 
L 805.732096 222.423649 
L 805.732096 212.41515 
L 822.296104 212.41515 
L 822.296104 204.558802 
L 838.860111 204.558802 
L 838.860111 198.459961 
L 855.424119 198.459961 
L 855.424119 211.263551 
L 871.988126 211.263551 
L 871.988126 180.008701 
L 888.552134 180.008701 
L 888.552134 171.6324 
L 905.116141 171.6324 
L 905.116141 148.591258 
L 921.680148 148.591258 
L 921.680148 134.953496 
L 938.244156 134.953496 
L 938.244156 152.83023 
L 954.808163 152.83023 
L 954.808163 244.0348 
L 971.372171 244.0348 
L 971.372171 506.049166 
L 987.936178 506.049166 
L 987.936178 649 
" style="fill:none;stroke:#800080;stroke-linecap:square;stroke-width:3;"/>
   </g>
   <g id="line2d_42">
    <path clip-path="url(#p5546ba9275)" d="M 225.991837 649 
L 225.991837 544.761818 
L 242.555844 544.761818 
L 242.555844 506.049166 
L 259.119852 506.049166 
L 259.119852 416.161171 
L 275.683859 416.161171 
L 275.683859 397.369011 
L 292.247866 397.369011 
L 292.247866 377.448519 
L 308.811874 377.448519 
L 308.811874 410.838045 
L 325.375881 410.838045 
L 325.375881 367.265759 
L 341.939889 367.265759 
L 341.939889 360.687512 
L 358.503896 360.687512 
L 358.503896 347.812638 
L 375.067904 347.812638 
L 375.067904 346.193668 
L 391.631911 346.193668 
L 391.631911 338.735866 
L 408.195918 338.735866 
L 408.195918 347.812638 
L 424.759926 347.812638 
L 424.759926 362.79533 
L 441.323933 362.79533 
L 441.323933 358.656359 
L 457.887941 358.656359 
L 457.887941 340.14988 
L 474.451948 340.14988 
L 474.451948 329.728951 
L 491.015955 329.728951 
L 491.015955 319.943706 
L 507.579963 319.943706 
L 507.579963 313.365459 
L 524.14397 313.365459 
L 524.14397 313.365459 
L 540.707978 313.365459 
L 540.707978 321.974859 
L 557.271985 321.974859 
L 557.271985 292.217433 
L 573.835993 292.217433 
L 573.835993 315.167246 
L 590.4 315.167246 
L 590.4 288.688856 
L 606.964007 288.688856 
L 606.964007 287.560524 
L 623.528015 287.560524 
L 623.528015 281.231054 
L 640.092022 281.231054 
L 640.092022 275.097833 
L 656.65603 275.097833 
L 656.65603 266.808494 
L 673.220037 266.808494 
L 673.220037 264.543972 
L 689.784045 264.543972 
L 689.784045 259.591948 
L 706.348052 259.591948 
L 706.348052 254.732314 
L 722.912059 254.732314 
L 722.912059 278.316451 
L 739.476067 278.316451 
L 739.476067 239.603799 
L 756.040074 239.603799 
L 756.040074 236.385181 
L 772.604082 236.385181 
L 772.604082 222.948071 
L 789.168089 222.948071 
L 789.168089 208.484344 
L 805.732096 208.484344 
L 805.732096 202.572795 
L 822.296104 202.572795 
L 822.296104 191.542882 
L 838.860111 191.542882 
L 838.860111 185.388847 
L 855.424119 185.388847 
L 855.424119 196.566541 
L 871.988126 196.566541 
L 871.988126 164.720345 
L 888.552134 164.720345 
L 888.552134 141.86888 
L 905.116141 141.86888 
L 905.116141 133.731492 
L 921.680148 133.731492 
L 921.680148 161.942339 
L 938.244156 161.942339 
L 938.244156 276.914271 
L 954.808163 276.914271 
L 954.808163 649 
" style="fill:none;stroke:#0000ff;stroke-linecap:square;stroke-width:3;"/>
   </g>
   <g id="line2d_43">
    <path clip-path="url(#p5546ba9275)" d="M 184.581818 649 
L 184.581818 372.125393 
L 192.863822 372.125393 
L 192.863822 102.218226 
L 209.427829 102.218226 
L 209.427829 233.980285 
L 225.991837 233.980285 
L 225.991837 287.004792 
L 242.555844 287.004792 
L 242.555844 292.827827 
L 259.119852 292.827827 
L 259.119852 312.485904 
L 275.683859 312.485904 
L 275.683859 346.193668 
L 292.247866 346.193668 
L 292.247866 338.735866 
L 308.811874 338.735866 
L 308.811874 374.723561 
L 325.375881 374.723561 
L 325.375881 358.656359 
L 341.939889 358.656359 
L 341.939889 367.265759 
L 358.503896 367.265759 
L 358.503896 372.125393 
L 375.067904 372.125393 
L 375.067904 389.911209 
L 391.631911 389.911209 
L 391.631911 372.125393 
L 408.195918 372.125393 
L 408.195918 362.79533 
L 424.759926 362.79533 
L 424.759926 362.79533 
L 441.323933 362.79533 
L 441.323933 380.313277 
L 457.887941 380.313277 
L 457.887941 358.656359 
L 474.451948 358.656359 
L 474.451948 360.687512 
L 491.015955 360.687512 
L 491.015955 364.985828 
L 507.579963 364.985828 
L 507.579963 362.79533 
L 524.14397 362.79533 
L 524.14397 364.985828 
L 540.707978 364.985828 
L 540.707978 346.193668 
L 557.271985 346.193668 
L 557.271985 354.803069 
L 573.835993 354.803069 
L 573.835993 358.656359 
L 590.4 358.656359 
L 590.4 341.600625 
L 606.964007 341.600625 
L 606.964007 325.167188 
L 623.528015 325.167188 
L 623.528015 346.193668 
L 640.092022 346.193668 
L 640.092022 329.728951 
L 656.65603 329.728951 
L 656.65603 321.974859 
L 673.220037 321.974859 
L 673.220037 329.728951 
L 689.784045 329.728951 
L 689.784045 319.943706 
L 706.348052 319.943706 
L 706.348052 313.365459 
L 722.912059 313.365459 
L 722.912059 352.971739 
L 739.476067 352.971739 
L 739.476067 318.955175 
L 756.040074 318.955175 
L 756.040074 301.437228 
L 772.604082 301.437228 
L 772.604082 297.967133 
L 789.168089 297.967133 
L 789.168089 298.644118 
L 805.732096 298.644118 
L 805.732096 288.12184 
L 822.296104 288.12184 
L 822.296104 282.747452 
L 838.860111 282.747452 
L 838.860111 286.454536 
L 855.424119 286.454536 
L 855.424119 306.688796 
L 871.988126 306.688796 
L 871.988126 272.907335 
L 888.552134 272.907335 
L 888.552134 254.732314 
L 905.116141 254.732314 
L 905.116141 247.468775 
L 921.680148 247.468775 
L 921.680148 235.940154 
L 938.244156 235.940154 
L 938.244156 224.371092 
L 954.808163 224.371092 
L 954.808163 202.450984 
L 971.372171 202.450984 
L 971.372171 163.43496 
L 987.936178 163.43496 
L 987.936178 99.998182 
L 996.218182 99.998182 
L 996.218182 649 
" style="fill:none;stroke:#f0e68c;stroke-linecap:square;stroke-width:3;"/>
   </g>
   <g id="patch_3">
    <path d="M 144 567 
L 144 77.76 
" style="fill:none;stroke:#000000;stroke-linecap:square;stroke-linejoin:miter;stroke-width:0.8;"/>
   </g>
   <g id="patch_4">
    <path d="M 1036.8 567 
L 1036.8 77.76 
" style="fill:none;stroke:#000000;stroke-linecap:square;stroke-linejoin:miter;stroke-width:0.8;"/>
   </g>
   <g id="patch_5">
    <path d="M 144 567 
L 1036.8 567 
" style="fill:none;stroke:#000000;stroke-linecap:square;stroke-linejoin:miter;stroke-width:0.8;"/>
   </g>
   <g id="patch_6">
    <path d="M 144 77.76 
L 1036.8 77.76 
" style="fill:none;stroke:#000000;stroke-linecap:square;stroke-linejoin:miter;stroke-width:0.8;"/>
   </g>
   <g id="legend_1">
    <g id="patch_7">
     <path d="M 507.9 269.97875 
L 672.9 269.97875 
Q 676.9 269.97875 676.9 265.97875 
L 676.9 91.76 
Q 676.9 87.76 672.9 87.76 
L 507.9 87.76 
Q 503.9 87.76 503.9 91.76 
L 503.9 265.97875 
Q 503.9 269.97875 507.9 269.97875 
z
" style="fill:#ffffff;opacity:0.8;stroke:#cccccc;stroke-linejoin:miter;"/>
    </g>
    <g id="line2d_44">
     <path d="M 511.9 103.956875 
L 551.9 103.956875 
" style="fill:none;stroke:#800080;stroke-linecap:square;stroke-width:3;"/>
    </g>
    <g id="line2d_45"/>
    <g id="text_13">
     <!-- $e^{+}$ DVAE -->
     <g transform="translate(567.9 110.956875)scale(0.2 -0.2)">
      <defs>
       <path d="M 3078 2063 
Q 3088 2113 3092 2166 
Q 3097 2219 3097 2272 
Q 3097 2653 2873 2875 
Q 2650 3097 2266 3097 
Q 1838 3097 1509 2826 
Q 1181 2556 1013 2059 
L 3078 2063 
z
M 3578 1613 
L 903 1613 
Q 884 1494 878 1425 
Q 872 1356 872 1306 
Q 872 872 1139 634 
Q 1406 397 1894 397 
Q 2269 397 2603 481 
Q 2938 566 3225 728 
L 3116 159 
Q 2806 34 2476 -28 
Q 2147 -91 1806 -91 
Q 1078 -91 686 257 
Q 294 606 294 1247 
Q 294 1794 489 2264 
Q 684 2734 1063 3103 
Q 1306 3334 1642 3459 
Q 1978 3584 2356 3584 
Q 2950 3584 3301 3228 
Q 3653 2872 3653 2272 
Q 3653 2128 3634 1964 
Q 3616 1800 3578 1613 
z
" id="DejaVuSans-Oblique-65" transform="scale(0.015625)"/>
       <path d="M 2944 4013 
L 2944 2272 
L 4684 2272 
L 4684 1741 
L 2944 1741 
L 2944 0 
L 2419 0 
L 2419 1741 
L 678 1741 
L 678 2272 
L 2419 2272 
L 2419 4013 
L 2944 4013 
z
" id="DejaVuSans-2b" transform="scale(0.015625)"/>
       <path d="M 1259 4147 
L 1259 519 
L 2022 519 
Q 2988 519 3436 956 
Q 3884 1394 3884 2338 
Q 3884 3275 3436 3711 
Q 2988 4147 2022 4147 
L 1259 4147 
z
M 628 4666 
L 1925 4666 
Q 3281 4666 3915 4102 
Q 4550 3538 4550 2338 
Q 4550 1131 3912 565 
Q 3275 0 1925 0 
L 628 0 
L 628 4666 
z
" id="DejaVuSans-44" transform="scale(0.015625)"/>
       <path d="M 1831 0 
L 50 4666 
L 709 4666 
L 2188 738 
L 3669 4666 
L 4325 4666 
L 2547 0 
L 1831 0 
z
" id="DejaVuSans-56" transform="scale(0.015625)"/>
       <path d="M 2188 4044 
L 1331 1722 
L 3047 1722 
L 2188 4044 
z
M 1831 4666 
L 2547 4666 
L 4325 0 
L 3669 0 
L 3244 1197 
L 1141 1197 
L 716 0 
L 50 0 
L 1831 4666 
z
" id="DejaVuSans-41" transform="scale(0.015625)"/>
      </defs>
      <use transform="translate(0 0.826562)" xlink:href="#DejaVuSans-Oblique-65"/>
      <use transform="translate(66.173333 39.107812)scale(0.7)" xlink:href="#DejaVuSans-2b"/>
      <use transform="translate(127.560052 0.826562)" xlink:href="#DejaVuSans-20"/>
      <use transform="translate(159.347161 0.826562)" xlink:href="#DejaVuSans-44"/>
      <use transform="translate(236.349115 0.826562)" xlink:href="#DejaVuSans-56"/>
      <use transform="translate(304.757318 0.826562)" xlink:href="#DejaVuSans-41"/>
      <use transform="translate(373.165521 0.826562)" xlink:href="#DejaVuSans-45"/>
     </g>
    </g>
    <g id="line2d_46">
     <path d="M 511.9 133.313125 
L 551.9 133.313125 
" style="fill:none;stroke:#0000ff;stroke-linecap:square;stroke-width:3;"/>
    </g>
    <g id="line2d_47"/>
    <g id="text_14">
     <!-- $\gamma$   DVAE -->
     <g transform="translate(567.9 140.313125)scale(0.2 -0.2)">
      <defs>
       <path d="M 1491 2950 
L 1838 788 
L 3456 3500 
L 4066 3500 
L 1972 0 
L 1713 -1331 
L 1138 -1331 
L 1397 0 
L 988 2613 
Q 925 3006 628 3006 
L 475 3006 
L 569 3500 
L 788 3500 
Q 1403 3500 1491 2950 
z
" id="DejaVuSans-Oblique-3b3" transform="scale(0.015625)"/>
      </defs>
      <use transform="translate(0 0.09375)" xlink:href="#DejaVuSans-Oblique-3b3"/>
      <use transform="translate(59.179688 0.09375)" xlink:href="#DejaVuSans-20"/>
      <use transform="translate(90.966797 0.09375)" xlink:href="#DejaVuSans-20"/>
      <use transform="translate(122.753906 0.09375)" xlink:href="#DejaVuSans-20"/>
      <use transform="translate(154.541016 0.09375)" xlink:href="#DejaVuSans-44"/>
      <use transform="translate(231.542969 0.09375)" xlink:href="#DejaVuSans-56"/>
      <use transform="translate(299.951172 0.09375)" xlink:href="#DejaVuSans-41"/>
      <use transform="translate(368.359375 0.09375)" xlink:href="#DejaVuSans-45"/>
     </g>
    </g>
    <g id="line2d_48">
     <path d="M 511.9 162.71 
L 551.9 162.71 
" style="fill:none;stroke:#f0e68c;stroke-linecap:square;stroke-width:3;"/>
    </g>
    <g id="line2d_49"/>
    <g id="text_15">
     <!-- $\pi^{+}$ DVAE -->
     <g transform="translate(567.9 169.71)scale(0.2 -0.2)">
      <defs>
       <path d="M 584 3500 
L 3938 3500 
L 3825 2925 
L 3384 2925 
L 2966 775 
Q 2922 550 2981 450 
Q 3038 353 3209 353 
Q 3256 353 3325 363 
Q 3397 369 3419 372 
L 3338 -44 
Q 3222 -84 3103 -103 
Q 2981 -122 2866 -122 
Q 2491 -122 2388 81 
Q 2284 288 2391 838 
L 2797 2925 
L 1506 2925 
L 938 0 
L 350 0 
L 919 2925 
L 472 2925 
L 584 3500 
z
" id="DejaVuSans-Oblique-3c0" transform="scale(0.015625)"/>
      </defs>
      <use transform="translate(0 0.826562)" xlink:href="#DejaVuSans-Oblique-3c0"/>
      <use transform="translate(64.671224 39.107812)scale(0.7)" xlink:href="#DejaVuSans-2b"/>
      <use transform="translate(126.057943 0.826562)" xlink:href="#DejaVuSans-20"/>
      <use transform="translate(157.845052 0.826562)" xlink:href="#DejaVuSans-44"/>
      <use transform="translate(234.847005 0.826562)" xlink:href="#DejaVuSans-56"/>
      <use transform="translate(303.255208 0.826562)" xlink:href="#DejaVuSans-41"/>
      <use transform="translate(371.663411 0.826562)" xlink:href="#DejaVuSans-45"/>
     </g>
    </g>
    <g id="patch_8">
     <path d="M 511.9 199.06625 
L 551.9 199.06625 
L 551.9 185.06625 
L 511.9 185.06625 
z
" style="fill:#800080;opacity:0.3;stroke:#800080;stroke-linejoin:miter;"/>
    </g>
    <g id="text_16">
     <!-- $e^{+}$ GEANT -->
     <g transform="translate(567.9 199.06625)scale(0.2 -0.2)">
      <defs>
       <path d="M 3809 666 
L 3809 1919 
L 2778 1919 
L 2778 2438 
L 4434 2438 
L 4434 434 
Q 4069 175 3628 42 
Q 3188 -91 2688 -91 
Q 1594 -91 976 548 
Q 359 1188 359 2328 
Q 359 3472 976 4111 
Q 1594 4750 2688 4750 
Q 3144 4750 3555 4637 
Q 3966 4525 4313 4306 
L 4313 3634 
Q 3963 3931 3569 4081 
Q 3175 4231 2741 4231 
Q 1884 4231 1454 3753 
Q 1025 3275 1025 2328 
Q 1025 1384 1454 906 
Q 1884 428 2741 428 
Q 3075 428 3337 486 
Q 3600 544 3809 666 
z
" id="DejaVuSans-47" transform="scale(0.015625)"/>
       <path d="M 628 4666 
L 1478 4666 
L 3547 763 
L 3547 4666 
L 4159 4666 
L 4159 0 
L 3309 0 
L 1241 3903 
L 1241 0 
L 628 0 
L 628 4666 
z
" id="DejaVuSans-4e" transform="scale(0.015625)"/>
       <path d="M -19 4666 
L 3928 4666 
L 3928 4134 
L 2272 4134 
L 2272 0 
L 1638 0 
L 1638 4134 
L -19 4134 
L -19 4666 
z
" id="DejaVuSans-54" transform="scale(0.015625)"/>
      </defs>
      <use transform="translate(0 0.826562)" xlink:href="#DejaVuSans-Oblique-65"/>
      <use transform="translate(66.173333 39.107812)scale(0.7)" xlink:href="#DejaVuSans-2b"/>
      <use transform="translate(127.560052 0.826562)" xlink:href="#DejaVuSans-20"/>
      <use transform="translate(159.347161 0.826562)" xlink:href="#DejaVuSans-47"/>
      <use transform="translate(236.837396 0.826562)" xlink:href="#DejaVuSans-45"/>
      <use transform="translate(300.02099 0.826562)" xlink:href="#DejaVuSans-41"/>
      <use transform="translate(368.429193 0.826562)" xlink:href="#DejaVuSans-4e"/>
      <use transform="translate(443.23388 0.826562)" xlink:href="#DejaVuSans-54"/>
     </g>
    </g>
    <g id="patch_9">
     <path d="M 511.9 228.4225 
L 551.9 228.4225 
L 551.9 214.4225 
L 511.9 214.4225 
z
" style="fill:#0000ff;opacity:0.3;stroke:#0000ff;stroke-linejoin:miter;"/>
    </g>
    <g id="text_17">
     <!-- $\gamma$   GEANT -->
     <g transform="translate(567.9 228.4225)scale(0.2 -0.2)">
      <use transform="translate(0 0.78125)" xlink:href="#DejaVuSans-Oblique-3b3"/>
      <use transform="translate(59.179688 0.78125)" xlink:href="#DejaVuSans-20"/>
      <use transform="translate(90.966797 0.78125)" xlink:href="#DejaVuSans-20"/>
      <use transform="translate(122.753906 0.78125)" xlink:href="#DejaVuSans-20"/>
      <use transform="translate(154.541016 0.78125)" xlink:href="#DejaVuSans-47"/>
      <use transform="translate(232.03125 0.78125)" xlink:href="#DejaVuSans-45"/>
      <use transform="translate(295.214844 0.78125)" xlink:href="#DejaVuSans-41"/>
      <use transform="translate(363.623047 0.78125)" xlink:href="#DejaVuSans-4e"/>
      <use transform="translate(438.427734 0.78125)" xlink:href="#DejaVuSans-54"/>
     </g>
    </g>
    <g id="patch_10">
     <path d="M 511.9 257.819375 
L 551.9 257.819375 
L 551.9 243.819375 
L 511.9 243.819375 
z
" style="fill:#f0e68c;opacity:0.3;stroke:#f0e68c;stroke-linejoin:miter;"/>
    </g>
    <g id="text_18">
     <!-- $\pi^{+}$ GEANT -->
     <g transform="translate(567.9 257.819375)scale(0.2 -0.2)">
      <use transform="translate(0 0.826562)" xlink:href="#DejaVuSans-Oblique-3c0"/>
      <use transform="translate(64.671224 39.107812)scale(0.7)" xlink:href="#DejaVuSans-2b"/>
      <use transform="translate(126.057943 0.826562)" xlink:href="#DejaVuSans-20"/>
      <use transform="translate(157.845052 0.826562)" xlink:href="#DejaVuSans-47"/>
      <use transform="translate(235.335286 0.826562)" xlink:href="#DejaVuSans-45"/>
      <use transform="translate(298.51888 0.826562)" xlink:href="#DejaVuSans-41"/>
      <use transform="translate(366.927083 0.826562)" xlink:href="#DejaVuSans-4e"/>
      <use transform="translate(441.731771 0.826562)" xlink:href="#DejaVuSans-54"/>
     </g>
    </g>
   </g>
  </g>
 </g>
 <defs>
  <clipPath id="p5546ba9275">
   <rect height="489.24" width="892.8" x="144" y="77.76"/>
  </clipPath>
 </defs>
</svg>
