<?xml version="1.0" encoding="utf-8" standalone="no"?>
<!DOCTYPE svg PUBLIC "-//W3C//DTD SVG 1.1//EN"
  "http://www.w3.org/Graphics/SVG/1.1/DTD/svg11.dtd">
<svg height="648pt" version="1.1" viewBox="0 0 1152 648" width="1152pt" xmlns="http://www.w3.org/2000/svg" xmlns:xlink="http://www.w3.org/1999/xlink">
 <metadata>
  <rdf:RDF xmlns:cc="http://creativecommons.org/ns#" xmlns:dc="http://purl.org/dc/elements/1.1/" xmlns:rdf="http://www.w3.org/1999/02/22-rdf-syntax-ns#">
   <cc:Work>
    <dc:type rdf:resource="http://purl.org/dc/dcmitype/StillImage"/>
    <dc:date>2021-09-24T22:54:30.130274</dc:date>
    <dc:format>image/svg+xml</dc:format>
    <dc:creator>
     <cc:Agent>
      <dc:title>Matplotlib v3.4.2, https://matplotlib.org/</dc:title>
     </cc:Agent>
    </dc:creator>
   </cc:Work>
  </rdf:RDF>
 </metadata>
 <defs>
  <style type="text/css">*{stroke-linecap:butt;stroke-linejoin:round;}</style>
 </defs>
 <g id="figure_1">
  <g id="patch_1">
   <path d="M 0 648 
L 1152 648 
L 1152 0 
L 0 0 
z
" style="fill:none;"/>
  </g>
  <g id="axes_1">
   <g id="patch_2">
    <path d="M 144 567 
L 1036.8 567 
L 1036.8 77.76 
L 144 77.76 
z
" style="fill:#ffffff;"/>
   </g>
   <g id="PolyCollection_1">
    <path clip-path="url(#pd73053be9b)" d="M 184.581818 136705.222218 
L 184.581818 136705.222218 
L 184.581818 136705.222218 
L 184.581818 182.199486 
L 192.863822 182.199486 
L 192.863822 236.383181 
L 209.427829 236.383181 
L 209.427829 195.717053 
L 225.991837 195.717053 
L 225.991837 228.849632 
L 242.555844 228.849632 
L 242.555844 191.207962 
L 259.119852 191.207962 
L 259.119852 239.011779 
L 275.683859 239.011779 
L 275.683859 188.429847 
L 292.247866 188.429847 
L 292.247866 228.286449 
L 308.811874 228.286449 
L 308.811874 231.452515 
L 325.375881 231.452515 
L 325.375881 180.551494 
L 341.939889 180.551494 
L 341.939889 221.41499 
L 358.503896 221.41499 
L 358.503896 179.55971 
L 375.067904 179.55971 
L 375.067904 209.480573 
L 391.631911 209.480573 
L 391.631911 167.281218 
L 408.195918 167.281218 
L 408.195918 207.475848 
L 424.759926 207.475848 
L 424.759926 161.57257 
L 441.323933 161.57257 
L 441.323933 193.032284 
L 457.887941 193.032284 
L 457.887941 201.660878 
L 474.451948 201.660878 
L 474.451948 159.697985 
L 491.015955 159.697985 
L 491.015955 199.555004 
L 507.579963 199.555004 
L 507.579963 158.308582 
L 524.14397 158.308582 
L 524.14397 205.15658 
L 540.707978 205.15658 
L 540.707978 174.04673 
L 557.271985 174.04673 
L 557.271985 225.816468 
L 573.835993 225.816468 
L 573.835993 237.029457 
L 590.4 237.029457 
L 590.4 208.070162 
L 606.964007 208.070162 
L 606.964007 269.555753 
L 623.528015 269.555753 
L 623.528015 252.123154 
L 640.092022 252.123154 
L 640.092022 311.110013 
L 656.65603 311.110013 
L 656.65603 306.727732 
L 673.220037 306.727732 
L 673.220037 393.086778 
L 689.784045 393.086778 
L 689.784045 370.646139 
L 706.348052 370.646139 
L 706.348052 408.601358 
L 722.912059 408.601358 
L 722.912059 479.796768 
L 739.476067 479.796768 
L 739.476067 544.761818 
L 756.040074 544.761818 
L 756.040074 503.773435 
L 772.604082 503.773435 
L 772.604082 136705.222218 
L 789.168089 136705.222218 
L 789.168089 136705.222218 
L 805.732096 136705.222218 
L 805.732096 136705.222218 
L 822.296104 136705.222218 
L 822.296104 136705.222218 
L 838.860111 136705.222218 
L 838.860111 136705.222218 
L 855.424119 136705.222218 
L 855.424119 136705.222218 
L 871.988126 136705.222218 
L 871.988126 136705.222218 
L 888.552134 136705.222218 
L 888.552134 136705.222218 
L 905.116141 136705.222218 
L 905.116141 136705.222218 
L 921.680148 136705.222218 
L 921.680148 136705.222218 
L 938.244156 136705.222218 
L 938.244156 136705.222218 
L 954.808163 136705.222218 
L 954.808163 136705.222218 
L 971.372171 136705.222218 
L 971.372171 136705.222218 
L 987.936178 136705.222218 
L 987.936178 136705.222218 
L 996.218182 136705.222218 
L 996.218182 136705.222218 
L 996.218182 136705.222218 
L 996.218182 136705.222218 
L 996.218182 136705.222218 
L 996.218182 136705.222218 
L 996.218182 136705.222218 
L 987.936178 136705.222218 
L 987.936178 136705.222218 
L 971.372171 136705.222218 
L 971.372171 136705.222218 
L 954.808163 136705.222218 
L 954.808163 136705.222218 
L 938.244156 136705.222218 
L 938.244156 136705.222218 
L 921.680148 136705.222218 
L 921.680148 136705.222218 
L 905.116141 136705.222218 
L 905.116141 136705.222218 
L 888.552134 136705.222218 
L 888.552134 136705.222218 
L 871.988126 136705.222218 
L 871.988126 136705.222218 
L 855.424119 136705.222218 
L 855.424119 136705.222218 
L 838.860111 136705.222218 
L 838.860111 136705.222218 
L 822.296104 136705.222218 
L 822.296104 136705.222218 
L 805.732096 136705.222218 
L 805.732096 136705.222218 
L 789.168089 136705.222218 
L 789.168089 136705.222218 
L 772.604082 136705.222218 
L 772.604082 136705.222218 
L 756.040074 136705.222218 
L 756.040074 136705.222218 
L 739.476067 136705.222218 
L 739.476067 136705.222218 
L 722.912059 136705.222218 
L 722.912059 136705.222218 
L 706.348052 136705.222218 
L 706.348052 136705.222218 
L 689.784045 136705.222218 
L 689.784045 136705.222218 
L 673.220037 136705.222218 
L 673.220037 136705.222218 
L 656.65603 136705.222218 
L 656.65603 136705.222218 
L 640.092022 136705.222218 
L 640.092022 136705.222218 
L 623.528015 136705.222218 
L 623.528015 136705.222218 
L 606.964007 136705.222218 
L 606.964007 136705.222218 
L 590.4 136705.222218 
L 590.4 136705.222218 
L 573.835993 136705.222218 
L 573.835993 136705.222218 
L 557.271985 136705.222218 
L 557.271985 136705.222218 
L 540.707978 136705.222218 
L 540.707978 136705.222218 
L 524.14397 136705.222218 
L 524.14397 136705.222218 
L 507.579963 136705.222218 
L 507.579963 136705.222218 
L 491.015955 136705.222218 
L 491.015955 136705.222218 
L 474.451948 136705.222218 
L 474.451948 136705.222218 
L 457.887941 136705.222218 
L 457.887941 136705.222218 
L 441.323933 136705.222218 
L 441.323933 136705.222218 
L 424.759926 136705.222218 
L 424.759926 136705.222218 
L 408.195918 136705.222218 
L 408.195918 136705.222218 
L 391.631911 136705.222218 
L 391.631911 136705.222218 
L 375.067904 136705.222218 
L 375.067904 136705.222218 
L 358.503896 136705.222218 
L 358.503896 136705.222218 
L 341.939889 136705.222218 
L 341.939889 136705.222218 
L 325.375881 136705.222218 
L 325.375881 136705.222218 
L 308.811874 136705.222218 
L 308.811874 136705.222218 
L 292.247866 136705.222218 
L 292.247866 136705.222218 
L 275.683859 136705.222218 
L 275.683859 136705.222218 
L 259.119852 136705.222218 
L 259.119852 136705.222218 
L 242.555844 136705.222218 
L 242.555844 136705.222218 
L 225.991837 136705.222218 
L 225.991837 136705.222218 
L 209.427829 136705.222218 
L 209.427829 136705.222218 
L 192.863822 136705.222218 
L 192.863822 136705.222218 
L 184.581818 136705.222218 
L 184.581818 136705.222218 
L 184.581818 136705.222218 
z
" style="fill:#800080;fill-opacity:0.3;stroke:#800080;stroke-opacity:0.3;"/>
   </g>
   <g id="PolyCollection_2">
    <path clip-path="url(#pd73053be9b)" d="M 184.581818 136705.222218 
L 184.581818 136705.222218 
L 184.581818 136705.222218 
L 184.581818 185.640002 
L 192.863822 185.640002 
L 192.863822 243.913237 
L 209.427829 243.913237 
L 209.427829 204.403274 
L 225.991837 204.403274 
L 225.991837 245.018572 
L 242.555844 245.018572 
L 242.555844 205.536863 
L 259.119852 205.536863 
L 259.119852 232.046828 
L 275.683859 232.046828 
L 275.683859 205.727925 
L 292.247866 205.727925 
L 292.247866 237.682876 
L 308.811874 237.682876 
L 308.811874 236.383181 
L 325.375881 236.383181 
L 325.375881 190.464132 
L 341.939889 190.464132 
L 341.939889 228.006856 
L 358.503896 228.006856 
L 358.503896 181.94294 
L 375.067904 181.94294 
L 375.067904 223.704324 
L 391.631911 223.704324 
L 391.631911 174.949552 
L 408.195918 174.949552 
L 408.195918 215.937935 
L 424.759926 215.937935 
L 424.759926 163.414891 
L 441.323933 163.414891 
L 441.323933 198.529537 
L 457.887941 198.529537 
L 457.887941 206.304844 
L 474.451948 206.304844 
L 474.451948 159.086101 
L 491.015955 159.086101 
L 491.015955 200.074483 
L 507.579963 200.074483 
L 507.579963 160.050497 
L 524.14397 160.050497 
L 524.14397 205.15658 
L 540.707978 205.15658 
L 540.707978 163.414891 
L 557.271985 163.414891 
L 557.271985 217.318552 
L 573.835993 217.318552 
L 573.835993 225.015547 
L 590.4 225.015547 
L 590.4 190.316482 
L 606.964007 190.316482 
L 606.964007 241.411739 
L 623.528015 241.411739 
L 623.528015 217.318552 
L 640.092022 217.318552 
L 640.092022 274.854854 
L 656.65603 274.854854 
L 656.65603 246.90799 
L 673.220037 246.90799 
L 673.220037 319.659641 
L 689.784045 319.659641 
L 689.784045 288.669374 
L 706.348052 288.669374 
L 706.348052 361.976928 
L 722.912059 361.976928 
L 722.912059 384.624691 
L 739.476067 384.624691 
L 739.476067 373.843336 
L 756.040074 373.843336 
L 756.040074 438.808386 
L 772.604082 438.808386 
L 772.604082 438.808386 
L 789.168089 438.808386 
L 789.168089 544.761818 
L 805.732096 544.761818 
L 805.732096 503.773435 
L 822.296104 503.773435 
L 822.296104 136705.222218 
L 838.860111 136705.222218 
L 838.860111 503.773435 
L 855.424119 503.773435 
L 855.424119 136705.222218 
L 871.988126 136705.222218 
L 871.988126 136705.222218 
L 888.552134 136705.222218 
L 888.552134 503.773435 
L 905.116141 503.773435 
L 905.116141 136705.222218 
L 921.680148 136705.222218 
L 921.680148 136705.222218 
L 938.244156 136705.222218 
L 938.244156 136705.222218 
L 954.808163 136705.222218 
L 954.808163 136705.222218 
L 971.372171 136705.222218 
L 971.372171 136705.222218 
L 987.936178 136705.222218 
L 987.936178 136705.222218 
L 996.218182 136705.222218 
L 996.218182 136705.222218 
L 996.218182 136705.222218 
L 996.218182 136705.222218 
L 996.218182 136705.222218 
L 996.218182 136705.222218 
L 996.218182 136705.222218 
L 987.936178 136705.222218 
L 987.936178 136705.222218 
L 971.372171 136705.222218 
L 971.372171 136705.222218 
L 954.808163 136705.222218 
L 954.808163 136705.222218 
L 938.244156 136705.222218 
L 938.244156 136705.222218 
L 921.680148 136705.222218 
L 921.680148 136705.222218 
L 905.116141 136705.222218 
L 905.116141 136705.222218 
L 888.552134 136705.222218 
L 888.552134 136705.222218 
L 871.988126 136705.222218 
L 871.988126 136705.222218 
L 855.424119 136705.222218 
L 855.424119 136705.222218 
L 838.860111 136705.222218 
L 838.860111 136705.222218 
L 822.296104 136705.222218 
L 822.296104 136705.222218 
L 805.732096 136705.222218 
L 805.732096 136705.222218 
L 789.168089 136705.222218 
L 789.168089 136705.222218 
L 772.604082 136705.222218 
L 772.604082 136705.222218 
L 756.040074 136705.222218 
L 756.040074 136705.222218 
L 739.476067 136705.222218 
L 739.476067 136705.222218 
L 722.912059 136705.222218 
L 722.912059 136705.222218 
L 706.348052 136705.222218 
L 706.348052 136705.222218 
L 689.784045 136705.222218 
L 689.784045 136705.222218 
L 673.220037 136705.222218 
L 673.220037 136705.222218 
L 656.65603 136705.222218 
L 656.65603 136705.222218 
L 640.092022 136705.222218 
L 640.092022 136705.222218 
L 623.528015 136705.222218 
L 623.528015 136705.222218 
L 606.964007 136705.222218 
L 606.964007 136705.222218 
L 590.4 136705.222218 
L 590.4 136705.222218 
L 573.835993 136705.222218 
L 573.835993 136705.222218 
L 557.271985 136705.222218 
L 557.271985 136705.222218 
L 540.707978 136705.222218 
L 540.707978 136705.222218 
L 524.14397 136705.222218 
L 524.14397 136705.222218 
L 507.579963 136705.222218 
L 507.579963 136705.222218 
L 491.015955 136705.222218 
L 491.015955 136705.222218 
L 474.451948 136705.222218 
L 474.451948 136705.222218 
L 457.887941 136705.222218 
L 457.887941 136705.222218 
L 441.323933 136705.222218 
L 441.323933 136705.222218 
L 424.759926 136705.222218 
L 424.759926 136705.222218 
L 408.195918 136705.222218 
L 408.195918 136705.222218 
L 391.631911 136705.222218 
L 391.631911 136705.222218 
L 375.067904 136705.222218 
L 375.067904 136705.222218 
L 358.503896 136705.222218 
L 358.503896 136705.222218 
L 341.939889 136705.222218 
L 341.939889 136705.222218 
L 325.375881 136705.222218 
L 325.375881 136705.222218 
L 308.811874 136705.222218 
L 308.811874 136705.222218 
L 292.247866 136705.222218 
L 292.247866 136705.222218 
L 275.683859 136705.222218 
L 275.683859 136705.222218 
L 259.119852 136705.222218 
L 259.119852 136705.222218 
L 242.555844 136705.222218 
L 242.555844 136705.222218 
L 225.991837 136705.222218 
L 225.991837 136705.222218 
L 209.427829 136705.222218 
L 209.427829 136705.222218 
L 192.863822 136705.222218 
L 192.863822 136705.222218 
L 184.581818 136705.222218 
L 184.581818 136705.222218 
L 184.581818 136705.222218 
z
" style="fill:#0000ff;fill-opacity:0.3;stroke:#0000ff;stroke-opacity:0.3;"/>
   </g>
   <g id="PolyCollection_3">
    <path clip-path="url(#pd73053be9b)" d="M 184.581818 136705.222218 
L 184.581818 136705.222218 
L 184.581818 136705.222218 
L 184.581818 147.227599 
L 192.863822 147.227599 
L 192.863822 146.943643 
L 209.427829 146.943643 
L 209.427829 123.132451 
L 225.991837 123.132451 
L 225.991837 215.259529 
L 242.555844 215.259529 
L 242.555844 211.344838 
L 259.119852 211.344838 
L 259.119852 290.246367 
L 275.683859 290.246367 
L 275.683859 258.774398 
L 292.247866 258.774398 
L 292.247866 297.011878 
L 308.811874 297.011878 
L 308.811874 317.088204 
L 325.375881 317.088204 
L 325.375881 267.344888 
L 341.939889 267.344888 
L 341.939889 318.359946 
L 358.503896 318.359946 
L 358.503896 265.739349 
L 375.067904 265.739349 
L 375.067904 295.246561 
L 391.631911 295.246561 
L 391.631911 273.635559 
L 408.195918 273.635559 
L 408.195918 300.708941 
L 424.759926 300.708941 
L 424.759926 259.245585 
L 441.323933 259.245585 
L 441.323933 296.122632 
L 457.887941 296.122632 
L 457.887941 297.011878 
L 474.451948 297.011878 
L 474.451948 254.258178 
L 491.015955 254.258178 
L 491.015955 285.636209 
L 507.579963 285.636209 
L 507.579963 244.279391 
L 524.14397 244.279391 
L 524.14397 290.246367 
L 540.707978 290.246367 
L 540.707978 241.762682 
L 557.271985 241.762682 
L 557.271985 284.176043 
L 573.835993 284.176043 
L 573.835993 262.65341 
L 590.4 262.65341 
L 590.4 228.56737 
L 606.964007 228.56737 
L 606.964007 266.2697 
L 623.528015 266.2697 
L 623.528015 227.451606 
L 640.092022 227.451606 
L 640.092022 263.664268 
L 656.65603 263.664268 
L 656.65603 215.259529 
L 673.220037 215.259529 
L 673.220037 254.694591 
L 689.784045 254.694591 
L 689.784045 213.269795 
L 706.348052 213.269795 
L 706.348052 252.123154 
L 722.912059 252.123154 
L 722.912059 237.355264 
L 739.476067 237.355264 
L 739.476067 210.095488 
L 756.040074 210.095488 
L 756.040074 249.257984 
L 772.604082 249.257984 
L 772.604082 204.778728 
L 789.168089 204.778728 
L 789.168089 235.111438 
L 805.732096 235.111438 
L 805.732096 201.839801 
L 822.296104 201.839801 
L 822.296104 237.682876 
L 838.860111 237.682876 
L 838.860111 199.211202 
L 855.424119 199.211202 
L 855.424119 240.71604 
L 871.988126 240.71604 
L 871.988126 236.062672 
L 888.552134 236.062672 
L 888.552134 210.095488 
L 905.116141 210.095488 
L 905.116141 267.344888 
L 921.680148 267.344888 
L 921.680148 223.704324 
L 938.244156 223.704324 
L 938.244156 280.675984 
L 954.808163 280.675984 
L 954.808163 264.176251 
L 971.372171 264.176251 
L 971.372171 354.417663 
L 987.936178 354.417663 
L 987.936178 402.965311 
L 996.218182 402.965311 
L 996.218182 479.796768 
L 996.218182 479.796768 
L 996.218182 136705.222218 
L 996.218182 136705.222218 
L 996.218182 136705.222218 
L 996.218182 136705.222218 
L 987.936178 136705.222218 
L 987.936178 136705.222218 
L 971.372171 136705.222218 
L 971.372171 136705.222218 
L 954.808163 136705.222218 
L 954.808163 136705.222218 
L 938.244156 136705.222218 
L 938.244156 136705.222218 
L 921.680148 136705.222218 
L 921.680148 136705.222218 
L 905.116141 136705.222218 
L 905.116141 136705.222218 
L 888.552134 136705.222218 
L 888.552134 136705.222218 
L 871.988126 136705.222218 
L 871.988126 136705.222218 
L 855.424119 136705.222218 
L 855.424119 136705.222218 
L 838.860111 136705.222218 
L 838.860111 136705.222218 
L 822.296104 136705.222218 
L 822.296104 136705.222218 
L 805.732096 136705.222218 
L 805.732096 136705.222218 
L 789.168089 136705.222218 
L 789.168089 136705.222218 
L 772.604082 136705.222218 
L 772.604082 136705.222218 
L 756.040074 136705.222218 
L 756.040074 136705.222218 
L 739.476067 136705.222218 
L 739.476067 136705.222218 
L 722.912059 136705.222218 
L 722.912059 136705.222218 
L 706.348052 136705.222218 
L 706.348052 136705.222218 
L 689.784045 136705.222218 
L 689.784045 136705.222218 
L 673.220037 136705.222218 
L 673.220037 136705.222218 
L 656.65603 136705.222218 
L 656.65603 136705.222218 
L 640.092022 136705.222218 
L 640.092022 136705.222218 
L 623.528015 136705.222218 
L 623.528015 136705.222218 
L 606.964007 136705.222218 
L 606.964007 136705.222218 
L 590.4 136705.222218 
L 590.4 136705.222218 
L 573.835993 136705.222218 
L 573.835993 136705.222218 
L 557.271985 136705.222218 
L 557.271985 136705.222218 
L 540.707978 136705.222218 
L 540.707978 136705.222218 
L 524.14397 136705.222218 
L 524.14397 136705.222218 
L 507.579963 136705.222218 
L 507.579963 136705.222218 
L 491.015955 136705.222218 
L 491.015955 136705.222218 
L 474.451948 136705.222218 
L 474.451948 136705.222218 
L 457.887941 136705.222218 
L 457.887941 136705.222218 
L 441.323933 136705.222218 
L 441.323933 136705.222218 
L 424.759926 136705.222218 
L 424.759926 136705.222218 
L 408.195918 136705.222218 
L 408.195918 136705.222218 
L 391.631911 136705.222218 
L 391.631911 136705.222218 
L 375.067904 136705.222218 
L 375.067904 136705.222218 
L 358.503896 136705.222218 
L 358.503896 136705.222218 
L 341.939889 136705.222218 
L 341.939889 136705.222218 
L 325.375881 136705.222218 
L 325.375881 136705.222218 
L 308.811874 136705.222218 
L 308.811874 136705.222218 
L 292.247866 136705.222218 
L 292.247866 136705.222218 
L 275.683859 136705.222218 
L 275.683859 136705.222218 
L 259.119852 136705.222218 
L 259.119852 136705.222218 
L 242.555844 136705.222218 
L 242.555844 136705.222218 
L 225.991837 136705.222218 
L 225.991837 136705.222218 
L 209.427829 136705.222218 
L 209.427829 136705.222218 
L 192.863822 136705.222218 
L 192.863822 136705.222218 
L 184.581818 136705.222218 
L 184.581818 136705.222218 
L 184.581818 136705.222218 
z
" style="fill:#f0e68c;fill-opacity:0.3;stroke:#f0e68c;stroke-opacity:0.3;"/>
   </g>
   <g id="matplotlib.axis_1">
    <g id="xtick_1">
     <g id="line2d_1">
      <defs>
       <path d="M 0 0 
L 0 3.5 
" id="m4e96dda30c" style="stroke:#000000;stroke-width:0.8;"/>
      </defs>
      <g>
       <use style="stroke:#000000;stroke-width:0.8;" x="176.299814" xlink:href="#m4e96dda30c" y="567"/>
      </g>
     </g>
     <g id="text_1">
      <!-- 0.0 -->
      <g transform="translate(152.445127 596.795313)scale(0.3 -0.3)">
       <defs>
        <path d="M 2034 4250 
Q 1547 4250 1301 3770 
Q 1056 3291 1056 2328 
Q 1056 1369 1301 889 
Q 1547 409 2034 409 
Q 2525 409 2770 889 
Q 3016 1369 3016 2328 
Q 3016 3291 2770 3770 
Q 2525 4250 2034 4250 
z
M 2034 4750 
Q 2819 4750 3233 4129 
Q 3647 3509 3647 2328 
Q 3647 1150 3233 529 
Q 2819 -91 2034 -91 
Q 1250 -91 836 529 
Q 422 1150 422 2328 
Q 422 3509 836 4129 
Q 1250 4750 2034 4750 
z
" id="DejaVuSans-30" transform="scale(0.015625)"/>
        <path d="M 684 794 
L 1344 794 
L 1344 0 
L 684 0 
L 684 794 
z
" id="DejaVuSans-2e" transform="scale(0.015625)"/>
       </defs>
       <use xlink:href="#DejaVuSans-30"/>
       <use x="63.623047" xlink:href="#DejaVuSans-2e"/>
       <use x="95.410156" xlink:href="#DejaVuSans-30"/>
      </g>
     </g>
    </g>
    <g id="xtick_2">
     <g id="line2d_2">
      <g>
       <use style="stroke:#000000;stroke-width:0.8;" x="341.939889" xlink:href="#m4e96dda30c" y="567"/>
      </g>
     </g>
     <g id="text_2">
      <!-- 0.2 -->
      <g transform="translate(318.085201 596.795313)scale(0.3 -0.3)">
       <defs>
        <path d="M 1228 531 
L 3431 531 
L 3431 0 
L 469 0 
L 469 531 
Q 828 903 1448 1529 
Q 2069 2156 2228 2338 
Q 2531 2678 2651 2914 
Q 2772 3150 2772 3378 
Q 2772 3750 2511 3984 
Q 2250 4219 1831 4219 
Q 1534 4219 1204 4116 
Q 875 4013 500 3803 
L 500 4441 
Q 881 4594 1212 4672 
Q 1544 4750 1819 4750 
Q 2544 4750 2975 4387 
Q 3406 4025 3406 3419 
Q 3406 3131 3298 2873 
Q 3191 2616 2906 2266 
Q 2828 2175 2409 1742 
Q 1991 1309 1228 531 
z
" id="DejaVuSans-32" transform="scale(0.015625)"/>
       </defs>
       <use xlink:href="#DejaVuSans-30"/>
       <use x="63.623047" xlink:href="#DejaVuSans-2e"/>
       <use x="95.410156" xlink:href="#DejaVuSans-32"/>
      </g>
     </g>
    </g>
    <g id="xtick_3">
     <g id="line2d_3">
      <g>
       <use style="stroke:#000000;stroke-width:0.8;" x="507.579963" xlink:href="#m4e96dda30c" y="567"/>
      </g>
     </g>
     <g id="text_3">
      <!-- 0.4 -->
      <g transform="translate(483.725275 596.795313)scale(0.3 -0.3)">
       <defs>
        <path d="M 2419 4116 
L 825 1625 
L 2419 1625 
L 2419 4116 
z
M 2253 4666 
L 3047 4666 
L 3047 1625 
L 3713 1625 
L 3713 1100 
L 3047 1100 
L 3047 0 
L 2419 0 
L 2419 1100 
L 313 1100 
L 313 1709 
L 2253 4666 
z
" id="DejaVuSans-34" transform="scale(0.015625)"/>
       </defs>
       <use xlink:href="#DejaVuSans-30"/>
       <use x="63.623047" xlink:href="#DejaVuSans-2e"/>
       <use x="95.410156" xlink:href="#DejaVuSans-34"/>
      </g>
     </g>
    </g>
    <g id="xtick_4">
     <g id="line2d_4">
      <g>
       <use style="stroke:#000000;stroke-width:0.8;" x="673.220037" xlink:href="#m4e96dda30c" y="567"/>
      </g>
     </g>
     <g id="text_4">
      <!-- 0.6 -->
      <g transform="translate(649.36535 596.795313)scale(0.3 -0.3)">
       <defs>
        <path d="M 2113 2584 
Q 1688 2584 1439 2293 
Q 1191 2003 1191 1497 
Q 1191 994 1439 701 
Q 1688 409 2113 409 
Q 2538 409 2786 701 
Q 3034 994 3034 1497 
Q 3034 2003 2786 2293 
Q 2538 2584 2113 2584 
z
M 3366 4563 
L 3366 3988 
Q 3128 4100 2886 4159 
Q 2644 4219 2406 4219 
Q 1781 4219 1451 3797 
Q 1122 3375 1075 2522 
Q 1259 2794 1537 2939 
Q 1816 3084 2150 3084 
Q 2853 3084 3261 2657 
Q 3669 2231 3669 1497 
Q 3669 778 3244 343 
Q 2819 -91 2113 -91 
Q 1303 -91 875 529 
Q 447 1150 447 2328 
Q 447 3434 972 4092 
Q 1497 4750 2381 4750 
Q 2619 4750 2861 4703 
Q 3103 4656 3366 4563 
z
" id="DejaVuSans-36" transform="scale(0.015625)"/>
       </defs>
       <use xlink:href="#DejaVuSans-30"/>
       <use x="63.623047" xlink:href="#DejaVuSans-2e"/>
       <use x="95.410156" xlink:href="#DejaVuSans-36"/>
      </g>
     </g>
    </g>
    <g id="xtick_5">
     <g id="line2d_5">
      <g>
       <use style="stroke:#000000;stroke-width:0.8;" x="838.860111" xlink:href="#m4e96dda30c" y="567"/>
      </g>
     </g>
     <g id="text_5">
      <!-- 0.8 -->
      <g transform="translate(815.005424 596.795313)scale(0.3 -0.3)">
       <defs>
        <path d="M 2034 2216 
Q 1584 2216 1326 1975 
Q 1069 1734 1069 1313 
Q 1069 891 1326 650 
Q 1584 409 2034 409 
Q 2484 409 2743 651 
Q 3003 894 3003 1313 
Q 3003 1734 2745 1975 
Q 2488 2216 2034 2216 
z
M 1403 2484 
Q 997 2584 770 2862 
Q 544 3141 544 3541 
Q 544 4100 942 4425 
Q 1341 4750 2034 4750 
Q 2731 4750 3128 4425 
Q 3525 4100 3525 3541 
Q 3525 3141 3298 2862 
Q 3072 2584 2669 2484 
Q 3125 2378 3379 2068 
Q 3634 1759 3634 1313 
Q 3634 634 3220 271 
Q 2806 -91 2034 -91 
Q 1263 -91 848 271 
Q 434 634 434 1313 
Q 434 1759 690 2068 
Q 947 2378 1403 2484 
z
M 1172 3481 
Q 1172 3119 1398 2916 
Q 1625 2713 2034 2713 
Q 2441 2713 2670 2916 
Q 2900 3119 2900 3481 
Q 2900 3844 2670 4047 
Q 2441 4250 2034 4250 
Q 1625 4250 1398 4047 
Q 1172 3844 1172 3481 
z
" id="DejaVuSans-38" transform="scale(0.015625)"/>
       </defs>
       <use xlink:href="#DejaVuSans-30"/>
       <use x="63.623047" xlink:href="#DejaVuSans-2e"/>
       <use x="95.410156" xlink:href="#DejaVuSans-38"/>
      </g>
     </g>
    </g>
    <g id="xtick_6">
     <g id="line2d_6">
      <g>
       <use style="stroke:#000000;stroke-width:0.8;" x="1004.500186" xlink:href="#m4e96dda30c" y="567"/>
      </g>
     </g>
     <g id="text_6">
      <!-- 1.0 -->
      <g transform="translate(980.645498 596.795313)scale(0.3 -0.3)">
       <defs>
        <path d="M 794 531 
L 1825 531 
L 1825 4091 
L 703 3866 
L 703 4441 
L 1819 4666 
L 2450 4666 
L 2450 531 
L 3481 531 
L 3481 0 
L 794 0 
L 794 531 
z
" id="DejaVuSans-31" transform="scale(0.015625)"/>
       </defs>
       <use xlink:href="#DejaVuSans-31"/>
       <use x="63.623047" xlink:href="#DejaVuSans-2e"/>
       <use x="95.410156" xlink:href="#DejaVuSans-30"/>
      </g>
     </g>
    </g>
    <g id="text_7">
     <!-- Layer 2 Sparsity -->
     <g transform="translate(468.353906 629.829687)scale(0.3 -0.3)">
      <defs>
       <path d="M 628 4666 
L 1259 4666 
L 1259 531 
L 3531 531 
L 3531 0 
L 628 0 
L 628 4666 
z
" id="DejaVuSans-4c" transform="scale(0.015625)"/>
       <path d="M 2194 1759 
Q 1497 1759 1228 1600 
Q 959 1441 959 1056 
Q 959 750 1161 570 
Q 1363 391 1709 391 
Q 2188 391 2477 730 
Q 2766 1069 2766 1631 
L 2766 1759 
L 2194 1759 
z
M 3341 1997 
L 3341 0 
L 2766 0 
L 2766 531 
Q 2569 213 2275 61 
Q 1981 -91 1556 -91 
Q 1019 -91 701 211 
Q 384 513 384 1019 
Q 384 1609 779 1909 
Q 1175 2209 1959 2209 
L 2766 2209 
L 2766 2266 
Q 2766 2663 2505 2880 
Q 2244 3097 1772 3097 
Q 1472 3097 1187 3025 
Q 903 2953 641 2809 
L 641 3341 
Q 956 3463 1253 3523 
Q 1550 3584 1831 3584 
Q 2591 3584 2966 3190 
Q 3341 2797 3341 1997 
z
" id="DejaVuSans-61" transform="scale(0.015625)"/>
       <path d="M 2059 -325 
Q 1816 -950 1584 -1140 
Q 1353 -1331 966 -1331 
L 506 -1331 
L 506 -850 
L 844 -850 
Q 1081 -850 1212 -737 
Q 1344 -625 1503 -206 
L 1606 56 
L 191 3500 
L 800 3500 
L 1894 763 
L 2988 3500 
L 3597 3500 
L 2059 -325 
z
" id="DejaVuSans-79" transform="scale(0.015625)"/>
       <path d="M 3597 1894 
L 3597 1613 
L 953 1613 
Q 991 1019 1311 708 
Q 1631 397 2203 397 
Q 2534 397 2845 478 
Q 3156 559 3463 722 
L 3463 178 
Q 3153 47 2828 -22 
Q 2503 -91 2169 -91 
Q 1331 -91 842 396 
Q 353 884 353 1716 
Q 353 2575 817 3079 
Q 1281 3584 2069 3584 
Q 2775 3584 3186 3129 
Q 3597 2675 3597 1894 
z
M 3022 2063 
Q 3016 2534 2758 2815 
Q 2500 3097 2075 3097 
Q 1594 3097 1305 2825 
Q 1016 2553 972 2059 
L 3022 2063 
z
" id="DejaVuSans-65" transform="scale(0.015625)"/>
       <path d="M 2631 2963 
Q 2534 3019 2420 3045 
Q 2306 3072 2169 3072 
Q 1681 3072 1420 2755 
Q 1159 2438 1159 1844 
L 1159 0 
L 581 0 
L 581 3500 
L 1159 3500 
L 1159 2956 
Q 1341 3275 1631 3429 
Q 1922 3584 2338 3584 
Q 2397 3584 2469 3576 
Q 2541 3569 2628 3553 
L 2631 2963 
z
" id="DejaVuSans-72" transform="scale(0.015625)"/>
       <path id="DejaVuSans-20" transform="scale(0.015625)"/>
       <path d="M 3425 4513 
L 3425 3897 
Q 3066 4069 2747 4153 
Q 2428 4238 2131 4238 
Q 1616 4238 1336 4038 
Q 1056 3838 1056 3469 
Q 1056 3159 1242 3001 
Q 1428 2844 1947 2747 
L 2328 2669 
Q 3034 2534 3370 2195 
Q 3706 1856 3706 1288 
Q 3706 609 3251 259 
Q 2797 -91 1919 -91 
Q 1588 -91 1214 -16 
Q 841 59 441 206 
L 441 856 
Q 825 641 1194 531 
Q 1563 422 1919 422 
Q 2459 422 2753 634 
Q 3047 847 3047 1241 
Q 3047 1584 2836 1778 
Q 2625 1972 2144 2069 
L 1759 2144 
Q 1053 2284 737 2584 
Q 422 2884 422 3419 
Q 422 4038 858 4394 
Q 1294 4750 2059 4750 
Q 2388 4750 2728 4690 
Q 3069 4631 3425 4513 
z
" id="DejaVuSans-53" transform="scale(0.015625)"/>
       <path d="M 1159 525 
L 1159 -1331 
L 581 -1331 
L 581 3500 
L 1159 3500 
L 1159 2969 
Q 1341 3281 1617 3432 
Q 1894 3584 2278 3584 
Q 2916 3584 3314 3078 
Q 3713 2572 3713 1747 
Q 3713 922 3314 415 
Q 2916 -91 2278 -91 
Q 1894 -91 1617 61 
Q 1341 213 1159 525 
z
M 3116 1747 
Q 3116 2381 2855 2742 
Q 2594 3103 2138 3103 
Q 1681 3103 1420 2742 
Q 1159 2381 1159 1747 
Q 1159 1113 1420 752 
Q 1681 391 2138 391 
Q 2594 391 2855 752 
Q 3116 1113 3116 1747 
z
" id="DejaVuSans-70" transform="scale(0.015625)"/>
       <path d="M 2834 3397 
L 2834 2853 
Q 2591 2978 2328 3040 
Q 2066 3103 1784 3103 
Q 1356 3103 1142 2972 
Q 928 2841 928 2578 
Q 928 2378 1081 2264 
Q 1234 2150 1697 2047 
L 1894 2003 
Q 2506 1872 2764 1633 
Q 3022 1394 3022 966 
Q 3022 478 2636 193 
Q 2250 -91 1575 -91 
Q 1294 -91 989 -36 
Q 684 19 347 128 
L 347 722 
Q 666 556 975 473 
Q 1284 391 1588 391 
Q 1994 391 2212 530 
Q 2431 669 2431 922 
Q 2431 1156 2273 1281 
Q 2116 1406 1581 1522 
L 1381 1569 
Q 847 1681 609 1914 
Q 372 2147 372 2553 
Q 372 3047 722 3315 
Q 1072 3584 1716 3584 
Q 2034 3584 2315 3537 
Q 2597 3491 2834 3397 
z
" id="DejaVuSans-73" transform="scale(0.015625)"/>
       <path d="M 603 3500 
L 1178 3500 
L 1178 0 
L 603 0 
L 603 3500 
z
M 603 4863 
L 1178 4863 
L 1178 4134 
L 603 4134 
L 603 4863 
z
" id="DejaVuSans-69" transform="scale(0.015625)"/>
       <path d="M 1172 4494 
L 1172 3500 
L 2356 3500 
L 2356 3053 
L 1172 3053 
L 1172 1153 
Q 1172 725 1289 603 
Q 1406 481 1766 481 
L 2356 481 
L 2356 0 
L 1766 0 
Q 1100 0 847 248 
Q 594 497 594 1153 
L 594 3053 
L 172 3053 
L 172 3500 
L 594 3500 
L 594 4494 
L 1172 4494 
z
" id="DejaVuSans-74" transform="scale(0.015625)"/>
      </defs>
      <use xlink:href="#DejaVuSans-4c"/>
      <use x="55.712891" xlink:href="#DejaVuSans-61"/>
      <use x="116.992188" xlink:href="#DejaVuSans-79"/>
      <use x="176.171875" xlink:href="#DejaVuSans-65"/>
      <use x="237.695312" xlink:href="#DejaVuSans-72"/>
      <use x="278.808594" xlink:href="#DejaVuSans-20"/>
      <use x="310.595703" xlink:href="#DejaVuSans-32"/>
      <use x="374.21875" xlink:href="#DejaVuSans-20"/>
      <use x="406.005859" xlink:href="#DejaVuSans-53"/>
      <use x="469.482422" xlink:href="#DejaVuSans-70"/>
      <use x="532.958984" xlink:href="#DejaVuSans-61"/>
      <use x="594.238281" xlink:href="#DejaVuSans-72"/>
      <use x="635.351562" xlink:href="#DejaVuSans-73"/>
      <use x="687.451172" xlink:href="#DejaVuSans-69"/>
      <use x="715.234375" xlink:href="#DejaVuSans-74"/>
      <use x="754.443359" xlink:href="#DejaVuSans-79"/>
     </g>
    </g>
   </g>
   <g id="matplotlib.axis_2">
    <g id="ytick_1">
     <g id="line2d_7">
      <defs>
       <path d="M 0 0 
L -3.5 0 
" id="m74ebaa93c4" style="stroke:#000000;stroke-width:0.8;"/>
      </defs>
      <g>
       <use style="stroke:#000000;stroke-width:0.8;" x="144" xlink:href="#m74ebaa93c4" y="544.761818"/>
      </g>
     </g>
     <g id="text_8">
      <!-- $\mathdefault{10^{0}}$ -->
      <g transform="translate(84.2 556.159474)scale(0.3 -0.3)">
       <use transform="translate(0 0.765625)" xlink:href="#DejaVuSans-31"/>
       <use transform="translate(63.623047 0.765625)" xlink:href="#DejaVuSans-30"/>
       <use transform="translate(128.203125 39.046875)scale(0.7)" xlink:href="#DejaVuSans-30"/>
      </g>
     </g>
    </g>
    <g id="ytick_2">
     <g id="line2d_8">
      <g>
       <use style="stroke:#000000;stroke-width:0.8;" x="144" xlink:href="#m74ebaa93c4" y="408.601358"/>
      </g>
     </g>
     <g id="text_9">
      <!-- $\mathdefault{10^{1}}$ -->
      <g transform="translate(84.2 419.999014)scale(0.3 -0.3)">
       <use transform="translate(0 0.684375)" xlink:href="#DejaVuSans-31"/>
       <use transform="translate(63.623047 0.684375)" xlink:href="#DejaVuSans-30"/>
       <use transform="translate(128.203125 38.965625)scale(0.7)" xlink:href="#DejaVuSans-31"/>
      </g>
     </g>
    </g>
    <g id="ytick_3">
     <g id="line2d_9">
      <g>
       <use style="stroke:#000000;stroke-width:0.8;" x="144" xlink:href="#m74ebaa93c4" y="272.440897"/>
      </g>
     </g>
     <g id="text_10">
      <!-- $\mathdefault{10^{2}}$ -->
      <g transform="translate(84.2 283.838554)scale(0.3 -0.3)">
       <use transform="translate(0 0.765625)" xlink:href="#DejaVuSans-31"/>
       <use transform="translate(63.623047 0.765625)" xlink:href="#DejaVuSans-30"/>
       <use transform="translate(128.203125 39.046875)scale(0.7)" xlink:href="#DejaVuSans-32"/>
      </g>
     </g>
    </g>
    <g id="ytick_4">
     <g id="line2d_10">
      <g>
       <use style="stroke:#000000;stroke-width:0.8;" x="144" xlink:href="#m74ebaa93c4" y="136.280437"/>
      </g>
     </g>
     <g id="text_11">
      <!-- $\mathdefault{10^{3}}$ -->
      <g transform="translate(84.2 147.678093)scale(0.3 -0.3)">
       <defs>
        <path d="M 2597 2516 
Q 3050 2419 3304 2112 
Q 3559 1806 3559 1356 
Q 3559 666 3084 287 
Q 2609 -91 1734 -91 
Q 1441 -91 1130 -33 
Q 819 25 488 141 
L 488 750 
Q 750 597 1062 519 
Q 1375 441 1716 441 
Q 2309 441 2620 675 
Q 2931 909 2931 1356 
Q 2931 1769 2642 2001 
Q 2353 2234 1838 2234 
L 1294 2234 
L 1294 2753 
L 1863 2753 
Q 2328 2753 2575 2939 
Q 2822 3125 2822 3475 
Q 2822 3834 2567 4026 
Q 2313 4219 1838 4219 
Q 1578 4219 1281 4162 
Q 984 4106 628 3988 
L 628 4550 
Q 988 4650 1302 4700 
Q 1616 4750 1894 4750 
Q 2613 4750 3031 4423 
Q 3450 4097 3450 3541 
Q 3450 3153 3228 2886 
Q 3006 2619 2597 2516 
z
" id="DejaVuSans-33" transform="scale(0.015625)"/>
       </defs>
       <use transform="translate(0 0.765625)" xlink:href="#DejaVuSans-31"/>
       <use transform="translate(63.623047 0.765625)" xlink:href="#DejaVuSans-30"/>
       <use transform="translate(128.203125 39.046875)scale(0.7)" xlink:href="#DejaVuSans-33"/>
      </g>
     </g>
    </g>
    <g id="ytick_5">
     <g id="line2d_11">
      <defs>
       <path d="M 0 0 
L -2 0 
" id="m527bb63f18" style="stroke:#000000;stroke-width:0.6;"/>
      </defs>
      <g>
       <use style="stroke:#000000;stroke-width:0.6;" x="144" xlink:href="#m527bb63f18" y="565.85334"/>
      </g>
     </g>
    </g>
    <g id="ytick_6">
     <g id="line2d_12">
      <g>
       <use style="stroke:#000000;stroke-width:0.6;" x="144" xlink:href="#m527bb63f18" y="557.95713"/>
      </g>
     </g>
    </g>
    <g id="ytick_7">
     <g id="line2d_13">
      <g>
       <use style="stroke:#000000;stroke-width:0.6;" x="144" xlink:href="#m527bb63f18" y="550.992179"/>
      </g>
     </g>
    </g>
    <g id="ytick_8">
     <g id="line2d_14">
      <g>
       <use style="stroke:#000000;stroke-width:0.6;" x="144" xlink:href="#m527bb63f18" y="503.773435"/>
      </g>
     </g>
    </g>
    <g id="ytick_9">
     <g id="line2d_15">
      <g>
       <use style="stroke:#000000;stroke-width:0.6;" x="144" xlink:href="#m527bb63f18" y="479.796768"/>
      </g>
     </g>
    </g>
    <g id="ytick_10">
     <g id="line2d_16">
      <g>
       <use style="stroke:#000000;stroke-width:0.6;" x="144" xlink:href="#m527bb63f18" y="462.785053"/>
      </g>
     </g>
    </g>
    <g id="ytick_11">
     <g id="line2d_17">
      <g>
       <use style="stroke:#000000;stroke-width:0.6;" x="144" xlink:href="#m527bb63f18" y="449.589741"/>
      </g>
     </g>
    </g>
    <g id="ytick_12">
     <g id="line2d_18">
      <g>
       <use style="stroke:#000000;stroke-width:0.6;" x="144" xlink:href="#m527bb63f18" y="438.808386"/>
      </g>
     </g>
    </g>
    <g id="ytick_13">
     <g id="line2d_19">
      <g>
       <use style="stroke:#000000;stroke-width:0.6;" x="144" xlink:href="#m527bb63f18" y="429.69288"/>
      </g>
     </g>
    </g>
    <g id="ytick_14">
     <g id="line2d_20">
      <g>
       <use style="stroke:#000000;stroke-width:0.6;" x="144" xlink:href="#m527bb63f18" y="421.79667"/>
      </g>
     </g>
    </g>
    <g id="ytick_15">
     <g id="line2d_21">
      <g>
       <use style="stroke:#000000;stroke-width:0.6;" x="144" xlink:href="#m527bb63f18" y="414.831719"/>
      </g>
     </g>
    </g>
    <g id="ytick_16">
     <g id="line2d_22">
      <g>
       <use style="stroke:#000000;stroke-width:0.6;" x="144" xlink:href="#m527bb63f18" y="367.612975"/>
      </g>
     </g>
    </g>
    <g id="ytick_17">
     <g id="line2d_23">
      <g>
       <use style="stroke:#000000;stroke-width:0.6;" x="144" xlink:href="#m527bb63f18" y="343.636308"/>
      </g>
     </g>
    </g>
    <g id="ytick_18">
     <g id="line2d_24">
      <g>
       <use style="stroke:#000000;stroke-width:0.6;" x="144" xlink:href="#m527bb63f18" y="326.624592"/>
      </g>
     </g>
    </g>
    <g id="ytick_19">
     <g id="line2d_25">
      <g>
       <use style="stroke:#000000;stroke-width:0.6;" x="144" xlink:href="#m527bb63f18" y="313.42928"/>
      </g>
     </g>
    </g>
    <g id="ytick_20">
     <g id="line2d_26">
      <g>
       <use style="stroke:#000000;stroke-width:0.6;" x="144" xlink:href="#m527bb63f18" y="302.647925"/>
      </g>
     </g>
    </g>
    <g id="ytick_21">
     <g id="line2d_27">
      <g>
       <use style="stroke:#000000;stroke-width:0.6;" x="144" xlink:href="#m527bb63f18" y="293.53242"/>
      </g>
     </g>
    </g>
    <g id="ytick_22">
     <g id="line2d_28">
      <g>
       <use style="stroke:#000000;stroke-width:0.6;" x="144" xlink:href="#m527bb63f18" y="285.636209"/>
      </g>
     </g>
    </g>
    <g id="ytick_23">
     <g id="line2d_29">
      <g>
       <use style="stroke:#000000;stroke-width:0.6;" x="144" xlink:href="#m527bb63f18" y="278.671258"/>
      </g>
     </g>
    </g>
    <g id="ytick_24">
     <g id="line2d_30">
      <g>
       <use style="stroke:#000000;stroke-width:0.6;" x="144" xlink:href="#m527bb63f18" y="231.452515"/>
      </g>
     </g>
    </g>
    <g id="ytick_25">
     <g id="line2d_31">
      <g>
       <use style="stroke:#000000;stroke-width:0.6;" x="144" xlink:href="#m527bb63f18" y="207.475848"/>
      </g>
     </g>
    </g>
    <g id="ytick_26">
     <g id="line2d_32">
      <g>
       <use style="stroke:#000000;stroke-width:0.6;" x="144" xlink:href="#m527bb63f18" y="190.464132"/>
      </g>
     </g>
    </g>
    <g id="ytick_27">
     <g id="line2d_33">
      <g>
       <use style="stroke:#000000;stroke-width:0.6;" x="144" xlink:href="#m527bb63f18" y="177.26882"/>
      </g>
     </g>
    </g>
    <g id="ytick_28">
     <g id="line2d_34">
      <g>
       <use style="stroke:#000000;stroke-width:0.6;" x="144" xlink:href="#m527bb63f18" y="166.487465"/>
      </g>
     </g>
    </g>
    <g id="ytick_29">
     <g id="line2d_35">
      <g>
       <use style="stroke:#000000;stroke-width:0.6;" x="144" xlink:href="#m527bb63f18" y="157.371959"/>
      </g>
     </g>
    </g>
    <g id="ytick_30">
     <g id="line2d_36">
      <g>
       <use style="stroke:#000000;stroke-width:0.6;" x="144" xlink:href="#m527bb63f18" y="149.475749"/>
      </g>
     </g>
    </g>
    <g id="ytick_31">
     <g id="line2d_37">
      <g>
       <use style="stroke:#000000;stroke-width:0.6;" x="144" xlink:href="#m527bb63f18" y="142.510798"/>
      </g>
     </g>
    </g>
    <g id="ytick_32">
     <g id="line2d_38">
      <g>
       <use style="stroke:#000000;stroke-width:0.6;" x="144" xlink:href="#m527bb63f18" y="95.292054"/>
      </g>
     </g>
    </g>
    <g id="text_12">
     <!-- Events -->
     <g transform="translate(73.960938 373.166719)rotate(-90)scale(0.3 -0.3)">
      <defs>
       <path d="M 628 4666 
L 3578 4666 
L 3578 4134 
L 1259 4134 
L 1259 2753 
L 3481 2753 
L 3481 2222 
L 1259 2222 
L 1259 531 
L 3634 531 
L 3634 0 
L 628 0 
L 628 4666 
z
" id="DejaVuSans-45" transform="scale(0.015625)"/>
       <path d="M 191 3500 
L 800 3500 
L 1894 563 
L 2988 3500 
L 3597 3500 
L 2284 0 
L 1503 0 
L 191 3500 
z
" id="DejaVuSans-76" transform="scale(0.015625)"/>
       <path d="M 3513 2113 
L 3513 0 
L 2938 0 
L 2938 2094 
Q 2938 2591 2744 2837 
Q 2550 3084 2163 3084 
Q 1697 3084 1428 2787 
Q 1159 2491 1159 1978 
L 1159 0 
L 581 0 
L 581 3500 
L 1159 3500 
L 1159 2956 
Q 1366 3272 1645 3428 
Q 1925 3584 2291 3584 
Q 2894 3584 3203 3211 
Q 3513 2838 3513 2113 
z
" id="DejaVuSans-6e" transform="scale(0.015625)"/>
      </defs>
      <use xlink:href="#DejaVuSans-45"/>
      <use x="63.183594" xlink:href="#DejaVuSans-76"/>
      <use x="122.363281" xlink:href="#DejaVuSans-65"/>
      <use x="183.886719" xlink:href="#DejaVuSans-6e"/>
      <use x="247.265625" xlink:href="#DejaVuSans-74"/>
      <use x="286.474609" xlink:href="#DejaVuSans-73"/>
     </g>
    </g>
   </g>
   <g id="line2d_39">
    <path clip-path="url(#pd73053be9b)" d="M 184.581818 649 
L 184.581818 162.210874 
L 192.863822 162.210874 
L 192.863822 229.133247 
L 209.427829 229.133247 
L 209.427829 186.187541 
L 225.991837 186.187541 
L 225.991837 225.548287 
L 242.555844 225.548287 
L 242.555844 186.601548 
L 259.119852 186.601548 
L 259.119852 230.572095 
L 275.683859 230.572095 
L 275.683859 188.002887 
L 292.247866 188.002887 
L 292.247866 219.451864 
L 308.811874 219.451864 
L 308.811874 222.421546 
L 325.375881 222.421546 
L 325.375881 171.204266 
L 341.939889 171.204266 
L 341.939889 211.979554 
L 358.503896 211.979554 
L 358.503896 161.663335 
L 375.067904 161.663335 
L 375.067904 207.871393 
L 391.631911 207.871393 
L 391.631911 155.052692 
L 408.195918 155.052692 
L 408.195918 193.497296 
L 424.759926 193.497296 
L 424.759926 147.871529 
L 441.323933 147.871529 
L 441.323933 187.298066 
L 457.887941 187.298066 
L 457.887941 183.499181 
L 474.451948 183.499181 
L 474.451948 142.840235 
L 491.015955 142.840235 
L 491.015955 189.14837 
L 507.579963 189.14837 
L 507.579963 160.941082 
L 524.14397 160.941082 
L 524.14397 226.08587 
L 540.707978 226.08587 
L 540.707978 215.035113 
L 557.271985 215.035113 
L 557.271985 289.452613 
L 573.835993 289.452613 
L 573.835993 322.348001 
L 590.4 322.348001 
L 590.4 318.359946 
L 606.964007 318.359946 
L 606.964007 414.831719 
L 623.528015 414.831719 
L 623.528015 429.69288 
L 640.092022 429.69288 
L 640.092022 544.761818 
L 656.65603 544.761818 
L 656.65603 544.761818 
L 673.220037 544.761818 
L 673.220037 649 
" style="fill:none;stroke:#800080;stroke-linecap:square;stroke-width:3;"/>
   </g>
   <g id="line2d_40">
    <path clip-path="url(#pd73053be9b)" d="M 184.581818 649 
L 184.581818 161.936471 
L 192.863822 161.936471 
L 192.863822 248.859775 
L 209.427829 248.859775 
L 209.427829 201.30465 
L 225.991837 201.30465 
L 225.991837 243.18766 
L 242.555844 243.18766 
L 242.555844 191.357858 
L 259.119852 191.357858 
L 259.119852 234.485679 
L 275.683859 234.485679 
L 275.683859 189.003965 
L 292.247866 189.003965 
L 292.247866 227.728579 
L 308.811874 227.728579 
L 308.811874 227.175924 
L 325.375881 227.175924 
L 325.375881 175.063381 
L 341.939889 175.063381 
L 341.939889 212.836579 
L 358.503896 212.836579 
L 358.503896 164.835306 
L 375.067904 164.835306 
L 375.067904 207.475848 
L 391.631911 207.475848 
L 391.631911 157.966273 
L 408.195918 157.966273 
L 408.195918 194.755508 
L 424.759926 194.755508 
L 424.759926 150.070063 
L 441.323933 150.070063 
L 441.323933 188.859912 
L 457.887941 188.859912 
L 457.887941 183.762583 
L 474.451948 183.762583 
L 474.451948 144.515523 
L 491.015955 144.515523 
L 491.015955 190.760542 
L 507.579963 190.760542 
L 507.579963 158.480483 
L 524.14397 158.480483 
L 524.14397 210.095488 
L 540.707978 210.095488 
L 540.707978 192.5709 
L 557.271985 192.5709 
L 557.271985 249.257984 
L 573.835993 249.257984 
L 573.835993 276.732274 
L 590.4 276.732274 
L 590.4 256.023495 
L 606.964007 256.023495 
L 606.964007 331.234749 
L 623.528015 331.234749 
L 623.528015 328.121729 
L 640.092022 328.121729 
L 640.092022 402.965311 
L 656.65603 402.965311 
L 656.65603 414.831719 
L 673.220037 414.831719 
L 673.220037 649 
M 689.784045 649 
L 689.784045 544.761818 
L 706.348052 544.761818 
L 706.348052 649 
" style="fill:none;stroke:#0000ff;stroke-linecap:square;stroke-width:3;"/>
   </g>
   <g id="line2d_41">
    <path clip-path="url(#pd73053be9b)" d="M 184.581818 649 
L 184.581818 99.998182 
L 192.863822 99.998182 
L 192.863822 154.486814 
L 209.427829 154.486814 
L 209.427829 137.716955 
L 225.991837 137.716955 
L 225.991837 309.983622 
L 242.555844 309.983622 
L 242.555844 283.459262 
L 259.119852 283.459262 
L 259.119852 322.348001 
L 275.683859 322.348001 
L 275.683859 279.331977 
L 292.247866 279.331977 
L 292.247866 314.623942 
L 308.811874 314.623942 
L 308.811874 323.739447 
L 325.375881 323.739447 
L 325.375881 266.80485 
L 341.939889 266.80485 
L 341.939889 320.988545 
L 358.503896 320.988545 
L 358.503896 270.12163 
L 375.067904 270.12163 
L 375.067904 301.670486 
L 391.631911 301.670486 
L 391.631911 256.473184 
L 408.195918 256.473184 
L 408.195918 304.652651 
L 424.759926 304.652651 
L 424.759926 245.391657 
L 441.323933 245.391657 
L 441.323933 278.01784 
L 457.887941 278.01784 
L 457.887941 283.459262 
L 474.451948 283.459262 
L 474.451948 246.525246 
L 491.015955 246.525246 
L 491.015955 267.889903 
L 507.579963 267.889903 
L 507.579963 233.253681 
L 524.14397 233.253681 
L 524.14397 283.459262 
L 540.707978 283.459262 
L 540.707978 229.704592 
L 557.271985 229.704592 
L 557.271985 268.439989 
L 573.835993 268.439989 
L 573.835993 266.2697 
L 590.4 266.2697 
L 590.4 219.210993 
L 606.964007 219.210993 
L 606.964007 260.682103 
L 623.528015 260.682103 
L 623.528015 214.588818 
L 640.092022 214.588818 
L 640.092022 244.647827 
L 656.65603 244.647827 
L 656.65603 208.269601 
L 673.220037 208.269601 
L 673.220037 238.012312 
L 689.784045 238.012312 
L 689.784045 194.280536 
L 706.348052 194.280536 
L 706.348052 237.682876 
L 722.912059 237.682876 
L 722.912059 236.062672 
L 739.476067 236.062672 
L 739.476067 186.879171 
L 756.040074 186.879171 
L 756.040074 225.816468 
L 772.604082 225.816468 
L 772.604082 184.426268 
L 789.168089 184.426268 
L 789.168089 223.964253 
L 805.732096 223.964253 
L 805.732096 183.762583 
L 822.296104 183.762583 
L 822.296104 238.343595 
L 838.860111 238.343595 
L 838.860111 207.673289 
L 855.424119 207.673289 
L 855.424119 268.439989 
L 871.988126 268.439989 
L 871.988126 284.901619 
L 888.552134 284.901619 
L 888.552134 291.86657 
L 905.116141 291.86657 
L 905.116141 408.601358 
L 921.680148 408.601358 
L 921.680148 649 
" style="fill:none;stroke:#f0e68c;stroke-linecap:square;stroke-width:3;"/>
   </g>
   <g id="patch_3">
    <path d="M 144 567 
L 144 77.76 
" style="fill:none;stroke:#000000;stroke-linecap:square;stroke-linejoin:miter;stroke-width:0.8;"/>
   </g>
   <g id="patch_4">
    <path d="M 1036.8 567 
L 1036.8 77.76 
" style="fill:none;stroke:#000000;stroke-linecap:square;stroke-linejoin:miter;stroke-width:0.8;"/>
   </g>
   <g id="patch_5">
    <path d="M 144 567 
L 1036.8 567 
" style="fill:none;stroke:#000000;stroke-linecap:square;stroke-linejoin:miter;stroke-width:0.8;"/>
   </g>
   <g id="patch_6">
    <path d="M 144 77.76 
L 1036.8 77.76 
" style="fill:none;stroke:#000000;stroke-linecap:square;stroke-linejoin:miter;stroke-width:0.8;"/>
   </g>
   <g id="legend_1">
    <g id="patch_7">
     <path d="M 674.4 181.869375 
L 1022.8 181.869375 
Q 1026.8 181.869375 1026.8 177.869375 
L 1026.8 91.76 
Q 1026.8 87.76 1022.8 87.76 
L 674.4 87.76 
Q 670.4 87.76 670.4 91.76 
L 670.4 177.869375 
Q 670.4 181.869375 674.4 181.869375 
z
" style="fill:#ffffff;opacity:0.8;stroke:#cccccc;stroke-linejoin:miter;"/>
    </g>
    <g id="line2d_42">
     <path d="M 678.4 103.956875 
L 718.4 103.956875 
" style="fill:none;stroke:#800080;stroke-linecap:square;stroke-width:3;"/>
    </g>
    <g id="line2d_43"/>
    <g id="text_13">
     <!-- $e^{+}$ DVAE -->
     <g transform="translate(734.4 110.956875)scale(0.2 -0.2)">
      <defs>
       <path d="M 3078 2063 
Q 3088 2113 3092 2166 
Q 3097 2219 3097 2272 
Q 3097 2653 2873 2875 
Q 2650 3097 2266 3097 
Q 1838 3097 1509 2826 
Q 1181 2556 1013 2059 
L 3078 2063 
z
M 3578 1613 
L 903 1613 
Q 884 1494 878 1425 
Q 872 1356 872 1306 
Q 872 872 1139 634 
Q 1406 397 1894 397 
Q 2269 397 2603 481 
Q 2938 566 3225 728 
L 3116 159 
Q 2806 34 2476 -28 
Q 2147 -91 1806 -91 
Q 1078 -91 686 257 
Q 294 606 294 1247 
Q 294 1794 489 2264 
Q 684 2734 1063 3103 
Q 1306 3334 1642 3459 
Q 1978 3584 2356 3584 
Q 2950 3584 3301 3228 
Q 3653 2872 3653 2272 
Q 3653 2128 3634 1964 
Q 3616 1800 3578 1613 
z
" id="DejaVuSans-Oblique-65" transform="scale(0.015625)"/>
       <path d="M 2944 4013 
L 2944 2272 
L 4684 2272 
L 4684 1741 
L 2944 1741 
L 2944 0 
L 2419 0 
L 2419 1741 
L 678 1741 
L 678 2272 
L 2419 2272 
L 2419 4013 
L 2944 4013 
z
" id="DejaVuSans-2b" transform="scale(0.015625)"/>
       <path d="M 1259 4147 
L 1259 519 
L 2022 519 
Q 2988 519 3436 956 
Q 3884 1394 3884 2338 
Q 3884 3275 3436 3711 
Q 2988 4147 2022 4147 
L 1259 4147 
z
M 628 4666 
L 1925 4666 
Q 3281 4666 3915 4102 
Q 4550 3538 4550 2338 
Q 4550 1131 3912 565 
Q 3275 0 1925 0 
L 628 0 
L 628 4666 
z
" id="DejaVuSans-44" transform="scale(0.015625)"/>
       <path d="M 1831 0 
L 50 4666 
L 709 4666 
L 2188 738 
L 3669 4666 
L 4325 4666 
L 2547 0 
L 1831 0 
z
" id="DejaVuSans-56" transform="scale(0.015625)"/>
       <path d="M 2188 4044 
L 1331 1722 
L 3047 1722 
L 2188 4044 
z
M 1831 4666 
L 2547 4666 
L 4325 0 
L 3669 0 
L 3244 1197 
L 1141 1197 
L 716 0 
L 50 0 
L 1831 4666 
z
" id="DejaVuSans-41" transform="scale(0.015625)"/>
      </defs>
      <use transform="translate(0 0.826562)" xlink:href="#DejaVuSans-Oblique-65"/>
      <use transform="translate(66.173333 39.107812)scale(0.7)" xlink:href="#DejaVuSans-2b"/>
      <use transform="translate(127.560052 0.826562)" xlink:href="#DejaVuSans-20"/>
      <use transform="translate(159.347161 0.826562)" xlink:href="#DejaVuSans-44"/>
      <use transform="translate(236.349115 0.826562)" xlink:href="#DejaVuSans-56"/>
      <use transform="translate(304.757318 0.826562)" xlink:href="#DejaVuSans-41"/>
      <use transform="translate(373.165521 0.826562)" xlink:href="#DejaVuSans-45"/>
     </g>
    </g>
    <g id="line2d_44">
     <path d="M 678.4 133.313125 
L 718.4 133.313125 
" style="fill:none;stroke:#0000ff;stroke-linecap:square;stroke-width:3;"/>
    </g>
    <g id="line2d_45"/>
    <g id="text_14">
     <!-- $\gamma$   DVAE -->
     <g transform="translate(734.4 140.313125)scale(0.2 -0.2)">
      <defs>
       <path d="M 1491 2950 
L 1838 788 
L 3456 3500 
L 4066 3500 
L 1972 0 
L 1713 -1331 
L 1138 -1331 
L 1397 0 
L 988 2613 
Q 925 3006 628 3006 
L 475 3006 
L 569 3500 
L 788 3500 
Q 1403 3500 1491 2950 
z
" id="DejaVuSans-Oblique-3b3" transform="scale(0.015625)"/>
      </defs>
      <use transform="translate(0 0.09375)" xlink:href="#DejaVuSans-Oblique-3b3"/>
      <use transform="translate(59.179688 0.09375)" xlink:href="#DejaVuSans-20"/>
      <use transform="translate(90.966797 0.09375)" xlink:href="#DejaVuSans-20"/>
      <use transform="translate(122.753906 0.09375)" xlink:href="#DejaVuSans-20"/>
      <use transform="translate(154.541016 0.09375)" xlink:href="#DejaVuSans-44"/>
      <use transform="translate(231.542969 0.09375)" xlink:href="#DejaVuSans-56"/>
      <use transform="translate(299.951172 0.09375)" xlink:href="#DejaVuSans-41"/>
      <use transform="translate(368.359375 0.09375)" xlink:href="#DejaVuSans-45"/>
     </g>
    </g>
    <g id="line2d_46">
     <path d="M 678.4 162.71 
L 718.4 162.71 
" style="fill:none;stroke:#f0e68c;stroke-linecap:square;stroke-width:3;"/>
    </g>
    <g id="line2d_47"/>
    <g id="text_15">
     <!-- $\pi^{+}$ DVAE -->
     <g transform="translate(734.4 169.71)scale(0.2 -0.2)">
      <defs>
       <path d="M 584 3500 
L 3938 3500 
L 3825 2925 
L 3384 2925 
L 2966 775 
Q 2922 550 2981 450 
Q 3038 353 3209 353 
Q 3256 353 3325 363 
Q 3397 369 3419 372 
L 3338 -44 
Q 3222 -84 3103 -103 
Q 2981 -122 2866 -122 
Q 2491 -122 2388 81 
Q 2284 288 2391 838 
L 2797 2925 
L 1506 2925 
L 938 0 
L 350 0 
L 919 2925 
L 472 2925 
L 584 3500 
z
" id="DejaVuSans-Oblique-3c0" transform="scale(0.015625)"/>
      </defs>
      <use transform="translate(0 0.826562)" xlink:href="#DejaVuSans-Oblique-3c0"/>
      <use transform="translate(64.671224 39.107812)scale(0.7)" xlink:href="#DejaVuSans-2b"/>
      <use transform="translate(126.057943 0.826562)" xlink:href="#DejaVuSans-20"/>
      <use transform="translate(157.845052 0.826562)" xlink:href="#DejaVuSans-44"/>
      <use transform="translate(234.847005 0.826562)" xlink:href="#DejaVuSans-56"/>
      <use transform="translate(303.255208 0.826562)" xlink:href="#DejaVuSans-41"/>
      <use transform="translate(371.663411 0.826562)" xlink:href="#DejaVuSans-45"/>
     </g>
    </g>
    <g id="patch_8">
     <path d="M 861.8 110.956875 
L 901.8 110.956875 
L 901.8 96.956875 
L 861.8 96.956875 
z
" style="fill:#800080;opacity:0.3;stroke:#800080;stroke-linejoin:miter;"/>
    </g>
    <g id="text_16">
     <!-- $e^{+}$ GEANT -->
     <g transform="translate(917.8 110.956875)scale(0.2 -0.2)">
      <defs>
       <path d="M 3809 666 
L 3809 1919 
L 2778 1919 
L 2778 2438 
L 4434 2438 
L 4434 434 
Q 4069 175 3628 42 
Q 3188 -91 2688 -91 
Q 1594 -91 976 548 
Q 359 1188 359 2328 
Q 359 3472 976 4111 
Q 1594 4750 2688 4750 
Q 3144 4750 3555 4637 
Q 3966 4525 4313 4306 
L 4313 3634 
Q 3963 3931 3569 4081 
Q 3175 4231 2741 4231 
Q 1884 4231 1454 3753 
Q 1025 3275 1025 2328 
Q 1025 1384 1454 906 
Q 1884 428 2741 428 
Q 3075 428 3337 486 
Q 3600 544 3809 666 
z
" id="DejaVuSans-47" transform="scale(0.015625)"/>
       <path d="M 628 4666 
L 1478 4666 
L 3547 763 
L 3547 4666 
L 4159 4666 
L 4159 0 
L 3309 0 
L 1241 3903 
L 1241 0 
L 628 0 
L 628 4666 
z
" id="DejaVuSans-4e" transform="scale(0.015625)"/>
       <path d="M -19 4666 
L 3928 4666 
L 3928 4134 
L 2272 4134 
L 2272 0 
L 1638 0 
L 1638 4134 
L -19 4134 
L -19 4666 
z
" id="DejaVuSans-54" transform="scale(0.015625)"/>
      </defs>
      <use transform="translate(0 0.826562)" xlink:href="#DejaVuSans-Oblique-65"/>
      <use transform="translate(66.173333 39.107812)scale(0.7)" xlink:href="#DejaVuSans-2b"/>
      <use transform="translate(127.560052 0.826562)" xlink:href="#DejaVuSans-20"/>
      <use transform="translate(159.347161 0.826562)" xlink:href="#DejaVuSans-47"/>
      <use transform="translate(236.837396 0.826562)" xlink:href="#DejaVuSans-45"/>
      <use transform="translate(300.02099 0.826562)" xlink:href="#DejaVuSans-41"/>
      <use transform="translate(368.429193 0.826562)" xlink:href="#DejaVuSans-4e"/>
      <use transform="translate(443.23388 0.826562)" xlink:href="#DejaVuSans-54"/>
     </g>
    </g>
    <g id="patch_9">
     <path d="M 861.8 140.313125 
L 901.8 140.313125 
L 901.8 126.313125 
L 861.8 126.313125 
z
" style="fill:#0000ff;opacity:0.3;stroke:#0000ff;stroke-linejoin:miter;"/>
    </g>
    <g id="text_17">
     <!-- $\gamma$   GEANT -->
     <g transform="translate(917.8 140.313125)scale(0.2 -0.2)">
      <use transform="translate(0 0.78125)" xlink:href="#DejaVuSans-Oblique-3b3"/>
      <use transform="translate(59.179688 0.78125)" xlink:href="#DejaVuSans-20"/>
      <use transform="translate(90.966797 0.78125)" xlink:href="#DejaVuSans-20"/>
      <use transform="translate(122.753906 0.78125)" xlink:href="#DejaVuSans-20"/>
      <use transform="translate(154.541016 0.78125)" xlink:href="#DejaVuSans-47"/>
      <use transform="translate(232.03125 0.78125)" xlink:href="#DejaVuSans-45"/>
      <use transform="translate(295.214844 0.78125)" xlink:href="#DejaVuSans-41"/>
      <use transform="translate(363.623047 0.78125)" xlink:href="#DejaVuSans-4e"/>
      <use transform="translate(438.427734 0.78125)" xlink:href="#DejaVuSans-54"/>
     </g>
    </g>
    <g id="patch_10">
     <path d="M 861.8 169.71 
L 901.8 169.71 
L 901.8 155.71 
L 861.8 155.71 
z
" style="fill:#f0e68c;opacity:0.3;stroke:#f0e68c;stroke-linejoin:miter;"/>
    </g>
    <g id="text_18">
     <!-- $\pi^{+}$ GEANT -->
     <g transform="translate(917.8 169.71)scale(0.2 -0.2)">
      <use transform="translate(0 0.826562)" xlink:href="#DejaVuSans-Oblique-3c0"/>
      <use transform="translate(64.671224 39.107812)scale(0.7)" xlink:href="#DejaVuSans-2b"/>
      <use transform="translate(126.057943 0.826562)" xlink:href="#DejaVuSans-20"/>
      <use transform="translate(157.845052 0.826562)" xlink:href="#DejaVuSans-47"/>
      <use transform="translate(235.335286 0.826562)" xlink:href="#DejaVuSans-45"/>
      <use transform="translate(298.51888 0.826562)" xlink:href="#DejaVuSans-41"/>
      <use transform="translate(366.927083 0.826562)" xlink:href="#DejaVuSans-4e"/>
      <use transform="translate(441.731771 0.826562)" xlink:href="#DejaVuSans-54"/>
     </g>
    </g>
   </g>
  </g>
 </g>
 <defs>
  <clipPath id="pd73053be9b">
   <rect height="489.24" width="892.8" x="144" y="77.76"/>
  </clipPath>
 </defs>
</svg>
