<?xml version="1.0" encoding="utf-8" standalone="no"?>
<!DOCTYPE svg PUBLIC "-//W3C//DTD SVG 1.1//EN"
  "http://www.w3.org/Graphics/SVG/1.1/DTD/svg11.dtd">
<svg height="648pt" version="1.1" viewBox="0 0 1152 648" width="1152pt" xmlns="http://www.w3.org/2000/svg" xmlns:xlink="http://www.w3.org/1999/xlink">
 <metadata>
  <rdf:RDF xmlns:cc="http://creativecommons.org/ns#" xmlns:dc="http://purl.org/dc/elements/1.1/" xmlns:rdf="http://www.w3.org/1999/02/22-rdf-syntax-ns#">
   <cc:Work>
    <dc:type rdf:resource="http://purl.org/dc/dcmitype/StillImage"/>
    <dc:date>2021-09-25T08:21:02.856441</dc:date>
    <dc:format>image/svg+xml</dc:format>
    <dc:creator>
     <cc:Agent>
      <dc:title>Matplotlib v3.4.2, https://matplotlib.org/</dc:title>
     </cc:Agent>
    </dc:creator>
   </cc:Work>
  </rdf:RDF>
 </metadata>
 <defs>
  <style type="text/css">*{stroke-linecap:butt;stroke-linejoin:round;}</style>
 </defs>
 <g id="figure_1">
  <g id="patch_1">
   <path d="M 0 648 
L 1152 648 
L 1152 0 
L 0 0 
z
" style="fill:none;"/>
  </g>
  <g id="axes_1">
   <g id="patch_2">
    <path d="M 144 567 
L 1036.8 567 
L 1036.8 77.76 
L 144 77.76 
z
" style="fill:#ffffff;"/>
   </g>
   <g id="PolyCollection_1">
    <path clip-path="url(#p5d9ca66e27)" d="M 184.581818 123206.726773 
L 184.581818 123206.726773 
L 184.581818 123206.726773 
L 184.581818 123206.726773 
L 192.863822 123206.726773 
L 192.863822 123206.726773 
L 209.427829 123206.726773 
L 209.427829 123206.726773 
L 225.991837 123206.726773 
L 225.991837 507.836887 
L 242.555844 507.836887 
L 242.555844 387.907389 
L 259.119852 387.907389 
L 259.119852 356.907605 
L 275.683859 356.907605 
L 275.683859 320.771895 
L 292.247866 320.771895 
L 292.247866 312.673776 
L 308.811874 312.673776 
L 308.811874 309.363928 
L 325.375881 309.363928 
L 325.375881 285.461373 
L 341.939889 285.461373 
L 341.939889 276.436228 
L 358.503896 276.436228 
L 358.503896 276.783274 
L 375.067904 276.783274 
L 375.067904 272.119048 
L 391.631911 272.119048 
L 391.631911 254.836528 
L 408.195918 254.836528 
L 408.195918 246.132813 
L 424.759926 246.132813 
L 424.759926 245.355114 
L 441.323933 245.355114 
L 441.323933 251.05367 
L 457.887941 251.05367 
L 457.887941 234.559927 
L 474.451948 234.559927 
L 474.451948 231.497508 
L 491.015955 231.497508 
L 491.015955 228.884217 
L 507.579963 228.884217 
L 507.579963 234.717768 
L 524.14397 234.717768 
L 524.14397 217.452358 
L 540.707978 217.452358 
L 540.707978 211.00036 
L 557.271985 211.00036 
L 557.271985 209.502471 
L 573.835993 209.502471 
L 573.835993 207.473759 
L 590.4 207.473759 
L 590.4 201.643485 
L 606.964007 201.643485 
L 606.964007 194.128029 
L 623.528015 194.128029 
L 623.528015 192.816218 
L 640.092022 192.816218 
L 640.092022 195.09595 
L 656.65603 195.09595 
L 656.65603 212.126215 
L 673.220037 212.126215 
L 673.220037 211.407014 
L 689.784045 211.407014 
L 689.784045 233.313755 
L 706.348052 233.313755 
L 706.348052 252.358341 
L 722.912059 252.358341 
L 722.912059 308.095502 
L 739.476067 308.095502 
L 739.476067 336.362819 
L 756.040074 336.362819 
L 756.040074 393.832536 
L 772.604082 393.832536 
L 772.604082 449.312257 
L 789.168089 449.312257 
L 789.168089 544.761818 
L 805.732096 544.761818 
L 805.732096 123206.726773 
L 822.296104 123206.726773 
L 822.296104 123206.726773 
L 838.860111 123206.726773 
L 838.860111 123206.726773 
L 855.424119 123206.726773 
L 855.424119 123206.726773 
L 871.988126 123206.726773 
L 871.988126 123206.726773 
L 888.552134 123206.726773 
L 888.552134 123206.726773 
L 905.116141 123206.726773 
L 905.116141 123206.726773 
L 921.680148 123206.726773 
L 921.680148 123206.726773 
L 938.244156 123206.726773 
L 938.244156 123206.726773 
L 954.808163 123206.726773 
L 954.808163 123206.726773 
L 971.372171 123206.726773 
L 971.372171 123206.726773 
L 987.936178 123206.726773 
L 987.936178 123206.726773 
L 996.218182 123206.726773 
L 996.218182 123206.726773 
L 996.218182 123206.726773 
L 996.218182 123206.726773 
L 996.218182 123206.726773 
L 996.218182 123206.726773 
L 996.218182 123206.726773 
L 987.936178 123206.726773 
L 987.936178 123206.726773 
L 971.372171 123206.726773 
L 971.372171 123206.726773 
L 954.808163 123206.726773 
L 954.808163 123206.726773 
L 938.244156 123206.726773 
L 938.244156 123206.726773 
L 921.680148 123206.726773 
L 921.680148 123206.726773 
L 905.116141 123206.726773 
L 905.116141 123206.726773 
L 888.552134 123206.726773 
L 888.552134 123206.726773 
L 871.988126 123206.726773 
L 871.988126 123206.726773 
L 855.424119 123206.726773 
L 855.424119 123206.726773 
L 838.860111 123206.726773 
L 838.860111 123206.726773 
L 822.296104 123206.726773 
L 822.296104 123206.726773 
L 805.732096 123206.726773 
L 805.732096 123206.726773 
L 789.168089 123206.726773 
L 789.168089 123206.726773 
L 772.604082 123206.726773 
L 772.604082 123206.726773 
L 756.040074 123206.726773 
L 756.040074 123206.726773 
L 739.476067 123206.726773 
L 739.476067 123206.726773 
L 722.912059 123206.726773 
L 722.912059 123206.726773 
L 706.348052 123206.726773 
L 706.348052 123206.726773 
L 689.784045 123206.726773 
L 689.784045 123206.726773 
L 673.220037 123206.726773 
L 673.220037 123206.726773 
L 656.65603 123206.726773 
L 656.65603 123206.726773 
L 640.092022 123206.726773 
L 640.092022 123206.726773 
L 623.528015 123206.726773 
L 623.528015 123206.726773 
L 606.964007 123206.726773 
L 606.964007 123206.726773 
L 590.4 123206.726773 
L 590.4 123206.726773 
L 573.835993 123206.726773 
L 573.835993 123206.726773 
L 557.271985 123206.726773 
L 557.271985 123206.726773 
L 540.707978 123206.726773 
L 540.707978 123206.726773 
L 524.14397 123206.726773 
L 524.14397 123206.726773 
L 507.579963 123206.726773 
L 507.579963 123206.726773 
L 491.015955 123206.726773 
L 491.015955 123206.726773 
L 474.451948 123206.726773 
L 474.451948 123206.726773 
L 457.887941 123206.726773 
L 457.887941 123206.726773 
L 441.323933 123206.726773 
L 441.323933 123206.726773 
L 424.759926 123206.726773 
L 424.759926 123206.726773 
L 408.195918 123206.726773 
L 408.195918 123206.726773 
L 391.631911 123206.726773 
L 391.631911 123206.726773 
L 375.067904 123206.726773 
L 375.067904 123206.726773 
L 358.503896 123206.726773 
L 358.503896 123206.726773 
L 341.939889 123206.726773 
L 341.939889 123206.726773 
L 325.375881 123206.726773 
L 325.375881 123206.726773 
L 308.811874 123206.726773 
L 308.811874 123206.726773 
L 292.247866 123206.726773 
L 292.247866 123206.726773 
L 275.683859 123206.726773 
L 275.683859 123206.726773 
L 259.119852 123206.726773 
L 259.119852 123206.726773 
L 242.555844 123206.726773 
L 242.555844 123206.726773 
L 225.991837 123206.726773 
L 225.991837 123206.726773 
L 209.427829 123206.726773 
L 209.427829 123206.726773 
L 192.863822 123206.726773 
L 192.863822 123206.726773 
L 184.581818 123206.726773 
L 184.581818 123206.726773 
L 184.581818 123206.726773 
z
" style="fill:#800080;fill-opacity:0.3;stroke:#800080;stroke-opacity:0.3;"/>
   </g>
   <g id="PolyCollection_2">
    <path clip-path="url(#p5d9ca66e27)" d="M 184.581818 123206.726773 
L 184.581818 123206.726773 
L 184.581818 123206.726773 
L 184.581818 459.024784 
L 192.863822 459.024784 
L 192.863822 404.175501 
L 209.427829 404.175501 
L 209.427829 449.312257 
L 225.991837 449.312257 
L 225.991837 367.25057 
L 242.555844 367.25057 
L 242.555844 358.497915 
L 259.119852 358.497915 
L 259.119852 318.438467 
L 275.683859 318.438467 
L 275.683859 294.36058 
L 292.247866 294.36058 
L 292.247866 282.667475 
L 308.811874 282.667475 
L 308.811874 278.19452 
L 325.375881 278.19452 
L 325.375881 260.680345 
L 341.939889 260.680345 
L 341.939889 259.40889 
L 358.503896 259.40889 
L 358.503896 248.331945 
L 375.067904 248.331945 
L 375.067904 252.80043 
L 391.631911 252.80043 
L 391.631911 241.628321 
L 408.195918 241.628321 
L 408.195918 238.145289 
L 424.759926 238.145289 
L 424.759926 231.646519 
L 441.323933 231.646519 
L 441.323933 233.467941 
L 457.887941 233.467941 
L 457.887941 226.123422 
L 474.451948 226.123422 
L 474.451948 218.49127 
L 491.015955 218.49127 
L 491.015955 218.49127 
L 507.579963 218.49127 
L 507.579963 221.119541 
L 524.14397 221.119541 
L 524.14397 212.750496 
L 540.707978 212.750496 
L 540.707978 204.166195 
L 557.271985 204.166195 
L 557.271985 204.974033 
L 573.835993 204.974033 
L 573.835993 213.700854 
L 590.4 213.700854 
L 590.4 205.519479 
L 606.964007 205.519479 
L 606.964007 207.095946 
L 623.528015 207.095946 
L 623.528015 209.601031 
L 640.092022 209.601031 
L 640.092022 216.883821 
L 656.65603 216.883821 
L 656.65603 232.397891 
L 673.220037 232.397891 
L 673.220037 237.976975 
L 689.784045 237.976975 
L 689.784045 263.861673 
L 706.348052 263.861673 
L 706.348052 281.134379 
L 722.912059 281.134379 
L 722.912059 336.362819 
L 739.476067 336.362819 
L 739.476067 348.249992 
L 756.040074 348.249992 
L 756.040074 412.387326 
L 772.604082 412.387326 
L 772.604082 486.237188 
L 789.168089 486.237188 
L 789.168089 507.836887 
L 805.732096 507.836887 
L 805.732096 123206.726773 
L 822.296104 123206.726773 
L 822.296104 123206.726773 
L 838.860111 123206.726773 
L 838.860111 123206.726773 
L 855.424119 123206.726773 
L 855.424119 123206.726773 
L 871.988126 123206.726773 
L 871.988126 544.761818 
L 888.552134 544.761818 
L 888.552134 123206.726773 
L 905.116141 123206.726773 
L 905.116141 123206.726773 
L 921.680148 123206.726773 
L 921.680148 123206.726773 
L 938.244156 123206.726773 
L 938.244156 123206.726773 
L 954.808163 123206.726773 
L 954.808163 123206.726773 
L 971.372171 123206.726773 
L 971.372171 123206.726773 
L 987.936178 123206.726773 
L 987.936178 123206.726773 
L 996.218182 123206.726773 
L 996.218182 123206.726773 
L 996.218182 123206.726773 
L 996.218182 123206.726773 
L 996.218182 123206.726773 
L 996.218182 123206.726773 
L 996.218182 123206.726773 
L 987.936178 123206.726773 
L 987.936178 123206.726773 
L 971.372171 123206.726773 
L 971.372171 123206.726773 
L 954.808163 123206.726773 
L 954.808163 123206.726773 
L 938.244156 123206.726773 
L 938.244156 123206.726773 
L 921.680148 123206.726773 
L 921.680148 123206.726773 
L 905.116141 123206.726773 
L 905.116141 123206.726773 
L 888.552134 123206.726773 
L 888.552134 123206.726773 
L 871.988126 123206.726773 
L 871.988126 123206.726773 
L 855.424119 123206.726773 
L 855.424119 123206.726773 
L 838.860111 123206.726773 
L 838.860111 123206.726773 
L 822.296104 123206.726773 
L 822.296104 123206.726773 
L 805.732096 123206.726773 
L 805.732096 123206.726773 
L 789.168089 123206.726773 
L 789.168089 123206.726773 
L 772.604082 123206.726773 
L 772.604082 123206.726773 
L 756.040074 123206.726773 
L 756.040074 123206.726773 
L 739.476067 123206.726773 
L 739.476067 123206.726773 
L 722.912059 123206.726773 
L 722.912059 123206.726773 
L 706.348052 123206.726773 
L 706.348052 123206.726773 
L 689.784045 123206.726773 
L 689.784045 123206.726773 
L 673.220037 123206.726773 
L 673.220037 123206.726773 
L 656.65603 123206.726773 
L 656.65603 123206.726773 
L 640.092022 123206.726773 
L 640.092022 123206.726773 
L 623.528015 123206.726773 
L 623.528015 123206.726773 
L 606.964007 123206.726773 
L 606.964007 123206.726773 
L 590.4 123206.726773 
L 590.4 123206.726773 
L 573.835993 123206.726773 
L 573.835993 123206.726773 
L 557.271985 123206.726773 
L 557.271985 123206.726773 
L 540.707978 123206.726773 
L 540.707978 123206.726773 
L 524.14397 123206.726773 
L 524.14397 123206.726773 
L 507.579963 123206.726773 
L 507.579963 123206.726773 
L 491.015955 123206.726773 
L 491.015955 123206.726773 
L 474.451948 123206.726773 
L 474.451948 123206.726773 
L 457.887941 123206.726773 
L 457.887941 123206.726773 
L 441.323933 123206.726773 
L 441.323933 123206.726773 
L 424.759926 123206.726773 
L 424.759926 123206.726773 
L 408.195918 123206.726773 
L 408.195918 123206.726773 
L 391.631911 123206.726773 
L 391.631911 123206.726773 
L 375.067904 123206.726773 
L 375.067904 123206.726773 
L 358.503896 123206.726773 
L 358.503896 123206.726773 
L 341.939889 123206.726773 
L 341.939889 123206.726773 
L 325.375881 123206.726773 
L 325.375881 123206.726773 
L 308.811874 123206.726773 
L 308.811874 123206.726773 
L 292.247866 123206.726773 
L 292.247866 123206.726773 
L 275.683859 123206.726773 
L 275.683859 123206.726773 
L 259.119852 123206.726773 
L 259.119852 123206.726773 
L 242.555844 123206.726773 
L 242.555844 123206.726773 
L 225.991837 123206.726773 
L 225.991837 123206.726773 
L 209.427829 123206.726773 
L 209.427829 123206.726773 
L 192.863822 123206.726773 
L 192.863822 123206.726773 
L 184.581818 123206.726773 
L 184.581818 123206.726773 
L 184.581818 123206.726773 
z
" style="fill:#0000ff;fill-opacity:0.3;stroke:#0000ff;stroke-opacity:0.3;"/>
   </g>
   <g id="PolyCollection_3">
    <path clip-path="url(#p5d9ca66e27)" d="M 184.581818 123206.726773 
L 184.581818 123206.726773 
L 184.581818 123206.726773 
L 184.581818 122.136333 
L 192.863822 122.136333 
L 192.863822 184.255877 
L 209.427829 184.255877 
L 209.427829 227.485937 
L 225.991837 227.485937 
L 225.991837 238.145289 
L 242.555844 238.145289 
L 242.555844 256.238489 
L 259.119852 256.238489 
L 259.119852 251.268908 
L 275.683859 251.268908 
L 275.683859 255.299761 
L 292.247866 255.299761 
L 292.247866 259.660765 
L 308.811874 259.660765 
L 308.811874 274.40013 
L 325.375881 274.40013 
L 325.375881 264.135563 
L 341.939889 264.135563 
L 341.939889 273.41054 
L 358.503896 273.41054 
L 358.503896 269.626364 
L 375.067904 269.626364 
L 375.067904 282.667475 
L 391.631911 282.667475 
L 391.631911 273.08472 
L 408.195918 273.08472 
L 408.195918 280.012834 
L 424.759926 280.012834 
L 424.759926 274.06822 
L 441.323933 274.06822 
L 441.323933 285.053161 
L 457.887941 285.053161 
L 457.887941 275.07022 
L 474.451948 275.07022 
L 474.451948 281.513536 
L 491.015955 281.513536 
L 491.015955 278.19452 
L 507.579963 278.19452 
L 507.579963 287.978601 
L 524.14397 287.978601 
L 524.14397 277.838188 
L 540.707978 277.838188 
L 540.707978 280.757901 
L 557.271985 280.757901 
L 557.271985 273.41054 
L 573.835993 273.41054 
L 573.835993 285.872737 
L 590.4 285.872737 
L 590.4 283.846964 
L 606.964007 283.846964 
L 606.964007 285.053161 
L 623.528015 285.053161 
L 623.528015 287.12624 
L 640.092022 287.12624 
L 640.092022 289.725361 
L 656.65603 289.725361 
L 656.65603 295.833616 
L 673.220037 295.833616 
L 673.220037 291.992572 
L 689.784045 291.992572 
L 689.784045 294.36058 
L 706.348052 294.36058 
L 706.348052 291.074076 
L 722.912059 291.074076 
L 722.912059 294.84708 
L 739.476067 294.84708 
L 739.476067 285.872737 
L 756.040074 285.872737 
L 756.040074 291.992572 
L 772.604082 291.992572 
L 772.604082 287.978601 
L 789.168089 287.978601 
L 789.168089 305.050592 
L 805.732096 305.050592 
L 805.732096 292.927182 
L 822.296104 292.927182 
L 822.296104 306.247753 
L 838.860111 306.247753 
L 838.860111 306.856576 
L 855.424119 306.856576 
L 855.424119 323.212234 
L 871.988126 323.212234 
L 871.988126 299.437888 
L 888.552134 299.437888 
L 888.552134 328.456275 
L 905.116141 328.456275 
L 905.116141 336.362819 
L 921.680148 336.362819 
L 921.680148 373.28775 
L 938.244156 373.28775 
L 938.244156 382.575801 
L 954.808163 382.575801 
L 954.808163 427.712557 
L 971.372171 427.712557 
L 971.372171 507.836887 
L 987.936178 507.836887 
L 987.936178 123206.726773 
L 996.218182 123206.726773 
L 996.218182 123206.726773 
L 996.218182 123206.726773 
L 996.218182 123206.726773 
L 996.218182 123206.726773 
L 996.218182 123206.726773 
L 996.218182 123206.726773 
L 987.936178 123206.726773 
L 987.936178 123206.726773 
L 971.372171 123206.726773 
L 971.372171 123206.726773 
L 954.808163 123206.726773 
L 954.808163 123206.726773 
L 938.244156 123206.726773 
L 938.244156 123206.726773 
L 921.680148 123206.726773 
L 921.680148 123206.726773 
L 905.116141 123206.726773 
L 905.116141 123206.726773 
L 888.552134 123206.726773 
L 888.552134 123206.726773 
L 871.988126 123206.726773 
L 871.988126 123206.726773 
L 855.424119 123206.726773 
L 855.424119 123206.726773 
L 838.860111 123206.726773 
L 838.860111 123206.726773 
L 822.296104 123206.726773 
L 822.296104 123206.726773 
L 805.732096 123206.726773 
L 805.732096 123206.726773 
L 789.168089 123206.726773 
L 789.168089 123206.726773 
L 772.604082 123206.726773 
L 772.604082 123206.726773 
L 756.040074 123206.726773 
L 756.040074 123206.726773 
L 739.476067 123206.726773 
L 739.476067 123206.726773 
L 722.912059 123206.726773 
L 722.912059 123206.726773 
L 706.348052 123206.726773 
L 706.348052 123206.726773 
L 689.784045 123206.726773 
L 689.784045 123206.726773 
L 673.220037 123206.726773 
L 673.220037 123206.726773 
L 656.65603 123206.726773 
L 656.65603 123206.726773 
L 640.092022 123206.726773 
L 640.092022 123206.726773 
L 623.528015 123206.726773 
L 623.528015 123206.726773 
L 606.964007 123206.726773 
L 606.964007 123206.726773 
L 590.4 123206.726773 
L 590.4 123206.726773 
L 573.835993 123206.726773 
L 573.835993 123206.726773 
L 557.271985 123206.726773 
L 557.271985 123206.726773 
L 540.707978 123206.726773 
L 540.707978 123206.726773 
L 524.14397 123206.726773 
L 524.14397 123206.726773 
L 507.579963 123206.726773 
L 507.579963 123206.726773 
L 491.015955 123206.726773 
L 491.015955 123206.726773 
L 474.451948 123206.726773 
L 474.451948 123206.726773 
L 457.887941 123206.726773 
L 457.887941 123206.726773 
L 441.323933 123206.726773 
L 441.323933 123206.726773 
L 424.759926 123206.726773 
L 424.759926 123206.726773 
L 408.195918 123206.726773 
L 408.195918 123206.726773 
L 391.631911 123206.726773 
L 391.631911 123206.726773 
L 375.067904 123206.726773 
L 375.067904 123206.726773 
L 358.503896 123206.726773 
L 358.503896 123206.726773 
L 341.939889 123206.726773 
L 341.939889 123206.726773 
L 325.375881 123206.726773 
L 325.375881 123206.726773 
L 308.811874 123206.726773 
L 308.811874 123206.726773 
L 292.247866 123206.726773 
L 292.247866 123206.726773 
L 275.683859 123206.726773 
L 275.683859 123206.726773 
L 259.119852 123206.726773 
L 259.119852 123206.726773 
L 242.555844 123206.726773 
L 242.555844 123206.726773 
L 225.991837 123206.726773 
L 225.991837 123206.726773 
L 209.427829 123206.726773 
L 209.427829 123206.726773 
L 192.863822 123206.726773 
L 192.863822 123206.726773 
L 184.581818 123206.726773 
L 184.581818 123206.726773 
L 184.581818 123206.726773 
z
" style="fill:#f0e68c;fill-opacity:0.3;stroke:#f0e68c;stroke-opacity:0.3;"/>
   </g>
   <g id="matplotlib.axis_1">
    <g id="xtick_1">
     <g id="line2d_1">
      <defs>
       <path d="M 0 0 
L 0 3.5 
" id="m919b618042" style="stroke:#000000;stroke-width:0.8;"/>
      </defs>
      <g>
       <use style="stroke:#000000;stroke-width:0.8;" x="176.299814" xlink:href="#m919b618042" y="567"/>
      </g>
     </g>
     <g id="text_1">
      <!-- 0.0 -->
      <g transform="translate(152.445127 596.795313)scale(0.3 -0.3)">
       <defs>
        <path d="M 2034 4250 
Q 1547 4250 1301 3770 
Q 1056 3291 1056 2328 
Q 1056 1369 1301 889 
Q 1547 409 2034 409 
Q 2525 409 2770 889 
Q 3016 1369 3016 2328 
Q 3016 3291 2770 3770 
Q 2525 4250 2034 4250 
z
M 2034 4750 
Q 2819 4750 3233 4129 
Q 3647 3509 3647 2328 
Q 3647 1150 3233 529 
Q 2819 -91 2034 -91 
Q 1250 -91 836 529 
Q 422 1150 422 2328 
Q 422 3509 836 4129 
Q 1250 4750 2034 4750 
z
" id="DejaVuSans-30" transform="scale(0.015625)"/>
        <path d="M 684 794 
L 1344 794 
L 1344 0 
L 684 0 
L 684 794 
z
" id="DejaVuSans-2e" transform="scale(0.015625)"/>
       </defs>
       <use xlink:href="#DejaVuSans-30"/>
       <use x="63.623047" xlink:href="#DejaVuSans-2e"/>
       <use x="95.410156" xlink:href="#DejaVuSans-30"/>
      </g>
     </g>
    </g>
    <g id="xtick_2">
     <g id="line2d_2">
      <g>
       <use style="stroke:#000000;stroke-width:0.8;" x="341.939889" xlink:href="#m919b618042" y="567"/>
      </g>
     </g>
     <g id="text_2">
      <!-- 0.2 -->
      <g transform="translate(318.085201 596.795313)scale(0.3 -0.3)">
       <defs>
        <path d="M 1228 531 
L 3431 531 
L 3431 0 
L 469 0 
L 469 531 
Q 828 903 1448 1529 
Q 2069 2156 2228 2338 
Q 2531 2678 2651 2914 
Q 2772 3150 2772 3378 
Q 2772 3750 2511 3984 
Q 2250 4219 1831 4219 
Q 1534 4219 1204 4116 
Q 875 4013 500 3803 
L 500 4441 
Q 881 4594 1212 4672 
Q 1544 4750 1819 4750 
Q 2544 4750 2975 4387 
Q 3406 4025 3406 3419 
Q 3406 3131 3298 2873 
Q 3191 2616 2906 2266 
Q 2828 2175 2409 1742 
Q 1991 1309 1228 531 
z
" id="DejaVuSans-32" transform="scale(0.015625)"/>
       </defs>
       <use xlink:href="#DejaVuSans-30"/>
       <use x="63.623047" xlink:href="#DejaVuSans-2e"/>
       <use x="95.410156" xlink:href="#DejaVuSans-32"/>
      </g>
     </g>
    </g>
    <g id="xtick_3">
     <g id="line2d_3">
      <g>
       <use style="stroke:#000000;stroke-width:0.8;" x="507.579963" xlink:href="#m919b618042" y="567"/>
      </g>
     </g>
     <g id="text_3">
      <!-- 0.4 -->
      <g transform="translate(483.725275 596.795313)scale(0.3 -0.3)">
       <defs>
        <path d="M 2419 4116 
L 825 1625 
L 2419 1625 
L 2419 4116 
z
M 2253 4666 
L 3047 4666 
L 3047 1625 
L 3713 1625 
L 3713 1100 
L 3047 1100 
L 3047 0 
L 2419 0 
L 2419 1100 
L 313 1100 
L 313 1709 
L 2253 4666 
z
" id="DejaVuSans-34" transform="scale(0.015625)"/>
       </defs>
       <use xlink:href="#DejaVuSans-30"/>
       <use x="63.623047" xlink:href="#DejaVuSans-2e"/>
       <use x="95.410156" xlink:href="#DejaVuSans-34"/>
      </g>
     </g>
    </g>
    <g id="xtick_4">
     <g id="line2d_4">
      <g>
       <use style="stroke:#000000;stroke-width:0.8;" x="673.220037" xlink:href="#m919b618042" y="567"/>
      </g>
     </g>
     <g id="text_4">
      <!-- 0.6 -->
      <g transform="translate(649.36535 596.795313)scale(0.3 -0.3)">
       <defs>
        <path d="M 2113 2584 
Q 1688 2584 1439 2293 
Q 1191 2003 1191 1497 
Q 1191 994 1439 701 
Q 1688 409 2113 409 
Q 2538 409 2786 701 
Q 3034 994 3034 1497 
Q 3034 2003 2786 2293 
Q 2538 2584 2113 2584 
z
M 3366 4563 
L 3366 3988 
Q 3128 4100 2886 4159 
Q 2644 4219 2406 4219 
Q 1781 4219 1451 3797 
Q 1122 3375 1075 2522 
Q 1259 2794 1537 2939 
Q 1816 3084 2150 3084 
Q 2853 3084 3261 2657 
Q 3669 2231 3669 1497 
Q 3669 778 3244 343 
Q 2819 -91 2113 -91 
Q 1303 -91 875 529 
Q 447 1150 447 2328 
Q 447 3434 972 4092 
Q 1497 4750 2381 4750 
Q 2619 4750 2861 4703 
Q 3103 4656 3366 4563 
z
" id="DejaVuSans-36" transform="scale(0.015625)"/>
       </defs>
       <use xlink:href="#DejaVuSans-30"/>
       <use x="63.623047" xlink:href="#DejaVuSans-2e"/>
       <use x="95.410156" xlink:href="#DejaVuSans-36"/>
      </g>
     </g>
    </g>
    <g id="xtick_5">
     <g id="line2d_5">
      <g>
       <use style="stroke:#000000;stroke-width:0.8;" x="838.860111" xlink:href="#m919b618042" y="567"/>
      </g>
     </g>
     <g id="text_5">
      <!-- 0.8 -->
      <g transform="translate(815.005424 596.795313)scale(0.3 -0.3)">
       <defs>
        <path d="M 2034 2216 
Q 1584 2216 1326 1975 
Q 1069 1734 1069 1313 
Q 1069 891 1326 650 
Q 1584 409 2034 409 
Q 2484 409 2743 651 
Q 3003 894 3003 1313 
Q 3003 1734 2745 1975 
Q 2488 2216 2034 2216 
z
M 1403 2484 
Q 997 2584 770 2862 
Q 544 3141 544 3541 
Q 544 4100 942 4425 
Q 1341 4750 2034 4750 
Q 2731 4750 3128 4425 
Q 3525 4100 3525 3541 
Q 3525 3141 3298 2862 
Q 3072 2584 2669 2484 
Q 3125 2378 3379 2068 
Q 3634 1759 3634 1313 
Q 3634 634 3220 271 
Q 2806 -91 2034 -91 
Q 1263 -91 848 271 
Q 434 634 434 1313 
Q 434 1759 690 2068 
Q 947 2378 1403 2484 
z
M 1172 3481 
Q 1172 3119 1398 2916 
Q 1625 2713 2034 2713 
Q 2441 2713 2670 2916 
Q 2900 3119 2900 3481 
Q 2900 3844 2670 4047 
Q 2441 4250 2034 4250 
Q 1625 4250 1398 4047 
Q 1172 3844 1172 3481 
z
" id="DejaVuSans-38" transform="scale(0.015625)"/>
       </defs>
       <use xlink:href="#DejaVuSans-30"/>
       <use x="63.623047" xlink:href="#DejaVuSans-2e"/>
       <use x="95.410156" xlink:href="#DejaVuSans-38"/>
      </g>
     </g>
    </g>
    <g id="xtick_6">
     <g id="line2d_6">
      <g>
       <use style="stroke:#000000;stroke-width:0.8;" x="1004.500186" xlink:href="#m919b618042" y="567"/>
      </g>
     </g>
     <g id="text_6">
      <!-- 1.0 -->
      <g transform="translate(980.645498 596.795313)scale(0.3 -0.3)">
       <defs>
        <path d="M 794 531 
L 1825 531 
L 1825 4091 
L 703 3866 
L 703 4441 
L 1819 4666 
L 2450 4666 
L 2450 531 
L 3481 531 
L 3481 0 
L 794 0 
L 794 531 
z
" id="DejaVuSans-31" transform="scale(0.015625)"/>
       </defs>
       <use xlink:href="#DejaVuSans-31"/>
       <use x="63.623047" xlink:href="#DejaVuSans-2e"/>
       <use x="95.410156" xlink:href="#DejaVuSans-30"/>
      </g>
     </g>
    </g>
    <g id="text_7">
     <!-- Layer 0 Sparsity -->
     <g transform="translate(468.353906 629.829687)scale(0.3 -0.3)">
      <defs>
       <path d="M 628 4666 
L 1259 4666 
L 1259 531 
L 3531 531 
L 3531 0 
L 628 0 
L 628 4666 
z
" id="DejaVuSans-4c" transform="scale(0.015625)"/>
       <path d="M 2194 1759 
Q 1497 1759 1228 1600 
Q 959 1441 959 1056 
Q 959 750 1161 570 
Q 1363 391 1709 391 
Q 2188 391 2477 730 
Q 2766 1069 2766 1631 
L 2766 1759 
L 2194 1759 
z
M 3341 1997 
L 3341 0 
L 2766 0 
L 2766 531 
Q 2569 213 2275 61 
Q 1981 -91 1556 -91 
Q 1019 -91 701 211 
Q 384 513 384 1019 
Q 384 1609 779 1909 
Q 1175 2209 1959 2209 
L 2766 2209 
L 2766 2266 
Q 2766 2663 2505 2880 
Q 2244 3097 1772 3097 
Q 1472 3097 1187 3025 
Q 903 2953 641 2809 
L 641 3341 
Q 956 3463 1253 3523 
Q 1550 3584 1831 3584 
Q 2591 3584 2966 3190 
Q 3341 2797 3341 1997 
z
" id="DejaVuSans-61" transform="scale(0.015625)"/>
       <path d="M 2059 -325 
Q 1816 -950 1584 -1140 
Q 1353 -1331 966 -1331 
L 506 -1331 
L 506 -850 
L 844 -850 
Q 1081 -850 1212 -737 
Q 1344 -625 1503 -206 
L 1606 56 
L 191 3500 
L 800 3500 
L 1894 763 
L 2988 3500 
L 3597 3500 
L 2059 -325 
z
" id="DejaVuSans-79" transform="scale(0.015625)"/>
       <path d="M 3597 1894 
L 3597 1613 
L 953 1613 
Q 991 1019 1311 708 
Q 1631 397 2203 397 
Q 2534 397 2845 478 
Q 3156 559 3463 722 
L 3463 178 
Q 3153 47 2828 -22 
Q 2503 -91 2169 -91 
Q 1331 -91 842 396 
Q 353 884 353 1716 
Q 353 2575 817 3079 
Q 1281 3584 2069 3584 
Q 2775 3584 3186 3129 
Q 3597 2675 3597 1894 
z
M 3022 2063 
Q 3016 2534 2758 2815 
Q 2500 3097 2075 3097 
Q 1594 3097 1305 2825 
Q 1016 2553 972 2059 
L 3022 2063 
z
" id="DejaVuSans-65" transform="scale(0.015625)"/>
       <path d="M 2631 2963 
Q 2534 3019 2420 3045 
Q 2306 3072 2169 3072 
Q 1681 3072 1420 2755 
Q 1159 2438 1159 1844 
L 1159 0 
L 581 0 
L 581 3500 
L 1159 3500 
L 1159 2956 
Q 1341 3275 1631 3429 
Q 1922 3584 2338 3584 
Q 2397 3584 2469 3576 
Q 2541 3569 2628 3553 
L 2631 2963 
z
" id="DejaVuSans-72" transform="scale(0.015625)"/>
       <path id="DejaVuSans-20" transform="scale(0.015625)"/>
       <path d="M 3425 4513 
L 3425 3897 
Q 3066 4069 2747 4153 
Q 2428 4238 2131 4238 
Q 1616 4238 1336 4038 
Q 1056 3838 1056 3469 
Q 1056 3159 1242 3001 
Q 1428 2844 1947 2747 
L 2328 2669 
Q 3034 2534 3370 2195 
Q 3706 1856 3706 1288 
Q 3706 609 3251 259 
Q 2797 -91 1919 -91 
Q 1588 -91 1214 -16 
Q 841 59 441 206 
L 441 856 
Q 825 641 1194 531 
Q 1563 422 1919 422 
Q 2459 422 2753 634 
Q 3047 847 3047 1241 
Q 3047 1584 2836 1778 
Q 2625 1972 2144 2069 
L 1759 2144 
Q 1053 2284 737 2584 
Q 422 2884 422 3419 
Q 422 4038 858 4394 
Q 1294 4750 2059 4750 
Q 2388 4750 2728 4690 
Q 3069 4631 3425 4513 
z
" id="DejaVuSans-53" transform="scale(0.015625)"/>
       <path d="M 1159 525 
L 1159 -1331 
L 581 -1331 
L 581 3500 
L 1159 3500 
L 1159 2969 
Q 1341 3281 1617 3432 
Q 1894 3584 2278 3584 
Q 2916 3584 3314 3078 
Q 3713 2572 3713 1747 
Q 3713 922 3314 415 
Q 2916 -91 2278 -91 
Q 1894 -91 1617 61 
Q 1341 213 1159 525 
z
M 3116 1747 
Q 3116 2381 2855 2742 
Q 2594 3103 2138 3103 
Q 1681 3103 1420 2742 
Q 1159 2381 1159 1747 
Q 1159 1113 1420 752 
Q 1681 391 2138 391 
Q 2594 391 2855 752 
Q 3116 1113 3116 1747 
z
" id="DejaVuSans-70" transform="scale(0.015625)"/>
       <path d="M 2834 3397 
L 2834 2853 
Q 2591 2978 2328 3040 
Q 2066 3103 1784 3103 
Q 1356 3103 1142 2972 
Q 928 2841 928 2578 
Q 928 2378 1081 2264 
Q 1234 2150 1697 2047 
L 1894 2003 
Q 2506 1872 2764 1633 
Q 3022 1394 3022 966 
Q 3022 478 2636 193 
Q 2250 -91 1575 -91 
Q 1294 -91 989 -36 
Q 684 19 347 128 
L 347 722 
Q 666 556 975 473 
Q 1284 391 1588 391 
Q 1994 391 2212 530 
Q 2431 669 2431 922 
Q 2431 1156 2273 1281 
Q 2116 1406 1581 1522 
L 1381 1569 
Q 847 1681 609 1914 
Q 372 2147 372 2553 
Q 372 3047 722 3315 
Q 1072 3584 1716 3584 
Q 2034 3584 2315 3537 
Q 2597 3491 2834 3397 
z
" id="DejaVuSans-73" transform="scale(0.015625)"/>
       <path d="M 603 3500 
L 1178 3500 
L 1178 0 
L 603 0 
L 603 3500 
z
M 603 4863 
L 1178 4863 
L 1178 4134 
L 603 4134 
L 603 4863 
z
" id="DejaVuSans-69" transform="scale(0.015625)"/>
       <path d="M 1172 4494 
L 1172 3500 
L 2356 3500 
L 2356 3053 
L 1172 3053 
L 1172 1153 
Q 1172 725 1289 603 
Q 1406 481 1766 481 
L 2356 481 
L 2356 0 
L 1766 0 
Q 1100 0 847 248 
Q 594 497 594 1153 
L 594 3053 
L 172 3053 
L 172 3500 
L 594 3500 
L 594 4494 
L 1172 4494 
z
" id="DejaVuSans-74" transform="scale(0.015625)"/>
      </defs>
      <use xlink:href="#DejaVuSans-4c"/>
      <use x="55.712891" xlink:href="#DejaVuSans-61"/>
      <use x="116.992188" xlink:href="#DejaVuSans-79"/>
      <use x="176.171875" xlink:href="#DejaVuSans-65"/>
      <use x="237.695312" xlink:href="#DejaVuSans-72"/>
      <use x="278.808594" xlink:href="#DejaVuSans-20"/>
      <use x="310.595703" xlink:href="#DejaVuSans-30"/>
      <use x="374.21875" xlink:href="#DejaVuSans-20"/>
      <use x="406.005859" xlink:href="#DejaVuSans-53"/>
      <use x="469.482422" xlink:href="#DejaVuSans-70"/>
      <use x="532.958984" xlink:href="#DejaVuSans-61"/>
      <use x="594.238281" xlink:href="#DejaVuSans-72"/>
      <use x="635.351562" xlink:href="#DejaVuSans-73"/>
      <use x="687.451172" xlink:href="#DejaVuSans-69"/>
      <use x="715.234375" xlink:href="#DejaVuSans-74"/>
      <use x="754.443359" xlink:href="#DejaVuSans-79"/>
     </g>
    </g>
   </g>
   <g id="matplotlib.axis_2">
    <g id="ytick_1">
     <g id="line2d_7">
      <defs>
       <path d="M 0 0 
L -3.5 0 
" id="m38bdc0b6d5" style="stroke:#000000;stroke-width:0.8;"/>
      </defs>
      <g>
       <use style="stroke:#000000;stroke-width:0.8;" x="144" xlink:href="#m38bdc0b6d5" y="544.761818"/>
      </g>
     </g>
     <g id="text_8">
      <!-- $\mathdefault{10^{0}}$ -->
      <g transform="translate(84.2 556.159474)scale(0.3 -0.3)">
       <use transform="translate(0 0.765625)" xlink:href="#DejaVuSans-31"/>
       <use transform="translate(63.623047 0.765625)" xlink:href="#DejaVuSans-30"/>
       <use transform="translate(128.203125 39.046875)scale(0.7)" xlink:href="#DejaVuSans-30"/>
      </g>
     </g>
    </g>
    <g id="ytick_2">
     <g id="line2d_8">
      <g>
       <use style="stroke:#000000;stroke-width:0.8;" x="144" xlink:href="#m38bdc0b6d5" y="422.099853"/>
      </g>
     </g>
     <g id="text_9">
      <!-- $\mathdefault{10^{1}}$ -->
      <g transform="translate(84.2 433.497509)scale(0.3 -0.3)">
       <use transform="translate(0 0.684375)" xlink:href="#DejaVuSans-31"/>
       <use transform="translate(63.623047 0.684375)" xlink:href="#DejaVuSans-30"/>
       <use transform="translate(128.203125 38.965625)scale(0.7)" xlink:href="#DejaVuSans-31"/>
      </g>
     </g>
    </g>
    <g id="ytick_3">
     <g id="line2d_9">
      <g>
       <use style="stroke:#000000;stroke-width:0.8;" x="144" xlink:href="#m38bdc0b6d5" y="299.437888"/>
      </g>
     </g>
     <g id="text_10">
      <!-- $\mathdefault{10^{2}}$ -->
      <g transform="translate(84.2 310.835545)scale(0.3 -0.3)">
       <use transform="translate(0 0.765625)" xlink:href="#DejaVuSans-31"/>
       <use transform="translate(63.623047 0.765625)" xlink:href="#DejaVuSans-30"/>
       <use transform="translate(128.203125 39.046875)scale(0.7)" xlink:href="#DejaVuSans-32"/>
      </g>
     </g>
    </g>
    <g id="ytick_4">
     <g id="line2d_10">
      <g>
       <use style="stroke:#000000;stroke-width:0.8;" x="144" xlink:href="#m38bdc0b6d5" y="176.775923"/>
      </g>
     </g>
     <g id="text_11">
      <!-- $\mathdefault{10^{3}}$ -->
      <g transform="translate(84.2 188.17358)scale(0.3 -0.3)">
       <defs>
        <path d="M 2597 2516 
Q 3050 2419 3304 2112 
Q 3559 1806 3559 1356 
Q 3559 666 3084 287 
Q 2609 -91 1734 -91 
Q 1441 -91 1130 -33 
Q 819 25 488 141 
L 488 750 
Q 750 597 1062 519 
Q 1375 441 1716 441 
Q 2309 441 2620 675 
Q 2931 909 2931 1356 
Q 2931 1769 2642 2001 
Q 2353 2234 1838 2234 
L 1294 2234 
L 1294 2753 
L 1863 2753 
Q 2328 2753 2575 2939 
Q 2822 3125 2822 3475 
Q 2822 3834 2567 4026 
Q 2313 4219 1838 4219 
Q 1578 4219 1281 4162 
Q 984 4106 628 3988 
L 628 4550 
Q 988 4650 1302 4700 
Q 1616 4750 1894 4750 
Q 2613 4750 3031 4423 
Q 3450 4097 3450 3541 
Q 3450 3153 3228 2886 
Q 3006 2619 2597 2516 
z
" id="DejaVuSans-33" transform="scale(0.015625)"/>
       </defs>
       <use transform="translate(0 0.765625)" xlink:href="#DejaVuSans-31"/>
       <use transform="translate(63.623047 0.765625)" xlink:href="#DejaVuSans-30"/>
       <use transform="translate(128.203125 39.046875)scale(0.7)" xlink:href="#DejaVuSans-33"/>
      </g>
     </g>
    </g>
    <g id="ytick_5">
     <g id="line2d_11">
      <defs>
       <path d="M 0 0 
L -2 0 
" id="m0d2bde86c0" style="stroke:#000000;stroke-width:0.6;"/>
      </defs>
      <g>
       <use style="stroke:#000000;stroke-width:0.6;" x="144" xlink:href="#m0d2bde86c0" y="563.762397"/>
      </g>
     </g>
    </g>
    <g id="ytick_6">
     <g id="line2d_12">
      <g>
       <use style="stroke:#000000;stroke-width:0.6;" x="144" xlink:href="#m0d2bde86c0" y="556.648991"/>
      </g>
     </g>
    </g>
    <g id="ytick_7">
     <g id="line2d_13">
      <g>
       <use style="stroke:#000000;stroke-width:0.6;" x="144" xlink:href="#m0d2bde86c0" y="550.374522"/>
      </g>
     </g>
    </g>
    <g id="ytick_8">
     <g id="line2d_14">
      <g>
       <use style="stroke:#000000;stroke-width:0.6;" x="144" xlink:href="#m0d2bde86c0" y="507.836887"/>
      </g>
     </g>
    </g>
    <g id="ytick_9">
     <g id="line2d_15">
      <g>
       <use style="stroke:#000000;stroke-width:0.6;" x="144" xlink:href="#m0d2bde86c0" y="486.237188"/>
      </g>
     </g>
    </g>
    <g id="ytick_10">
     <g id="line2d_16">
      <g>
       <use style="stroke:#000000;stroke-width:0.6;" x="144" xlink:href="#m0d2bde86c0" y="470.911957"/>
      </g>
     </g>
    </g>
    <g id="ytick_11">
     <g id="line2d_17">
      <g>
       <use style="stroke:#000000;stroke-width:0.6;" x="144" xlink:href="#m0d2bde86c0" y="459.024784"/>
      </g>
     </g>
    </g>
    <g id="ytick_12">
     <g id="line2d_18">
      <g>
       <use style="stroke:#000000;stroke-width:0.6;" x="144" xlink:href="#m0d2bde86c0" y="449.312257"/>
      </g>
     </g>
    </g>
    <g id="ytick_13">
     <g id="line2d_19">
      <g>
       <use style="stroke:#000000;stroke-width:0.6;" x="144" xlink:href="#m0d2bde86c0" y="441.100432"/>
      </g>
     </g>
    </g>
    <g id="ytick_14">
     <g id="line2d_20">
      <g>
       <use style="stroke:#000000;stroke-width:0.6;" x="144" xlink:href="#m0d2bde86c0" y="433.987026"/>
      </g>
     </g>
    </g>
    <g id="ytick_15">
     <g id="line2d_21">
      <g>
       <use style="stroke:#000000;stroke-width:0.6;" x="144" xlink:href="#m0d2bde86c0" y="427.712557"/>
      </g>
     </g>
    </g>
    <g id="ytick_16">
     <g id="line2d_22">
      <g>
       <use style="stroke:#000000;stroke-width:0.6;" x="144" xlink:href="#m0d2bde86c0" y="385.174922"/>
      </g>
     </g>
    </g>
    <g id="ytick_17">
     <g id="line2d_23">
      <g>
       <use style="stroke:#000000;stroke-width:0.6;" x="144" xlink:href="#m0d2bde86c0" y="363.575223"/>
      </g>
     </g>
    </g>
    <g id="ytick_18">
     <g id="line2d_24">
      <g>
       <use style="stroke:#000000;stroke-width:0.6;" x="144" xlink:href="#m0d2bde86c0" y="348.249992"/>
      </g>
     </g>
    </g>
    <g id="ytick_19">
     <g id="line2d_25">
      <g>
       <use style="stroke:#000000;stroke-width:0.6;" x="144" xlink:href="#m0d2bde86c0" y="336.362819"/>
      </g>
     </g>
    </g>
    <g id="ytick_20">
     <g id="line2d_26">
      <g>
       <use style="stroke:#000000;stroke-width:0.6;" x="144" xlink:href="#m0d2bde86c0" y="326.650292"/>
      </g>
     </g>
    </g>
    <g id="ytick_21">
     <g id="line2d_27">
      <g>
       <use style="stroke:#000000;stroke-width:0.6;" x="144" xlink:href="#m0d2bde86c0" y="318.438467"/>
      </g>
     </g>
    </g>
    <g id="ytick_22">
     <g id="line2d_28">
      <g>
       <use style="stroke:#000000;stroke-width:0.6;" x="144" xlink:href="#m0d2bde86c0" y="311.325061"/>
      </g>
     </g>
    </g>
    <g id="ytick_23">
     <g id="line2d_29">
      <g>
       <use style="stroke:#000000;stroke-width:0.6;" x="144" xlink:href="#m0d2bde86c0" y="305.050592"/>
      </g>
     </g>
    </g>
    <g id="ytick_24">
     <g id="line2d_30">
      <g>
       <use style="stroke:#000000;stroke-width:0.6;" x="144" xlink:href="#m0d2bde86c0" y="262.512957"/>
      </g>
     </g>
    </g>
    <g id="ytick_25">
     <g id="line2d_31">
      <g>
       <use style="stroke:#000000;stroke-width:0.6;" x="144" xlink:href="#m0d2bde86c0" y="240.913258"/>
      </g>
     </g>
    </g>
    <g id="ytick_26">
     <g id="line2d_32">
      <g>
       <use style="stroke:#000000;stroke-width:0.6;" x="144" xlink:href="#m0d2bde86c0" y="225.588027"/>
      </g>
     </g>
    </g>
    <g id="ytick_27">
     <g id="line2d_33">
      <g>
       <use style="stroke:#000000;stroke-width:0.6;" x="144" xlink:href="#m0d2bde86c0" y="213.700854"/>
      </g>
     </g>
    </g>
    <g id="ytick_28">
     <g id="line2d_34">
      <g>
       <use style="stroke:#000000;stroke-width:0.6;" x="144" xlink:href="#m0d2bde86c0" y="203.988327"/>
      </g>
     </g>
    </g>
    <g id="ytick_29">
     <g id="line2d_35">
      <g>
       <use style="stroke:#000000;stroke-width:0.6;" x="144" xlink:href="#m0d2bde86c0" y="195.776502"/>
      </g>
     </g>
    </g>
    <g id="ytick_30">
     <g id="line2d_36">
      <g>
       <use style="stroke:#000000;stroke-width:0.6;" x="144" xlink:href="#m0d2bde86c0" y="188.663096"/>
      </g>
     </g>
    </g>
    <g id="ytick_31">
     <g id="line2d_37">
      <g>
       <use style="stroke:#000000;stroke-width:0.6;" x="144" xlink:href="#m0d2bde86c0" y="182.388627"/>
      </g>
     </g>
    </g>
    <g id="ytick_32">
     <g id="line2d_38">
      <g>
       <use style="stroke:#000000;stroke-width:0.6;" x="144" xlink:href="#m0d2bde86c0" y="139.850993"/>
      </g>
     </g>
    </g>
    <g id="ytick_33">
     <g id="line2d_39">
      <g>
       <use style="stroke:#000000;stroke-width:0.6;" x="144" xlink:href="#m0d2bde86c0" y="118.251293"/>
      </g>
     </g>
    </g>
    <g id="ytick_34">
     <g id="line2d_40">
      <g>
       <use style="stroke:#000000;stroke-width:0.6;" x="144" xlink:href="#m0d2bde86c0" y="102.926062"/>
      </g>
     </g>
    </g>
    <g id="ytick_35">
     <g id="line2d_41">
      <g>
       <use style="stroke:#000000;stroke-width:0.6;" x="144" xlink:href="#m0d2bde86c0" y="91.038889"/>
      </g>
     </g>
    </g>
    <g id="ytick_36">
     <g id="line2d_42">
      <g>
       <use style="stroke:#000000;stroke-width:0.6;" x="144" xlink:href="#m0d2bde86c0" y="81.326362"/>
      </g>
     </g>
    </g>
   </g>
   <g id="line2d_43">
    <path clip-path="url(#p5d9ca66e27)" d="M 184.581818 649 
L 184.581818 544.761818 
L 192.863822 544.761818 
L 192.863822 649 
M 209.427829 649 
L 209.427829 544.761818 
L 225.991837 544.761818 
L 225.991837 385.174922 
L 242.555844 385.174922 
L 242.555844 337.439046 
L 259.119852 337.439046 
L 259.119852 301.612534 
L 275.683859 301.612534 
L 275.683859 305.050592 
L 292.247866 305.050592 
L 292.247866 291.992572 
L 308.811874 291.992572 
L 308.811874 297.863249 
L 325.375881 297.863249 
L 325.375881 266.378901 
L 341.939889 266.378901 
L 341.939889 269.322822 
L 358.503896 269.322822 
L 358.503896 273.738365 
L 375.067904 273.738365 
L 375.067904 259.40889 
L 391.631911 259.40889 
L 391.631911 252.358341 
L 408.195918 252.358341 
L 408.195918 244.588606 
L 424.759926 244.588606 
L 424.759926 237.143289 
L 441.323933 237.143289 
L 441.323933 246.329024 
L 457.887941 246.329024 
L 457.887941 228.601609 
L 474.451948 228.601609 
L 474.451948 226.936742 
L 491.015955 226.936742 
L 491.015955 219.789199 
L 507.579963 219.789199 
L 507.579963 222.609748 
L 524.14397 222.609748 
L 524.14397 209.798698 
L 540.707978 209.798698 
L 540.707978 209.110046 
L 557.271985 209.110046 
L 557.271985 199.234858 
L 573.835993 199.234858 
L 573.835993 204.434115 
L 590.4 204.434115 
L 590.4 196.465861 
L 606.964007 196.465861 
L 606.964007 190.354394 
L 623.528015 190.354394 
L 623.528015 190.080152 
L 640.092022 190.080152 
L 640.092022 192.888255 
L 656.65603 192.888255 
L 656.65603 215.764633 
L 673.220037 215.764633 
L 673.220037 234.559927 
L 689.784045 234.559927 
L 689.784045 294.36058 
L 706.348052 294.36058 
L 706.348052 369.187926 
L 722.912059 369.187926 
L 722.912059 486.237188 
L 739.476067 486.237188 
L 739.476067 649 
" style="fill:none;stroke:#800080;stroke-linecap:square;stroke-width:4;"/>
   </g>
   <g id="line2d_44">
    <path clip-path="url(#p5d9ca66e27)" d="M 184.581818 649 
L 184.581818 369.187926 
L 192.863822 369.187926 
L 192.863822 373.28775 
L 209.427829 373.28775 
L 209.427829 363.575223 
L 225.991837 363.575223 
L 225.991837 327.545631 
L 242.555844 327.545631 
L 242.555844 309.363928 
L 259.119852 309.363928 
L 259.119852 281.895412 
L 275.683859 281.895412 
L 275.683859 276.091428 
L 292.247866 276.091428 
L 292.247866 264.687603 
L 308.811874 264.687603 
L 308.811874 272.438998 
L 325.375881 272.438998 
L 325.375881 256.953552 
L 341.939889 256.953552 
L 341.939889 258.413134 
L 358.503896 258.413134 
L 358.503896 249.570871 
L 375.067904 249.570871 
L 375.067904 247.723122 
L 391.631911 247.723122 
L 391.631911 246.132813 
L 408.195918 246.132813 
L 408.195918 235.514067 
L 424.759926 235.514067 
L 424.759926 228.460866 
L 441.323933 228.460866 
L 441.323933 228.601609 
L 457.887941 228.601609 
L 457.887941 221.488203 
L 474.451948 221.488203 
L 474.451948 212.960227 
L 491.015955 212.960227 
L 491.015955 212.437441 
L 507.579963 212.437441 
L 507.579963 219.077321 
L 524.14397 219.077321 
L 524.14397 205.702542 
L 540.707978 205.702542 
L 540.707978 200.968086 
L 557.271985 200.968086 
L 557.271985 197.713858 
L 573.835993 197.713858 
L 573.835993 207.85427 
L 590.4 207.85427 
L 590.4 195.548684 
L 606.964007 195.548684 
L 606.964007 197.713858 
L 623.528015 197.713858 
L 623.528015 207.095946 
L 640.092022 207.095946 
L 640.092022 221.983755 
L 656.65603 221.983755 
L 656.65603 264.410868 
L 673.220037 264.410868 
L 673.220037 296.838767 
L 689.784045 296.838767 
L 689.784045 380.097614 
L 706.348052 380.097614 
L 706.348052 507.836887 
L 722.912059 507.836887 
L 722.912059 649 
" style="fill:none;stroke:#0000ff;stroke-linecap:square;stroke-width:4;"/>
   </g>
   <g id="line2d_45">
    <path clip-path="url(#p5d9ca66e27)" d="M 184.581818 649 
L 184.581818 99.998182 
L 192.863822 99.998182 
L 192.863822 210.196248 
L 209.427829 210.196248 
L 209.427829 261.197547 
L 225.991837 261.197547 
L 225.991837 275.07022 
L 242.555844 275.07022 
L 242.555844 288.844822 
L 259.119852 288.844822 
L 259.119852 278.19452 
L 275.683859 278.19452 
L 275.683859 285.461373 
L 292.247866 285.461373 
L 292.247866 283.846964 
L 308.811874 283.846964 
L 308.811874 291.992572 
L 325.375881 291.992572 
L 325.375881 291.992572 
L 341.939889 291.992572 
L 341.939889 281.134379 
L 358.503896 281.134379 
L 358.503896 280.012834 
L 375.067904 280.012834 
L 375.067904 288.844822 
L 391.631911 288.844822 
L 391.631911 278.19452 
L 408.195918 278.19452 
L 408.195918 280.384065 
L 424.759926 280.384065 
L 424.759926 271.484857 
L 441.323933 271.484857 
L 441.323933 293.878483 
L 457.887941 293.878483 
L 457.887941 274.40013 
L 474.451948 274.40013 
L 474.451948 276.091428 
L 491.015955 276.091428 
L 491.015955 272.119048 
L 507.579963 272.119048 
L 507.579963 283.450892 
L 524.14397 283.450892 
L 524.14397 266.378901 
L 540.707978 266.378901 
L 540.707978 270.238686 
L 557.271985 270.238686 
L 557.271985 266.666079 
L 573.835993 266.666079 
L 573.835993 269.322822 
L 590.4 269.322822 
L 590.4 264.687603 
L 606.964007 264.687603 
L 606.964007 260.938318 
L 623.528015 260.938318 
L 623.528015 261.982889 
L 640.092022 261.982889 
L 640.092022 256.953552 
L 656.65603 256.953552 
L 656.65603 274.40013 
L 673.220037 274.40013 
L 673.220037 271.170571 
L 689.784045 271.170571 
L 689.784045 272.76088 
L 706.348052 272.76088 
L 706.348052 269.322822 
L 722.912059 269.322822 
L 722.912059 291.992572 
L 739.476067 291.992572 
L 739.476067 277.132596 
L 756.040074 277.132596 
L 756.040074 292.927182 
L 772.604082 292.927182 
L 772.604082 313.361159 
L 789.168089 313.361159 
L 789.168089 343.172684 
L 805.732096 343.172684 
L 805.732096 355.363398 
L 822.296104 355.363398 
L 822.296104 459.024784 
L 838.860111 459.024784 
L 838.860111 507.836887 
L 855.424119 507.836887 
L 855.424119 649 
" style="fill:none;stroke:#f0e68c;stroke-linecap:square;stroke-width:4;"/>
   </g>
   <g id="patch_3">
    <path d="M 144 567 
L 144 77.76 
" style="fill:none;stroke:#000000;stroke-linecap:square;stroke-linejoin:miter;stroke-width:0.8;"/>
   </g>
   <g id="patch_4">
    <path d="M 1036.8 567 
L 1036.8 77.76 
" style="fill:none;stroke:#000000;stroke-linecap:square;stroke-linejoin:miter;stroke-width:0.8;"/>
   </g>
   <g id="patch_5">
    <path d="M 144 567 
L 1036.8 567 
" style="fill:none;stroke:#000000;stroke-linecap:square;stroke-linejoin:miter;stroke-width:0.8;"/>
   </g>
   <g id="patch_6">
    <path d="M 144 77.76 
L 1036.8 77.76 
" style="fill:none;stroke:#000000;stroke-linecap:square;stroke-linejoin:miter;stroke-width:0.8;"/>
   </g>
   <g id="legend_1">
    <g id="patch_7">
     <path d="M 674.4 181.869375 
L 1022.8 181.869375 
Q 1026.8 181.869375 1026.8 177.869375 
L 1026.8 91.76 
Q 1026.8 87.76 1022.8 87.76 
L 674.4 87.76 
Q 670.4 87.76 670.4 91.76 
L 670.4 177.869375 
Q 670.4 181.869375 674.4 181.869375 
z
" style="fill:#ffffff;opacity:0.8;stroke:#cccccc;stroke-linejoin:miter;"/>
    </g>
    <g id="line2d_46">
     <path d="M 678.4 103.956875 
L 718.4 103.956875 
" style="fill:none;stroke:#800080;stroke-linecap:square;stroke-width:4;"/>
    </g>
    <g id="line2d_47"/>
    <g id="text_12">
     <!-- $e^{+}$ DVAE -->
     <g transform="translate(734.4 110.956875)scale(0.2 -0.2)">
      <defs>
       <path d="M 3078 2063 
Q 3088 2113 3092 2166 
Q 3097 2219 3097 2272 
Q 3097 2653 2873 2875 
Q 2650 3097 2266 3097 
Q 1838 3097 1509 2826 
Q 1181 2556 1013 2059 
L 3078 2063 
z
M 3578 1613 
L 903 1613 
Q 884 1494 878 1425 
Q 872 1356 872 1306 
Q 872 872 1139 634 
Q 1406 397 1894 397 
Q 2269 397 2603 481 
Q 2938 566 3225 728 
L 3116 159 
Q 2806 34 2476 -28 
Q 2147 -91 1806 -91 
Q 1078 -91 686 257 
Q 294 606 294 1247 
Q 294 1794 489 2264 
Q 684 2734 1063 3103 
Q 1306 3334 1642 3459 
Q 1978 3584 2356 3584 
Q 2950 3584 3301 3228 
Q 3653 2872 3653 2272 
Q 3653 2128 3634 1964 
Q 3616 1800 3578 1613 
z
" id="DejaVuSans-Oblique-65" transform="scale(0.015625)"/>
       <path d="M 2944 4013 
L 2944 2272 
L 4684 2272 
L 4684 1741 
L 2944 1741 
L 2944 0 
L 2419 0 
L 2419 1741 
L 678 1741 
L 678 2272 
L 2419 2272 
L 2419 4013 
L 2944 4013 
z
" id="DejaVuSans-2b" transform="scale(0.015625)"/>
       <path d="M 1259 4147 
L 1259 519 
L 2022 519 
Q 2988 519 3436 956 
Q 3884 1394 3884 2338 
Q 3884 3275 3436 3711 
Q 2988 4147 2022 4147 
L 1259 4147 
z
M 628 4666 
L 1925 4666 
Q 3281 4666 3915 4102 
Q 4550 3538 4550 2338 
Q 4550 1131 3912 565 
Q 3275 0 1925 0 
L 628 0 
L 628 4666 
z
" id="DejaVuSans-44" transform="scale(0.015625)"/>
       <path d="M 1831 0 
L 50 4666 
L 709 4666 
L 2188 738 
L 3669 4666 
L 4325 4666 
L 2547 0 
L 1831 0 
z
" id="DejaVuSans-56" transform="scale(0.015625)"/>
       <path d="M 2188 4044 
L 1331 1722 
L 3047 1722 
L 2188 4044 
z
M 1831 4666 
L 2547 4666 
L 4325 0 
L 3669 0 
L 3244 1197 
L 1141 1197 
L 716 0 
L 50 0 
L 1831 4666 
z
" id="DejaVuSans-41" transform="scale(0.015625)"/>
       <path d="M 628 4666 
L 3578 4666 
L 3578 4134 
L 1259 4134 
L 1259 2753 
L 3481 2753 
L 3481 2222 
L 1259 2222 
L 1259 531 
L 3634 531 
L 3634 0 
L 628 0 
L 628 4666 
z
" id="DejaVuSans-45" transform="scale(0.015625)"/>
      </defs>
      <use transform="translate(0 0.826562)" xlink:href="#DejaVuSans-Oblique-65"/>
      <use transform="translate(66.173333 39.107812)scale(0.7)" xlink:href="#DejaVuSans-2b"/>
      <use transform="translate(127.560052 0.826562)" xlink:href="#DejaVuSans-20"/>
      <use transform="translate(159.347161 0.826562)" xlink:href="#DejaVuSans-44"/>
      <use transform="translate(236.349115 0.826562)" xlink:href="#DejaVuSans-56"/>
      <use transform="translate(304.757318 0.826562)" xlink:href="#DejaVuSans-41"/>
      <use transform="translate(373.165521 0.826562)" xlink:href="#DejaVuSans-45"/>
     </g>
    </g>
    <g id="line2d_48">
     <path d="M 678.4 133.313125 
L 718.4 133.313125 
" style="fill:none;stroke:#0000ff;stroke-linecap:square;stroke-width:4;"/>
    </g>
    <g id="line2d_49"/>
    <g id="text_13">
     <!-- $\gamma$   DVAE -->
     <g transform="translate(734.4 140.313125)scale(0.2 -0.2)">
      <defs>
       <path d="M 1491 2950 
L 1838 788 
L 3456 3500 
L 4066 3500 
L 1972 0 
L 1713 -1331 
L 1138 -1331 
L 1397 0 
L 988 2613 
Q 925 3006 628 3006 
L 475 3006 
L 569 3500 
L 788 3500 
Q 1403 3500 1491 2950 
z
" id="DejaVuSans-Oblique-3b3" transform="scale(0.015625)"/>
      </defs>
      <use transform="translate(0 0.09375)" xlink:href="#DejaVuSans-Oblique-3b3"/>
      <use transform="translate(59.179688 0.09375)" xlink:href="#DejaVuSans-20"/>
      <use transform="translate(90.966797 0.09375)" xlink:href="#DejaVuSans-20"/>
      <use transform="translate(122.753906 0.09375)" xlink:href="#DejaVuSans-20"/>
      <use transform="translate(154.541016 0.09375)" xlink:href="#DejaVuSans-44"/>
      <use transform="translate(231.542969 0.09375)" xlink:href="#DejaVuSans-56"/>
      <use transform="translate(299.951172 0.09375)" xlink:href="#DejaVuSans-41"/>
      <use transform="translate(368.359375 0.09375)" xlink:href="#DejaVuSans-45"/>
     </g>
    </g>
    <g id="line2d_50">
     <path d="M 678.4 162.71 
L 718.4 162.71 
" style="fill:none;stroke:#f0e68c;stroke-linecap:square;stroke-width:4;"/>
    </g>
    <g id="line2d_51"/>
    <g id="text_14">
     <!-- $\pi^{+}$ DVAE -->
     <g transform="translate(734.4 169.71)scale(0.2 -0.2)">
      <defs>
       <path d="M 584 3500 
L 3938 3500 
L 3825 2925 
L 3384 2925 
L 2966 775 
Q 2922 550 2981 450 
Q 3038 353 3209 353 
Q 3256 353 3325 363 
Q 3397 369 3419 372 
L 3338 -44 
Q 3222 -84 3103 -103 
Q 2981 -122 2866 -122 
Q 2491 -122 2388 81 
Q 2284 288 2391 838 
L 2797 2925 
L 1506 2925 
L 938 0 
L 350 0 
L 919 2925 
L 472 2925 
L 584 3500 
z
" id="DejaVuSans-Oblique-3c0" transform="scale(0.015625)"/>
      </defs>
      <use transform="translate(0 0.826562)" xlink:href="#DejaVuSans-Oblique-3c0"/>
      <use transform="translate(64.671224 39.107812)scale(0.7)" xlink:href="#DejaVuSans-2b"/>
      <use transform="translate(126.057943 0.826562)" xlink:href="#DejaVuSans-20"/>
      <use transform="translate(157.845052 0.826562)" xlink:href="#DejaVuSans-44"/>
      <use transform="translate(234.847005 0.826562)" xlink:href="#DejaVuSans-56"/>
      <use transform="translate(303.255208 0.826562)" xlink:href="#DejaVuSans-41"/>
      <use transform="translate(371.663411 0.826562)" xlink:href="#DejaVuSans-45"/>
     </g>
    </g>
    <g id="patch_8">
     <path d="M 861.8 110.956875 
L 901.8 110.956875 
L 901.8 96.956875 
L 861.8 96.956875 
z
" style="fill:#800080;opacity:0.3;stroke:#800080;stroke-linejoin:miter;"/>
    </g>
    <g id="text_15">
     <!-- $e^{+}$ GEANT -->
     <g transform="translate(917.8 110.956875)scale(0.2 -0.2)">
      <defs>
       <path d="M 3809 666 
L 3809 1919 
L 2778 1919 
L 2778 2438 
L 4434 2438 
L 4434 434 
Q 4069 175 3628 42 
Q 3188 -91 2688 -91 
Q 1594 -91 976 548 
Q 359 1188 359 2328 
Q 359 3472 976 4111 
Q 1594 4750 2688 4750 
Q 3144 4750 3555 4637 
Q 3966 4525 4313 4306 
L 4313 3634 
Q 3963 3931 3569 4081 
Q 3175 4231 2741 4231 
Q 1884 4231 1454 3753 
Q 1025 3275 1025 2328 
Q 1025 1384 1454 906 
Q 1884 428 2741 428 
Q 3075 428 3337 486 
Q 3600 544 3809 666 
z
" id="DejaVuSans-47" transform="scale(0.015625)"/>
       <path d="M 628 4666 
L 1478 4666 
L 3547 763 
L 3547 4666 
L 4159 4666 
L 4159 0 
L 3309 0 
L 1241 3903 
L 1241 0 
L 628 0 
L 628 4666 
z
" id="DejaVuSans-4e" transform="scale(0.015625)"/>
       <path d="M -19 4666 
L 3928 4666 
L 3928 4134 
L 2272 4134 
L 2272 0 
L 1638 0 
L 1638 4134 
L -19 4134 
L -19 4666 
z
" id="DejaVuSans-54" transform="scale(0.015625)"/>
      </defs>
      <use transform="translate(0 0.826562)" xlink:href="#DejaVuSans-Oblique-65"/>
      <use transform="translate(66.173333 39.107812)scale(0.7)" xlink:href="#DejaVuSans-2b"/>
      <use transform="translate(127.560052 0.826562)" xlink:href="#DejaVuSans-20"/>
      <use transform="translate(159.347161 0.826562)" xlink:href="#DejaVuSans-47"/>
      <use transform="translate(236.837396 0.826562)" xlink:href="#DejaVuSans-45"/>
      <use transform="translate(300.02099 0.826562)" xlink:href="#DejaVuSans-41"/>
      <use transform="translate(368.429193 0.826562)" xlink:href="#DejaVuSans-4e"/>
      <use transform="translate(443.23388 0.826562)" xlink:href="#DejaVuSans-54"/>
     </g>
    </g>
    <g id="patch_9">
     <path d="M 861.8 140.313125 
L 901.8 140.313125 
L 901.8 126.313125 
L 861.8 126.313125 
z
" style="fill:#0000ff;opacity:0.3;stroke:#0000ff;stroke-linejoin:miter;"/>
    </g>
    <g id="text_16">
     <!-- $\gamma$   GEANT -->
     <g transform="translate(917.8 140.313125)scale(0.2 -0.2)">
      <use transform="translate(0 0.78125)" xlink:href="#DejaVuSans-Oblique-3b3"/>
      <use transform="translate(59.179688 0.78125)" xlink:href="#DejaVuSans-20"/>
      <use transform="translate(90.966797 0.78125)" xlink:href="#DejaVuSans-20"/>
      <use transform="translate(122.753906 0.78125)" xlink:href="#DejaVuSans-20"/>
      <use transform="translate(154.541016 0.78125)" xlink:href="#DejaVuSans-47"/>
      <use transform="translate(232.03125 0.78125)" xlink:href="#DejaVuSans-45"/>
      <use transform="translate(295.214844 0.78125)" xlink:href="#DejaVuSans-41"/>
      <use transform="translate(363.623047 0.78125)" xlink:href="#DejaVuSans-4e"/>
      <use transform="translate(438.427734 0.78125)" xlink:href="#DejaVuSans-54"/>
     </g>
    </g>
    <g id="patch_10">
     <path d="M 861.8 169.71 
L 901.8 169.71 
L 901.8 155.71 
L 861.8 155.71 
z
" style="fill:#f0e68c;opacity:0.3;stroke:#f0e68c;stroke-linejoin:miter;"/>
    </g>
    <g id="text_17">
     <!-- $\pi^{+}$ GEANT -->
     <g transform="translate(917.8 169.71)scale(0.2 -0.2)">
      <use transform="translate(0 0.826562)" xlink:href="#DejaVuSans-Oblique-3c0"/>
      <use transform="translate(64.671224 39.107812)scale(0.7)" xlink:href="#DejaVuSans-2b"/>
      <use transform="translate(126.057943 0.826562)" xlink:href="#DejaVuSans-20"/>
      <use transform="translate(157.845052 0.826562)" xlink:href="#DejaVuSans-47"/>
      <use transform="translate(235.335286 0.826562)" xlink:href="#DejaVuSans-45"/>
      <use transform="translate(298.51888 0.826562)" xlink:href="#DejaVuSans-41"/>
      <use transform="translate(366.927083 0.826562)" xlink:href="#DejaVuSans-4e"/>
      <use transform="translate(441.731771 0.826562)" xlink:href="#DejaVuSans-54"/>
     </g>
    </g>
   </g>
  </g>
 </g>
 <defs>
  <clipPath id="p5d9ca66e27">
   <rect height="489.24" width="892.8" x="144" y="77.76"/>
  </clipPath>
 </defs>
</svg>
