<?xml version="1.0" encoding="utf-8" standalone="no"?>
<!DOCTYPE svg PUBLIC "-//W3C//DTD SVG 1.1//EN"
  "http://www.w3.org/Graphics/SVG/1.1/DTD/svg11.dtd">
<svg height="648pt" version="1.1" viewBox="0 0 1152 648" width="1152pt" xmlns="http://www.w3.org/2000/svg" xmlns:xlink="http://www.w3.org/1999/xlink">
 <metadata>
  <rdf:RDF xmlns:cc="http://creativecommons.org/ns#" xmlns:dc="http://purl.org/dc/elements/1.1/" xmlns:rdf="http://www.w3.org/1999/02/22-rdf-syntax-ns#">
   <cc:Work>
    <dc:type rdf:resource="http://purl.org/dc/dcmitype/StillImage"/>
    <dc:date>2021-09-24T23:03:32.551065</dc:date>
    <dc:format>image/svg+xml</dc:format>
    <dc:creator>
     <cc:Agent>
      <dc:title>Matplotlib v3.4.2, https://matplotlib.org/</dc:title>
     </cc:Agent>
    </dc:creator>
   </cc:Work>
  </rdf:RDF>
 </metadata>
 <defs>
  <style type="text/css">*{stroke-linecap:butt;stroke-linejoin:round;}</style>
 </defs>
 <g id="figure_1">
  <g id="patch_1">
   <path d="M 0 648 
L 1152 648 
L 1152 0 
L 0 0 
z
" style="fill:none;"/>
  </g>
  <g id="axes_1">
   <g id="patch_2">
    <path d="M 144 567 
L 1036.8 567 
L 1036.8 77.76 
L 144 77.76 
z
" style="fill:#ffffff;"/>
   </g>
   <g id="PolyCollection_1">
    <path clip-path="url(#p6557ea1296)" d="M 184.581818 148842.286798 
L 184.581818 148842.286798 
L 184.581818 148842.286798 
L 184.581818 148842.286798 
L 188.819099 148842.286798 
L 188.819099 148842.286798 
L 197.101102 148842.286798 
L 197.101102 148842.286798 
L 205.383106 148842.286798 
L 205.383106 148842.286798 
L 213.66511 148842.286798 
L 213.66511 148842.286798 
L 221.947113 148842.286798 
L 221.947113 148842.286798 
L 230.229117 148842.286798 
L 230.229117 148842.286798 
L 238.511121 148842.286798 
L 238.511121 148842.286798 
L 246.793125 148842.286798 
L 246.793125 148842.286798 
L 255.075128 148842.286798 
L 255.075128 148842.286798 
L 263.357132 148842.286798 
L 263.357132 148842.286798 
L 271.639136 148842.286798 
L 271.639136 148842.286798 
L 279.921139 148842.286798 
L 279.921139 148842.286798 
L 288.203143 148842.286798 
L 288.203143 148842.286798 
L 296.485147 148842.286798 
L 296.485147 148842.286798 
L 304.76715 148842.286798 
L 304.76715 148842.286798 
L 313.049154 148842.286798 
L 313.049154 148842.286798 
L 321.331158 148842.286798 
L 321.331158 148842.286798 
L 329.613162 148842.286798 
L 329.613162 148842.286798 
L 337.895165 148842.286798 
L 337.895165 148842.286798 
L 346.177169 148842.286798 
L 346.177169 148842.286798 
L 354.459173 148842.286798 
L 354.459173 148842.286798 
L 362.741176 148842.286798 
L 362.741176 148842.286798 
L 371.02318 148842.286798 
L 371.02318 148842.286798 
L 379.305184 148842.286798 
L 379.305184 148842.286798 
L 387.587188 148842.286798 
L 387.587188 148842.286798 
L 395.869191 148842.286798 
L 395.869191 148842.286798 
L 404.151195 148842.286798 
L 404.151195 148842.286798 
L 412.433199 148842.286798 
L 412.433199 148842.286798 
L 420.715202 148842.286798 
L 420.715202 148842.286798 
L 428.997206 148842.286798 
L 428.997206 148842.286798 
L 437.27921 148842.286798 
L 437.27921 148842.286798 
L 445.561214 148842.286798 
L 445.561214 148842.286798 
L 453.843217 148842.286798 
L 453.843217 148842.286798 
L 462.125221 148842.286798 
L 462.125221 148842.286798 
L 470.407225 148842.286798 
L 470.407225 148842.286798 
L 478.689228 148842.286798 
L 478.689228 544.761818 
L 486.971232 544.761818 
L 486.971232 148842.286798 
L 495.253236 148842.286798 
L 495.253236 148842.286798 
L 503.53524 148842.286798 
L 503.53524 148842.286798 
L 511.817243 148842.286798 
L 511.817243 148842.286798 
L 520.099247 148842.286798 
L 520.099247 148842.286798 
L 528.381251 148842.286798 
L 528.381251 148842.286798 
L 536.663254 148842.286798 
L 536.663254 148842.286798 
L 544.945258 148842.286798 
L 544.945258 148842.286798 
L 553.227262 148842.286798 
L 553.227262 148842.286798 
L 561.509266 148842.286798 
L 561.509266 544.761818 
L 569.791269 544.761818 
L 569.791269 148842.286798 
L 578.073273 148842.286798 
L 578.073273 148842.286798 
L 586.355277 148842.286798 
L 586.355277 148842.286798 
L 594.63728 148842.286798 
L 594.63728 148842.286798 
L 602.919284 148842.286798 
L 602.919284 544.761818 
L 611.201288 544.761818 
L 611.201288 148842.286798 
L 619.483291 148842.286798 
L 619.483291 148842.286798 
L 627.765295 148842.286798 
L 627.765295 544.761818 
L 636.047299 544.761818 
L 636.047299 544.761818 
L 644.329303 544.761818 
L 644.329303 544.761818 
L 652.611306 544.761818 
L 652.611306 500.119815 
L 660.89331 500.119815 
L 660.89331 544.761818 
L 669.175314 544.761818 
L 669.175314 455.477812 
L 677.457317 455.477812 
L 677.457317 429.363914 
L 685.739321 429.363914 
L 685.739321 455.477812 
L 694.021325 455.477812 
L 694.021325 384.72191 
L 702.303329 384.72191 
L 702.303329 396.464293 
L 710.585332 396.464293 
L 710.585332 390.32586 
L 718.867336 390.32586 
L 718.867336 374.793867 
L 727.14934 374.793867 
L 727.14934 348.679969 
L 735.431343 348.679969 
L 735.431343 310.483821 
L 743.713347 310.483821 
L 743.713347 265.841817 
L 751.995351 265.841817 
L 751.995351 252.840669 
L 760.277355 252.840669 
L 760.277355 238.607808 
L 768.559358 238.607808 
L 768.559358 222.483673 
L 776.841362 222.483673 
L 776.841362 199.771968 
L 785.123366 199.771968 
L 785.123366 176.135483 
L 793.405369 176.135483 
L 793.405369 162.186296 
L 801.687373 162.186296 
L 801.687373 148.908731 
L 809.969377 148.908731 
L 809.969377 129.728854 
L 818.251381 129.728854 
L 818.251381 121.295395 
L 826.533384 121.295395 
L 826.533384 110.716212 
L 834.815388 110.716212 
L 834.815388 110.563955 
L 843.097392 110.563955 
L 843.097392 108.322262 
L 851.379395 108.322262 
L 851.379395 111.869762 
L 859.661399 111.869762 
L 859.661399 123.767524 
L 867.943403 123.767524 
L 867.943403 136.072398 
L 876.225407 136.072398 
L 876.225407 146.207925 
L 884.50741 146.207925 
L 884.50741 157.607377 
L 892.789414 157.607377 
L 892.789414 176.135483 
L 901.071418 176.135483 
L 901.071418 188.640061 
L 909.353421 188.640061 
L 909.353421 206.153897 
L 917.635425 206.153897 
L 917.635425 243.809227 
L 925.917429 243.809227 
L 925.917429 245.024448 
L 934.199432 245.024448 
L 934.199432 261.738213 
L 942.481436 261.738213 
L 942.481436 281.066389 
L 950.76344 281.066389 
L 950.76344 317.647285 
L 959.045444 317.647285 
L 959.045444 348.679969 
L 967.327447 348.679969 
L 967.327447 410.835808 
L 975.609451 410.835808 
L 975.609451 429.363914 
L 983.891455 429.363914 
L 983.891455 148842.286798 
L 992.173458 148842.286798 
L 992.173458 148842.286798 
L 996.218182 148842.286798 
L 996.218182 148842.286798 
L 996.218182 148842.286798 
L 996.218182 148842.286798 
L 996.218182 148842.286798 
L 996.218182 148842.286798 
L 996.218182 148842.286798 
L 992.173458 148842.286798 
L 992.173458 148842.286798 
L 983.891455 148842.286798 
L 983.891455 148842.286798 
L 975.609451 148842.286798 
L 975.609451 148842.286798 
L 967.327447 148842.286798 
L 967.327447 148842.286798 
L 959.045444 148842.286798 
L 959.045444 148842.286798 
L 950.76344 148842.286798 
L 950.76344 148842.286798 
L 942.481436 148842.286798 
L 942.481436 148842.286798 
L 934.199432 148842.286798 
L 934.199432 148842.286798 
L 925.917429 148842.286798 
L 925.917429 148842.286798 
L 917.635425 148842.286798 
L 917.635425 148842.286798 
L 909.353421 148842.286798 
L 909.353421 148842.286798 
L 901.071418 148842.286798 
L 901.071418 148842.286798 
L 892.789414 148842.286798 
L 892.789414 148842.286798 
L 884.50741 148842.286798 
L 884.50741 148842.286798 
L 876.225407 148842.286798 
L 876.225407 148842.286798 
L 867.943403 148842.286798 
L 867.943403 148842.286798 
L 859.661399 148842.286798 
L 859.661399 148842.286798 
L 851.379395 148842.286798 
L 851.379395 148842.286798 
L 843.097392 148842.286798 
L 843.097392 148842.286798 
L 834.815388 148842.286798 
L 834.815388 148842.286798 
L 826.533384 148842.286798 
L 826.533384 148842.286798 
L 818.251381 148842.286798 
L 818.251381 148842.286798 
L 809.969377 148842.286798 
L 809.969377 148842.286798 
L 801.687373 148842.286798 
L 801.687373 148842.286798 
L 793.405369 148842.286798 
L 793.405369 148842.286798 
L 785.123366 148842.286798 
L 785.123366 148842.286798 
L 776.841362 148842.286798 
L 776.841362 148842.286798 
L 768.559358 148842.286798 
L 768.559358 148842.286798 
L 760.277355 148842.286798 
L 760.277355 148842.286798 
L 751.995351 148842.286798 
L 751.995351 148842.286798 
L 743.713347 148842.286798 
L 743.713347 148842.286798 
L 735.431343 148842.286798 
L 735.431343 148842.286798 
L 727.14934 148842.286798 
L 727.14934 148842.286798 
L 718.867336 148842.286798 
L 718.867336 148842.286798 
L 710.585332 148842.286798 
L 710.585332 148842.286798 
L 702.303329 148842.286798 
L 702.303329 148842.286798 
L 694.021325 148842.286798 
L 694.021325 148842.286798 
L 685.739321 148842.286798 
L 685.739321 148842.286798 
L 677.457317 148842.286798 
L 677.457317 148842.286798 
L 669.175314 148842.286798 
L 669.175314 148842.286798 
L 660.89331 148842.286798 
L 660.89331 148842.286798 
L 652.611306 148842.286798 
L 652.611306 148842.286798 
L 644.329303 148842.286798 
L 644.329303 148842.286798 
L 636.047299 148842.286798 
L 636.047299 148842.286798 
L 627.765295 148842.286798 
L 627.765295 148842.286798 
L 619.483291 148842.286798 
L 619.483291 148842.286798 
L 611.201288 148842.286798 
L 611.201288 148842.286798 
L 602.919284 148842.286798 
L 602.919284 148842.286798 
L 594.63728 148842.286798 
L 594.63728 148842.286798 
L 586.355277 148842.286798 
L 586.355277 148842.286798 
L 578.073273 148842.286798 
L 578.073273 148842.286798 
L 569.791269 148842.286798 
L 569.791269 148842.286798 
L 561.509266 148842.286798 
L 561.509266 148842.286798 
L 553.227262 148842.286798 
L 553.227262 148842.286798 
L 544.945258 148842.286798 
L 544.945258 148842.286798 
L 536.663254 148842.286798 
L 536.663254 148842.286798 
L 528.381251 148842.286798 
L 528.381251 148842.286798 
L 520.099247 148842.286798 
L 520.099247 148842.286798 
L 511.817243 148842.286798 
L 511.817243 148842.286798 
L 503.53524 148842.286798 
L 503.53524 148842.286798 
L 495.253236 148842.286798 
L 495.253236 148842.286798 
L 486.971232 148842.286798 
L 486.971232 148842.286798 
L 478.689228 148842.286798 
L 478.689228 148842.286798 
L 470.407225 148842.286798 
L 470.407225 148842.286798 
L 462.125221 148842.286798 
L 462.125221 148842.286798 
L 453.843217 148842.286798 
L 453.843217 148842.286798 
L 445.561214 148842.286798 
L 445.561214 148842.286798 
L 437.27921 148842.286798 
L 437.27921 148842.286798 
L 428.997206 148842.286798 
L 428.997206 148842.286798 
L 420.715202 148842.286798 
L 420.715202 148842.286798 
L 412.433199 148842.286798 
L 412.433199 148842.286798 
L 404.151195 148842.286798 
L 404.151195 148842.286798 
L 395.869191 148842.286798 
L 395.869191 148842.286798 
L 387.587188 148842.286798 
L 387.587188 148842.286798 
L 379.305184 148842.286798 
L 379.305184 148842.286798 
L 371.02318 148842.286798 
L 371.02318 148842.286798 
L 362.741176 148842.286798 
L 362.741176 148842.286798 
L 354.459173 148842.286798 
L 354.459173 148842.286798 
L 346.177169 148842.286798 
L 346.177169 148842.286798 
L 337.895165 148842.286798 
L 337.895165 148842.286798 
L 329.613162 148842.286798 
L 329.613162 148842.286798 
L 321.331158 148842.286798 
L 321.331158 148842.286798 
L 313.049154 148842.286798 
L 313.049154 148842.286798 
L 304.76715 148842.286798 
L 304.76715 148842.286798 
L 296.485147 148842.286798 
L 296.485147 148842.286798 
L 288.203143 148842.286798 
L 288.203143 148842.286798 
L 279.921139 148842.286798 
L 279.921139 148842.286798 
L 271.639136 148842.286798 
L 271.639136 148842.286798 
L 263.357132 148842.286798 
L 263.357132 148842.286798 
L 255.075128 148842.286798 
L 255.075128 148842.286798 
L 246.793125 148842.286798 
L 246.793125 148842.286798 
L 238.511121 148842.286798 
L 238.511121 148842.286798 
L 230.229117 148842.286798 
L 230.229117 148842.286798 
L 221.947113 148842.286798 
L 221.947113 148842.286798 
L 213.66511 148842.286798 
L 213.66511 148842.286798 
L 205.383106 148842.286798 
L 205.383106 148842.286798 
L 197.101102 148842.286798 
L 197.101102 148842.286798 
L 188.819099 148842.286798 
L 188.819099 148842.286798 
L 184.581818 148842.286798 
L 184.581818 148842.286798 
L 184.581818 148842.286798 
z
" style="fill:#800080;fill-opacity:0.3;stroke:#800080;stroke-opacity:0.3;"/>
   </g>
   <g id="PolyCollection_2">
    <path clip-path="url(#p6557ea1296)" d="M 184.581818 148842.286798 
L 184.581818 474.005917 
L 184.581818 474.005917 
L 184.581818 148842.286798 
L 188.819099 148842.286798 
L 188.819099 148842.286798 
L 197.101102 148842.286798 
L 197.101102 148842.286798 
L 205.383106 148842.286798 
L 205.383106 148842.286798 
L 213.66511 148842.286798 
L 213.66511 500.119815 
L 221.947113 500.119815 
L 221.947113 544.761818 
L 230.229117 544.761818 
L 230.229117 148842.286798 
L 238.511121 148842.286798 
L 238.511121 148842.286798 
L 246.793125 148842.286798 
L 246.793125 474.005917 
L 255.075128 474.005917 
L 255.075128 474.005917 
L 263.357132 474.005917 
L 263.357132 474.005917 
L 271.639136 474.005917 
L 271.639136 455.477812 
L 279.921139 455.477812 
L 279.921139 500.119815 
L 288.203143 500.119815 
L 288.203143 544.761818 
L 296.485147 544.761818 
L 296.485147 544.761818 
L 304.76715 544.761818 
L 304.76715 544.761818 
L 313.049154 544.761818 
L 313.049154 500.119815 
L 321.331158 500.119815 
L 321.331158 419.43587 
L 329.613162 419.43587 
L 329.613162 429.363914 
L 337.895165 429.363914 
L 337.895165 429.363914 
L 346.177169 429.363914 
L 346.177169 390.32586 
L 354.459173 390.32586 
L 354.459173 396.464293 
L 362.741176 396.464293 
L 362.741176 419.43587 
L 371.02318 419.43587 
L 371.02318 403.250016 
L 379.305184 403.250016 
L 379.305184 366.193805 
L 387.587188 366.193805 
L 387.587188 390.32586 
L 395.869191 390.32586 
L 395.869191 403.250016 
L 404.151195 403.250016 
L 404.151195 429.363914 
L 412.433199 429.363914 
L 412.433199 410.835808 
L 420.715202 410.835808 
L 420.715202 396.464293 
L 428.997206 396.464293 
L 428.997206 348.679969 
L 437.27921 348.679969 
L 437.27921 342.82095 
L 445.561214 342.82095 
L 445.561214 366.193805 
L 453.843217 366.193805 
L 453.843217 396.464293 
L 462.125221 396.464293 
L 462.125221 374.793867 
L 470.407225 374.793867 
L 470.407225 379.566776 
L 478.689228 379.566776 
L 478.689228 370.350395 
L 486.971232 370.350395 
L 486.971232 358.608013 
L 495.253236 358.608013 
L 495.253236 379.566776 
L 503.53524 379.566776 
L 503.53524 348.679969 
L 511.817243 348.679969 
L 511.817243 429.363914 
L 520.099247 429.363914 
L 520.099247 358.608013 
L 528.381251 358.608013 
L 528.381251 348.679969 
L 536.663254 348.679969 
L 536.663254 345.683857 
L 544.945258 345.683857 
L 544.945258 330.151864 
L 553.227262 330.151864 
L 553.227262 370.350395 
L 561.509266 370.350395 
L 561.509266 330.151864 
L 569.791269 330.151864 
L 569.791269 327.891815 
L 578.073273 327.891815 
L 578.073273 358.608013 
L 586.355277 358.608013 
L 586.355277 313.966009 
L 594.63728 313.966009 
L 594.63728 308.810875 
L 602.919284 308.810875 
L 602.919284 325.708392 
L 611.201288 325.708392 
L 611.201288 301.041854 
L 619.483291 301.041854 
L 619.483291 298.178947 
L 627.765295 298.178947 
L 627.765295 294.109923 
L 636.047299 294.109923 
L 636.047299 294.109923 
L 644.329303 294.109923 
L 644.329303 298.178947 
L 652.611306 298.178947 
L 652.611306 274.927956 
L 660.89331 274.927956 
L 660.89331 278.954567 
L 669.175314 278.954567 
L 669.175314 286.670339 
L 677.457317 286.670339 
L 677.457317 254.952491 
L 685.739321 254.952491 
L 685.739321 255.672105 
L 694.021325 255.672105 
L 694.021325 250.7959 
L 702.303329 250.7959 
L 702.303329 248.814058 
L 710.585332 248.814058 
L 710.585332 228.838593 
L 718.867336 228.838593 
L 718.867336 225.582784 
L 727.14934 225.582784 
L 727.14934 220.777486 
L 735.431343 220.777486 
L 735.431343 206.828299 
L 743.713347 206.828299 
L 743.713347 202.883916 
L 751.995351 202.883916 
L 751.995351 200.382444 
L 760.277355 200.382444 
L 760.277355 186.875436 
L 768.559358 186.875436 
L 768.559358 184.435569 
L 776.841362 184.435569 
L 776.841362 172.653294 
L 785.123366 172.653294 
L 785.123366 163.903859 
L 793.405369 163.903859 
L 793.405369 156.8229 
L 801.687373 156.8229 
L 801.687373 147.544172 
L 809.969377 147.544172 
L 809.969377 144.382566 
L 818.251381 144.382566 
L 818.251381 135.959506 
L 826.533384 135.959506 
L 826.533384 134.17964 
L 834.815388 134.17964 
L 834.815388 138.842924 
L 843.097392 138.842924 
L 843.097392 142.983788 
L 851.379395 142.983788 
L 851.379395 140.033435 
L 859.661399 140.033435 
L 859.661399 150.443913 
L 867.943403 150.443913 
L 867.943403 163.730027 
L 876.225407 163.730027 
L 876.225407 169.160612 
L 884.50741 169.160612 
L 884.50741 188.13093 
L 892.789414 188.13093 
L 892.789414 207.509838 
L 901.071418 207.509838 
L 901.071418 209.245921 
L 909.353421 209.245921 
L 909.353421 232.267795 
L 917.635425 232.267795 
L 917.635425 257.135913 
L 925.917429 257.135913 
L 925.917429 266.694874 
L 934.199432 266.694874 
L 934.199432 286.670339 
L 942.481436 286.670339 
L 942.481436 312.201384 
L 950.76344 312.201384 
L 950.76344 334.924773 
L 959.045444 334.924773 
L 959.045444 384.72191 
L 967.327447 384.72191 
L 967.327447 455.477812 
L 975.609451 455.477812 
L 975.609451 148842.286798 
L 983.891455 148842.286798 
L 983.891455 148842.286798 
L 992.173458 148842.286798 
L 992.173458 148842.286798 
L 996.218182 148842.286798 
L 996.218182 148842.286798 
L 996.218182 148842.286798 
L 996.218182 148842.286798 
L 996.218182 148842.286798 
L 996.218182 148842.286798 
L 996.218182 148842.286798 
L 992.173458 148842.286798 
L 992.173458 148842.286798 
L 983.891455 148842.286798 
L 983.891455 148842.286798 
L 975.609451 148842.286798 
L 975.609451 148842.286798 
L 967.327447 148842.286798 
L 967.327447 148842.286798 
L 959.045444 148842.286798 
L 959.045444 148842.286798 
L 950.76344 148842.286798 
L 950.76344 148842.286798 
L 942.481436 148842.286798 
L 942.481436 148842.286798 
L 934.199432 148842.286798 
L 934.199432 148842.286798 
L 925.917429 148842.286798 
L 925.917429 148842.286798 
L 917.635425 148842.286798 
L 917.635425 148842.286798 
L 909.353421 148842.286798 
L 909.353421 148842.286798 
L 901.071418 148842.286798 
L 901.071418 148842.286798 
L 892.789414 148842.286798 
L 892.789414 148842.286798 
L 884.50741 148842.286798 
L 884.50741 148842.286798 
L 876.225407 148842.286798 
L 876.225407 148842.286798 
L 867.943403 148842.286798 
L 867.943403 148842.286798 
L 859.661399 148842.286798 
L 859.661399 148842.286798 
L 851.379395 148842.286798 
L 851.379395 148842.286798 
L 843.097392 148842.286798 
L 843.097392 148842.286798 
L 834.815388 148842.286798 
L 834.815388 148842.286798 
L 826.533384 148842.286798 
L 826.533384 148842.286798 
L 818.251381 148842.286798 
L 818.251381 148842.286798 
L 809.969377 148842.286798 
L 809.969377 148842.286798 
L 801.687373 148842.286798 
L 801.687373 148842.286798 
L 793.405369 148842.286798 
L 793.405369 148842.286798 
L 785.123366 148842.286798 
L 785.123366 148842.286798 
L 776.841362 148842.286798 
L 776.841362 148842.286798 
L 768.559358 148842.286798 
L 768.559358 148842.286798 
L 760.277355 148842.286798 
L 760.277355 148842.286798 
L 751.995351 148842.286798 
L 751.995351 148842.286798 
L 743.713347 148842.286798 
L 743.713347 148842.286798 
L 735.431343 148842.286798 
L 735.431343 148842.286798 
L 727.14934 148842.286798 
L 727.14934 148842.286798 
L 718.867336 148842.286798 
L 718.867336 148842.286798 
L 710.585332 148842.286798 
L 710.585332 148842.286798 
L 702.303329 148842.286798 
L 702.303329 148842.286798 
L 694.021325 148842.286798 
L 694.021325 148842.286798 
L 685.739321 148842.286798 
L 685.739321 148842.286798 
L 677.457317 148842.286798 
L 677.457317 148842.286798 
L 669.175314 148842.286798 
L 669.175314 148842.286798 
L 660.89331 148842.286798 
L 660.89331 148842.286798 
L 652.611306 148842.286798 
L 652.611306 148842.286798 
L 644.329303 148842.286798 
L 644.329303 148842.286798 
L 636.047299 148842.286798 
L 636.047299 148842.286798 
L 627.765295 148842.286798 
L 627.765295 148842.286798 
L 619.483291 148842.286798 
L 619.483291 148842.286798 
L 611.201288 148842.286798 
L 611.201288 148842.286798 
L 602.919284 148842.286798 
L 602.919284 148842.286798 
L 594.63728 148842.286798 
L 594.63728 148842.286798 
L 586.355277 148842.286798 
L 586.355277 148842.286798 
L 578.073273 148842.286798 
L 578.073273 148842.286798 
L 569.791269 148842.286798 
L 569.791269 148842.286798 
L 561.509266 148842.286798 
L 561.509266 148842.286798 
L 553.227262 148842.286798 
L 553.227262 148842.286798 
L 544.945258 148842.286798 
L 544.945258 148842.286798 
L 536.663254 148842.286798 
L 536.663254 148842.286798 
L 528.381251 148842.286798 
L 528.381251 148842.286798 
L 520.099247 148842.286798 
L 520.099247 148842.286798 
L 511.817243 148842.286798 
L 511.817243 148842.286798 
L 503.53524 148842.286798 
L 503.53524 148842.286798 
L 495.253236 148842.286798 
L 495.253236 148842.286798 
L 486.971232 148842.286798 
L 486.971232 148842.286798 
L 478.689228 148842.286798 
L 478.689228 148842.286798 
L 470.407225 148842.286798 
L 470.407225 148842.286798 
L 462.125221 148842.286798 
L 462.125221 148842.286798 
L 453.843217 148842.286798 
L 453.843217 148842.286798 
L 445.561214 148842.286798 
L 445.561214 148842.286798 
L 437.27921 148842.286798 
L 437.27921 148842.286798 
L 428.997206 148842.286798 
L 428.997206 148842.286798 
L 420.715202 148842.286798 
L 420.715202 148842.286798 
L 412.433199 148842.286798 
L 412.433199 148842.286798 
L 404.151195 148842.286798 
L 404.151195 148842.286798 
L 395.869191 148842.286798 
L 395.869191 148842.286798 
L 387.587188 148842.286798 
L 387.587188 148842.286798 
L 379.305184 148842.286798 
L 379.305184 148842.286798 
L 371.02318 148842.286798 
L 371.02318 148842.286798 
L 362.741176 148842.286798 
L 362.741176 148842.286798 
L 354.459173 148842.286798 
L 354.459173 148842.286798 
L 346.177169 148842.286798 
L 346.177169 148842.286798 
L 337.895165 148842.286798 
L 337.895165 148842.286798 
L 329.613162 148842.286798 
L 329.613162 148842.286798 
L 321.331158 148842.286798 
L 321.331158 148842.286798 
L 313.049154 148842.286798 
L 313.049154 148842.286798 
L 304.76715 148842.286798 
L 304.76715 148842.286798 
L 296.485147 148842.286798 
L 296.485147 148842.286798 
L 288.203143 148842.286798 
L 288.203143 148842.286798 
L 279.921139 148842.286798 
L 279.921139 148842.286798 
L 271.639136 148842.286798 
L 271.639136 148842.286798 
L 263.357132 148842.286798 
L 263.357132 148842.286798 
L 255.075128 148842.286798 
L 255.075128 148842.286798 
L 246.793125 148842.286798 
L 246.793125 148842.286798 
L 238.511121 148842.286798 
L 238.511121 148842.286798 
L 230.229117 148842.286798 
L 230.229117 148842.286798 
L 221.947113 148842.286798 
L 221.947113 148842.286798 
L 213.66511 148842.286798 
L 213.66511 148842.286798 
L 205.383106 148842.286798 
L 205.383106 148842.286798 
L 197.101102 148842.286798 
L 197.101102 148842.286798 
L 188.819099 148842.286798 
L 188.819099 148842.286798 
L 184.581818 148842.286798 
L 184.581818 148842.286798 
L 184.581818 148842.286798 
z
" style="fill:#0000ff;fill-opacity:0.3;stroke:#0000ff;stroke-opacity:0.3;"/>
   </g>
   <g id="PolyCollection_3">
    <path clip-path="url(#p6557ea1296)" d="M 184.581818 148842.286798 
L 184.581818 148842.286798 
L 184.581818 148842.286798 
L 184.581818 148842.286798 
L 188.819099 148842.286798 
L 188.819099 148842.286798 
L 197.101102 148842.286798 
L 197.101102 148842.286798 
L 205.383106 148842.286798 
L 205.383106 148842.286798 
L 213.66511 148842.286798 
L 213.66511 148842.286798 
L 221.947113 148842.286798 
L 221.947113 148842.286798 
L 230.229117 148842.286798 
L 230.229117 148842.286798 
L 238.511121 148842.286798 
L 238.511121 148842.286798 
L 246.793125 148842.286798 
L 246.793125 148842.286798 
L 255.075128 148842.286798 
L 255.075128 148842.286798 
L 263.357132 148842.286798 
L 263.357132 148842.286798 
L 271.639136 148842.286798 
L 271.639136 148842.286798 
L 279.921139 148842.286798 
L 279.921139 148842.286798 
L 288.203143 148842.286798 
L 288.203143 148842.286798 
L 296.485147 148842.286798 
L 296.485147 148842.286798 
L 304.76715 148842.286798 
L 304.76715 148842.286798 
L 313.049154 148842.286798 
L 313.049154 148842.286798 
L 321.331158 148842.286798 
L 321.331158 148842.286798 
L 329.613162 148842.286798 
L 329.613162 148842.286798 
L 337.895165 148842.286798 
L 337.895165 148842.286798 
L 346.177169 148842.286798 
L 346.177169 148842.286798 
L 354.459173 148842.286798 
L 354.459173 148842.286798 
L 362.741176 148842.286798 
L 362.741176 544.761818 
L 371.02318 544.761818 
L 371.02318 474.005917 
L 379.305184 474.005917 
L 379.305184 441.106297 
L 387.587188 441.106297 
L 387.587188 384.72191 
L 395.869191 384.72191 
L 395.869191 374.793867 
L 404.151195 374.793867 
L 404.151195 334.924773 
L 412.433199 334.924773 
L 412.433199 340.079907 
L 420.715202 340.079907 
L 420.715202 334.924773 
L 428.997206 334.924773 
L 428.997206 310.483821 
L 437.27921 310.483821 
L 437.27921 296.793844 
L 445.561214 296.793844 
L 445.561214 271.138346 
L 453.843217 271.138346 
L 453.843217 276.909798 
L 462.125221 276.909798 
L 462.125221 264.999913 
L 470.407225 264.999913 
L 470.407225 250.128487 
L 478.689228 250.128487 
L 478.689228 250.128487 
L 486.971232 250.128487 
L 486.971232 243.210108 
L 495.253236 243.210108 
L 495.253236 234.312564 
L 503.53524 234.312564 
L 503.53524 221.62493 
L 511.817243 221.62493 
L 511.817243 217.495003 
L 520.099247 217.495003 
L 520.099247 225.582784 
L 528.381251 225.582784 
L 528.381251 220.357909 
L 536.663254 220.357909 
L 536.663254 215.914438 
L 544.945258 215.914438 
L 544.945258 218.300073 
L 553.227262 218.300073 
L 553.227262 209.598825 
L 561.509266 209.598825 
L 561.509266 218.706414 
L 569.791269 218.706414 
L 569.791269 208.89494 
L 578.073273 208.89494 
L 578.073273 213.614022 
L 586.355277 213.614022 
L 586.355277 219.115335 
L 594.63728 219.115335 
L 594.63728 217.495003 
L 602.919284 217.495003 
L 602.919284 220.357909 
L 611.201288 220.357909 
L 611.201288 223.793646 
L 619.483291 223.793646 
L 619.483291 224.682003 
L 627.765295 224.682003 
L 627.765295 230.775725 
L 636.047299 230.775725 
L 636.047299 232.267795 
L 644.329303 232.267795 
L 644.329303 223.793646 
L 652.611306 223.793646 
L 652.611306 243.210108 
L 660.89331 243.210108 
L 660.89331 230.285953 
L 669.175314 230.285953 
L 669.175314 239.72792 
L 677.457317 239.72792 
L 677.457317 235.889903 
L 685.739321 235.889903 
L 685.739321 237.506844 
L 694.021325 237.506844 
L 694.021325 237.506844 
L 702.303329 237.506844 
L 702.303329 243.210108 
L 710.585332 243.210108 
L 710.585332 238.607808 
L 718.867336 238.607808 
L 718.867336 258.633767 
L 727.14934 258.633767 
L 727.14934 243.210108 
L 735.431343 243.210108 
L 735.431343 238.607808 
L 743.713347 238.607808 
L 743.713347 232.267795 
L 751.995351 232.267795 
L 751.995351 248.814058 
L 760.277355 248.814058 
L 760.277355 250.7959 
L 768.559358 250.7959 
L 768.559358 234.834063 
L 776.841362 234.834063 
L 776.841362 231.269251 
L 785.123366 231.269251 
L 785.123366 225.582784 
L 793.405369 225.582784 
L 793.405369 212.49391 
L 801.687373 212.49391 
L 801.687373 213.238482 
L 809.969377 213.238482 
L 809.969377 206.828299 
L 818.251381 206.828299 
L 818.251381 185.400453 
L 826.533384 185.400453 
L 826.533384 154.826882 
L 834.815388 154.826882 
L 834.815388 124.048156 
L 843.097392 124.048156 
L 843.097392 108.542953 
L 851.379395 108.542953 
L 851.379395 145.158536 
L 859.661399 145.158536 
L 859.661399 174.064411 
L 867.943403 174.064411 
L 867.943403 205.486484 
L 876.225407 205.486484 
L 876.225407 224.682003 
L 884.50741 224.682003 
L 884.50741 254.952491 
L 892.789414 254.952491 
L 892.789414 271.138346 
L 901.071418 271.138346 
L 901.071418 271.138346 
L 909.353421 271.138346 
L 909.353421 280.001822 
L 917.635425 280.001822 
L 917.635425 304.037966 
L 925.917429 304.037966 
L 925.917429 298.178947 
L 934.199432 298.178947 
L 934.199432 345.683857 
L 942.481436 345.683857 
L 942.481436 355.125824 
L 950.76344 355.125824 
L 950.76344 362.289289 
L 959.045444 362.289289 
L 959.045444 379.566776 
L 967.327447 379.566776 
L 967.327447 441.106297 
L 975.609451 441.106297 
L 975.609451 403.250016 
L 983.891455 403.250016 
L 983.891455 429.363914 
L 992.173458 429.363914 
L 992.173458 455.477812 
L 996.218182 455.477812 
L 996.218182 148842.286798 
L 996.218182 148842.286798 
L 996.218182 148842.286798 
L 996.218182 148842.286798 
L 996.218182 148842.286798 
L 996.218182 148842.286798 
L 992.173458 148842.286798 
L 992.173458 148842.286798 
L 983.891455 148842.286798 
L 983.891455 148842.286798 
L 975.609451 148842.286798 
L 975.609451 148842.286798 
L 967.327447 148842.286798 
L 967.327447 148842.286798 
L 959.045444 148842.286798 
L 959.045444 148842.286798 
L 950.76344 148842.286798 
L 950.76344 148842.286798 
L 942.481436 148842.286798 
L 942.481436 148842.286798 
L 934.199432 148842.286798 
L 934.199432 148842.286798 
L 925.917429 148842.286798 
L 925.917429 148842.286798 
L 917.635425 148842.286798 
L 917.635425 148842.286798 
L 909.353421 148842.286798 
L 909.353421 148842.286798 
L 901.071418 148842.286798 
L 901.071418 148842.286798 
L 892.789414 148842.286798 
L 892.789414 148842.286798 
L 884.50741 148842.286798 
L 884.50741 148842.286798 
L 876.225407 148842.286798 
L 876.225407 148842.286798 
L 867.943403 148842.286798 
L 867.943403 148842.286798 
L 859.661399 148842.286798 
L 859.661399 148842.286798 
L 851.379395 148842.286798 
L 851.379395 148842.286798 
L 843.097392 148842.286798 
L 843.097392 148842.286798 
L 834.815388 148842.286798 
L 834.815388 148842.286798 
L 826.533384 148842.286798 
L 826.533384 148842.286798 
L 818.251381 148842.286798 
L 818.251381 148842.286798 
L 809.969377 148842.286798 
L 809.969377 148842.286798 
L 801.687373 148842.286798 
L 801.687373 148842.286798 
L 793.405369 148842.286798 
L 793.405369 148842.286798 
L 785.123366 148842.286798 
L 785.123366 148842.286798 
L 776.841362 148842.286798 
L 776.841362 148842.286798 
L 768.559358 148842.286798 
L 768.559358 148842.286798 
L 760.277355 148842.286798 
L 760.277355 148842.286798 
L 751.995351 148842.286798 
L 751.995351 148842.286798 
L 743.713347 148842.286798 
L 743.713347 148842.286798 
L 735.431343 148842.286798 
L 735.431343 148842.286798 
L 727.14934 148842.286798 
L 727.14934 148842.286798 
L 718.867336 148842.286798 
L 718.867336 148842.286798 
L 710.585332 148842.286798 
L 710.585332 148842.286798 
L 702.303329 148842.286798 
L 702.303329 148842.286798 
L 694.021325 148842.286798 
L 694.021325 148842.286798 
L 685.739321 148842.286798 
L 685.739321 148842.286798 
L 677.457317 148842.286798 
L 677.457317 148842.286798 
L 669.175314 148842.286798 
L 669.175314 148842.286798 
L 660.89331 148842.286798 
L 660.89331 148842.286798 
L 652.611306 148842.286798 
L 652.611306 148842.286798 
L 644.329303 148842.286798 
L 644.329303 148842.286798 
L 636.047299 148842.286798 
L 636.047299 148842.286798 
L 627.765295 148842.286798 
L 627.765295 148842.286798 
L 619.483291 148842.286798 
L 619.483291 148842.286798 
L 611.201288 148842.286798 
L 611.201288 148842.286798 
L 602.919284 148842.286798 
L 602.919284 148842.286798 
L 594.63728 148842.286798 
L 594.63728 148842.286798 
L 586.355277 148842.286798 
L 586.355277 148842.286798 
L 578.073273 148842.286798 
L 578.073273 148842.286798 
L 569.791269 148842.286798 
L 569.791269 148842.286798 
L 561.509266 148842.286798 
L 561.509266 148842.286798 
L 553.227262 148842.286798 
L 553.227262 148842.286798 
L 544.945258 148842.286798 
L 544.945258 148842.286798 
L 536.663254 148842.286798 
L 536.663254 148842.286798 
L 528.381251 148842.286798 
L 528.381251 148842.286798 
L 520.099247 148842.286798 
L 520.099247 148842.286798 
L 511.817243 148842.286798 
L 511.817243 148842.286798 
L 503.53524 148842.286798 
L 503.53524 148842.286798 
L 495.253236 148842.286798 
L 495.253236 148842.286798 
L 486.971232 148842.286798 
L 486.971232 148842.286798 
L 478.689228 148842.286798 
L 478.689228 148842.286798 
L 470.407225 148842.286798 
L 470.407225 148842.286798 
L 462.125221 148842.286798 
L 462.125221 148842.286798 
L 453.843217 148842.286798 
L 453.843217 148842.286798 
L 445.561214 148842.286798 
L 445.561214 148842.286798 
L 437.27921 148842.286798 
L 437.27921 148842.286798 
L 428.997206 148842.286798 
L 428.997206 148842.286798 
L 420.715202 148842.286798 
L 420.715202 148842.286798 
L 412.433199 148842.286798 
L 412.433199 148842.286798 
L 404.151195 148842.286798 
L 404.151195 148842.286798 
L 395.869191 148842.286798 
L 395.869191 148842.286798 
L 387.587188 148842.286798 
L 387.587188 148842.286798 
L 379.305184 148842.286798 
L 379.305184 148842.286798 
L 371.02318 148842.286798 
L 371.02318 148842.286798 
L 362.741176 148842.286798 
L 362.741176 148842.286798 
L 354.459173 148842.286798 
L 354.459173 148842.286798 
L 346.177169 148842.286798 
L 346.177169 148842.286798 
L 337.895165 148842.286798 
L 337.895165 148842.286798 
L 329.613162 148842.286798 
L 329.613162 148842.286798 
L 321.331158 148842.286798 
L 321.331158 148842.286798 
L 313.049154 148842.286798 
L 313.049154 148842.286798 
L 304.76715 148842.286798 
L 304.76715 148842.286798 
L 296.485147 148842.286798 
L 296.485147 148842.286798 
L 288.203143 148842.286798 
L 288.203143 148842.286798 
L 279.921139 148842.286798 
L 279.921139 148842.286798 
L 271.639136 148842.286798 
L 271.639136 148842.286798 
L 263.357132 148842.286798 
L 263.357132 148842.286798 
L 255.075128 148842.286798 
L 255.075128 148842.286798 
L 246.793125 148842.286798 
L 246.793125 148842.286798 
L 238.511121 148842.286798 
L 238.511121 148842.286798 
L 230.229117 148842.286798 
L 230.229117 148842.286798 
L 221.947113 148842.286798 
L 221.947113 148842.286798 
L 213.66511 148842.286798 
L 213.66511 148842.286798 
L 205.383106 148842.286798 
L 205.383106 148842.286798 
L 197.101102 148842.286798 
L 197.101102 148842.286798 
L 188.819099 148842.286798 
L 188.819099 148842.286798 
L 184.581818 148842.286798 
L 184.581818 148842.286798 
L 184.581818 148842.286798 
z
" style="fill:#f0e68c;fill-opacity:0.3;stroke:#f0e68c;stroke-opacity:0.3;"/>
   </g>
   <g id="matplotlib.axis_1">
    <g id="xtick_1">
     <g id="line2d_1">
      <defs>
       <path d="M 0 0 
L 0 3.5 
" id="mac4f1fb161" style="stroke:#000000;stroke-width:0.8;"/>
      </defs>
      <g>
       <use style="stroke:#000000;stroke-width:0.8;" x="180.344538" xlink:href="#mac4f1fb161" y="567"/>
      </g>
     </g>
     <g id="text_1">
      <!-- $\mathdefault{10^{-4}}$ -->
      <g transform="translate(145.094538 596.795313)scale(0.3 -0.3)">
       <defs>
        <path d="M 794 531 
L 1825 531 
L 1825 4091 
L 703 3866 
L 703 4441 
L 1819 4666 
L 2450 4666 
L 2450 531 
L 3481 531 
L 3481 0 
L 794 0 
L 794 531 
z
" id="DejaVuSans-31" transform="scale(0.015625)"/>
        <path d="M 2034 4250 
Q 1547 4250 1301 3770 
Q 1056 3291 1056 2328 
Q 1056 1369 1301 889 
Q 1547 409 2034 409 
Q 2525 409 2770 889 
Q 3016 1369 3016 2328 
Q 3016 3291 2770 3770 
Q 2525 4250 2034 4250 
z
M 2034 4750 
Q 2819 4750 3233 4129 
Q 3647 3509 3647 2328 
Q 3647 1150 3233 529 
Q 2819 -91 2034 -91 
Q 1250 -91 836 529 
Q 422 1150 422 2328 
Q 422 3509 836 4129 
Q 1250 4750 2034 4750 
z
" id="DejaVuSans-30" transform="scale(0.015625)"/>
        <path d="M 678 2272 
L 4684 2272 
L 4684 1741 
L 678 1741 
L 678 2272 
z
" id="DejaVuSans-2212" transform="scale(0.015625)"/>
        <path d="M 2419 4116 
L 825 1625 
L 2419 1625 
L 2419 4116 
z
M 2253 4666 
L 3047 4666 
L 3047 1625 
L 3713 1625 
L 3713 1100 
L 3047 1100 
L 3047 0 
L 2419 0 
L 2419 1100 
L 313 1100 
L 313 1709 
L 2253 4666 
z
" id="DejaVuSans-34" transform="scale(0.015625)"/>
       </defs>
       <use transform="translate(0 0.684375)" xlink:href="#DejaVuSans-31"/>
       <use transform="translate(63.623047 0.684375)" xlink:href="#DejaVuSans-30"/>
       <use transform="translate(128.203125 38.965625)scale(0.7)" xlink:href="#DejaVuSans-2212"/>
       <use transform="translate(186.855469 38.965625)scale(0.7)" xlink:href="#DejaVuSans-34"/>
      </g>
     </g>
    </g>
    <g id="xtick_2">
     <g id="line2d_2">
      <g>
       <use style="stroke:#000000;stroke-width:0.8;" x="385.32413" xlink:href="#mac4f1fb161" y="567"/>
      </g>
     </g>
     <g id="text_2">
      <!-- $\mathdefault{10^{-3}}$ -->
      <g transform="translate(350.07413 596.795313)scale(0.3 -0.3)">
       <defs>
        <path d="M 2597 2516 
Q 3050 2419 3304 2112 
Q 3559 1806 3559 1356 
Q 3559 666 3084 287 
Q 2609 -91 1734 -91 
Q 1441 -91 1130 -33 
Q 819 25 488 141 
L 488 750 
Q 750 597 1062 519 
Q 1375 441 1716 441 
Q 2309 441 2620 675 
Q 2931 909 2931 1356 
Q 2931 1769 2642 2001 
Q 2353 2234 1838 2234 
L 1294 2234 
L 1294 2753 
L 1863 2753 
Q 2328 2753 2575 2939 
Q 2822 3125 2822 3475 
Q 2822 3834 2567 4026 
Q 2313 4219 1838 4219 
Q 1578 4219 1281 4162 
Q 984 4106 628 3988 
L 628 4550 
Q 988 4650 1302 4700 
Q 1616 4750 1894 4750 
Q 2613 4750 3031 4423 
Q 3450 4097 3450 3541 
Q 3450 3153 3228 2886 
Q 3006 2619 2597 2516 
z
" id="DejaVuSans-33" transform="scale(0.015625)"/>
       </defs>
       <use transform="translate(0 0.765625)" xlink:href="#DejaVuSans-31"/>
       <use transform="translate(63.623047 0.765625)" xlink:href="#DejaVuSans-30"/>
       <use transform="translate(128.203125 39.046875)scale(0.7)" xlink:href="#DejaVuSans-2212"/>
       <use transform="translate(186.855469 39.046875)scale(0.7)" xlink:href="#DejaVuSans-33"/>
      </g>
     </g>
    </g>
    <g id="xtick_3">
     <g id="line2d_3">
      <g>
       <use style="stroke:#000000;stroke-width:0.8;" x="590.303721" xlink:href="#mac4f1fb161" y="567"/>
      </g>
     </g>
     <g id="text_3">
      <!-- $\mathdefault{10^{-2}}$ -->
      <g transform="translate(555.053721 596.795313)scale(0.3 -0.3)">
       <defs>
        <path d="M 1228 531 
L 3431 531 
L 3431 0 
L 469 0 
L 469 531 
Q 828 903 1448 1529 
Q 2069 2156 2228 2338 
Q 2531 2678 2651 2914 
Q 2772 3150 2772 3378 
Q 2772 3750 2511 3984 
Q 2250 4219 1831 4219 
Q 1534 4219 1204 4116 
Q 875 4013 500 3803 
L 500 4441 
Q 881 4594 1212 4672 
Q 1544 4750 1819 4750 
Q 2544 4750 2975 4387 
Q 3406 4025 3406 3419 
Q 3406 3131 3298 2873 
Q 3191 2616 2906 2266 
Q 2828 2175 2409 1742 
Q 1991 1309 1228 531 
z
" id="DejaVuSans-32" transform="scale(0.015625)"/>
       </defs>
       <use transform="translate(0 0.765625)" xlink:href="#DejaVuSans-31"/>
       <use transform="translate(63.623047 0.765625)" xlink:href="#DejaVuSans-30"/>
       <use transform="translate(128.203125 39.046875)scale(0.7)" xlink:href="#DejaVuSans-2212"/>
       <use transform="translate(186.855469 39.046875)scale(0.7)" xlink:href="#DejaVuSans-32"/>
      </g>
     </g>
    </g>
    <g id="xtick_4">
     <g id="line2d_4">
      <g>
       <use style="stroke:#000000;stroke-width:0.8;" x="795.283313" xlink:href="#mac4f1fb161" y="567"/>
      </g>
     </g>
     <g id="text_4">
      <!-- $\mathdefault{10^{-1}}$ -->
      <g transform="translate(760.033313 596.795313)scale(0.3 -0.3)">
       <use transform="translate(0 0.684375)" xlink:href="#DejaVuSans-31"/>
       <use transform="translate(63.623047 0.684375)" xlink:href="#DejaVuSans-30"/>
       <use transform="translate(128.203125 38.965625)scale(0.7)" xlink:href="#DejaVuSans-2212"/>
       <use transform="translate(186.855469 38.965625)scale(0.7)" xlink:href="#DejaVuSans-31"/>
      </g>
     </g>
    </g>
    <g id="xtick_5">
     <g id="line2d_5">
      <g>
       <use style="stroke:#000000;stroke-width:0.8;" x="1000.262905" xlink:href="#mac4f1fb161" y="567"/>
      </g>
     </g>
     <g id="text_5">
      <!-- $\mathdefault{10^{0}}$ -->
      <g transform="translate(973.862905 596.795313)scale(0.3 -0.3)">
       <use transform="translate(0 0.765625)" xlink:href="#DejaVuSans-31"/>
       <use transform="translate(63.623047 0.765625)" xlink:href="#DejaVuSans-30"/>
       <use transform="translate(128.203125 39.046875)scale(0.7)" xlink:href="#DejaVuSans-30"/>
      </g>
     </g>
    </g>
    <g id="xtick_6">
     <g id="line2d_6">
      <defs>
       <path d="M 0 0 
L 0 2 
" id="m6f889330a9" style="stroke:#000000;stroke-width:0.6;"/>
      </defs>
      <g>
       <use style="stroke:#000000;stroke-width:0.6;" x="148.592797" xlink:href="#m6f889330a9" y="567"/>
      </g>
     </g>
    </g>
    <g id="xtick_7">
     <g id="line2d_7">
      <g>
       <use style="stroke:#000000;stroke-width:0.6;" x="160.479963" xlink:href="#m6f889330a9" y="567"/>
      </g>
     </g>
    </g>
    <g id="xtick_8">
     <g id="line2d_8">
      <g>
       <use style="stroke:#000000;stroke-width:0.6;" x="170.965186" xlink:href="#m6f889330a9" y="567"/>
      </g>
     </g>
    </g>
    <g id="xtick_9">
     <g id="line2d_9">
      <g>
       <use style="stroke:#000000;stroke-width:0.6;" x="242.049543" xlink:href="#m6f889330a9" y="567"/>
      </g>
     </g>
    </g>
    <g id="xtick_10">
     <g id="line2d_10">
      <g>
       <use style="stroke:#000000;stroke-width:0.6;" x="278.144658" xlink:href="#m6f889330a9" y="567"/>
      </g>
     </g>
    </g>
    <g id="xtick_11">
     <g id="line2d_11">
      <g>
       <use style="stroke:#000000;stroke-width:0.6;" x="303.754549" xlink:href="#m6f889330a9" y="567"/>
      </g>
     </g>
    </g>
    <g id="xtick_12">
     <g id="line2d_12">
      <g>
       <use style="stroke:#000000;stroke-width:0.6;" x="323.619124" xlink:href="#m6f889330a9" y="567"/>
      </g>
     </g>
    </g>
    <g id="xtick_13">
     <g id="line2d_13">
      <g>
       <use style="stroke:#000000;stroke-width:0.6;" x="339.849664" xlink:href="#m6f889330a9" y="567"/>
      </g>
     </g>
    </g>
    <g id="xtick_14">
     <g id="line2d_14">
      <g>
       <use style="stroke:#000000;stroke-width:0.6;" x="353.572389" xlink:href="#m6f889330a9" y="567"/>
      </g>
     </g>
    </g>
    <g id="xtick_15">
     <g id="line2d_15">
      <g>
       <use style="stroke:#000000;stroke-width:0.6;" x="365.459555" xlink:href="#m6f889330a9" y="567"/>
      </g>
     </g>
    </g>
    <g id="xtick_16">
     <g id="line2d_16">
      <g>
       <use style="stroke:#000000;stroke-width:0.6;" x="375.944778" xlink:href="#m6f889330a9" y="567"/>
      </g>
     </g>
    </g>
    <g id="xtick_17">
     <g id="line2d_17">
      <g>
       <use style="stroke:#000000;stroke-width:0.6;" x="447.029135" xlink:href="#m6f889330a9" y="567"/>
      </g>
     </g>
    </g>
    <g id="xtick_18">
     <g id="line2d_18">
      <g>
       <use style="stroke:#000000;stroke-width:0.6;" x="483.12425" xlink:href="#m6f889330a9" y="567"/>
      </g>
     </g>
    </g>
    <g id="xtick_19">
     <g id="line2d_19">
      <g>
       <use style="stroke:#000000;stroke-width:0.6;" x="508.734141" xlink:href="#m6f889330a9" y="567"/>
      </g>
     </g>
    </g>
    <g id="xtick_20">
     <g id="line2d_20">
      <g>
       <use style="stroke:#000000;stroke-width:0.6;" x="528.598716" xlink:href="#m6f889330a9" y="567"/>
      </g>
     </g>
    </g>
    <g id="xtick_21">
     <g id="line2d_21">
      <g>
       <use style="stroke:#000000;stroke-width:0.6;" x="544.829255" xlink:href="#m6f889330a9" y="567"/>
      </g>
     </g>
    </g>
    <g id="xtick_22">
     <g id="line2d_22">
      <g>
       <use style="stroke:#000000;stroke-width:0.6;" x="558.551981" xlink:href="#m6f889330a9" y="567"/>
      </g>
     </g>
    </g>
    <g id="xtick_23">
     <g id="line2d_23">
      <g>
       <use style="stroke:#000000;stroke-width:0.6;" x="570.439147" xlink:href="#m6f889330a9" y="567"/>
      </g>
     </g>
    </g>
    <g id="xtick_24">
     <g id="line2d_24">
      <g>
       <use style="stroke:#000000;stroke-width:0.6;" x="580.92437" xlink:href="#m6f889330a9" y="567"/>
      </g>
     </g>
    </g>
    <g id="xtick_25">
     <g id="line2d_25">
      <g>
       <use style="stroke:#000000;stroke-width:0.6;" x="652.008727" xlink:href="#m6f889330a9" y="567"/>
      </g>
     </g>
    </g>
    <g id="xtick_26">
     <g id="line2d_26">
      <g>
       <use style="stroke:#000000;stroke-width:0.6;" x="688.103842" xlink:href="#m6f889330a9" y="567"/>
      </g>
     </g>
    </g>
    <g id="xtick_27">
     <g id="line2d_27">
      <g>
       <use style="stroke:#000000;stroke-width:0.6;" x="713.713733" xlink:href="#m6f889330a9" y="567"/>
      </g>
     </g>
    </g>
    <g id="xtick_28">
     <g id="line2d_28">
      <g>
       <use style="stroke:#000000;stroke-width:0.6;" x="733.578308" xlink:href="#m6f889330a9" y="567"/>
      </g>
     </g>
    </g>
    <g id="xtick_29">
     <g id="line2d_29">
      <g>
       <use style="stroke:#000000;stroke-width:0.6;" x="749.808847" xlink:href="#m6f889330a9" y="567"/>
      </g>
     </g>
    </g>
    <g id="xtick_30">
     <g id="line2d_30">
      <g>
       <use style="stroke:#000000;stroke-width:0.6;" x="763.531573" xlink:href="#m6f889330a9" y="567"/>
      </g>
     </g>
    </g>
    <g id="xtick_31">
     <g id="line2d_31">
      <g>
       <use style="stroke:#000000;stroke-width:0.6;" x="775.418738" xlink:href="#m6f889330a9" y="567"/>
      </g>
     </g>
    </g>
    <g id="xtick_32">
     <g id="line2d_32">
      <g>
       <use style="stroke:#000000;stroke-width:0.6;" x="785.903962" xlink:href="#m6f889330a9" y="567"/>
      </g>
     </g>
    </g>
    <g id="xtick_33">
     <g id="line2d_33">
      <g>
       <use style="stroke:#000000;stroke-width:0.6;" x="856.988319" xlink:href="#m6f889330a9" y="567"/>
      </g>
     </g>
    </g>
    <g id="xtick_34">
     <g id="line2d_34">
      <g>
       <use style="stroke:#000000;stroke-width:0.6;" x="893.083433" xlink:href="#m6f889330a9" y="567"/>
      </g>
     </g>
    </g>
    <g id="xtick_35">
     <g id="line2d_35">
      <g>
       <use style="stroke:#000000;stroke-width:0.6;" x="918.693325" xlink:href="#m6f889330a9" y="567"/>
      </g>
     </g>
    </g>
    <g id="xtick_36">
     <g id="line2d_36">
      <g>
       <use style="stroke:#000000;stroke-width:0.6;" x="938.5579" xlink:href="#m6f889330a9" y="567"/>
      </g>
     </g>
    </g>
    <g id="xtick_37">
     <g id="line2d_37">
      <g>
       <use style="stroke:#000000;stroke-width:0.6;" x="954.788439" xlink:href="#m6f889330a9" y="567"/>
      </g>
     </g>
    </g>
    <g id="xtick_38">
     <g id="line2d_38">
      <g>
       <use style="stroke:#000000;stroke-width:0.6;" x="968.511165" xlink:href="#m6f889330a9" y="567"/>
      </g>
     </g>
    </g>
    <g id="xtick_39">
     <g id="line2d_39">
      <g>
       <use style="stroke:#000000;stroke-width:0.6;" x="980.39833" xlink:href="#m6f889330a9" y="567"/>
      </g>
     </g>
    </g>
    <g id="xtick_40">
     <g id="line2d_40">
      <g>
       <use style="stroke:#000000;stroke-width:0.6;" x="990.883553" xlink:href="#m6f889330a9" y="567"/>
      </g>
     </g>
    </g>
    <g id="text_6">
     <!-- Layer 0 f -->
     <g transform="translate(524.217188 629.829687)scale(0.3 -0.3)">
      <defs>
       <path d="M 628 4666 
L 1259 4666 
L 1259 531 
L 3531 531 
L 3531 0 
L 628 0 
L 628 4666 
z
" id="DejaVuSans-4c" transform="scale(0.015625)"/>
       <path d="M 2194 1759 
Q 1497 1759 1228 1600 
Q 959 1441 959 1056 
Q 959 750 1161 570 
Q 1363 391 1709 391 
Q 2188 391 2477 730 
Q 2766 1069 2766 1631 
L 2766 1759 
L 2194 1759 
z
M 3341 1997 
L 3341 0 
L 2766 0 
L 2766 531 
Q 2569 213 2275 61 
Q 1981 -91 1556 -91 
Q 1019 -91 701 211 
Q 384 513 384 1019 
Q 384 1609 779 1909 
Q 1175 2209 1959 2209 
L 2766 2209 
L 2766 2266 
Q 2766 2663 2505 2880 
Q 2244 3097 1772 3097 
Q 1472 3097 1187 3025 
Q 903 2953 641 2809 
L 641 3341 
Q 956 3463 1253 3523 
Q 1550 3584 1831 3584 
Q 2591 3584 2966 3190 
Q 3341 2797 3341 1997 
z
" id="DejaVuSans-61" transform="scale(0.015625)"/>
       <path d="M 2059 -325 
Q 1816 -950 1584 -1140 
Q 1353 -1331 966 -1331 
L 506 -1331 
L 506 -850 
L 844 -850 
Q 1081 -850 1212 -737 
Q 1344 -625 1503 -206 
L 1606 56 
L 191 3500 
L 800 3500 
L 1894 763 
L 2988 3500 
L 3597 3500 
L 2059 -325 
z
" id="DejaVuSans-79" transform="scale(0.015625)"/>
       <path d="M 3597 1894 
L 3597 1613 
L 953 1613 
Q 991 1019 1311 708 
Q 1631 397 2203 397 
Q 2534 397 2845 478 
Q 3156 559 3463 722 
L 3463 178 
Q 3153 47 2828 -22 
Q 2503 -91 2169 -91 
Q 1331 -91 842 396 
Q 353 884 353 1716 
Q 353 2575 817 3079 
Q 1281 3584 2069 3584 
Q 2775 3584 3186 3129 
Q 3597 2675 3597 1894 
z
M 3022 2063 
Q 3016 2534 2758 2815 
Q 2500 3097 2075 3097 
Q 1594 3097 1305 2825 
Q 1016 2553 972 2059 
L 3022 2063 
z
" id="DejaVuSans-65" transform="scale(0.015625)"/>
       <path d="M 2631 2963 
Q 2534 3019 2420 3045 
Q 2306 3072 2169 3072 
Q 1681 3072 1420 2755 
Q 1159 2438 1159 1844 
L 1159 0 
L 581 0 
L 581 3500 
L 1159 3500 
L 1159 2956 
Q 1341 3275 1631 3429 
Q 1922 3584 2338 3584 
Q 2397 3584 2469 3576 
Q 2541 3569 2628 3553 
L 2631 2963 
z
" id="DejaVuSans-72" transform="scale(0.015625)"/>
       <path id="DejaVuSans-20" transform="scale(0.015625)"/>
       <path d="M 2375 4863 
L 2375 4384 
L 1825 4384 
Q 1516 4384 1395 4259 
Q 1275 4134 1275 3809 
L 1275 3500 
L 2222 3500 
L 2222 3053 
L 1275 3053 
L 1275 0 
L 697 0 
L 697 3053 
L 147 3053 
L 147 3500 
L 697 3500 
L 697 3744 
Q 697 4328 969 4595 
Q 1241 4863 1831 4863 
L 2375 4863 
z
" id="DejaVuSans-66" transform="scale(0.015625)"/>
      </defs>
      <use xlink:href="#DejaVuSans-4c"/>
      <use x="55.712891" xlink:href="#DejaVuSans-61"/>
      <use x="116.992188" xlink:href="#DejaVuSans-79"/>
      <use x="176.171875" xlink:href="#DejaVuSans-65"/>
      <use x="237.695312" xlink:href="#DejaVuSans-72"/>
      <use x="278.808594" xlink:href="#DejaVuSans-20"/>
      <use x="310.595703" xlink:href="#DejaVuSans-30"/>
      <use x="374.21875" xlink:href="#DejaVuSans-20"/>
      <use x="406.005859" xlink:href="#DejaVuSans-66"/>
     </g>
    </g>
   </g>
   <g id="matplotlib.axis_2">
    <g id="ytick_1">
     <g id="line2d_41">
      <defs>
       <path d="M 0 0 
L -3.5 0 
" id="md6dabcf97c" style="stroke:#000000;stroke-width:0.8;"/>
      </defs>
      <g>
       <use style="stroke:#000000;stroke-width:0.8;" x="144" xlink:href="#md6dabcf97c" y="544.761818"/>
      </g>
     </g>
     <g id="text_7">
      <!-- $\mathdefault{10^{0}}$ -->
      <g transform="translate(84.2 556.159474)scale(0.3 -0.3)">
       <use transform="translate(0 0.765625)" xlink:href="#DejaVuSans-31"/>
       <use transform="translate(63.623047 0.765625)" xlink:href="#DejaVuSans-30"/>
       <use transform="translate(128.203125 39.046875)scale(0.7)" xlink:href="#DejaVuSans-30"/>
      </g>
     </g>
    </g>
    <g id="ytick_2">
     <g id="line2d_42">
      <g>
       <use style="stroke:#000000;stroke-width:0.8;" x="144" xlink:href="#md6dabcf97c" y="396.464293"/>
      </g>
     </g>
     <g id="text_8">
      <!-- $\mathdefault{10^{1}}$ -->
      <g transform="translate(84.2 407.861949)scale(0.3 -0.3)">
       <use transform="translate(0 0.684375)" xlink:href="#DejaVuSans-31"/>
       <use transform="translate(63.623047 0.684375)" xlink:href="#DejaVuSans-30"/>
       <use transform="translate(128.203125 38.965625)scale(0.7)" xlink:href="#DejaVuSans-31"/>
      </g>
     </g>
    </g>
    <g id="ytick_3">
     <g id="line2d_43">
      <g>
       <use style="stroke:#000000;stroke-width:0.8;" x="144" xlink:href="#md6dabcf97c" y="248.166768"/>
      </g>
     </g>
     <g id="text_9">
      <!-- $\mathdefault{10^{2}}$ -->
      <g transform="translate(84.2 259.564424)scale(0.3 -0.3)">
       <use transform="translate(0 0.765625)" xlink:href="#DejaVuSans-31"/>
       <use transform="translate(63.623047 0.765625)" xlink:href="#DejaVuSans-30"/>
       <use transform="translate(128.203125 39.046875)scale(0.7)" xlink:href="#DejaVuSans-32"/>
      </g>
     </g>
    </g>
    <g id="ytick_4">
     <g id="line2d_44">
      <g>
       <use style="stroke:#000000;stroke-width:0.8;" x="144" xlink:href="#md6dabcf97c" y="99.869243"/>
      </g>
     </g>
     <g id="text_10">
      <!-- $\mathdefault{10^{3}}$ -->
      <g transform="translate(84.2 111.266899)scale(0.3 -0.3)">
       <use transform="translate(0 0.765625)" xlink:href="#DejaVuSans-31"/>
       <use transform="translate(63.623047 0.765625)" xlink:href="#DejaVuSans-30"/>
       <use transform="translate(128.203125 39.046875)scale(0.7)" xlink:href="#DejaVuSans-33"/>
      </g>
     </g>
    </g>
    <g id="ytick_5">
     <g id="line2d_45">
      <defs>
       <path d="M 0 0 
L -2 0 
" id="m2e8a2cc393" style="stroke:#000000;stroke-width:0.6;"/>
      </defs>
      <g>
       <use style="stroke:#000000;stroke-width:0.6;" x="144" xlink:href="#m2e8a2cc393" y="559.133333"/>
      </g>
     </g>
    </g>
    <g id="ytick_6">
     <g id="line2d_46">
      <g>
       <use style="stroke:#000000;stroke-width:0.6;" x="144" xlink:href="#m2e8a2cc393" y="551.547541"/>
      </g>
     </g>
    </g>
    <g id="ytick_7">
     <g id="line2d_47">
      <g>
       <use style="stroke:#000000;stroke-width:0.6;" x="144" xlink:href="#m2e8a2cc393" y="500.119815"/>
      </g>
     </g>
    </g>
    <g id="ytick_8">
     <g id="line2d_48">
      <g>
       <use style="stroke:#000000;stroke-width:0.6;" x="144" xlink:href="#m2e8a2cc393" y="474.005917"/>
      </g>
     </g>
    </g>
    <g id="ytick_9">
     <g id="line2d_49">
      <g>
       <use style="stroke:#000000;stroke-width:0.6;" x="144" xlink:href="#m2e8a2cc393" y="455.477812"/>
      </g>
     </g>
    </g>
    <g id="ytick_10">
     <g id="line2d_50">
      <g>
       <use style="stroke:#000000;stroke-width:0.6;" x="144" xlink:href="#m2e8a2cc393" y="441.106297"/>
      </g>
     </g>
    </g>
    <g id="ytick_11">
     <g id="line2d_51">
      <g>
       <use style="stroke:#000000;stroke-width:0.6;" x="144" xlink:href="#m2e8a2cc393" y="429.363914"/>
      </g>
     </g>
    </g>
    <g id="ytick_12">
     <g id="line2d_52">
      <g>
       <use style="stroke:#000000;stroke-width:0.6;" x="144" xlink:href="#m2e8a2cc393" y="419.43587"/>
      </g>
     </g>
    </g>
    <g id="ytick_13">
     <g id="line2d_53">
      <g>
       <use style="stroke:#000000;stroke-width:0.6;" x="144" xlink:href="#m2e8a2cc393" y="410.835808"/>
      </g>
     </g>
    </g>
    <g id="ytick_14">
     <g id="line2d_54">
      <g>
       <use style="stroke:#000000;stroke-width:0.6;" x="144" xlink:href="#m2e8a2cc393" y="403.250016"/>
      </g>
     </g>
    </g>
    <g id="ytick_15">
     <g id="line2d_55">
      <g>
       <use style="stroke:#000000;stroke-width:0.6;" x="144" xlink:href="#m2e8a2cc393" y="351.82229"/>
      </g>
     </g>
    </g>
    <g id="ytick_16">
     <g id="line2d_56">
      <g>
       <use style="stroke:#000000;stroke-width:0.6;" x="144" xlink:href="#m2e8a2cc393" y="325.708392"/>
      </g>
     </g>
    </g>
    <g id="ytick_17">
     <g id="line2d_57">
      <g>
       <use style="stroke:#000000;stroke-width:0.6;" x="144" xlink:href="#m2e8a2cc393" y="307.180287"/>
      </g>
     </g>
    </g>
    <g id="ytick_18">
     <g id="line2d_58">
      <g>
       <use style="stroke:#000000;stroke-width:0.6;" x="144" xlink:href="#m2e8a2cc393" y="292.808772"/>
      </g>
     </g>
    </g>
    <g id="ytick_19">
     <g id="line2d_59">
      <g>
       <use style="stroke:#000000;stroke-width:0.6;" x="144" xlink:href="#m2e8a2cc393" y="281.066389"/>
      </g>
     </g>
    </g>
    <g id="ytick_20">
     <g id="line2d_60">
      <g>
       <use style="stroke:#000000;stroke-width:0.6;" x="144" xlink:href="#m2e8a2cc393" y="271.138346"/>
      </g>
     </g>
    </g>
    <g id="ytick_21">
     <g id="line2d_61">
      <g>
       <use style="stroke:#000000;stroke-width:0.6;" x="144" xlink:href="#m2e8a2cc393" y="262.538283"/>
      </g>
     </g>
    </g>
    <g id="ytick_22">
     <g id="line2d_62">
      <g>
       <use style="stroke:#000000;stroke-width:0.6;" x="144" xlink:href="#m2e8a2cc393" y="254.952491"/>
      </g>
     </g>
    </g>
    <g id="ytick_23">
     <g id="line2d_63">
      <g>
       <use style="stroke:#000000;stroke-width:0.6;" x="144" xlink:href="#m2e8a2cc393" y="203.524765"/>
      </g>
     </g>
    </g>
    <g id="ytick_24">
     <g id="line2d_64">
      <g>
       <use style="stroke:#000000;stroke-width:0.6;" x="144" xlink:href="#m2e8a2cc393" y="177.410867"/>
      </g>
     </g>
    </g>
    <g id="ytick_25">
     <g id="line2d_65">
      <g>
       <use style="stroke:#000000;stroke-width:0.6;" x="144" xlink:href="#m2e8a2cc393" y="158.882762"/>
      </g>
     </g>
    </g>
    <g id="ytick_26">
     <g id="line2d_66">
      <g>
       <use style="stroke:#000000;stroke-width:0.6;" x="144" xlink:href="#m2e8a2cc393" y="144.511247"/>
      </g>
     </g>
    </g>
    <g id="ytick_27">
     <g id="line2d_67">
      <g>
       <use style="stroke:#000000;stroke-width:0.6;" x="144" xlink:href="#m2e8a2cc393" y="132.768864"/>
      </g>
     </g>
    </g>
    <g id="ytick_28">
     <g id="line2d_68">
      <g>
       <use style="stroke:#000000;stroke-width:0.6;" x="144" xlink:href="#m2e8a2cc393" y="122.840821"/>
      </g>
     </g>
    </g>
    <g id="ytick_29">
     <g id="line2d_69">
      <g>
       <use style="stroke:#000000;stroke-width:0.6;" x="144" xlink:href="#m2e8a2cc393" y="114.240758"/>
      </g>
     </g>
    </g>
    <g id="ytick_30">
     <g id="line2d_70">
      <g>
       <use style="stroke:#000000;stroke-width:0.6;" x="144" xlink:href="#m2e8a2cc393" y="106.654966"/>
      </g>
     </g>
    </g>
    <g id="text_11">
     <!-- Events -->
     <g transform="translate(73.960938 373.166719)rotate(-90)scale(0.3 -0.3)">
      <defs>
       <path d="M 628 4666 
L 3578 4666 
L 3578 4134 
L 1259 4134 
L 1259 2753 
L 3481 2753 
L 3481 2222 
L 1259 2222 
L 1259 531 
L 3634 531 
L 3634 0 
L 628 0 
L 628 4666 
z
" id="DejaVuSans-45" transform="scale(0.015625)"/>
       <path d="M 191 3500 
L 800 3500 
L 1894 563 
L 2988 3500 
L 3597 3500 
L 2284 0 
L 1503 0 
L 191 3500 
z
" id="DejaVuSans-76" transform="scale(0.015625)"/>
       <path d="M 3513 2113 
L 3513 0 
L 2938 0 
L 2938 2094 
Q 2938 2591 2744 2837 
Q 2550 3084 2163 3084 
Q 1697 3084 1428 2787 
Q 1159 2491 1159 1978 
L 1159 0 
L 581 0 
L 581 3500 
L 1159 3500 
L 1159 2956 
Q 1366 3272 1645 3428 
Q 1925 3584 2291 3584 
Q 2894 3584 3203 3211 
Q 3513 2838 3513 2113 
z
" id="DejaVuSans-6e" transform="scale(0.015625)"/>
       <path d="M 1172 4494 
L 1172 3500 
L 2356 3500 
L 2356 3053 
L 1172 3053 
L 1172 1153 
Q 1172 725 1289 603 
Q 1406 481 1766 481 
L 2356 481 
L 2356 0 
L 1766 0 
Q 1100 0 847 248 
Q 594 497 594 1153 
L 594 3053 
L 172 3053 
L 172 3500 
L 594 3500 
L 594 4494 
L 1172 4494 
z
" id="DejaVuSans-74" transform="scale(0.015625)"/>
       <path d="M 2834 3397 
L 2834 2853 
Q 2591 2978 2328 3040 
Q 2066 3103 1784 3103 
Q 1356 3103 1142 2972 
Q 928 2841 928 2578 
Q 928 2378 1081 2264 
Q 1234 2150 1697 2047 
L 1894 2003 
Q 2506 1872 2764 1633 
Q 3022 1394 3022 966 
Q 3022 478 2636 193 
Q 2250 -91 1575 -91 
Q 1294 -91 989 -36 
Q 684 19 347 128 
L 347 722 
Q 666 556 975 473 
Q 1284 391 1588 391 
Q 1994 391 2212 530 
Q 2431 669 2431 922 
Q 2431 1156 2273 1281 
Q 2116 1406 1581 1522 
L 1381 1569 
Q 847 1681 609 1914 
Q 372 2147 372 2553 
Q 372 3047 722 3315 
Q 1072 3584 1716 3584 
Q 2034 3584 2315 3537 
Q 2597 3491 2834 3397 
z
" id="DejaVuSans-73" transform="scale(0.015625)"/>
      </defs>
      <use xlink:href="#DejaVuSans-45"/>
      <use x="63.183594" xlink:href="#DejaVuSans-76"/>
      <use x="122.363281" xlink:href="#DejaVuSans-65"/>
      <use x="183.886719" xlink:href="#DejaVuSans-6e"/>
      <use x="247.265625" xlink:href="#DejaVuSans-74"/>
      <use x="286.474609" xlink:href="#DejaVuSans-73"/>
     </g>
    </g>
   </g>
   <g id="line2d_71">
    <path clip-path="url(#p6557ea1296)" d="M 453.843217 649 
L 453.843217 544.761818 
L 462.125221 544.761818 
L 462.125221 649 
M 569.791269 649 
L 569.791269 544.761818 
L 578.073273 544.761818 
L 578.073273 649 
M 660.89331 649 
L 660.89331 544.761818 
L 669.175314 544.761818 
L 669.175314 649 
M 677.457317 649 
L 677.457317 500.119815 
L 685.739321 500.119815 
L 685.739321 544.761818 
L 694.021325 544.761818 
L 694.021325 649 
M 702.303329 649 
L 702.303329 455.477812 
L 710.585332 455.477812 
L 710.585332 403.250016 
L 718.867336 403.250016 
L 718.867336 419.43587 
L 727.14934 419.43587 
L 727.14934 384.72191 
L 735.431343 384.72191 
L 735.431343 348.679969 
L 743.713347 348.679969 
L 743.713347 323.59657 
L 751.995351 323.59657 
L 751.995351 280.001822 
L 760.277355 280.001822 
L 760.277355 272.065049 
L 768.559358 272.065049 
L 768.559358 230.285953 
L 776.841362 230.285953 
L 776.841362 211.757847 
L 785.123366 211.757847 
L 785.123366 184.916204 
L 793.405369 184.916204 
L 793.405369 167.299072 
L 801.687373 167.299072 
L 801.687373 144.898839 
L 809.969377 144.898839 
L 809.969377 127.31716 
L 818.251381 127.31716 
L 818.251381 114.644551 
L 826.533384 114.644551 
L 826.533384 105.872568 
L 834.815388 105.872568 
L 834.815388 99.998182 
L 843.097392 99.998182 
L 843.097392 105.872568 
L 851.379395 105.872568 
L 851.379395 109.657894 
L 859.661399 109.657894 
L 859.661399 114.80678 
L 867.943403 114.80678 
L 867.943403 135.509907 
L 876.225407 135.509907 
L 876.225407 152.744329 
L 884.50741 152.744329 
L 884.50741 158.082692 
L 892.789414 158.082692 
L 892.789414 184.19659 
L 909.353421 184.19659 
L 909.353421 203.524765 
L 917.635425 203.524765 
L 917.635425 222.483673 
L 925.917429 222.483673 
L 925.917429 256.399851 
L 934.199432 256.399851 
L 934.199432 271.138346 
L 942.481436 271.138346 
L 942.481436 321.551802 
L 950.76344 321.551802 
L 950.76344 340.079907 
L 959.045444 340.079907 
L 959.045444 342.82095 
L 967.327447 342.82095 
L 967.327447 345.683857 
L 975.609451 345.683857 
L 975.609451 366.193805 
L 983.891455 366.193805 
L 983.891455 345.683857 
L 992.173458 345.683857 
L 992.173458 292.808772 
L 996.218182 292.808772 
L 996.218182 348.679969 
L 996.218182 348.679969 
" style="fill:none;stroke:#800080;stroke-linecap:square;stroke-width:3;"/>
   </g>
   <g id="line2d_72">
    <path clip-path="url(#p6557ea1296)" d="M 184.581818 305.589964 
L 184.581818 474.005917 
L 188.819099 474.005917 
L 188.819099 500.119815 
L 197.101102 500.119815 
L 197.101102 441.106297 
L 205.383106 441.106297 
L 205.383106 455.477812 
L 213.66511 455.477812 
L 213.66511 474.005917 
L 221.947113 474.005917 
L 221.947113 500.119815 
L 230.229117 500.119815 
L 230.229117 474.005917 
L 238.511121 474.005917 
L 238.511121 419.43587 
L 246.793125 419.43587 
L 246.793125 455.477812 
L 255.075128 455.477812 
L 255.075128 441.106297 
L 263.357132 441.106297 
L 263.357132 455.477812 
L 271.639136 455.477812 
L 271.639136 403.250016 
L 279.921139 403.250016 
L 279.921139 500.119815 
L 288.203143 500.119815 
L 288.203143 455.477812 
L 296.485147 455.477812 
L 296.485147 419.43587 
L 304.76715 419.43587 
L 304.76715 403.250016 
L 313.049154 403.250016 
L 313.049154 455.477812 
L 329.613162 455.477812 
L 329.613162 429.363914 
L 337.895165 429.363914 
L 337.895165 419.43587 
L 346.177169 419.43587 
L 346.177169 403.250016 
L 354.459173 403.250016 
L 354.459173 419.43587 
L 362.741176 419.43587 
L 362.741176 390.32586 
L 371.02318 390.32586 
L 371.02318 441.106297 
L 379.305184 441.106297 
L 379.305184 396.464293 
L 395.869191 396.464293 
L 395.869191 403.250016 
L 404.151195 403.250016 
L 404.151195 429.363914 
L 412.433199 429.363914 
L 412.433199 441.106297 
L 437.27921 441.106297 
L 437.27921 544.761818 
L 445.561214 544.761818 
L 445.561214 474.005917 
L 453.843217 474.005917 
L 453.843217 441.106297 
L 470.407225 441.106297 
L 470.407225 390.32586 
L 478.689228 390.32586 
L 478.689228 429.363914 
L 486.971232 429.363914 
L 486.971232 441.106297 
L 503.53524 441.106297 
L 503.53524 403.250016 
L 511.817243 403.250016 
L 511.817243 419.43587 
L 520.099247 419.43587 
L 520.099247 396.464293 
L 528.381251 396.464293 
L 528.381251 410.835808 
L 536.663254 410.835808 
L 536.663254 390.32586 
L 544.945258 390.32586 
L 544.945258 374.793867 
L 561.509266 374.793867 
L 561.509266 358.608013 
L 569.791269 358.608013 
L 569.791269 370.350395 
L 578.073273 370.350395 
L 578.073273 358.608013 
L 586.355277 358.608013 
L 586.355277 342.82095 
L 594.63728 342.82095 
L 594.63728 337.450775 
L 602.919284 337.450775 
L 602.919284 317.647285 
L 611.201288 317.647285 
L 611.201288 330.151864 
L 619.483291 330.151864 
L 619.483291 308.810875 
L 627.765295 308.810875 
L 627.765295 321.551802 
L 636.047299 321.551802 
L 636.047299 289.055974 
L 644.329303 289.055974 
L 644.329303 292.808772 
L 652.611306 292.808772 
L 652.611306 296.793844 
L 660.89331 296.793844 
L 660.89331 277.924068 
L 669.175314 277.924068 
L 669.175314 289.055974 
L 677.457317 289.055974 
L 677.457317 271.138346 
L 685.739321 271.138346 
L 685.739321 267.559381 
L 694.021325 267.559381 
L 694.021325 251.470302 
L 702.303329 251.470302 
L 702.303329 238.054974 
L 710.585332 238.054974 
L 710.585332 228.363279 
L 718.867336 228.363279 
L 718.867336 228.838593 
L 727.14934 228.838593 
L 727.14934 231.269251 
L 735.431343 231.269251 
L 735.431343 214.753959 
L 743.713347 214.753959 
L 743.713347 218.300073 
L 751.995351 218.300073 
L 751.995351 202.883916 
L 760.277355 202.883916 
L 760.277355 191.247899 
L 768.559358 191.247899 
L 768.559358 183.484927 
L 776.841362 183.484927 
L 776.841362 173.455857 
L 785.123366 173.455857 
L 785.123366 163.903859 
L 793.405369 163.903859 
L 793.405369 155.740441 
L 801.687373 155.740441 
L 801.687373 138.139039 
L 809.969377 138.139039 
L 809.969377 133.851323 
L 818.251381 133.851323 
L 818.251381 125.565865 
L 826.533384 125.565865 
L 826.533384 121.115994 
L 834.815388 121.115994 
L 834.815388 124.048156 
L 843.097392 124.048156 
L 843.097392 126.630431 
L 851.379395 126.630431 
L 851.379395 138.49002 
L 859.661399 138.49002 
L 859.661399 152.59812 
L 867.943403 152.59812 
L 867.943403 166.933135 
L 876.225407 166.933135 
L 876.225407 185.400453 
L 884.50741 185.400453 
L 884.50741 201.621036 
L 892.789414 201.621036 
L 892.789414 203.203543 
L 901.071418 203.203543 
L 901.071418 218.706414 
L 909.353421 218.706414 
L 909.353421 236.963341 
L 917.635425 236.963341 
L 917.635425 252.840669 
L 925.917429 252.840669 
L 925.917429 289.055974 
L 934.199432 289.055974 
L 934.199432 298.178947 
L 942.481436 298.178947 
L 942.481436 319.569959 
L 950.76344 319.569959 
L 950.76344 321.551802 
L 959.045444 321.551802 
L 959.045444 351.82229 
L 967.327447 351.82229 
L 967.327447 345.683857 
L 975.609451 345.683857 
L 975.609451 384.72191 
L 983.891455 384.72191 
L 983.891455 396.464293 
L 992.173458 396.464293 
L 992.173458 410.835808 
L 996.218182 410.835808 
L 996.218182 544.761818 
L 996.218182 544.761818 
" style="fill:none;stroke:#0000ff;stroke-linecap:square;stroke-width:3;"/>
   </g>
   <g id="line2d_73">
    <path clip-path="url(#p6557ea1296)" d="M 184.581818 441.106297 
L 184.581818 649 
M 213.66511 649 
L 213.66511 544.761818 
L 221.947113 544.761818 
L 221.947113 649 
M 238.511121 649 
L 238.511121 544.761818 
L 246.793125 544.761818 
L 246.793125 500.119815 
L 255.075128 500.119815 
L 255.075128 649 
M 271.639136 649 
L 271.639136 544.761818 
L 296.485147 544.761818 
L 296.485147 441.106297 
L 304.76715 441.106297 
L 304.76715 649 
M 313.049154 649 
L 313.049154 544.761818 
L 321.331158 544.761818 
L 321.331158 500.119815 
L 337.895165 500.119815 
L 337.895165 429.363914 
L 346.177169 429.363914 
L 346.177169 474.005917 
L 354.459173 474.005917 
L 354.459173 500.119815 
L 362.741176 500.119815 
L 362.741176 419.43587 
L 371.02318 419.43587 
L 371.02318 474.005917 
L 379.305184 474.005917 
L 379.305184 429.363914 
L 387.587188 429.363914 
L 387.587188 374.793867 
L 395.869191 374.793867 
L 395.869191 370.350395 
L 404.151195 370.350395 
L 404.151195 355.125824 
L 412.433199 355.125824 
L 412.433199 351.82229 
L 420.715202 351.82229 
L 420.715202 327.891815 
L 428.997206 327.891815 
L 428.997206 325.708392 
L 437.27921 325.708392 
L 437.27921 304.037966 
L 445.561214 304.037966 
L 445.561214 298.178947 
L 453.843217 298.178947 
L 453.843217 273.959445 
L 462.125221 273.959445 
L 462.125221 291.533387 
L 470.407225 291.533387 
L 470.407225 281.066389 
L 478.689228 281.066389 
L 478.689228 272.065049 
L 486.971232 272.065049 
L 486.971232 256.399851 
L 495.253236 256.399851 
L 495.253236 248.166768 
L 503.53524 248.166768 
L 503.53524 254.952491 
L 511.817243 254.952491 
L 511.817243 245.640766 
L 520.099247 245.640766 
L 520.099247 233.795253 
L 528.381251 233.795253 
L 528.381251 234.312564 
L 536.663254 234.312564 
L 536.663254 210.310488 
L 544.945258 210.310488 
L 544.945258 190.454401 
L 553.227262 190.454401 
L 553.227262 202.565867 
L 561.509266 202.565867 
L 561.509266 206.828299 
L 569.791269 206.828299 
L 569.791269 206.490215 
L 578.073273 206.490215 
L 578.073273 199.468886 
L 586.355277 199.468886 
L 586.355277 218.706414 
L 594.63728 218.706414 
L 594.63728 219.941048 
L 602.919284 219.941048 
L 602.919284 239.72792 
L 611.201288 239.72792 
L 611.201288 237.506844 
L 619.483291 237.506844 
L 619.483291 227.423046 
L 627.765295 227.423046 
L 627.765295 245.640766 
L 636.047299 245.640766 
L 636.047299 242.028335 
L 644.329303 242.028335 
L 644.329303 257.880486 
L 652.611306 257.880486 
L 652.611306 232.267795 
L 660.89331 232.267795 
L 660.89331 222.483673 
L 669.175314 222.483673 
L 669.175314 204.498156 
L 677.457317 204.498156 
L 677.457317 188.384993 
L 685.739321 188.384993 
L 685.739321 178.931456 
L 694.021325 178.931456 
L 694.021325 175.091622 
L 702.303329 175.091622 
L 702.303329 197.386332 
L 710.585332 197.386332 
L 710.585332 230.285953 
L 718.867336 230.285953 
L 718.867336 246.26304 
L 727.14934 246.26304 
L 727.14934 243.809227 
L 735.431343 243.809227 
L 735.431343 276.909798 
L 743.713347 276.909798 
L 743.713347 263.348417 
L 751.995351 263.348417 
L 751.995351 246.891384 
L 760.277355 246.891384 
L 760.277355 229.317441 
L 768.559358 229.317441 
L 768.559358 212.124827 
L 776.841362 212.124827 
L 776.841362 226.958027 
L 785.123366 226.958027 
L 785.123366 219.115335 
L 793.405369 219.115335 
L 793.405369 200.382444 
L 801.687373 200.382444 
L 801.687373 177.625908 
L 809.969377 177.625908 
L 809.969377 141.985244 
L 818.251381 141.985244 
L 818.251381 126.241277 
L 826.533384 126.241277 
L 826.533384 138.725074 
L 834.815388 138.725074 
L 834.815388 150.727011 
L 843.097392 150.727011 
L 843.097392 168.037244 
L 851.379395 168.037244 
L 851.379395 178.275374 
L 859.661399 178.275374 
L 859.661399 204.825916 
L 867.943403 204.825916 
L 867.943403 214.753959 
L 876.225407 214.753959 
L 876.225407 240.295366 
L 884.50741 240.295366 
L 884.50741 272.065049 
L 892.789414 272.065049 
L 892.789414 294.109923 
L 901.071418 294.109923 
L 901.071418 317.647285 
L 909.353421 317.647285 
L 909.353421 348.679969 
L 917.635425 348.679969 
L 917.635425 351.82229 
L 925.917429 351.82229 
L 925.917429 374.793867 
L 934.199432 374.793867 
L 934.199432 370.350395 
L 942.481436 370.350395 
L 942.481436 366.193805 
L 950.76344 366.193805 
L 950.76344 370.350395 
L 959.045444 370.350395 
L 959.045444 362.289289 
L 967.327447 362.289289 
L 967.327447 351.82229 
L 983.891455 351.82229 
L 983.891455 370.350395 
L 992.173458 370.350395 
L 992.173458 396.464293 
L 996.218182 396.464293 
L 996.218182 544.761818 
L 996.218182 544.761818 
" style="fill:none;stroke:#f0e68c;stroke-linecap:square;stroke-width:3;"/>
   </g>
   <g id="patch_3">
    <path d="M 144 567 
L 144 77.76 
" style="fill:none;stroke:#000000;stroke-linecap:square;stroke-linejoin:miter;stroke-width:0.8;"/>
   </g>
   <g id="patch_4">
    <path d="M 1036.8 567 
L 1036.8 77.76 
" style="fill:none;stroke:#000000;stroke-linecap:square;stroke-linejoin:miter;stroke-width:0.8;"/>
   </g>
   <g id="patch_5">
    <path d="M 144 567 
L 1036.8 567 
" style="fill:none;stroke:#000000;stroke-linecap:square;stroke-linejoin:miter;stroke-width:0.8;"/>
   </g>
   <g id="patch_6">
    <path d="M 144 77.76 
L 1036.8 77.76 
" style="fill:none;stroke:#000000;stroke-linecap:square;stroke-linejoin:miter;stroke-width:0.8;"/>
   </g>
   <g id="legend_1">
    <g id="patch_7">
     <path d="M 158 181.869375 
L 506.4 181.869375 
Q 510.4 181.869375 510.4 177.869375 
L 510.4 91.76 
Q 510.4 87.76 506.4 87.76 
L 158 87.76 
Q 154 87.76 154 91.76 
L 154 177.869375 
Q 154 181.869375 158 181.869375 
z
" style="fill:#ffffff;opacity:0.8;stroke:#cccccc;stroke-linejoin:miter;"/>
    </g>
    <g id="line2d_74">
     <path d="M 162 103.956875 
L 202 103.956875 
" style="fill:none;stroke:#800080;stroke-linecap:square;stroke-width:3;"/>
    </g>
    <g id="line2d_75"/>
    <g id="text_12">
     <!-- $e^{+}$ DVAE -->
     <g transform="translate(218 110.956875)scale(0.2 -0.2)">
      <defs>
       <path d="M 3078 2063 
Q 3088 2113 3092 2166 
Q 3097 2219 3097 2272 
Q 3097 2653 2873 2875 
Q 2650 3097 2266 3097 
Q 1838 3097 1509 2826 
Q 1181 2556 1013 2059 
L 3078 2063 
z
M 3578 1613 
L 903 1613 
Q 884 1494 878 1425 
Q 872 1356 872 1306 
Q 872 872 1139 634 
Q 1406 397 1894 397 
Q 2269 397 2603 481 
Q 2938 566 3225 728 
L 3116 159 
Q 2806 34 2476 -28 
Q 2147 -91 1806 -91 
Q 1078 -91 686 257 
Q 294 606 294 1247 
Q 294 1794 489 2264 
Q 684 2734 1063 3103 
Q 1306 3334 1642 3459 
Q 1978 3584 2356 3584 
Q 2950 3584 3301 3228 
Q 3653 2872 3653 2272 
Q 3653 2128 3634 1964 
Q 3616 1800 3578 1613 
z
" id="DejaVuSans-Oblique-65" transform="scale(0.015625)"/>
       <path d="M 2944 4013 
L 2944 2272 
L 4684 2272 
L 4684 1741 
L 2944 1741 
L 2944 0 
L 2419 0 
L 2419 1741 
L 678 1741 
L 678 2272 
L 2419 2272 
L 2419 4013 
L 2944 4013 
z
" id="DejaVuSans-2b" transform="scale(0.015625)"/>
       <path d="M 1259 4147 
L 1259 519 
L 2022 519 
Q 2988 519 3436 956 
Q 3884 1394 3884 2338 
Q 3884 3275 3436 3711 
Q 2988 4147 2022 4147 
L 1259 4147 
z
M 628 4666 
L 1925 4666 
Q 3281 4666 3915 4102 
Q 4550 3538 4550 2338 
Q 4550 1131 3912 565 
Q 3275 0 1925 0 
L 628 0 
L 628 4666 
z
" id="DejaVuSans-44" transform="scale(0.015625)"/>
       <path d="M 1831 0 
L 50 4666 
L 709 4666 
L 2188 738 
L 3669 4666 
L 4325 4666 
L 2547 0 
L 1831 0 
z
" id="DejaVuSans-56" transform="scale(0.015625)"/>
       <path d="M 2188 4044 
L 1331 1722 
L 3047 1722 
L 2188 4044 
z
M 1831 4666 
L 2547 4666 
L 4325 0 
L 3669 0 
L 3244 1197 
L 1141 1197 
L 716 0 
L 50 0 
L 1831 4666 
z
" id="DejaVuSans-41" transform="scale(0.015625)"/>
      </defs>
      <use transform="translate(0 0.826562)" xlink:href="#DejaVuSans-Oblique-65"/>
      <use transform="translate(66.173333 39.107812)scale(0.7)" xlink:href="#DejaVuSans-2b"/>
      <use transform="translate(127.560052 0.826562)" xlink:href="#DejaVuSans-20"/>
      <use transform="translate(159.347161 0.826562)" xlink:href="#DejaVuSans-44"/>
      <use transform="translate(236.349115 0.826562)" xlink:href="#DejaVuSans-56"/>
      <use transform="translate(304.757318 0.826562)" xlink:href="#DejaVuSans-41"/>
      <use transform="translate(373.165521 0.826562)" xlink:href="#DejaVuSans-45"/>
     </g>
    </g>
    <g id="line2d_76">
     <path d="M 162 133.313125 
L 202 133.313125 
" style="fill:none;stroke:#0000ff;stroke-linecap:square;stroke-width:3;"/>
    </g>
    <g id="line2d_77"/>
    <g id="text_13">
     <!-- $\gamma$   DVAE -->
     <g transform="translate(218 140.313125)scale(0.2 -0.2)">
      <defs>
       <path d="M 1491 2950 
L 1838 788 
L 3456 3500 
L 4066 3500 
L 1972 0 
L 1713 -1331 
L 1138 -1331 
L 1397 0 
L 988 2613 
Q 925 3006 628 3006 
L 475 3006 
L 569 3500 
L 788 3500 
Q 1403 3500 1491 2950 
z
" id="DejaVuSans-Oblique-3b3" transform="scale(0.015625)"/>
      </defs>
      <use transform="translate(0 0.09375)" xlink:href="#DejaVuSans-Oblique-3b3"/>
      <use transform="translate(59.179688 0.09375)" xlink:href="#DejaVuSans-20"/>
      <use transform="translate(90.966797 0.09375)" xlink:href="#DejaVuSans-20"/>
      <use transform="translate(122.753906 0.09375)" xlink:href="#DejaVuSans-20"/>
      <use transform="translate(154.541016 0.09375)" xlink:href="#DejaVuSans-44"/>
      <use transform="translate(231.542969 0.09375)" xlink:href="#DejaVuSans-56"/>
      <use transform="translate(299.951172 0.09375)" xlink:href="#DejaVuSans-41"/>
      <use transform="translate(368.359375 0.09375)" xlink:href="#DejaVuSans-45"/>
     </g>
    </g>
    <g id="line2d_78">
     <path d="M 162 162.71 
L 202 162.71 
" style="fill:none;stroke:#f0e68c;stroke-linecap:square;stroke-width:3;"/>
    </g>
    <g id="line2d_79"/>
    <g id="text_14">
     <!-- $\pi^{+}$ DVAE -->
     <g transform="translate(218 169.71)scale(0.2 -0.2)">
      <defs>
       <path d="M 584 3500 
L 3938 3500 
L 3825 2925 
L 3384 2925 
L 2966 775 
Q 2922 550 2981 450 
Q 3038 353 3209 353 
Q 3256 353 3325 363 
Q 3397 369 3419 372 
L 3338 -44 
Q 3222 -84 3103 -103 
Q 2981 -122 2866 -122 
Q 2491 -122 2388 81 
Q 2284 288 2391 838 
L 2797 2925 
L 1506 2925 
L 938 0 
L 350 0 
L 919 2925 
L 472 2925 
L 584 3500 
z
" id="DejaVuSans-Oblique-3c0" transform="scale(0.015625)"/>
      </defs>
      <use transform="translate(0 0.826562)" xlink:href="#DejaVuSans-Oblique-3c0"/>
      <use transform="translate(64.671224 39.107812)scale(0.7)" xlink:href="#DejaVuSans-2b"/>
      <use transform="translate(126.057943 0.826562)" xlink:href="#DejaVuSans-20"/>
      <use transform="translate(157.845052 0.826562)" xlink:href="#DejaVuSans-44"/>
      <use transform="translate(234.847005 0.826562)" xlink:href="#DejaVuSans-56"/>
      <use transform="translate(303.255208 0.826562)" xlink:href="#DejaVuSans-41"/>
      <use transform="translate(371.663411 0.826562)" xlink:href="#DejaVuSans-45"/>
     </g>
    </g>
    <g id="patch_8">
     <path d="M 345.4 110.956875 
L 385.4 110.956875 
L 385.4 96.956875 
L 345.4 96.956875 
z
" style="fill:#800080;opacity:0.3;stroke:#800080;stroke-linejoin:miter;"/>
    </g>
    <g id="text_15">
     <!-- $e^{+}$ GEANT -->
     <g transform="translate(401.4 110.956875)scale(0.2 -0.2)">
      <defs>
       <path d="M 3809 666 
L 3809 1919 
L 2778 1919 
L 2778 2438 
L 4434 2438 
L 4434 434 
Q 4069 175 3628 42 
Q 3188 -91 2688 -91 
Q 1594 -91 976 548 
Q 359 1188 359 2328 
Q 359 3472 976 4111 
Q 1594 4750 2688 4750 
Q 3144 4750 3555 4637 
Q 3966 4525 4313 4306 
L 4313 3634 
Q 3963 3931 3569 4081 
Q 3175 4231 2741 4231 
Q 1884 4231 1454 3753 
Q 1025 3275 1025 2328 
Q 1025 1384 1454 906 
Q 1884 428 2741 428 
Q 3075 428 3337 486 
Q 3600 544 3809 666 
z
" id="DejaVuSans-47" transform="scale(0.015625)"/>
       <path d="M 628 4666 
L 1478 4666 
L 3547 763 
L 3547 4666 
L 4159 4666 
L 4159 0 
L 3309 0 
L 1241 3903 
L 1241 0 
L 628 0 
L 628 4666 
z
" id="DejaVuSans-4e" transform="scale(0.015625)"/>
       <path d="M -19 4666 
L 3928 4666 
L 3928 4134 
L 2272 4134 
L 2272 0 
L 1638 0 
L 1638 4134 
L -19 4134 
L -19 4666 
z
" id="DejaVuSans-54" transform="scale(0.015625)"/>
      </defs>
      <use transform="translate(0 0.826562)" xlink:href="#DejaVuSans-Oblique-65"/>
      <use transform="translate(66.173333 39.107812)scale(0.7)" xlink:href="#DejaVuSans-2b"/>
      <use transform="translate(127.560052 0.826562)" xlink:href="#DejaVuSans-20"/>
      <use transform="translate(159.347161 0.826562)" xlink:href="#DejaVuSans-47"/>
      <use transform="translate(236.837396 0.826562)" xlink:href="#DejaVuSans-45"/>
      <use transform="translate(300.02099 0.826562)" xlink:href="#DejaVuSans-41"/>
      <use transform="translate(368.429193 0.826562)" xlink:href="#DejaVuSans-4e"/>
      <use transform="translate(443.23388 0.826562)" xlink:href="#DejaVuSans-54"/>
     </g>
    </g>
    <g id="patch_9">
     <path d="M 345.4 140.313125 
L 385.4 140.313125 
L 385.4 126.313125 
L 345.4 126.313125 
z
" style="fill:#0000ff;opacity:0.3;stroke:#0000ff;stroke-linejoin:miter;"/>
    </g>
    <g id="text_16">
     <!-- $\gamma$   GEANT -->
     <g transform="translate(401.4 140.313125)scale(0.2 -0.2)">
      <use transform="translate(0 0.78125)" xlink:href="#DejaVuSans-Oblique-3b3"/>
      <use transform="translate(59.179688 0.78125)" xlink:href="#DejaVuSans-20"/>
      <use transform="translate(90.966797 0.78125)" xlink:href="#DejaVuSans-20"/>
      <use transform="translate(122.753906 0.78125)" xlink:href="#DejaVuSans-20"/>
      <use transform="translate(154.541016 0.78125)" xlink:href="#DejaVuSans-47"/>
      <use transform="translate(232.03125 0.78125)" xlink:href="#DejaVuSans-45"/>
      <use transform="translate(295.214844 0.78125)" xlink:href="#DejaVuSans-41"/>
      <use transform="translate(363.623047 0.78125)" xlink:href="#DejaVuSans-4e"/>
      <use transform="translate(438.427734 0.78125)" xlink:href="#DejaVuSans-54"/>
     </g>
    </g>
    <g id="patch_10">
     <path d="M 345.4 169.71 
L 385.4 169.71 
L 385.4 155.71 
L 345.4 155.71 
z
" style="fill:#f0e68c;opacity:0.3;stroke:#f0e68c;stroke-linejoin:miter;"/>
    </g>
    <g id="text_17">
     <!-- $\pi^{+}$ GEANT -->
     <g transform="translate(401.4 169.71)scale(0.2 -0.2)">
      <use transform="translate(0 0.826562)" xlink:href="#DejaVuSans-Oblique-3c0"/>
      <use transform="translate(64.671224 39.107812)scale(0.7)" xlink:href="#DejaVuSans-2b"/>
      <use transform="translate(126.057943 0.826562)" xlink:href="#DejaVuSans-20"/>
      <use transform="translate(157.845052 0.826562)" xlink:href="#DejaVuSans-47"/>
      <use transform="translate(235.335286 0.826562)" xlink:href="#DejaVuSans-45"/>
      <use transform="translate(298.51888 0.826562)" xlink:href="#DejaVuSans-41"/>
      <use transform="translate(366.927083 0.826562)" xlink:href="#DejaVuSans-4e"/>
      <use transform="translate(441.731771 0.826562)" xlink:href="#DejaVuSans-54"/>
     </g>
    </g>
   </g>
  </g>
 </g>
 <defs>
  <clipPath id="p6557ea1296">
   <rect height="489.24" width="892.8" x="144" y="77.76"/>
  </clipPath>
 </defs>
</svg>
