<?xml version="1.0" encoding="utf-8" standalone="no"?>
<!DOCTYPE svg PUBLIC "-//W3C//DTD SVG 1.1//EN"
  "http://www.w3.org/Graphics/SVG/1.1/DTD/svg11.dtd">
<svg height="648pt" version="1.1" viewBox="0 0 1152 648" width="1152pt" xmlns="http://www.w3.org/2000/svg" xmlns:xlink="http://www.w3.org/1999/xlink">
 <metadata>
  <rdf:RDF xmlns:cc="http://creativecommons.org/ns#" xmlns:dc="http://purl.org/dc/elements/1.1/" xmlns:rdf="http://www.w3.org/1999/02/22-rdf-syntax-ns#">
   <cc:Work>
    <dc:type rdf:resource="http://purl.org/dc/dcmitype/StillImage"/>
    <dc:date>2021-09-24T22:57:00.181228</dc:date>
    <dc:format>image/svg+xml</dc:format>
    <dc:creator>
     <cc:Agent>
      <dc:title>Matplotlib v3.4.2, https://matplotlib.org/</dc:title>
     </cc:Agent>
    </dc:creator>
   </cc:Work>
  </rdf:RDF>
 </metadata>
 <defs>
  <style type="text/css">*{stroke-linecap:butt;stroke-linejoin:round;}</style>
 </defs>
 <g id="figure_1">
  <g id="patch_1">
   <path d="M 0 648 
L 1152 648 
L 1152 0 
L 0 0 
z
" style="fill:none;"/>
  </g>
  <g id="axes_1">
   <g id="patch_2">
    <path d="M 144 567 
L 1036.8 567 
L 1036.8 77.76 
L 144 77.76 
z
" style="fill:#ffffff;"/>
   </g>
   <g id="PolyCollection_1">
    <path clip-path="url(#p2d9638d400)" d="M 184.581818 143841.077033 
L 184.581818 143841.077033 
L 184.581818 143841.077033 
L 184.581818 143841.077033 
L 188.680992 143841.077033 
L 188.680992 143841.077033 
L 196.879339 143841.077033 
L 196.879339 143841.077033 
L 205.077686 143841.077033 
L 205.077686 143841.077033 
L 213.276033 143841.077033 
L 213.276033 143841.077033 
L 221.47438 143841.077033 
L 221.47438 143841.077033 
L 229.672727 143841.077033 
L 229.672727 143841.077033 
L 237.871074 143841.077033 
L 237.871074 143841.077033 
L 246.069421 143841.077033 
L 246.069421 143841.077033 
L 254.267769 143841.077033 
L 254.267769 143841.077033 
L 262.466116 143841.077033 
L 262.466116 544.761818 
L 270.664463 544.761818 
L 270.664463 458.48884 
L 278.86281 458.48884 
L 278.86281 458.48884 
L 287.061157 458.48884 
L 287.061157 544.761818 
L 295.259504 544.761818 
L 295.259504 544.761818 
L 303.457851 544.761818 
L 303.457851 444.601992 
L 311.656198 444.601992 
L 311.656198 423.662383 
L 319.854545 423.662383 
L 319.854545 415.352351 
L 328.052893 415.352351 
L 328.052893 415.352351 
L 336.25124 415.352351 
L 336.25124 390.119122 
L 344.449587 390.119122 
L 344.449587 423.662383 
L 352.647934 423.662383 
L 352.647934 349.631237 
L 360.846281 349.631237 
L 360.846281 349.631237 
L 369.044628 349.631237 
L 369.044628 342.001351 
L 377.242975 342.001351 
L 377.242975 329.079372 
L 385.441322 329.079372 
L 385.441322 320.04429 
L 393.639669 320.04429 
L 393.639669 313.655834 
L 401.838017 313.655834 
L 401.838017 306.494748 
L 410.036364 306.494748 
L 410.036364 298.864862 
L 418.234711 298.864862 
L 418.234711 288.930631 
L 426.433058 288.930631 
L 426.433058 259.426459 
L 434.631405 259.426459 
L 434.631405 256.936815 
L 442.829752 256.936815 
L 442.829752 235.910106 
L 451.028099 235.910106 
L 451.028099 225.513863 
L 459.226446 225.513863 
L 459.226446 209.101279 
L 467.424793 209.101279 
L 467.424793 195.668688 
L 475.62314 195.668688 
L 475.62314 176.412487 
L 483.821488 176.412487 
L 483.821488 168.12337 
L 492.019835 168.12337 
L 492.019835 150.403416 
L 500.218182 150.403416 
L 500.218182 134.033404 
L 508.416529 134.033404 
L 508.416529 118.922485 
L 516.614876 118.922485 
L 516.614876 112.133579 
L 524.813223 112.133579 
L 524.813223 104.151952 
L 533.01157 104.151952 
L 533.01157 106.773231 
L 541.209917 106.773231 
L 541.209917 122.89906 
L 549.408264 122.89906 
L 549.408264 140.168365 
L 557.606612 140.168365 
L 557.606612 173.31244 
L 565.804959 173.31244 
L 565.804959 220.901916 
L 574.003306 220.901916 
L 574.003306 296.516176 
L 582.201653 296.516176 
L 582.201653 380.525894 
L 590.4 380.525894 
L 590.4 458.48884 
L 598.598347 458.48884 
L 598.598347 143841.077033 
L 606.796694 143841.077033 
L 606.796694 143841.077033 
L 614.995041 143841.077033 
L 614.995041 143841.077033 
L 623.193388 143841.077033 
L 623.193388 143841.077033 
L 631.391736 143841.077033 
L 631.391736 143841.077033 
L 639.590083 143841.077033 
L 639.590083 143841.077033 
L 647.78843 143841.077033 
L 647.78843 143841.077033 
L 655.986777 143841.077033 
L 655.986777 143841.077033 
L 664.185124 143841.077033 
L 664.185124 143841.077033 
L 672.383471 143841.077033 
L 672.383471 143841.077033 
L 680.581818 143841.077033 
L 680.581818 143841.077033 
L 688.780165 143841.077033 
L 688.780165 143841.077033 
L 696.978512 143841.077033 
L 696.978512 143841.077033 
L 705.17686 143841.077033 
L 705.17686 143841.077033 
L 713.375207 143841.077033 
L 713.375207 143841.077033 
L 721.573554 143841.077033 
L 721.573554 143841.077033 
L 729.771901 143841.077033 
L 729.771901 143841.077033 
L 737.970248 143841.077033 
L 737.970248 143841.077033 
L 746.168595 143841.077033 
L 746.168595 143841.077033 
L 754.366942 143841.077033 
L 754.366942 143841.077033 
L 762.565289 143841.077033 
L 762.565289 143841.077033 
L 770.763636 143841.077033 
L 770.763636 143841.077033 
L 778.961983 143841.077033 
L 778.961983 143841.077033 
L 787.160331 143841.077033 
L 787.160331 143841.077033 
L 795.358678 143841.077033 
L 795.358678 143841.077033 
L 803.557025 143841.077033 
L 803.557025 143841.077033 
L 811.755372 143841.077033 
L 811.755372 143841.077033 
L 819.953719 143841.077033 
L 819.953719 143841.077033 
L 828.152066 143841.077033 
L 828.152066 143841.077033 
L 836.350413 143841.077033 
L 836.350413 143841.077033 
L 844.54876 143841.077033 
L 844.54876 143841.077033 
L 852.747107 143841.077033 
L 852.747107 143841.077033 
L 860.945455 143841.077033 
L 860.945455 143841.077033 
L 869.143802 143841.077033 
L 869.143802 143841.077033 
L 877.342149 143841.077033 
L 877.342149 143841.077033 
L 885.540496 143841.077033 
L 885.540496 143841.077033 
L 893.738843 143841.077033 
L 893.738843 143841.077033 
L 901.93719 143841.077033 
L 901.93719 143841.077033 
L 910.135537 143841.077033 
L 910.135537 143841.077033 
L 918.333884 143841.077033 
L 918.333884 143841.077033 
L 926.532231 143841.077033 
L 926.532231 143841.077033 
L 934.730579 143841.077033 
L 934.730579 143841.077033 
L 942.928926 143841.077033 
L 942.928926 143841.077033 
L 951.127273 143841.077033 
L 951.127273 143841.077033 
L 959.32562 143841.077033 
L 959.32562 143841.077033 
L 967.523967 143841.077033 
L 967.523967 143841.077033 
L 975.722314 143841.077033 
L 975.722314 143841.077033 
L 983.920661 143841.077033 
L 983.920661 143841.077033 
L 992.119008 143841.077033 
L 992.119008 143841.077033 
L 996.218182 143841.077033 
L 996.218182 143841.077033 
L 996.218182 143841.077033 
L 996.218182 143841.077033 
L 996.218182 143841.077033 
L 996.218182 143841.077033 
L 996.218182 143841.077033 
L 992.119008 143841.077033 
L 992.119008 143841.077033 
L 983.920661 143841.077033 
L 983.920661 143841.077033 
L 975.722314 143841.077033 
L 975.722314 143841.077033 
L 967.523967 143841.077033 
L 967.523967 143841.077033 
L 959.32562 143841.077033 
L 959.32562 143841.077033 
L 951.127273 143841.077033 
L 951.127273 143841.077033 
L 942.928926 143841.077033 
L 942.928926 143841.077033 
L 934.730579 143841.077033 
L 934.730579 143841.077033 
L 926.532231 143841.077033 
L 926.532231 143841.077033 
L 918.333884 143841.077033 
L 918.333884 143841.077033 
L 910.135537 143841.077033 
L 910.135537 143841.077033 
L 901.93719 143841.077033 
L 901.93719 143841.077033 
L 893.738843 143841.077033 
L 893.738843 143841.077033 
L 885.540496 143841.077033 
L 885.540496 143841.077033 
L 877.342149 143841.077033 
L 877.342149 143841.077033 
L 869.143802 143841.077033 
L 869.143802 143841.077033 
L 860.945455 143841.077033 
L 860.945455 143841.077033 
L 852.747107 143841.077033 
L 852.747107 143841.077033 
L 844.54876 143841.077033 
L 844.54876 143841.077033 
L 836.350413 143841.077033 
L 836.350413 143841.077033 
L 828.152066 143841.077033 
L 828.152066 143841.077033 
L 819.953719 143841.077033 
L 819.953719 143841.077033 
L 811.755372 143841.077033 
L 811.755372 143841.077033 
L 803.557025 143841.077033 
L 803.557025 143841.077033 
L 795.358678 143841.077033 
L 795.358678 143841.077033 
L 787.160331 143841.077033 
L 787.160331 143841.077033 
L 778.961983 143841.077033 
L 778.961983 143841.077033 
L 770.763636 143841.077033 
L 770.763636 143841.077033 
L 762.565289 143841.077033 
L 762.565289 143841.077033 
L 754.366942 143841.077033 
L 754.366942 143841.077033 
L 746.168595 143841.077033 
L 746.168595 143841.077033 
L 737.970248 143841.077033 
L 737.970248 143841.077033 
L 729.771901 143841.077033 
L 729.771901 143841.077033 
L 721.573554 143841.077033 
L 721.573554 143841.077033 
L 713.375207 143841.077033 
L 713.375207 143841.077033 
L 705.17686 143841.077033 
L 705.17686 143841.077033 
L 696.978512 143841.077033 
L 696.978512 143841.077033 
L 688.780165 143841.077033 
L 688.780165 143841.077033 
L 680.581818 143841.077033 
L 680.581818 143841.077033 
L 672.383471 143841.077033 
L 672.383471 143841.077033 
L 664.185124 143841.077033 
L 664.185124 143841.077033 
L 655.986777 143841.077033 
L 655.986777 143841.077033 
L 647.78843 143841.077033 
L 647.78843 143841.077033 
L 639.590083 143841.077033 
L 639.590083 143841.077033 
L 631.391736 143841.077033 
L 631.391736 143841.077033 
L 623.193388 143841.077033 
L 623.193388 143841.077033 
L 614.995041 143841.077033 
L 614.995041 143841.077033 
L 606.796694 143841.077033 
L 606.796694 143841.077033 
L 598.598347 143841.077033 
L 598.598347 143841.077033 
L 590.4 143841.077033 
L 590.4 143841.077033 
L 582.201653 143841.077033 
L 582.201653 143841.077033 
L 574.003306 143841.077033 
L 574.003306 143841.077033 
L 565.804959 143841.077033 
L 565.804959 143841.077033 
L 557.606612 143841.077033 
L 557.606612 143841.077033 
L 549.408264 143841.077033 
L 549.408264 143841.077033 
L 541.209917 143841.077033 
L 541.209917 143841.077033 
L 533.01157 143841.077033 
L 533.01157 143841.077033 
L 524.813223 143841.077033 
L 524.813223 143841.077033 
L 516.614876 143841.077033 
L 516.614876 143841.077033 
L 508.416529 143841.077033 
L 508.416529 143841.077033 
L 500.218182 143841.077033 
L 500.218182 143841.077033 
L 492.019835 143841.077033 
L 492.019835 143841.077033 
L 483.821488 143841.077033 
L 483.821488 143841.077033 
L 475.62314 143841.077033 
L 475.62314 143841.077033 
L 467.424793 143841.077033 
L 467.424793 143841.077033 
L 459.226446 143841.077033 
L 459.226446 143841.077033 
L 451.028099 143841.077033 
L 451.028099 143841.077033 
L 442.829752 143841.077033 
L 442.829752 143841.077033 
L 434.631405 143841.077033 
L 434.631405 143841.077033 
L 426.433058 143841.077033 
L 426.433058 143841.077033 
L 418.234711 143841.077033 
L 418.234711 143841.077033 
L 410.036364 143841.077033 
L 410.036364 143841.077033 
L 401.838017 143841.077033 
L 401.838017 143841.077033 
L 393.639669 143841.077033 
L 393.639669 143841.077033 
L 385.441322 143841.077033 
L 385.441322 143841.077033 
L 377.242975 143841.077033 
L 377.242975 143841.077033 
L 369.044628 143841.077033 
L 369.044628 143841.077033 
L 360.846281 143841.077033 
L 360.846281 143841.077033 
L 352.647934 143841.077033 
L 352.647934 143841.077033 
L 344.449587 143841.077033 
L 344.449587 143841.077033 
L 336.25124 143841.077033 
L 336.25124 143841.077033 
L 328.052893 143841.077033 
L 328.052893 143841.077033 
L 319.854545 143841.077033 
L 319.854545 143841.077033 
L 311.656198 143841.077033 
L 311.656198 143841.077033 
L 303.457851 143841.077033 
L 303.457851 143841.077033 
L 295.259504 143841.077033 
L 295.259504 143841.077033 
L 287.061157 143841.077033 
L 287.061157 143841.077033 
L 278.86281 143841.077033 
L 278.86281 143841.077033 
L 270.664463 143841.077033 
L 270.664463 143841.077033 
L 262.466116 143841.077033 
L 262.466116 143841.077033 
L 254.267769 143841.077033 
L 254.267769 143841.077033 
L 246.069421 143841.077033 
L 246.069421 143841.077033 
L 237.871074 143841.077033 
L 237.871074 143841.077033 
L 229.672727 143841.077033 
L 229.672727 143841.077033 
L 221.47438 143841.077033 
L 221.47438 143841.077033 
L 213.276033 143841.077033 
L 213.276033 143841.077033 
L 205.077686 143841.077033 
L 205.077686 143841.077033 
L 196.879339 143841.077033 
L 196.879339 143841.077033 
L 188.680992 143841.077033 
L 188.680992 143841.077033 
L 184.581818 143841.077033 
L 184.581818 143841.077033 
L 184.581818 143841.077033 
z
" style="fill:#800080;fill-opacity:0.3;stroke:#800080;stroke-opacity:0.3;"/>
   </g>
   <g id="PolyCollection_2">
    <path clip-path="url(#p2d9638d400)" d="M 184.581818 143841.077033 
L 184.581818 143841.077033 
L 184.581818 143841.077033 
L 184.581818 143841.077033 
L 188.680992 143841.077033 
L 188.680992 143841.077033 
L 196.879339 143841.077033 
L 196.879339 143841.077033 
L 205.077686 143841.077033 
L 205.077686 143841.077033 
L 213.276033 143841.077033 
L 213.276033 143841.077033 
L 221.47438 143841.077033 
L 221.47438 143841.077033 
L 229.672727 143841.077033 
L 229.672727 143841.077033 
L 237.871074 143841.077033 
L 237.871074 143841.077033 
L 246.069421 143841.077033 
L 246.069421 143841.077033 
L 254.267769 143841.077033 
L 254.267769 143841.077033 
L 262.466116 143841.077033 
L 262.466116 143841.077033 
L 270.664463 143841.077033 
L 270.664463 143841.077033 
L 278.86281 143841.077033 
L 278.86281 143841.077033 
L 287.061157 143841.077033 
L 287.061157 544.761818 
L 295.259504 544.761818 
L 295.259504 501.625329 
L 303.457851 501.625329 
L 303.457851 501.625329 
L 311.656198 501.625329 
L 311.656198 501.625329 
L 319.854545 501.625329 
L 319.854545 458.48884 
L 328.052893 458.48884 
L 328.052893 423.662383 
L 336.25124 423.662383 
L 336.25124 401.465503 
L 344.449587 401.465503 
L 344.449587 415.352351 
L 352.647934 415.352351 
L 352.647934 376.232274 
L 360.846281 376.232274 
L 360.846281 390.119122 
L 369.044628 390.119122 
L 369.044628 372.215862 
L 377.242975 372.215862 
L 377.242975 342.001351 
L 385.441322 342.001351 
L 385.441322 358.329014 
L 393.639669 358.329014 
L 393.639669 327.164366 
L 401.838017 327.164366 
L 401.838017 320.04429 
L 410.036364 320.04429 
L 410.036364 321.749404 
L 418.234711 321.749404 
L 418.234711 301.305677 
L 426.433058 301.305677 
L 426.433058 287.918694 
L 434.631405 287.918694 
L 434.631405 274.434649 
L 442.829752 274.434649 
L 442.829752 258.794648 
L 451.028099 258.794648 
L 451.028099 239.955538 
L 459.226446 239.955538 
L 459.226446 245.286117 
L 467.424793 245.286117 
L 467.424793 224.781704 
L 475.62314 224.781704 
L 475.62314 203.946163 
L 483.821488 203.946163 
L 483.821488 187.55844 
L 492.019835 187.55844 
L 492.019835 177.08528 
L 500.218182 177.08528 
L 500.218182 160.420312 
L 508.416529 160.420312 
L 508.416529 148.02618 
L 516.614876 148.02618 
L 516.614876 144.023021 
L 524.813223 144.023021 
L 524.813223 125.133483 
L 533.01157 125.133483 
L 533.01157 122.89906 
L 541.209917 122.89906 
L 541.209917 123.111822 
L 549.408264 123.111822 
L 549.408264 126.468684 
L 557.606612 126.468684 
L 557.606612 132.693211 
L 565.804959 132.693211 
L 565.804959 136.626813 
L 574.003306 136.626813 
L 574.003306 144.722835 
L 582.201653 144.722835 
L 582.201653 147.708935 
L 590.4 147.708935 
L 590.4 185.588883 
L 598.598347 185.588883 
L 598.598347 361.521139 
L 606.796694 361.521139 
L 606.796694 476.3921 
L 614.995041 476.3921 
L 614.995041 143841.077033 
L 623.193388 143841.077033 
L 623.193388 143841.077033 
L 631.391736 143841.077033 
L 631.391736 143841.077033 
L 639.590083 143841.077033 
L 639.590083 143841.077033 
L 647.78843 143841.077033 
L 647.78843 143841.077033 
L 655.986777 143841.077033 
L 655.986777 143841.077033 
L 664.185124 143841.077033 
L 664.185124 143841.077033 
L 672.383471 143841.077033 
L 672.383471 143841.077033 
L 680.581818 143841.077033 
L 680.581818 143841.077033 
L 688.780165 143841.077033 
L 688.780165 143841.077033 
L 696.978512 143841.077033 
L 696.978512 143841.077033 
L 705.17686 143841.077033 
L 705.17686 143841.077033 
L 713.375207 143841.077033 
L 713.375207 143841.077033 
L 721.573554 143841.077033 
L 721.573554 143841.077033 
L 729.771901 143841.077033 
L 729.771901 143841.077033 
L 737.970248 143841.077033 
L 737.970248 143841.077033 
L 746.168595 143841.077033 
L 746.168595 143841.077033 
L 754.366942 143841.077033 
L 754.366942 143841.077033 
L 762.565289 143841.077033 
L 762.565289 143841.077033 
L 770.763636 143841.077033 
L 770.763636 143841.077033 
L 778.961983 143841.077033 
L 778.961983 143841.077033 
L 787.160331 143841.077033 
L 787.160331 143841.077033 
L 795.358678 143841.077033 
L 795.358678 143841.077033 
L 803.557025 143841.077033 
L 803.557025 143841.077033 
L 811.755372 143841.077033 
L 811.755372 143841.077033 
L 819.953719 143841.077033 
L 819.953719 143841.077033 
L 828.152066 143841.077033 
L 828.152066 143841.077033 
L 836.350413 143841.077033 
L 836.350413 143841.077033 
L 844.54876 143841.077033 
L 844.54876 143841.077033 
L 852.747107 143841.077033 
L 852.747107 143841.077033 
L 860.945455 143841.077033 
L 860.945455 143841.077033 
L 869.143802 143841.077033 
L 869.143802 143841.077033 
L 877.342149 143841.077033 
L 877.342149 143841.077033 
L 885.540496 143841.077033 
L 885.540496 143841.077033 
L 893.738843 143841.077033 
L 893.738843 143841.077033 
L 901.93719 143841.077033 
L 901.93719 143841.077033 
L 910.135537 143841.077033 
L 910.135537 143841.077033 
L 918.333884 143841.077033 
L 918.333884 143841.077033 
L 926.532231 143841.077033 
L 926.532231 143841.077033 
L 934.730579 143841.077033 
L 934.730579 143841.077033 
L 942.928926 143841.077033 
L 942.928926 143841.077033 
L 951.127273 143841.077033 
L 951.127273 143841.077033 
L 959.32562 143841.077033 
L 959.32562 143841.077033 
L 967.523967 143841.077033 
L 967.523967 143841.077033 
L 975.722314 143841.077033 
L 975.722314 143841.077033 
L 983.920661 143841.077033 
L 983.920661 143841.077033 
L 992.119008 143841.077033 
L 992.119008 143841.077033 
L 996.218182 143841.077033 
L 996.218182 143841.077033 
L 996.218182 143841.077033 
L 996.218182 143841.077033 
L 996.218182 143841.077033 
L 996.218182 143841.077033 
L 996.218182 143841.077033 
L 992.119008 143841.077033 
L 992.119008 143841.077033 
L 983.920661 143841.077033 
L 983.920661 143841.077033 
L 975.722314 143841.077033 
L 975.722314 143841.077033 
L 967.523967 143841.077033 
L 967.523967 143841.077033 
L 959.32562 143841.077033 
L 959.32562 143841.077033 
L 951.127273 143841.077033 
L 951.127273 143841.077033 
L 942.928926 143841.077033 
L 942.928926 143841.077033 
L 934.730579 143841.077033 
L 934.730579 143841.077033 
L 926.532231 143841.077033 
L 926.532231 143841.077033 
L 918.333884 143841.077033 
L 918.333884 143841.077033 
L 910.135537 143841.077033 
L 910.135537 143841.077033 
L 901.93719 143841.077033 
L 901.93719 143841.077033 
L 893.738843 143841.077033 
L 893.738843 143841.077033 
L 885.540496 143841.077033 
L 885.540496 143841.077033 
L 877.342149 143841.077033 
L 877.342149 143841.077033 
L 869.143802 143841.077033 
L 869.143802 143841.077033 
L 860.945455 143841.077033 
L 860.945455 143841.077033 
L 852.747107 143841.077033 
L 852.747107 143841.077033 
L 844.54876 143841.077033 
L 844.54876 143841.077033 
L 836.350413 143841.077033 
L 836.350413 143841.077033 
L 828.152066 143841.077033 
L 828.152066 143841.077033 
L 819.953719 143841.077033 
L 819.953719 143841.077033 
L 811.755372 143841.077033 
L 811.755372 143841.077033 
L 803.557025 143841.077033 
L 803.557025 143841.077033 
L 795.358678 143841.077033 
L 795.358678 143841.077033 
L 787.160331 143841.077033 
L 787.160331 143841.077033 
L 778.961983 143841.077033 
L 778.961983 143841.077033 
L 770.763636 143841.077033 
L 770.763636 143841.077033 
L 762.565289 143841.077033 
L 762.565289 143841.077033 
L 754.366942 143841.077033 
L 754.366942 143841.077033 
L 746.168595 143841.077033 
L 746.168595 143841.077033 
L 737.970248 143841.077033 
L 737.970248 143841.077033 
L 729.771901 143841.077033 
L 729.771901 143841.077033 
L 721.573554 143841.077033 
L 721.573554 143841.077033 
L 713.375207 143841.077033 
L 713.375207 143841.077033 
L 705.17686 143841.077033 
L 705.17686 143841.077033 
L 696.978512 143841.077033 
L 696.978512 143841.077033 
L 688.780165 143841.077033 
L 688.780165 143841.077033 
L 680.581818 143841.077033 
L 680.581818 143841.077033 
L 672.383471 143841.077033 
L 672.383471 143841.077033 
L 664.185124 143841.077033 
L 664.185124 143841.077033 
L 655.986777 143841.077033 
L 655.986777 143841.077033 
L 647.78843 143841.077033 
L 647.78843 143841.077033 
L 639.590083 143841.077033 
L 639.590083 143841.077033 
L 631.391736 143841.077033 
L 631.391736 143841.077033 
L 623.193388 143841.077033 
L 623.193388 143841.077033 
L 614.995041 143841.077033 
L 614.995041 143841.077033 
L 606.796694 143841.077033 
L 606.796694 143841.077033 
L 598.598347 143841.077033 
L 598.598347 143841.077033 
L 590.4 143841.077033 
L 590.4 143841.077033 
L 582.201653 143841.077033 
L 582.201653 143841.077033 
L 574.003306 143841.077033 
L 574.003306 143841.077033 
L 565.804959 143841.077033 
L 565.804959 143841.077033 
L 557.606612 143841.077033 
L 557.606612 143841.077033 
L 549.408264 143841.077033 
L 549.408264 143841.077033 
L 541.209917 143841.077033 
L 541.209917 143841.077033 
L 533.01157 143841.077033 
L 533.01157 143841.077033 
L 524.813223 143841.077033 
L 524.813223 143841.077033 
L 516.614876 143841.077033 
L 516.614876 143841.077033 
L 508.416529 143841.077033 
L 508.416529 143841.077033 
L 500.218182 143841.077033 
L 500.218182 143841.077033 
L 492.019835 143841.077033 
L 492.019835 143841.077033 
L 483.821488 143841.077033 
L 483.821488 143841.077033 
L 475.62314 143841.077033 
L 475.62314 143841.077033 
L 467.424793 143841.077033 
L 467.424793 143841.077033 
L 459.226446 143841.077033 
L 459.226446 143841.077033 
L 451.028099 143841.077033 
L 451.028099 143841.077033 
L 442.829752 143841.077033 
L 442.829752 143841.077033 
L 434.631405 143841.077033 
L 434.631405 143841.077033 
L 426.433058 143841.077033 
L 426.433058 143841.077033 
L 418.234711 143841.077033 
L 418.234711 143841.077033 
L 410.036364 143841.077033 
L 410.036364 143841.077033 
L 401.838017 143841.077033 
L 401.838017 143841.077033 
L 393.639669 143841.077033 
L 393.639669 143841.077033 
L 385.441322 143841.077033 
L 385.441322 143841.077033 
L 377.242975 143841.077033 
L 377.242975 143841.077033 
L 369.044628 143841.077033 
L 369.044628 143841.077033 
L 360.846281 143841.077033 
L 360.846281 143841.077033 
L 352.647934 143841.077033 
L 352.647934 143841.077033 
L 344.449587 143841.077033 
L 344.449587 143841.077033 
L 336.25124 143841.077033 
L 336.25124 143841.077033 
L 328.052893 143841.077033 
L 328.052893 143841.077033 
L 319.854545 143841.077033 
L 319.854545 143841.077033 
L 311.656198 143841.077033 
L 311.656198 143841.077033 
L 303.457851 143841.077033 
L 303.457851 143841.077033 
L 295.259504 143841.077033 
L 295.259504 143841.077033 
L 287.061157 143841.077033 
L 287.061157 143841.077033 
L 278.86281 143841.077033 
L 278.86281 143841.077033 
L 270.664463 143841.077033 
L 270.664463 143841.077033 
L 262.466116 143841.077033 
L 262.466116 143841.077033 
L 254.267769 143841.077033 
L 254.267769 143841.077033 
L 246.069421 143841.077033 
L 246.069421 143841.077033 
L 237.871074 143841.077033 
L 237.871074 143841.077033 
L 229.672727 143841.077033 
L 229.672727 143841.077033 
L 221.47438 143841.077033 
L 221.47438 143841.077033 
L 213.276033 143841.077033 
L 213.276033 143841.077033 
L 205.077686 143841.077033 
L 205.077686 143841.077033 
L 196.879339 143841.077033 
L 196.879339 143841.077033 
L 188.680992 143841.077033 
L 188.680992 143841.077033 
L 184.581818 143841.077033 
L 184.581818 143841.077033 
L 184.581818 143841.077033 
z
" style="fill:#0000ff;fill-opacity:0.3;stroke:#0000ff;stroke-opacity:0.3;"/>
   </g>
   <g id="PolyCollection_3">
    <path clip-path="url(#p2d9638d400)" d="M 184.581818 143841.077033 
L 184.581818 143841.077033 
L 184.581818 143841.077033 
L 184.581818 143841.077033 
L 188.680992 143841.077033 
L 188.680992 544.761818 
L 196.879339 544.761818 
L 196.879339 544.761818 
L 205.077686 544.761818 
L 205.077686 501.625329 
L 213.276033 501.625329 
L 213.276033 544.761818 
L 221.47438 544.761818 
L 221.47438 143841.077033 
L 229.672727 143841.077033 
L 229.672727 143841.077033 
L 237.871074 143841.077033 
L 237.871074 458.48884 
L 246.069421 458.48884 
L 246.069421 476.3921 
L 254.267769 476.3921 
L 254.267769 501.625329 
L 262.466116 501.625329 
L 262.466116 476.3921 
L 270.664463 476.3921 
L 270.664463 544.761818 
L 278.86281 544.761818 
L 278.86281 501.625329 
L 287.061157 501.625329 
L 287.061157 544.761818 
L 295.259504 544.761818 
L 295.259504 501.625329 
L 303.457851 501.625329 
L 303.457851 544.761818 
L 311.656198 544.761818 
L 311.656198 501.625329 
L 319.854545 501.625329 
L 319.854545 433.255611 
L 328.052893 433.255611 
L 328.052893 444.601992 
L 336.25124 444.601992 
L 336.25124 476.3921 
L 344.449587 476.3921 
L 344.449587 423.662383 
L 352.647934 423.662383 
L 352.647934 458.48884 
L 360.846281 458.48884 
L 360.846281 444.601992 
L 369.044628 444.601992 
L 369.044628 444.601992 
L 377.242975 444.601992 
L 377.242975 401.465503 
L 385.441322 401.465503 
L 385.441322 401.465503 
L 393.639669 401.465503 
L 393.639669 376.232274 
L 401.838017 376.232274 
L 401.838017 364.885894 
L 410.036364 364.885894 
L 410.036364 376.232274 
L 418.234711 376.232274 
L 418.234711 372.215862 
L 426.433058 372.215862 
L 426.433058 342.001351 
L 434.631405 342.001351 
L 434.631405 361.521139 
L 442.829752 361.521139 
L 442.829752 342.001351 
L 451.028099 342.001351 
L 451.028099 312.156176 
L 459.226446 312.156176 
L 459.226446 309.261105 
L 467.424793 309.261105 
L 467.424793 342.001351 
L 475.62314 342.001351 
L 475.62314 307.862557 
L 483.821488 307.862557 
L 483.821488 296.516176 
L 492.019835 296.516176 
L 492.019835 282.170043 
L 500.218182 282.170043 
L 500.218182 260.064749 
L 508.416529 260.064749 
L 508.416529 250.563242 
L 516.614876 250.563242 
L 516.614876 230.097489 
L 524.813223 230.097489 
L 524.813223 207.702731 
L 533.01157 207.702731 
L 533.01157 182.746709 
L 541.209917 182.746709 
L 541.209917 147.18376 
L 549.408264 147.18376 
L 549.408264 117.868783 
L 557.606612 117.868783 
L 557.606612 134.118132 
L 565.804959 134.118132 
L 565.804959 156.776989 
L 574.003306 156.776989 
L 574.003306 174.274823 
L 582.201653 174.274823 
L 582.201653 163.605628 
L 590.4 163.605628 
L 590.4 139.61022 
L 598.598347 139.61022 
L 598.598347 143.527929 
L 606.796694 143.527929 
L 606.796694 159.393768 
L 614.995041 159.393768 
L 614.995041 171.740822 
L 623.193388 171.740822 
L 623.193388 196.126284 
L 631.391736 196.126284 
L 631.391736 203.427553 
L 639.590083 203.427553 
L 639.590083 226.254738 
L 647.78843 226.254738 
L 647.78843 223.699367 
L 655.986777 223.699367 
L 655.986777 236.346829 
L 664.185124 236.346829 
L 664.185124 249.471411 
L 672.383471 249.471411 
L 672.383471 253.379687 
L 680.581818 253.379687 
L 680.581818 259.426459 
L 688.780165 259.426459 
L 688.780165 262.685465 
L 696.978512 262.685465 
L 696.978512 263.358259 
L 705.17686 263.358259 
L 705.17686 274.434649 
L 713.375207 274.434649 
L 713.375207 272.056036 
L 721.573554 272.056036 
L 721.573554 288.930631 
L 729.771901 288.930631 
L 729.771901 282.170043 
L 737.970248 282.170043 
L 737.970248 284.978014 
L 746.168595 284.978014 
L 746.168595 285.942883 
L 754.366942 285.942883 
L 754.366942 313.655834 
L 762.565289 313.655834 
L 762.565289 297.67944 
L 770.763636 297.67944 
L 770.763636 321.749404 
L 778.961983 321.749404 
L 778.961983 296.516176 
L 787.160331 296.516176 
L 787.160331 301.305677 
L 795.358678 301.305677 
L 795.358678 303.846144 
L 803.557025 303.846144 
L 803.557025 307.862557 
L 811.755372 307.862557 
L 811.755372 303.846144 
L 819.953719 303.846144 
L 819.953719 291.00525 
L 828.152066 291.00525 
L 828.152066 323.502557 
L 836.350413 323.502557 
L 836.350413 300.073304 
L 844.54876 300.073304 
L 844.54876 303.846144 
L 852.747107 303.846144 
L 852.747107 315.192525 
L 860.945455 315.192525 
L 860.945455 323.502557 
L 869.143802 323.502557 
L 869.143802 309.261105 
L 877.342149 309.261105 
L 877.342149 313.655834 
L 885.540496 313.655834 
L 885.540496 321.749404 
L 893.738843 321.749404 
L 893.738843 385.13784 
L 901.93719 385.13784 
L 901.93719 342.001351 
L 910.135537 342.001351 
L 910.135537 368.443022 
L 918.333884 368.443022 
L 918.333884 423.662383 
L 926.532231 423.662383 
L 926.532231 476.3921 
L 934.730579 476.3921 
L 934.730579 458.48884 
L 942.928926 458.48884 
L 942.928926 143841.077033 
L 951.127273 143841.077033 
L 951.127273 143841.077033 
L 959.32562 143841.077033 
L 959.32562 143841.077033 
L 967.523967 143841.077033 
L 967.523967 143841.077033 
L 975.722314 143841.077033 
L 975.722314 143841.077033 
L 983.920661 143841.077033 
L 983.920661 143841.077033 
L 992.119008 143841.077033 
L 992.119008 143841.077033 
L 996.218182 143841.077033 
L 996.218182 143841.077033 
L 996.218182 143841.077033 
L 996.218182 143841.077033 
L 996.218182 143841.077033 
L 996.218182 143841.077033 
L 996.218182 143841.077033 
L 992.119008 143841.077033 
L 992.119008 143841.077033 
L 983.920661 143841.077033 
L 983.920661 143841.077033 
L 975.722314 143841.077033 
L 975.722314 143841.077033 
L 967.523967 143841.077033 
L 967.523967 143841.077033 
L 959.32562 143841.077033 
L 959.32562 143841.077033 
L 951.127273 143841.077033 
L 951.127273 143841.077033 
L 942.928926 143841.077033 
L 942.928926 143841.077033 
L 934.730579 143841.077033 
L 934.730579 143841.077033 
L 926.532231 143841.077033 
L 926.532231 143841.077033 
L 918.333884 143841.077033 
L 918.333884 143841.077033 
L 910.135537 143841.077033 
L 910.135537 143841.077033 
L 901.93719 143841.077033 
L 901.93719 143841.077033 
L 893.738843 143841.077033 
L 893.738843 143841.077033 
L 885.540496 143841.077033 
L 885.540496 143841.077033 
L 877.342149 143841.077033 
L 877.342149 143841.077033 
L 869.143802 143841.077033 
L 869.143802 143841.077033 
L 860.945455 143841.077033 
L 860.945455 143841.077033 
L 852.747107 143841.077033 
L 852.747107 143841.077033 
L 844.54876 143841.077033 
L 844.54876 143841.077033 
L 836.350413 143841.077033 
L 836.350413 143841.077033 
L 828.152066 143841.077033 
L 828.152066 143841.077033 
L 819.953719 143841.077033 
L 819.953719 143841.077033 
L 811.755372 143841.077033 
L 811.755372 143841.077033 
L 803.557025 143841.077033 
L 803.557025 143841.077033 
L 795.358678 143841.077033 
L 795.358678 143841.077033 
L 787.160331 143841.077033 
L 787.160331 143841.077033 
L 778.961983 143841.077033 
L 778.961983 143841.077033 
L 770.763636 143841.077033 
L 770.763636 143841.077033 
L 762.565289 143841.077033 
L 762.565289 143841.077033 
L 754.366942 143841.077033 
L 754.366942 143841.077033 
L 746.168595 143841.077033 
L 746.168595 143841.077033 
L 737.970248 143841.077033 
L 737.970248 143841.077033 
L 729.771901 143841.077033 
L 729.771901 143841.077033 
L 721.573554 143841.077033 
L 721.573554 143841.077033 
L 713.375207 143841.077033 
L 713.375207 143841.077033 
L 705.17686 143841.077033 
L 705.17686 143841.077033 
L 696.978512 143841.077033 
L 696.978512 143841.077033 
L 688.780165 143841.077033 
L 688.780165 143841.077033 
L 680.581818 143841.077033 
L 680.581818 143841.077033 
L 672.383471 143841.077033 
L 672.383471 143841.077033 
L 664.185124 143841.077033 
L 664.185124 143841.077033 
L 655.986777 143841.077033 
L 655.986777 143841.077033 
L 647.78843 143841.077033 
L 647.78843 143841.077033 
L 639.590083 143841.077033 
L 639.590083 143841.077033 
L 631.391736 143841.077033 
L 631.391736 143841.077033 
L 623.193388 143841.077033 
L 623.193388 143841.077033 
L 614.995041 143841.077033 
L 614.995041 143841.077033 
L 606.796694 143841.077033 
L 606.796694 143841.077033 
L 598.598347 143841.077033 
L 598.598347 143841.077033 
L 590.4 143841.077033 
L 590.4 143841.077033 
L 582.201653 143841.077033 
L 582.201653 143841.077033 
L 574.003306 143841.077033 
L 574.003306 143841.077033 
L 565.804959 143841.077033 
L 565.804959 143841.077033 
L 557.606612 143841.077033 
L 557.606612 143841.077033 
L 549.408264 143841.077033 
L 549.408264 143841.077033 
L 541.209917 143841.077033 
L 541.209917 143841.077033 
L 533.01157 143841.077033 
L 533.01157 143841.077033 
L 524.813223 143841.077033 
L 524.813223 143841.077033 
L 516.614876 143841.077033 
L 516.614876 143841.077033 
L 508.416529 143841.077033 
L 508.416529 143841.077033 
L 500.218182 143841.077033 
L 500.218182 143841.077033 
L 492.019835 143841.077033 
L 492.019835 143841.077033 
L 483.821488 143841.077033 
L 483.821488 143841.077033 
L 475.62314 143841.077033 
L 475.62314 143841.077033 
L 467.424793 143841.077033 
L 467.424793 143841.077033 
L 459.226446 143841.077033 
L 459.226446 143841.077033 
L 451.028099 143841.077033 
L 451.028099 143841.077033 
L 442.829752 143841.077033 
L 442.829752 143841.077033 
L 434.631405 143841.077033 
L 434.631405 143841.077033 
L 426.433058 143841.077033 
L 426.433058 143841.077033 
L 418.234711 143841.077033 
L 418.234711 143841.077033 
L 410.036364 143841.077033 
L 410.036364 143841.077033 
L 401.838017 143841.077033 
L 401.838017 143841.077033 
L 393.639669 143841.077033 
L 393.639669 143841.077033 
L 385.441322 143841.077033 
L 385.441322 143841.077033 
L 377.242975 143841.077033 
L 377.242975 143841.077033 
L 369.044628 143841.077033 
L 369.044628 143841.077033 
L 360.846281 143841.077033 
L 360.846281 143841.077033 
L 352.647934 143841.077033 
L 352.647934 143841.077033 
L 344.449587 143841.077033 
L 344.449587 143841.077033 
L 336.25124 143841.077033 
L 336.25124 143841.077033 
L 328.052893 143841.077033 
L 328.052893 143841.077033 
L 319.854545 143841.077033 
L 319.854545 143841.077033 
L 311.656198 143841.077033 
L 311.656198 143841.077033 
L 303.457851 143841.077033 
L 303.457851 143841.077033 
L 295.259504 143841.077033 
L 295.259504 143841.077033 
L 287.061157 143841.077033 
L 287.061157 143841.077033 
L 278.86281 143841.077033 
L 278.86281 143841.077033 
L 270.664463 143841.077033 
L 270.664463 143841.077033 
L 262.466116 143841.077033 
L 262.466116 143841.077033 
L 254.267769 143841.077033 
L 254.267769 143841.077033 
L 246.069421 143841.077033 
L 246.069421 143841.077033 
L 237.871074 143841.077033 
L 237.871074 143841.077033 
L 229.672727 143841.077033 
L 229.672727 143841.077033 
L 221.47438 143841.077033 
L 221.47438 143841.077033 
L 213.276033 143841.077033 
L 213.276033 143841.077033 
L 205.077686 143841.077033 
L 205.077686 143841.077033 
L 196.879339 143841.077033 
L 196.879339 143841.077033 
L 188.680992 143841.077033 
L 188.680992 143841.077033 
L 184.581818 143841.077033 
L 184.581818 143841.077033 
L 184.581818 143841.077033 
z
" style="fill:#f0e68c;fill-opacity:0.3;stroke:#f0e68c;stroke-opacity:0.3;"/>
   </g>
   <g id="matplotlib.axis_1">
    <g id="xtick_1">
     <g id="line2d_1">
      <defs>
       <path d="M 0 0 
L 0 3.5 
" id="ma096bb90d1" style="stroke:#000000;stroke-width:0.8;"/>
      </defs>
      <g>
       <use style="stroke:#000000;stroke-width:0.8;" x="180.482645" xlink:href="#ma096bb90d1" y="567"/>
      </g>
     </g>
     <g id="text_1">
      <!-- 0.00 -->
      <g transform="translate(147.084207 596.795313)scale(0.3 -0.3)">
       <defs>
        <path d="M 2034 4250 
Q 1547 4250 1301 3770 
Q 1056 3291 1056 2328 
Q 1056 1369 1301 889 
Q 1547 409 2034 409 
Q 2525 409 2770 889 
Q 3016 1369 3016 2328 
Q 3016 3291 2770 3770 
Q 2525 4250 2034 4250 
z
M 2034 4750 
Q 2819 4750 3233 4129 
Q 3647 3509 3647 2328 
Q 3647 1150 3233 529 
Q 2819 -91 2034 -91 
Q 1250 -91 836 529 
Q 422 1150 422 2328 
Q 422 3509 836 4129 
Q 1250 4750 2034 4750 
z
" id="DejaVuSans-30" transform="scale(0.015625)"/>
        <path d="M 684 794 
L 1344 794 
L 1344 0 
L 684 0 
L 684 794 
z
" id="DejaVuSans-2e" transform="scale(0.015625)"/>
       </defs>
       <use xlink:href="#DejaVuSans-30"/>
       <use x="63.623047" xlink:href="#DejaVuSans-2e"/>
       <use x="95.410156" xlink:href="#DejaVuSans-30"/>
       <use x="159.033203" xlink:href="#DejaVuSans-30"/>
      </g>
     </g>
    </g>
    <g id="xtick_2">
     <g id="line2d_2">
      <g>
       <use style="stroke:#000000;stroke-width:0.8;" x="282.961983" xlink:href="#ma096bb90d1" y="567"/>
      </g>
     </g>
     <g id="text_2">
      <!-- 0.25 -->
      <g transform="translate(249.563546 596.795313)scale(0.3 -0.3)">
       <defs>
        <path d="M 1228 531 
L 3431 531 
L 3431 0 
L 469 0 
L 469 531 
Q 828 903 1448 1529 
Q 2069 2156 2228 2338 
Q 2531 2678 2651 2914 
Q 2772 3150 2772 3378 
Q 2772 3750 2511 3984 
Q 2250 4219 1831 4219 
Q 1534 4219 1204 4116 
Q 875 4013 500 3803 
L 500 4441 
Q 881 4594 1212 4672 
Q 1544 4750 1819 4750 
Q 2544 4750 2975 4387 
Q 3406 4025 3406 3419 
Q 3406 3131 3298 2873 
Q 3191 2616 2906 2266 
Q 2828 2175 2409 1742 
Q 1991 1309 1228 531 
z
" id="DejaVuSans-32" transform="scale(0.015625)"/>
        <path d="M 691 4666 
L 3169 4666 
L 3169 4134 
L 1269 4134 
L 1269 2991 
Q 1406 3038 1543 3061 
Q 1681 3084 1819 3084 
Q 2600 3084 3056 2656 
Q 3513 2228 3513 1497 
Q 3513 744 3044 326 
Q 2575 -91 1722 -91 
Q 1428 -91 1123 -41 
Q 819 9 494 109 
L 494 744 
Q 775 591 1075 516 
Q 1375 441 1709 441 
Q 2250 441 2565 725 
Q 2881 1009 2881 1497 
Q 2881 1984 2565 2268 
Q 2250 2553 1709 2553 
Q 1456 2553 1204 2497 
Q 953 2441 691 2322 
L 691 4666 
z
" id="DejaVuSans-35" transform="scale(0.015625)"/>
       </defs>
       <use xlink:href="#DejaVuSans-30"/>
       <use x="63.623047" xlink:href="#DejaVuSans-2e"/>
       <use x="95.410156" xlink:href="#DejaVuSans-32"/>
       <use x="159.033203" xlink:href="#DejaVuSans-35"/>
      </g>
     </g>
    </g>
    <g id="xtick_3">
     <g id="line2d_3">
      <g>
       <use style="stroke:#000000;stroke-width:0.8;" x="385.441322" xlink:href="#ma096bb90d1" y="567"/>
      </g>
     </g>
     <g id="text_3">
      <!-- 0.50 -->
      <g transform="translate(352.042885 596.795313)scale(0.3 -0.3)">
       <use xlink:href="#DejaVuSans-30"/>
       <use x="63.623047" xlink:href="#DejaVuSans-2e"/>
       <use x="95.410156" xlink:href="#DejaVuSans-35"/>
       <use x="159.033203" xlink:href="#DejaVuSans-30"/>
      </g>
     </g>
    </g>
    <g id="xtick_4">
     <g id="line2d_4">
      <g>
       <use style="stroke:#000000;stroke-width:0.8;" x="487.920661" xlink:href="#ma096bb90d1" y="567"/>
      </g>
     </g>
     <g id="text_4">
      <!-- 0.75 -->
      <g transform="translate(454.522224 596.795313)scale(0.3 -0.3)">
       <defs>
        <path d="M 525 4666 
L 3525 4666 
L 3525 4397 
L 1831 0 
L 1172 0 
L 2766 4134 
L 525 4134 
L 525 4666 
z
" id="DejaVuSans-37" transform="scale(0.015625)"/>
       </defs>
       <use xlink:href="#DejaVuSans-30"/>
       <use x="63.623047" xlink:href="#DejaVuSans-2e"/>
       <use x="95.410156" xlink:href="#DejaVuSans-37"/>
       <use x="159.033203" xlink:href="#DejaVuSans-35"/>
      </g>
     </g>
    </g>
    <g id="xtick_5">
     <g id="line2d_5">
      <g>
       <use style="stroke:#000000;stroke-width:0.8;" x="590.4" xlink:href="#ma096bb90d1" y="567"/>
      </g>
     </g>
     <g id="text_5">
      <!-- 1.00 -->
      <g transform="translate(557.001562 596.795313)scale(0.3 -0.3)">
       <defs>
        <path d="M 794 531 
L 1825 531 
L 1825 4091 
L 703 3866 
L 703 4441 
L 1819 4666 
L 2450 4666 
L 2450 531 
L 3481 531 
L 3481 0 
L 794 0 
L 794 531 
z
" id="DejaVuSans-31" transform="scale(0.015625)"/>
       </defs>
       <use xlink:href="#DejaVuSans-31"/>
       <use x="63.623047" xlink:href="#DejaVuSans-2e"/>
       <use x="95.410156" xlink:href="#DejaVuSans-30"/>
       <use x="159.033203" xlink:href="#DejaVuSans-30"/>
      </g>
     </g>
    </g>
    <g id="xtick_6">
     <g id="line2d_6">
      <g>
       <use style="stroke:#000000;stroke-width:0.8;" x="692.879339" xlink:href="#ma096bb90d1" y="567"/>
      </g>
     </g>
     <g id="text_6">
      <!-- 1.25 -->
      <g transform="translate(659.480901 596.795313)scale(0.3 -0.3)">
       <use xlink:href="#DejaVuSans-31"/>
       <use x="63.623047" xlink:href="#DejaVuSans-2e"/>
       <use x="95.410156" xlink:href="#DejaVuSans-32"/>
       <use x="159.033203" xlink:href="#DejaVuSans-35"/>
      </g>
     </g>
    </g>
    <g id="xtick_7">
     <g id="line2d_7">
      <g>
       <use style="stroke:#000000;stroke-width:0.8;" x="795.358678" xlink:href="#ma096bb90d1" y="567"/>
      </g>
     </g>
     <g id="text_7">
      <!-- 1.50 -->
      <g transform="translate(761.96024 596.795313)scale(0.3 -0.3)">
       <use xlink:href="#DejaVuSans-31"/>
       <use x="63.623047" xlink:href="#DejaVuSans-2e"/>
       <use x="95.410156" xlink:href="#DejaVuSans-35"/>
       <use x="159.033203" xlink:href="#DejaVuSans-30"/>
      </g>
     </g>
    </g>
    <g id="xtick_8">
     <g id="line2d_8">
      <g>
       <use style="stroke:#000000;stroke-width:0.8;" x="897.838017" xlink:href="#ma096bb90d1" y="567"/>
      </g>
     </g>
     <g id="text_8">
      <!-- 1.75 -->
      <g transform="translate(864.439579 596.795313)scale(0.3 -0.3)">
       <use xlink:href="#DejaVuSans-31"/>
       <use x="63.623047" xlink:href="#DejaVuSans-2e"/>
       <use x="95.410156" xlink:href="#DejaVuSans-37"/>
       <use x="159.033203" xlink:href="#DejaVuSans-35"/>
      </g>
     </g>
    </g>
    <g id="xtick_9">
     <g id="line2d_9">
      <g>
       <use style="stroke:#000000;stroke-width:0.8;" x="1000.317355" xlink:href="#ma096bb90d1" y="567"/>
      </g>
     </g>
     <g id="text_9">
      <!-- 2.00 -->
      <g transform="translate(966.918918 596.795313)scale(0.3 -0.3)">
       <use xlink:href="#DejaVuSans-32"/>
       <use x="63.623047" xlink:href="#DejaVuSans-2e"/>
       <use x="95.410156" xlink:href="#DejaVuSans-30"/>
       <use x="159.033203" xlink:href="#DejaVuSans-30"/>
      </g>
     </g>
    </g>
    <g id="text_10">
     <!-- Shower depth -->
     <g transform="translate(486.100781 629.829687)scale(0.3 -0.3)">
      <defs>
       <path d="M 3425 4513 
L 3425 3897 
Q 3066 4069 2747 4153 
Q 2428 4238 2131 4238 
Q 1616 4238 1336 4038 
Q 1056 3838 1056 3469 
Q 1056 3159 1242 3001 
Q 1428 2844 1947 2747 
L 2328 2669 
Q 3034 2534 3370 2195 
Q 3706 1856 3706 1288 
Q 3706 609 3251 259 
Q 2797 -91 1919 -91 
Q 1588 -91 1214 -16 
Q 841 59 441 206 
L 441 856 
Q 825 641 1194 531 
Q 1563 422 1919 422 
Q 2459 422 2753 634 
Q 3047 847 3047 1241 
Q 3047 1584 2836 1778 
Q 2625 1972 2144 2069 
L 1759 2144 
Q 1053 2284 737 2584 
Q 422 2884 422 3419 
Q 422 4038 858 4394 
Q 1294 4750 2059 4750 
Q 2388 4750 2728 4690 
Q 3069 4631 3425 4513 
z
" id="DejaVuSans-53" transform="scale(0.015625)"/>
       <path d="M 3513 2113 
L 3513 0 
L 2938 0 
L 2938 2094 
Q 2938 2591 2744 2837 
Q 2550 3084 2163 3084 
Q 1697 3084 1428 2787 
Q 1159 2491 1159 1978 
L 1159 0 
L 581 0 
L 581 4863 
L 1159 4863 
L 1159 2956 
Q 1366 3272 1645 3428 
Q 1925 3584 2291 3584 
Q 2894 3584 3203 3211 
Q 3513 2838 3513 2113 
z
" id="DejaVuSans-68" transform="scale(0.015625)"/>
       <path d="M 1959 3097 
Q 1497 3097 1228 2736 
Q 959 2375 959 1747 
Q 959 1119 1226 758 
Q 1494 397 1959 397 
Q 2419 397 2687 759 
Q 2956 1122 2956 1747 
Q 2956 2369 2687 2733 
Q 2419 3097 1959 3097 
z
M 1959 3584 
Q 2709 3584 3137 3096 
Q 3566 2609 3566 1747 
Q 3566 888 3137 398 
Q 2709 -91 1959 -91 
Q 1206 -91 779 398 
Q 353 888 353 1747 
Q 353 2609 779 3096 
Q 1206 3584 1959 3584 
z
" id="DejaVuSans-6f" transform="scale(0.015625)"/>
       <path d="M 269 3500 
L 844 3500 
L 1563 769 
L 2278 3500 
L 2956 3500 
L 3675 769 
L 4391 3500 
L 4966 3500 
L 4050 0 
L 3372 0 
L 2619 2869 
L 1863 0 
L 1184 0 
L 269 3500 
z
" id="DejaVuSans-77" transform="scale(0.015625)"/>
       <path d="M 3597 1894 
L 3597 1613 
L 953 1613 
Q 991 1019 1311 708 
Q 1631 397 2203 397 
Q 2534 397 2845 478 
Q 3156 559 3463 722 
L 3463 178 
Q 3153 47 2828 -22 
Q 2503 -91 2169 -91 
Q 1331 -91 842 396 
Q 353 884 353 1716 
Q 353 2575 817 3079 
Q 1281 3584 2069 3584 
Q 2775 3584 3186 3129 
Q 3597 2675 3597 1894 
z
M 3022 2063 
Q 3016 2534 2758 2815 
Q 2500 3097 2075 3097 
Q 1594 3097 1305 2825 
Q 1016 2553 972 2059 
L 3022 2063 
z
" id="DejaVuSans-65" transform="scale(0.015625)"/>
       <path d="M 2631 2963 
Q 2534 3019 2420 3045 
Q 2306 3072 2169 3072 
Q 1681 3072 1420 2755 
Q 1159 2438 1159 1844 
L 1159 0 
L 581 0 
L 581 3500 
L 1159 3500 
L 1159 2956 
Q 1341 3275 1631 3429 
Q 1922 3584 2338 3584 
Q 2397 3584 2469 3576 
Q 2541 3569 2628 3553 
L 2631 2963 
z
" id="DejaVuSans-72" transform="scale(0.015625)"/>
       <path id="DejaVuSans-20" transform="scale(0.015625)"/>
       <path d="M 2906 2969 
L 2906 4863 
L 3481 4863 
L 3481 0 
L 2906 0 
L 2906 525 
Q 2725 213 2448 61 
Q 2172 -91 1784 -91 
Q 1150 -91 751 415 
Q 353 922 353 1747 
Q 353 2572 751 3078 
Q 1150 3584 1784 3584 
Q 2172 3584 2448 3432 
Q 2725 3281 2906 2969 
z
M 947 1747 
Q 947 1113 1208 752 
Q 1469 391 1925 391 
Q 2381 391 2643 752 
Q 2906 1113 2906 1747 
Q 2906 2381 2643 2742 
Q 2381 3103 1925 3103 
Q 1469 3103 1208 2742 
Q 947 2381 947 1747 
z
" id="DejaVuSans-64" transform="scale(0.015625)"/>
       <path d="M 1159 525 
L 1159 -1331 
L 581 -1331 
L 581 3500 
L 1159 3500 
L 1159 2969 
Q 1341 3281 1617 3432 
Q 1894 3584 2278 3584 
Q 2916 3584 3314 3078 
Q 3713 2572 3713 1747 
Q 3713 922 3314 415 
Q 2916 -91 2278 -91 
Q 1894 -91 1617 61 
Q 1341 213 1159 525 
z
M 3116 1747 
Q 3116 2381 2855 2742 
Q 2594 3103 2138 3103 
Q 1681 3103 1420 2742 
Q 1159 2381 1159 1747 
Q 1159 1113 1420 752 
Q 1681 391 2138 391 
Q 2594 391 2855 752 
Q 3116 1113 3116 1747 
z
" id="DejaVuSans-70" transform="scale(0.015625)"/>
       <path d="M 1172 4494 
L 1172 3500 
L 2356 3500 
L 2356 3053 
L 1172 3053 
L 1172 1153 
Q 1172 725 1289 603 
Q 1406 481 1766 481 
L 2356 481 
L 2356 0 
L 1766 0 
Q 1100 0 847 248 
Q 594 497 594 1153 
L 594 3053 
L 172 3053 
L 172 3500 
L 594 3500 
L 594 4494 
L 1172 4494 
z
" id="DejaVuSans-74" transform="scale(0.015625)"/>
      </defs>
      <use xlink:href="#DejaVuSans-53"/>
      <use x="63.476562" xlink:href="#DejaVuSans-68"/>
      <use x="126.855469" xlink:href="#DejaVuSans-6f"/>
      <use x="188.037109" xlink:href="#DejaVuSans-77"/>
      <use x="269.824219" xlink:href="#DejaVuSans-65"/>
      <use x="331.347656" xlink:href="#DejaVuSans-72"/>
      <use x="372.460938" xlink:href="#DejaVuSans-20"/>
      <use x="404.248047" xlink:href="#DejaVuSans-64"/>
      <use x="467.724609" xlink:href="#DejaVuSans-65"/>
      <use x="529.248047" xlink:href="#DejaVuSans-70"/>
      <use x="592.724609" xlink:href="#DejaVuSans-74"/>
      <use x="631.933594" xlink:href="#DejaVuSans-68"/>
     </g>
    </g>
   </g>
   <g id="matplotlib.axis_2">
    <g id="ytick_1">
     <g id="line2d_10">
      <defs>
       <path d="M 0 0 
L -3.5 0 
" id="m6cc76e2ef4" style="stroke:#000000;stroke-width:0.8;"/>
      </defs>
      <g>
       <use style="stroke:#000000;stroke-width:0.8;" x="144" xlink:href="#m6cc76e2ef4" y="544.761818"/>
      </g>
     </g>
     <g id="text_11">
      <!-- $\mathdefault{10^{0}}$ -->
      <g transform="translate(84.2 556.159474)scale(0.3 -0.3)">
       <use transform="translate(0 0.765625)" xlink:href="#DejaVuSans-31"/>
       <use transform="translate(63.623047 0.765625)" xlink:href="#DejaVuSans-30"/>
       <use transform="translate(128.203125 39.046875)scale(0.7)" xlink:href="#DejaVuSans-30"/>
      </g>
     </g>
    </g>
    <g id="ytick_2">
     <g id="line2d_11">
      <g>
       <use style="stroke:#000000;stroke-width:0.8;" x="144" xlink:href="#m6cc76e2ef4" y="401.465503"/>
      </g>
     </g>
     <g id="text_12">
      <!-- $\mathdefault{10^{1}}$ -->
      <g transform="translate(84.2 412.863159)scale(0.3 -0.3)">
       <use transform="translate(0 0.684375)" xlink:href="#DejaVuSans-31"/>
       <use transform="translate(63.623047 0.684375)" xlink:href="#DejaVuSans-30"/>
       <use transform="translate(128.203125 38.965625)scale(0.7)" xlink:href="#DejaVuSans-31"/>
      </g>
     </g>
    </g>
    <g id="ytick_3">
     <g id="line2d_12">
      <g>
       <use style="stroke:#000000;stroke-width:0.8;" x="144" xlink:href="#m6cc76e2ef4" y="258.169188"/>
      </g>
     </g>
     <g id="text_13">
      <!-- $\mathdefault{10^{2}}$ -->
      <g transform="translate(84.2 269.566844)scale(0.3 -0.3)">
       <use transform="translate(0 0.765625)" xlink:href="#DejaVuSans-31"/>
       <use transform="translate(63.623047 0.765625)" xlink:href="#DejaVuSans-30"/>
       <use transform="translate(128.203125 39.046875)scale(0.7)" xlink:href="#DejaVuSans-32"/>
      </g>
     </g>
    </g>
    <g id="ytick_4">
     <g id="line2d_13">
      <g>
       <use style="stroke:#000000;stroke-width:0.8;" x="144" xlink:href="#m6cc76e2ef4" y="114.872873"/>
      </g>
     </g>
     <g id="text_14">
      <!-- $\mathdefault{10^{3}}$ -->
      <g transform="translate(84.2 126.270529)scale(0.3 -0.3)">
       <defs>
        <path d="M 2597 2516 
Q 3050 2419 3304 2112 
Q 3559 1806 3559 1356 
Q 3559 666 3084 287 
Q 2609 -91 1734 -91 
Q 1441 -91 1130 -33 
Q 819 25 488 141 
L 488 750 
Q 750 597 1062 519 
Q 1375 441 1716 441 
Q 2309 441 2620 675 
Q 2931 909 2931 1356 
Q 2931 1769 2642 2001 
Q 2353 2234 1838 2234 
L 1294 2234 
L 1294 2753 
L 1863 2753 
Q 2328 2753 2575 2939 
Q 2822 3125 2822 3475 
Q 2822 3834 2567 4026 
Q 2313 4219 1838 4219 
Q 1578 4219 1281 4162 
Q 984 4106 628 3988 
L 628 4550 
Q 988 4650 1302 4700 
Q 1616 4750 1894 4750 
Q 2613 4750 3031 4423 
Q 3450 4097 3450 3541 
Q 3450 3153 3228 2886 
Q 3006 2619 2597 2516 
z
" id="DejaVuSans-33" transform="scale(0.015625)"/>
       </defs>
       <use transform="translate(0 0.765625)" xlink:href="#DejaVuSans-31"/>
       <use transform="translate(63.623047 0.765625)" xlink:href="#DejaVuSans-30"/>
       <use transform="translate(128.203125 39.046875)scale(0.7)" xlink:href="#DejaVuSans-33"/>
      </g>
     </g>
    </g>
    <g id="ytick_5">
     <g id="line2d_14">
      <defs>
       <path d="M 0 0 
L -2 0 
" id="m36e6319e9f" style="stroke:#000000;stroke-width:0.6;"/>
      </defs>
      <g>
       <use style="stroke:#000000;stroke-width:0.6;" x="144" xlink:href="#m36e6319e9f" y="566.958698"/>
      </g>
     </g>
    </g>
    <g id="ytick_6">
     <g id="line2d_15">
      <g>
       <use style="stroke:#000000;stroke-width:0.6;" x="144" xlink:href="#m36e6319e9f" y="558.648666"/>
      </g>
     </g>
    </g>
    <g id="ytick_7">
     <g id="line2d_16">
      <g>
       <use style="stroke:#000000;stroke-width:0.6;" x="144" xlink:href="#m36e6319e9f" y="551.318698"/>
      </g>
     </g>
    </g>
    <g id="ytick_8">
     <g id="line2d_17">
      <g>
       <use style="stroke:#000000;stroke-width:0.6;" x="144" xlink:href="#m36e6319e9f" y="501.625329"/>
      </g>
     </g>
    </g>
    <g id="ytick_9">
     <g id="line2d_18">
      <g>
       <use style="stroke:#000000;stroke-width:0.6;" x="144" xlink:href="#m36e6319e9f" y="476.3921"/>
      </g>
     </g>
    </g>
    <g id="ytick_10">
     <g id="line2d_19">
      <g>
       <use style="stroke:#000000;stroke-width:0.6;" x="144" xlink:href="#m36e6319e9f" y="458.48884"/>
      </g>
     </g>
    </g>
    <g id="ytick_11">
     <g id="line2d_20">
      <g>
       <use style="stroke:#000000;stroke-width:0.6;" x="144" xlink:href="#m36e6319e9f" y="444.601992"/>
      </g>
     </g>
    </g>
    <g id="ytick_12">
     <g id="line2d_21">
      <g>
       <use style="stroke:#000000;stroke-width:0.6;" x="144" xlink:href="#m36e6319e9f" y="433.255611"/>
      </g>
     </g>
    </g>
    <g id="ytick_13">
     <g id="line2d_22">
      <g>
       <use style="stroke:#000000;stroke-width:0.6;" x="144" xlink:href="#m36e6319e9f" y="423.662383"/>
      </g>
     </g>
    </g>
    <g id="ytick_14">
     <g id="line2d_23">
      <g>
       <use style="stroke:#000000;stroke-width:0.6;" x="144" xlink:href="#m36e6319e9f" y="415.352351"/>
      </g>
     </g>
    </g>
    <g id="ytick_15">
     <g id="line2d_24">
      <g>
       <use style="stroke:#000000;stroke-width:0.6;" x="144" xlink:href="#m36e6319e9f" y="408.022383"/>
      </g>
     </g>
    </g>
    <g id="ytick_16">
     <g id="line2d_25">
      <g>
       <use style="stroke:#000000;stroke-width:0.6;" x="144" xlink:href="#m36e6319e9f" y="358.329014"/>
      </g>
     </g>
    </g>
    <g id="ytick_17">
     <g id="line2d_26">
      <g>
       <use style="stroke:#000000;stroke-width:0.6;" x="144" xlink:href="#m36e6319e9f" y="333.095785"/>
      </g>
     </g>
    </g>
    <g id="ytick_18">
     <g id="line2d_27">
      <g>
       <use style="stroke:#000000;stroke-width:0.6;" x="144" xlink:href="#m36e6319e9f" y="315.192525"/>
      </g>
     </g>
    </g>
    <g id="ytick_19">
     <g id="line2d_28">
      <g>
       <use style="stroke:#000000;stroke-width:0.6;" x="144" xlink:href="#m36e6319e9f" y="301.305677"/>
      </g>
     </g>
    </g>
    <g id="ytick_20">
     <g id="line2d_29">
      <g>
       <use style="stroke:#000000;stroke-width:0.6;" x="144" xlink:href="#m36e6319e9f" y="289.959296"/>
      </g>
     </g>
    </g>
    <g id="ytick_21">
     <g id="line2d_30">
      <g>
       <use style="stroke:#000000;stroke-width:0.6;" x="144" xlink:href="#m36e6319e9f" y="280.366068"/>
      </g>
     </g>
    </g>
    <g id="ytick_22">
     <g id="line2d_31">
      <g>
       <use style="stroke:#000000;stroke-width:0.6;" x="144" xlink:href="#m36e6319e9f" y="272.056036"/>
      </g>
     </g>
    </g>
    <g id="ytick_23">
     <g id="line2d_32">
      <g>
       <use style="stroke:#000000;stroke-width:0.6;" x="144" xlink:href="#m36e6319e9f" y="264.726068"/>
      </g>
     </g>
    </g>
    <g id="ytick_24">
     <g id="line2d_33">
      <g>
       <use style="stroke:#000000;stroke-width:0.6;" x="144" xlink:href="#m36e6319e9f" y="215.032699"/>
      </g>
     </g>
    </g>
    <g id="ytick_25">
     <g id="line2d_34">
      <g>
       <use style="stroke:#000000;stroke-width:0.6;" x="144" xlink:href="#m36e6319e9f" y="189.79947"/>
      </g>
     </g>
    </g>
    <g id="ytick_26">
     <g id="line2d_35">
      <g>
       <use style="stroke:#000000;stroke-width:0.6;" x="144" xlink:href="#m36e6319e9f" y="171.896209"/>
      </g>
     </g>
    </g>
    <g id="ytick_27">
     <g id="line2d_36">
      <g>
       <use style="stroke:#000000;stroke-width:0.6;" x="144" xlink:href="#m36e6319e9f" y="158.009362"/>
      </g>
     </g>
    </g>
    <g id="ytick_28">
     <g id="line2d_37">
      <g>
       <use style="stroke:#000000;stroke-width:0.6;" x="144" xlink:href="#m36e6319e9f" y="146.662981"/>
      </g>
     </g>
    </g>
    <g id="ytick_29">
     <g id="line2d_38">
      <g>
       <use style="stroke:#000000;stroke-width:0.6;" x="144" xlink:href="#m36e6319e9f" y="137.069753"/>
      </g>
     </g>
    </g>
    <g id="ytick_30">
     <g id="line2d_39">
      <g>
       <use style="stroke:#000000;stroke-width:0.6;" x="144" xlink:href="#m36e6319e9f" y="128.75972"/>
      </g>
     </g>
    </g>
    <g id="ytick_31">
     <g id="line2d_40">
      <g>
       <use style="stroke:#000000;stroke-width:0.6;" x="144" xlink:href="#m36e6319e9f" y="121.429752"/>
      </g>
     </g>
    </g>
    <g id="text_15">
     <!-- Events -->
     <g transform="translate(73.960938 373.166719)rotate(-90)scale(0.3 -0.3)">
      <defs>
       <path d="M 628 4666 
L 3578 4666 
L 3578 4134 
L 1259 4134 
L 1259 2753 
L 3481 2753 
L 3481 2222 
L 1259 2222 
L 1259 531 
L 3634 531 
L 3634 0 
L 628 0 
L 628 4666 
z
" id="DejaVuSans-45" transform="scale(0.015625)"/>
       <path d="M 191 3500 
L 800 3500 
L 1894 563 
L 2988 3500 
L 3597 3500 
L 2284 0 
L 1503 0 
L 191 3500 
z
" id="DejaVuSans-76" transform="scale(0.015625)"/>
       <path d="M 3513 2113 
L 3513 0 
L 2938 0 
L 2938 2094 
Q 2938 2591 2744 2837 
Q 2550 3084 2163 3084 
Q 1697 3084 1428 2787 
Q 1159 2491 1159 1978 
L 1159 0 
L 581 0 
L 581 3500 
L 1159 3500 
L 1159 2956 
Q 1366 3272 1645 3428 
Q 1925 3584 2291 3584 
Q 2894 3584 3203 3211 
Q 3513 2838 3513 2113 
z
" id="DejaVuSans-6e" transform="scale(0.015625)"/>
       <path d="M 2834 3397 
L 2834 2853 
Q 2591 2978 2328 3040 
Q 2066 3103 1784 3103 
Q 1356 3103 1142 2972 
Q 928 2841 928 2578 
Q 928 2378 1081 2264 
Q 1234 2150 1697 2047 
L 1894 2003 
Q 2506 1872 2764 1633 
Q 3022 1394 3022 966 
Q 3022 478 2636 193 
Q 2250 -91 1575 -91 
Q 1294 -91 989 -36 
Q 684 19 347 128 
L 347 722 
Q 666 556 975 473 
Q 1284 391 1588 391 
Q 1994 391 2212 530 
Q 2431 669 2431 922 
Q 2431 1156 2273 1281 
Q 2116 1406 1581 1522 
L 1381 1569 
Q 847 1681 609 1914 
Q 372 2147 372 2553 
Q 372 3047 722 3315 
Q 1072 3584 1716 3584 
Q 2034 3584 2315 3537 
Q 2597 3491 2834 3397 
z
" id="DejaVuSans-73" transform="scale(0.015625)"/>
      </defs>
      <use xlink:href="#DejaVuSans-45"/>
      <use x="63.183594" xlink:href="#DejaVuSans-76"/>
      <use x="122.363281" xlink:href="#DejaVuSans-65"/>
      <use x="183.886719" xlink:href="#DejaVuSans-6e"/>
      <use x="247.265625" xlink:href="#DejaVuSans-74"/>
      <use x="286.474609" xlink:href="#DejaVuSans-73"/>
     </g>
    </g>
   </g>
   <g id="line2d_41">
    <path clip-path="url(#p2d9638d400)" d="M 184.581818 355.292665 
L 184.581818 364.885894 
L 188.680992 364.885894 
L 188.680992 395.534084 
L 196.879339 395.534084 
L 196.879339 390.119122 
L 205.077686 390.119122 
L 205.077686 423.662383 
L 213.276033 423.662383 
L 213.276033 458.48884 
L 221.47438 458.48884 
L 221.47438 415.352351 
L 229.672727 415.352351 
L 229.672727 501.625329 
L 237.871074 501.625329 
L 237.871074 415.352351 
L 246.069421 415.352351 
L 246.069421 501.625329 
L 262.466116 501.625329 
L 262.466116 415.352351 
L 270.664463 415.352351 
L 270.664463 444.601992 
L 278.86281 444.601992 
L 278.86281 476.3921 
L 287.061157 476.3921 
L 287.061157 415.352351 
L 303.457851 415.352351 
L 303.457851 444.601992 
L 311.656198 444.601992 
L 311.656198 476.3921 
L 319.854545 476.3921 
L 319.854545 390.119122 
L 328.052893 390.119122 
L 328.052893 408.022383 
L 336.25124 408.022383 
L 336.25124 415.352351 
L 344.449587 415.352351 
L 344.449587 385.13784 
L 352.647934 385.13784 
L 352.647934 415.352351 
L 360.846281 415.352351 
L 360.846281 390.119122 
L 369.044628 390.119122 
L 369.044628 372.215862 
L 377.242975 372.215862 
L 377.242975 346.982633 
L 385.441322 346.982633 
L 385.441322 321.749404 
L 393.639669 321.749404 
L 393.639669 344.442166 
L 401.838017 344.442166 
L 401.838017 307.862557 
L 410.036364 307.862557 
L 410.036364 288.930631 
L 418.234711 288.930631 
L 418.234711 264.726068 
L 426.433058 264.726068 
L 426.433058 261.361313 
L 434.631405 261.361313 
L 434.631405 245.286117 
L 442.829752 245.286117 
L 442.829752 228.919546 
L 451.028099 228.919546 
L 451.028099 221.93628 
L 459.226446 221.93628 
L 459.226446 222.284924 
L 467.424793 222.284924 
L 467.424793 192.339937 
L 475.62314 192.339937 
L 475.62314 182.932202 
L 483.821488 182.932202 
L 483.821488 174.436676 
L 492.019835 174.436676 
L 492.019835 146.766789 
L 500.218182 146.766789 
L 500.218182 128.217552 
L 508.416529 128.217552 
L 508.416529 115.750288 
L 516.614876 115.750288 
L 516.614876 103.010034 
L 524.813223 103.010034 
L 524.813223 99.998182 
L 533.01157 99.998182 
L 533.01157 101.686965 
L 541.209917 101.686965 
L 541.209917 120.469139 
L 549.408264 120.469139 
L 549.408264 147.498333 
L 557.606612 147.498333 
L 557.606612 197.051696 
L 565.804959 197.051696 
L 565.804959 258.169188 
L 574.003306 258.169188 
L 574.003306 361.521139 
L 582.201653 361.521139 
L 582.201653 476.3921 
L 590.4 476.3921 
L 590.4 544.761818 
L 598.598347 544.761818 
L 598.598347 649 
L 598.598347 649 
" style="fill:none;stroke:#800080;stroke-linecap:square;stroke-width:3;"/>
   </g>
   <g id="line2d_42">
    <path clip-path="url(#p2d9638d400)" d="M 184.581818 544.761818 
L 184.581818 649 
M 188.680992 649 
L 188.680992 544.761818 
L 196.879339 544.761818 
L 196.879339 423.662383 
L 205.077686 423.662383 
L 205.077686 649 
M 213.276033 649 
L 213.276033 476.3921 
L 221.47438 476.3921 
L 221.47438 544.761818 
L 229.672727 544.761818 
L 229.672727 649 
M 237.871074 649 
L 237.871074 476.3921 
L 254.267769 476.3921 
L 254.267769 458.48884 
L 270.664463 458.48884 
L 270.664463 476.3921 
L 278.86281 476.3921 
L 278.86281 444.601992 
L 287.061157 444.601992 
L 287.061157 401.465503 
L 295.259504 401.465503 
L 295.259504 423.662383 
L 303.457851 423.662383 
L 303.457851 444.601992 
L 311.656198 444.601992 
L 311.656198 433.255611 
L 319.854545 433.255611 
L 319.854545 458.48884 
L 328.052893 458.48884 
L 328.052893 380.525894 
L 336.25124 380.525894 
L 336.25124 395.534084 
L 352.647934 395.534084 
L 352.647934 415.352351 
L 360.846281 415.352351 
L 360.846281 368.443022 
L 369.044628 368.443022 
L 369.044628 395.534084 
L 377.242975 395.534084 
L 377.242975 372.215862 
L 385.441322 372.215862 
L 385.441322 355.292665 
L 393.639669 355.292665 
L 393.639669 337.389405 
L 401.838017 337.389405 
L 401.838017 358.329014 
L 410.036364 358.329014 
L 410.036364 313.655834 
L 418.234711 313.655834 
L 418.234711 300.073304 
L 426.433058 300.073304 
L 426.433058 295.374258 
L 434.631405 295.374258 
L 434.631405 273.631634 
L 442.829752 273.631634 
L 442.829752 271.282947 
L 451.028099 271.282947 
L 451.028099 246.306349 
L 459.226446 246.306349 
L 459.226446 235.910106 
L 467.424793 235.910106 
L 467.424793 239.955538 
L 475.62314 239.955538 
L 475.62314 213.496008 
L 483.821488 213.496008 
L 483.821488 199.427282 
L 492.019835 199.427282 
L 492.019835 182.193525 
L 500.218182 182.193525 
L 500.218182 159.521164 
L 508.416529 159.521164 
L 508.416529 141.681699 
L 516.614876 141.681699 
L 516.614876 125.280432 
L 524.813223 125.280432 
L 524.813223 115.247394 
L 533.01157 115.247394 
L 533.01157 112.312494 
L 541.209917 112.312494 
L 541.209917 114.06906 
L 549.408264 114.06906 
L 549.408264 128.681978 
L 557.606612 128.681978 
L 557.606612 134.543512 
L 565.804959 134.543512 
L 565.804959 145.329003 
L 574.003306 145.329003 
L 574.003306 148.772769 
L 582.201653 148.772769 
L 582.201653 162.525639 
L 590.4 162.525639 
L 590.4 194.763467 
L 598.598347 194.763467 
L 598.598347 433.255611 
L 606.796694 433.255611 
L 606.796694 444.601992 
L 614.995041 444.601992 
L 614.995041 544.761818 
L 631.391736 544.761818 
L 631.391736 649 
L 631.391736 649 
" style="fill:none;stroke:#0000ff;stroke-linecap:square;stroke-width:3;"/>
   </g>
   <g id="line2d_43">
    <path clip-path="url(#p2d9638d400)" d="M 196.879339 649 
L 196.879339 501.625329 
L 205.077686 501.625329 
L 205.077686 423.662383 
L 213.276033 423.662383 
L 213.276033 501.625329 
L 221.47438 501.625329 
L 221.47438 544.761818 
L 229.672727 544.761818 
L 229.672727 476.3921 
L 237.871074 476.3921 
L 237.871074 433.255611 
L 246.069421 433.255611 
L 246.069421 423.662383 
L 254.267769 423.662383 
L 254.267769 433.255611 
L 262.466116 433.255611 
L 262.466116 444.601992 
L 270.664463 444.601992 
L 270.664463 433.255611 
L 278.86281 433.255611 
L 278.86281 458.48884 
L 295.259504 458.48884 
L 295.259504 423.662383 
L 303.457851 423.662383 
L 303.457851 444.601992 
L 311.656198 444.601992 
L 311.656198 433.255611 
L 319.854545 433.255611 
L 319.854545 423.662383 
L 328.052893 423.662383 
L 328.052893 444.601992 
L 336.25124 444.601992 
L 336.25124 501.625329 
L 344.449587 501.625329 
L 344.449587 444.601992 
L 352.647934 444.601992 
L 352.647934 423.662383 
L 360.846281 423.662383 
L 360.846281 395.534084 
L 369.044628 395.534084 
L 369.044628 444.601992 
L 385.441322 444.601992 
L 385.441322 476.3921 
L 393.639669 476.3921 
L 393.639669 423.662383 
L 401.838017 423.662383 
L 401.838017 415.352351 
L 418.234711 415.352351 
L 418.234711 401.465503 
L 426.433058 401.465503 
L 426.433058 380.525894 
L 434.631405 380.525894 
L 434.631405 390.119122 
L 442.829752 390.119122 
L 442.829752 368.443022 
L 451.028099 368.443022 
L 451.028099 346.982633 
L 459.226446 346.982633 
L 459.226446 313.655834 
L 467.424793 313.655834 
L 467.424793 295.374258 
L 475.62314 295.374258 
L 475.62314 288.930631 
L 483.821488 288.930631 
L 483.821488 247.343587 
L 492.019835 247.343587 
L 492.019835 232.935959 
L 500.218182 232.935959 
L 500.218182 214.106139 
L 508.416529 214.106139 
L 508.416529 189.385962 
L 516.614876 189.385962 
L 516.614876 159.521164 
L 524.813223 159.521164 
L 524.813223 152.646282 
L 533.01157 152.646282 
L 533.01157 142.258824 
L 541.209917 142.258824 
L 541.209917 156.049111 
L 549.408264 156.049111 
L 549.408264 181.101693 
L 557.606612 181.101693 
L 557.606612 188.567097 
L 565.804959 188.567097 
L 565.804959 184.246367 
L 574.003306 184.246367 
L 574.003306 171.896209 
L 582.201653 171.896209 
L 582.201653 191.695032 
L 590.4 191.695032 
L 590.4 126.694029 
L 598.598347 126.694029 
L 598.598347 134.033404 
L 606.796694 134.033404 
L 606.796694 139.702897 
L 614.995041 139.702897 
L 614.995041 161.860041 
L 623.193388 161.860041 
L 623.193388 190.845424 
L 631.391736 190.845424 
L 631.391736 221.244797 
L 639.590083 221.244797 
L 639.590083 208.538083 
L 647.78843 208.538083 
L 647.78843 229.702359 
L 655.986777 229.702359 
L 655.986777 262.685465 
L 664.185124 262.685465 
L 664.185124 271.282947 
L 672.383471 271.282947 
L 672.383471 273.631634 
L 680.581818 273.631634 
L 680.581818 266.835856 
L 688.780165 266.835856 
L 688.780165 259.426459 
L 696.978512 259.426459 
L 696.978512 266.124616 
L 705.17686 266.124616 
L 705.17686 269.764999 
L 713.375207 269.764999 
L 713.375207 283.092028 
L 721.573554 283.092028 
L 721.573554 291.00525 
L 729.771901 291.00525 
L 729.771901 301.305677 
L 737.970248 301.305677 
L 737.970248 307.862557 
L 746.168595 307.862557 
L 746.168595 320.04429 
L 754.366942 320.04429 
L 754.366942 309.261105 
L 762.565289 309.261105 
L 762.565289 288.930631 
L 770.763636 288.930631 
L 770.763636 296.516176 
L 787.160331 296.516176 
L 787.160331 289.959296 
L 795.358678 289.959296 
L 795.358678 316.768123 
L 803.557025 316.768123 
L 803.557025 313.655834 
L 811.755372 313.655834 
L 811.755372 333.095785 
L 819.953719 333.095785 
L 819.953719 335.205574 
L 828.152066 335.205574 
L 828.152066 349.631237 
L 836.350413 349.631237 
L 836.350413 327.164366 
L 844.54876 327.164366 
L 844.54876 323.502557 
L 852.747107 323.502557 
L 852.747107 305.156356 
L 860.945455 305.156356 
L 860.945455 313.655834 
L 869.143802 313.655834 
L 869.143802 352.397595 
L 877.342149 352.397595 
L 877.342149 342.001351 
L 885.540496 342.001351 
L 885.540496 339.652665 
L 893.738843 339.652665 
L 893.738843 372.215862 
L 901.93719 372.215862 
L 901.93719 385.13784 
L 910.135537 385.13784 
L 910.135537 349.631237 
L 918.333884 349.631237 
L 918.333884 385.13784 
L 926.532231 385.13784 
L 926.532231 390.119122 
L 934.730579 390.119122 
L 934.730579 408.022383 
L 942.928926 408.022383 
L 942.928926 385.13784 
L 959.32562 385.13784 
L 959.32562 408.022383 
L 967.523967 408.022383 
L 967.523967 415.352351 
L 975.722314 415.352351 
L 975.722314 476.3921 
L 983.920661 476.3921 
L 983.920661 544.761818 
L 996.218182 544.761818 
L 996.218182 649 
L 996.218182 649 
" style="fill:none;stroke:#f0e68c;stroke-linecap:square;stroke-width:3;"/>
   </g>
   <g id="patch_3">
    <path d="M 144 567 
L 144 77.76 
" style="fill:none;stroke:#000000;stroke-linecap:square;stroke-linejoin:miter;stroke-width:0.8;"/>
   </g>
   <g id="patch_4">
    <path d="M 1036.8 567 
L 1036.8 77.76 
" style="fill:none;stroke:#000000;stroke-linecap:square;stroke-linejoin:miter;stroke-width:0.8;"/>
   </g>
   <g id="patch_5">
    <path d="M 144 567 
L 1036.8 567 
" style="fill:none;stroke:#000000;stroke-linecap:square;stroke-linejoin:miter;stroke-width:0.8;"/>
   </g>
   <g id="patch_6">
    <path d="M 144 77.76 
L 1036.8 77.76 
" style="fill:none;stroke:#000000;stroke-linecap:square;stroke-linejoin:miter;stroke-width:0.8;"/>
   </g>
   <g id="legend_1">
    <g id="patch_7">
     <path d="M 674.4 181.869375 
L 1022.8 181.869375 
Q 1026.8 181.869375 1026.8 177.869375 
L 1026.8 91.76 
Q 1026.8 87.76 1022.8 87.76 
L 674.4 87.76 
Q 670.4 87.76 670.4 91.76 
L 670.4 177.869375 
Q 670.4 181.869375 674.4 181.869375 
z
" style="fill:#ffffff;opacity:0.8;stroke:#cccccc;stroke-linejoin:miter;"/>
    </g>
    <g id="line2d_44">
     <path d="M 678.4 103.956875 
L 718.4 103.956875 
" style="fill:none;stroke:#800080;stroke-linecap:square;stroke-width:3;"/>
    </g>
    <g id="line2d_45"/>
    <g id="text_16">
     <!-- $e^{+}$ DVAE -->
     <g transform="translate(734.4 110.956875)scale(0.2 -0.2)">
      <defs>
       <path d="M 3078 2063 
Q 3088 2113 3092 2166 
Q 3097 2219 3097 2272 
Q 3097 2653 2873 2875 
Q 2650 3097 2266 3097 
Q 1838 3097 1509 2826 
Q 1181 2556 1013 2059 
L 3078 2063 
z
M 3578 1613 
L 903 1613 
Q 884 1494 878 1425 
Q 872 1356 872 1306 
Q 872 872 1139 634 
Q 1406 397 1894 397 
Q 2269 397 2603 481 
Q 2938 566 3225 728 
L 3116 159 
Q 2806 34 2476 -28 
Q 2147 -91 1806 -91 
Q 1078 -91 686 257 
Q 294 606 294 1247 
Q 294 1794 489 2264 
Q 684 2734 1063 3103 
Q 1306 3334 1642 3459 
Q 1978 3584 2356 3584 
Q 2950 3584 3301 3228 
Q 3653 2872 3653 2272 
Q 3653 2128 3634 1964 
Q 3616 1800 3578 1613 
z
" id="DejaVuSans-Oblique-65" transform="scale(0.015625)"/>
       <path d="M 2944 4013 
L 2944 2272 
L 4684 2272 
L 4684 1741 
L 2944 1741 
L 2944 0 
L 2419 0 
L 2419 1741 
L 678 1741 
L 678 2272 
L 2419 2272 
L 2419 4013 
L 2944 4013 
z
" id="DejaVuSans-2b" transform="scale(0.015625)"/>
       <path d="M 1259 4147 
L 1259 519 
L 2022 519 
Q 2988 519 3436 956 
Q 3884 1394 3884 2338 
Q 3884 3275 3436 3711 
Q 2988 4147 2022 4147 
L 1259 4147 
z
M 628 4666 
L 1925 4666 
Q 3281 4666 3915 4102 
Q 4550 3538 4550 2338 
Q 4550 1131 3912 565 
Q 3275 0 1925 0 
L 628 0 
L 628 4666 
z
" id="DejaVuSans-44" transform="scale(0.015625)"/>
       <path d="M 1831 0 
L 50 4666 
L 709 4666 
L 2188 738 
L 3669 4666 
L 4325 4666 
L 2547 0 
L 1831 0 
z
" id="DejaVuSans-56" transform="scale(0.015625)"/>
       <path d="M 2188 4044 
L 1331 1722 
L 3047 1722 
L 2188 4044 
z
M 1831 4666 
L 2547 4666 
L 4325 0 
L 3669 0 
L 3244 1197 
L 1141 1197 
L 716 0 
L 50 0 
L 1831 4666 
z
" id="DejaVuSans-41" transform="scale(0.015625)"/>
      </defs>
      <use transform="translate(0 0.826562)" xlink:href="#DejaVuSans-Oblique-65"/>
      <use transform="translate(66.173333 39.107812)scale(0.7)" xlink:href="#DejaVuSans-2b"/>
      <use transform="translate(127.560052 0.826562)" xlink:href="#DejaVuSans-20"/>
      <use transform="translate(159.347161 0.826562)" xlink:href="#DejaVuSans-44"/>
      <use transform="translate(236.349115 0.826562)" xlink:href="#DejaVuSans-56"/>
      <use transform="translate(304.757318 0.826562)" xlink:href="#DejaVuSans-41"/>
      <use transform="translate(373.165521 0.826562)" xlink:href="#DejaVuSans-45"/>
     </g>
    </g>
    <g id="line2d_46">
     <path d="M 678.4 133.313125 
L 718.4 133.313125 
" style="fill:none;stroke:#0000ff;stroke-linecap:square;stroke-width:3;"/>
    </g>
    <g id="line2d_47"/>
    <g id="text_17">
     <!-- $\gamma$   DVAE -->
     <g transform="translate(734.4 140.313125)scale(0.2 -0.2)">
      <defs>
       <path d="M 1491 2950 
L 1838 788 
L 3456 3500 
L 4066 3500 
L 1972 0 
L 1713 -1331 
L 1138 -1331 
L 1397 0 
L 988 2613 
Q 925 3006 628 3006 
L 475 3006 
L 569 3500 
L 788 3500 
Q 1403 3500 1491 2950 
z
" id="DejaVuSans-Oblique-3b3" transform="scale(0.015625)"/>
      </defs>
      <use transform="translate(0 0.09375)" xlink:href="#DejaVuSans-Oblique-3b3"/>
      <use transform="translate(59.179688 0.09375)" xlink:href="#DejaVuSans-20"/>
      <use transform="translate(90.966797 0.09375)" xlink:href="#DejaVuSans-20"/>
      <use transform="translate(122.753906 0.09375)" xlink:href="#DejaVuSans-20"/>
      <use transform="translate(154.541016 0.09375)" xlink:href="#DejaVuSans-44"/>
      <use transform="translate(231.542969 0.09375)" xlink:href="#DejaVuSans-56"/>
      <use transform="translate(299.951172 0.09375)" xlink:href="#DejaVuSans-41"/>
      <use transform="translate(368.359375 0.09375)" xlink:href="#DejaVuSans-45"/>
     </g>
    </g>
    <g id="line2d_48">
     <path d="M 678.4 162.71 
L 718.4 162.71 
" style="fill:none;stroke:#f0e68c;stroke-linecap:square;stroke-width:3;"/>
    </g>
    <g id="line2d_49"/>
    <g id="text_18">
     <!-- $\pi^{+}$ DVAE -->
     <g transform="translate(734.4 169.71)scale(0.2 -0.2)">
      <defs>
       <path d="M 584 3500 
L 3938 3500 
L 3825 2925 
L 3384 2925 
L 2966 775 
Q 2922 550 2981 450 
Q 3038 353 3209 353 
Q 3256 353 3325 363 
Q 3397 369 3419 372 
L 3338 -44 
Q 3222 -84 3103 -103 
Q 2981 -122 2866 -122 
Q 2491 -122 2388 81 
Q 2284 288 2391 838 
L 2797 2925 
L 1506 2925 
L 938 0 
L 350 0 
L 919 2925 
L 472 2925 
L 584 3500 
z
" id="DejaVuSans-Oblique-3c0" transform="scale(0.015625)"/>
      </defs>
      <use transform="translate(0 0.826562)" xlink:href="#DejaVuSans-Oblique-3c0"/>
      <use transform="translate(64.671224 39.107812)scale(0.7)" xlink:href="#DejaVuSans-2b"/>
      <use transform="translate(126.057943 0.826562)" xlink:href="#DejaVuSans-20"/>
      <use transform="translate(157.845052 0.826562)" xlink:href="#DejaVuSans-44"/>
      <use transform="translate(234.847005 0.826562)" xlink:href="#DejaVuSans-56"/>
      <use transform="translate(303.255208 0.826562)" xlink:href="#DejaVuSans-41"/>
      <use transform="translate(371.663411 0.826562)" xlink:href="#DejaVuSans-45"/>
     </g>
    </g>
    <g id="patch_8">
     <path d="M 861.8 110.956875 
L 901.8 110.956875 
L 901.8 96.956875 
L 861.8 96.956875 
z
" style="fill:#800080;opacity:0.3;stroke:#800080;stroke-linejoin:miter;"/>
    </g>
    <g id="text_19">
     <!-- $e^{+}$ GEANT -->
     <g transform="translate(917.8 110.956875)scale(0.2 -0.2)">
      <defs>
       <path d="M 3809 666 
L 3809 1919 
L 2778 1919 
L 2778 2438 
L 4434 2438 
L 4434 434 
Q 4069 175 3628 42 
Q 3188 -91 2688 -91 
Q 1594 -91 976 548 
Q 359 1188 359 2328 
Q 359 3472 976 4111 
Q 1594 4750 2688 4750 
Q 3144 4750 3555 4637 
Q 3966 4525 4313 4306 
L 4313 3634 
Q 3963 3931 3569 4081 
Q 3175 4231 2741 4231 
Q 1884 4231 1454 3753 
Q 1025 3275 1025 2328 
Q 1025 1384 1454 906 
Q 1884 428 2741 428 
Q 3075 428 3337 486 
Q 3600 544 3809 666 
z
" id="DejaVuSans-47" transform="scale(0.015625)"/>
       <path d="M 628 4666 
L 1478 4666 
L 3547 763 
L 3547 4666 
L 4159 4666 
L 4159 0 
L 3309 0 
L 1241 3903 
L 1241 0 
L 628 0 
L 628 4666 
z
" id="DejaVuSans-4e" transform="scale(0.015625)"/>
       <path d="M -19 4666 
L 3928 4666 
L 3928 4134 
L 2272 4134 
L 2272 0 
L 1638 0 
L 1638 4134 
L -19 4134 
L -19 4666 
z
" id="DejaVuSans-54" transform="scale(0.015625)"/>
      </defs>
      <use transform="translate(0 0.826562)" xlink:href="#DejaVuSans-Oblique-65"/>
      <use transform="translate(66.173333 39.107812)scale(0.7)" xlink:href="#DejaVuSans-2b"/>
      <use transform="translate(127.560052 0.826562)" xlink:href="#DejaVuSans-20"/>
      <use transform="translate(159.347161 0.826562)" xlink:href="#DejaVuSans-47"/>
      <use transform="translate(236.837396 0.826562)" xlink:href="#DejaVuSans-45"/>
      <use transform="translate(300.02099 0.826562)" xlink:href="#DejaVuSans-41"/>
      <use transform="translate(368.429193 0.826562)" xlink:href="#DejaVuSans-4e"/>
      <use transform="translate(443.23388 0.826562)" xlink:href="#DejaVuSans-54"/>
     </g>
    </g>
    <g id="patch_9">
     <path d="M 861.8 140.313125 
L 901.8 140.313125 
L 901.8 126.313125 
L 861.8 126.313125 
z
" style="fill:#0000ff;opacity:0.3;stroke:#0000ff;stroke-linejoin:miter;"/>
    </g>
    <g id="text_20">
     <!-- $\gamma$   GEANT -->
     <g transform="translate(917.8 140.313125)scale(0.2 -0.2)">
      <use transform="translate(0 0.78125)" xlink:href="#DejaVuSans-Oblique-3b3"/>
      <use transform="translate(59.179688 0.78125)" xlink:href="#DejaVuSans-20"/>
      <use transform="translate(90.966797 0.78125)" xlink:href="#DejaVuSans-20"/>
      <use transform="translate(122.753906 0.78125)" xlink:href="#DejaVuSans-20"/>
      <use transform="translate(154.541016 0.78125)" xlink:href="#DejaVuSans-47"/>
      <use transform="translate(232.03125 0.78125)" xlink:href="#DejaVuSans-45"/>
      <use transform="translate(295.214844 0.78125)" xlink:href="#DejaVuSans-41"/>
      <use transform="translate(363.623047 0.78125)" xlink:href="#DejaVuSans-4e"/>
      <use transform="translate(438.427734 0.78125)" xlink:href="#DejaVuSans-54"/>
     </g>
    </g>
    <g id="patch_10">
     <path d="M 861.8 169.71 
L 901.8 169.71 
L 901.8 155.71 
L 861.8 155.71 
z
" style="fill:#f0e68c;opacity:0.3;stroke:#f0e68c;stroke-linejoin:miter;"/>
    </g>
    <g id="text_21">
     <!-- $\pi^{+}$ GEANT -->
     <g transform="translate(917.8 169.71)scale(0.2 -0.2)">
      <use transform="translate(0 0.826562)" xlink:href="#DejaVuSans-Oblique-3c0"/>
      <use transform="translate(64.671224 39.107812)scale(0.7)" xlink:href="#DejaVuSans-2b"/>
      <use transform="translate(126.057943 0.826562)" xlink:href="#DejaVuSans-20"/>
      <use transform="translate(157.845052 0.826562)" xlink:href="#DejaVuSans-47"/>
      <use transform="translate(235.335286 0.826562)" xlink:href="#DejaVuSans-45"/>
      <use transform="translate(298.51888 0.826562)" xlink:href="#DejaVuSans-41"/>
      <use transform="translate(366.927083 0.826562)" xlink:href="#DejaVuSans-4e"/>
      <use transform="translate(441.731771 0.826562)" xlink:href="#DejaVuSans-54"/>
     </g>
    </g>
   </g>
  </g>
 </g>
 <defs>
  <clipPath id="p2d9638d400">
   <rect height="489.24" width="892.8" x="144" y="77.76"/>
  </clipPath>
 </defs>
</svg>
