<?xml version="1.0" encoding="utf-8" standalone="no"?>
<!DOCTYPE svg PUBLIC "-//W3C//DTD SVG 1.1//EN"
  "http://www.w3.org/Graphics/SVG/1.1/DTD/svg11.dtd">
<svg height="648pt" version="1.1" viewBox="0 0 1152 648" width="1152pt" xmlns="http://www.w3.org/2000/svg" xmlns:xlink="http://www.w3.org/1999/xlink">
 <metadata>
  <rdf:RDF xmlns:cc="http://creativecommons.org/ns#" xmlns:dc="http://purl.org/dc/elements/1.1/" xmlns:rdf="http://www.w3.org/1999/02/22-rdf-syntax-ns#">
   <cc:Work>
    <dc:type rdf:resource="http://purl.org/dc/dcmitype/StillImage"/>
    <dc:date>2021-09-24T23:36:05.767834</dc:date>
    <dc:format>image/svg+xml</dc:format>
    <dc:creator>
     <cc:Agent>
      <dc:title>Matplotlib v3.4.2, https://matplotlib.org/</dc:title>
     </cc:Agent>
    </dc:creator>
   </cc:Work>
  </rdf:RDF>
 </metadata>
 <defs>
  <style type="text/css">*{stroke-linecap:butt;stroke-linejoin:round;}</style>
 </defs>
 <g id="figure_1">
  <g id="patch_1">
   <path d="M 0 648 
L 1152 648 
L 1152 0 
L 0 0 
z
" style="fill:none;"/>
  </g>
  <g id="axes_1">
   <g id="patch_2">
    <path d="M 144 567 
L 1036.8 567 
L 1036.8 77.76 
L 144 77.76 
z
" style="fill:#ffffff;"/>
   </g>
   <g id="PolyCollection_1">
    <path clip-path="url(#pad25e10319)" d="M 184.581818 124634.206838 
L 184.581818 458.027018 
L 184.581818 458.027018 
L 184.581818 292.435393 
L 188.680992 292.435393 
L 188.680992 297.67168 
L 196.879339 297.67168 
L 196.879339 306.624483 
L 205.077686 306.624483 
L 205.077686 305.341294 
L 213.276033 305.341294 
L 213.276033 306.624483 
L 221.47438 306.624483 
L 221.47438 294.469271 
L 229.672727 294.469271 
L 229.672727 294.989964 
L 237.871074 294.989964 
L 237.871074 289.996454 
L 246.069421 289.996454 
L 246.069421 292.936711 
L 254.267769 292.936711 
L 254.267769 298.224416 
L 262.466116 298.224416 
L 262.466116 293.442737 
L 270.664463 293.442737 
L 270.664463 302.863094 
L 278.86281 302.863094 
L 278.86281 305.341294 
L 287.061157 305.341294 
L 287.061157 293.95356 
L 295.259504 293.95356 
L 295.259504 303.472043 
L 303.457851 303.472043 
L 303.457851 294.469271 
L 311.656198 294.469271 
L 311.656198 293.95356 
L 319.854545 293.95356 
L 319.854545 293.95356 
L 328.052893 293.95356 
L 328.052893 299.917478 
L 336.25124 299.917478 
L 336.25124 291.938695 
L 344.449587 291.938695 
L 344.449587 307.277719 
L 352.647934 307.277719 
L 352.647934 294.469271 
L 360.846281 294.469271 
L 360.846281 294.989964 
L 369.044628 294.989964 
L 369.044628 294.989964 
L 377.242975 294.989964 
L 377.242975 294.469271 
L 385.441322 294.469271 
L 385.441322 292.435393 
L 393.639669 292.435393 
L 393.639669 292.936711 
L 401.838017 292.936711 
L 401.838017 291.446533 
L 410.036364 291.446533 
L 410.036364 292.936711 
L 418.234711 292.936711 
L 418.234711 308.608438 
L 426.433058 308.608438 
L 426.433058 303.472043 
L 434.631405 303.472043 
L 434.631405 299.917478 
L 442.829752 299.917478 
L 442.829752 304.087951 
L 451.028099 304.087951 
L 451.028099 296.046691 
L 459.226446 296.046691 
L 459.226446 301.665459 
L 467.424793 301.665459 
L 467.424793 296.582928 
L 475.62314 296.582928 
L 475.62314 297.67168 
L 483.821488 297.67168 
L 483.821488 298.224416 
L 492.019835 298.224416 
L 492.019835 304.087951 
L 500.218182 304.087951 
L 500.218182 307.277719 
L 508.416529 307.277719 
L 508.416529 301.665459 
L 516.614876 301.665459 
L 516.614876 301.076477 
L 524.813223 301.076477 
L 524.813223 299.347194 
L 533.01157 299.347194 
L 533.01157 291.938695 
L 541.209917 291.938695 
L 541.209917 299.917478 
L 549.408264 299.917478 
L 549.408264 299.917478 
L 557.606612 299.917478 
L 557.606612 296.046691 
L 565.804959 296.046691 
L 565.804959 307.938971 
L 574.003306 307.938971 
L 574.003306 301.076477 
L 582.201653 301.076477 
L 582.201653 297.67168 
L 590.4 297.67168 
L 590.4 301.665459 
L 598.598347 301.665459 
L 598.598347 296.582928 
L 606.796694 296.582928 
L 606.796694 295.515738 
L 614.995041 295.515738 
L 614.995041 297.124554 
L 623.193388 297.124554 
L 623.193388 294.469271 
L 631.391736 294.469271 
L 631.391736 298.224416 
L 639.590083 298.224416 
L 639.590083 307.938971 
L 647.78843 307.938971 
L 647.78843 300.493862 
L 655.986777 300.493862 
L 655.986777 300.493862 
L 664.185124 300.493862 
L 664.185124 304.710979 
L 672.383471 304.710979 
L 672.383471 290.958825 
L 680.581818 290.958825 
L 680.581818 308.608438 
L 688.780165 308.608438 
L 688.780165 292.435393 
L 696.978512 292.435393 
L 696.978512 296.046691 
L 705.17686 296.046691 
L 705.17686 290.958825 
L 713.375207 290.958825 
L 713.375207 299.347194 
L 721.573554 299.347194 
L 721.573554 301.076477 
L 729.771901 301.076477 
L 729.771901 296.582928 
L 737.970248 296.582928 
L 737.970248 306.624483 
L 746.168595 306.624483 
L 746.168595 295.515738 
L 754.366942 295.515738 
L 754.366942 304.087951 
L 762.565289 304.087951 
L 762.565289 294.469271 
L 770.763636 294.469271 
L 770.763636 297.67168 
L 778.961983 297.67168 
L 778.961983 305.97907 
L 787.160331 305.97907 
L 787.160331 302.863094 
L 795.358678 302.863094 
L 795.358678 305.97907 
L 803.557025 305.97907 
L 803.557025 284.557418 
L 811.755372 284.557418 
L 811.755372 304.087951 
L 819.953719 304.087951 
L 819.953719 291.938695 
L 828.152066 291.938695 
L 828.152066 299.347194 
L 836.350413 299.347194 
L 836.350413 311.372703 
L 844.54876 311.372703 
L 844.54876 306.624483 
L 852.747107 306.624483 
L 852.747107 295.515738 
L 860.945455 295.515738 
L 860.945455 298.782881 
L 869.143802 298.782881 
L 869.143802 294.469271 
L 877.342149 294.469271 
L 877.342149 301.076477 
L 885.540496 301.076477 
L 885.540496 293.95356 
L 893.738843 293.95356 
L 893.738843 298.224416 
L 901.93719 298.224416 
L 901.93719 301.665459 
L 910.135537 301.665459 
L 910.135537 291.938695 
L 918.333884 291.938695 
L 918.333884 292.435393 
L 926.532231 292.435393 
L 926.532231 296.046691 
L 934.730579 296.046691 
L 934.730579 288.121782 
L 942.928926 288.121782 
L 942.928926 310.668231 
L 951.127273 310.668231 
L 951.127273 291.446533 
L 959.32562 291.446533 
L 959.32562 307.277719 
L 967.523967 307.277719 
L 967.523967 300.493862 
L 975.722314 300.493862 
L 975.722314 296.582928 
L 983.920661 296.582928 
L 983.920661 294.989964 
L 992.119008 294.989964 
L 992.119008 294.989964 
L 996.218182 294.989964 
L 996.218182 236.663413 
L 996.218182 236.663413 
L 996.218182 124634.206838 
L 996.218182 124634.206838 
L 996.218182 124634.206838 
L 996.218182 124634.206838 
L 992.119008 124634.206838 
L 992.119008 124634.206838 
L 983.920661 124634.206838 
L 983.920661 124634.206838 
L 975.722314 124634.206838 
L 975.722314 124634.206838 
L 967.523967 124634.206838 
L 967.523967 124634.206838 
L 959.32562 124634.206838 
L 959.32562 124634.206838 
L 951.127273 124634.206838 
L 951.127273 124634.206838 
L 942.928926 124634.206838 
L 942.928926 124634.206838 
L 934.730579 124634.206838 
L 934.730579 124634.206838 
L 926.532231 124634.206838 
L 926.532231 124634.206838 
L 918.333884 124634.206838 
L 918.333884 124634.206838 
L 910.135537 124634.206838 
L 910.135537 124634.206838 
L 901.93719 124634.206838 
L 901.93719 124634.206838 
L 893.738843 124634.206838 
L 893.738843 124634.206838 
L 885.540496 124634.206838 
L 885.540496 124634.206838 
L 877.342149 124634.206838 
L 877.342149 124634.206838 
L 869.143802 124634.206838 
L 869.143802 124634.206838 
L 860.945455 124634.206838 
L 860.945455 124634.206838 
L 852.747107 124634.206838 
L 852.747107 124634.206838 
L 844.54876 124634.206838 
L 844.54876 124634.206838 
L 836.350413 124634.206838 
L 836.350413 124634.206838 
L 828.152066 124634.206838 
L 828.152066 124634.206838 
L 819.953719 124634.206838 
L 819.953719 124634.206838 
L 811.755372 124634.206838 
L 811.755372 124634.206838 
L 803.557025 124634.206838 
L 803.557025 124634.206838 
L 795.358678 124634.206838 
L 795.358678 124634.206838 
L 787.160331 124634.206838 
L 787.160331 124634.206838 
L 778.961983 124634.206838 
L 778.961983 124634.206838 
L 770.763636 124634.206838 
L 770.763636 124634.206838 
L 762.565289 124634.206838 
L 762.565289 124634.206838 
L 754.366942 124634.206838 
L 754.366942 124634.206838 
L 746.168595 124634.206838 
L 746.168595 124634.206838 
L 737.970248 124634.206838 
L 737.970248 124634.206838 
L 729.771901 124634.206838 
L 729.771901 124634.206838 
L 721.573554 124634.206838 
L 721.573554 124634.206838 
L 713.375207 124634.206838 
L 713.375207 124634.206838 
L 705.17686 124634.206838 
L 705.17686 124634.206838 
L 696.978512 124634.206838 
L 696.978512 124634.206838 
L 688.780165 124634.206838 
L 688.780165 124634.206838 
L 680.581818 124634.206838 
L 680.581818 124634.206838 
L 672.383471 124634.206838 
L 672.383471 124634.206838 
L 664.185124 124634.206838 
L 664.185124 124634.206838 
L 655.986777 124634.206838 
L 655.986777 124634.206838 
L 647.78843 124634.206838 
L 647.78843 124634.206838 
L 639.590083 124634.206838 
L 639.590083 124634.206838 
L 631.391736 124634.206838 
L 631.391736 124634.206838 
L 623.193388 124634.206838 
L 623.193388 124634.206838 
L 614.995041 124634.206838 
L 614.995041 124634.206838 
L 606.796694 124634.206838 
L 606.796694 124634.206838 
L 598.598347 124634.206838 
L 598.598347 124634.206838 
L 590.4 124634.206838 
L 590.4 124634.206838 
L 582.201653 124634.206838 
L 582.201653 124634.206838 
L 574.003306 124634.206838 
L 574.003306 124634.206838 
L 565.804959 124634.206838 
L 565.804959 124634.206838 
L 557.606612 124634.206838 
L 557.606612 124634.206838 
L 549.408264 124634.206838 
L 549.408264 124634.206838 
L 541.209917 124634.206838 
L 541.209917 124634.206838 
L 533.01157 124634.206838 
L 533.01157 124634.206838 
L 524.813223 124634.206838 
L 524.813223 124634.206838 
L 516.614876 124634.206838 
L 516.614876 124634.206838 
L 508.416529 124634.206838 
L 508.416529 124634.206838 
L 500.218182 124634.206838 
L 500.218182 124634.206838 
L 492.019835 124634.206838 
L 492.019835 124634.206838 
L 483.821488 124634.206838 
L 483.821488 124634.206838 
L 475.62314 124634.206838 
L 475.62314 124634.206838 
L 467.424793 124634.206838 
L 467.424793 124634.206838 
L 459.226446 124634.206838 
L 459.226446 124634.206838 
L 451.028099 124634.206838 
L 451.028099 124634.206838 
L 442.829752 124634.206838 
L 442.829752 124634.206838 
L 434.631405 124634.206838 
L 434.631405 124634.206838 
L 426.433058 124634.206838 
L 426.433058 124634.206838 
L 418.234711 124634.206838 
L 418.234711 124634.206838 
L 410.036364 124634.206838 
L 410.036364 124634.206838 
L 401.838017 124634.206838 
L 401.838017 124634.206838 
L 393.639669 124634.206838 
L 393.639669 124634.206838 
L 385.441322 124634.206838 
L 385.441322 124634.206838 
L 377.242975 124634.206838 
L 377.242975 124634.206838 
L 369.044628 124634.206838 
L 369.044628 124634.206838 
L 360.846281 124634.206838 
L 360.846281 124634.206838 
L 352.647934 124634.206838 
L 352.647934 124634.206838 
L 344.449587 124634.206838 
L 344.449587 124634.206838 
L 336.25124 124634.206838 
L 336.25124 124634.206838 
L 328.052893 124634.206838 
L 328.052893 124634.206838 
L 319.854545 124634.206838 
L 319.854545 124634.206838 
L 311.656198 124634.206838 
L 311.656198 124634.206838 
L 303.457851 124634.206838 
L 303.457851 124634.206838 
L 295.259504 124634.206838 
L 295.259504 124634.206838 
L 287.061157 124634.206838 
L 287.061157 124634.206838 
L 278.86281 124634.206838 
L 278.86281 124634.206838 
L 270.664463 124634.206838 
L 270.664463 124634.206838 
L 262.466116 124634.206838 
L 262.466116 124634.206838 
L 254.267769 124634.206838 
L 254.267769 124634.206838 
L 246.069421 124634.206838 
L 246.069421 124634.206838 
L 237.871074 124634.206838 
L 237.871074 124634.206838 
L 229.672727 124634.206838 
L 229.672727 124634.206838 
L 221.47438 124634.206838 
L 221.47438 124634.206838 
L 213.276033 124634.206838 
L 213.276033 124634.206838 
L 205.077686 124634.206838 
L 205.077686 124634.206838 
L 196.879339 124634.206838 
L 196.879339 124634.206838 
L 188.680992 124634.206838 
L 188.680992 124634.206838 
L 184.581818 124634.206838 
L 184.581818 124634.206838 
L 184.581818 124634.206838 
z
" style="fill:#800080;fill-opacity:0.3;stroke:#800080;stroke-opacity:0.3;"/>
   </g>
   <g id="PolyCollection_2">
    <path clip-path="url(#pad25e10319)" d="M 184.581818 124634.206838 
L 184.581818 124634.206838 
L 184.581818 124634.206838 
L 184.581818 297.67168 
L 188.680992 297.67168 
L 188.680992 294.469271 
L 196.879339 294.469271 
L 196.879339 284.557418 
L 205.077686 284.557418 
L 205.077686 293.442737 
L 213.276033 293.442737 
L 213.276033 304.087951 
L 221.47438 304.087951 
L 221.47438 299.347194 
L 229.672727 299.347194 
L 229.672727 297.124554 
L 237.871074 297.124554 
L 237.871074 288.584372 
L 246.069421 288.584372 
L 246.069421 296.046691 
L 254.267769 296.046691 
L 254.267769 304.710979 
L 262.466116 304.710979 
L 262.466116 304.087951 
L 270.664463 304.087951 
L 270.664463 287.208348 
L 278.86281 287.208348 
L 278.86281 302.26095 
L 287.061157 302.26095 
L 287.061157 296.046691 
L 295.259504 296.046691 
L 295.259504 293.442737 
L 303.457851 293.442737 
L 303.457851 301.076477 
L 311.656198 301.076477 
L 311.656198 302.26095 
L 319.854545 302.26095 
L 319.854545 294.469271 
L 328.052893 294.469271 
L 328.052893 297.124554 
L 336.25124 297.124554 
L 336.25124 291.938695 
L 344.449587 291.938695 
L 344.449587 299.347194 
L 352.647934 299.347194 
L 352.647934 296.046691 
L 360.846281 296.046691 
L 360.846281 302.26095 
L 369.044628 302.26095 
L 369.044628 299.917478 
L 377.242975 299.917478 
L 377.242975 288.121782 
L 385.441322 288.121782 
L 385.441322 298.782881 
L 393.639669 298.782881 
L 393.639669 296.046691 
L 401.838017 296.046691 
L 401.838017 293.442737 
L 410.036364 293.442737 
L 410.036364 303.472043 
L 418.234711 303.472043 
L 418.234711 292.435393 
L 426.433058 292.435393 
L 426.433058 292.936711 
L 434.631405 292.936711 
L 434.631405 290.475491 
L 442.829752 290.475491 
L 442.829752 293.95356 
L 451.028099 293.95356 
L 451.028099 294.469271 
L 459.226446 294.469271 
L 459.226446 299.347194 
L 467.424793 299.347194 
L 467.424793 290.475491 
L 475.62314 290.475491 
L 475.62314 294.989964 
L 483.821488 294.989964 
L 483.821488 301.665459 
L 492.019835 301.665459 
L 492.019835 299.347194 
L 500.218182 299.347194 
L 500.218182 292.435393 
L 508.416529 292.435393 
L 508.416529 293.442737 
L 516.614876 293.442737 
L 516.614876 291.446533 
L 524.813223 291.446533 
L 524.813223 301.076477 
L 533.01157 301.076477 
L 533.01157 298.782881 
L 541.209917 298.782881 
L 541.209917 303.472043 
L 549.408264 303.472043 
L 549.408264 292.936711 
L 557.606612 292.936711 
L 557.606612 285.866585 
L 565.804959 285.866585 
L 565.804959 297.67168 
L 574.003306 297.67168 
L 574.003306 293.442737 
L 582.201653 293.442737 
L 582.201653 299.347194 
L 590.4 299.347194 
L 590.4 293.442737 
L 598.598347 293.442737 
L 598.598347 298.782881 
L 606.796694 298.782881 
L 606.796694 301.076477 
L 614.995041 301.076477 
L 614.995041 292.435393 
L 623.193388 292.435393 
L 623.193388 289.521637 
L 631.391736 289.521637 
L 631.391736 292.435393 
L 639.590083 292.435393 
L 639.590083 298.782881 
L 647.78843 298.782881 
L 647.78843 307.277719 
L 655.986777 307.277719 
L 655.986777 290.958825 
L 664.185124 290.958825 
L 664.185124 301.665459 
L 672.383471 301.665459 
L 672.383471 296.046691 
L 680.581818 296.046691 
L 680.581818 296.046691 
L 688.780165 296.046691 
L 688.780165 299.917478 
L 696.978512 299.917478 
L 696.978512 300.493862 
L 705.17686 300.493862 
L 705.17686 292.435393 
L 713.375207 292.435393 
L 713.375207 292.435393 
L 721.573554 292.435393 
L 721.573554 302.26095 
L 729.771901 302.26095 
L 729.771901 298.224416 
L 737.970248 298.224416 
L 737.970248 303.472043 
L 746.168595 303.472043 
L 746.168595 286.310137 
L 754.366942 286.310137 
L 754.366942 300.493862 
L 762.565289 300.493862 
L 762.565289 284.990283 
L 770.763636 284.990283 
L 770.763636 303.472043 
L 778.961983 303.472043 
L 778.961983 311.372703 
L 787.160331 311.372703 
L 787.160331 299.917478 
L 795.358678 299.917478 
L 795.358678 301.076477 
L 803.557025 301.076477 
L 803.557025 296.046691 
L 811.755372 296.046691 
L 811.755372 301.076477 
L 819.953719 301.076477 
L 819.953719 299.917478 
L 828.152066 299.917478 
L 828.152066 296.046691 
L 836.350413 296.046691 
L 836.350413 299.347194 
L 844.54876 299.347194 
L 844.54876 297.67168 
L 852.747107 297.67168 
L 852.747107 297.67168 
L 860.945455 297.67168 
L 860.945455 297.67168 
L 869.143802 297.67168 
L 869.143802 297.67168 
L 877.342149 297.67168 
L 877.342149 287.66313 
L 885.540496 287.66313 
L 885.540496 291.938695 
L 893.738843 291.938695 
L 893.738843 293.442737 
L 901.93719 293.442737 
L 901.93719 301.076477 
L 910.135537 301.076477 
L 910.135537 294.469271 
L 918.333884 294.469271 
L 918.333884 294.469271 
L 926.532231 294.469271 
L 926.532231 303.472043 
L 934.730579 303.472043 
L 934.730579 295.515738 
L 942.928926 295.515738 
L 942.928926 297.124554 
L 951.127273 297.124554 
L 951.127273 294.989964 
L 959.32562 294.989964 
L 959.32562 292.435393 
L 967.523967 292.435393 
L 967.523967 289.996454 
L 975.722314 289.996454 
L 975.722314 289.050967 
L 983.920661 289.050967 
L 983.920661 298.224416 
L 992.119008 298.224416 
L 992.119008 356.330266 
L 996.218182 356.330266 
L 996.218182 124634.206838 
L 996.218182 124634.206838 
L 996.218182 124634.206838 
L 996.218182 124634.206838 
L 996.218182 124634.206838 
L 996.218182 124634.206838 
L 992.119008 124634.206838 
L 992.119008 124634.206838 
L 983.920661 124634.206838 
L 983.920661 124634.206838 
L 975.722314 124634.206838 
L 975.722314 124634.206838 
L 967.523967 124634.206838 
L 967.523967 124634.206838 
L 959.32562 124634.206838 
L 959.32562 124634.206838 
L 951.127273 124634.206838 
L 951.127273 124634.206838 
L 942.928926 124634.206838 
L 942.928926 124634.206838 
L 934.730579 124634.206838 
L 934.730579 124634.206838 
L 926.532231 124634.206838 
L 926.532231 124634.206838 
L 918.333884 124634.206838 
L 918.333884 124634.206838 
L 910.135537 124634.206838 
L 910.135537 124634.206838 
L 901.93719 124634.206838 
L 901.93719 124634.206838 
L 893.738843 124634.206838 
L 893.738843 124634.206838 
L 885.540496 124634.206838 
L 885.540496 124634.206838 
L 877.342149 124634.206838 
L 877.342149 124634.206838 
L 869.143802 124634.206838 
L 869.143802 124634.206838 
L 860.945455 124634.206838 
L 860.945455 124634.206838 
L 852.747107 124634.206838 
L 852.747107 124634.206838 
L 844.54876 124634.206838 
L 844.54876 124634.206838 
L 836.350413 124634.206838 
L 836.350413 124634.206838 
L 828.152066 124634.206838 
L 828.152066 124634.206838 
L 819.953719 124634.206838 
L 819.953719 124634.206838 
L 811.755372 124634.206838 
L 811.755372 124634.206838 
L 803.557025 124634.206838 
L 803.557025 124634.206838 
L 795.358678 124634.206838 
L 795.358678 124634.206838 
L 787.160331 124634.206838 
L 787.160331 124634.206838 
L 778.961983 124634.206838 
L 778.961983 124634.206838 
L 770.763636 124634.206838 
L 770.763636 124634.206838 
L 762.565289 124634.206838 
L 762.565289 124634.206838 
L 754.366942 124634.206838 
L 754.366942 124634.206838 
L 746.168595 124634.206838 
L 746.168595 124634.206838 
L 737.970248 124634.206838 
L 737.970248 124634.206838 
L 729.771901 124634.206838 
L 729.771901 124634.206838 
L 721.573554 124634.206838 
L 721.573554 124634.206838 
L 713.375207 124634.206838 
L 713.375207 124634.206838 
L 705.17686 124634.206838 
L 705.17686 124634.206838 
L 696.978512 124634.206838 
L 696.978512 124634.206838 
L 688.780165 124634.206838 
L 688.780165 124634.206838 
L 680.581818 124634.206838 
L 680.581818 124634.206838 
L 672.383471 124634.206838 
L 672.383471 124634.206838 
L 664.185124 124634.206838 
L 664.185124 124634.206838 
L 655.986777 124634.206838 
L 655.986777 124634.206838 
L 647.78843 124634.206838 
L 647.78843 124634.206838 
L 639.590083 124634.206838 
L 639.590083 124634.206838 
L 631.391736 124634.206838 
L 631.391736 124634.206838 
L 623.193388 124634.206838 
L 623.193388 124634.206838 
L 614.995041 124634.206838 
L 614.995041 124634.206838 
L 606.796694 124634.206838 
L 606.796694 124634.206838 
L 598.598347 124634.206838 
L 598.598347 124634.206838 
L 590.4 124634.206838 
L 590.4 124634.206838 
L 582.201653 124634.206838 
L 582.201653 124634.206838 
L 574.003306 124634.206838 
L 574.003306 124634.206838 
L 565.804959 124634.206838 
L 565.804959 124634.206838 
L 557.606612 124634.206838 
L 557.606612 124634.206838 
L 549.408264 124634.206838 
L 549.408264 124634.206838 
L 541.209917 124634.206838 
L 541.209917 124634.206838 
L 533.01157 124634.206838 
L 533.01157 124634.206838 
L 524.813223 124634.206838 
L 524.813223 124634.206838 
L 516.614876 124634.206838 
L 516.614876 124634.206838 
L 508.416529 124634.206838 
L 508.416529 124634.206838 
L 500.218182 124634.206838 
L 500.218182 124634.206838 
L 492.019835 124634.206838 
L 492.019835 124634.206838 
L 483.821488 124634.206838 
L 483.821488 124634.206838 
L 475.62314 124634.206838 
L 475.62314 124634.206838 
L 467.424793 124634.206838 
L 467.424793 124634.206838 
L 459.226446 124634.206838 
L 459.226446 124634.206838 
L 451.028099 124634.206838 
L 451.028099 124634.206838 
L 442.829752 124634.206838 
L 442.829752 124634.206838 
L 434.631405 124634.206838 
L 434.631405 124634.206838 
L 426.433058 124634.206838 
L 426.433058 124634.206838 
L 418.234711 124634.206838 
L 418.234711 124634.206838 
L 410.036364 124634.206838 
L 410.036364 124634.206838 
L 401.838017 124634.206838 
L 401.838017 124634.206838 
L 393.639669 124634.206838 
L 393.639669 124634.206838 
L 385.441322 124634.206838 
L 385.441322 124634.206838 
L 377.242975 124634.206838 
L 377.242975 124634.206838 
L 369.044628 124634.206838 
L 369.044628 124634.206838 
L 360.846281 124634.206838 
L 360.846281 124634.206838 
L 352.647934 124634.206838 
L 352.647934 124634.206838 
L 344.449587 124634.206838 
L 344.449587 124634.206838 
L 336.25124 124634.206838 
L 336.25124 124634.206838 
L 328.052893 124634.206838 
L 328.052893 124634.206838 
L 319.854545 124634.206838 
L 319.854545 124634.206838 
L 311.656198 124634.206838 
L 311.656198 124634.206838 
L 303.457851 124634.206838 
L 303.457851 124634.206838 
L 295.259504 124634.206838 
L 295.259504 124634.206838 
L 287.061157 124634.206838 
L 287.061157 124634.206838 
L 278.86281 124634.206838 
L 278.86281 124634.206838 
L 270.664463 124634.206838 
L 270.664463 124634.206838 
L 262.466116 124634.206838 
L 262.466116 124634.206838 
L 254.267769 124634.206838 
L 254.267769 124634.206838 
L 246.069421 124634.206838 
L 246.069421 124634.206838 
L 237.871074 124634.206838 
L 237.871074 124634.206838 
L 229.672727 124634.206838 
L 229.672727 124634.206838 
L 221.47438 124634.206838 
L 221.47438 124634.206838 
L 213.276033 124634.206838 
L 213.276033 124634.206838 
L 205.077686 124634.206838 
L 205.077686 124634.206838 
L 196.879339 124634.206838 
L 196.879339 124634.206838 
L 188.680992 124634.206838 
L 188.680992 124634.206838 
L 184.581818 124634.206838 
L 184.581818 124634.206838 
L 184.581818 124634.206838 
z
" style="fill:#0000ff;fill-opacity:0.3;stroke:#0000ff;stroke-opacity:0.3;"/>
   </g>
   <g id="PolyCollection_3">
    <path clip-path="url(#pad25e10319)" d="M 184.581818 124634.206838 
L 184.581818 103.852842 
L 184.581818 103.852842 
L 184.581818 208.886711 
L 188.680992 208.886711 
L 188.680992 231.59152 
L 196.879339 231.59152 
L 196.879339 240.330907 
L 205.077686 240.330907 
L 205.077686 240.521 
L 213.276033 240.521 
L 213.276033 255.080748 
L 221.47438 255.080748 
L 221.47438 253.60418 
L 229.672727 253.60418 
L 229.672727 261.992549 
L 237.871074 261.992549 
L 237.871074 255.834485 
L 246.069421 255.834485 
L 246.069421 271.591671 
L 254.267769 271.591671 
L 254.267769 263.429737 
L 262.466116 263.429737 
L 262.466116 267.043919 
L 270.664463 267.043919 
L 270.664463 272.273849 
L 278.86281 272.273849 
L 278.86281 272.618204 
L 287.061157 272.618204 
L 287.061157 262.562833 
L 295.259504 262.562833 
L 295.259504 270.584326 
L 303.457851 270.584326 
L 303.457851 282.859912 
L 311.656198 282.859912 
L 311.656198 280.810564 
L 319.854545 280.810564 
L 319.854545 284.128003 
L 328.052893 284.128003 
L 328.052893 281.214247 
L 336.25124 281.214247 
L 336.25124 290.475491 
L 344.449587 290.475491 
L 344.449587 297.67168 
L 352.647934 297.67168 
L 352.647934 291.938695 
L 360.846281 291.938695 
L 360.846281 289.521637 
L 369.044628 289.521637 
L 369.044628 287.66313 
L 377.242975 287.66313 
L 377.242975 292.936711 
L 385.441322 292.936711 
L 385.441322 297.124554 
L 393.639669 297.124554 
L 393.639669 299.917478 
L 401.838017 299.917478 
L 401.838017 302.863094 
L 410.036364 302.863094 
L 410.036364 302.863094 
L 418.234711 302.863094 
L 418.234711 317.366804 
L 426.433058 317.366804 
L 426.433058 311.372703 
L 434.631405 311.372703 
L 434.631405 302.26095 
L 442.829752 302.26095 
L 442.829752 315.804626 
L 451.028099 315.804626 
L 451.028099 314.286459 
L 459.226446 314.286459 
L 459.226446 318.165209 
L 467.424793 318.165209 
L 467.424793 320.633948 
L 475.62314 320.633948 
L 475.62314 325.017775 
L 483.821488 325.017775 
L 483.821488 328.801178 
L 492.019835 328.801178 
L 492.019835 336.137526 
L 500.218182 336.137526 
L 500.218182 339.615595 
L 508.416529 339.615595 
L 508.416529 335.026325 
L 516.614876 335.026325 
L 516.614876 344.632364 
L 524.813223 344.632364 
L 524.813223 342.065624 
L 533.01157 342.065624 
L 533.01157 338.431122 
L 541.209917 338.431122 
L 541.209917 354.721449 
L 549.408264 354.721449 
L 549.408264 351.641105 
L 557.606612 351.641105 
L 557.606612 361.466661 
L 565.804959 361.466661 
L 565.804959 365.184781 
L 574.003306 365.184781 
L 574.003306 363.293662 
L 582.201653 363.293662 
L 582.201653 371.292218 
L 590.4 371.292218 
L 590.4 363.293662 
L 598.598347 363.293662 
L 598.598347 378.181333 
L 606.796694 378.181333 
L 606.796694 386.081994 
L 614.995041 386.081994 
L 614.995041 375.785767 
L 623.193388 375.785767 
L 623.193388 386.081994 
L 631.391736 386.081994 
L 631.391736 388.99575 
L 639.590083 388.99575 
L 639.590083 371.292218 
L 647.78843 371.292218 
L 647.78843 369.178561 
L 655.986777 369.178561 
L 655.986777 398.821307 
L 664.185124 398.821307 
L 664.185124 380.68836 
L 672.383471 380.68836 
L 672.383471 448.201461 
L 680.581818 448.201461 
L 680.581818 415.535978 
L 688.780165 415.535978 
L 688.780165 426.350395 
L 696.978512 426.350395 
L 696.978512 415.535978 
L 705.17686 415.535978 
L 705.17686 415.535978 
L 713.375207 415.535978 
L 713.375207 420.672373 
L 721.573554 420.672373 
L 721.573554 420.672373 
L 729.771901 420.672373 
L 729.771901 432.697883 
L 737.970248 432.697883 
L 737.970248 448.201461 
L 746.168595 448.201461 
L 746.168595 448.201461 
L 754.366942 448.201461 
L 754.366942 448.201461 
L 762.565289 448.201461 
L 762.565289 426.350395 
L 770.763636 426.350395 
L 770.763636 470.052528 
L 778.961983 470.052528 
L 778.961983 458.027018 
L 787.160331 458.027018 
L 787.160331 470.052528 
L 795.358678 470.052528 
L 795.358678 485.556106 
L 803.557025 485.556106 
L 803.557025 448.201461 
L 811.755372 448.201461 
L 811.755372 485.556106 
L 819.953719 485.556106 
L 819.953719 507.407173 
L 828.152066 507.407173 
L 828.152066 544.761818 
L 836.350413 544.761818 
L 836.350413 470.052528 
L 844.54876 470.052528 
L 844.54876 544.761818 
L 852.747107 544.761818 
L 852.747107 485.556106 
L 860.945455 485.556106 
L 860.945455 544.761818 
L 869.143802 544.761818 
L 869.143802 544.761818 
L 877.342149 544.761818 
L 877.342149 507.407173 
L 885.540496 507.407173 
L 885.540496 470.052528 
L 893.738843 470.052528 
L 893.738843 124634.206838 
L 901.93719 124634.206838 
L 901.93719 544.761818 
L 910.135537 544.761818 
L 910.135537 544.761818 
L 918.333884 544.761818 
L 918.333884 544.761818 
L 926.532231 544.761818 
L 926.532231 124634.206838 
L 934.730579 124634.206838 
L 934.730579 124634.206838 
L 942.928926 124634.206838 
L 942.928926 124634.206838 
L 951.127273 124634.206838 
L 951.127273 544.761818 
L 959.32562 544.761818 
L 959.32562 124634.206838 
L 967.523967 124634.206838 
L 967.523967 544.761818 
L 975.722314 544.761818 
L 975.722314 124634.206838 
L 983.920661 124634.206838 
L 983.920661 124634.206838 
L 992.119008 124634.206838 
L 992.119008 124634.206838 
L 996.218182 124634.206838 
L 996.218182 124634.206838 
L 996.218182 124634.206838 
L 996.218182 124634.206838 
L 996.218182 124634.206838 
L 996.218182 124634.206838 
L 996.218182 124634.206838 
L 992.119008 124634.206838 
L 992.119008 124634.206838 
L 983.920661 124634.206838 
L 983.920661 124634.206838 
L 975.722314 124634.206838 
L 975.722314 124634.206838 
L 967.523967 124634.206838 
L 967.523967 124634.206838 
L 959.32562 124634.206838 
L 959.32562 124634.206838 
L 951.127273 124634.206838 
L 951.127273 124634.206838 
L 942.928926 124634.206838 
L 942.928926 124634.206838 
L 934.730579 124634.206838 
L 934.730579 124634.206838 
L 926.532231 124634.206838 
L 926.532231 124634.206838 
L 918.333884 124634.206838 
L 918.333884 124634.206838 
L 910.135537 124634.206838 
L 910.135537 124634.206838 
L 901.93719 124634.206838 
L 901.93719 124634.206838 
L 893.738843 124634.206838 
L 893.738843 124634.206838 
L 885.540496 124634.206838 
L 885.540496 124634.206838 
L 877.342149 124634.206838 
L 877.342149 124634.206838 
L 869.143802 124634.206838 
L 869.143802 124634.206838 
L 860.945455 124634.206838 
L 860.945455 124634.206838 
L 852.747107 124634.206838 
L 852.747107 124634.206838 
L 844.54876 124634.206838 
L 844.54876 124634.206838 
L 836.350413 124634.206838 
L 836.350413 124634.206838 
L 828.152066 124634.206838 
L 828.152066 124634.206838 
L 819.953719 124634.206838 
L 819.953719 124634.206838 
L 811.755372 124634.206838 
L 811.755372 124634.206838 
L 803.557025 124634.206838 
L 803.557025 124634.206838 
L 795.358678 124634.206838 
L 795.358678 124634.206838 
L 787.160331 124634.206838 
L 787.160331 124634.206838 
L 778.961983 124634.206838 
L 778.961983 124634.206838 
L 770.763636 124634.206838 
L 770.763636 124634.206838 
L 762.565289 124634.206838 
L 762.565289 124634.206838 
L 754.366942 124634.206838 
L 754.366942 124634.206838 
L 746.168595 124634.206838 
L 746.168595 124634.206838 
L 737.970248 124634.206838 
L 737.970248 124634.206838 
L 729.771901 124634.206838 
L 729.771901 124634.206838 
L 721.573554 124634.206838 
L 721.573554 124634.206838 
L 713.375207 124634.206838 
L 713.375207 124634.206838 
L 705.17686 124634.206838 
L 705.17686 124634.206838 
L 696.978512 124634.206838 
L 696.978512 124634.206838 
L 688.780165 124634.206838 
L 688.780165 124634.206838 
L 680.581818 124634.206838 
L 680.581818 124634.206838 
L 672.383471 124634.206838 
L 672.383471 124634.206838 
L 664.185124 124634.206838 
L 664.185124 124634.206838 
L 655.986777 124634.206838 
L 655.986777 124634.206838 
L 647.78843 124634.206838 
L 647.78843 124634.206838 
L 639.590083 124634.206838 
L 639.590083 124634.206838 
L 631.391736 124634.206838 
L 631.391736 124634.206838 
L 623.193388 124634.206838 
L 623.193388 124634.206838 
L 614.995041 124634.206838 
L 614.995041 124634.206838 
L 606.796694 124634.206838 
L 606.796694 124634.206838 
L 598.598347 124634.206838 
L 598.598347 124634.206838 
L 590.4 124634.206838 
L 590.4 124634.206838 
L 582.201653 124634.206838 
L 582.201653 124634.206838 
L 574.003306 124634.206838 
L 574.003306 124634.206838 
L 565.804959 124634.206838 
L 565.804959 124634.206838 
L 557.606612 124634.206838 
L 557.606612 124634.206838 
L 549.408264 124634.206838 
L 549.408264 124634.206838 
L 541.209917 124634.206838 
L 541.209917 124634.206838 
L 533.01157 124634.206838 
L 533.01157 124634.206838 
L 524.813223 124634.206838 
L 524.813223 124634.206838 
L 516.614876 124634.206838 
L 516.614876 124634.206838 
L 508.416529 124634.206838 
L 508.416529 124634.206838 
L 500.218182 124634.206838 
L 500.218182 124634.206838 
L 492.019835 124634.206838 
L 492.019835 124634.206838 
L 483.821488 124634.206838 
L 483.821488 124634.206838 
L 475.62314 124634.206838 
L 475.62314 124634.206838 
L 467.424793 124634.206838 
L 467.424793 124634.206838 
L 459.226446 124634.206838 
L 459.226446 124634.206838 
L 451.028099 124634.206838 
L 451.028099 124634.206838 
L 442.829752 124634.206838 
L 442.829752 124634.206838 
L 434.631405 124634.206838 
L 434.631405 124634.206838 
L 426.433058 124634.206838 
L 426.433058 124634.206838 
L 418.234711 124634.206838 
L 418.234711 124634.206838 
L 410.036364 124634.206838 
L 410.036364 124634.206838 
L 401.838017 124634.206838 
L 401.838017 124634.206838 
L 393.639669 124634.206838 
L 393.639669 124634.206838 
L 385.441322 124634.206838 
L 385.441322 124634.206838 
L 377.242975 124634.206838 
L 377.242975 124634.206838 
L 369.044628 124634.206838 
L 369.044628 124634.206838 
L 360.846281 124634.206838 
L 360.846281 124634.206838 
L 352.647934 124634.206838 
L 352.647934 124634.206838 
L 344.449587 124634.206838 
L 344.449587 124634.206838 
L 336.25124 124634.206838 
L 336.25124 124634.206838 
L 328.052893 124634.206838 
L 328.052893 124634.206838 
L 319.854545 124634.206838 
L 319.854545 124634.206838 
L 311.656198 124634.206838 
L 311.656198 124634.206838 
L 303.457851 124634.206838 
L 303.457851 124634.206838 
L 295.259504 124634.206838 
L 295.259504 124634.206838 
L 287.061157 124634.206838 
L 287.061157 124634.206838 
L 278.86281 124634.206838 
L 278.86281 124634.206838 
L 270.664463 124634.206838 
L 270.664463 124634.206838 
L 262.466116 124634.206838 
L 262.466116 124634.206838 
L 254.267769 124634.206838 
L 254.267769 124634.206838 
L 246.069421 124634.206838 
L 246.069421 124634.206838 
L 237.871074 124634.206838 
L 237.871074 124634.206838 
L 229.672727 124634.206838 
L 229.672727 124634.206838 
L 221.47438 124634.206838 
L 221.47438 124634.206838 
L 213.276033 124634.206838 
L 213.276033 124634.206838 
L 205.077686 124634.206838 
L 205.077686 124634.206838 
L 196.879339 124634.206838 
L 196.879339 124634.206838 
L 188.680992 124634.206838 
L 188.680992 124634.206838 
L 184.581818 124634.206838 
L 184.581818 124634.206838 
L 184.581818 124634.206838 
z
" style="fill:#f0e68c;fill-opacity:0.3;stroke:#f0e68c;stroke-opacity:0.3;"/>
   </g>
   <g id="matplotlib.axis_1">
    <g id="xtick_1">
     <g id="line2d_1">
      <defs>
       <path d="M 0 0 
L 0 3.5 
" id="m8a77bd9b15" style="stroke:#000000;stroke-width:0.8;"/>
      </defs>
      <g>
       <use style="stroke:#000000;stroke-width:0.8;" x="172.201486" xlink:href="#m8a77bd9b15" y="567"/>
      </g>
     </g>
     <g id="text_1">
      <!-- 0 -->
      <g transform="translate(162.657736 596.795313)scale(0.3 -0.3)">
       <defs>
        <path d="M 2034 4250 
Q 1547 4250 1301 3770 
Q 1056 3291 1056 2328 
Q 1056 1369 1301 889 
Q 1547 409 2034 409 
Q 2525 409 2770 889 
Q 3016 1369 3016 2328 
Q 3016 3291 2770 3770 
Q 2525 4250 2034 4250 
z
M 2034 4750 
Q 2819 4750 3233 4129 
Q 3647 3509 3647 2328 
Q 3647 1150 3233 529 
Q 2819 -91 2034 -91 
Q 1250 -91 836 529 
Q 422 1150 422 2328 
Q 422 3509 836 4129 
Q 1250 4750 2034 4750 
z
" id="DejaVuSans-30" transform="scale(0.015625)"/>
       </defs>
       <use xlink:href="#DejaVuSans-30"/>
      </g>
     </g>
    </g>
    <g id="xtick_2">
     <g id="line2d_2">
      <g>
       <use style="stroke:#000000;stroke-width:0.8;" x="337.82466" xlink:href="#m8a77bd9b15" y="567"/>
      </g>
     </g>
     <g id="text_2">
      <!-- 20 -->
      <g transform="translate(318.73716 596.795313)scale(0.3 -0.3)">
       <defs>
        <path d="M 1228 531 
L 3431 531 
L 3431 0 
L 469 0 
L 469 531 
Q 828 903 1448 1529 
Q 2069 2156 2228 2338 
Q 2531 2678 2651 2914 
Q 2772 3150 2772 3378 
Q 2772 3750 2511 3984 
Q 2250 4219 1831 4219 
Q 1534 4219 1204 4116 
Q 875 4013 500 3803 
L 500 4441 
Q 881 4594 1212 4672 
Q 1544 4750 1819 4750 
Q 2544 4750 2975 4387 
Q 3406 4025 3406 3419 
Q 3406 3131 3298 2873 
Q 3191 2616 2906 2266 
Q 2828 2175 2409 1742 
Q 1991 1309 1228 531 
z
" id="DejaVuSans-32" transform="scale(0.015625)"/>
       </defs>
       <use xlink:href="#DejaVuSans-32"/>
       <use x="63.623047" xlink:href="#DejaVuSans-30"/>
      </g>
     </g>
    </g>
    <g id="xtick_3">
     <g id="line2d_3">
      <g>
       <use style="stroke:#000000;stroke-width:0.8;" x="503.447834" xlink:href="#m8a77bd9b15" y="567"/>
      </g>
     </g>
     <g id="text_3">
      <!-- 40 -->
      <g transform="translate(484.360334 596.795313)scale(0.3 -0.3)">
       <defs>
        <path d="M 2419 4116 
L 825 1625 
L 2419 1625 
L 2419 4116 
z
M 2253 4666 
L 3047 4666 
L 3047 1625 
L 3713 1625 
L 3713 1100 
L 3047 1100 
L 3047 0 
L 2419 0 
L 2419 1100 
L 313 1100 
L 313 1709 
L 2253 4666 
z
" id="DejaVuSans-34" transform="scale(0.015625)"/>
       </defs>
       <use xlink:href="#DejaVuSans-34"/>
       <use x="63.623047" xlink:href="#DejaVuSans-30"/>
      </g>
     </g>
    </g>
    <g id="xtick_4">
     <g id="line2d_4">
      <g>
       <use style="stroke:#000000;stroke-width:0.8;" x="669.071008" xlink:href="#m8a77bd9b15" y="567"/>
      </g>
     </g>
     <g id="text_4">
      <!-- 60 -->
      <g transform="translate(649.983508 596.795313)scale(0.3 -0.3)">
       <defs>
        <path d="M 2113 2584 
Q 1688 2584 1439 2293 
Q 1191 2003 1191 1497 
Q 1191 994 1439 701 
Q 1688 409 2113 409 
Q 2538 409 2786 701 
Q 3034 994 3034 1497 
Q 3034 2003 2786 2293 
Q 2538 2584 2113 2584 
z
M 3366 4563 
L 3366 3988 
Q 3128 4100 2886 4159 
Q 2644 4219 2406 4219 
Q 1781 4219 1451 3797 
Q 1122 3375 1075 2522 
Q 1259 2794 1537 2939 
Q 1816 3084 2150 3084 
Q 2853 3084 3261 2657 
Q 3669 2231 3669 1497 
Q 3669 778 3244 343 
Q 2819 -91 2113 -91 
Q 1303 -91 875 529 
Q 447 1150 447 2328 
Q 447 3434 972 4092 
Q 1497 4750 2381 4750 
Q 2619 4750 2861 4703 
Q 3103 4656 3366 4563 
z
" id="DejaVuSans-36" transform="scale(0.015625)"/>
       </defs>
       <use xlink:href="#DejaVuSans-36"/>
       <use x="63.623047" xlink:href="#DejaVuSans-30"/>
      </g>
     </g>
    </g>
    <g id="xtick_5">
     <g id="line2d_5">
      <g>
       <use style="stroke:#000000;stroke-width:0.8;" x="834.694181" xlink:href="#m8a77bd9b15" y="567"/>
      </g>
     </g>
     <g id="text_5">
      <!-- 80 -->
      <g transform="translate(815.606681 596.795313)scale(0.3 -0.3)">
       <defs>
        <path d="M 2034 2216 
Q 1584 2216 1326 1975 
Q 1069 1734 1069 1313 
Q 1069 891 1326 650 
Q 1584 409 2034 409 
Q 2484 409 2743 651 
Q 3003 894 3003 1313 
Q 3003 1734 2745 1975 
Q 2488 2216 2034 2216 
z
M 1403 2484 
Q 997 2584 770 2862 
Q 544 3141 544 3541 
Q 544 4100 942 4425 
Q 1341 4750 2034 4750 
Q 2731 4750 3128 4425 
Q 3525 4100 3525 3541 
Q 3525 3141 3298 2862 
Q 3072 2584 2669 2484 
Q 3125 2378 3379 2068 
Q 3634 1759 3634 1313 
Q 3634 634 3220 271 
Q 2806 -91 2034 -91 
Q 1263 -91 848 271 
Q 434 634 434 1313 
Q 434 1759 690 2068 
Q 947 2378 1403 2484 
z
M 1172 3481 
Q 1172 3119 1398 2916 
Q 1625 2713 2034 2713 
Q 2441 2713 2670 2916 
Q 2900 3119 2900 3481 
Q 2900 3844 2670 4047 
Q 2441 4250 2034 4250 
Q 1625 4250 1398 4047 
Q 1172 3844 1172 3481 
z
" id="DejaVuSans-38" transform="scale(0.015625)"/>
       </defs>
       <use xlink:href="#DejaVuSans-38"/>
       <use x="63.623047" xlink:href="#DejaVuSans-30"/>
      </g>
     </g>
    </g>
    <g id="xtick_6">
     <g id="line2d_6">
      <g>
       <use style="stroke:#000000;stroke-width:0.8;" x="1000.317355" xlink:href="#m8a77bd9b15" y="567"/>
      </g>
     </g>
     <g id="text_6">
      <!-- 100 -->
      <g transform="translate(971.686105 596.795313)scale(0.3 -0.3)">
       <defs>
        <path d="M 794 531 
L 1825 531 
L 1825 4091 
L 703 3866 
L 703 4441 
L 1819 4666 
L 2450 4666 
L 2450 531 
L 3481 531 
L 3481 0 
L 794 0 
L 794 531 
z
" id="DejaVuSans-31" transform="scale(0.015625)"/>
       </defs>
       <use xlink:href="#DejaVuSans-31"/>
       <use x="63.623047" xlink:href="#DejaVuSans-30"/>
       <use x="127.246094" xlink:href="#DejaVuSans-30"/>
      </g>
     </g>
    </g>
    <g id="text_7">
     <!-- Observed Energy (GeV) -->
     <g transform="translate(413.357813 629.829687)scale(0.3 -0.3)">
      <defs>
       <path d="M 2522 4238 
Q 1834 4238 1429 3725 
Q 1025 3213 1025 2328 
Q 1025 1447 1429 934 
Q 1834 422 2522 422 
Q 3209 422 3611 934 
Q 4013 1447 4013 2328 
Q 4013 3213 3611 3725 
Q 3209 4238 2522 4238 
z
M 2522 4750 
Q 3503 4750 4090 4092 
Q 4678 3434 4678 2328 
Q 4678 1225 4090 567 
Q 3503 -91 2522 -91 
Q 1538 -91 948 565 
Q 359 1222 359 2328 
Q 359 3434 948 4092 
Q 1538 4750 2522 4750 
z
" id="DejaVuSans-4f" transform="scale(0.015625)"/>
       <path d="M 3116 1747 
Q 3116 2381 2855 2742 
Q 2594 3103 2138 3103 
Q 1681 3103 1420 2742 
Q 1159 2381 1159 1747 
Q 1159 1113 1420 752 
Q 1681 391 2138 391 
Q 2594 391 2855 752 
Q 3116 1113 3116 1747 
z
M 1159 2969 
Q 1341 3281 1617 3432 
Q 1894 3584 2278 3584 
Q 2916 3584 3314 3078 
Q 3713 2572 3713 1747 
Q 3713 922 3314 415 
Q 2916 -91 2278 -91 
Q 1894 -91 1617 61 
Q 1341 213 1159 525 
L 1159 0 
L 581 0 
L 581 4863 
L 1159 4863 
L 1159 2969 
z
" id="DejaVuSans-62" transform="scale(0.015625)"/>
       <path d="M 2834 3397 
L 2834 2853 
Q 2591 2978 2328 3040 
Q 2066 3103 1784 3103 
Q 1356 3103 1142 2972 
Q 928 2841 928 2578 
Q 928 2378 1081 2264 
Q 1234 2150 1697 2047 
L 1894 2003 
Q 2506 1872 2764 1633 
Q 3022 1394 3022 966 
Q 3022 478 2636 193 
Q 2250 -91 1575 -91 
Q 1294 -91 989 -36 
Q 684 19 347 128 
L 347 722 
Q 666 556 975 473 
Q 1284 391 1588 391 
Q 1994 391 2212 530 
Q 2431 669 2431 922 
Q 2431 1156 2273 1281 
Q 2116 1406 1581 1522 
L 1381 1569 
Q 847 1681 609 1914 
Q 372 2147 372 2553 
Q 372 3047 722 3315 
Q 1072 3584 1716 3584 
Q 2034 3584 2315 3537 
Q 2597 3491 2834 3397 
z
" id="DejaVuSans-73" transform="scale(0.015625)"/>
       <path d="M 3597 1894 
L 3597 1613 
L 953 1613 
Q 991 1019 1311 708 
Q 1631 397 2203 397 
Q 2534 397 2845 478 
Q 3156 559 3463 722 
L 3463 178 
Q 3153 47 2828 -22 
Q 2503 -91 2169 -91 
Q 1331 -91 842 396 
Q 353 884 353 1716 
Q 353 2575 817 3079 
Q 1281 3584 2069 3584 
Q 2775 3584 3186 3129 
Q 3597 2675 3597 1894 
z
M 3022 2063 
Q 3016 2534 2758 2815 
Q 2500 3097 2075 3097 
Q 1594 3097 1305 2825 
Q 1016 2553 972 2059 
L 3022 2063 
z
" id="DejaVuSans-65" transform="scale(0.015625)"/>
       <path d="M 2631 2963 
Q 2534 3019 2420 3045 
Q 2306 3072 2169 3072 
Q 1681 3072 1420 2755 
Q 1159 2438 1159 1844 
L 1159 0 
L 581 0 
L 581 3500 
L 1159 3500 
L 1159 2956 
Q 1341 3275 1631 3429 
Q 1922 3584 2338 3584 
Q 2397 3584 2469 3576 
Q 2541 3569 2628 3553 
L 2631 2963 
z
" id="DejaVuSans-72" transform="scale(0.015625)"/>
       <path d="M 191 3500 
L 800 3500 
L 1894 563 
L 2988 3500 
L 3597 3500 
L 2284 0 
L 1503 0 
L 191 3500 
z
" id="DejaVuSans-76" transform="scale(0.015625)"/>
       <path d="M 2906 2969 
L 2906 4863 
L 3481 4863 
L 3481 0 
L 2906 0 
L 2906 525 
Q 2725 213 2448 61 
Q 2172 -91 1784 -91 
Q 1150 -91 751 415 
Q 353 922 353 1747 
Q 353 2572 751 3078 
Q 1150 3584 1784 3584 
Q 2172 3584 2448 3432 
Q 2725 3281 2906 2969 
z
M 947 1747 
Q 947 1113 1208 752 
Q 1469 391 1925 391 
Q 2381 391 2643 752 
Q 2906 1113 2906 1747 
Q 2906 2381 2643 2742 
Q 2381 3103 1925 3103 
Q 1469 3103 1208 2742 
Q 947 2381 947 1747 
z
" id="DejaVuSans-64" transform="scale(0.015625)"/>
       <path id="DejaVuSans-20" transform="scale(0.015625)"/>
       <path d="M 628 4666 
L 3578 4666 
L 3578 4134 
L 1259 4134 
L 1259 2753 
L 3481 2753 
L 3481 2222 
L 1259 2222 
L 1259 531 
L 3634 531 
L 3634 0 
L 628 0 
L 628 4666 
z
" id="DejaVuSans-45" transform="scale(0.015625)"/>
       <path d="M 3513 2113 
L 3513 0 
L 2938 0 
L 2938 2094 
Q 2938 2591 2744 2837 
Q 2550 3084 2163 3084 
Q 1697 3084 1428 2787 
Q 1159 2491 1159 1978 
L 1159 0 
L 581 0 
L 581 3500 
L 1159 3500 
L 1159 2956 
Q 1366 3272 1645 3428 
Q 1925 3584 2291 3584 
Q 2894 3584 3203 3211 
Q 3513 2838 3513 2113 
z
" id="DejaVuSans-6e" transform="scale(0.015625)"/>
       <path d="M 2906 1791 
Q 2906 2416 2648 2759 
Q 2391 3103 1925 3103 
Q 1463 3103 1205 2759 
Q 947 2416 947 1791 
Q 947 1169 1205 825 
Q 1463 481 1925 481 
Q 2391 481 2648 825 
Q 2906 1169 2906 1791 
z
M 3481 434 
Q 3481 -459 3084 -895 
Q 2688 -1331 1869 -1331 
Q 1566 -1331 1297 -1286 
Q 1028 -1241 775 -1147 
L 775 -588 
Q 1028 -725 1275 -790 
Q 1522 -856 1778 -856 
Q 2344 -856 2625 -561 
Q 2906 -266 2906 331 
L 2906 616 
Q 2728 306 2450 153 
Q 2172 0 1784 0 
Q 1141 0 747 490 
Q 353 981 353 1791 
Q 353 2603 747 3093 
Q 1141 3584 1784 3584 
Q 2172 3584 2450 3431 
Q 2728 3278 2906 2969 
L 2906 3500 
L 3481 3500 
L 3481 434 
z
" id="DejaVuSans-67" transform="scale(0.015625)"/>
       <path d="M 2059 -325 
Q 1816 -950 1584 -1140 
Q 1353 -1331 966 -1331 
L 506 -1331 
L 506 -850 
L 844 -850 
Q 1081 -850 1212 -737 
Q 1344 -625 1503 -206 
L 1606 56 
L 191 3500 
L 800 3500 
L 1894 763 
L 2988 3500 
L 3597 3500 
L 2059 -325 
z
" id="DejaVuSans-79" transform="scale(0.015625)"/>
       <path d="M 1984 4856 
Q 1566 4138 1362 3434 
Q 1159 2731 1159 2009 
Q 1159 1288 1364 580 
Q 1569 -128 1984 -844 
L 1484 -844 
Q 1016 -109 783 600 
Q 550 1309 550 2009 
Q 550 2706 781 3412 
Q 1013 4119 1484 4856 
L 1984 4856 
z
" id="DejaVuSans-28" transform="scale(0.015625)"/>
       <path d="M 3809 666 
L 3809 1919 
L 2778 1919 
L 2778 2438 
L 4434 2438 
L 4434 434 
Q 4069 175 3628 42 
Q 3188 -91 2688 -91 
Q 1594 -91 976 548 
Q 359 1188 359 2328 
Q 359 3472 976 4111 
Q 1594 4750 2688 4750 
Q 3144 4750 3555 4637 
Q 3966 4525 4313 4306 
L 4313 3634 
Q 3963 3931 3569 4081 
Q 3175 4231 2741 4231 
Q 1884 4231 1454 3753 
Q 1025 3275 1025 2328 
Q 1025 1384 1454 906 
Q 1884 428 2741 428 
Q 3075 428 3337 486 
Q 3600 544 3809 666 
z
" id="DejaVuSans-47" transform="scale(0.015625)"/>
       <path d="M 1831 0 
L 50 4666 
L 709 4666 
L 2188 738 
L 3669 4666 
L 4325 4666 
L 2547 0 
L 1831 0 
z
" id="DejaVuSans-56" transform="scale(0.015625)"/>
       <path d="M 513 4856 
L 1013 4856 
Q 1481 4119 1714 3412 
Q 1947 2706 1947 2009 
Q 1947 1309 1714 600 
Q 1481 -109 1013 -844 
L 513 -844 
Q 928 -128 1133 580 
Q 1338 1288 1338 2009 
Q 1338 2731 1133 3434 
Q 928 4138 513 4856 
z
" id="DejaVuSans-29" transform="scale(0.015625)"/>
      </defs>
      <use xlink:href="#DejaVuSans-4f"/>
      <use x="78.710938" xlink:href="#DejaVuSans-62"/>
      <use x="142.1875" xlink:href="#DejaVuSans-73"/>
      <use x="194.287109" xlink:href="#DejaVuSans-65"/>
      <use x="255.810547" xlink:href="#DejaVuSans-72"/>
      <use x="296.923828" xlink:href="#DejaVuSans-76"/>
      <use x="356.103516" xlink:href="#DejaVuSans-65"/>
      <use x="417.626953" xlink:href="#DejaVuSans-64"/>
      <use x="481.103516" xlink:href="#DejaVuSans-20"/>
      <use x="512.890625" xlink:href="#DejaVuSans-45"/>
      <use x="576.074219" xlink:href="#DejaVuSans-6e"/>
      <use x="639.453125" xlink:href="#DejaVuSans-65"/>
      <use x="700.976562" xlink:href="#DejaVuSans-72"/>
      <use x="740.339844" xlink:href="#DejaVuSans-67"/>
      <use x="803.816406" xlink:href="#DejaVuSans-79"/>
      <use x="862.996094" xlink:href="#DejaVuSans-20"/>
      <use x="894.783203" xlink:href="#DejaVuSans-28"/>
      <use x="933.796875" xlink:href="#DejaVuSans-47"/>
      <use x="1011.287109" xlink:href="#DejaVuSans-65"/>
      <use x="1072.810547" xlink:href="#DejaVuSans-56"/>
      <use x="1141.21875" xlink:href="#DejaVuSans-29"/>
     </g>
    </g>
   </g>
   <g id="matplotlib.axis_2">
    <g id="ytick_1">
     <g id="line2d_7">
      <defs>
       <path d="M 0 0 
L -3.5 0 
" id="mb6ee75ae36" style="stroke:#000000;stroke-width:0.8;"/>
      </defs>
      <g>
       <use style="stroke:#000000;stroke-width:0.8;" x="144" xlink:href="#mb6ee75ae36" y="544.761818"/>
      </g>
     </g>
     <g id="text_8">
      <!-- $\mathdefault{10^{0}}$ -->
      <g transform="translate(84.2 556.159474)scale(0.3 -0.3)">
       <use transform="translate(0 0.765625)" xlink:href="#DejaVuSans-31"/>
       <use transform="translate(63.623047 0.765625)" xlink:href="#DejaVuSans-30"/>
       <use transform="translate(128.203125 39.046875)scale(0.7)" xlink:href="#DejaVuSans-30"/>
      </g>
     </g>
    </g>
    <g id="ytick_2">
     <g id="line2d_8">
      <g>
       <use style="stroke:#000000;stroke-width:0.8;" x="144" xlink:href="#mb6ee75ae36" y="420.672373"/>
      </g>
     </g>
     <g id="text_9">
      <!-- $\mathdefault{10^{1}}$ -->
      <g transform="translate(84.2 432.070029)scale(0.3 -0.3)">
       <use transform="translate(0 0.684375)" xlink:href="#DejaVuSans-31"/>
       <use transform="translate(63.623047 0.684375)" xlink:href="#DejaVuSans-30"/>
       <use transform="translate(128.203125 38.965625)scale(0.7)" xlink:href="#DejaVuSans-31"/>
      </g>
     </g>
    </g>
    <g id="ytick_3">
     <g id="line2d_9">
      <g>
       <use style="stroke:#000000;stroke-width:0.8;" x="144" xlink:href="#mb6ee75ae36" y="296.582928"/>
      </g>
     </g>
     <g id="text_10">
      <!-- $\mathdefault{10^{2}}$ -->
      <g transform="translate(84.2 307.980584)scale(0.3 -0.3)">
       <use transform="translate(0 0.765625)" xlink:href="#DejaVuSans-31"/>
       <use transform="translate(63.623047 0.765625)" xlink:href="#DejaVuSans-30"/>
       <use transform="translate(128.203125 39.046875)scale(0.7)" xlink:href="#DejaVuSans-32"/>
      </g>
     </g>
    </g>
    <g id="ytick_4">
     <g id="line2d_10">
      <g>
       <use style="stroke:#000000;stroke-width:0.8;" x="144" xlink:href="#mb6ee75ae36" y="172.493483"/>
      </g>
     </g>
     <g id="text_11">
      <!-- $\mathdefault{10^{3}}$ -->
      <g transform="translate(84.2 183.891139)scale(0.3 -0.3)">
       <defs>
        <path d="M 2597 2516 
Q 3050 2419 3304 2112 
Q 3559 1806 3559 1356 
Q 3559 666 3084 287 
Q 2609 -91 1734 -91 
Q 1441 -91 1130 -33 
Q 819 25 488 141 
L 488 750 
Q 750 597 1062 519 
Q 1375 441 1716 441 
Q 2309 441 2620 675 
Q 2931 909 2931 1356 
Q 2931 1769 2642 2001 
Q 2353 2234 1838 2234 
L 1294 2234 
L 1294 2753 
L 1863 2753 
Q 2328 2753 2575 2939 
Q 2822 3125 2822 3475 
Q 2822 3834 2567 4026 
Q 2313 4219 1838 4219 
Q 1578 4219 1281 4162 
Q 984 4106 628 3988 
L 628 4550 
Q 988 4650 1302 4700 
Q 1616 4750 1894 4750 
Q 2613 4750 3031 4423 
Q 3450 4097 3450 3541 
Q 3450 3153 3228 2886 
Q 3006 2619 2597 2516 
z
" id="DejaVuSans-33" transform="scale(0.015625)"/>
       </defs>
       <use transform="translate(0 0.765625)" xlink:href="#DejaVuSans-31"/>
       <use transform="translate(63.623047 0.765625)" xlink:href="#DejaVuSans-30"/>
       <use transform="translate(128.203125 39.046875)scale(0.7)" xlink:href="#DejaVuSans-33"/>
      </g>
     </g>
    </g>
    <g id="ytick_5">
     <g id="line2d_11">
      <defs>
       <path d="M 0 0 
L -2 0 
" id="m5ead1258e4" style="stroke:#000000;stroke-width:0.6;"/>
      </defs>
      <g>
       <use style="stroke:#000000;stroke-width:0.6;" x="144" xlink:href="#m5ead1258e4" y="563.983516"/>
      </g>
     </g>
    </g>
    <g id="ytick_6">
     <g id="line2d_12">
      <g>
       <use style="stroke:#000000;stroke-width:0.6;" x="144" xlink:href="#m5ead1258e4" y="556.787328"/>
      </g>
     </g>
    </g>
    <g id="ytick_7">
     <g id="line2d_13">
      <g>
       <use style="stroke:#000000;stroke-width:0.6;" x="144" xlink:href="#m5ead1258e4" y="550.43984"/>
      </g>
     </g>
    </g>
    <g id="ytick_8">
     <g id="line2d_14">
      <g>
       <use style="stroke:#000000;stroke-width:0.6;" x="144" xlink:href="#m5ead1258e4" y="507.407173"/>
      </g>
     </g>
    </g>
    <g id="ytick_9">
     <g id="line2d_15">
      <g>
       <use style="stroke:#000000;stroke-width:0.6;" x="144" xlink:href="#m5ead1258e4" y="485.556106"/>
      </g>
     </g>
    </g>
    <g id="ytick_10">
     <g id="line2d_16">
      <g>
       <use style="stroke:#000000;stroke-width:0.6;" x="144" xlink:href="#m5ead1258e4" y="470.052528"/>
      </g>
     </g>
    </g>
    <g id="ytick_11">
     <g id="line2d_17">
      <g>
       <use style="stroke:#000000;stroke-width:0.6;" x="144" xlink:href="#m5ead1258e4" y="458.027018"/>
      </g>
     </g>
    </g>
    <g id="ytick_12">
     <g id="line2d_18">
      <g>
       <use style="stroke:#000000;stroke-width:0.6;" x="144" xlink:href="#m5ead1258e4" y="448.201461"/>
      </g>
     </g>
    </g>
    <g id="ytick_13">
     <g id="line2d_19">
      <g>
       <use style="stroke:#000000;stroke-width:0.6;" x="144" xlink:href="#m5ead1258e4" y="439.894071"/>
      </g>
     </g>
    </g>
    <g id="ytick_14">
     <g id="line2d_20">
      <g>
       <use style="stroke:#000000;stroke-width:0.6;" x="144" xlink:href="#m5ead1258e4" y="432.697883"/>
      </g>
     </g>
    </g>
    <g id="ytick_15">
     <g id="line2d_21">
      <g>
       <use style="stroke:#000000;stroke-width:0.6;" x="144" xlink:href="#m5ead1258e4" y="426.350395"/>
      </g>
     </g>
    </g>
    <g id="ytick_16">
     <g id="line2d_22">
      <g>
       <use style="stroke:#000000;stroke-width:0.6;" x="144" xlink:href="#m5ead1258e4" y="383.317728"/>
      </g>
     </g>
    </g>
    <g id="ytick_17">
     <g id="line2d_23">
      <g>
       <use style="stroke:#000000;stroke-width:0.6;" x="144" xlink:href="#m5ead1258e4" y="361.466661"/>
      </g>
     </g>
    </g>
    <g id="ytick_18">
     <g id="line2d_24">
      <g>
       <use style="stroke:#000000;stroke-width:0.6;" x="144" xlink:href="#m5ead1258e4" y="345.963083"/>
      </g>
     </g>
    </g>
    <g id="ytick_19">
     <g id="line2d_25">
      <g>
       <use style="stroke:#000000;stroke-width:0.6;" x="144" xlink:href="#m5ead1258e4" y="333.937573"/>
      </g>
     </g>
    </g>
    <g id="ytick_20">
     <g id="line2d_26">
      <g>
       <use style="stroke:#000000;stroke-width:0.6;" x="144" xlink:href="#m5ead1258e4" y="324.112016"/>
      </g>
     </g>
    </g>
    <g id="ytick_21">
     <g id="line2d_27">
      <g>
       <use style="stroke:#000000;stroke-width:0.6;" x="144" xlink:href="#m5ead1258e4" y="315.804626"/>
      </g>
     </g>
    </g>
    <g id="ytick_22">
     <g id="line2d_28">
      <g>
       <use style="stroke:#000000;stroke-width:0.6;" x="144" xlink:href="#m5ead1258e4" y="308.608438"/>
      </g>
     </g>
    </g>
    <g id="ytick_23">
     <g id="line2d_29">
      <g>
       <use style="stroke:#000000;stroke-width:0.6;" x="144" xlink:href="#m5ead1258e4" y="302.26095"/>
      </g>
     </g>
    </g>
    <g id="ytick_24">
     <g id="line2d_30">
      <g>
       <use style="stroke:#000000;stroke-width:0.6;" x="144" xlink:href="#m5ead1258e4" y="259.228283"/>
      </g>
     </g>
    </g>
    <g id="ytick_25">
     <g id="line2d_31">
      <g>
       <use style="stroke:#000000;stroke-width:0.6;" x="144" xlink:href="#m5ead1258e4" y="237.377216"/>
      </g>
     </g>
    </g>
    <g id="ytick_26">
     <g id="line2d_32">
      <g>
       <use style="stroke:#000000;stroke-width:0.6;" x="144" xlink:href="#m5ead1258e4" y="221.873638"/>
      </g>
     </g>
    </g>
    <g id="ytick_27">
     <g id="line2d_33">
      <g>
       <use style="stroke:#000000;stroke-width:0.6;" x="144" xlink:href="#m5ead1258e4" y="209.848128"/>
      </g>
     </g>
    </g>
    <g id="ytick_28">
     <g id="line2d_34">
      <g>
       <use style="stroke:#000000;stroke-width:0.6;" x="144" xlink:href="#m5ead1258e4" y="200.022571"/>
      </g>
     </g>
    </g>
    <g id="ytick_29">
     <g id="line2d_35">
      <g>
       <use style="stroke:#000000;stroke-width:0.6;" x="144" xlink:href="#m5ead1258e4" y="191.715181"/>
      </g>
     </g>
    </g>
    <g id="ytick_30">
     <g id="line2d_36">
      <g>
       <use style="stroke:#000000;stroke-width:0.6;" x="144" xlink:href="#m5ead1258e4" y="184.518993"/>
      </g>
     </g>
    </g>
    <g id="ytick_31">
     <g id="line2d_37">
      <g>
       <use style="stroke:#000000;stroke-width:0.6;" x="144" xlink:href="#m5ead1258e4" y="178.171505"/>
      </g>
     </g>
    </g>
    <g id="ytick_32">
     <g id="line2d_38">
      <g>
       <use style="stroke:#000000;stroke-width:0.6;" x="144" xlink:href="#m5ead1258e4" y="135.138838"/>
      </g>
     </g>
    </g>
    <g id="ytick_33">
     <g id="line2d_39">
      <g>
       <use style="stroke:#000000;stroke-width:0.6;" x="144" xlink:href="#m5ead1258e4" y="113.287771"/>
      </g>
     </g>
    </g>
    <g id="ytick_34">
     <g id="line2d_40">
      <g>
       <use style="stroke:#000000;stroke-width:0.6;" x="144" xlink:href="#m5ead1258e4" y="97.784193"/>
      </g>
     </g>
    </g>
    <g id="ytick_35">
     <g id="line2d_41">
      <g>
       <use style="stroke:#000000;stroke-width:0.6;" x="144" xlink:href="#m5ead1258e4" y="85.758683"/>
      </g>
     </g>
    </g>
   </g>
   <g id="line2d_42">
    <path clip-path="url(#pad25e10319)" d="M 184.581818 286.757371 
L 184.581818 292.435393 
L 196.879339 292.435393 
L 196.879339 297.124554 
L 205.077686 297.124554 
L 205.077686 293.95356 
L 213.276033 293.95356 
L 213.276033 296.046691 
L 221.47438 296.046691 
L 221.47438 285.426653 
L 229.672727 285.426653 
L 229.672727 296.582928 
L 237.871074 296.582928 
L 237.871074 294.989964 
L 246.069421 294.989964 
L 246.069421 293.442737 
L 254.267769 293.442737 
L 254.267769 285.426653 
L 262.466116 285.426653 
L 262.466116 298.782881 
L 270.664463 298.782881 
L 270.664463 290.958825 
L 278.86281 290.958825 
L 278.86281 296.046691 
L 287.061157 296.046691 
L 287.061157 304.087951 
L 295.259504 304.087951 
L 295.259504 294.469271 
L 311.656198 294.469271 
L 311.656198 299.347194 
L 319.854545 299.347194 
L 319.854545 302.863094 
L 328.052893 302.863094 
L 328.052893 312.086507 
L 336.25124 312.086507 
L 336.25124 298.224416 
L 352.647934 298.224416 
L 352.647934 297.67168 
L 360.846281 297.67168 
L 360.846281 289.050967 
L 369.044628 289.050967 
L 369.044628 304.710979 
L 377.242975 304.710979 
L 377.242975 298.782881 
L 385.441322 298.782881 
L 385.441322 296.046691 
L 393.639669 296.046691 
L 393.639669 296.582928 
L 401.838017 296.582928 
L 401.838017 309.972849 
L 410.036364 309.972849 
L 410.036364 296.582928 
L 418.234711 296.582928 
L 418.234711 300.493862 
L 426.433058 300.493862 
L 426.433058 305.341294 
L 434.631405 305.341294 
L 434.631405 291.446533 
L 442.829752 291.446533 
L 442.829752 290.475491 
L 451.028099 290.475491 
L 451.028099 300.493862 
L 459.226446 300.493862 
L 459.226446 299.917478 
L 467.424793 299.917478 
L 467.424793 302.26095 
L 475.62314 302.26095 
L 475.62314 288.584372 
L 483.821488 288.584372 
L 483.821488 289.521637 
L 492.019835 289.521637 
L 492.019835 293.442737 
L 500.218182 293.442737 
L 500.218182 294.989964 
L 508.416529 294.989964 
L 508.416529 296.046691 
L 516.614876 296.046691 
L 516.614876 291.938695 
L 524.813223 291.938695 
L 524.813223 297.124554 
L 533.01157 297.124554 
L 533.01157 294.989964 
L 541.209917 294.989964 
L 541.209917 299.347194 
L 549.408264 299.347194 
L 549.408264 297.67168 
L 557.606612 297.67168 
L 557.606612 294.989964 
L 565.804959 294.989964 
L 565.804959 303.472043 
L 574.003306 303.472043 
L 574.003306 289.050967 
L 582.201653 289.050967 
L 582.201653 309.286326 
L 590.4 309.286326 
L 590.4 306.624483 
L 598.598347 306.624483 
L 598.598347 301.665459 
L 606.796694 301.665459 
L 606.796694 294.469271 
L 614.995041 294.469271 
L 614.995041 299.917478 
L 631.391736 299.917478 
L 631.391736 299.347194 
L 639.590083 299.347194 
L 639.590083 297.67168 
L 647.78843 297.67168 
L 647.78843 296.046691 
L 655.986777 296.046691 
L 655.986777 294.989964 
L 664.185124 294.989964 
L 664.185124 293.95356 
L 672.383471 293.95356 
L 672.383471 305.341294 
L 680.581818 305.341294 
L 680.581818 307.938971 
L 688.780165 307.938971 
L 688.780165 303.472043 
L 705.17686 303.472043 
L 705.17686 306.624483 
L 713.375207 306.624483 
L 713.375207 301.665459 
L 721.573554 301.665459 
L 721.573554 308.608438 
L 729.771901 308.608438 
L 729.771901 299.347194 
L 737.970248 299.347194 
L 737.970248 306.624483 
L 746.168595 306.624483 
L 746.168595 297.67168 
L 754.366942 297.67168 
L 754.366942 293.95356 
L 762.565289 293.95356 
L 762.565289 292.936711 
L 770.763636 292.936711 
L 770.763636 296.046691 
L 778.961983 296.046691 
L 778.961983 301.076477 
L 787.160331 301.076477 
L 787.160331 297.67168 
L 795.358678 297.67168 
L 795.358678 289.996454 
L 803.557025 289.996454 
L 803.557025 304.087951 
L 811.755372 304.087951 
L 811.755372 296.582928 
L 819.953719 296.582928 
L 819.953719 299.917478 
L 828.152066 299.917478 
L 828.152066 295.515738 
L 836.350413 295.515738 
L 836.350413 305.341294 
L 844.54876 305.341294 
L 844.54876 302.26095 
L 852.747107 302.26095 
L 852.747107 289.996454 
L 860.945455 289.996454 
L 860.945455 295.515738 
L 869.143802 295.515738 
L 869.143802 299.347194 
L 877.342149 299.347194 
L 877.342149 302.26095 
L 885.540496 302.26095 
L 885.540496 297.67168 
L 893.738843 297.67168 
L 893.738843 303.472043 
L 901.93719 303.472043 
L 901.93719 299.917478 
L 910.135537 299.917478 
L 910.135537 291.938695 
L 918.333884 291.938695 
L 918.333884 292.936711 
L 926.532231 292.936711 
L 926.532231 289.521637 
L 934.730579 289.521637 
L 934.730579 302.863094 
L 942.928926 302.863094 
L 942.928926 293.95356 
L 951.127273 293.95356 
L 951.127273 294.469271 
L 959.32562 294.469271 
L 959.32562 290.475491 
L 975.722314 290.475491 
L 975.722314 297.67168 
L 983.920661 297.67168 
L 983.920661 293.442737 
L 992.119008 293.442737 
L 992.119008 289.521637 
L 996.218182 289.521637 
L 996.218182 248.51194 
L 996.218182 248.51194 
" style="fill:none;stroke:#800080;stroke-linecap:square;stroke-width:3;"/>
   </g>
   <g id="line2d_43">
    <path clip-path="url(#pad25e10319)" d="M 184.581818 284.128003 
L 184.581818 284.557418 
L 188.680992 284.557418 
L 188.680992 304.710979 
L 196.879339 304.710979 
L 196.879339 293.442737 
L 205.077686 293.442737 
L 205.077686 289.521637 
L 213.276033 289.521637 
L 213.276033 292.936711 
L 221.47438 292.936711 
L 221.47438 284.990283 
L 229.672727 284.990283 
L 229.672727 297.67168 
L 237.871074 297.67168 
L 237.871074 307.277719 
L 246.069421 307.277719 
L 246.069421 296.582928 
L 254.267769 296.582928 
L 254.267769 288.121782 
L 262.466116 288.121782 
L 262.466116 295.515738 
L 270.664463 295.515738 
L 270.664463 290.475491 
L 278.86281 290.475491 
L 278.86281 291.446533 
L 287.061157 291.446533 
L 287.061157 314.286459 
L 295.259504 314.286459 
L 295.259504 290.475491 
L 303.457851 290.475491 
L 303.457851 301.665459 
L 311.656198 301.665459 
L 311.656198 295.515738 
L 319.854545 295.515738 
L 319.854545 300.493862 
L 328.052893 300.493862 
L 328.052893 299.917478 
L 336.25124 299.917478 
L 336.25124 293.442737 
L 344.449587 293.442737 
L 344.449587 301.665459 
L 352.647934 301.665459 
L 352.647934 298.224416 
L 360.846281 298.224416 
L 360.846281 295.515738 
L 369.044628 295.515738 
L 369.044628 298.224416 
L 377.242975 298.224416 
L 377.242975 302.26095 
L 385.441322 302.26095 
L 385.441322 289.050967 
L 393.639669 289.050967 
L 393.639669 296.046691 
L 401.838017 296.046691 
L 401.838017 297.67168 
L 410.036364 297.67168 
L 410.036364 300.493862 
L 418.234711 300.493862 
L 418.234711 294.989964 
L 426.433058 294.989964 
L 426.433058 301.665459 
L 434.631405 301.665459 
L 434.631405 293.95356 
L 442.829752 293.95356 
L 442.829752 285.866585 
L 451.028099 285.866585 
L 451.028099 295.515738 
L 459.226446 295.515738 
L 459.226446 299.917478 
L 467.424793 299.917478 
L 467.424793 287.66313 
L 475.62314 287.66313 
L 475.62314 288.584372 
L 483.821488 288.584372 
L 483.821488 291.938695 
L 492.019835 291.938695 
L 492.019835 287.208348 
L 500.218182 287.208348 
L 500.218182 297.67168 
L 508.416529 297.67168 
L 508.416529 290.958825 
L 516.614876 290.958825 
L 516.614876 289.521637 
L 524.813223 289.521637 
L 524.813223 303.472043 
L 533.01157 303.472043 
L 533.01157 289.996454 
L 541.209917 289.996454 
L 541.209917 294.469271 
L 549.408264 294.469271 
L 549.408264 298.782881 
L 557.606612 298.782881 
L 557.606612 288.121782 
L 565.804959 288.121782 
L 565.804959 302.26095 
L 574.003306 302.26095 
L 574.003306 299.917478 
L 590.4 299.917478 
L 590.4 297.67168 
L 598.598347 297.67168 
L 598.598347 304.087951 
L 606.796694 304.087951 
L 606.796694 292.936711 
L 614.995041 292.936711 
L 614.995041 295.515738 
L 623.193388 295.515738 
L 623.193388 293.95356 
L 631.391736 293.95356 
L 631.391736 300.493862 
L 639.590083 300.493862 
L 639.590083 286.757371 
L 647.78843 286.757371 
L 647.78843 298.224416 
L 655.986777 298.224416 
L 655.986777 297.67168 
L 664.185124 297.67168 
L 664.185124 308.608438 
L 672.383471 308.608438 
L 672.383471 298.224416 
L 680.581818 298.224416 
L 680.581818 305.341294 
L 688.780165 305.341294 
L 688.780165 301.665459 
L 696.978512 301.665459 
L 696.978512 302.26095 
L 705.17686 302.26095 
L 705.17686 301.076477 
L 713.375207 301.076477 
L 713.375207 295.515738 
L 721.573554 295.515738 
L 721.573554 297.124554 
L 737.970248 297.124554 
L 737.970248 296.046691 
L 746.168595 296.046691 
L 746.168595 290.475491 
L 754.366942 290.475491 
L 754.366942 302.863094 
L 762.565289 302.863094 
L 762.565289 289.050967 
L 770.763636 289.050967 
L 770.763636 286.757371 
L 778.961983 286.757371 
L 778.961983 297.67168 
L 795.358678 297.67168 
L 795.358678 296.046691 
L 803.557025 296.046691 
L 803.557025 292.936711 
L 811.755372 292.936711 
L 811.755372 304.087951 
L 819.953719 304.087951 
L 819.953719 300.493862 
L 828.152066 300.493862 
L 828.152066 286.310137 
L 836.350413 286.310137 
L 836.350413 294.989964 
L 844.54876 294.989964 
L 844.54876 295.515738 
L 852.747107 295.515738 
L 852.747107 293.442737 
L 860.945455 293.442737 
L 860.945455 307.277719 
L 869.143802 307.277719 
L 869.143802 295.515738 
L 877.342149 295.515738 
L 877.342149 297.67168 
L 885.540496 297.67168 
L 885.540496 299.347194 
L 893.738843 299.347194 
L 893.738843 289.521637 
L 901.93719 289.521637 
L 901.93719 296.582928 
L 910.135537 296.582928 
L 910.135537 290.958825 
L 918.333884 290.958825 
L 918.333884 292.936711 
L 926.532231 292.936711 
L 926.532231 296.046691 
L 934.730579 296.046691 
L 934.730579 287.66313 
L 942.928926 287.66313 
L 942.928926 288.584372 
L 951.127273 288.584372 
L 951.127273 297.124554 
L 959.32562 297.124554 
L 959.32562 295.515738 
L 967.523967 295.515738 
L 967.523967 294.469271 
L 975.722314 294.469271 
L 975.722314 293.442737 
L 983.920661 293.442737 
L 983.920661 302.26095 
L 992.119008 302.26095 
L 992.119008 347.327494 
L 996.218182 347.327494 
L 996.218182 649 
L 996.218182 649 
" style="fill:none;stroke:#0000ff;stroke-linecap:square;stroke-width:3;"/>
   </g>
   <g id="line2d_44">
    <path clip-path="url(#pad25e10319)" d="M 184.581818 99.998182 
L 184.581818 228.153804 
L 188.680992 228.153804 
L 188.680992 232.568429 
L 196.879339 232.568429 
L 196.879339 238.833828 
L 205.077686 238.833828 
L 205.077686 239.95272 
L 213.276033 239.95272 
L 213.276033 247.418771 
L 221.47438 247.418771 
L 221.47438 250.308485 
L 229.672727 250.308485 
L 229.672727 252.403877 
L 237.871074 252.403877 
L 237.871074 255.080748 
L 246.069421 255.080748 
L 246.069421 258.692046 
L 254.267769 258.692046 
L 254.267769 259.498416 
L 262.466116 259.498416 
L 262.466116 264.310814 
L 270.664463 264.310814 
L 270.664463 267.356334 
L 278.86281 267.356334 
L 278.86281 270.584326 
L 287.061157 270.584326 
L 287.061157 264.906305 
L 295.259504 264.906305 
L 295.259504 263.139216 
L 303.457851 263.139216 
L 303.457851 275.09234 
L 311.656198 275.09234 
L 311.656198 269.595466 
L 319.854545 269.595466 
L 319.854545 272.618204 
L 328.052893 272.618204 
L 328.052893 286.310137 
L 336.25124 286.310137 
L 336.25124 278.066411 
L 344.449587 278.066411 
L 344.449587 290.475491 
L 352.647934 290.475491 
L 352.647934 273.664671 
L 360.846281 273.664671 
L 360.846281 279.617349 
L 369.044628 279.617349 
L 369.044628 284.128003 
L 377.242975 284.128003 
L 377.242975 290.958825 
L 385.441322 290.958825 
L 385.441322 286.310137 
L 393.639669 286.310137 
L 393.639669 294.469271 
L 401.838017 294.469271 
L 401.838017 295.515738 
L 410.036364 295.515738 
L 410.036364 288.584372 
L 418.234711 288.584372 
L 418.234711 293.442737 
L 426.433058 293.442737 
L 426.433058 303.472043 
L 434.631405 303.472043 
L 434.631405 320.633948 
L 442.829752 320.633948 
L 442.829752 302.26095 
L 451.028099 302.26095 
L 451.028099 315.040197 
L 459.226446 315.040197 
L 459.226446 305.97907 
L 467.424793 305.97907 
L 467.424793 321.482648 
L 475.62314 321.482648 
L 475.62314 309.286326 
L 483.821488 309.286326 
L 483.821488 314.286459 
L 492.019835 314.286459 
L 492.019835 331.823916 
L 500.218182 331.823916 
L 500.218182 333.937573 
L 508.416529 333.937573 
L 508.416529 335.026325 
L 516.614876 335.026325 
L 516.614876 336.137526 
L 524.813223 336.137526 
L 524.813223 361.466661 
L 533.01157 361.466661 
L 533.01157 354.721449 
L 541.209917 354.721449 
L 541.209917 392.076094 
L 549.408264 392.076094 
L 549.408264 380.68836 
L 557.606612 380.68836 
L 557.606612 406.533206 
L 565.804959 406.533206 
L 565.804959 432.697883 
L 574.003306 432.697883 
L 574.003306 406.533206 
L 582.201653 406.533206 
L 582.201653 415.535978 
L 590.4 415.535978 
L 590.4 448.201461 
L 598.598347 448.201461 
L 598.598347 485.556106 
L 606.796694 485.556106 
L 606.796694 420.672373 
L 614.995041 420.672373 
L 614.995041 448.201461 
L 623.193388 448.201461 
L 623.193388 544.761818 
L 631.391736 544.761818 
L 631.391736 470.052528 
L 647.78843 470.052528 
L 647.78843 458.027018 
L 655.986777 458.027018 
L 655.986777 544.761818 
L 664.185124 544.761818 
L 664.185124 485.556106 
L 672.383471 485.556106 
L 672.383471 544.761818 
L 680.581818 544.761818 
L 680.581818 485.556106 
L 688.780165 485.556106 
L 688.780165 544.761818 
L 705.17686 544.761818 
L 705.17686 649 
M 713.375207 649 
L 713.375207 544.761818 
L 721.573554 544.761818 
L 721.573554 649 
M 778.961983 649 
L 778.961983 544.761818 
L 787.160331 544.761818 
L 787.160331 649 
L 787.160331 649 
" style="fill:none;stroke:#f0e68c;stroke-linecap:square;stroke-width:3;"/>
   </g>
   <g id="patch_3">
    <path d="M 144 567 
L 144 77.76 
" style="fill:none;stroke:#000000;stroke-linecap:square;stroke-linejoin:miter;stroke-width:0.8;"/>
   </g>
   <g id="patch_4">
    <path d="M 1036.8 567 
L 1036.8 77.76 
" style="fill:none;stroke:#000000;stroke-linecap:square;stroke-linejoin:miter;stroke-width:0.8;"/>
   </g>
   <g id="patch_5">
    <path d="M 144 567 
L 1036.8 567 
" style="fill:none;stroke:#000000;stroke-linecap:square;stroke-linejoin:miter;stroke-width:0.8;"/>
   </g>
   <g id="patch_6">
    <path d="M 144 77.76 
L 1036.8 77.76 
" style="fill:none;stroke:#000000;stroke-linecap:square;stroke-linejoin:miter;stroke-width:0.8;"/>
   </g>
   <g id="legend_1">
    <g id="patch_7">
     <path d="M 674.4 181.869375 
L 1022.8 181.869375 
Q 1026.8 181.869375 1026.8 177.869375 
L 1026.8 91.76 
Q 1026.8 87.76 1022.8 87.76 
L 674.4 87.76 
Q 670.4 87.76 670.4 91.76 
L 670.4 177.869375 
Q 670.4 181.869375 674.4 181.869375 
z
" style="fill:#ffffff;opacity:0.8;stroke:#cccccc;stroke-linejoin:miter;"/>
    </g>
    <g id="line2d_45">
     <path d="M 678.4 103.956875 
L 718.4 103.956875 
" style="fill:none;stroke:#800080;stroke-linecap:square;stroke-width:3;"/>
    </g>
    <g id="line2d_46"/>
    <g id="text_12">
     <!-- $e^{+}$ DVAE -->
     <g transform="translate(734.4 110.956875)scale(0.2 -0.2)">
      <defs>
       <path d="M 3078 2063 
Q 3088 2113 3092 2166 
Q 3097 2219 3097 2272 
Q 3097 2653 2873 2875 
Q 2650 3097 2266 3097 
Q 1838 3097 1509 2826 
Q 1181 2556 1013 2059 
L 3078 2063 
z
M 3578 1613 
L 903 1613 
Q 884 1494 878 1425 
Q 872 1356 872 1306 
Q 872 872 1139 634 
Q 1406 397 1894 397 
Q 2269 397 2603 481 
Q 2938 566 3225 728 
L 3116 159 
Q 2806 34 2476 -28 
Q 2147 -91 1806 -91 
Q 1078 -91 686 257 
Q 294 606 294 1247 
Q 294 1794 489 2264 
Q 684 2734 1063 3103 
Q 1306 3334 1642 3459 
Q 1978 3584 2356 3584 
Q 2950 3584 3301 3228 
Q 3653 2872 3653 2272 
Q 3653 2128 3634 1964 
Q 3616 1800 3578 1613 
z
" id="DejaVuSans-Oblique-65" transform="scale(0.015625)"/>
       <path d="M 2944 4013 
L 2944 2272 
L 4684 2272 
L 4684 1741 
L 2944 1741 
L 2944 0 
L 2419 0 
L 2419 1741 
L 678 1741 
L 678 2272 
L 2419 2272 
L 2419 4013 
L 2944 4013 
z
" id="DejaVuSans-2b" transform="scale(0.015625)"/>
       <path d="M 1259 4147 
L 1259 519 
L 2022 519 
Q 2988 519 3436 956 
Q 3884 1394 3884 2338 
Q 3884 3275 3436 3711 
Q 2988 4147 2022 4147 
L 1259 4147 
z
M 628 4666 
L 1925 4666 
Q 3281 4666 3915 4102 
Q 4550 3538 4550 2338 
Q 4550 1131 3912 565 
Q 3275 0 1925 0 
L 628 0 
L 628 4666 
z
" id="DejaVuSans-44" transform="scale(0.015625)"/>
       <path d="M 2188 4044 
L 1331 1722 
L 3047 1722 
L 2188 4044 
z
M 1831 4666 
L 2547 4666 
L 4325 0 
L 3669 0 
L 3244 1197 
L 1141 1197 
L 716 0 
L 50 0 
L 1831 4666 
z
" id="DejaVuSans-41" transform="scale(0.015625)"/>
      </defs>
      <use transform="translate(0 0.826562)" xlink:href="#DejaVuSans-Oblique-65"/>
      <use transform="translate(66.173333 39.107812)scale(0.7)" xlink:href="#DejaVuSans-2b"/>
      <use transform="translate(127.560052 0.826562)" xlink:href="#DejaVuSans-20"/>
      <use transform="translate(159.347161 0.826562)" xlink:href="#DejaVuSans-44"/>
      <use transform="translate(236.349115 0.826562)" xlink:href="#DejaVuSans-56"/>
      <use transform="translate(304.757318 0.826562)" xlink:href="#DejaVuSans-41"/>
      <use transform="translate(373.165521 0.826562)" xlink:href="#DejaVuSans-45"/>
     </g>
    </g>
    <g id="line2d_47">
     <path d="M 678.4 133.313125 
L 718.4 133.313125 
" style="fill:none;stroke:#0000ff;stroke-linecap:square;stroke-width:3;"/>
    </g>
    <g id="line2d_48"/>
    <g id="text_13">
     <!-- $\gamma$   DVAE -->
     <g transform="translate(734.4 140.313125)scale(0.2 -0.2)">
      <defs>
       <path d="M 1491 2950 
L 1838 788 
L 3456 3500 
L 4066 3500 
L 1972 0 
L 1713 -1331 
L 1138 -1331 
L 1397 0 
L 988 2613 
Q 925 3006 628 3006 
L 475 3006 
L 569 3500 
L 788 3500 
Q 1403 3500 1491 2950 
z
" id="DejaVuSans-Oblique-3b3" transform="scale(0.015625)"/>
      </defs>
      <use transform="translate(0 0.09375)" xlink:href="#DejaVuSans-Oblique-3b3"/>
      <use transform="translate(59.179688 0.09375)" xlink:href="#DejaVuSans-20"/>
      <use transform="translate(90.966797 0.09375)" xlink:href="#DejaVuSans-20"/>
      <use transform="translate(122.753906 0.09375)" xlink:href="#DejaVuSans-20"/>
      <use transform="translate(154.541016 0.09375)" xlink:href="#DejaVuSans-44"/>
      <use transform="translate(231.542969 0.09375)" xlink:href="#DejaVuSans-56"/>
      <use transform="translate(299.951172 0.09375)" xlink:href="#DejaVuSans-41"/>
      <use transform="translate(368.359375 0.09375)" xlink:href="#DejaVuSans-45"/>
     </g>
    </g>
    <g id="line2d_49">
     <path d="M 678.4 162.71 
L 718.4 162.71 
" style="fill:none;stroke:#f0e68c;stroke-linecap:square;stroke-width:3;"/>
    </g>
    <g id="line2d_50"/>
    <g id="text_14">
     <!-- $\pi^{+}$ DVAE -->
     <g transform="translate(734.4 169.71)scale(0.2 -0.2)">
      <defs>
       <path d="M 584 3500 
L 3938 3500 
L 3825 2925 
L 3384 2925 
L 2966 775 
Q 2922 550 2981 450 
Q 3038 353 3209 353 
Q 3256 353 3325 363 
Q 3397 369 3419 372 
L 3338 -44 
Q 3222 -84 3103 -103 
Q 2981 -122 2866 -122 
Q 2491 -122 2388 81 
Q 2284 288 2391 838 
L 2797 2925 
L 1506 2925 
L 938 0 
L 350 0 
L 919 2925 
L 472 2925 
L 584 3500 
z
" id="DejaVuSans-Oblique-3c0" transform="scale(0.015625)"/>
      </defs>
      <use transform="translate(0 0.826562)" xlink:href="#DejaVuSans-Oblique-3c0"/>
      <use transform="translate(64.671224 39.107812)scale(0.7)" xlink:href="#DejaVuSans-2b"/>
      <use transform="translate(126.057943 0.826562)" xlink:href="#DejaVuSans-20"/>
      <use transform="translate(157.845052 0.826562)" xlink:href="#DejaVuSans-44"/>
      <use transform="translate(234.847005 0.826562)" xlink:href="#DejaVuSans-56"/>
      <use transform="translate(303.255208 0.826562)" xlink:href="#DejaVuSans-41"/>
      <use transform="translate(371.663411 0.826562)" xlink:href="#DejaVuSans-45"/>
     </g>
    </g>
    <g id="patch_8">
     <path d="M 861.8 110.956875 
L 901.8 110.956875 
L 901.8 96.956875 
L 861.8 96.956875 
z
" style="fill:#800080;opacity:0.3;stroke:#800080;stroke-linejoin:miter;"/>
    </g>
    <g id="text_15">
     <!-- $e^{+}$ GEANT -->
     <g transform="translate(917.8 110.956875)scale(0.2 -0.2)">
      <defs>
       <path d="M 628 4666 
L 1478 4666 
L 3547 763 
L 3547 4666 
L 4159 4666 
L 4159 0 
L 3309 0 
L 1241 3903 
L 1241 0 
L 628 0 
L 628 4666 
z
" id="DejaVuSans-4e" transform="scale(0.015625)"/>
       <path d="M -19 4666 
L 3928 4666 
L 3928 4134 
L 2272 4134 
L 2272 0 
L 1638 0 
L 1638 4134 
L -19 4134 
L -19 4666 
z
" id="DejaVuSans-54" transform="scale(0.015625)"/>
      </defs>
      <use transform="translate(0 0.826562)" xlink:href="#DejaVuSans-Oblique-65"/>
      <use transform="translate(66.173333 39.107812)scale(0.7)" xlink:href="#DejaVuSans-2b"/>
      <use transform="translate(127.560052 0.826562)" xlink:href="#DejaVuSans-20"/>
      <use transform="translate(159.347161 0.826562)" xlink:href="#DejaVuSans-47"/>
      <use transform="translate(236.837396 0.826562)" xlink:href="#DejaVuSans-45"/>
      <use transform="translate(300.02099 0.826562)" xlink:href="#DejaVuSans-41"/>
      <use transform="translate(368.429193 0.826562)" xlink:href="#DejaVuSans-4e"/>
      <use transform="translate(443.23388 0.826562)" xlink:href="#DejaVuSans-54"/>
     </g>
    </g>
    <g id="patch_9">
     <path d="M 861.8 140.313125 
L 901.8 140.313125 
L 901.8 126.313125 
L 861.8 126.313125 
z
" style="fill:#0000ff;opacity:0.3;stroke:#0000ff;stroke-linejoin:miter;"/>
    </g>
    <g id="text_16">
     <!-- $\gamma$   GEANT -->
     <g transform="translate(917.8 140.313125)scale(0.2 -0.2)">
      <use transform="translate(0 0.78125)" xlink:href="#DejaVuSans-Oblique-3b3"/>
      <use transform="translate(59.179688 0.78125)" xlink:href="#DejaVuSans-20"/>
      <use transform="translate(90.966797 0.78125)" xlink:href="#DejaVuSans-20"/>
      <use transform="translate(122.753906 0.78125)" xlink:href="#DejaVuSans-20"/>
      <use transform="translate(154.541016 0.78125)" xlink:href="#DejaVuSans-47"/>
      <use transform="translate(232.03125 0.78125)" xlink:href="#DejaVuSans-45"/>
      <use transform="translate(295.214844 0.78125)" xlink:href="#DejaVuSans-41"/>
      <use transform="translate(363.623047 0.78125)" xlink:href="#DejaVuSans-4e"/>
      <use transform="translate(438.427734 0.78125)" xlink:href="#DejaVuSans-54"/>
     </g>
    </g>
    <g id="patch_10">
     <path d="M 861.8 169.71 
L 901.8 169.71 
L 901.8 155.71 
L 861.8 155.71 
z
" style="fill:#f0e68c;opacity:0.3;stroke:#f0e68c;stroke-linejoin:miter;"/>
    </g>
    <g id="text_17">
     <!-- $\pi^{+}$ GEANT -->
     <g transform="translate(917.8 169.71)scale(0.2 -0.2)">
      <use transform="translate(0 0.826562)" xlink:href="#DejaVuSans-Oblique-3c0"/>
      <use transform="translate(64.671224 39.107812)scale(0.7)" xlink:href="#DejaVuSans-2b"/>
      <use transform="translate(126.057943 0.826562)" xlink:href="#DejaVuSans-20"/>
      <use transform="translate(157.845052 0.826562)" xlink:href="#DejaVuSans-47"/>
      <use transform="translate(235.335286 0.826562)" xlink:href="#DejaVuSans-45"/>
      <use transform="translate(298.51888 0.826562)" xlink:href="#DejaVuSans-41"/>
      <use transform="translate(366.927083 0.826562)" xlink:href="#DejaVuSans-4e"/>
      <use transform="translate(441.731771 0.826562)" xlink:href="#DejaVuSans-54"/>
     </g>
    </g>
   </g>
  </g>
 </g>
 <defs>
  <clipPath id="pad25e10319">
   <rect height="489.24" width="892.8" x="144" y="77.76"/>
  </clipPath>
 </defs>
</svg>
